<?xml version="1.0" standalone="no"?>
<!DOCTYPE svg PUBLIC "-//W3C//DTD SVG 1.1//EN" "http://www.w3.org/Graphics/SVG/1.1/DTD/svg11.dtd" >
<svg xmlns="http://www.w3.org/2000/svg" xmlns:xlink="http://www.w3.org/1999/xlink" version="1.1">
<metadata>
Created by FontForge 20170731 at Thu Dec 30 06:21:49 2021
 By Aleksey,,,
(c)2009 Kai Bernau and Commercial Type.
</metadata>
<defs>
<font id="LyonText-Regular" horiz-adv-x="1228" >
  <font-face 
    font-family="Lyon Text Regular"
    font-weight="400"
    font-stretch="normal"
    units-per-em="2048"
    panose-1="2 0 5 3 7 0 0 2 0 4"
    ascent="1556"
    descent="-492"
    x-height="963"
    cap-height="1360"
    bbox="-346 -547 2529 2249"
    underline-thickness="102"
    underline-position="-307"
    unicode-range="U+0020-FB04"
  />
<missing-glyph horiz-adv-x="1024" 
 />
    <glyph glyph-name="f_f" unicode="ff" horiz-adv-x="1286" 
d="M664 0v70l116 43v753h-409v-753l116 -43v-70h-419v70l129 43v747h-148v84l150 41q2 99 45.5 190.5t111.5 156t155 103t175 38.5q76 0 136 -27.5t93 -69.5q61 73 139.5 112.5t157.5 39.5q115 0 189 -57t74 -128q0 -42 -30 -74t-77 -32q-12 0 -24.5 2t-18.5 4l-6 2l-49 170
q-37 25 -94 25q-100 0 -161 -77.5t-61 -238.5v-161h279v-97h-279v-753l185 -43v-70h-475zM780 963q0 129 37 233l-55 150q-62 38 -123 38q-41 0 -77 -10.5t-72 -39t-61.5 -73t-41.5 -118.5t-16 -170v-10h409z" />
    <glyph glyph-name="f_i" unicode="fi" horiz-adv-x="1167" 
d="M684 0v70l113 43v753h-426v-753l135 -43v-70h-438v70l129 43v747h-148v84l146 41q17 246 155.5 394.5t329.5 148.5q116 0 195 -58t79 -131q0 -44 -30.5 -73t-81.5 -29q-13 0 -25.5 2t-18.5 4l-7 2l-50 168q-42 29 -112 29q-258 0 -258 -432v-47h473l123 26v-876l153 -43
v-70h-436z" />
    <glyph glyph-name="f_l" unicode="fl" horiz-adv-x="1196" 
d="M684 0v70l119 43v753h-432v-753l135 -43v-70h-438v70l129 43v747h-148v84l146 41q15 249 146 396t335 147q98 0 168 -39l131 39v-1415l151 -43v-70h-442zM371 1053v-90h432v385q-80 94 -180 94q-44 0 -79.5 -10t-69 -36t-55.5 -69t-35 -112t-13 -162z" />
    <glyph glyph-name="f_f_i" unicode="ffi" horiz-adv-x="1751" 
d="M1268 0v70l112 43v753h-426v-753l136 -43v-70h-439v70l129 43v753h-409v-753l116 -43v-70h-419v70l129 43v747h-148v84l150 41q2 99 45.5 190.5t111.5 156t155 103t175 38.5q79 0 140 -28.5t94 -72.5q67 75 157.5 115.5t186.5 40.5q116 0 195 -58t79 -131q0 -44 -31 -73
t-82 -29q-13 0 -25.5 2t-19.5 4l-6 2l-49 168q-43 29 -113 29q-258 0 -258 -432v-47h473l123 26v-876l154 -43v-70h-436zM780 981q-3 119 35 219l-53 146q-62 38 -123 38q-41 0 -77 -10.5t-72 -39t-61.5 -73t-41.5 -118.5t-16 -170v-10h409v18z" />
    <glyph glyph-name="f_f_l" unicode="ffl" horiz-adv-x="1779" 
d="M1268 0v70l118 43v753h-432v-753l138 -43v-70h-428v70l116 43v753h-409v-753l116 -43v-70h-419v70l129 43v747h-148v84l150 41q2 99 45.5 190.5t111.5 156t155 103t175 38.5q77 0 137 -27t95 -70q62 73 144.5 112.5t174.5 39.5q114 0 188 -41l134 41v-1415l151 -43v-70
h-442zM954 1053v-90h432v385q-80 94 -180 94q-47 0 -83 -10t-69 -36t-54 -69t-33.5 -112t-12.5 -162zM780 973q0 123 35 223l-53 150q-62 38 -123 38q-41 0 -77 -10.5t-72 -39t-61.5 -73t-41.5 -118.5t-16 -170v-10h409v10z" />
    <glyph glyph-name="f_b" unicode="fb" horiz-adv-x="1738" 
d="M68 0v70l129 43v747h-148v84l146 41q15 249 146 396t335 147q95 0 168 -39l131 39v-697q18 24 41 47t60 50.5t89.5 44t110.5 16.5q74 0 141.5 -26.5t124 -80t90 -146t33.5 -212.5q0 -116 -46 -220.5t-121.5 -177.5t-174.5 -116t-203 -43q-147 0 -243 39l-76 33v1311
q-81 92 -178 92q-44 0 -79.5 -10t-69 -36t-55.5 -69t-35 -112t-13 -162v-90h278v-105h-278v-745l184 -43v-70h-487zM1184 852q-111 0 -209 -92v-621q4 -3 10.5 -8.5t28.5 -20t45.5 -25t58 -19.5t68.5 -9q122 0 210.5 107.5t88.5 298.5q0 177 -84 283t-217 106z" />
    <glyph glyph-name="f_f_b" unicode="ffb" horiz-adv-x="2322" 
d="M664 70l116 43v753h-409v-753l116 -43v-70h-419v70l129 43v747h-148v84l150 41q2 99 45.5 190.5t111.5 156t155 103t175 38.5q76 0 136 -27.5t93 -69.5q65 74 153.5 113t191.5 39q94 0 167 -39l132 39v-697q18 24 41 47t60 50.5t89.5 44t110.5 16.5q74 0 141.5 -26.5
t124 -80t90 -146t33.5 -212.5q0 -116 -46 -220.5t-121.5 -177.5t-174.5 -116t-203 -43q-148 0 -244 39l-76 33v1311q-81 92 -178 92q-44 0 -79.5 -10t-69 -36t-55.5 -69t-35 -112t-13 -162v-90h279v-97h-279v-753l185 -43v-70h-475v70zM1767 852q-110 0 -208 -92v-621
q4 -3 10.5 -8.5t28.5 -20t45 -25t57.5 -19.5t68.5 -9q122 0 210.5 107.5t88.5 298.5q0 177 -84 283t-217 106zM780 963q0 128 35 235l-53 148q-62 38 -123 38q-41 0 -77 -10.5t-72 -39t-61.5 -73t-41.5 -118.5t-16 -170v-10h409z" />
    <glyph glyph-name="f_f_h" unicode="ffh" horiz-adv-x="2357" 
d="M1272 0v70l112 45v1235q-81 92 -178 92q-44 0 -79.5 -10t-69 -36t-55.5 -69t-35 -112t-13 -162v-90h279v-97h-279v-753l131 -43v-70h-421v70l116 43v753h-409v-753l116 -43v-70h-419v70l129 43v747h-148v84l150 41q2 99 45.5 190.5t111.5 156t155 103t175 38.5
q76 0 136 -27.5t93 -69.5q65 74 153.5 113t191.5 39q97 0 170 -39l129 39v-725q15 18 32 36.5t51 47t69.5 50t84 37t96.5 15.5q147 0 213 -76.5t66 -267.5v-534l133 -43v-68h-424v70l117 41v518q-6 113 -48.5 168t-140.5 55q-37 0 -76.5 -11.5t-69 -28.5t-53.5 -34t-37 -29
t-13 -14v-624l135 -41v-70h-422zM780 963q0 128 35 235l-53 148q-62 38 -123 38q-41 0 -77 -10.5t-72 -39t-61.5 -73t-41.5 -118.5t-16 -170v-10h409z" />
    <glyph glyph-name="f_f_j" unicode="ffj" horiz-adv-x="1726" 
d="M780 113v753h-409v-753l116 -43v-70h-419v70l129 43v747h-148v84l150 41q2 99 45.5 190.5t111.5 156t155 103t175 38.5q79 0 140 -28.5t94 -72.5q67 75 157.5 115.5t186.5 40.5q116 0 195 -58t79 -131q0 -44 -31 -73t-82 -29q-13 0 -25.5 2t-19.5 4l-6 2l-49 168
q-43 29 -113 29q-258 0 -258 -432v-47h473l123 26v-936q0 -225 -63 -354q-42 -88 -119.5 -144.5t-169.5 -68.5l-10 59q102 33 147 155.5t45 352.5v813h-426v-753l185 -43v-70h-488v70zM371 973v-10h409v18q-3 119 35 219l-53 146q-62 38 -123 38q-41 0 -77 -10.5t-72 -39
t-61.5 -73t-41.5 -118.5t-16 -170z" />
    <glyph glyph-name="f_f_k" unicode="ffk" horiz-adv-x="2263" 
d="M1272 0v70l112 45v1235q-81 92 -178 92q-44 0 -79.5 -10t-69 -36t-55.5 -69t-35 -112t-13 -162v-90h279v-97h-279v-753l131 -43v-70h-421v70l116 43v753h-409v-753l116 -43v-70h-419v70l129 43v747h-148v84l150 41q2 99 45.5 190.5t111.5 156t155 103t175 38.5
q76 0 136 -27.5t93 -69.5q65 74 153.5 113t191.5 39q97 0 170 -39l129 39v-1417l135 -41v-70h-422zM2132 -35q-97 -3 -211 144l-352 460v4l73 23l287 262l-125 41v64h414v-58l-137 -35l-332 -280l489 -580q-3 -5 -10.5 -12t-34.5 -19.5t-61 -13.5zM780 963q0 128 35 235
l-53 148q-62 38 -123 38q-41 0 -77 -10.5t-72 -39t-61.5 -73t-41.5 -118.5t-16 -170v-10h409z" />
    <glyph glyph-name="f_h" unicode="fh" horiz-adv-x="1773" 
d="M688 0v70l113 45v1235q-81 92 -178 92q-44 0 -79.5 -10t-69 -36t-55.5 -69t-35 -112t-13 -162v-90h278v-105h-278v-745l131 -43v-70h-434v70l129 43v747h-148v84l146 41q15 249 146 396t335 147q97 0 170 -39l129 39v-725q19 24 44.5 48.5t70 59.5t102.5 56.5t117 21.5
q147 0 212.5 -76.5t65.5 -267.5v-534l133 -43v-68h-424v70l117 41v518q-6 114 -48 168.5t-140 54.5q-37 0 -76.5 -11.5t-69.5 -28.5t-54 -34t-37 -29t-13 -14v-624l135 -41v-70h-422z" />
    <glyph glyph-name="f_j" unicode="fj" horiz-adv-x="1142" 
d="M614 -514l-10 59q102 33 147.5 155.5t45.5 352.5v813h-426v-753l184 -43v-70h-487v70l129 43v747h-148v84l146 41q17 246 155.5 394.5t329.5 148.5q116 0 195 -58t79 -131q0 -44 -30.5 -73t-81.5 -29q-13 0 -25.5 2t-18.5 4l-7 2l-50 168q-42 29 -112 29
q-258 0 -258 -432v-47h473l123 26v-936q0 -223 -64 -354q-42 -88 -119.5 -144.5t-169.5 -68.5z" />
    <glyph glyph-name="f_k" unicode="fk" horiz-adv-x="1679" 
d="M688 0v70l113 45v1235q-81 92 -178 92q-44 0 -79.5 -10t-69 -36t-55.5 -69t-35 -112t-13 -162v-90h278v-105h-278v-745l131 -43v-70h-434v70l129 43v747h-148v84l146 41q15 249 146 396t335 147q97 0 170 -39l129 39v-1417l135 -41v-70h-422zM1548 -35q-97 -3 -211 144
l-352 460v4l74 23l287 262l-125 41v64h413v-58l-137 -35l-332 -280l490 -580q-3 -5 -10.5 -12t-35 -19.5t-61.5 -13.5z" />
    <glyph glyph-name=".notdef" horiz-adv-x="1024" 
 />
    <glyph glyph-name=".null" horiz-adv-x="0" 
 />
    <glyph glyph-name="nonmarkingreturn" horiz-adv-x="682" 
 />
    <glyph glyph-name="space" unicode=" " horiz-adv-x="405" 
 />
    <glyph glyph-name="exclam" unicode="!" horiz-adv-x="583" 
d="M193 1423h198l-51 -1028h-96zM291 -14q-51 0 -89 38.5t-38 90.5t38 89.5t89 37.5q54 0 91.5 -37t37.5 -90t-37.5 -91t-91.5 -38z" />
    <glyph glyph-name="quotedbl" unicode="&#x22;" horiz-adv-x="964" 
d="M250 1034l-76 590h234l-99 -590h-59zM633 1034l-76 590h234l-99 -590h-59z" />
    <glyph glyph-name="numbersign" unicode="#" horiz-adv-x="1214" 
d="M168 784v119h225l56 314h118l-55 -314h301l55 314h119l-55 -314h217v-119h-240l-61 -356h211v-119h-234l-53 -309h-119l54 309h-301l-54 -309h-119l54 309h-209v119h231l62 356h-203zM489 784l-61 -356h301l62 356h-302z" />
    <glyph glyph-name="dollar" unicode="$" horiz-adv-x="1187" 
d="M563 -256v233h-2q-100 0 -215.5 29.5t-187.5 73.5l-27 340h78l113 -279q106 -73 241 -75v516l-104 26q-297 80 -297 334q0 136 109 246.5t292 134.5v283h84v-277h2q90 0 186 -25t150 -55l12 -317h-69l-105 260q-78 47 -176 53v-485l125 -33q293 -80 293 -324
q0 -78 -37 -151t-97.5 -125.5t-134 -89.5t-149.5 -51v-242h-84zM674 555l-27 6v-489q101 18 164 82.5t63 164.5q0 92 -44.5 151.5t-155.5 84.5zM336 1008q0 -80 44 -133.5t152 -81.5l31 -9v457q-101 -17 -164 -81t-63 -152z" />
    <glyph glyph-name="percent" unicode="%" horiz-adv-x="1830" 
d="M442 1239q81 0 145.5 -31t104 -83t60 -115.5t20.5 -132.5q0 -166 -99.5 -275.5t-242.5 -109.5q-146 0 -237 98t-91 260q0 168 99 278.5t241 110.5zM373 -102l962 1392h121l-962 -1392h-121zM428 1155q-58 0 -99 -43t-58 -101.5t-17 -123.5q0 -59 12 -114t35 -99.5
t61.5 -71.5t86.5 -27q56 0 96.5 42t58 102t17.5 127q0 131 -54.5 220t-138.5 89zM1403 709q65 0 120 -20.5t93 -55.5t65 -81.5t39.5 -98.5t12.5 -107q0 -166 -99.5 -275.5t-242.5 -109.5q-146 0 -237 98t-91 260q0 168 99 279t241 111zM1389 625q-58 0 -99.5 -43t-58.5 -102
t-17 -124q0 -81 20.5 -149.5t66 -115t108.5 -46.5q56 0 96.5 42t58 101.5t17.5 126.5q0 131 -54 220.5t-138 89.5z" />
    <glyph glyph-name="ampersand" unicode="&#x26;" horiz-adv-x="1560" 
d="M1509 899l-182 -47l-194 -373q-36 -68 -91 -153q87 -106 147 -156.5t122 -54.5q32 -2 60 8t46 26t31.5 32.5t19.5 28.5l5 11l47 -31q-4 -9 -12.5 -24t-37 -53t-60 -66.5t-80.5 -51.5t-99 -22q-87 3 -149.5 48t-151.5 155q-196 -217 -418 -217q-112 0 -198.5 33t-138 88.5
t-77.5 123t-26 142.5q0 61 23 118.5t55.5 100.5t82.5 86.5t89.5 70.5t91.5 58q-91 94 -126 154.5t-34 142.5q1 76 33 138t85.5 100.5t119.5 59t137 20.5q141 0 226 -63.5t85 -170.5q0 -102 -71.5 -179t-231.5 -167q114 -122 190 -215q34 -42 87.5 -111t72.5 -92
q28 48 76 146l147 311l-147 45v64h446v-64zM711 453q-85 103 -246 274q-46 -31 -78.5 -59t-64.5 -66t-49 -85t-17 -101q0 -58 21.5 -112t62 -98t105.5 -70.5t145 -26.5q166 0 287 133q-69 91 -166 211zM420 1130q0 -16 2 -30t3.5 -25.5t8.5 -25t10.5 -22t15.5 -23.5
t17.5 -22.5t22.5 -25.5t24.5 -26t30 -30.5l33.5 -33.5q92 69 136 134t44 137q0 83 -47 132.5t-127 49.5q-67 0 -120.5 -48.5t-53.5 -140.5z" />
    <glyph glyph-name="quotesingle" unicode="'" horiz-adv-x="581" 
d="M250 1034l-76 590h234l-99 -590h-59z" />
    <glyph glyph-name="parenleft" unicode="(" horiz-adv-x="702" 
d="M690 -369h-112q-186 197 -289 432t-103 496q0 265 106 503t296 437h110q-176 -226 -257 -441.5t-81 -498.5q0 -273 79 -489t251 -439z" />
    <glyph glyph-name="parenright" unicode=")" horiz-adv-x="702" 
d="M10 1499h113q186 -197 288.5 -432t102.5 -496q0 -266 -105.5 -503.5t-295.5 -436.5h-111q176 226 257 441.5t81 498.5q0 273 -79 489t-251 439z" />
    <glyph glyph-name="asterisk" unicode="*" horiz-adv-x="841" 
d="M764 1055l-266 -17l30 -266l-51 -12l-92 254l-246 -113l-26 43l213 166l-181 197l31 36l223 -145l133 232l43 -17l-69 -258l260 -51z" />
    <glyph glyph-name="plus" unicode="+" horiz-adv-x="1142" 
d="M1057 426h-422v-426h-127v426h-422v119h422v426h127v-426h422v-119z" />
    <glyph glyph-name="comma" unicode="," horiz-adv-x="552" 
d="M92 -367q90 61 136 141t46 154q0 160 -153 197q-7 44 -1.5 86t37 72t81.5 30q78 0 134 -64.5t56 -191.5q0 -137 -83.5 -271t-213.5 -204q-35 43 -39 51z" />
    <glyph glyph-name="hyphen" unicode="-" horiz-adv-x="702" 
d="M80 471v158h543v-158h-543z" />
    <glyph glyph-name="period" unicode="." horiz-adv-x="532" 
d="M264 -8q-57 0 -99 42.5t-42 100.5q0 57 42 99t99 42q58 0 101 -42t43 -99q0 -58 -42.5 -100.5t-101.5 -42.5z" />
    <glyph glyph-name="slash" unicode="/" horiz-adv-x="1032" 
d="M152 -416l-99 43l826 1895l98 -43z" />
    <glyph glyph-name="zero" unicode="0" horiz-adv-x="1310" 
d="M326 551q0 -67 10.5 -133.5t36.5 -134t65 -118.5t101.5 -83.5t140.5 -32.5q134 0 219.5 114.5t85.5 303.5q0 212 -97.5 353t-250.5 141q-130 0 -220.5 -112.5t-90.5 -297.5zM664 -39q-241 0 -392 148.5t-151 396.5q0 141 72 267.5t195.5 203t264.5 76.5
q162 0 285.5 -72.5t187.5 -196t64 -278.5q0 -107 -41.5 -207t-111.5 -174t-168 -119t-205 -45z" />
    <glyph glyph-name="one" unicode="1" horiz-adv-x="843" 
d="M535 1040v-931l239 -33v-76h-668v76l250 30v762h-266v86l436 86h9z" />
    <glyph glyph-name="two" unicode="2" horiz-adv-x="899" 
d="M387 274l-123 -127h555v-147h-760v53l74 80q37 40 97.5 104t88.5 94.5t70 78.5t60.5 77t40 67.5t29 72.5t7.5 71q0 93 -55 153t-143 60q-57 0 -105 -29t-100 -89l-51 36q47 71 89 115.5t109.5 76.5t151.5 32q134 0 210.5 -74.5t76.5 -187.5q0 -62 -21.5 -122.5
t-71.5 -129.5t-97 -122.5t-132 -142.5z" />
    <glyph glyph-name="three" unicode="3" horiz-adv-x="864" 
d="M219 -418q-67 0 -120.5 33.5t-53.5 91.5q0 67 84 90l145 -127q141 0 228.5 88t87.5 213q0 138 -111.5 225.5t-279.5 75.5v90l75 37q129 63 198 149t69 167q0 93 -53 143.5t-140 50.5q-111 0 -211 -118l-51 40q34 52 65.5 87.5t73.5 68.5t94.5 49.5t116.5 16.5
q134 0 211.5 -75.5t77.5 -191.5q0 -42 -14 -83t-32.5 -70.5t-54 -65.5t-60 -56.5t-68.5 -55.5l-60 -49v-7q65 -11 123 -39t105 -71.5t74.5 -107.5t27.5 -140q0 -93 -50 -180t-128.5 -147t-176 -96t-192.5 -36z" />
    <glyph glyph-name="four" unicode="4" horiz-adv-x="1134" 
d="M657 -399v430h-639v61l766 959h47v-901h285v-119h-285v-430h-174zM174 150h483v620z" />
    <glyph glyph-name="five" unicode="5" horiz-adv-x="856" 
d="M158 -418q-65 0 -119.5 33t-54.5 92q0 67 84 90l145 -127q148 23 230.5 119t82.5 238q0 61 -18.5 117.5t-63.5 123.5t-132 142t-214 157l193 459h473v-170h-459l-65 -162q244 -124 354.5 -270.5t110.5 -323.5q0 -107 -54.5 -206t-136.5 -166t-177 -106.5t-179 -39.5z" />
    <glyph glyph-name="six" unicode="6" horiz-adv-x="1173" 
d="M1147 1366q-103 -37 -212.5 -98t-218 -143t-199 -190t-138.5 -222q142 125 293 125q180 0 286.5 -111t106.5 -295q0 -86 -32.5 -170t-91 -151.5t-148 -109.5t-193.5 -42q-101 0 -187 29.5t-152 87t-103 149t-37 207.5q0 150 57 289t153 249t226.5 202t274 156.5
t298.5 105.5zM578 715q-50 0 -114 -20.5t-114 -63.5q-24 -83 -24 -170q0 -204 82.5 -311t214.5 -107q105 0 172 76t67 235q0 167 -78 264t-206 97z" />
    <glyph glyph-name="seven" unicode="7" horiz-adv-x="1044" 
d="M195 -420l-144 60l768 1206h-717v180h897v-18l-647 -1131z" />
    <glyph glyph-name="eight" unicode="8" horiz-adv-x="1048" 
d="M92 299q0 57 18.5 107t44 85.5t71.5 72.5t81.5 59t93.5 55l-75 61q-82 65 -131.5 138t-49.5 165q0 147 119 250t299 103q156 0 258.5 -85.5t102.5 -215.5q0 -61 -24 -120t-65.5 -108t-85 -87t-92.5 -70l41 -31q53 -42 82 -66.5t67.5 -63t58 -70.5t34 -74.5t14.5 -88.5
q0 -107 -60.5 -189.5t-156.5 -124.5t-209 -42q-192 0 -314 94.5t-122 245.5zM516 586l-57 45q-100 -79 -140 -148.5t-40 -167.5q0 -48 16 -95.5t46 -88t80 -65.5t111 -25q121 0 183.5 62t62.5 143q0 21 -4 41.5t-9.5 37.5t-18 37t-21 33.5t-28 33.5t-30.5 31t-35.5 32
t-36 30t-40 32t-39.5 32zM322 1094q0 -71 46 -133.5t140 -133.5l92 -73q64 62 104.5 143.5t40.5 165.5q0 117 -59.5 183.5t-153.5 66.5q-90 0 -150 -60.5t-60 -158.5z" />
    <glyph glyph-name="nine" unicode="9" horiz-adv-x="1173" 
d="M88 -358q78 31 155 71.5t161.5 99.5t156 125.5t133.5 153.5t99 180q-130 -108 -279 -108q-181 0 -293 114t-112 297q0 86 32.5 170t90.5 152t147.5 110t193.5 42q134 0 242 -55.5t173 -165t65 -253.5q0 -183 -77 -349t-209 -291.5t-301.5 -217.5t-361.5 -143zM598 287
q53 0 117 19t106 54q23 97 23 187q0 205 -80.5 311.5t-212.5 106.5q-106 0 -176 -77t-70 -235q0 -165 84 -265.5t209 -100.5z" />
    <glyph glyph-name="colon" unicode=":" horiz-adv-x="534" 
d="M283 -8q-57 0 -99.5 42.5t-42.5 100.5q0 57 42.5 99t99.5 42q58 0 100.5 -42t42.5 -99q0 -59 -42 -101t-101 -42zM289 690q-59 0 -101.5 43t-42.5 101q0 57 43 99t101 42q57 0 99 -42t42 -99q0 -58 -42 -101t-99 -43z" />
    <glyph glyph-name="semicolon" unicode=";" horiz-adv-x="544" 
d="M297 690q-58 0 -100.5 42.5t-42.5 101.5q0 57 42.5 99t100.5 42q57 0 99 -42t42 -99q0 -58 -42 -101t-99 -43zM113 -367q90 61 136 141t46 154q0 159 -154 197q-7 44 -1.5 86t37 72t81.5 30q79 0 135 -64.5t56 -191.5q0 -137 -83.5 -271t-213.5 -204q-35 43 -39 51z" />
    <glyph glyph-name="less" unicode="&#x3c;" horiz-adv-x="1142" 
d="M1053 856l-820 -375l820 -368v-142l-967 451v121l967 450v-137z" />
    <glyph glyph-name="equal" unicode="=" horiz-adv-x="1142" 
d="M86 600v113h971v-113h-971zM86 301v113h971v-113h-971z" />
    <glyph glyph-name="greater" unicode="&#x3e;" horiz-adv-x="1142" 
d="M88 109l819 374l-819 369v141l967 -450v-121l-967 -451v138z" />
    <glyph glyph-name="question" unicode="?" horiz-adv-x="831" 
d="M188 1210v213l60 -10q78 -14 160.5 -56t155 -105t119 -152t46.5 -185q0 -185 -201 -260l-168 -61l9 -199h-93l-47 334l238 84q86 30 121 66t35 88q0 84 -109.5 150.5t-275.5 86.5zM311 -14q-51 0 -89 38.5t-38 90.5t38 89.5t89 37.5q54 0 91.5 -37t37.5 -90t-37.5 -91
t-91.5 -38z" />
    <glyph glyph-name="at" unicode="@" horiz-adv-x="1957" 
d="M1096 307l26 84h-12l-47 -69q-86 -127 -125 -172q-114 -134 -223 -134q-82 0 -125 49.5t-45 129.5q-2 131 62.5 270t160 242.5t208 170t202.5 66.5q88 0 145 -49l18 74h121l-198 -656q-26 -82 -23 -131.5t23 -70.5t55 -21q56 0 124 41.5t130.5 113t104.5 183.5t42 236
q0 169 -79 306.5t-221 217.5t-320 80q-161 0 -308 -67.5t-254.5 -183t-171 -279t-63.5 -347.5q0 -159 52 -286.5t145 -211t219.5 -128t275.5 -44.5q33 0 62.5 1.5t56.5 4t46 5t42 7t32.5 6.5t30 7t23.5 6v-51q-20 -8 -55.5 -19t-137.5 -29.5t-196 -18.5q-172 0 -314.5 54
t-239 149t-149.5 226t-53 283q0 164 56 318.5t154 274.5t223.5 210.5t270.5 139t290 48.5q167 0 304 -54.5t224 -146t133.5 -209t46.5 -247.5q0 -95 -25 -185t-67.5 -162.5t-99.5 -133.5t-121 -102t-131.5 -64t-130.5 -23q-117 0 -167.5 74t-6.5 217zM803 158
q52 0 148.5 114t175 246t100.5 201l22 72q-59 73 -131 73q-62 0 -131.5 -59t-124 -147.5t-90 -198t-35.5 -205.5q0 -42 17 -69t49 -27z" />
    <glyph glyph-name="A" unicode="A" horiz-adv-x="1380" 
d="M6 0v66l119 47l498 1257l69 10l72 21l471 -1288l139 -45v-68h-526v68l174 47l-125 358h-500l-118 -334l196 -71v-68h-469zM649 1176l-207 -580h412l-203 580h-2z" />
    <glyph glyph-name="B" unicode="B" horiz-adv-x="1308" 
d="M100 0v68l174 47v1126l-174 53v66l473 6q269 3 410 -75.5t141 -233.5q0 -63 -21.5 -114.5t-58 -87t-88 -60.5t-107.5 -38.5t-120 -19.5v-4q94 -5 174 -27t146 -63.5t103.5 -109.5t37.5 -156q0 -181 -157 -285t-431 -100zM680 678h-207v-514q21 -43 77 -70.5t136 -27.5
q56 0 107.5 18.5t94 54t68 93t25.5 128.5q0 131 -84 213t-217 105zM473 1296v-534q67 1 121 6t118.5 22t108.5 45t73.5 79t29.5 120q0 138 -113 201.5t-338 60.5z" />
    <glyph glyph-name="C" unicode="C" horiz-adv-x="1466" 
d="M809 -51q-151 0 -273 40t-202 106.5t-134 156t-77 184.5t-23 197q0 214 101 388.5t279 274t397 99.5q229 0 428 -111l12 -342h-76l-113 275q-115 77 -270 77q-111 0 -208.5 -42.5t-169 -118.5t-113 -187t-41.5 -241q0 -155 42.5 -280t116.5 -206t173.5 -124.5
t215.5 -43.5q156 0 281 92l154 289h75l-53 -344q-134 -69 -257 -104t-265 -35z" />
    <glyph glyph-name="D" unicode="D" horiz-adv-x="1583" 
d="M473 1284v-1094q4 -35 29.5 -58.5t65.5 -34t77 -14.5t76 -3q126 3 228 49.5t168.5 125t102 180.5t35.5 218q0 146 -41.5 259.5t-113 186t-172 117t-213 60t-242.5 8.5zM100 0v68l174 47v1126l-174 53v66l615 8q181 2 325.5 -47t238.5 -138.5t144 -212t50 -268.5
q0 -316 -231.5 -514t-623.5 -194z" />
    <glyph glyph-name="E" unicode="E" horiz-adv-x="1294" 
d="M739 657h-266v-561h479l166 271h76l-66 -367h-1028v68l174 47v1124l-174 55v66h842l178 8v-362h-73l-111 262h-463v-516h266l60 168h65v-418h-71z" />
    <glyph glyph-name="F" unicode="F" horiz-adv-x="1181" 
d="M741 653h-268v-538l209 -39v-76h-582v68l174 47v1124l-174 55v66h840l180 8v-362h-73l-113 262h-461v-520h268l58 167h65v-417h-73z" />
    <glyph glyph-name="G" unicode="G" horiz-adv-x="1540" 
d="M834 -51q-156 0 -281.5 38.5t-208.5 103.5t-138.5 154.5t-79.5 188t-24 207.5q0 148 62 286t168.5 241t257.5 165t319 62q226 0 416 -111l12 -332h-80l-114 271q-109 71 -273 71q-101 0 -189 -33.5t-152.5 -91.5t-110.5 -136.5t-69 -170t-23 -188.5q0 -151 46.5 -272
t125.5 -196.5t179 -115t212 -39.5q141 0 244 45v418l-191 53v58h504v-68l-117 -33v-424l-63 -34q-79 -45 -194 -81t-238 -36z" />
    <glyph glyph-name="H" unicode="H" horiz-adv-x="1624" 
d="M977 0v68l174 47v547h-678v-547l174 -49v-66h-547v68l174 47v1126l-174 53v66h547v-66l-174 -53v-483h678v483l-174 53v66h547v-66l-174 -53v-1126l174 -49v-66h-547z" />
    <glyph glyph-name="I" unicode="I" horiz-adv-x="724" 
d="M100 0v68l174 47v1126l-174 53v66h547v-66l-174 -53v-1126l174 -49v-66h-547z" />
    <glyph glyph-name="J" unicode="J" horiz-adv-x="708" 
d="M481 1241v-1137q0 -94 -10.5 -167t-40 -143t-78.5 -117.5t-129.5 -80.5t-189.5 -42l-13 69q60 12 104.5 34t73 55.5t46 68.5t26 88t11 98t2.5 113v1163l-191 43v74h563v-66z" />
    <glyph glyph-name="K" unicode="K" horiz-adv-x="1394" 
d="M100 0v68l174 47v1126l-174 53v66h547v-66l-174 -53v-1126l174 -49v-66h-547zM1061 0l-572 735v8l58 27l459 471l-144 59v60h428v-66l-166 -53l-434 -450l531 -685l153 -40v-66h-313z" />
    <glyph glyph-name="L" unicode="L" horiz-adv-x="1216" 
d="M473 96h451l166 312h75l-73 -408h-992v68l174 47v1124l-174 55v66h582v-66l-209 -53v-1145z" />
    <glyph glyph-name="M" unicode="M" horiz-adv-x="1869" 
d="M94 0v66l174 49l6 1126l-172 53v66h408l451 -1014l376 916l9 98h428v-66l-175 -53l7 -1126l174 -49v-66h-555v68l182 47l6 1085l-430 -1022l-37 -108h-74l-38 108l-453 996v-1031l225 -75v-68h-512z" />
    <glyph glyph-name="N" unicode="N" horiz-adv-x="1591" 
d="M1352 -23h-47l-897 1094v-928l219 -75v-68h-506v68l174 47v1106l-195 73v66h328l807 -987v839l-219 80v68h506v-68l-174 -51v-1001z" />
    <glyph glyph-name="O" unicode="O" horiz-adv-x="1609" 
d="M827 35q92 0 170 36.5t130.5 97t89.5 139.5t54 163t17 168q0 175 -64 328t-180.5 247.5t-257.5 94.5q-95 0 -174.5 -35.5t-132 -94t-89 -136t-52.5 -159t-16 -165.5q0 -95 19 -190t60.5 -184.5t99.5 -158t142.5 -110t183.5 -41.5zM803 1395q141 0 258 -40t197 -108
t135 -159t80.5 -191t25.5 -207q0 -170 -52.5 -310t-145.5 -234t-220.5 -145.5t-275.5 -51.5t-276.5 51t-220.5 141.5t-144.5 222t-52.5 287.5q0 170 52.5 310.5t145 235t219.5 146.5t275 52z" />
    <glyph glyph-name="P" unicode="P" horiz-adv-x="1222" 
d="M567 643q185 14 290.5 96t105.5 226q0 67 -28.5 124t-86 103.5t-154 73t-221.5 26.5v-1177l260 -47v-68h-633v68l174 47v1126l-174 53v66l449 4q303 3 464 -96.5t161 -270.5q0 -110 -56 -197t-146 -136.5t-195 -72.5t-210 -16v68z" />
    <glyph glyph-name="Q" unicode="Q" horiz-adv-x="1609" 
d="M803 1395q141 0 258 -39.5t197 -106.5t135 -157t80.5 -189t25.5 -205q0 -301 -159 -499.5t-416 -237.5q103 -74 171 -118t154.5 -88.5t170 -64.5t173.5 -20q196 0 379 123l41 -45l-10 -10q-33 -34 -54 -53t-69 -52t-94 -51.5t-118.5 -33.5t-154.5 -15q-68 0 -137 12.5
t-128.5 31.5t-128.5 53.5t-123 66.5t-127.5 84.5t-125.5 92t-133 103.5q-226 59 -362.5 243t-136.5 442q0 167 52.5 306t145 232t219.5 144t275 51zM786 1309q-95 0 -174.5 -35.5t-132 -94t-89 -136t-52.5 -159t-16 -165.5q0 -95 19 -190t60.5 -184.5t99.5 -158t142.5 -110
t183.5 -41.5q92 0 170 36.5t130.5 97t89.5 139.5t54 163t17 168q0 175 -64 328t-180.5 247.5t-257.5 94.5z" />
    <glyph glyph-name="R" unicode="R" horiz-adv-x="1363" 
d="M100 0v68l174 47v1126l-174 53v66l471 6q286 3 433 -86.5t147 -249.5q0 -129 -82.5 -217t-226.5 -135l399 -563l178 -47v-68h-332l-358 506l-80 119l-176 -11v-499l174 -49v-66h-547zM473 1294v-592h170q128 14 211.5 92t83.5 195q0 151 -122.5 231t-342.5 74z" />
    <glyph glyph-name="S" unicode="S" horiz-adv-x="1058" 
d="M104 68l-26 362h78l112 -295q101 -82 238 -82q120 0 197 69.5t77 184.5q0 179 -196 260l-209 88q-140 61 -209.5 144.5t-69.5 208.5q0 167 136.5 280t345.5 113q89 0 176 -25.5t141 -58.5l12 -338h-69l-107 278q-87 58 -180 58q-116 0 -189 -68.5t-73 -161.5
q0 -86 43.5 -140t130.5 -93l244 -111q146 -65 209 -151.5t63 -204.5q0 -92 -44.5 -173.5t-115 -135t-157.5 -84.5t-173 -31q-99 0 -206 30t-179 77z" />
    <glyph glyph-name="T" unicode="T" horiz-adv-x="1325" 
d="M219 1360h887l137 16l21 -370h-74l-111 262h-317v-1153l192 -47v-68h-585v68l194 47v1153h-317l-111 -262h-74l19 370z" />
    <glyph glyph-name="U" unicode="U" horiz-adv-x="1513" 
d="M772 -49q-129 0 -226 28t-159 76t-100 121.5t-53 156t-15 187.5v721l-174 53v66h553v-66l-174 -53v-670q0 -88 10 -160t36 -137t67 -109.5t105.5 -70.5t148.5 -26q209 0 305.5 119t93.5 374l-6 662l-238 71v66h539v-66l-174 -53v-721q-1 -112 -32 -206.5t-82.5 -160.5
t-120 -112t-145.5 -68t-159 -22z" />
    <glyph glyph-name="V" unicode="V" horiz-adv-x="1341" 
d="M629 -25l-500 1266l-131 53v66h522v-66l-174 -53l369 -973h4l356 955l-221 67v70h489v-66l-135 -61l-493 -1258h-86z" />
    <glyph glyph-name="W" unicode="W" horiz-adv-x="1982" 
d="M1321 -14l-328 960l-336 -960h-149l-381 1255l-129 53v66h522v-66l-176 -53l287 -1046l309 909l-45 137l-176 53v66h553v-70l-172 -49l334 -1032l286 1014l-213 67v70h478v-66l-136 -61l-376 -1247h-152z" />
    <glyph glyph-name="X" unicode="X" horiz-adv-x="1460" 
d="M39 0v68l154 45l460 573l-385 555l-153 53v66h561v-66l-174 -53l289 -412h4l301 394l-209 67v70h518v-66l-154 -53l-403 -493l430 -633l143 -47v-68h-553v68l174 47l-329 493h-4l-359 -489l174 -51v-68h-485z" />
    <glyph glyph-name="Y" unicode="Y" horiz-adv-x="1290" 
d="M1141 1233l-396 -660v-458l193 -47v-68h-586v68l195 47v422l-402 704l-131 53v66h514v-66l-153 -53l317 -586h8l324 568l-193 67v70h445v-66z" />
    <glyph glyph-name="Z" unicode="Z" horiz-adv-x="1269" 
d="M63 0v51l855 1215h-596l-132 -285h-73l43 391l153 -12h899v-6l-880 -1258h637l168 312h75l-75 -418l-160 10h-914z" />
    <glyph glyph-name="bracketleft" unicode="[" horiz-adv-x="727" 
d="M635 -371h-373v1872h373v-80h-205v-1712h205v-80z" />
    <glyph glyph-name="backslash" unicode="\" horiz-adv-x="1032" 
d="M977 -373l-98 -43l-826 1895l99 43z" />
    <glyph glyph-name="bracketright" unicode="]" horiz-adv-x="727" 
d="M92 1501h373v-1872h-373v80h205v1712h-205v80z" />
    <glyph glyph-name="asciicircum" unicode="^" horiz-adv-x="868" 
d="M156 958h-95l312 590h123l311 -590h-100l-279 443z" />
    <glyph glyph-name="underscore" unicode="_" horiz-adv-x="835" 
d="M8 -420v121h819v-121h-819z" />
    <glyph glyph-name="grave" unicode="`" horiz-adv-x="819" 
d="M467 1128l-205 381v39h164l125 -420h-84z" />
    <glyph glyph-name="a" unicode="a" horiz-adv-x="1028" 
d="M346 -31q-42 0 -84.5 15t-79 43t-59.5 75.5t-23 106.5q0 117 80.5 183t249.5 110l211 55v107q-3 115 -56.5 177t-138.5 62q-70 0 -129 -37l-8 -202q-51 -7 -82 -7q-98 0 -98 88q0 35 32 77.5t83.5 79.5t126 62t149.5 25q154 0 225.5 -72t71.5 -225v-553q0 -32 13.5 -43.5
t54.5 -11.5h102v-57q-118 -52 -194 -52q-74 0 -111 44.5t-37 115.5h-6q-6 -6 -32 -30.5t-31 -29t-26 -23.5t-27 -23t-24.5 -17.5t-27.5 -16t-26 -10.5t-30.5 -9.5t-31.5 -4t-37 -2.5zM455 109q64 0 111 34.5t75 75.5v270l-197 -65q-79 -27 -118 -62.5t-39 -95.5
q0 -74 49 -115.5t119 -41.5z" />
    <glyph glyph-name="b" unicode="b" horiz-adv-x="1118" 
d="M500 -33q-148 0 -244 39l-76 33v1313l-127 39v65l301 72v-697q18 24 41 47t60 50.5t89.5 44t110.5 16.5q74 0 141.5 -26.5t124 -80t90 -146t33.5 -212.5q0 -154 -78 -283.5t-202.5 -201.5t-263.5 -72zM567 858q-65 0 -120.5 -30.5t-92.5 -67.5v-621q4 -3 10.5 -8.5
t28.5 -20t45.5 -25t58 -19.5t68.5 -9q57 0 110.5 27t97 77t69.5 130t26 178q0 177 -84 283t-217 106z" />
    <glyph glyph-name="c" unicode="c" horiz-adv-x="960" 
d="M512 -33q-88 0 -166.5 31t-140 89.5t-97.5 151.5t-36 207q0 120 45.5 224t118.5 172.5t164.5 107.5t185.5 39q126 0 211.5 -59.5t85.5 -145.5q0 -47 -28.5 -79.5t-80.5 -32.5l-69 6l-31 190q-50 33 -123 33q-128 0 -213.5 -106.5t-85.5 -268.5q0 -173 100.5 -294
t253.5 -121q41 0 81 13.5t67.5 32.5t49 37.5t32.5 31.5l10 14l41 -27q-2 -5 -6 -14t-19 -34.5t-33 -48.5t-50 -51.5t-68 -49t-88.5 -34.5t-110.5 -14z" />
    <glyph glyph-name="d" unicode="d" horiz-adv-x="1167" 
d="M575 1409v64l359 55v-1409l166 -41v-68l-275 -39l-49 140q-71 -69 -137 -106.5t-152 -37.5q-84 0 -153.5 26.5t-117 71.5t-80 104.5t-47.5 124.5t-15 134q0 248 144 404.5t366 156.5q90 0 176 -20v407zM590 106q90 0 170 54v608q-3 5 -9 14.5t-27.5 32.5t-45.5 41
t-62 32.5t-79 14.5q-125 0 -208 -99t-83 -272q0 -64 10 -122t35 -114.5t63.5 -97.5t99 -66.5t136.5 -25.5z" />
    <glyph glyph-name="e" unicode="e" horiz-adv-x="1026" 
d="M522 -33q-97 0 -176.5 33t-128.5 84t-82.5 116.5t-47 126t-13.5 117.5q0 232 135.5 388.5t347.5 156.5q171 0 266 -112.5t95 -321.5h-678v-20q0 -189 98.5 -300.5t259.5 -111.5q49 0 96 16t80 38t58.5 44.5t37.5 38.5l13 16l41 -24q-2 -6 -6 -16t-20.5 -40t-36 -57
t-53.5 -59.5t-73 -56.5t-95 -40t-118 -16zM512 899q-95 0 -166.5 -74t-95.5 -190h463q-2 112 -53.5 188t-147.5 76z" />
    <glyph glyph-name="f" unicode="f" horiz-adv-x="702" 
d="M68 0v70l129 43v747h-148v84l146 41v8q0 144 62 268.5t161.5 195.5t210.5 71q116 0 189 -56.5t73 -128.5q0 -42 -29 -74t-78 -32q-12 0 -24.5 2t-18.5 4l-6 2l-49 170q-37 25 -94 25q-96 0 -158.5 -75.5t-62.5 -240.5v-161h278v-105h-278v-745l184 -43v-70h-487z" />
    <glyph glyph-name="g" unicode="g" horiz-adv-x="1058" 
d="M1020 844l-234 12l-2 -6q105 -89 105 -227q0 -81 -35 -151t-92 -116.5t-130.5 -73t-150.5 -26.5q-74 0 -147 25q-72 -57 -72 -103q0 -24 21.5 -46t54.5 -23l387 -23q147 -9 220 -69.5t73 -159.5q0 -65 -41 -131t-115 -122t-190.5 -91t-253.5 -35q-100 0 -183 26
t-135.5 79.5t-52.5 125.5q0 59 39.5 117.5t110.5 97.5l49 27v4l-146 139q29 74 65 121.5t97 97.5q-74 45 -118 121.5t-44 179.5q0 165 113.5 270t280.5 105q64 0 114.5 -12t126.5 -39l285 31v-125zM506 344q84 0 140 69t56 183q0 156 -61.5 234.5t-159.5 78.5
q-91 0 -141.5 -64t-50.5 -181q0 -150 58.5 -235t158.5 -85zM707 -80l-388 25q-32 -34 -60 -84t-28 -99q0 -31 14.5 -61t45.5 -58t88.5 -45.5t134.5 -17.5q90 0 161 20t112 52.5t62 69t21 73.5q0 114 -163 125z" />
    <glyph glyph-name="h" unicode="h" horiz-adv-x="1155" 
d="M678 0v70l117 41v518q-6 113 -48.5 168t-140.5 55q-37 0 -76.5 -11.5t-69.5 -28.5t-54 -34t-37 -29t-13 -14v-624l136 -41v-70h-439v70l129 45v1251l-137 53v56l311 53v-725q19 24 44.5 48.5t70 59.5t102.5 56.5t117 21.5q147 0 213 -76.5t66 -267.5v-534l133 -43v-68
h-424z" />
    <glyph glyph-name="i" unicode="i" horiz-adv-x="571" 
d="M63 0v70l138 45v700l-121 43v72l291 59v-876l153 -43v-70h-461zM272 1278q-51 0 -89 37t-38 88t38 88t89 37q50 0 87.5 -37t37.5 -88t-37.5 -88t-87.5 -37z" />
    <glyph glyph-name="j" unicode="j" horiz-adv-x="534" 
d="M4 -514l-10 59q102 33 147 155.5t45 352.5v750l-120 55v72l292 59v-936q0 -221 -65 -354q-42 -88 -119.5 -144.5t-169.5 -68.5zM258 1278q-50 0 -87.5 37t-37.5 88t37.5 88t87.5 37q51 0 89 -37t38 -88t-38 -88t-89 -37z" />
    <glyph glyph-name="k" unicode="k" horiz-adv-x="1067" 
d="M188 115v1237l-135 53v55l309 68v-1417l136 -41v-70h-439v70zM936 -35q-97 -3 -211 144l-352 460v4l73 23l287 262l-125 41v64h414v-58l-137 -35l-332 -280l489 -580q-3 -5 -10.5 -12t-34.5 -19.5t-61 -13.5z" />
    <glyph glyph-name="l" unicode="l" horiz-adv-x="571" 
d="M59 0v70l129 43v1239l-131 39v65l305 72v-1417l140 -41v-70h-443z" />
    <glyph glyph-name="m" unicode="m" horiz-adv-x="1779" 
d="M1305 0v70l116 41v518q-6 114 -48 168.5t-140 54.5q-79 0 -146 -38.5t-104 -78.5v-624l133 -43v-68h-424v70l117 41v518q-6 114 -48 168.5t-140 54.5q-37 0 -76.5 -11.5t-69.5 -28.5t-54 -34t-37 -29t-13 -14v-624l135 -41v-70h-438v70l129 43v690l-138 33v55l252 98h11
l45 -186h2q159 186 336 186q128 0 187 -50.5t73 -152.5h4q15 20 38.5 45t70.5 65t111 66.5t130 26.5q145 0 210.5 -76.5t65.5 -267.5v-534l134 -43v-68h-424z" />
    <glyph glyph-name="n" unicode="n" horiz-adv-x="1167" 
d="M68 0v70l129 43v690l-138 33v55l252 98h11l45 -186h2q159 186 336 186q147 0 212.5 -76.5t65.5 -267.5v-534l133 -43v-68h-424v70l117 41v518q-6 114 -48 168.5t-140 54.5q-37 0 -76.5 -11.5t-69.5 -28.5t-54 -34t-37 -29t-13 -14v-624l135 -41v-70h-438z" />
    <glyph glyph-name="o" unicode="o" horiz-adv-x="1097" 
d="M260 535q0 -88 18.5 -170.5t55 -152.5t98.5 -112.5t141 -42.5q120 0 192.5 107t72.5 268q0 222 -85.5 347.5t-226.5 125.5q-123 0 -194.5 -104.5t-71.5 -265.5zM549 -33q-112 0 -204 40t-150 109t-89.5 158t-31.5 189q0 144 63 266t172 193t240 71q220 0 347.5 -130.5
t127.5 -360.5q0 -147 -62 -269.5t-171 -194t-242 -71.5z" />
    <glyph glyph-name="p" unicode="p" horiz-adv-x="1089" 
d="M33 -492v70l129 45v1180l-137 33v55l251 98h11l39 -164q132 164 307 164q79 0 146 -26.5t121 -80t85 -145.5t31 -213q0 -115 -47 -220t-123 -178t-175 -116t-202 -43q-61 0 -133 21v-361l186 -55v-64h-489zM543 856q-111 0 -207 -86v-641q72 -72 201 -72
q122 0 212.5 109.5t90.5 300.5q0 176 -82 282.5t-215 106.5z" />
    <glyph glyph-name="q" unicode="q" horiz-adv-x="1083" 
d="M559 -492v64l201 57v449q-127 -111 -256 -111q-133 0 -232 68t-148.5 179.5t-49.5 248.5q0 117 44 217.5t115.5 167t162 104t184.5 37.5q146 0 239 -65l94 69h21v-1370l129 -45v-70h-504zM608 98q78 0 152 45v664q-89 94 -211 94q-90 0 -158 -53.5t-101.5 -140
t-33.5 -191.5q0 -57 11.5 -113.5t38.5 -112t66.5 -98t100.5 -68.5t135 -26z" />
    <glyph glyph-name="r" unicode="r" horiz-adv-x="770" 
d="M68 0v70l129 45v688l-138 26v62l279 98h10l12 -256h5l65 88q73 99 119.5 135.5t97.5 36.5q49 0 75 -27.5t26 -74.5q0 -60 -66 -141l-158 53q-92 -76 -155 -156v-541l180 -34v-72h-481z" />
    <glyph glyph-name="s" unicode="s" horiz-adv-x="856" 
d="M393 -39q-133 0 -266 80l-33 287h68l104 -226q20 -18 37 -29t52 -21.5t79 -10.5q78 0 127 43t49 113q0 60 -43 108t-155 98l-82 37q-109 49 -160 111t-51 158q0 117 105.5 200.5t246.5 83.5q121 0 242 -65l10 -244h-61l-84 178q-64 51 -138 51q-71 0 -113 -40t-42 -101
q0 -62 37 -104.5t129 -83.5l88 -39q131 -58 186 -125.5t55 -155.5q0 -125 -117.5 -214t-269.5 -89z" />
    <glyph glyph-name="t" unicode="t" horiz-adv-x="679" 
d="M381 -23q-211 0 -207 224l6 659h-143v86l149 37l90 244h70v-264h275v-109h-271v-571q0 -59 9.5 -96.5t30.5 -54t42 -21.5t55 -5q29 0 67.5 4t62.5 8l24 3l12 -51q-5 -4 -13.5 -10t-37 -22t-58.5 -28.5t-74.5 -22.5t-88.5 -10z" />
    <glyph glyph-name="u" unicode="u" horiz-adv-x="1132" 
d="M844 -31l-60 166q-12 -13 -23.5 -25.5t-47.5 -41.5t-72 -49t-90.5 -37t-108.5 -17q-135 0 -203.5 94.5t-68.5 270.5v504l-141 40v76l315 31v-633q4 -126 57.5 -185t157.5 -59q35 0 70 10t60.5 24.5t46 28.5t30.5 24l10 10v633l-166 36v76l340 31v-858l166 -41v-68z" />
    <glyph glyph-name="v" unicode="v" horiz-adv-x="1026" 
d="M561 -37h-108l-361 897l-94 39v64h436v-64l-149 -39l237 -645l19 -57h4q12 34 20 57l248 635l-145 49v64h348v-64l-94 -39z" />
    <glyph glyph-name="w" unicode="w" horiz-adv-x="1513" 
d="M842 979l241 -731l21 -68h4q8 33 18 68l179 600l-152 51v64h354v-64l-94 -39l-278 -893h-123l-232 664l-22 74h-2q-13 -41 -23 -74l-225 -664h-131l-277 893l-94 39v64h436v-64l-149 -39l170 -612l18 -68h4q9 33 21 68l237 731h99z" />
    <glyph glyph-name="x" unicode="x" horiz-adv-x="1052" 
d="M1032 0h-465v70l117 41l-197 305h-4l-215 -305l115 -41v-70h-363v70l127 39l289 383l-258 370l-123 37v64h451v-64l-117 -22l168 -273h4l197 273l-109 22v64h336v-64l-115 -22l-262 -345l291 -421l133 -43v-68z" />
    <glyph glyph-name="y" unicode="y" horiz-adv-x="1019" 
d="M819 850l-141 51v62h344v-64l-94 -41l-455 -1134q-51 -131 -97 -186.5t-120 -55.5q-52 0 -89.5 32.5t-37.5 82.5q0 48 29 75t73 27q61 0 101 -74h4l121 283l-363 952l-96 39v64h444v-64l-149 -39l254 -717h6z" />
    <glyph glyph-name="z" unicode="z" horiz-adv-x="929" 
d="M674 0h-617v70l559 804h-362l-90 -215h-64v316l152 -12h614v-31l-585 -844h393l117 242h65l-29 -338z" />
    <glyph glyph-name="braceleft" unicode="{" horiz-adv-x="727" 
d="M297 567v-4q89 -35 128.5 -86t45.5 -149l21 -361q5 -89 15 -140.5t35 -82t59.5 -40t94.5 -9.5v-66h-30q-107 0 -177.5 23t-109.5 71t-54 110.5t-14 154.5l2 356q0 79 -38.5 124.5t-104.5 47.5l-78 2v94l78 2q66 2 104.5 47.5t38.5 124.5l-2 357q-1 92 14 154.5t54 110.5
t109.5 70.5t177.5 22.5h30v-65q-80 0 -119.5 -20.5t-59 -77.5t-25.5 -175l-21 -360q-6 -98 -45.5 -149.5t-128.5 -86.5z" />
    <glyph glyph-name="bar" unicode="|" horiz-adv-x="507" 
d="M313 -414h-118v1915h118v-1915z" />
    <glyph glyph-name="braceright" unicode="}" horiz-adv-x="727" 
d="M430 563v4q-89 35 -128.5 86.5t-45.5 149.5l-20 360q-6 118 -26 175t-59.5 77.5t-119.5 20.5v65h30q107 0 177.5 -22.5t109.5 -70.5t54 -110.5t14 -154.5l-2 -357q0 -79 38.5 -124.5t104.5 -47.5l78 -2v-94l-78 -2q-66 -2 -104.5 -47.5t-38.5 -124.5l2 -356
q1 -92 -14 -154.5t-54 -110.5t-109.5 -71t-177.5 -23h-30v66q80 0 119.5 20.5t59.5 77t26 174.5l20 361q6 98 45.5 149t128.5 86z" />
    <glyph glyph-name="asciitilde" unicode="~" horiz-adv-x="868" 
d="M131 424l-63 27l10 28q27 76 65.5 124t82.5 65t90 14t94 -25l120 -55q54 -24 89.5 -29.5t61.5 11t41.5 41.5t37.5 75l61 -24l-12 -35q-29 -83 -66.5 -132.5t-82 -67.5t-92 -12.5t-105.5 32.5l-125 57q-38 18 -66.5 22.5t-48 1t-36.5 -22t-28.5 -38.5t-27.5 -57z" />
    <glyph glyph-name="exclamdown" unicode="&#xa1;" horiz-adv-x="583" 
d="M391 -256h-198l51 1028h96zM293 1182q51 0 89 -38.5t38 -90.5t-38 -89.5t-89 -37.5q-54 0 -91.5 37t-37.5 90t37.5 91t91.5 38z" />
    <glyph glyph-name="cent" unicode="&#xa2;" horiz-adv-x="960" 
d="M426 -256l18 229q-165 25 -268.5 145.5t-103.5 327.5q0 109 39.5 205.5t105 164t147 111t168.5 56.5l25 270h84l-25 -264q120 -4 199.5 -63t79.5 -142q0 -96 -104 -96l-64 6l-20 174q-61 31 -97 35l-69 -790q44 -7 75 -7q38 0 77.5 14t68 33.5t51.5 39t35 33.5l12 14
l41 -27q-4 -10 -11.5 -26.5t-38.5 -58.5t-69.5 -74.5t-106.5 -59t-147 -27.5l-18 -223h-84zM252 526q0 -130 54.5 -233t152.5 -152l67 762q-117 -18 -195.5 -123t-78.5 -254z" />
    <glyph glyph-name="sterling" unicode="&#xa3;" horiz-adv-x="1294" 
d="M252 522v90h250l61 230q32 118 94.5 217t131.5 157t133 89.5t110 31.5q80 0 142.5 -53.5t62.5 -142.5q0 -34 -36.5 -61t-98.5 -33q-35 202 -133 202q-106 0 -197 -334l-82 -303h393v-90h-417l-7 -28q-82 -301 -284 -441q112 -51 221 -127l102 -71q153 -105 220.5 -142
t121.5 -37q16 0 29 5.5t21 17.5t14.5 24.5t9 32.5t4 36t1 40t-1 39t-2 39t-1.5 35q143 0 143 -92q0 -28 -11.5 -61.5t-37.5 -70.5t-62 -66.5t-90.5 -49t-117.5 -19.5q-41 0 -83 8.5t-87.5 30t-80 39t-85 54t-76.5 55.5t-82 63t-75 58l-123 94q-76 -27 -137 -27
q-109 0 -109 68q0 35 43 60.5t88 25.5q73 0 170 -33q42 37 69 91t50 134l57 215h-225z" />
    <glyph glyph-name="yen" unicode="&#xa5;" horiz-adv-x="1249" 
d="M168 508v90h356l-352 586l-131 53v66h514v-66l-154 -53l269 -488h8l278 469l-192 68v70h444v-66l-135 -61l-352 -578h358v-90h-362v-154h362v-90h-362v-149l198 -47v-68h-581v68l201 47v149h-367v90h367v154h-367z" />
    <glyph glyph-name="brokenbar" unicode="&#xa6;" horiz-adv-x="507" 
d="M313 641h-118v860h118v-860zM313 -414h-118v863h118v-863z" />
    <glyph glyph-name="section" unicode="&#xa7;" horiz-adv-x="1169" 
d="M608 -205q0 21 -4 43t-16 51t-19.5 47.5t-29 56.5t-29.5 52t-36 60.5t-34 56.5l-139 233q-141 233 -141 371q0 93 47.5 186.5t122.5 165.5t162 129t170 87t143 30q67 0 106 -33t39 -80q0 -36 -25.5 -63t-64.5 -27l-155 82q-96 -11 -175 -53q-14 -42 -14 -76
q0 -28 9 -59.5t29 -70.5t36.5 -67.5t48 -79t47.5 -77.5l139 -234q140 -235 140 -374q0 -93 -46.5 -185.5t-119.5 -164t-159 -128t-170 -86.5t-148 -30q-67 0 -104.5 33t-37.5 79q0 37 24 62.5t64 25.5l154 -80q85 7 172 54q14 33 14 63zM313 848q0 -86 36 -174.5t108 -214.5
l108 -193q64 -115 88 -162t43 -100.5t19 -97.5q0 -26 -10 -84h8q96 106 96 252q0 87 -35 176.5t-104 212.5l-109 192q-88 154 -119 226t-30 135q0 26 10 84h-10q-99 -109 -99 -252z" />
    <glyph glyph-name="dieresis" unicode="&#xa8;" horiz-adv-x="819" 
d="M207 1241q-47 0 -81 34t-34 81t34 82t81 35t82 -35t35 -82t-35 -81t-82 -34zM610 1241q-47 0 -81.5 34t-34.5 81t34.5 82t81.5 35t82 -35t35 -82t-35 -81t-82 -34z" />
    <glyph glyph-name="copyright" unicode="&#xa9;" horiz-adv-x="1660" 
d="M123 670q0 194 94.5 357t256.5 257t355 94q144 0 275 -55.5t226.5 -150t151.5 -226t56 -276.5t-56 -276.5t-151.5 -225.5t-226.5 -149.5t-275 -55.5q-193 0 -355 93.5t-256.5 256.5t-94.5 357zM190 670q0 -132 50.5 -251.5t136.5 -205.5t204 -137t248 -51t248 51t204 137
t136.5 205.5t50.5 251.5t-50.5 251.5t-136.5 205.5t-204 137t-248 51t-248 -51t-204 -137t-136.5 -205.5t-50.5 -251.5zM838 270q-85 0 -154 23t-114 60.5t-75.5 88t-43.5 102t-13 105.5q0 184 121.5 302t306.5 118q32 0 61.5 -4t58 -12.5t45.5 -14.5t45.5 -18t37.5 -16
l4 -209h-51l-68 147q-68 57 -157 57q-105 0 -174.5 -81.5t-69.5 -243.5q0 -152 75.5 -241t198.5 -89q87 0 148 51l74 156h51l-17 -207q-4 -2 -30.5 -12.5t-32 -12.5t-28.5 -11t-31 -11t-28.5 -8.5t-33.5 -8.5t-32 -5t-37 -4t-37 -1z" />
    <glyph glyph-name="ordfeminine" unicode="&#xaa;" horiz-adv-x="874" 
d="M287 481q-77 0 -141 52.5t-64 142.5q0 94 65.5 145t204.5 86l176 45v76q-1 88 -44.5 139.5t-112.5 51.5q-63 0 -103 -27l-6 -162q-3 -3 -28 -6.5t-46 -3.5q-82 0 -82 76q0 64 101.5 130t228.5 66q130 0 189 -60t59 -188v-415q0 -29 11.5 -39t45.5 -10h82v-50
q-100 -45 -166 -45q-121 0 -125 129h-12q-7 -7 -33.5 -32t-33 -30.5t-27.5 -22.5t-31.5 -21.5t-30 -13t-37.5 -11t-40 -2.5zM375 600q92 0 153 76v219l-153 -47q-65 -22 -97 -50t-32 -73q0 -58 38 -91.5t91 -33.5z" />
    <glyph glyph-name="guillemotleft" unicode="&#xab;" horiz-adv-x="1247" 
d="M557 944l57 -51l-286 -422l284 -401l-55 -54l-414 439v34zM1006 944l57 -51l-287 -422l285 -401l-55 -54l-414 439v34z" />
    <glyph glyph-name="logicalnot" unicode="&#xac;" horiz-adv-x="1142" 
d="M86 545h971v-422h-127v303h-844v119z" />
    <glyph glyph-name="registered" unicode="&#xae;" horiz-adv-x="833" 
d="M12 1147q0 166 120 281.5t288 115.5t284.5 -115t116.5 -282q0 -166 -119.5 -280.5t-287.5 -114.5t-285 113.5t-117 281.5zM76 1147q0 -144 98.5 -243t241.5 -99q145 0 243.5 98t98.5 244q0 145 -98.5 243.5t-243.5 98.5t-242.5 -98.5t-97.5 -243.5zM207 950v33l57 14v322
l-57 16v31h174q219 0 219 -113q0 -78 -106 -114v-2l102 -142l63 -12v-33h-139l-61 88l-60 82h-43v-123l54 -14v-33h-203zM356 1327v-164h66q30 5 55 27.5t25 52.5q0 43 -37.5 65t-108.5 19z" />
    <glyph glyph-name="macron" unicode="&#xaf;" horiz-adv-x="819" 
d="M113 1284v123h594v-123h-594z" />
    <glyph glyph-name="degree" unicode="&#xb0;" horiz-adv-x="608" 
d="M0 1235q0 126 89 214.5t216 88.5q126 0 214.5 -88.5t88.5 -214.5q0 -127 -88.5 -216t-214.5 -89q-127 0 -216 89t-89 216zM106 1235q0 -90 56.5 -150.5t142.5 -60.5t142.5 60.5t56.5 150.5t-56.5 150.5t-142.5 60.5t-142.5 -60.5t-56.5 -150.5z" />
    <glyph glyph-name="plusminus" unicode="&#xb1;" horiz-adv-x="1140" 
d="M1057 692h-422v-426h-127v426h-422v119h422v426h127v-426h422v-119zM1057 0h-971v119h971v-119z" />
    <glyph glyph-name="acute" unicode="&#xb4;" horiz-adv-x="819" 
d="M391 1548h164v-39l-203 -381h-84z" />
    <glyph glyph-name="paragraph" unicode="&#xb6;" horiz-adv-x="1103" 
d="M514 -422q-143 0 -236.5 82t-93.5 186q0 69 37 105.5t94 36.5q46 0 79 -30t40 -81l-63 -143v-13q54 -71 164 -71q116 0 176.5 86t60.5 246v1296h-108v-860h-117q-195 0 -333 138t-138 333t138 333t333 138h516v-68l-174 -51v-1237q0 -110 -31 -194t-84.5 -133.5t-119 -74
t-140.5 -24.5z" />
    <glyph glyph-name="periodcentered" unicode="&#xb7;" horiz-adv-x="694" 
d="M346 414q-57 0 -99 42.5t-42 100.5q0 57 42 99t99 42q58 0 100.5 -42t42.5 -99q0 -59 -42.5 -101t-100.5 -42z" />
    <glyph glyph-name="cedilla" unicode="&#xb8;" horiz-adv-x="819" 
d="M250 -526l-10 59q33 10 51 16.5t48 20.5t46 28t28.5 36.5t12.5 48.5q0 78 -109 118l129 207h78l-82 -137q65 -6 105.5 -44t40.5 -99q0 -48 -24 -88.5t-59 -67t-83.5 -47.5t-88.5 -32t-83 -19z" />
    <glyph glyph-name="ordmasculine" unicode="&#xba;" horiz-adv-x="929" 
d="M236 915q1 -70 16 -133t44 -115.5t78 -82.5t111 -29q97 1 154 87.5t55 217.5q-1 167 -70.5 264t-179.5 95q-66 -1 -114 -41.5t-71.5 -108.5t-22.5 -154zM465 475q-125 0 -216 55.5t-135 144t-44 197.5q0 175 115 299.5t280 124.5q182 0 288.5 -105.5t106.5 -289.5
q0 -178 -114 -302t-281 -124z" />
    <glyph glyph-name="guillemotright" unicode="&#xbb;" horiz-adv-x="1245" 
d="M242 16l-58 52l285 421l-283 402l56 53l413 -438v-35zM688 16l-57 52l284 421l-282 402l55 53l414 -438v-35z" />
    <glyph glyph-name="onequarter" unicode="&#xbc;" horiz-adv-x="1853" 
d="M459 1366v-711l205 -20v-70h-590v70l213 22v555h-226v62l385 92h13zM457 -176l-90 63l1103 1602l91 -59zM1040 188v48l510 571l62 -4v-510h203v-105h-203v-188h-160v188h-412zM1180 293h272v305z" />
    <glyph glyph-name="onehalf" unicode="&#xbd;" horiz-adv-x="1937" 
d="M459 1366v-711l205 -20v-70h-590v70l213 22v555h-226v62l385 92h13zM457 -176l-90 63l1103 1602l91 -59zM1212 0v66l93 77q197 166 244 212q90 88 101 158q3 15 3 30q0 61 -46 105t-114 44t-118.5 -30t-106.5 -91l-51 50q34 46 65.5 79t72 62t90 44t107.5 15
q116 0 190 -61t75 -168q0 -25 -3.5 -47t-15 -45.5t-20 -40.5t-32 -42t-36.5 -39t-48 -43t-51.5 -43t-62 -50t-65.5 -52l-74 -59h459v-131h-656z" />
    <glyph glyph-name="threequarters" unicode="&#xbe;" horiz-adv-x="1906" 
d="M334 528q-126 0 -193 42.5t-67 101.5q0 38 26.5 62t71.5 30l100 -139q51 -15 111 -15q81 0 136.5 39.5t55.5 114.5q0 81 -78 127t-227 39v67l35 11q119 35 168 79.5t49 100.5q0 41 -33.5 65.5t-87.5 24.5q-81 0 -135.5 -29.5t-120.5 -89.5l-47 47q82 92 167 136t192 44
t174 -44t67 -117q0 -62 -62.5 -116.5t-150.5 -86.5v-6q132 -14 197.5 -72t65.5 -133q0 -77 -58 -142.5t-153.5 -103t-202.5 -37.5zM514 -176l-90 63l1104 1602l90 -59zM1094 188v48l510 571l61 -4v-510h203v-105h-203v-188h-160v188h-411zM1233 293h272v305z" />
    <glyph glyph-name="questiondown" unicode="&#xbf;" horiz-adv-x="831" 
d="M643 -43v-213l-59 10q-78 14 -160.5 56t-155.5 105t-119.5 152t-46.5 185q0 185 201 260l168 61l-8 199h92l47 -334l-237 -84q-86 -30 -121 -65.5t-35 -87.5q0 -84 109.5 -151t275.5 -87zM520 1182q51 0 89 -38.5t38 -90.5t-38 -89.5t-89 -37.5q-54 0 -91.5 37t-37.5 90
t37.5 91t91.5 38z" />
    <glyph glyph-name="Agrave" unicode="&#xc0;" horiz-adv-x="1380" 
d="M6 0v66l119 47l498 1257l69 10l72 21l471 -1288l139 -45v-68h-526v68l174 47l-125 358h-500l-118 -334l196 -71v-68h-469zM649 1176l-207 -580h412l-203 580h-2zM399 1792h191l162 -285h-107l-246 244v41z" />
    <glyph glyph-name="Aacute" unicode="&#xc1;" horiz-adv-x="1380" 
d="M6 0v66l119 47l498 1257l69 10l72 21l471 -1288l139 -45v-68h-526v68l174 47l-125 358h-500l-118 -334l196 -71v-68h-469zM649 1176l-207 -580h412l-203 580h-2zM784 1792h191v-41l-246 -244h-106z" />
    <glyph glyph-name="Acircumflex" unicode="&#xc2;" horiz-adv-x="1380" 
d="M6 0v66l119 47l498 1257l69 10l72 21l471 -1288l139 -45v-68h-526v68l174 47l-125 358h-500l-118 -334l196 -71v-68h-469zM649 1176l-207 -580h412l-203 580h-2zM457 1507h-92l227 265h199l227 -265h-96l-234 160z" />
    <glyph glyph-name="Atilde" unicode="&#xc3;" horiz-adv-x="1380" 
d="M6 0v66l119 47l498 1257l69 10l72 21l471 -1288l139 -45v-68h-526v68l174 47l-125 358h-500l-118 -334l196 -71v-68h-469zM649 1176l-207 -580h412l-203 580h-2zM731 1544l-86 37q-27 12 -39 16.5t-33.5 13t-30 10t-24.5 4.5t-23.5 0t-19.5 -6.5t-19 -12t-16.5 -20
t-17 -27.5t-16.5 -37l-62 26l10 27q39 98 84 144t98 47.5t121 -25.5l107 -43q35 -14 57.5 -20t46 -5t40.5 14t34 39t35 68l61 -27l-10 -26q-60 -157 -128.5 -200t-168.5 3z" />
    <glyph glyph-name="Adieresis" unicode="&#xc4;" horiz-adv-x="1380" 
d="M6 0v66l119 47l498 1257l69 10l72 21l471 -1288l139 -45v-68h-526v68l174 47l-125 358h-500l-118 -334l196 -71v-68h-469zM649 1176l-207 -580h412l-203 580h-2zM463 1559q-47 0 -81 33.5t-34 80.5t34 82t81 35t82 -35t35 -82t-34.5 -80.5t-82.5 -33.5zM915 1559
q-47 0 -81.5 33.5t-34.5 80.5t34.5 82t81.5 35t82 -35t35 -82t-34.5 -80.5t-82.5 -33.5z" />
    <glyph glyph-name="Aring" unicode="&#xc5;" horiz-adv-x="1380" 
d="M6 0v66l119 47l498 1257l69 10l72 21l471 -1288l139 -45v-68h-526v68l174 47l-125 358h-500l-118 -334l196 -71v-68h-469zM649 1176l-207 -580h412l-203 580h-2zM451 1694q0 99 69.5 166t169.5 67q102 0 171 -66t69 -167q0 -99 -70 -166.5t-170 -67.5q-102 0 -170.5 66.5
t-68.5 167.5zM545 1694q0 -65 42 -107.5t103 -42.5t103.5 42.5t42.5 107.5t-42.5 107t-103.5 42t-103 -42t-42 -107z" />
    <glyph glyph-name="AE" unicode="&#xc6;" horiz-adv-x="1964" 
d="M1409 645h-266v-549h479l166 271h76l-66 -367h-1020v68l174 47v530h-387l-272 -506l199 -71v-68h-484v66l131 59l643 1100l-202 69v66h1032l178 8v-362h-74l-110 262h-463v-529h266l59 168h66v-418h-72zM952 1268h-20l-314 -531h334v531z" />
    <glyph glyph-name="Ccedilla" unicode="&#xc7;" horiz-adv-x="1466" 
d="M606 -543l-10 60l51 16.5t47.5 20t46 28t28.5 36t13 48.5q0 80 -108 119l102 166q-144 4 -260.5 46t-192.5 108t-127.5 154.5t-73.5 181.5t-22 192q0 214 101 388.5t279 274t397 99.5q229 0 428 -111l12 -342h-76l-113 275q-115 77 -270 77q-111 0 -208.5 -42.5
t-169 -118.5t-113 -187t-41.5 -241q0 -155 42.5 -280t116.5 -206t173.5 -124.5t215.5 -43.5q156 0 281 92l154 289h75l-53 -344q-124 -64 -237 -98.5t-240 -38.5l-55 -96q68 -5 110.5 -43t42.5 -97q0 -49 -25 -90.5t-61 -68t-86 -48t-90 -32.5t-84 -19z" />
    <glyph glyph-name="Egrave" unicode="&#xc8;" horiz-adv-x="1294" 
d="M739 657h-266v-561h479l166 271h76l-66 -367h-1028v68l174 47v1124l-174 55v66h842l178 8v-362h-73l-111 262h-463v-516h266l60 168h65v-418h-71zM393 1792h191l161 -285h-106l-246 244v41z" />
    <glyph glyph-name="Eacute" unicode="&#xc9;" horiz-adv-x="1294" 
d="M739 657h-266v-561h479l166 271h76l-66 -367h-1028v68l174 47v1124l-174 55v66h842l178 8v-362h-73l-111 262h-463v-516h266l60 168h65v-418h-71zM778 1792h191v-41l-246 -244h-107z" />
    <glyph glyph-name="Ecircumflex" unicode="&#xca;" horiz-adv-x="1294" 
d="M739 657h-266v-561h479l166 271h76l-66 -367h-1028v68l174 47v1124l-174 55v66h842l178 8v-362h-73l-111 262h-463v-516h266l60 168h65v-418h-71zM451 1507h-93l228 265h198l228 -265h-97l-233 160z" />
    <glyph glyph-name="Edieresis" unicode="&#xcb;" horiz-adv-x="1294" 
d="M739 657h-266v-561h479l166 271h76l-66 -367h-1028v68l174 47v1124l-174 55v66h842l178 8v-362h-73l-111 262h-463v-516h266l60 168h65v-418h-71zM457 1559q-47 0 -81 33.5t-34 80.5t34 82t81 35t81.5 -35t34.5 -82t-34.5 -80.5t-81.5 -33.5zM909 1559q-47 0 -81.5 33.5
t-34.5 80.5t34.5 82t81.5 35t82 -35t35 -82t-34.5 -80.5t-82.5 -33.5z" />
    <glyph glyph-name="Igrave" unicode="&#xcc;" horiz-adv-x="724" 
d="M100 0v68l174 47v1126l-174 53v66h547v-66l-174 -53v-1126l174 -49v-66h-547zM82 1792h190l162 -285h-106l-246 244v41z" />
    <glyph glyph-name="Iacute" unicode="&#xcd;" horiz-adv-x="724" 
d="M100 0v68l174 47v1126l-174 53v66h547v-66l-174 -53v-1126l174 -49v-66h-547zM467 1792h190v-41l-245 -244h-107z" />
    <glyph glyph-name="Icircumflex" unicode="&#xce;" horiz-adv-x="724" 
d="M100 0v68l174 47v1126l-174 53v66h547v-66l-174 -53v-1126l174 -49v-66h-547zM139 1507h-92l227 265h199l227 -265h-96l-233 160z" />
    <glyph glyph-name="Idieresis" unicode="&#xcf;" horiz-adv-x="724" 
d="M100 0v68l174 47v1126l-174 53v66h547v-66l-174 -53v-1126l174 -49v-66h-547zM145 1559q-47 0 -80.5 33.5t-33.5 80.5q0 48 33.5 82.5t80.5 34.5t82 -35t35 -82t-34.5 -80.5t-82.5 -33.5zM598 1559q-48 0 -82.5 33.5t-34.5 80.5t35 82t82 35t82 -35t35 -82t-34.5 -80.5
t-82.5 -33.5z" />
    <glyph glyph-name="Eth" unicode="&#xd0;" horiz-adv-x="1583" 
d="M100 0v68l174 47v512h-202v92h202v522l-174 53v66l615 8q181 2 325.5 -47t238.5 -138.5t144 -212t50 -268.5q0 -316 -231.5 -514t-623.5 -194zM831 627h-358v-437q4 -35 29.5 -58.5t65.5 -34t77 -14.5t76 -3q126 3 228 49.5t168.5 125t102 180.5t35.5 218
q0 146 -41.5 259.5t-113 186t-172 117t-213 60t-242.5 8.5v-565h358v-92z" />
    <glyph glyph-name="Ntilde" unicode="&#xd1;" horiz-adv-x="1591" 
d="M1352 -23h-47l-897 1094v-928l219 -75v-68h-506v68l174 47v1106l-195 73v66h328l807 -987v839l-219 80v68h506v-68l-174 -51v-1001zM897 1544l-86 37q-27 12 -39 17t-33.5 12.5t-30.5 9.5t-25 5t-23.5 0.5l-19.5 -6.5t-19 -12.5t-16.5 -20t-17 -27.5t-16.5 -37l-61 26
l10 27q39 98 84 144t98 47.5t121 -25.5l107 -43q35 -14 57.5 -20t46 -5t40.5 14t34 39t35 68l61 -27l-10 -26q-60 -157 -128.5 -200t-168.5 3z" />
    <glyph glyph-name="Ograve" unicode="&#xd2;" horiz-adv-x="1609" 
d="M827 35q92 0 170 36.5t130.5 97t89.5 139.5t54 163t17 168q0 175 -64 328t-180.5 247.5t-257.5 94.5q-95 0 -174.5 -35.5t-132 -94t-89 -136t-52.5 -159t-16 -165.5q0 -95 19 -190t60.5 -184.5t99.5 -158t142.5 -110t183.5 -41.5zM803 1395q141 0 258 -40t197 -108
t135 -159t80.5 -191t25.5 -207q0 -170 -52.5 -310t-145.5 -234t-220.5 -145.5t-275.5 -51.5t-276.5 51t-220.5 141.5t-144.5 222t-52.5 287.5q0 170 52.5 310.5t145 235t219.5 146.5t275 52zM514 1792h191l161 -285h-106l-246 244v41z" />
    <glyph glyph-name="Oacute" unicode="&#xd3;" horiz-adv-x="1609" 
d="M827 35q92 0 170 36.5t130.5 97t89.5 139.5t54 163t17 168q0 175 -64 328t-180.5 247.5t-257.5 94.5q-95 0 -174.5 -35.5t-132 -94t-89 -136t-52.5 -159t-16 -165.5q0 -95 19 -190t60.5 -184.5t99.5 -158t142.5 -110t183.5 -41.5zM803 1395q141 0 258 -40t197 -108
t135 -159t80.5 -191t25.5 -207q0 -170 -52.5 -310t-145.5 -234t-220.5 -145.5t-275.5 -51.5t-276.5 51t-220.5 141.5t-144.5 222t-52.5 287.5q0 170 52.5 310.5t145 235t219.5 146.5t275 52zM899 1792h191v-41l-246 -244h-107z" />
    <glyph glyph-name="Ocircumflex" unicode="&#xd4;" horiz-adv-x="1609" 
d="M827 35q92 0 170 36.5t130.5 97t89.5 139.5t54 163t17 168q0 175 -64 328t-180.5 247.5t-257.5 94.5q-95 0 -174.5 -35.5t-132 -94t-89 -136t-52.5 -159t-16 -165.5q0 -95 19 -190t60.5 -184.5t99.5 -158t142.5 -110t183.5 -41.5zM803 1395q141 0 258 -40t197 -108
t135 -159t80.5 -191t25.5 -207q0 -170 -52.5 -310t-145.5 -234t-220.5 -145.5t-275.5 -51.5t-276.5 51t-220.5 141.5t-144.5 222t-52.5 287.5q0 170 52.5 310.5t145 235t219.5 146.5t275 52zM571 1507h-92l228 265h198l228 -265h-97l-233 160z" />
    <glyph glyph-name="Otilde" unicode="&#xd5;" horiz-adv-x="1609" 
d="M827 35q92 0 170 36.5t130.5 97t89.5 139.5t54 163t17 168q0 175 -64 328t-180.5 247.5t-257.5 94.5q-95 0 -174.5 -35.5t-132 -94t-89 -136t-52.5 -159t-16 -165.5q0 -95 19 -190t60.5 -184.5t99.5 -158t142.5 -110t183.5 -41.5zM803 1395q141 0 258 -40t197 -108
t135 -159t80.5 -191t25.5 -207q0 -170 -52.5 -310t-145.5 -234t-220.5 -145.5t-275.5 -51.5t-276.5 51t-220.5 141.5t-144.5 222t-52.5 287.5q0 170 52.5 310.5t145 235t219.5 146.5t275 52zM846 1544l-86 37q-27 12 -39 17t-33.5 12.5t-30.5 9.5t-25 5t-23.5 0.5
l-19.5 -6.5t-19 -12.5t-16.5 -20t-17 -27.5t-16.5 -37l-61 26l10 27q39 98 84 144t98 47.5t121 -25.5l107 -43q35 -14 57.5 -20t46 -5t40.5 14t34 39t35 68l61 -27l-10 -26q-60 -157 -128.5 -200t-168.5 3z" />
    <glyph glyph-name="Odieresis" unicode="&#xd6;" horiz-adv-x="1609" 
d="M827 35q92 0 170 36.5t130.5 97t89.5 139.5t54 163t17 168q0 175 -64 328t-180.5 247.5t-257.5 94.5q-95 0 -174.5 -35.5t-132 -94t-89 -136t-52.5 -159t-16 -165.5q0 -95 19 -190t60.5 -184.5t99.5 -158t142.5 -110t183.5 -41.5zM803 1395q141 0 258 -40t197 -108
t135 -159t80.5 -191t25.5 -207q0 -170 -52.5 -310t-145.5 -234t-220.5 -145.5t-275.5 -51.5t-276.5 51t-220.5 141.5t-144.5 222t-52.5 287.5q0 170 52.5 310.5t145 235t219.5 146.5t275 52zM578 1559q-47 0 -81 33.5t-34 80.5t34 82t81 35t81.5 -35t34.5 -82t-34.5 -80.5
t-81.5 -33.5zM1030 1559q-48 0 -82.5 33.5t-34.5 80.5t35 82t82 35t82 -35t35 -82t-34.5 -80.5t-82.5 -33.5z" />
    <glyph glyph-name="multiply" unicode="&#xd7;" horiz-adv-x="1142" 
d="M938 25l-375 376l-368 -376l-84 84l374 376l-374 375l88 88l372 -375l375 385l82 -84l-375 -382l375 -379z" />
    <glyph glyph-name="Oslash" unicode="&#xd8;" horiz-adv-x="1609" 
d="M154 -72l159 209q-202 196 -202 514q0 170 52.5 310.5t145 235t219.5 146.5t275 52q231 0 393 -105l115 152h116l-157 -207q113 -98 171 -242t58 -303q0 -170 -52.5 -310t-145.5 -234t-220.5 -145.5t-275.5 -51.5q-241 0 -422 129l-113 -150h-116zM1282 639
q0 275 -119 457l-684 -893q134 -164 348 -164q76 0 142.5 25.5t115.5 69.5t87.5 102t62 125.5t35.5 137.5t12 140zM788 1305q-95 0 -174 -36t-131 -95t-88 -136.5t-51.5 -157.5t-15.5 -161q0 -259 98 -434l678 886q-128 134 -316 134z" />
    <glyph glyph-name="Ugrave" unicode="&#xd9;" horiz-adv-x="1513" 
d="M772 -49q-129 0 -226 28t-159 76t-100 121.5t-53 156t-15 187.5v721l-174 53v66h553v-66l-174 -53v-670q0 -88 10 -160t36 -137t67 -109.5t105.5 -70.5t148.5 -26q209 0 305.5 119t93.5 374l-6 662l-238 71v66h539v-66l-174 -53v-721q-1 -112 -32 -206.5t-82.5 -160.5
t-120 -112t-145.5 -68t-159 -22zM494 1792h190l162 -285h-107l-245 244v41z" />
    <glyph glyph-name="Uacute" unicode="&#xda;" horiz-adv-x="1513" 
d="M772 -49q-129 0 -226 28t-159 76t-100 121.5t-53 156t-15 187.5v721l-174 53v66h553v-66l-174 -53v-670q0 -88 10 -160t36 -137t67 -109.5t105.5 -70.5t148.5 -26q209 0 305.5 119t93.5 374l-6 662l-238 71v66h539v-66l-174 -53v-721q-1 -112 -32 -206.5t-82.5 -160.5
t-120 -112t-145.5 -68t-159 -22zM879 1792h190v-41l-246 -244h-106z" />
    <glyph glyph-name="Ucircumflex" unicode="&#xdb;" horiz-adv-x="1513" 
d="M772 -49q-129 0 -226 28t-159 76t-100 121.5t-53 156t-15 187.5v721l-174 53v66h553v-66l-174 -53v-670q0 -88 10 -160t36 -137t67 -109.5t105.5 -70.5t148.5 -26q209 0 305.5 119t93.5 374l-6 662l-238 71v66h539v-66l-174 -53v-721q-1 -112 -32 -206.5t-82.5 -160.5
t-120 -112t-145.5 -68t-159 -22zM551 1507h-92l227 265h199l227 -265h-96l-234 160z" />
    <glyph glyph-name="Udieresis" unicode="&#xdc;" horiz-adv-x="1513" 
d="M772 -49q-129 0 -226 28t-159 76t-100 121.5t-53 156t-15 187.5v721l-174 53v66h553v-66l-174 -53v-670q0 -88 10 -160t36 -137t67 -109.5t105.5 -70.5t148.5 -26q209 0 305.5 119t93.5 374l-6 662l-238 71v66h539v-66l-174 -53v-721q-1 -112 -32 -206.5t-82.5 -160.5
t-120 -112t-145.5 -68t-159 -22zM557 1559q-47 0 -81 33.5t-34 80.5t34 82t81 35t82 -35t35 -82t-34.5 -80.5t-82.5 -33.5zM1010 1559q-48 0 -82.5 33.5t-34.5 80.5t35 82t82 35t81.5 -35t34.5 -82t-34.5 -80.5t-81.5 -33.5z" />
    <glyph glyph-name="Yacute" unicode="&#xdd;" horiz-adv-x="1290" 
d="M1141 1233l-396 -660v-458l193 -47v-68h-586v68l195 47v422l-402 704l-131 53v66h514v-66l-153 -53l317 -586h8l324 568l-193 67v70h445v-66zM780 1792h191v-41l-246 -244h-107z" />
    <glyph glyph-name="Thorn" unicode="&#xde;" horiz-adv-x="1234" 
d="M100 0v68l174 47v1126l-174 53v66h547v-66l-174 -53v-190l76 2q306 3 465.5 -84.5t159.5 -249.5q0 -106 -56 -186.5t-146.5 -124t-194.5 -62.5t-210 -12v65q396 30 396 289q0 133 -121.5 214t-368.5 81v-868l174 -49v-66h-547z" />
    <glyph glyph-name="germandbls" unicode="&#xdf;" horiz-adv-x="1247" 
d="M68 0v63l133 46v751h-148v84l146 41q6 83 26.5 159.5t60.5 147t95.5 122.5t136.5 83t178 31q167 0 272 -74t105 -192q0 -28 -4 -52t-15 -47t-19.5 -39.5t-30.5 -38t-33 -32.5t-42 -33.5t-43 -31t-50 -34.5q-66 -45 -93.5 -84t-27.5 -84q0 -54 30.5 -86.5t96.5 -70.5
l133 -76q108 -62 152 -126t44 -151q0 -86 -57 -159.5t-146 -114.5t-184 -41q-141 0 -266 80l4 272h58l77 -209q6 -6 18.5 -15.5t56.5 -25.5t95 -16q77 0 125.5 40.5t48.5 119.5q0 70 -43.5 122.5t-136.5 100.5l-104 57q-170 92 -170 240q0 114 135 215q108 76 156.5 137
t48.5 146q0 99 -65.5 158t-164.5 59q-131 0 -206.5 -95t-75.5 -266v-1081h-307z" />
    <glyph glyph-name="agrave" unicode="&#xe0;" horiz-adv-x="1028" 
d="M346 -31q-42 0 -84.5 15t-79 43t-59.5 75.5t-23 106.5q0 117 80.5 183t249.5 110l211 55v107q-3 115 -56.5 177t-138.5 62q-70 0 -129 -37l-8 -202q-51 -7 -82 -7q-98 0 -98 88q0 35 32 77.5t83.5 79.5t126 62t149.5 25q154 0 225.5 -72t71.5 -225v-553q0 -32 13.5 -43.5
t54.5 -11.5h102v-57q-118 -52 -194 -52q-74 0 -111 44.5t-37 115.5h-6q-6 -6 -32 -30.5t-31 -29t-26 -23.5t-27 -23t-24.5 -17.5t-27.5 -16t-26 -10.5t-30.5 -9.5t-31.5 -4t-37 -2.5zM455 109q64 0 111 34.5t75 75.5v270l-197 -65q-79 -27 -118 -62.5t-39 -95.5
q0 -74 49 -115.5t119 -41.5zM467 1128l-205 381v39h164l125 -420h-84z" />
    <glyph glyph-name="aacute" unicode="&#xe1;" horiz-adv-x="1028" 
d="M346 -31q-42 0 -84.5 15t-79 43t-59.5 75.5t-23 106.5q0 117 80.5 183t249.5 110l211 55v107q-3 115 -56.5 177t-138.5 62q-70 0 -129 -37l-8 -202q-51 -7 -82 -7q-98 0 -98 88q0 35 32 77.5t83.5 79.5t126 62t149.5 25q154 0 225.5 -72t71.5 -225v-553q0 -32 13.5 -43.5
t54.5 -11.5h102v-57q-118 -52 -194 -52q-74 0 -111 44.5t-37 115.5h-6q-6 -6 -32 -30.5t-31 -29t-26 -23.5t-27 -23t-24.5 -17.5t-27.5 -16t-26 -10.5t-30.5 -9.5t-31.5 -4t-37 -2.5zM455 109q64 0 111 34.5t75 75.5v270l-197 -65q-79 -27 -118 -62.5t-39 -95.5
q0 -74 49 -115.5t119 -41.5zM569 1548h164v-39l-203 -381h-84z" />
    <glyph glyph-name="acircumflex" unicode="&#xe2;" horiz-adv-x="1028" 
d="M346 -31q-42 0 -84.5 15t-79 43t-59.5 75.5t-23 106.5q0 117 80.5 183t249.5 110l211 55v107q-3 115 -56.5 177t-138.5 62q-70 0 -129 -37l-8 -202q-51 -7 -82 -7q-98 0 -98 88q0 35 32 77.5t83.5 79.5t126 62t149.5 25q154 0 225.5 -72t71.5 -225v-553q0 -32 13.5 -43.5
t54.5 -11.5h102v-57q-118 -52 -194 -52q-74 0 -111 44.5t-37 115.5h-6q-6 -6 -32 -30.5t-31 -29t-26 -23.5t-27 -23t-24.5 -17.5t-27.5 -16t-26 -10.5t-30.5 -9.5t-31.5 -4t-37 -2.5zM455 109q64 0 111 34.5t75 75.5v270l-197 -65q-79 -27 -118 -62.5t-39 -95.5
q0 -74 49 -115.5t119 -41.5zM336 1128h-96l206 420h117l207 -420h-100l-170 269z" />
    <glyph glyph-name="atilde" unicode="&#xe3;" horiz-adv-x="1028" 
d="M346 -31q-42 0 -84.5 15t-79 43t-59.5 75.5t-23 106.5q0 117 80.5 183t249.5 110l211 55v107q-3 115 -56.5 177t-138.5 62q-70 0 -129 -37l-8 -202q-51 -7 -82 -7q-98 0 -98 88q0 35 32 77.5t83.5 79.5t126 62t149.5 25q154 0 225.5 -72t71.5 -225v-553q0 -32 13.5 -43.5
t54.5 -11.5h102v-57q-118 -52 -194 -52q-74 0 -111 44.5t-37 115.5h-6q-6 -6 -32 -30.5t-31 -29t-26 -23.5t-27 -23t-24.5 -17.5t-27.5 -16t-26 -10.5t-30.5 -9.5t-31.5 -4t-37 -2.5zM455 109q64 0 111 34.5t75 75.5v270l-197 -65q-79 -27 -118 -62.5t-39 -95.5
q0 -74 49 -115.5t119 -41.5zM528 1239l-79 47q-68 41 -107.5 48t-68.5 -19t-58 -96l-61 26l10 27q114 282 315 170l99 -56q75 -44 119.5 -22t88.5 127l62 -27l-10 -26q-61 -159 -137 -207.5t-173 8.5z" />
    <glyph glyph-name="adieresis" unicode="&#xe4;" horiz-adv-x="1028" 
d="M346 -31q-42 0 -84.5 15t-79 43t-59.5 75.5t-23 106.5q0 117 80.5 183t249.5 110l211 55v107q-3 115 -56.5 177t-138.5 62q-70 0 -129 -37l-8 -202q-51 -7 -82 -7q-98 0 -98 88q0 35 32 77.5t83.5 79.5t126 62t149.5 25q154 0 225.5 -72t71.5 -225v-553q0 -32 13.5 -43.5
t54.5 -11.5h102v-57q-118 -52 -194 -52q-74 0 -111 44.5t-37 115.5h-6q-6 -6 -32 -30.5t-31 -29t-26 -23.5t-27 -23t-24.5 -17.5t-27.5 -16t-26 -10.5t-30.5 -9.5t-31.5 -4t-37 -2.5zM455 109q64 0 111 34.5t75 75.5v270l-197 -65q-79 -27 -118 -62.5t-39 -95.5
q0 -74 49 -115.5t119 -41.5zM299 1241q-47 0 -81 34t-34 81t34 82t81 35t82 -35t35 -82t-35 -81t-82 -34zM702 1241q-47 0 -81.5 34t-34.5 81t34.5 82t81.5 35t82 -35t35 -82t-35 -81t-82 -34z" />
    <glyph glyph-name="aring" unicode="&#xe5;" horiz-adv-x="1028" 
d="M346 -31q-42 0 -84.5 15t-79 43t-59.5 75.5t-23 106.5q0 117 80.5 183t249.5 110l211 55v107q-3 115 -56.5 177t-138.5 62q-70 0 -129 -37l-8 -202q-51 -7 -82 -7q-98 0 -98 88q0 35 32 77.5t83.5 79.5t126 62t149.5 25q154 0 225.5 -72t71.5 -225v-553q0 -32 13.5 -43.5
t54.5 -11.5h102v-57q-118 -52 -194 -52q-74 0 -111 44.5t-37 115.5h-6q-6 -6 -32 -30.5t-31 -29t-26 -23.5t-27 -23t-24.5 -17.5t-27.5 -16t-26 -10.5t-30.5 -9.5t-31.5 -4t-37 -2.5zM455 109q64 0 111 34.5t75 75.5v270l-197 -65q-79 -27 -118 -62.5t-39 -95.5
q0 -74 49 -115.5t119 -41.5zM262 1380q0 99 70 166.5t170 67.5q102 0 170.5 -66.5t68.5 -167.5q0 -99 -69.5 -166t-169.5 -67q-102 0 -171 66t-69 167zM356 1380q0 -65 42.5 -107t103.5 -42t103 42t42 107t-42 107.5t-103 42.5t-103.5 -42.5t-42.5 -107.5z" />
    <glyph glyph-name="ae" unicode="&#xe6;" horiz-adv-x="1552" 
d="M346 -31q-42 0 -84.5 15t-79 43t-59.5 75.5t-23 106.5q0 118 75.5 185.5t248.5 99.5l233 43v127q-3 114 -59.5 176.5t-142.5 62.5q-40 0 -80 -13t-58 -24l-8 -202q-51 -7 -82 -7q-98 0 -98 88q0 47 54.5 103.5t149.5 98.5t195 42q194 0 267 -162q41 69 133.5 116.5
t193.5 47.5q145 0 232 -96t94 -279l-614 -112v-84q8 -131 88 -214t204 -83q44 0 89.5 16t79 38t60 44.5t40.5 38.5l14 16l41 -24q-2 -6 -7 -16t-22 -40t-37.5 -57t-54.5 -59.5t-72.5 -56.5t-92 -40t-111.5 -16q-111 0 -206.5 58.5t-146.5 160.5q-45 -54 -78.5 -88t-77 -66.5
t-92.5 -47.5t-106 -15zM453 109q42 0 81 15.5t67.5 41t45 45t29.5 39.5q-19 62 -19 129v92l-192 -41q-178 -40 -178 -164q0 -75 47 -116t119 -41zM1067 901q-93 0 -162.5 -91t-70.5 -237l409 82q-2 105 -51.5 175.5t-124.5 70.5z" />
    <glyph glyph-name="ccedilla" unicode="&#xe7;" horiz-adv-x="960" 
d="M276 -516l-10 59q34 10 51.5 16.5t47.5 20.5t46 28t29 36.5t13 48.5q0 79 -109 119l100 161q-161 21 -266.5 145t-105.5 328q0 120 45.5 224t118.5 172.5t164.5 107.5t185.5 39q126 0 211.5 -59.5t85.5 -145.5q0 -47 -28.5 -79.5t-80.5 -32.5l-69 6l-31 190
q-50 33 -123 33q-128 0 -213.5 -106.5t-85.5 -268.5q0 -173 100.5 -294t253.5 -121q41 0 81 13.5t67.5 32.5t49 37.5t32.5 31.5l10 14l41 -27q-2 -5 -6 -13.5t-18.5 -33.5t-33 -48t-49.5 -51t-66.5 -48.5t-86.5 -35.5t-107 -16l-51 -86q65 -6 105 -44t40 -99
q0 -48 -24 -88.5t-59 -67t-83.5 -47.5t-88.5 -32t-83 -19z" />
    <glyph glyph-name="egrave" unicode="&#xe8;" horiz-adv-x="1026" 
d="M522 -33q-97 0 -176.5 33t-128.5 84t-82.5 116.5t-47 126t-13.5 117.5q0 232 135.5 388.5t347.5 156.5q171 0 266 -112.5t95 -321.5h-678v-20q0 -189 98.5 -300.5t259.5 -111.5q49 0 96 16t80 38t58.5 44.5t37.5 38.5l13 16l41 -24q-2 -6 -6 -16t-20.5 -40t-36 -57
t-53.5 -59.5t-73 -56.5t-95 -40t-118 -16zM512 899q-95 0 -166.5 -74t-95.5 -190h463q-2 112 -53.5 188t-147.5 76zM498 1128l-205 381v39h164l125 -420h-84z" />
    <glyph glyph-name="eacute" unicode="&#xe9;" horiz-adv-x="1026" 
d="M522 -33q-97 0 -176.5 33t-128.5 84t-82.5 116.5t-47 126t-13.5 117.5q0 232 135.5 388.5t347.5 156.5q171 0 266 -112.5t95 -321.5h-678v-20q0 -189 98.5 -300.5t259.5 -111.5q49 0 96 16t80 38t58.5 44.5t37.5 38.5l13 16l41 -24q-2 -6 -6 -16t-20.5 -40t-36 -57
t-53.5 -59.5t-73 -56.5t-95 -40t-118 -16zM512 899q-95 0 -166.5 -74t-95.5 -190h463q-2 112 -53.5 188t-147.5 76zM608 1548h164v-39l-203 -381h-84z" />
    <glyph glyph-name="ecircumflex" unicode="&#xea;" horiz-adv-x="1026" 
d="M522 -33q-97 0 -176.5 33t-128.5 84t-82.5 116.5t-47 126t-13.5 117.5q0 232 135.5 388.5t347.5 156.5q171 0 266 -112.5t95 -321.5h-678v-20q0 -189 98.5 -300.5t259.5 -111.5q49 0 96 16t80 38t58.5 44.5t37.5 38.5l13 16l41 -24q-2 -6 -6 -16t-20.5 -40t-36 -57
t-53.5 -59.5t-73 -56.5t-95 -40t-118 -16zM512 899q-95 0 -166.5 -74t-95.5 -190h463q-2 112 -53.5 188t-147.5 76zM350 1128h-96l207 420h117l206 -420h-100l-170 269z" />
    <glyph glyph-name="edieresis" unicode="&#xeb;" horiz-adv-x="1026" 
d="M522 -33q-97 0 -176.5 33t-128.5 84t-82.5 116.5t-47 126t-13.5 117.5q0 232 135.5 388.5t347.5 156.5q171 0 266 -112.5t95 -321.5h-678v-20q0 -189 98.5 -300.5t259.5 -111.5q49 0 96 16t80 38t58.5 44.5t37.5 38.5l13 16l41 -24q-2 -6 -6 -16t-20.5 -40t-36 -57
t-53.5 -59.5t-73 -56.5t-95 -40t-118 -16zM512 899q-95 0 -166.5 -74t-95.5 -190h463q-2 112 -53.5 188t-147.5 76zM334 1241q-47 0 -81 34t-34 81t34 82t81 35t82 -35t35 -82t-35 -81t-82 -34zM737 1241q-47 0 -81.5 34t-34.5 81t34.5 82t81.5 35t82 -35t35 -82t-35 -81
t-82 -34z" />
    <glyph glyph-name="igrave" unicode="&#xec;" horiz-adv-x="571" 
d="M63 0v70l138 45v700l-121 43v72l291 59v-876l153 -43v-70h-461zM242 1128l-205 381v39h164l125 -420h-84z" />
    <glyph glyph-name="iacute" unicode="&#xed;" horiz-adv-x="571" 
d="M63 0v70l138 45v700l-121 43v72l291 59v-876l153 -43v-70h-461zM362 1548h164v-39l-202 -381h-84z" />
    <glyph glyph-name="icircumflex" unicode="&#xee;" horiz-adv-x="571" 
d="M63 0v70l138 45v700l-121 43v72l291 59v-876l153 -43v-70h-461zM111 1128h-97l207 420h117l207 -420h-101l-170 269z" />
    <glyph glyph-name="idieresis" unicode="&#xef;" horiz-adv-x="571" 
d="M100 1241q-47 0 -80.5 34t-33.5 81q0 48 33.5 82.5t80.5 34.5t82 -35t35 -82t-35 -81t-82 -34zM463 1241q-47 0 -82 34t-35 81t35 82t82 35t82 -35t35 -82t-35 -81t-82 -34zM63 0v70l138 45v700l-121 43v72l291 59v-876l153 -43v-70h-461z" />
    <glyph glyph-name="eth" unicode="&#xf0;" horiz-adv-x="1110" 
d="M227 1104l-39 67l248 142q-110 97 -264 192l31 54q195 -81 340 -185l241 139l39 -67l-213 -123q202 -159 308 -359t106 -419q0 -253 -135.5 -415.5t-339.5 -162.5q-112 0 -204 40t-150 109t-89.5 158t-31.5 189q0 143 67.5 264.5t176.5 190.5t231 69q106 0 186 -55
q-82 173 -237 325zM838 471q0 187 -62 360q-55 39 -105 58.5t-122 19.5q-130 0 -209.5 -99t-79.5 -275q0 -88 18.5 -170.5t55 -152.5t98.5 -112.5t141 -42.5q123 0 194 110t71 304z" />
    <glyph glyph-name="ntilde" unicode="&#xf1;" horiz-adv-x="1167" 
d="M68 0v70l129 43v690l-138 33v55l252 98h11l45 -186h2q159 186 336 186q147 0 212.5 -76.5t65.5 -267.5v-534l133 -43v-68h-424v70l117 41v518q-6 114 -48 168.5t-140 54.5q-37 0 -76.5 -11.5t-69.5 -28.5t-54 -34t-37 -29t-13 -14v-624l135 -41v-70h-438zM596 1239
l-80 47q-68 41 -107 48t-68 -19t-58 -96l-62 26l10 27q114 283 316 170l98 -56q75 -44 120 -22t89 127l61 -27l-10 -26q-61 -159 -136.5 -207.5t-172.5 8.5z" />
    <glyph glyph-name="ograve" unicode="&#xf2;" horiz-adv-x="1097" 
d="M260 535q0 -88 18.5 -170.5t55 -152.5t98.5 -112.5t141 -42.5q120 0 192.5 107t72.5 268q0 222 -85.5 347.5t-226.5 125.5q-123 0 -194.5 -104.5t-71.5 -265.5zM549 -33q-112 0 -204 40t-150 109t-89.5 158t-31.5 189q0 144 63 266t172 193t240 71q220 0 347.5 -130.5
t127.5 -360.5q0 -147 -62 -269.5t-171 -194t-242 -71.5zM504 1128l-205 381v39h164l125 -420h-84z" />
    <glyph glyph-name="oacute" unicode="&#xf3;" horiz-adv-x="1097" 
d="M260 535q0 -88 18.5 -170.5t55 -152.5t98.5 -112.5t141 -42.5q120 0 192.5 107t72.5 268q0 222 -85.5 347.5t-226.5 125.5q-123 0 -194.5 -104.5t-71.5 -265.5zM549 -33q-112 0 -204 40t-150 109t-89.5 158t-31.5 189q0 144 63 266t172 193t240 71q220 0 347.5 -130.5
t127.5 -360.5q0 -147 -62 -269.5t-171 -194t-242 -71.5zM627 1548h164v-39l-203 -381h-84z" />
    <glyph glyph-name="ocircumflex" unicode="&#xf4;" horiz-adv-x="1097" 
d="M260 535q0 -88 18.5 -170.5t55 -152.5t98.5 -112.5t141 -42.5q120 0 192.5 107t72.5 268q0 222 -85.5 347.5t-226.5 125.5q-123 0 -194.5 -104.5t-71.5 -265.5zM549 -33q-112 0 -204 40t-150 109t-89.5 158t-31.5 189q0 144 63 266t172 193t240 71q220 0 347.5 -130.5
t127.5 -360.5q0 -147 -62 -269.5t-171 -194t-242 -71.5zM379 1128h-96l206 420h117l207 -420h-100l-170 269z" />
    <glyph glyph-name="otilde" unicode="&#xf5;" horiz-adv-x="1097" 
d="M260 535q0 -88 18.5 -170.5t55 -152.5t98.5 -112.5t141 -42.5q120 0 192.5 107t72.5 268q0 222 -85.5 347.5t-226.5 125.5q-123 0 -194.5 -104.5t-71.5 -265.5zM549 -33q-112 0 -204 40t-150 109t-89.5 158t-31.5 189q0 144 63 266t172 193t240 71q220 0 347.5 -130.5
t127.5 -360.5q0 -147 -62 -269.5t-171 -194t-242 -71.5zM600 1239l-80 47q-68 41 -107 48t-68 -19t-58 -96l-62 26l11 27q114 282 315 170l98 -56q75 -44 120 -22t89 127l62 -27l-11 -26q-61 -159 -136.5 -207.5t-172.5 8.5z" />
    <glyph glyph-name="odieresis" unicode="&#xf6;" horiz-adv-x="1097" 
d="M260 535q0 -88 18.5 -170.5t55 -152.5t98.5 -112.5t141 -42.5q120 0 192.5 107t72.5 268q0 222 -85.5 347.5t-226.5 125.5q-123 0 -194.5 -104.5t-71.5 -265.5zM549 -33q-112 0 -204 40t-150 109t-89.5 158t-31.5 189q0 144 63 266t172 193t240 71q220 0 347.5 -130.5
t127.5 -360.5q0 -147 -62 -269.5t-171 -194t-242 -71.5zM340 1241q-47 0 -81 34t-34 81t34 82t81 35t82 -35t35 -82t-35 -81t-82 -34zM743 1241q-47 0 -81.5 34t-34.5 81t34.5 82t81.5 35t82 -35t35 -82t-35 -81t-82 -34z" />
    <glyph glyph-name="divide" unicode="&#xf7;" horiz-adv-x="1142" 
d="M1057 426h-971v119h971v-119zM569 -8q-57 0 -99 42.5t-42 100.5q0 57 42 99t99 42q58 0 101 -42t43 -99q0 -58 -42.5 -100.5t-101.5 -42.5zM571 692q-57 0 -99 43t-42 101q0 57 42 99t99 42q58 0 101 -42t43 -99q0 -58 -42.5 -101t-101.5 -43z" />
    <glyph glyph-name="oslash" unicode="&#xf8;" horiz-adv-x="1097" 
d="M170 -88h-104l145 194q-66 67 -101.5 160.5t-35.5 196.5q0 144 63 266t172 193t240 71q157 0 270 -75l111 145h104l-149 -199q139 -136 139 -362q0 -147 -62 -269.5t-171 -194t-242 -71.5q-150 0 -275 84zM569 55q121 0 196 112.5t75 285.5q0 172 -52 282l-436 -581
q79 -99 217 -99zM258 518q0 -174 49 -285l434 580q-77 96 -213 96q-124 0 -197 -110t-73 -281z" />
    <glyph glyph-name="ugrave" unicode="&#xf9;" horiz-adv-x="1132" 
d="M844 -31l-60 166q-12 -13 -23.5 -25.5t-47.5 -41.5t-72 -49t-90.5 -37t-108.5 -17q-135 0 -203.5 94.5t-68.5 270.5v504l-141 40v76l315 31v-633q4 -126 57.5 -185t157.5 -59q35 0 70 10t60.5 24.5t46 28.5t30.5 24l10 10v633l-166 36v76l340 31v-858l166 -41v-68z
M557 1128l-205 381v39h164l125 -420h-84z" />
    <glyph glyph-name="uacute" unicode="&#xfa;" horiz-adv-x="1132" 
d="M844 -31l-60 166q-12 -13 -23.5 -25.5t-47.5 -41.5t-72 -49t-90.5 -37t-108.5 -17q-135 0 -203.5 94.5t-68.5 270.5v504l-141 40v76l315 31v-633q4 -126 57.5 -185t157.5 -59q35 0 70 10t60.5 24.5t46 28.5t30.5 24l10 10v633l-166 36v76l340 31v-858l166 -41v-68z
M635 1548h164v-39l-203 -381h-84z" />
    <glyph glyph-name="ucircumflex" unicode="&#xfb;" horiz-adv-x="1132" 
d="M844 -31l-60 166q-12 -13 -23.5 -25.5t-47.5 -41.5t-72 -49t-90.5 -37t-108.5 -17q-135 0 -203.5 94.5t-68.5 270.5v504l-141 40v76l315 31v-633q4 -126 57.5 -185t157.5 -59q35 0 70 10t60.5 24.5t46 28.5t30.5 24l10 10v633l-166 36v76l340 31v-858l166 -41v-68z
M377 1128h-96l206 420h117l207 -420h-100l-170 269z" />
    <glyph glyph-name="udieresis" unicode="&#xfc;" horiz-adv-x="1132" 
d="M844 -31l-60 166q-12 -13 -23.5 -25.5t-47.5 -41.5t-72 -49t-90.5 -37t-108.5 -17q-135 0 -203.5 94.5t-68.5 270.5v504l-141 40v76l315 31v-633q4 -126 57.5 -185t157.5 -59q35 0 70 10t60.5 24.5t46 28.5t30.5 24l10 10v633l-166 36v76l340 31v-858l166 -41v-68z
M348 1241q-47 0 -81 34t-34 81t34 82t81 35t82 -35t35 -82t-35 -81t-82 -34zM752 1241q-47 0 -82 34t-35 81t35 82t82 35t81.5 -35t34.5 -82t-34.5 -81t-81.5 -34z" />
    <glyph glyph-name="yacute" unicode="&#xfd;" horiz-adv-x="1019" 
d="M819 850l-141 51v62h344v-64l-94 -41l-455 -1134q-51 -131 -97 -186.5t-120 -55.5q-52 0 -89.5 32.5t-37.5 82.5q0 48 29 75t73 27q61 0 101 -74h4l121 283l-363 952l-96 39v64h444v-64l-149 -39l254 -717h6zM631 1548h164v-39l-203 -381h-84z" />
    <glyph glyph-name="thorn" unicode="&#xfe;" horiz-adv-x="1089" 
d="M162 -377v1729l-127 39v65l301 72v-690q129 151 297 151q79 0 146 -26.5t121 -80t85 -145.5t31 -213q0 -154 -76.5 -283.5t-201.5 -201.5t-269 -72q-61 0 -133 21v-361l186 -55v-64h-489v70zM539 852q-114 0 -203 -84v-639q72 -72 201 -72q122 0 210.5 107.5t88.5 298.5
q0 176 -82 282.5t-215 106.5z" />
    <glyph glyph-name="ydieresis" unicode="&#xff;" horiz-adv-x="1019" 
d="M819 850l-141 51v62h344v-64l-94 -41l-455 -1134q-51 -131 -97 -186.5t-120 -55.5q-52 0 -89.5 32.5t-37.5 82.5q0 48 29 75t73 27q61 0 101 -74h4l121 283l-363 952l-96 39v64h444v-64l-149 -39l254 -717h6zM360 1241q-47 0 -80.5 34t-33.5 81q0 48 33.5 82.5t80.5 34.5
t82 -35t35 -82t-35 -81t-82 -34zM764 1241q-47 0 -82 34t-35 81t35 82t82 35t82 -35t35 -82t-35 -81t-82 -34z" />
    <glyph glyph-name="Amacron" unicode="&#x100;" horiz-adv-x="1380" 
d="M6 0v66l119 47l498 1257l69 10l72 21l471 -1288l139 -45v-68h-526v68l174 47l-125 358h-500l-118 -334l196 -71v-68h-469zM649 1176l-207 -580h412l-203 580h-2zM393 1602v122h594v-122h-594z" />
    <glyph glyph-name="amacron" unicode="&#x101;" horiz-adv-x="1028" 
d="M346 -31q-42 0 -84.5 15t-79 43t-59.5 75.5t-23 106.5q0 117 80.5 183t249.5 110l211 55v107q-3 115 -56.5 177t-138.5 62q-70 0 -129 -37l-8 -202q-51 -7 -82 -7q-98 0 -98 88q0 35 32 77.5t83.5 79.5t126 62t149.5 25q154 0 225.5 -72t71.5 -225v-553q0 -32 13.5 -43.5
t54.5 -11.5h102v-57q-118 -52 -194 -52q-74 0 -111 44.5t-37 115.5h-6q-6 -6 -32 -30.5t-31 -29t-26 -23.5t-27 -23t-24.5 -17.5t-27.5 -16t-26 -10.5t-30.5 -9.5t-31.5 -4t-37 -2.5zM455 109q64 0 111 34.5t75 75.5v270l-197 -65q-79 -27 -118 -62.5t-39 -95.5
q0 -74 49 -115.5t119 -41.5zM205 1284v123h594v-123h-594z" />
    <glyph glyph-name="Abreve" unicode="&#x102;" horiz-adv-x="1380" 
d="M6 0v66l119 47l498 1257l69 10l72 21l471 -1288l139 -45v-68h-526v68l174 47l-125 358h-500l-118 -334l196 -71v-68h-469zM649 1176l-207 -580h412l-203 580h-2zM678 1499q-76 0 -133 23.5t-88 63.5t-45 87t-11 99h60q16 -67 73 -104.5t154 -37.5q98 0 154.5 37.5
t72.5 104.5h60q8 -109 -69.5 -191t-227.5 -82z" />
    <glyph glyph-name="abreve" unicode="&#x103;" horiz-adv-x="1028" 
d="M346 -31q-42 0 -84.5 15t-79 43t-59.5 75.5t-23 106.5q0 117 80.5 183t249.5 110l211 55v107q-3 115 -56.5 177t-138.5 62q-70 0 -129 -37l-8 -202q-51 -7 -82 -7q-98 0 -98 88q0 35 32 77.5t83.5 79.5t126 62t149.5 25q154 0 225.5 -72t71.5 -225v-553q0 -32 13.5 -43.5
t54.5 -11.5h102v-57q-118 -52 -194 -52q-74 0 -111 44.5t-37 115.5h-6q-6 -6 -32 -30.5t-31 -29t-26 -23.5t-27 -23t-24.5 -17.5t-27.5 -16t-26 -10.5t-30.5 -9.5t-31.5 -4t-37 -2.5zM455 109q64 0 111 34.5t75 75.5v270l-197 -65q-79 -27 -118 -62.5t-39 -95.5
q0 -74 49 -115.5t119 -41.5zM494 1161q-124 0 -186 87.5t-68 244.5h73q13 -88 63.5 -147.5t135.5 -59.5q73 0 121 60t61 147h72q-6 -161 -68.5 -246.5t-203.5 -85.5z" />
    <glyph glyph-name="Aogonek" unicode="&#x104;" horiz-adv-x="1380" 
d="M6 0v66l119 47l498 1257l69 10l72 21l471 -1288l139 -45v-68h-256q-67 -39 -113.5 -79t-69 -74.5t-31.5 -61.5t-9 -51q0 -58 30 -91.5t83 -33.5q51 0 86.5 19t91.5 75l35 -35q-26 -41 -50.5 -71t-60 -61.5t-80 -48.5t-96.5 -17q-88 0 -139.5 51t-51.5 131q0 78 57.5 151
t206.5 215q23 22 35 33l-147 422h-498l-118 -334l196 -71v-68h-469zM649 1176l-207 -580h410l-201 580h-2z" />
    <glyph glyph-name="aogonek" unicode="&#x105;" horiz-adv-x="1028" 
d="M987 84v-49q-180 -114 -251.5 -189t-71.5 -135q0 -46 25.5 -74t80.5 -28q51 0 89 19.5t91 74.5l35 -35q-26 -41 -50.5 -71t-60 -61.5t-80 -48.5t-96.5 -17q-89 0 -142.5 50.5t-53.5 129.5q0 83 69 159t230 164v4q-77 0 -115 38.5t-41 119.5h-6q-6 -6 -32 -30.5t-31 -29
t-26 -23.5t-27 -23t-24.5 -17.5t-27.5 -16t-26 -10.5t-30.5 -9.5t-31.5 -4t-37 -2.5q-42 0 -84.5 15t-79 43t-59.5 75.5t-23 106.5q0 117 80.5 183t249.5 110l211 55v107q-3 115 -56.5 177t-138.5 62q-70 0 -129 -37l-8 -202q-51 -7 -82 -7q-98 0 -98 88q0 35 32 77.5
t83.5 79.5t126 62t149.5 25q154 0 225.5 -72t71.5 -225v-553q0 -32 13.5 -43.5t54.5 -11.5h102zM455 109q64 0 111 34.5t75 75.5v270l-197 -65q-79 -27 -118 -62.5t-39 -95.5q0 -74 49 -115.5t119 -41.5z" />
    <glyph glyph-name="Cacute" unicode="&#x106;" horiz-adv-x="1466" 
d="M809 -51q-151 0 -273 40t-202 106.5t-134 156t-77 184.5t-23 197q0 214 101 388.5t279 274t397 99.5q229 0 428 -111l12 -342h-76l-113 275q-115 77 -270 77q-111 0 -208.5 -42.5t-169 -118.5t-113 -187t-41.5 -241q0 -155 42.5 -280t116.5 -206t173.5 -124.5
t215.5 -43.5q156 0 281 92l154 289h75l-53 -344q-134 -69 -257 -104t-265 -35zM950 1792h191v-41l-246 -244h-107z" />
    <glyph glyph-name="cacute" unicode="&#x107;" horiz-adv-x="960" 
d="M512 -33q-88 0 -166.5 31t-140 89.5t-97.5 151.5t-36 207q0 120 45.5 224t118.5 172.5t164.5 107.5t185.5 39q126 0 211.5 -59.5t85.5 -145.5q0 -47 -28.5 -79.5t-80.5 -32.5l-69 6l-31 190q-50 33 -123 33q-128 0 -213.5 -106.5t-85.5 -268.5q0 -173 100.5 -294
t253.5 -121q41 0 81 13.5t67.5 32.5t49 37.5t32.5 31.5l10 14l41 -27q-2 -5 -6 -14t-19 -34.5t-33 -48.5t-50 -51.5t-68 -49t-88.5 -34.5t-110.5 -14zM604 1548h164v-39l-203 -381h-84z" />
    <glyph glyph-name="Ccircumflex" unicode="&#x108;" horiz-adv-x="1466" 
d="M809 -51q-151 0 -273 40t-202 106.5t-134 156t-77 184.5t-23 197q0 214 101 388.5t279 274t397 99.5q229 0 428 -111l12 -342h-76l-113 275q-115 77 -270 77q-111 0 -208.5 -42.5t-169 -118.5t-113 -187t-41.5 -241q0 -155 42.5 -280t116.5 -206t173.5 -124.5
t215.5 -43.5q156 0 281 92l154 289h75l-53 -344q-134 -69 -257 -104t-265 -35zM623 1507h-93l228 265h198l228 -265h-97l-233 160z" />
    <glyph glyph-name="ccircumflex" unicode="&#x109;" horiz-adv-x="960" 
d="M512 -33q-88 0 -166.5 31t-140 89.5t-97.5 151.5t-36 207q0 120 45.5 224t118.5 172.5t164.5 107.5t185.5 39q126 0 211.5 -59.5t85.5 -145.5q0 -47 -28.5 -79.5t-80.5 -32.5l-69 6l-31 190q-50 33 -123 33q-128 0 -213.5 -106.5t-85.5 -268.5q0 -173 100.5 -294
t253.5 -121q41 0 81 13.5t67.5 32.5t49 37.5t32.5 31.5l10 14l41 -27q-2 -5 -6 -14t-19 -34.5t-33 -48.5t-50 -51.5t-68 -49t-88.5 -34.5t-110.5 -14zM371 1128h-97l207 420h117l207 -420h-100l-170 269z" />
    <glyph glyph-name="Cdotaccent" unicode="&#x10a;" horiz-adv-x="1466" 
d="M809 -51q-151 0 -273 40t-202 106.5t-134 156t-77 184.5t-23 197q0 214 101 388.5t279 274t397 99.5q229 0 428 -111l12 -342h-76l-113 275q-115 77 -270 77q-111 0 -208.5 -42.5t-169 -118.5t-113 -187t-41.5 -241q0 -155 42.5 -280t116.5 -206t173.5 -124.5
t215.5 -43.5q156 0 281 92l154 289h75l-53 -344q-134 -69 -257 -104t-265 -35zM856 1546q-52 0 -89.5 37t-37.5 90t37.5 90t89.5 37t89.5 -37t37.5 -90t-37.5 -90t-89.5 -37z" />
    <glyph glyph-name="cdotaccent" unicode="&#x10b;" horiz-adv-x="960" 
d="M512 -33q-88 0 -166.5 31t-140 89.5t-97.5 151.5t-36 207q0 120 45.5 224t118.5 172.5t164.5 107.5t185.5 39q126 0 211.5 -59.5t85.5 -145.5q0 -47 -28.5 -79.5t-80.5 -32.5l-69 6l-31 190q-50 33 -123 33q-128 0 -213.5 -106.5t-85.5 -268.5q0 -173 100.5 -294
t253.5 -121q41 0 81 13.5t67.5 32.5t49 37.5t32.5 31.5l10 14l41 -27q-2 -5 -6 -14t-19 -34.5t-33 -48.5t-50 -51.5t-68 -49t-88.5 -34.5t-110.5 -14zM537 1206q-53 0 -90 37t-37 90t37 90t90 37t90 -37t37 -90t-37 -90t-90 -37z" />
    <glyph glyph-name="Ccaron" unicode="&#x10c;" horiz-adv-x="1466" 
d="M809 -51q-151 0 -273 40t-202 106.5t-134 156t-77 184.5t-23 197q0 214 101 388.5t279 274t397 99.5q229 0 428 -111l12 -342h-76l-113 275q-115 77 -270 77q-111 0 -208.5 -42.5t-169 -118.5t-113 -187t-41.5 -241q0 -155 42.5 -280t116.5 -206t173.5 -124.5
t215.5 -43.5q156 0 281 92l154 289h75l-53 -344q-134 -69 -257 -104t-265 -35zM1085 1772h93l-228 -265h-198l-228 265h97l233 -160z" />
    <glyph glyph-name="ccaron" unicode="&#x10d;" horiz-adv-x="960" 
d="M512 -33q-88 0 -166.5 31t-140 89.5t-97.5 151.5t-36 207q0 120 45.5 224t118.5 172.5t164.5 107.5t185.5 39q126 0 211.5 -59.5t85.5 -145.5q0 -47 -28.5 -79.5t-80.5 -32.5l-69 6l-31 190q-50 33 -123 33q-128 0 -213.5 -106.5t-85.5 -268.5q0 -173 100.5 -294
t253.5 -121q41 0 81 13.5t67.5 32.5t49 37.5t32.5 31.5l10 14l41 -27q-2 -5 -6 -14t-19 -34.5t-33 -48.5t-50 -51.5t-68 -49t-88.5 -34.5t-110.5 -14zM707 1548h96l-207 -420h-117l-207 420h101l168 -268z" />
    <glyph glyph-name="Dcaron" unicode="&#x10e;" horiz-adv-x="1583" 
d="M473 1284v-1094q4 -35 29.5 -58.5t65.5 -34t77 -14.5t76 -3q126 3 228 49.5t168.5 125t102 180.5t35.5 218q0 146 -41.5 259.5t-113 186t-172 117t-213 60t-242.5 8.5zM100 0v68l174 47v1126l-174 53v66l615 8q181 2 325.5 -47t238.5 -138.5t144 -212t50 -268.5
q0 -316 -231.5 -514t-623.5 -194zM958 1772h93l-228 -265h-198l-228 265h97l233 -160z" />
    <glyph glyph-name="dcaron" unicode="&#x10f;" horiz-adv-x="1167" 
d="M575 1409v64l359 55v-1409l166 -41v-68l-275 -39l-49 140q-71 -69 -137 -106.5t-152 -37.5q-84 0 -153.5 26.5t-117 71.5t-80 104.5t-47.5 124.5t-15 134q0 248 144 404.5t366 156.5q90 0 176 -20v407zM590 106q90 0 170 54v608q-3 5 -9 14.5t-27.5 32.5t-45.5 41
t-62 32.5t-79 14.5q-125 0 -208 -99t-83 -272q0 -64 10 -122t35 -114.5t63.5 -97.5t99 -66.5t136.5 -25.5zM1147 1096h-60l31 430h182v-17z" />
    <glyph glyph-name="Dcroat" unicode="&#x110;" horiz-adv-x="1583" 
d="M100 0v68l174 47v512h-202v92h202v522l-174 53v66l615 8q181 2 325.5 -47t238.5 -138.5t144 -212t50 -268.5q0 -316 -231.5 -514t-623.5 -194zM831 627h-358v-437q4 -35 29.5 -58.5t65.5 -34t77 -14.5t76 -3q126 3 228 49.5t168.5 125t102 180.5t35.5 218
q0 146 -41.5 259.5t-113 186t-172 117t-213 60t-242.5 8.5v-565h358v-92z" />
    <glyph glyph-name="dcroat" unicode="&#x111;" horiz-adv-x="1167" 
d="M575 1409v64l359 55v-305h176v-97h-176v-1007l166 -41v-68l-275 -39l-49 140q-71 -69 -137 -106.5t-152 -37.5q-84 0 -153.5 26.5t-117 71.5t-80 104.5t-47.5 124.5t-15 134q0 248 144 404.5t366 156.5q90 0 176 -20v157h-398v97h398v153zM590 106q90 0 170 54v608
q-3 5 -9 14.5t-27.5 32.5t-45.5 41t-62 32.5t-79 14.5q-125 0 -208 -99t-83 -272q0 -64 10 -122t35 -114.5t63.5 -97.5t99 -66.5t136.5 -25.5z" />
    <glyph glyph-name="Emacron" unicode="&#x112;" horiz-adv-x="1294" 
d="M739 657h-266v-561h479l166 271h76l-66 -367h-1028v68l174 47v1124l-174 55v66h842l178 8v-362h-73l-111 262h-463v-516h266l60 168h65v-418h-71zM387 1602v122h594v-122h-594z" />
    <glyph glyph-name="emacron" unicode="&#x113;" horiz-adv-x="1026" 
d="M522 -33q-97 0 -176.5 33t-128.5 84t-82.5 116.5t-47 126t-13.5 117.5q0 232 135.5 388.5t347.5 156.5q171 0 266 -112.5t95 -321.5h-678v-20q0 -189 98.5 -300.5t259.5 -111.5q49 0 96 16t80 38t58.5 44.5t37.5 38.5l13 16l41 -24q-2 -6 -6 -16t-20.5 -40t-36 -57
t-53.5 -59.5t-73 -56.5t-95 -40t-118 -16zM512 899q-95 0 -166.5 -74t-95.5 -190h463q-2 112 -53.5 188t-147.5 76zM246 1284v123h594v-123h-594z" />
    <glyph glyph-name="Ebreve" unicode="&#x114;" horiz-adv-x="1294" 
d="M739 657h-266v-561h479l166 271h76l-66 -367h-1028v68l174 47v1124l-174 55v66h842l178 8v-362h-73l-111 262h-463v-516h266l60 168h65v-418h-71zM672 1499q-76 0 -133 23.5t-88 63.5t-45 87t-11 99h60q16 -67 73 -104.5t154 -37.5q98 0 154.5 37.5t72.5 104.5h60
q8 -109 -69.5 -191t-227.5 -82z" />
    <glyph glyph-name="ebreve" unicode="&#x115;" horiz-adv-x="1026" 
d="M522 -33q-97 0 -176.5 33t-128.5 84t-82.5 116.5t-47 126t-13.5 117.5q0 232 135.5 388.5t347.5 156.5q171 0 266 -112.5t95 -321.5h-678v-20q0 -189 98.5 -300.5t259.5 -111.5q49 0 96 16t80 38t58.5 44.5t37.5 38.5l13 16l41 -24q-2 -6 -6 -16t-20.5 -40t-36 -57
t-53.5 -59.5t-73 -56.5t-95 -40t-118 -16zM512 899q-95 0 -166.5 -74t-95.5 -190h463q-2 112 -53.5 188t-147.5 76zM535 1161q-124 0 -186 87.5t-68 244.5h73q13 -88 63.5 -147.5t135.5 -59.5q73 0 121 60t61 147h72q-6 -161 -68.5 -246.5t-203.5 -85.5z" />
    <glyph glyph-name="Edotaccent" unicode="&#x116;" horiz-adv-x="1294" 
d="M739 657h-266v-561h479l166 271h76l-66 -367h-1028v68l174 47v1124l-174 55v66h842l178 8v-362h-73l-111 262h-463v-516h266l60 168h65v-418h-71zM684 1546q-52 0 -89.5 37t-37.5 90t37.5 90t89.5 37t89.5 -37t37.5 -90t-37.5 -90t-89.5 -37z" />
    <glyph glyph-name="edotaccent" unicode="&#x117;" horiz-adv-x="1026" 
d="M522 -33q-97 0 -176.5 33t-128.5 84t-82.5 116.5t-47 126t-13.5 117.5q0 232 135.5 388.5t347.5 156.5q171 0 266 -112.5t95 -321.5h-678v-20q0 -189 98.5 -300.5t259.5 -111.5q49 0 96 16t80 38t58.5 44.5t37.5 38.5l13 16l41 -24q-2 -6 -6 -16t-20.5 -40t-36 -57
t-53.5 -59.5t-73 -56.5t-95 -40t-118 -16zM512 899q-95 0 -166.5 -74t-95.5 -190h463q-2 112 -53.5 188t-147.5 76zM543 1206q-53 0 -90 37t-37 90t37 90t90 37t90 -37t37 -90t-37 -90t-90 -37z" />
    <glyph glyph-name="Eogonek" unicode="&#x118;" horiz-adv-x="1294" 
d="M893 0h-793v68l174 47v1124l-174 55v66h842l178 8v-362h-73l-111 262h-463v-516h266l60 168h65v-418h-71l-54 155h-266v-561h479l166 271h76l-66 -367h-149q-137 -141 -170 -185q-41 -57 -41 -104q0 -102 106 -102q51 0 90 19.5t91 74.5l35 -35q-26 -41 -50.5 -71
t-60 -61.5t-80 -48.5t-96.5 -17q-89 0 -143 49.5t-54 124.5q0 24 3.5 45.5t15.5 44.5t21 39t34 42t38.5 40t51 45t56 46t67.5 54z" />
    <glyph glyph-name="eogonek" unicode="&#x119;" horiz-adv-x="1026" 
d="M522 -33q-97 0 -176.5 33t-128.5 84t-82.5 116.5t-47 126t-13.5 117.5q0 232 135.5 388.5t347.5 156.5q171 0 266 -112.5t95 -321.5h-678v-20q0 -189 98.5 -300.5t259.5 -111.5q49 0 96 16t80 38t58.5 44.5t37.5 38.5l13 16l41 -24q-29 -84 -103 -160
q-29 -30 -66.5 -68.5t-58.5 -60t-47.5 -49.5t-41 -44t-31.5 -37t-25 -34.5t-15.5 -29.5t-10.5 -29.5t-3 -28.5q0 -102 107 -102q51 0 89 19.5t91 74.5l35 -35q-26 -41 -50.5 -71t-60 -61.5t-80 -48.5t-96.5 -17q-89 0 -143 49.5t-54 124.5q0 36 11.5 69.5t29 61t54.5 63.5
t70 63.5t93 75.5q-52 -10 -96 -10zM512 899q-95 0 -166.5 -74t-95.5 -190h463q-2 112 -53.5 188t-147.5 76z" />
    <glyph glyph-name="Ecaron" unicode="&#x11a;" horiz-adv-x="1294" 
d="M739 657h-266v-561h479l166 271h76l-66 -367h-1028v68l174 47v1124l-174 55v66h842l178 8v-362h-73l-111 262h-463v-516h266l60 168h65v-418h-71zM913 1772h93l-228 -265h-198l-228 265h97l233 -160z" />
    <glyph glyph-name="ecaron" unicode="&#x11b;" horiz-adv-x="1026" 
d="M522 -33q-97 0 -176.5 33t-128.5 84t-82.5 116.5t-47 126t-13.5 117.5q0 232 135.5 388.5t347.5 156.5q171 0 266 -112.5t95 -321.5h-678v-20q0 -189 98.5 -300.5t259.5 -111.5q49 0 96 16t80 38t58.5 44.5t37.5 38.5l13 16l41 -24q-2 -6 -6 -16t-20.5 -40t-36 -57
t-53.5 -59.5t-73 -56.5t-95 -40t-118 -16zM512 899q-95 0 -166.5 -74t-95.5 -190h463q-2 112 -53.5 188t-147.5 76zM713 1548h96l-207 -420h-117l-206 420h100l168 -268z" />
    <glyph glyph-name="Gcircumflex" unicode="&#x11c;" horiz-adv-x="1540" 
d="M834 -51q-156 0 -281.5 38.5t-208.5 103.5t-138.5 154.5t-79.5 188t-24 207.5q0 148 62 286t168.5 241t257.5 165t319 62q226 0 416 -111l12 -332h-80l-114 271q-109 71 -273 71q-101 0 -189 -33.5t-152.5 -91.5t-110.5 -136.5t-69 -170t-23 -188.5q0 -151 46.5 -272
t125.5 -196.5t179 -115t212 -39.5q141 0 244 45v418l-191 53v58h504v-68l-117 -33v-424l-63 -34q-79 -45 -194 -81t-238 -36zM635 1507h-92l227 265h199l227 -265h-96l-234 160z" />
    <glyph glyph-name="gcircumflex" unicode="&#x11d;" horiz-adv-x="1058" 
d="M1020 844l-234 12l-2 -6q105 -89 105 -227q0 -81 -35 -151t-92 -116.5t-130.5 -73t-150.5 -26.5q-74 0 -147 25q-72 -57 -72 -103q0 -24 21.5 -46t54.5 -23l387 -23q147 -9 220 -69.5t73 -159.5q0 -65 -41 -131t-115 -122t-190.5 -91t-253.5 -35q-100 0 -183 26
t-135.5 79.5t-52.5 125.5q0 59 39.5 117.5t110.5 97.5l49 27v4l-146 139q29 74 65 121.5t97 97.5q-74 45 -118 121.5t-44 179.5q0 165 113.5 270t280.5 105q64 0 114.5 -12t126.5 -39l285 31v-125zM506 344q84 0 140 69t56 183q0 156 -61.5 234.5t-159.5 78.5
q-91 0 -141.5 -64t-50.5 -181q0 -150 58.5 -235t158.5 -85zM707 -80l-388 25q-32 -34 -60 -84t-28 -99q0 -31 14.5 -61t45.5 -58t88.5 -45.5t134.5 -17.5q90 0 161 20t112 52.5t62 69t21 73.5q0 114 -163 125zM344 1128h-96l207 420h116l207 -420h-100l-170 269z" />
    <glyph glyph-name="Gbreve" unicode="&#x11e;" horiz-adv-x="1540" 
d="M834 -51q-156 0 -281.5 38.5t-208.5 103.5t-138.5 154.5t-79.5 188t-24 207.5q0 148 62 286t168.5 241t257.5 165t319 62q226 0 416 -111l12 -332h-80l-114 271q-109 71 -273 71q-101 0 -189 -33.5t-152.5 -91.5t-110.5 -136.5t-69 -170t-23 -188.5q0 -151 46.5 -272
t125.5 -196.5t179 -115t212 -39.5q141 0 244 45v418l-191 53v58h504v-68l-117 -33v-424l-63 -34q-79 -45 -194 -81t-238 -36zM856 1499q-76 0 -133 23.5t-88 63.5t-44.5 87t-10.5 99h59q16 -67 73 -104.5t154 -37.5q98 0 155 37.5t73 104.5h59q8 -109 -69.5 -191t-227.5 -82
z" />
    <glyph glyph-name="gbreve" unicode="&#x11f;" horiz-adv-x="1058" 
d="M1020 844l-234 12l-2 -6q105 -89 105 -227q0 -81 -35 -151t-92 -116.5t-130.5 -73t-150.5 -26.5q-74 0 -147 25q-72 -57 -72 -103q0 -24 21.5 -46t54.5 -23l387 -23q147 -9 220 -69.5t73 -159.5q0 -65 -41 -131t-115 -122t-190.5 -91t-253.5 -35q-100 0 -183 26
t-135.5 79.5t-52.5 125.5q0 59 39.5 117.5t110.5 97.5l49 27v4l-146 139q29 74 65 121.5t97 97.5q-74 45 -118 121.5t-44 179.5q0 165 113.5 270t280.5 105q64 0 114.5 -12t126.5 -39l285 31v-125zM506 344q84 0 140 69t56 183q0 156 -61.5 234.5t-159.5 78.5
q-91 0 -141.5 -64t-50.5 -181q0 -150 58.5 -235t158.5 -85zM707 -80l-388 25q-32 -34 -60 -84t-28 -99q0 -31 14.5 -61t45.5 -58t88.5 -45.5t134.5 -17.5q90 0 161 20t112 52.5t62 69t21 73.5q0 114 -163 125zM502 1161q-124 0 -186 87.5t-68 244.5h74q13 -88 63 -147.5
t135 -59.5q73 0 121 60t61 147h72q-6 -161 -68.5 -246.5t-203.5 -85.5z" />
    <glyph glyph-name="Gdotaccent" unicode="&#x120;" horiz-adv-x="1540" 
d="M834 -51q-156 0 -281.5 38.5t-208.5 103.5t-138.5 154.5t-79.5 188t-24 207.5q0 148 62 286t168.5 241t257.5 165t319 62q226 0 416 -111l12 -332h-80l-114 271q-109 71 -273 71q-101 0 -189 -33.5t-152.5 -91.5t-110.5 -136.5t-69 -170t-23 -188.5q0 -151 46.5 -272
t125.5 -196.5t179 -115t212 -39.5q141 0 244 45v418l-191 53v58h504v-68l-117 -33v-424l-63 -34q-79 -45 -194 -81t-238 -36zM868 1546q-52 0 -89.5 37t-37.5 90t37.5 90t89.5 37t89.5 -37t37.5 -90t-37.5 -90t-89.5 -37z" />
    <glyph glyph-name="gdotaccent" unicode="&#x121;" horiz-adv-x="1058" 
d="M1020 844l-234 12l-2 -6q105 -89 105 -227q0 -81 -35 -151t-92 -116.5t-130.5 -73t-150.5 -26.5q-74 0 -147 25q-72 -57 -72 -103q0 -24 21.5 -46t54.5 -23l387 -23q147 -9 220 -69.5t73 -159.5q0 -65 -41 -131t-115 -122t-190.5 -91t-253.5 -35q-100 0 -183 26
t-135.5 79.5t-52.5 125.5q0 59 39.5 117.5t110.5 97.5l49 27v4l-146 139q29 74 65 121.5t97 97.5q-74 45 -118 121.5t-44 179.5q0 165 113.5 270t280.5 105q64 0 114.5 -12t126.5 -39l285 31v-125zM506 344q84 0 140 69t56 183q0 156 -61.5 234.5t-159.5 78.5
q-91 0 -141.5 -64t-50.5 -181q0 -150 58.5 -235t158.5 -85zM707 -80l-388 25q-32 -34 -60 -84t-28 -99q0 -31 14.5 -61t45.5 -58t88.5 -45.5t134.5 -17.5q90 0 161 20t112 52.5t62 69t21 73.5q0 114 -163 125zM510 1206q-52 0 -89.5 37t-37.5 90t37.5 90t89.5 37t89.5 -37
t37.5 -90t-37.5 -90t-89.5 -37z" />
    <glyph glyph-name="Gcommaaccent" unicode="&#x122;" horiz-adv-x="1540" 
d="M834 -51q-156 0 -281.5 38.5t-208.5 103.5t-138.5 154.5t-79.5 188t-24 207.5q0 148 62 286t168.5 241t257.5 165t319 62q226 0 416 -111l12 -332h-80l-114 271q-109 71 -273 71q-101 0 -189 -33.5t-152.5 -91.5t-110.5 -136.5t-69 -170t-23 -188.5q0 -151 46.5 -272
t125.5 -196.5t179 -115t212 -39.5q141 0 244 45v418l-191 53v58h504v-68l-117 -33v-424l-63 -34q-79 -45 -194 -81t-238 -36zM684 -547l-16 55q188 59 188 150q0 42 -37.5 66.5t-93.5 29.5v4q7 54 44.5 83.5t94.5 29.5q67 0 104.5 -40.5t37.5 -104.5q0 -191 -322 -273z" />
    <glyph glyph-name="gcommaaccent" unicode="&#x123;" horiz-adv-x="1058" 
d="M1020 844l-234 12l-2 -6q105 -89 105 -227q0 -81 -35 -151t-92 -116.5t-130.5 -73t-150.5 -26.5q-74 0 -147 25q-72 -57 -72 -103q0 -24 21.5 -46t54.5 -23l387 -23q147 -9 220 -69.5t73 -159.5q0 -65 -41 -131t-115 -122t-190.5 -91t-253.5 -35q-100 0 -183 26
t-135.5 79.5t-52.5 125.5q0 59 39.5 117.5t110.5 97.5l49 27v4l-146 139q29 74 65 121.5t97 97.5q-74 45 -118 121.5t-44 179.5q0 165 113.5 270t280.5 105q64 0 114.5 -12t126.5 -39l285 31v-125zM506 344q84 0 140 69t56 183q0 156 -61.5 234.5t-159.5 78.5
q-91 0 -141.5 -64t-50.5 -181q0 -150 58.5 -235t158.5 -85zM707 -80l-388 25q-32 -34 -60 -84t-28 -99q0 -31 14.5 -61t45.5 -58t88.5 -45.5t134.5 -17.5q90 0 161 20t112 52.5t62 69t21 73.5q0 114 -163 125zM666 1624l16 -55q-188 -59 -188 -150q0 -42 37.5 -66.5
t93.5 -29.5v-4q-7 -54 -45 -83.5t-95 -29.5q-67 0 -104 41t-37 105q0 190 322 272z" />
    <glyph glyph-name="Hcircumflex" unicode="&#x124;" horiz-adv-x="1624" 
d="M977 0v68l174 47v547h-678v-547l174 -49v-66h-547v68l174 47v1126l-174 53v66h547v-66l-174 -53v-483h678v483l-174 53v66h547v-66l-174 -53v-1126l174 -49v-66h-547zM578 1507h-93l228 265h198l228 -265h-97l-233 160z" />
    <glyph glyph-name="hcircumflex" unicode="&#x125;" horiz-adv-x="1155" 
d="M678 0v70l117 41v518q-6 113 -48.5 168t-140.5 55q-37 0 -76.5 -11.5t-69.5 -28.5t-54 -34t-37 -29t-13 -14v-624l136 -41v-70h-439v70l129 45v1251l-137 53v56l311 53v-725q19 24 44.5 48.5t70 59.5t102.5 56.5t117 21.5q147 0 213 -76.5t66 -267.5v-534l133 -43v-68
h-424zM352 1671h-92l227 264h199l227 -264h-96l-233 160z" />
    <glyph glyph-name="Hbar" unicode="&#x126;" horiz-adv-x="1624" 
d="M977 0v68l174 47v547h-678v-547l174 -49v-66h-547v68l174 47v860h-204v86h204v180l-174 53v66h547v-66l-174 -53v-180h678v180l-174 53v66h547v-66l-174 -53v-180h204v-86h-204v-860l174 -49v-66h-547zM473 975v-217h678v217h-678z" />
    <glyph glyph-name="hbar" unicode="&#x127;" horiz-adv-x="1155" 
d="M6 1126v97h176v143l-137 53v56l311 53v-305h398v-97h-398v-323q19 24 44.5 48.5t70 59.5t102.5 56.5t117 21.5q147 0 213 -76.5t66 -267.5v-534l133 -43v-68h-424v70l117 41v518q-6 113 -48.5 168t-140.5 55q-37 0 -76.5 -11.5t-69.5 -28.5t-54 -34t-37 -29t-13 -14v-624
l136 -41v-70h-439v70l129 45v1011h-176z" />
    <glyph glyph-name="Itilde" unicode="&#x128;" horiz-adv-x="724" 
d="M414 1544l-86 37q-27 12 -39 17t-33.5 12.5t-30.5 9.5t-25 5t-23.5 0.5l-19.5 -6.5t-19 -12.5t-16.5 -20t-17 -27.5t-16.5 -37l-61 26l10 27q39 98 84 144t98 47.5t121 -25.5l106 -43q35 -14 57.5 -20t46 -5t40.5 14t34 39t35 68l62 -27l-10 -26q-60 -157 -128.5 -200
t-168.5 3zM100 0v68l174 47v1126l-174 53v66h547v-66l-174 -53v-1126l174 -49v-66h-547z" />
    <glyph glyph-name="itilde" unicode="&#x129;" horiz-adv-x="571" 
d="M274 1255l-38 23q-45 27 -73 38t-55.5 8t-49 -28.5t-42.5 -76.5l-61 26l10 27q109 271 324 149l51 -28q40 -24 70.5 -26t63.5 27t61 97l61 -27l-10 -26q-61 -158 -137 -201t-175 18zM63 0v70l138 45v700l-121 43v72l291 59v-876l153 -43v-70h-461z" />
    <glyph glyph-name="Imacron" unicode="&#x12a;" horiz-adv-x="724" 
d="M100 0v68l174 47v1126l-174 53v66h547v-66l-174 -53v-1126l174 -49v-66h-547zM76 1602v122h594v-122h-594z" />
    <glyph glyph-name="imacron" unicode="&#x12b;" horiz-adv-x="571" 
d="M8 1284v123h512v-123h-512zM63 0v70l138 45v700l-121 43v72l291 59v-876l153 -43v-70h-461z" />
    <glyph glyph-name="Ibreve" unicode="&#x12c;" horiz-adv-x="724" 
d="M100 0v68l174 47v1126l-174 53v66h547v-66l-174 -53v-1126l174 -49v-66h-547zM362 1499q-76 0 -133 23.5t-88 63.5t-44.5 87t-10.5 99h59q15 -67 73 -104.5t155 -37.5q98 0 154.5 37.5t72.5 104.5h59q8 -109 -69.5 -191t-227.5 -82z" />
    <glyph glyph-name="ibreve" unicode="&#x12d;" horiz-adv-x="571" 
d="M63 0v70l138 45v700l-121 43v72l291 59v-876l153 -43v-70h-461zM285 1161q-124 0 -186 87.5t-68 244.5h73q13 -88 63.5 -147.5t135.5 -59.5q73 0 121 60t61 147h72q-6 -161 -68.5 -246.5t-203.5 -85.5z" />
    <glyph glyph-name="Iogonek" unicode="&#x12e;" horiz-adv-x="724" 
d="M100 0v68l174 47v1126l-174 53v66h547v-66l-174 -53v-1126l174 -49v-66h-235q-74 -129 -96.5 -182.5t-22.5 -106.5q0 -46 26 -74t80 -28q51 0 90 19.5t91 74.5l34 -35q-26 -41 -50 -70.5t-59.5 -61.5t-80 -49t-96.5 -17q-89 0 -143 49.5t-54 124.5q0 19 2.5 36.5
t9.5 37.5t12.5 35t20 38.5t22 36t28 40.5t29 40t34 45.5t35.5 46.5h-224z" />
    <glyph glyph-name="iogonek" unicode="&#x12f;" horiz-adv-x="571" 
d="M63 0v70l138 45v700l-121 43v72l291 59v-876l153 -43v-70h-196q-11 -19 -29 -50t-25.5 -44.5t-20.5 -36.5t-18 -33t-13 -27.5t-11 -27t-6.5 -22.5t-4.5 -24.5t-1 -23.5q0 -46 26 -74t80 -28q50 0 84 18.5t88 75.5l35 -35q-28 -43 -49.5 -71t-56.5 -61t-78 -49.5
t-95 -16.5q-89 0 -142.5 49.5t-53.5 124.5q0 27 8.5 56.5t18.5 52.5t33.5 57.5t39.5 55.5t50.5 65.5t52.5 68.5h-177zM272 1278q-51 0 -89 37t-38 88t38 88t89 37q50 0 87.5 -37t37.5 -88t-37.5 -88t-87.5 -37z" />
    <glyph glyph-name="Idotaccent" unicode="&#x130;" horiz-adv-x="724" 
d="M100 0v68l174 47v1126l-174 53v66h547v-66l-174 -53v-1126l174 -49v-66h-547zM373 1546q-53 0 -90 37t-37 90t37 90t90 37t90 -37t37 -90t-37 -90t-90 -37z" />
    <glyph glyph-name="dotlessi" unicode="&#x131;" horiz-adv-x="571" 
d="M63 0v70l138 45v700l-121 43v72l291 59v-876l153 -43v-70h-461z" />
    <glyph glyph-name="IJ" unicode="&#x132;" horiz-adv-x="1413" 
d="M100 0v68l174 47v1126l-174 53v66h547v-66l-174 -53v-1126l174 -49v-66h-547zM1186 1241v-1137q0 -94 -10.5 -167t-40 -143t-79 -117.5t-130 -80.5t-189.5 -42l-12 69q60 12 104.5 34t73 55.5t46 68.5t25.5 88t10.5 98t2.5 113v1163l-190 43v74h563v-66z" />
    <glyph glyph-name="ij" unicode="&#x133;" horiz-adv-x="1105" 
d="M63 0v70l138 45v700l-121 43v72l291 59v-876l153 -43v-70h-461zM272 1278q-51 0 -89 37t-38 88t38 88t89 37q50 0 87.5 -37t37.5 -88t-37.5 -88t-87.5 -37zM575 -514l-10 59q102 33 147.5 155.5t45.5 352.5v750l-121 55v72l293 59v-936q0 -219 -66 -354
q-42 -88 -119.5 -144.5t-169.5 -68.5zM829 1278q-50 0 -87 37t-37 88t37 88t87 37q51 0 89 -37t38 -88t-38 -88t-89 -37z" />
    <glyph glyph-name="Jcircumflex" unicode="&#x134;" horiz-adv-x="708" 
d="M481 1241v-1137q0 -94 -10.5 -167t-40 -143t-78.5 -117.5t-129.5 -80.5t-189.5 -42l-13 69q60 12 104.5 34t73 55.5t46 68.5t26 88t11 98t2.5 113v1163l-191 43v74h563v-66zM145 1507h-92l228 265h198l228 -265h-97l-233 160z" />
    <glyph glyph-name="jcircumflex" unicode="&#x135;" horiz-adv-x="534" 
d="M4 -514l-10 59q102 33 147 155.5t45 352.5v750l-120 55v72l292 59v-936q0 -221 -65 -354q-42 -88 -119.5 -144.5t-169.5 -68.5zM104 1128h-96l207 420h117l207 -420h-101l-170 269z" />
    <glyph glyph-name="Kcommaaccent" unicode="&#x136;" horiz-adv-x="1394" 
d="M100 0v68l174 47v1126l-174 53v66h547v-66l-174 -53v-1126l174 -49v-66h-547zM1061 0l-572 735v8l58 27l459 471l-144 59v60h428v-66l-166 -53l-434 -450l531 -685l153 -40v-66h-313zM582 -547l-17 55q189 59 189 150q0 42 -37.5 66.5t-93.5 29.5v4q7 54 44.5 83.5
t94.5 29.5q67 0 104 -40.5t37 -104.5q0 -192 -321 -273z" />
    <glyph glyph-name="kcommaaccent" unicode="&#x137;" horiz-adv-x="1067" 
d="M188 115v1237l-135 53v55l309 68v-1417l136 -41v-70h-439v70zM936 -35q-97 -3 -211 144l-352 460v4l73 23l287 262l-125 41v64h414v-58l-137 -35l-332 -280l489 -580q-3 -5 -10.5 -12t-34.5 -19.5t-61 -13.5zM395 -547l-16 55q188 59 188 150q0 42 -37.5 66.5t-93.5 29.5
v4q7 54 44.5 83.5t94.5 29.5q67 0 104.5 -40.5t37.5 -104.5q0 -191 -322 -273z" />
    <glyph glyph-name="kgreenlandic" unicode="&#x138;" horiz-adv-x="1071" 
d="M197 113v690l-138 33v55l301 98h11v-878l135 -41v-70h-438v70zM940 -35q-97 -3 -211 135l-352 437v4l76 22l284 295l-125 41v64h414v-58l-137 -35l-330 -315l488 -547q-3 -5 -10.5 -11.5t-35 -18.5t-61.5 -13z" />
    <glyph glyph-name="Lacute" unicode="&#x139;" horiz-adv-x="1216" 
d="M473 96h451l166 312h75l-73 -408h-992v68l174 47v1124l-174 55v66h582v-66l-209 -53v-1145zM485 1792h191v-41l-246 -244h-106z" />
    <glyph glyph-name="lacute" unicode="&#x13a;" horiz-adv-x="571" 
d="M59 0v70l129 43v1239l-131 39v65l305 72v-1417l140 -41v-70h-443zM373 1927h190v-41l-246 -244h-106z" />
    <glyph glyph-name="Lcommaaccent" unicode="&#x13b;" horiz-adv-x="1216" 
d="M473 96h451l166 312h75l-73 -408h-992v68l174 47v1124l-174 55v66h582v-66l-209 -53v-1145zM481 -547l-16 55q188 59 188 150q0 42 -37.5 66.5t-93.5 29.5v4q7 54 45 83.5t95 29.5q67 0 104 -40.5t37 -104.5q0 -191 -322 -273z" />
    <glyph glyph-name="lcommaaccent" unicode="&#x13c;" horiz-adv-x="571" 
d="M59 0v70l129 43v1239l-131 39v65l305 72v-1417l140 -41v-70h-443zM94 -547l-16 55q188 59 188 150q0 42 -37.5 66.5t-93.5 29.5v4q7 54 44.5 83.5t94.5 29.5q67 0 104.5 -40.5t37.5 -104.5q0 -191 -322 -273z" />
    <glyph glyph-name="Lcaron" unicode="&#x13d;" horiz-adv-x="1216" 
d="M473 96h451l166 312h75l-73 -408h-992v68l174 47v1124l-174 55v66h582v-66l-209 -53v-1145zM893 971h-59l30 430h183v-17z" />
    <glyph glyph-name="lcaron" unicode="&#x13e;" horiz-adv-x="571" 
d="M59 0v70l129 43v1239l-131 39v65l305 72v-1417l140 -41v-70h-443zM571 1098h-59l31 430h182v-17z" />
    <glyph glyph-name="Ldot" unicode="&#x13f;" horiz-adv-x="1216" 
d="M473 96h451l166 312h75l-73 -408h-992v68l174 47v1124l-174 55v66h582v-66l-209 -53v-1145zM989 647q-54 0 -93.5 40t-39.5 95q0 54 39.5 93.5t93.5 39.5q55 0 95 -39.5t40 -93.5q0 -56 -40 -95.5t-95 -39.5z" />
    <glyph glyph-name="ldot" unicode="&#x140;" horiz-adv-x="702" 
d="M629 616q-54 0 -93.5 40.5t-39.5 95.5q0 54 39.5 93.5t93.5 39.5q55 0 95 -39.5t40 -93.5q0 -56 -40 -96t-95 -40zM59 0v70l129 43v1239l-131 39v65l305 72v-1417l140 -41v-70h-443z" />
    <glyph glyph-name="Lslash" unicode="&#x141;" horiz-adv-x="1216" 
d="M100 516v84l174 49v590l-174 55v66h582v-66l-209 -53v-536l451 129v-84l-451 -129v-525h451l166 312h75l-73 -408h-992v68l174 47v450z" />
    <glyph glyph-name="lslash" unicode="&#x142;" horiz-adv-x="571" 
d="M20 567v103l168 94v588l-131 39v65l305 72v-668l185 105v-103l-185 -104v-647l140 -41v-70h-443v70l129 43v549z" />
    <glyph glyph-name="Nacute" unicode="&#x143;" horiz-adv-x="1591" 
d="M1352 -23h-47l-897 1094v-928l219 -75v-68h-506v68l174 47v1106l-195 73v66h328l807 -987v839l-219 80v68h506v-68l-174 -51v-1001zM924 1792h190v-41l-246 -244h-106z" />
    <glyph glyph-name="nacute" unicode="&#x144;" horiz-adv-x="1167" 
d="M68 0v70l129 43v690l-138 33v55l252 98h11l45 -186h2q159 186 336 186q147 0 212.5 -76.5t65.5 -267.5v-534l133 -43v-68h-424v70l117 41v518q-6 114 -48 168.5t-140 54.5q-37 0 -76.5 -11.5t-69.5 -28.5t-54 -34t-37 -29t-13 -14v-624l135 -41v-70h-438zM653 1548h164
v-39l-203 -381h-84z" />
    <glyph glyph-name="Ncommaaccent" unicode="&#x145;" horiz-adv-x="1591" 
d="M1352 -23h-47l-897 1094v-928l219 -75v-68h-506v68l174 47v1106l-195 73v66h328l807 -987v839l-219 80v68h506v-68l-174 -51v-1001zM672 -547l-17 55q189 59 189 150q0 42 -37.5 66.5t-93.5 29.5v4q7 54 44.5 83.5t94.5 29.5q67 0 104 -40.5t37 -104.5q0 -192 -321 -273z
" />
    <glyph glyph-name="ncommaaccent" unicode="&#x146;" horiz-adv-x="1167" 
d="M68 0v70l129 43v690l-138 33v55l252 98h11l45 -186h2q159 186 336 186q147 0 212.5 -76.5t65.5 -267.5v-534l133 -43v-68h-424v70l117 41v518q-6 114 -48 168.5t-140 54.5q-37 0 -76.5 -11.5t-69.5 -28.5t-54 -34t-37 -29t-13 -14v-624l135 -41v-70h-438zM416 -547
l-17 55q189 59 189 150q0 42 -37.5 66.5t-93.5 29.5v4q7 54 44.5 83.5t94.5 29.5q67 0 104 -40.5t37 -104.5q0 -192 -321 -273z" />
    <glyph glyph-name="Ncaron" unicode="&#x147;" horiz-adv-x="1591" 
d="M1352 -23h-47l-897 1094v-928l219 -75v-68h-506v68l174 47v1106l-195 73v66h328l807 -987v839l-219 80v68h506v-68l-174 -51v-1001zM1085 1772h93l-228 -265h-198l-228 265h97l233 -160z" />
    <glyph glyph-name="ncaron" unicode="&#x148;" horiz-adv-x="1167" 
d="M68 0v70l129 43v690l-138 33v55l252 98h11l45 -186h2q159 186 336 186q147 0 212.5 -76.5t65.5 -267.5v-534l133 -43v-68h-424v70l117 41v518q-6 114 -48 168.5t-140 54.5q-37 0 -76.5 -11.5t-69.5 -28.5t-54 -34t-37 -29t-13 -14v-624l135 -41v-70h-438zM750 1548h96
l-207 -420h-117l-207 420h101l168 -268z" />
    <glyph glyph-name="napostrophe" unicode="&#x149;" horiz-adv-x="1167" 
d="M68 0v70l129 43v690l-138 33v55l252 98h11l45 -186h2q159 186 336 186q147 0 212.5 -76.5t65.5 -267.5v-534l133 -43v-68h-424v70l117 41v518q-6 114 -48 168.5t-140 54.5q-37 0 -76.5 -11.5t-69.5 -28.5t-54 -34t-37 -29t-13 -14v-624l135 -41v-70h-438zM-41 1106
l-16 55q188 59 188 150q0 42 -37.5 66.5t-93.5 29.5v4q7 54 44.5 83.5t94.5 29.5q67 0 104.5 -41t37.5 -105q0 -190 -322 -272z" />
    <glyph glyph-name="Eng" unicode="&#x14a;" horiz-adv-x="1591" 
d="M1348 1241v-1218q0 -94 -10.5 -167t-40 -143t-79 -118t-130 -81t-189.5 -42l-12 69q81 15 139 46.5t90.5 69t51 92.5t23.5 103.5t5 114.5v142l-788 962v-928l219 -75v-68h-506v68l174 47v1106l-195 73v66h328l807 -987v839l-219 80v68h506v-68z" />
    <glyph glyph-name="eng" unicode="&#x14b;" horiz-adv-x="1167" 
d="M811 53v576q-6 113 -49 168t-141 55q-37 0 -76.5 -11.5t-69.5 -28.5t-54 -34t-37 -29t-13 -14v-624l135 -41v-70h-438v70l129 43v690l-138 33v55l252 98h11l45 -186h2q159 186 336 186q147 0 212.5 -76.5t65.5 -267.5v-592q0 -221 -65 -354q-42 -88 -119.5 -144.5
t-169.5 -68.5l-11 59q102 33 147.5 155.5t45.5 352.5z" />
    <glyph glyph-name="Omacron" unicode="&#x14c;" horiz-adv-x="1609" 
d="M827 35q92 0 170 36.5t130.5 97t89.5 139.5t54 163t17 168q0 175 -64 328t-180.5 247.5t-257.5 94.5q-95 0 -174.5 -35.5t-132 -94t-89 -136t-52.5 -159t-16 -165.5q0 -95 19 -190t60.5 -184.5t99.5 -158t142.5 -110t183.5 -41.5zM803 1395q141 0 258 -40t197 -108
t135 -159t80.5 -191t25.5 -207q0 -170 -52.5 -310t-145.5 -234t-220.5 -145.5t-275.5 -51.5t-276.5 51t-220.5 141.5t-144.5 222t-52.5 287.5q0 170 52.5 310.5t145 235t219.5 146.5t275 52zM508 1602v122h594v-122h-594z" />
    <glyph glyph-name="omacron" unicode="&#x14d;" horiz-adv-x="1097" 
d="M260 535q0 -88 18.5 -170.5t55 -152.5t98.5 -112.5t141 -42.5q120 0 192.5 107t72.5 268q0 222 -85.5 347.5t-226.5 125.5q-123 0 -194.5 -104.5t-71.5 -265.5zM549 -33q-112 0 -204 40t-150 109t-89.5 158t-31.5 189q0 144 63 266t172 193t240 71q220 0 347.5 -130.5
t127.5 -360.5q0 -147 -62 -269.5t-171 -194t-242 -71.5zM252 1284v123h594v-123h-594z" />
    <glyph glyph-name="Obreve" unicode="&#x14e;" horiz-adv-x="1609" 
d="M827 35q92 0 170 36.5t130.5 97t89.5 139.5t54 163t17 168q0 175 -64 328t-180.5 247.5t-257.5 94.5q-95 0 -174.5 -35.5t-132 -94t-89 -136t-52.5 -159t-16 -165.5q0 -95 19 -190t60.5 -184.5t99.5 -158t142.5 -110t183.5 -41.5zM803 1395q141 0 258 -40t197 -108
t135 -159t80.5 -191t25.5 -207q0 -170 -52.5 -310t-145.5 -234t-220.5 -145.5t-275.5 -51.5t-276.5 51t-220.5 141.5t-144.5 222t-52.5 287.5q0 170 52.5 310.5t145 235t219.5 146.5t275 52zM793 1499q-76 0 -133 23.5t-88 63.5t-45 87t-11 99h59q15 -67 73 -104.5
t155 -37.5q98 0 154.5 37.5t72.5 104.5h60q8 -109 -69.5 -191t-227.5 -82z" />
    <glyph glyph-name="obreve" unicode="&#x14f;" horiz-adv-x="1097" 
d="M260 535q0 -88 18.5 -170.5t55 -152.5t98.5 -112.5t141 -42.5q120 0 192.5 107t72.5 268q0 222 -85.5 347.5t-226.5 125.5q-123 0 -194.5 -104.5t-71.5 -265.5zM549 -33q-112 0 -204 40t-150 109t-89.5 158t-31.5 189q0 144 63 266t172 193t240 71q220 0 347.5 -130.5
t127.5 -360.5q0 -147 -62 -269.5t-171 -194t-242 -71.5zM541 1161q-124 0 -186 87.5t-68 244.5h73q13 -88 63.5 -147.5t135.5 -59.5q73 0 121 60t61 147h72q-6 -161 -68.5 -246.5t-203.5 -85.5z" />
    <glyph glyph-name="Ohungarumlaut" unicode="&#x150;" horiz-adv-x="1609" 
d="M827 35q92 0 170 36.5t130.5 97t89.5 139.5t54 163t17 168q0 175 -64 328t-180.5 247.5t-257.5 94.5q-95 0 -174.5 -35.5t-132 -94t-89 -136t-52.5 -159t-16 -165.5q0 -95 19 -190t60.5 -184.5t99.5 -158t142.5 -110t183.5 -41.5zM803 1395q141 0 258 -40t197 -108
t135 -159t80.5 -191t25.5 -207q0 -170 -52.5 -310t-145.5 -234t-220.5 -145.5t-275.5 -51.5t-276.5 51t-220.5 141.5t-144.5 222t-52.5 287.5q0 170 52.5 310.5t145 235t219.5 146.5t275 52zM733 1792h164v-39l-213 -246h-106zM1022 1792h164v-39l-213 -246h-107z" />
    <glyph glyph-name="ohungarumlaut" unicode="&#x151;" horiz-adv-x="1097" 
d="M260 535q0 -88 18.5 -170.5t55 -152.5t98.5 -112.5t141 -42.5q120 0 192.5 107t72.5 268q0 222 -85.5 347.5t-226.5 125.5q-123 0 -194.5 -104.5t-71.5 -265.5zM549 -33q-112 0 -204 40t-150 109t-89.5 158t-31.5 189q0 144 63 266t172 193t240 71q220 0 347.5 -130.5
t127.5 -360.5q0 -147 -62 -269.5t-171 -194t-242 -71.5zM457 1548h159v-39l-182 -381h-84zM748 1548h159v-39l-182 -381h-84z" />
    <glyph glyph-name="OE" unicode="&#x152;" horiz-adv-x="2091" 
d="M1925 0h-629q-93 0 -219 -5t-233 -5q-171 0 -310 51t-231 140.5t-142 211.5t-50 264q0 210 95.5 373t267 252.5t392.5 89.5q59 0 218.5 -6t369.5 -6h285l178 8v-362h-74l-110 262h-463v-516h266l59 168h66v-418h-72l-53 155h-266v-561h479l166 271h76zM1079 324v938
q-118 16 -243 16q-231 0 -369.5 -152.5t-138.5 -414.5q0 -92 18 -180.5t58 -170.5t97 -144t141 -99t185 -37q148 0 200 51t52 193z" />
    <glyph glyph-name="oe" unicode="&#x153;" horiz-adv-x="1798" 
d="M1294 -33q-266 0 -370 236q-57 -110 -154 -173t-221 -63q-112 0 -204 40t-150 109t-89.5 158t-31.5 189q0 144 63 266t172 193t240 71q294 0 397 -237q59 110 156 171.5t227 61.5q171 0 266 -112.5t95 -321.5h-678v-20q0 -189 98.5 -300.5t259.5 -111.5q49 0 96 16t80 38
t58.5 44.5t37.5 38.5l13 16l41 -24q-2 -6 -6 -16t-20.5 -40t-36 -57t-53.5 -59.5t-73 -56.5t-95 -40t-118 -16zM573 57q120 0 191.5 107t71.5 268q0 208 -86.5 340.5t-223.5 132.5q-123 0 -193.5 -104t-70.5 -266q0 -79 18.5 -160t54 -153.5t98 -118.5t140.5 -46zM1284 899
q-95 0 -166.5 -74t-95.5 -190h463q-2 112 -53.5 188t-147.5 76z" />
    <glyph glyph-name="Racute" unicode="&#x154;" horiz-adv-x="1363" 
d="M100 0v68l174 47v1126l-174 53v66l471 6q286 3 433 -86.5t147 -249.5q0 -129 -82.5 -217t-226.5 -135l399 -563l178 -47v-68h-332l-358 506l-80 119l-176 -11v-499l174 -49v-66h-547zM473 1294v-592h170q128 14 211.5 92t83.5 195q0 151 -122.5 231t-342.5 74zM739 1792
h191v-41l-246 -244h-106z" />
    <glyph glyph-name="racute" unicode="&#x155;" horiz-adv-x="770" 
d="M68 0v70l129 45v688l-138 26v62l279 98h10l12 -256h5l65 88q73 99 119.5 135.5t97.5 36.5q49 0 75 -27.5t26 -74.5q0 -60 -66 -141l-158 53q-92 -76 -155 -156v-541l180 -34v-72h-481zM492 1548h163v-39l-202 -381h-84z" />
    <glyph glyph-name="Rcommaaccent" unicode="&#x156;" horiz-adv-x="1363" 
d="M100 0v68l174 47v1126l-174 53v66l471 6q286 3 433 -86.5t147 -249.5q0 -129 -82.5 -217t-226.5 -135l399 -563l178 -47v-68h-332l-358 506l-80 119l-176 -11v-499l174 -49v-66h-547zM473 1294v-592h170q128 14 211.5 92t83.5 195q0 151 -122.5 231t-342.5 74zM596 -547
l-16 55q188 59 188 150q0 42 -37.5 66.5t-93.5 29.5v4q7 54 44.5 83.5t94.5 29.5q67 0 104.5 -40.5t37.5 -104.5q0 -191 -322 -273z" />
    <glyph glyph-name="rcommaaccent" unicode="&#x157;" horiz-adv-x="770" 
d="M68 0v70l129 45v688l-138 26v62l279 98h10l12 -256h5l65 88q73 99 119.5 135.5t97.5 36.5q49 0 75 -27.5t26 -74.5q0 -60 -66 -141l-158 53q-92 -76 -155 -156v-541l180 -34v-72h-481zM92 -547l-16 55q188 59 188 150q0 42 -37.5 66.5t-93.5 29.5v4q7 54 44.5 83.5
t94.5 29.5q67 0 104.5 -40.5t37.5 -104.5q0 -191 -322 -273z" />
    <glyph glyph-name="Rcaron" unicode="&#x158;" horiz-adv-x="1363" 
d="M100 0v68l174 47v1126l-174 53v66l471 6q286 3 433 -86.5t147 -249.5q0 -129 -82.5 -217t-226.5 -135l399 -563l178 -47v-68h-332l-358 506l-80 119l-176 -11v-499l174 -49v-66h-547zM473 1294v-592h170q128 14 211.5 92t83.5 195q0 151 -122.5 231t-342.5 74zM874 1772
h93l-228 -265h-198l-228 265h97l233 -160z" />
    <glyph glyph-name="rcaron" unicode="&#x159;" horiz-adv-x="770" 
d="M68 0v70l129 45v688l-138 26v62l279 98h10l12 -256h5l65 88q73 99 119.5 135.5t97.5 36.5q49 0 75 -27.5t26 -74.5q0 -60 -66 -141l-158 53q-92 -76 -155 -156v-541l180 -34v-72h-481zM594 1548h96l-207 -420h-116l-207 420h100l168 -268z" />
    <glyph glyph-name="Sacute" unicode="&#x15a;" horiz-adv-x="1058" 
d="M104 68l-26 362h78l112 -295q101 -82 238 -82q120 0 197 69.5t77 184.5q0 179 -196 260l-209 88q-140 61 -209.5 144.5t-69.5 208.5q0 167 136.5 280t345.5 113q89 0 176 -25.5t141 -58.5l12 -338h-69l-107 278q-87 58 -180 58q-116 0 -189 -68.5t-73 -161.5
q0 -86 43.5 -140t130.5 -93l244 -111q146 -65 209 -151.5t63 -204.5q0 -92 -44.5 -173.5t-115 -135t-157.5 -84.5t-173 -31q-99 0 -206 30t-179 77zM606 1792h191v-41l-246 -244h-107z" />
    <glyph glyph-name="sacute" unicode="&#x15b;" horiz-adv-x="856" 
d="M393 -39q-133 0 -266 80l-33 287h68l104 -226q20 -18 37 -29t52 -21.5t79 -10.5q78 0 127 43t49 113q0 60 -43 108t-155 98l-82 37q-109 49 -160 111t-51 158q0 117 105.5 200.5t246.5 83.5q121 0 242 -65l10 -244h-61l-84 178q-64 51 -138 51q-71 0 -113 -40t-42 -101
q0 -62 37 -104.5t129 -83.5l88 -39q131 -58 186 -125.5t55 -155.5q0 -125 -117.5 -214t-269.5 -89zM504 1548h164v-39l-203 -381h-84z" />
    <glyph glyph-name="Scircumflex" unicode="&#x15c;" horiz-adv-x="1058" 
d="M104 68l-26 362h78l112 -295q101 -82 238 -82q120 0 197 69.5t77 184.5q0 179 -196 260l-209 88q-140 61 -209.5 144.5t-69.5 208.5q0 167 136.5 280t345.5 113q89 0 176 -25.5t141 -58.5l12 -338h-69l-107 278q-87 58 -180 58q-116 0 -189 -68.5t-73 -161.5
q0 -86 43.5 -140t130.5 -93l244 -111q146 -65 209 -151.5t63 -204.5q0 -92 -44.5 -173.5t-115 -135t-157.5 -84.5t-173 -31q-99 0 -206 30t-179 77zM344 1507h-92l227 265h199l227 -265h-96l-234 160z" />
    <glyph glyph-name="scircumflex" unicode="&#x15d;" horiz-adv-x="856" 
d="M393 -39q-133 0 -266 80l-33 287h68l104 -226q20 -18 37 -29t52 -21.5t79 -10.5q78 0 127 43t49 113q0 60 -43 108t-155 98l-82 37q-109 49 -160 111t-51 158q0 117 105.5 200.5t246.5 83.5q121 0 242 -65l10 -244h-61l-84 178q-64 51 -138 51q-71 0 -113 -40t-42 -101
q0 -62 37 -104.5t129 -83.5l88 -39q131 -58 186 -125.5t55 -155.5q0 -125 -117.5 -214t-269.5 -89zM270 1128h-96l207 420h117l207 -420h-101l-170 269z" />
    <glyph glyph-name="Scedilla" unicode="&#x15e;" horiz-adv-x="1058" 
d="M315 -526l-10 59q34 10 51.5 16.5t47.5 20.5t46 28t29 36.5t13 48.5q0 78 -109 118l98 160q-99 2 -203 31t-174 76l-26 362h78l112 -295q101 -82 238 -82q120 0 197 69.5t77 184.5q0 179 -196 260l-209 88q-140 61 -209.5 144.5t-69.5 208.5q0 167 136.5 280t345.5 113
q89 0 176 -25.5t141 -58.5l12 -338h-69l-107 278q-87 58 -180 58q-116 0 -189 -68.5t-73 -161.5q0 -86 43.5 -140t130.5 -93l244 -111q146 -65 209 -151.5t63 -204.5q0 -110 -61 -201.5t-153.5 -145.5t-199.5 -71l-57 -96q65 -6 105 -44t40 -99q0 -48 -24 -88.5t-59 -67
t-83.5 -47.5t-88.5 -32t-83 -19z" />
    <glyph glyph-name="scedilla" unicode="&#x15f;" horiz-adv-x="856" 
d="M231 -516l-10 59q34 10 51.5 16.5t47.5 20.5t46 28t29 36.5t13 48.5q0 79 -109 119l92 149q-131 0 -264 80l-33 287h68l104 -226q20 -18 37 -29t52 -21.5t79 -10.5q78 0 127 43t49 113q0 60 -43 108t-155 98l-82 37q-109 49 -160 111t-51 158q0 117 105.5 200.5
t246.5 83.5q121 0 242 -65l10 -244h-61l-84 178q-64 51 -138 51q-71 0 -113 -40t-42 -101q0 -62 37 -104.5t129 -83.5l88 -39q131 -58 186 -125.5t55 -155.5q0 -107 -88 -189t-217 -106l-51 -88q65 -6 105 -44t40 -99q0 -48 -24 -88.5t-59 -67t-83.5 -47.5t-88.5 -32
t-83 -19z" />
    <glyph glyph-name="Scaron" unicode="&#x160;" horiz-adv-x="1058" 
d="M104 68l-26 362h78l112 -295q101 -82 238 -82q120 0 197 69.5t77 184.5q0 179 -196 260l-209 88q-140 61 -209.5 144.5t-69.5 208.5q0 167 136.5 280t345.5 113q89 0 176 -25.5t141 -58.5l12 -338h-69l-107 278q-87 58 -180 58q-116 0 -189 -68.5t-73 -161.5
q0 -86 43.5 -140t130.5 -93l244 -111q146 -65 209 -151.5t63 -204.5q0 -92 -44.5 -173.5t-115 -135t-157.5 -84.5t-173 -31q-99 0 -206 30t-179 77zM807 1772h92l-227 -265h-199l-227 265h96l233 -160z" />
    <glyph glyph-name="scaron" unicode="&#x161;" horiz-adv-x="856" 
d="M393 -39q-133 0 -266 80l-33 287h68l104 -226q20 -18 37 -29t52 -21.5t79 -10.5q78 0 127 43t49 113q0 60 -43 108t-155 98l-82 37q-109 49 -160 111t-51 158q0 117 105.5 200.5t246.5 83.5q121 0 242 -65l10 -244h-61l-84 178q-64 51 -138 51q-71 0 -113 -40t-42 -101
q0 -62 37 -104.5t129 -83.5l88 -39q131 -58 186 -125.5t55 -155.5q0 -125 -117.5 -214t-269.5 -89zM606 1548h96l-206 -420h-117l-207 420h100l168 -268z" />
    <glyph glyph-name="Tcommaaccent" unicode="&#x162;" horiz-adv-x="1325" 
d="M219 1360h887l137 16l21 -370h-74l-111 262h-317v-1153l192 -47v-68h-585v68l194 47v1153h-317l-111 -262h-74l19 370zM477 -547l-16 55q188 59 188 150q0 42 -37.5 66.5t-93.5 29.5v4q7 54 44.5 83.5t94.5 29.5q67 0 104.5 -40.5t37.5 -104.5q0 -191 -322 -273z" />
    <glyph glyph-name="tcommaaccent" unicode="&#x163;" horiz-adv-x="679" 
d="M381 -23q-211 0 -207 224l6 659h-143v86l149 37l90 244h70v-264h275v-109h-271v-571q0 -59 9.5 -96.5t30.5 -54t42 -21.5t55 -5q29 0 67.5 4t62.5 8l24 3l12 -51q-5 -4 -13.5 -10t-37 -22t-58.5 -28.5t-74.5 -22.5t-88.5 -10zM193 -547l-17 55q189 59 189 150
q0 42 -38 66.5t-94 29.5v4q7 54 45 83.5t95 29.5q67 0 104 -40.5t37 -104.5q0 -192 -321 -273z" />
    <glyph glyph-name="Tcaron" unicode="&#x164;" horiz-adv-x="1325" 
d="M219 1360h887l137 16l21 -370h-74l-111 262h-317v-1153l192 -47v-68h-585v68l194 47v1153h-317l-111 -262h-74l19 370zM891 1772h92l-227 -265h-199l-227 265h96l233 -160z" />
    <glyph glyph-name="tcaron" unicode="&#x165;" horiz-adv-x="679" 
d="M381 -23q-211 0 -207 224l6 659h-143v86l149 37l90 244h70v-264h275v-109h-271v-571q0 -59 9.5 -96.5t30.5 -54t42 -21.5t55 -5q29 0 67.5 4t62.5 8l24 3l12 -51q-5 -4 -13.5 -10t-37 -22t-58.5 -28.5t-74.5 -22.5t-88.5 -10zM586 1104h-60l31 430h182v-16z" />
    <glyph glyph-name="Tbar" unicode="&#x166;" horiz-adv-x="1325" 
d="M215 713v90h348v465h-317l-111 -262h-74l19 370l139 -16h887l137 16l21 -370h-74l-111 262h-317v-465h344v-90h-344v-598l194 -47v-68h-587v68l194 47v598h-348z" />
    <glyph glyph-name="tbar" unicode="&#x167;" horiz-adv-x="679" 
d="M37 553v102h141l2 205h-143v86l149 37l90 244h70v-264h275v-109h-271v-199h271v-102h-271v-270q0 -59 9.5 -96.5t30.5 -54t42 -21.5t55 -5q29 0 67.5 4t62.5 8l24 3l12 -51q-5 -4 -13.5 -10t-37 -22t-58.5 -28.5t-74.5 -22.5t-88.5 -10q-211 0 -207 224l2 352h-139z" />
    <glyph glyph-name="Utilde" unicode="&#x168;" horiz-adv-x="1513" 
d="M772 -49q-129 0 -226 28t-159 76t-100 121.5t-53 156t-15 187.5v721l-174 53v66h553v-66l-174 -53v-670q0 -88 10 -160t36 -137t67 -109.5t105.5 -70.5t148.5 -26q209 0 305.5 119t93.5 374l-6 662l-238 71v66h539v-66l-174 -53v-721q-1 -112 -32 -206.5t-82.5 -160.5
t-120 -112t-145.5 -68t-159 -22zM825 1544l-86 37q-27 12 -39 16.5t-33.5 13t-30 10t-24.5 4.5t-23.5 0t-19.5 -6.5t-19 -12t-16.5 -20t-17 -27.5t-16.5 -37l-62 26l11 27q39 98 84 144t98 47.5t121 -25.5l106 -43q35 -14 57.5 -20t46 -5t40.5 14t34 39t35 68l62 -27
l-11 -26q-60 -157 -128.5 -200t-168.5 3z" />
    <glyph glyph-name="utilde" unicode="&#x169;" horiz-adv-x="1132" 
d="M844 -31l-60 166q-12 -13 -23.5 -25.5t-47.5 -41.5t-72 -49t-90.5 -37t-108.5 -17q-135 0 -203.5 94.5t-68.5 270.5v504l-141 40v76l315 31v-633q4 -126 57.5 -185t157.5 -59q35 0 70 10t60.5 24.5t46 28.5t30.5 24l10 10v633l-166 36v76l340 31v-858l166 -41v-68z
M586 1239l-80 47q-68 41 -107.5 48t-68.5 -19t-58 -96l-61 26l10 27q114 283 316 170l98 -56q75 -44 120 -22t89 127l61 -27l-10 -26q-61 -159 -136.5 -207.5t-172.5 8.5z" />
    <glyph glyph-name="Umacron" unicode="&#x16a;" horiz-adv-x="1513" 
d="M772 -49q-129 0 -226 28t-159 76t-100 121.5t-53 156t-15 187.5v721l-174 53v66h553v-66l-174 -53v-670q0 -88 10 -160t36 -137t67 -109.5t105.5 -70.5t148.5 -26q209 0 305.5 119t93.5 374l-6 662l-238 71v66h539v-66l-174 -53v-721q-1 -112 -32 -206.5t-82.5 -160.5
t-120 -112t-145.5 -68t-159 -22zM487 1602v122h594v-122h-594z" />
    <glyph glyph-name="umacron" unicode="&#x16b;" horiz-adv-x="1132" 
d="M844 -31l-60 166q-12 -13 -23.5 -25.5t-47.5 -41.5t-72 -49t-90.5 -37t-108.5 -17q-135 0 -203.5 94.5t-68.5 270.5v504l-141 40v76l315 31v-633q4 -126 57.5 -185t157.5 -59q35 0 70 10t60.5 24.5t46 28.5t30.5 24l10 10v633l-166 36v76l340 31v-858l166 -41v-68z
M262 1284v123h594v-123h-594z" />
    <glyph glyph-name="Ubreve" unicode="&#x16c;" horiz-adv-x="1513" 
d="M772 -49q-129 0 -226 28t-159 76t-100 121.5t-53 156t-15 187.5v721l-174 53v66h553v-66l-174 -53v-670q0 -88 10 -160t36 -137t67 -109.5t105.5 -70.5t148.5 -26q209 0 305.5 119t93.5 374l-6 662l-238 71v66h539v-66l-174 -53v-721q-1 -112 -32 -206.5t-82.5 -160.5
t-120 -112t-145.5 -68t-159 -22zM772 1499q-76 0 -133 23.5t-88 63.5t-44.5 87t-10.5 99h59q16 -67 73 -104.5t154 -37.5q98 0 155 37.5t73 104.5h59q8 -109 -69.5 -191t-227.5 -82z" />
    <glyph glyph-name="ubreve" unicode="&#x16d;" horiz-adv-x="1132" 
d="M844 -31l-60 166q-12 -13 -23.5 -25.5t-47.5 -41.5t-72 -49t-90.5 -37t-108.5 -17q-135 0 -203.5 94.5t-68.5 270.5v504l-141 40v76l315 31v-633q4 -126 57.5 -185t157.5 -59q35 0 70 10t60.5 24.5t46 28.5t30.5 24l10 10v633l-166 36v76l340 31v-858l166 -41v-68z
M551 1161q-124 0 -186 87.5t-68 244.5h74q13 -88 63 -147.5t135 -59.5q74 0 122 60.5t61 146.5h71q-6 -161 -68.5 -246.5t-203.5 -85.5z" />
    <glyph glyph-name="Uring" unicode="&#x16e;" horiz-adv-x="1513" 
d="M772 -49q-129 0 -226 28t-159 76t-100 121.5t-53 156t-15 187.5v721l-174 53v66h553v-66l-174 -53v-670q0 -88 10 -160t36 -137t67 -109.5t105.5 -70.5t148.5 -26q209 0 305.5 119t93.5 374l-6 662l-238 71v66h539v-66l-174 -53v-721q-1 -112 -32 -206.5t-82.5 -160.5
t-120 -112t-145.5 -68t-159 -22zM545 1673q0 99 69.5 166.5t169.5 67.5q102 0 171 -66.5t69 -167.5q0 -99 -70 -166t-170 -67q-102 0 -170.5 66t-68.5 167zM639 1673q0 -65 42 -107t103 -42t103.5 42t42.5 107t-42.5 107.5t-103.5 42.5t-103 -42.5t-42 -107.5z" />
    <glyph glyph-name="uring" unicode="&#x16f;" horiz-adv-x="1132" 
d="M844 -31l-60 166q-12 -13 -23.5 -25.5t-47.5 -41.5t-72 -49t-90.5 -37t-108.5 -17q-135 0 -203.5 94.5t-68.5 270.5v504l-141 40v76l315 31v-633q4 -126 57.5 -185t157.5 -59q35 0 70 10t60.5 24.5t46 28.5t30.5 24l10 10v633l-166 36v76l340 31v-858l166 -41v-68z
M319 1380q0 99 70 166.5t170 67.5q102 0 171 -66.5t69 -167.5q0 -99 -70 -166t-170 -67q-102 0 -171 66t-69 167zM414 1380q0 -65 42 -107t103 -42t103.5 42t42.5 107t-42.5 107.5t-103.5 42.5t-103 -42.5t-42 -107.5z" />
    <glyph glyph-name="Uhungarumlaut" unicode="&#x170;" horiz-adv-x="1513" 
d="M772 -49q-129 0 -226 28t-159 76t-100 121.5t-53 156t-15 187.5v721l-174 53v66h553v-66l-174 -53v-670q0 -88 10 -160t36 -137t67 -109.5t105.5 -70.5t148.5 -26q209 0 305.5 119t93.5 374l-6 662l-238 71v66h539v-66l-174 -53v-721q-1 -112 -32 -206.5t-82.5 -160.5
t-120 -112t-145.5 -68t-159 -22zM713 1792h164v-39l-213 -246h-107zM1001 1792h164v-39l-213 -246h-106z" />
    <glyph glyph-name="uhungarumlaut" unicode="&#x171;" horiz-adv-x="1132" 
d="M844 -31l-60 166q-12 -13 -23.5 -25.5t-47.5 -41.5t-72 -49t-90.5 -37t-108.5 -17q-135 0 -203.5 94.5t-68.5 270.5v504l-141 40v76l315 31v-633q4 -126 57.5 -185t157.5 -59q35 0 70 10t60.5 24.5t46 28.5t30.5 24l10 10v633l-166 36v76l340 31v-858l166 -41v-68z
M467 1548h160v-39l-183 -381h-84zM758 1548h160v-39l-183 -381h-84z" />
    <glyph glyph-name="Uogonek" unicode="&#x172;" horiz-adv-x="1513" 
d="M1311 520q-1 -122 -37 -222.5t-97.5 -168.5t-138 -110t-164.5 -58q-98 -101 -133.5 -151.5t-35.5 -98.5q0 -102 106 -102q51 0 89 19.5t91 74.5l35 -35q-26 -41 -50.5 -71t-60 -61.5t-80 -48.5t-96.5 -17q-89 0 -142.5 49.5t-53.5 124.5q0 56 27.5 106.5t70 92
t125.5 108.5q-128 1 -224 29t-157 76t-98.5 121.5t-52.5 155.5t-15 187v721l-174 53v66h553v-66l-174 -53v-670q0 -88 10 -160t36 -137t67 -109.5t105.5 -70.5t148.5 -26q209 0 305.5 119t93.5 374l-6 662l-238 71v66h539v-66l-174 -53v-721z" />
    <glyph glyph-name="uogonek" unicode="&#x173;" horiz-adv-x="1132" 
d="M1116 10l-164 -24q-117 -121 -156.5 -173t-39.5 -102q0 -102 106 -102q51 0 89 19.5t91 74.5l35 -35q-26 -41 -50 -70.5t-59.5 -61.5t-80 -49t-96.5 -17q-89 0 -143 49.5t-54 124.5q0 84 54.5 149.5t195.5 177.5l-60 164q-12 -13 -23.5 -25.5t-47.5 -41.5t-72 -49
t-90.5 -37t-108.5 -17q-135 0 -203.5 94.5t-68.5 270.5v504l-141 40v76l315 31v-633q4 -126 57.5 -185t157.5 -59q35 0 70 10t60.5 24.5t46 28.5t30.5 24l10 10v633l-166 36v76l340 31v-858l166 -41v-68z" />
    <glyph glyph-name="Wcircumflex" unicode="&#x174;" horiz-adv-x="1982" 
d="M1321 -14l-328 960l-336 -960h-149l-381 1255l-129 53v66h522v-66l-176 -53l287 -1046l309 909l-45 137l-176 53v66h553v-70l-172 -49l334 -1032l286 1014l-213 67v70h478v-66l-136 -61l-376 -1247h-152zM782 1507h-92l228 265h198l227 -265h-96l-233 160z" />
    <glyph glyph-name="wcircumflex" unicode="&#x175;" horiz-adv-x="1513" 
d="M842 979l241 -731l21 -68h4q8 33 18 68l179 600l-152 51v64h354v-64l-94 -39l-278 -893h-123l-232 664l-22 74h-2q-13 -41 -23 -74l-225 -664h-131l-277 893l-94 39v64h436v-64l-149 -39l170 -612l18 -68h4q9 33 21 68l237 731h99zM623 1128h-97l207 420h117l207 -420
h-101l-170 269z" />
    <glyph glyph-name="Ycircumflex" unicode="&#x176;" horiz-adv-x="1290" 
d="M1141 1233l-396 -660v-458l193 -47v-68h-586v68l195 47v422l-402 704l-131 53v66h514v-66l-153 -53l317 -586h8l324 568l-193 67v70h445v-66zM453 1507h-93l228 265h198l228 -265h-96l-234 160z" />
    <glyph glyph-name="ycircumflex" unicode="&#x177;" horiz-adv-x="1019" 
d="M819 850l-141 51v62h344v-64l-94 -41l-455 -1134q-51 -131 -97 -186.5t-120 -55.5q-52 0 -89.5 32.5t-37.5 82.5q0 48 29 75t73 27q61 0 101 -74h4l121 283l-363 952l-96 39v64h444v-64l-149 -39l254 -717h6zM397 1128h-96l207 420h117l206 -420h-100l-170 269z" />
    <glyph glyph-name="Ydieresis" unicode="&#x178;" horiz-adv-x="1290" 
d="M1141 1233l-396 -660v-458l193 -47v-68h-586v68l195 47v422l-402 704l-131 53v66h514v-66l-153 -53l317 -586h8l324 568l-193 67v70h445v-66zM459 1559q-47 0 -81 33.5t-34 80.5t34 82t81 35t81.5 -35t34.5 -82t-34.5 -80.5t-81.5 -33.5zM911 1559q-47 0 -81.5 33.5
t-34.5 80.5t34.5 82t81.5 35t82 -35t35 -82t-34.5 -80.5t-82.5 -33.5z" />
    <glyph glyph-name="Zacute" unicode="&#x179;" horiz-adv-x="1269" 
d="M63 0v51l855 1215h-596l-132 -285h-73l43 391l153 -12h899v-6l-880 -1258h637l168 312h75l-75 -418l-160 10h-914zM731 1792h191v-41l-246 -244h-107z" />
    <glyph glyph-name="zacute" unicode="&#x17a;" horiz-adv-x="929" 
d="M674 0h-617v70l559 804h-362l-90 -215h-64v316l152 -12h614v-31l-585 -844h393l117 242h65l-29 -338zM528 1548h164v-39l-203 -381h-83z" />
    <glyph glyph-name="Zdotaccent" unicode="&#x17b;" horiz-adv-x="1269" 
d="M63 0v51l855 1215h-596l-132 -285h-73l43 391l153 -12h899v-6l-880 -1258h637l168 312h75l-75 -418l-160 10h-914zM637 1546q-53 0 -90 37t-37 90t37 90t90 37t90 -37t37 -90t-37 -90t-90 -37z" />
    <glyph glyph-name="zdotaccent" unicode="&#x17c;" horiz-adv-x="929" 
d="M674 0h-617v70l559 804h-362l-90 -215h-64v316l152 -12h614v-31l-585 -844h393l117 242h65l-29 -338zM461 1206q-53 0 -90 37t-37 90t37 90t90 37t90 -37t37 -90t-37 -90t-90 -37z" />
    <glyph glyph-name="Zcaron" unicode="&#x17d;" horiz-adv-x="1269" 
d="M63 0v51l855 1215h-596l-132 -285h-73l43 391l153 -12h899v-6l-880 -1258h637l168 312h75l-75 -418l-160 10h-914zM866 1772h92l-227 -265h-199l-227 265h96l234 -160z" />
    <glyph glyph-name="zcaron" unicode="&#x17e;" horiz-adv-x="929" 
d="M674 0h-617v70l559 804h-362l-90 -215h-64v316l152 -12h614v-31l-585 -844h393l117 242h65l-29 -338zM631 1548h96l-207 -420h-117l-206 420h100l168 -268z" />
    <glyph glyph-name="florin" unicode="&#x192;" horiz-adv-x="933" 
d="M76 559l12 90h186q44 164 126 298t190 212t219 78q68 0 102.5 -33t34.5 -78q0 -52 -63 -131q-42 45 -64 66.5t-58.5 43t-70.5 21.5q-28 0 -51 -15t-54 -60t-65.5 -146.5t-70.5 -255.5h266l-21 -90h-266l-12 -63l-97 -465q-29 -140 -78 -247.5t-98.5 -165t-106.5 -93.5
t-96 -46.5t-73 -10.5q-46 0 -90.5 31.5t-44.5 84.5q0 28 15.5 58.5t35.5 44.5q40 -37 61.5 -55.5t59 -41t63.5 -22.5q53 0 85.5 73t64.5 234l135 684h-176z" />
    <glyph glyph-name="Aringacute" unicode="&#x1fa;" horiz-adv-x="1380" 
d="M451 1675q0 99 69.5 166.5t169.5 67.5q102 0 171 -66.5t69 -167.5q0 -99 -70 -166t-170 -67q-102 0 -170.5 66t-68.5 167zM545 1675q0 -65 42 -107t103 -42t103.5 42t42.5 107t-42.5 107.5t-103.5 42.5t-103 -42.5t-42 -107.5zM799 2249h190v-41l-246 -244h-106zM6 0v66
l119 47l498 1257l69 10l72 21l471 -1288l139 -45v-68h-526v68l174 47l-125 358h-500l-118 -334l196 -71v-68h-469zM649 1176l-207 -580h412l-203 580h-2z" />
    <glyph glyph-name="aringacute" unicode="&#x1fb;" horiz-adv-x="1028" 
d="M346 -31q-42 0 -84.5 15t-79 43t-59.5 75.5t-23 106.5q0 117 80.5 183t249.5 110l211 55v107q-3 115 -56.5 177t-138.5 62q-70 0 -129 -37l-8 -202q-51 -7 -82 -7q-98 0 -98 88q0 35 32 77.5t83.5 79.5t126 62t149.5 25q154 0 225.5 -72t71.5 -225v-553q0 -32 13.5 -43.5
t54.5 -11.5h102v-57q-118 -52 -194 -52q-74 0 -111 44.5t-37 115.5h-6q-6 -6 -32 -30.5t-31 -29t-26 -23.5t-27 -23t-24.5 -17.5t-27.5 -16t-26 -10.5t-30.5 -9.5t-31.5 -4t-37 -2.5zM455 109q64 0 111 34.5t75 75.5v270l-197 -65q-79 -27 -118 -62.5t-39 -95.5
q0 -74 49 -115.5t119 -41.5zM262 1319q0 99 70 166t170 67q102 0 170.5 -66t68.5 -167q0 -99 -69.5 -166.5t-169.5 -67.5q-102 0 -171 66.5t-69 167.5zM356 1319q0 -65 42.5 -107.5t103.5 -42.5t103 42.5t42 107.5t-42 107t-103 42t-103.5 -42t-42.5 -107zM610 1948h191v-41
l-246 -244h-106z" />
    <glyph glyph-name="AEacute" unicode="&#x1fc;" horiz-adv-x="1964" 
d="M1409 645h-266v-549h479l166 271h76l-66 -367h-1020v68l174 47v530h-387l-272 -506l199 -71v-68h-484v66l131 59l643 1100l-202 69v66h1032l178 8v-362h-74l-110 262h-463v-529h266l59 168h66v-418h-72zM952 1268h-20l-314 -531h334v531zM1141 1792h190v-41l-246 -244
h-106z" />
    <glyph glyph-name="aeacute" unicode="&#x1fd;" horiz-adv-x="1552" 
d="M346 -31q-42 0 -84.5 15t-79 43t-59.5 75.5t-23 106.5q0 118 75.5 185.5t248.5 99.5l233 43v127q-3 114 -59.5 176.5t-142.5 62.5q-40 0 -80 -13t-58 -24l-8 -202q-51 -7 -82 -7q-98 0 -98 88q0 47 54.5 103.5t149.5 98.5t195 42q194 0 267 -162q41 69 133.5 116.5
t193.5 47.5q145 0 232 -96t94 -279l-614 -112v-84q8 -131 88 -214t204 -83q44 0 89.5 16t79 38t60 44.5t40.5 38.5l14 16l41 -24q-2 -6 -7 -16t-22 -40t-37.5 -57t-54.5 -59.5t-72.5 -56.5t-92 -40t-111.5 -16q-111 0 -206.5 58.5t-146.5 160.5q-45 -54 -78.5 -88t-77 -66.5
t-92.5 -47.5t-106 -15zM453 109q42 0 81 15.5t67.5 41t45 45t29.5 39.5q-19 62 -19 129v92l-192 -41q-178 -40 -178 -164q0 -75 47 -116t119 -41zM1067 901q-93 0 -162.5 -91t-70.5 -237l409 82q-2 105 -51.5 175.5t-124.5 70.5zM870 1548h164v-39l-203 -381h-83z" />
    <glyph glyph-name="Oslashacute" unicode="&#x1fe;" horiz-adv-x="1609" 
d="M154 -72l159 209q-202 196 -202 514q0 170 52.5 310.5t145 235t219.5 146.5t275 52q231 0 393 -105l115 152h116l-157 -207q113 -98 171 -242t58 -303q0 -170 -52.5 -310t-145.5 -234t-220.5 -145.5t-275.5 -51.5q-241 0 -422 129l-113 -150h-116zM1282 639
q0 275 -119 457l-684 -893q134 -164 348 -164q76 0 142.5 25.5t115.5 69.5t87.5 102t62 125.5t35.5 137.5t12 140zM788 1305q-95 0 -174 -36t-131 -95t-88 -136.5t-51.5 -157.5t-15.5 -161q0 -259 98 -434l678 886q-128 134 -316 134zM899 1792h191v-41l-246 -244h-107z" />
    <glyph glyph-name="oslashacute" unicode="&#x1ff;" horiz-adv-x="1097" 
d="M170 -88h-104l145 194q-66 67 -101.5 160.5t-35.5 196.5q0 144 63 266t172 193t240 71q157 0 270 -75l111 145h104l-149 -199q139 -136 139 -362q0 -147 -62 -269.5t-171 -194t-242 -71.5q-150 0 -275 84zM569 55q121 0 196 112.5t75 285.5q0 172 -52 282l-436 -581
q79 -99 217 -99zM258 518q0 -174 49 -285l434 580q-77 96 -213 96q-124 0 -197 -110t-73 -281zM616 1548h164v-39l-202 -381h-84z" />
    <glyph glyph-name="Scommaaccent" unicode="&#x218;" horiz-adv-x="1058" 
d="M104 68l-26 362h78l112 -295q101 -82 238 -82q120 0 197 69.5t77 184.5q0 179 -196 260l-209 88q-140 61 -209.5 144.5t-69.5 208.5q0 167 136.5 280t345.5 113q89 0 176 -25.5t141 -58.5l12 -338h-69l-107 278q-87 58 -180 58q-116 0 -189 -68.5t-73 -161.5
q0 -86 43.5 -140t130.5 -93l244 -111q146 -65 209 -151.5t63 -204.5q0 -92 -44.5 -173.5t-115 -135t-157.5 -84.5t-173 -31q-99 0 -206 30t-179 77zM336 -547l-17 55q189 59 189 150q0 42 -37.5 66.5t-93.5 29.5v4q7 54 44.5 83.5t94.5 29.5q67 0 104 -40.5t37 -104.5
q0 -192 -321 -273z" />
    <glyph glyph-name="scommaaccent" unicode="&#x219;" horiz-adv-x="856" 
d="M393 -39q-133 0 -266 80l-33 287h68l104 -226q20 -18 37 -29t52 -21.5t79 -10.5q78 0 127 43t49 113q0 60 -43 108t-155 98l-82 37q-109 49 -160 111t-51 158q0 117 105.5 200.5t246.5 83.5q121 0 242 -65l10 -244h-61l-84 178q-64 51 -138 51q-71 0 -113 -40t-42 -101
q0 -62 37 -104.5t129 -83.5l88 -39q131 -58 186 -125.5t55 -155.5q0 -125 -117.5 -214t-269.5 -89zM252 -547l-16 55q188 59 188 150q0 42 -37.5 66.5t-93.5 29.5v4q7 54 44.5 83.5t94.5 29.5q67 0 104 -40.5t37 -104.5q0 -192 -321 -273z" />
    <glyph glyph-name="uni0237" unicode="&#x237;" horiz-adv-x="534" 
d="M4 -514l-10 59q102 33 147 155.5t45 352.5v750l-120 55v72l292 59v-936q0 -221 -65 -354q-42 -88 -119.5 -144.5t-169.5 -68.5z" />
    <glyph glyph-name="circumflex" unicode="&#x2c6;" horiz-adv-x="819" 
d="M240 1128h-97l207 420h117l207 -420h-101l-170 269z" />
    <glyph glyph-name="caron" unicode="&#x2c7;" horiz-adv-x="819" 
d="M578 1548h96l-207 -420h-117l-207 420h101l168 -268z" />
    <glyph glyph-name="breve" unicode="&#x2d8;" horiz-adv-x="819" 
d="M399 1161q-124 0 -186 87.5t-68 244.5h74q13 -88 63.5 -147.5t135.5 -59.5q73 0 121 60t61 147h72q-6 -160 -68.5 -246t-204.5 -86z" />
    <glyph glyph-name="dotaccent" unicode="&#x2d9;" horiz-adv-x="819" 
d="M410 1206q-52 0 -89.5 37t-37.5 90t37.5 90t89.5 37t89.5 -37t37.5 -90t-37.5 -90t-89.5 -37z" />
    <glyph glyph-name="ring" unicode="&#x2da;" horiz-adv-x="819" 
d="M170 1380q0 99 70 166.5t170 67.5q102 0 170.5 -66.5t68.5 -167.5q0 -99 -69.5 -166t-169.5 -67q-102 0 -171 66t-69 167zM264 1380q0 -65 42.5 -107t103.5 -42t103 42t42 107t-42 107.5t-103 42.5t-103.5 -42.5t-42.5 -107.5z" />
    <glyph glyph-name="ogonek" unicode="&#x2db;" horiz-adv-x="819" 
d="M455 0h86q-137 -141 -170 -185q-41 -56 -41 -104q0 -102 106 -102q51 0 89 19.5t91 74.5l35 -35q-26 -41 -50 -70.5t-59.5 -61.5t-80 -49t-96.5 -17q-89 0 -143 49.5t-54 124.5q0 24 3.5 45.5t15.5 44.5t21 39t34 42t38.5 40t51 45t56 46t67.5 54z" />
    <glyph glyph-name="tilde" unicode="&#x2dc;" horiz-adv-x="819" 
d="M436 1239l-80 47q-68 41 -107 48t-68 -19t-58 -96l-62 26l11 27q114 282 315 170l98 -56q75 -44 120 -22t89 127l62 -27l-11 -26q-61 -159 -136.5 -207.5t-172.5 8.5z" />
    <glyph glyph-name="hungarumlaut" unicode="&#x2dd;" horiz-adv-x="819" 
d="M240 1548h159v-39l-182 -381h-84zM530 1548h160v-39l-182 -381h-84z" />
    <glyph glyph-name="Wgrave" unicode="&#x1e80;" horiz-adv-x="1982" 
d="M1321 -14l-328 960l-336 -960h-149l-381 1255l-129 53v66h522v-66l-176 -53l287 -1046l309 909l-45 137l-176 53v66h553v-70l-172 -49l334 -1032l286 1014l-213 67v70h478v-66l-136 -61l-376 -1247h-152zM725 1792h190l162 -285h-106l-246 244v41z" />
    <glyph glyph-name="wgrave" unicode="&#x1e81;" horiz-adv-x="1513" 
d="M842 979l241 -731l21 -68h4q8 33 18 68l179 600l-152 51v64h354v-64l-94 -39l-278 -893h-123l-232 664l-22 74h-2q-13 -41 -23 -74l-225 -664h-131l-277 893l-94 39v64h436v-64l-149 -39l170 -612l18 -68h4q9 33 21 68l237 731h99zM754 1128l-205 381v39h164l125 -420
h-84z" />
    <glyph glyph-name="Wacute" unicode="&#x1e82;" horiz-adv-x="1982" 
d="M1321 -14l-328 960l-336 -960h-149l-381 1255l-129 53v66h522v-66l-176 -53l287 -1046l309 909l-45 137l-176 53v66h553v-70l-172 -49l334 -1032l286 1014l-213 67v70h478v-66l-136 -61l-376 -1247h-152zM1110 1792h190v-41l-245 -244h-107z" />
    <glyph glyph-name="wacute" unicode="&#x1e83;" horiz-adv-x="1513" 
d="M842 979l241 -731l21 -68h4q8 33 18 68l179 600l-152 51v64h354v-64l-94 -39l-278 -893h-123l-232 664l-22 74h-2q-13 -41 -23 -74l-225 -664h-131l-277 893l-94 39v64h436v-64l-149 -39l170 -612l18 -68h4q9 33 21 68l237 731h99zM856 1548h164v-39l-203 -381h-84z" />
    <glyph glyph-name="Wdieresis" unicode="&#x1e84;" horiz-adv-x="1982" 
d="M1321 -14l-328 960l-336 -960h-149l-381 1255l-129 53v66h522v-66l-176 -53l287 -1046l309 909l-45 137l-176 53v66h553v-70l-172 -49l334 -1032l286 1014l-213 67v70h478v-66l-136 -61l-376 -1247h-152zM788 1559q-47 0 -80.5 33.5t-33.5 80.5q0 48 33.5 82.5t80.5 34.5
t82 -35t35 -82t-34.5 -80.5t-82.5 -33.5zM1241 1559q-48 0 -82.5 33.5t-34.5 80.5t35 82t82 35t82 -35t35 -82t-34.5 -80.5t-82.5 -33.5z" />
    <glyph glyph-name="wdieresis" unicode="&#x1e85;" horiz-adv-x="1513" 
d="M842 979l241 -731l21 -68h4q8 33 18 68l179 600l-152 51v64h354v-64l-94 -39l-278 -893h-123l-232 664l-22 74h-2q-13 -41 -23 -74l-225 -664h-131l-277 893l-94 39v64h436v-64l-149 -39l170 -612l18 -68h4q9 33 21 68l237 731h99zM586 1241q-47 0 -81 34t-34 81t34 82
t81 35t81.5 -35t34.5 -82t-34.5 -81t-81.5 -34zM989 1241q-47 0 -82 34t-35 81t35 82t82 35t82 -35t35 -82t-35 -81t-82 -34z" />
    <glyph glyph-name="Ygrave" unicode="&#x1ef2;" horiz-adv-x="1290" 
d="M1141 1233l-396 -660v-458l193 -47v-68h-586v68l195 47v422l-402 704l-131 53v66h514v-66l-153 -53l317 -586h8l324 568l-193 67v70h445v-66zM395 1792h191l162 -285h-107l-246 244v41z" />
    <glyph glyph-name="ygrave" unicode="&#x1ef3;" horiz-adv-x="1019" 
d="M819 850l-141 51v62h344v-64l-94 -41l-455 -1134q-51 -131 -97 -186.5t-120 -55.5q-52 0 -89.5 32.5t-37.5 82.5q0 48 29 75t73 27q61 0 101 -74h4l121 283l-363 952l-96 39v64h444v-64l-149 -39l254 -717h6zM528 1128l-204 381v39h163l125 -420h-84z" />
    <glyph glyph-name="uni2009" unicode="&#x2009;" horiz-adv-x="184" 
 />
    <glyph glyph-name="endash" unicode="&#x2013;" horiz-adv-x="835" 
d="M8 547v104h819v-104h-819z" />
    <glyph glyph-name="emdash" unicode="&#x2014;" horiz-adv-x="1654" 
d="M8 547v104h1639v-104h-1639z" />
    <glyph glyph-name="quoteleft" unicode="&#x2018;" horiz-adv-x="595" 
d="M436 1620q-74 -55 -115.5 -124.5t-41.5 -135.5q0 -58 37 -99.5t114 -58.5q13 -83 -20 -129.5t-103 -46.5q-66 0 -116 57t-50 166q0 132 71.5 244t184.5 178q35 -45 39 -51z" />
    <glyph glyph-name="quoteright" unicode="&#x2019;" horiz-adv-x="595" 
d="M160 1040q74 55 115.5 124.5t41.5 135.5q0 58 -37 99.5t-114 58.5q-13 83 20 129.5t103 46.5q66 0 116 -57t50 -166q0 -132 -71.5 -244t-184.5 -178q-35 45 -39 51z" />
    <glyph glyph-name="quotesinglbase" unicode="&#x201a;" horiz-adv-x="616" 
d="M141 -233q74 55 116 125t42 135q0 58 -37.5 99t-114.5 58q-13 83 20 129.5t103 46.5q66 0 116 -57t50 -166q0 -132 -71.5 -244t-184.5 -178q-35 46 -39 52z" />
    <glyph glyph-name="quotedblleft" unicode="&#x201c;" horiz-adv-x="1042" 
d="M436 1620q-74 -55 -115.5 -124.5t-41.5 -135.5q0 -58 37 -99.5t114 -58.5q13 -83 -20 -129.5t-103 -46.5q-66 0 -116 57t-50 166q0 132 71.5 244t184.5 178q35 -45 39 -51zM883 1620q-74 -55 -116 -125t-42 -135q0 -58 37.5 -99.5t114.5 -58.5q13 -83 -20 -129.5
t-103 -46.5q-66 0 -116 57t-50 166q0 132 71.5 244t184.5 178q35 -45 39 -51z" />
    <glyph glyph-name="quotedblright" unicode="&#x201d;" horiz-adv-x="1042" 
d="M160 1040q74 55 115.5 124.5t41.5 135.5q0 58 -37 99.5t-114 58.5q-13 83 20 129.5t103 46.5q66 0 116 -57t50 -166q0 -132 -71.5 -244t-184.5 -178q-35 45 -39 51zM606 1040q74 55 116 125t42 135q0 58 -37.5 99.5t-114.5 58.5q-13 83 20 129.5t103 46.5q66 0 116 -57
t50 -166q0 -132 -71.5 -244t-184.5 -178q-35 45 -39 51z" />
    <glyph glyph-name="quotedblbase" unicode="&#x201e;" horiz-adv-x="1062" 
d="M141 -233q74 55 116 125t42 135q0 58 -37.5 99t-114.5 58q-13 83 20 129.5t103 46.5q66 0 116 -57t50 -166q0 -132 -71.5 -244t-184.5 -178q-35 46 -39 52zM588 -233q74 55 115.5 124.5t41.5 135.5q0 124 -151 157q-13 83 20 129.5t103 46.5q66 0 116 -57t50 -166
q0 -132 -71.5 -244t-184.5 -178q-35 46 -39 52z" />
    <glyph glyph-name="dagger" unicode="&#x2020;" horiz-adv-x="606" 
d="M31 1167v111l221 -8l-10 231h120l-10 -231l223 8v-111l-225 9l12 -564l-120 -2l10 566z" />
    <glyph glyph-name="daggerdbl" unicode="&#x2021;" horiz-adv-x="606" 
d="M31 1167v111l221 -8l-10 231h120l-10 -231l223 8v-111l-225 9v-230l225 8v-110l-223 8l10 -240l-120 -2l10 242l-221 -8v110l223 -8v230z" />
    <glyph glyph-name="bullet" unicode="&#x2022;" horiz-adv-x="694" 
d="M346 367q-75 0 -131.5 57t-56.5 133t56.5 132t131.5 56q78 0 134.5 -55.5t56.5 -132.5t-56.5 -133.5t-134.5 -56.5z" />
    <glyph glyph-name="ellipsis" unicode="&#x2026;" horiz-adv-x="1447" 
d="M246 -8q-57 0 -99.5 42.5t-42.5 100.5q0 57 42.5 99t99.5 42q58 0 100.5 -42t42.5 -99q0 -59 -42.5 -101t-100.5 -42zM723 -8q-57 0 -99 42.5t-42 100.5q0 57 42 99t99 42q58 0 100.5 -42t42.5 -99q0 -59 -42 -101t-101 -42zM1200 -8q-57 0 -99 42.5t-42 100.5
q0 57 42 99t99 42q58 0 100.5 -42t42.5 -99q0 -59 -42.5 -101t-100.5 -42z" />
    <glyph glyph-name="perthousand" unicode="&#x2030;" horiz-adv-x="2631" 
d="M442 1239q81 0 145.5 -31t104 -83t60 -115.5t20.5 -132.5q0 -166 -99.5 -275.5t-242.5 -109.5q-146 0 -237 98t-91 260q0 168 99 278.5t241 110.5zM428 1155q-58 0 -99 -43t-58 -101.5t-17 -123.5q0 -59 12 -114t35 -99.5t61.5 -71.5t86.5 -27q56 0 96.5 42t58 102
t17.5 127q0 131 -54.5 220t-138.5 89zM1403 709q65 0 120 -20.5t93 -55.5t65 -81.5t39.5 -98.5t12.5 -107q0 -166 -99.5 -275.5t-242.5 -109.5q-146 0 -237 98t-91 260q0 168 99 279t241 111zM1389 625q-58 0 -99.5 -43t-58.5 -102t-17 -124q0 -81 20.5 -149.5t66 -115
t108.5 -46.5q56 0 96.5 42t58 101.5t17.5 126.5q0 131 -54 220.5t-138 89.5zM2200 709q81 0 145 -31t103.5 -83t60 -116t20.5 -133q0 -166 -99.5 -275.5t-242.5 -109.5q-146 0 -236.5 98t-90.5 260q0 168 99 279t241 111zM2185 625q-58 0 -99 -43t-58 -102t-17 -124
q0 -81 20.5 -149.5t66 -115t108.5 -46.5q56 0 96.5 42t58 101.5t17.5 126.5q0 131 -54.5 220.5t-138.5 89.5zM373 -102l962 1392h121l-962 -1392h-121z" />
    <glyph glyph-name="minute" unicode="&#x2032;" horiz-adv-x="587" 
d="M170 1028l80 500h184v-17l-194 -483h-70z" />
    <glyph glyph-name="second" unicode="&#x2033;" horiz-adv-x="954" 
d="M170 1028l80 500h184v-17l-194 -483h-70zM537 1028l79 500h185v-17l-195 -483h-69z" />
    <glyph glyph-name="guilsinglleft" unicode="&#x2039;" horiz-adv-x="798" 
d="M557 944l57 -51l-286 -422l284 -401l-55 -54l-414 439v34z" />
    <glyph glyph-name="guilsinglright" unicode="&#x203a;" horiz-adv-x="798" 
d="M242 16l-58 52l285 421l-283 402l56 53l413 -438v-35z" />
    <glyph glyph-name="fraction" unicode="&#x2044;" horiz-adv-x="501" 
d="M-256 -176l-90 63l1104 1602l90 -59z" />
    <glyph glyph-name="Euro" unicode="&#x20ac;" horiz-adv-x="1308" 
d="M78 670l10 90h154q61 223 238 350t397 127q69 0 138 -20.5t117 -61t48 -88.5q0 -72 -97 -141q-68 114 -140 163.5t-173 49.5q-129 0 -226 -104.5t-128 -274.5h512l-10 -90h-512v-45q0 -57 6 -109h483l-10 -90h-459q39 -166 145 -254t258 -88q80 0 158.5 28.5t140.5 82.5
l41 -45q-153 -197 -403 -197q-117 0 -213.5 36.5t-162 101.5t-106.5 149.5t-57 185.5h-182l10 90h162v41q0 57 6 113h-145z" />
    <glyph glyph-name="trademark" unicode="&#x2122;" horiz-adv-x="1708" 
d="M735 659v60l78 18v539l-78 20v64h295l172 -465h6l170 465h275v-64l-78 -20v-539l82 -18v-60h-307v62l88 18v545h-8l-193 -516l-23 -61h-84l-20 57l-201 520h-8v-539l107 -28v-58h-273zM70 1360h596l10 -221h-55l-56 153h-127v-553l92 -20v-60h-323v60l94 20v553h-129
l-55 -153h-56z" />
    <glyph glyph-name="onethird" unicode="&#x2153;" horiz-adv-x="1947" 
d="M459 1366v-711l205 -20v-70h-590v70l213 22v555h-226v62l385 92h13zM457 -176l-90 63l1103 1602l91 -59zM1470 -37q-126 0 -193 42t-67 101q0 38 27 62.5t72 30.5l100 -140q47 -14 111 -14q81 0 136.5 39.5t55.5 114.5q0 81 -78 127t-227 39v67l35 10q217 63 217 181
q0 41 -33.5 65.5t-87.5 24.5q-81 0 -135.5 -29.5t-120.5 -89.5l-47 47q82 92 166.5 136t191.5 44t174.5 -44.5t67.5 -117.5q0 -62 -62.5 -115.5t-150.5 -86.5v-6q132 -14 197 -72t65 -133q0 -77 -58 -142.5t-153.5 -103t-202.5 -37.5z" />
    <glyph glyph-name="twothirds" unicode="&#x2154;" horiz-adv-x="1994" 
d="M59 565v66l93 78q197 165 241 209q91 88 104 157q3 16 3 33q0 61 -46 105t-114 44t-118.5 -29.5t-106.5 -90.5l-52 49q46 62 88.5 102.5t107 69t140.5 28.5q116 0 190 -61t75 -168q0 -25 -3.5 -47t-14.5 -45t-20.5 -40.5t-32 -42t-36.5 -39t-48 -43t-51.5 -43t-61.5 -49
t-66 -52.5l-74 -60h459v-131h-656zM528 -176l-90 63l1104 1602l90 -59zM1518 -37q-126 0 -193.5 42t-67.5 101q0 38 27 62.5t72 30.5l100 -140q47 -14 111 -14q81 0 136.5 39.5t55.5 114.5q0 81 -78 127t-227 39v67l35 10q217 63 217 181q0 41 -33.5 65.5t-87.5 24.5
q-81 0 -135.5 -29.5t-120.5 -89.5l-47 47q82 92 166.5 136t191.5 44t174.5 -44.5t67.5 -117.5q0 -62 -62.5 -115.5t-150.5 -86.5v-6q132 -14 197 -72t65 -133q0 -77 -58 -142.5t-153 -103t-202 -37.5z" />
    <glyph glyph-name="oneeighth" unicode="&#x215b;" horiz-adv-x="1982" 
d="M459 1366v-711l205 -20v-70h-590v70l213 22v555h-226v62l385 92h13zM457 -176l-90 63l1103 1602l91 -59zM1538 -37q-145 0 -239.5 57.5t-94.5 149.5q0 74 50.5 121.5t156.5 93.5v4q-82 38 -122 84.5t-40 112.5q0 104 89 169.5t235 65.5q134 0 209.5 -55.5t75.5 -134.5
q0 -113 -181 -191v-4q118 -47 164.5 -93t46.5 -124q0 -109 -99.5 -182.5t-250.5 -73.5zM1567 33q82 0 128 37.5t46 91.5q0 51 -38 83.5t-149 80.5l-81 34q-107 -61 -107 -163q0 -76 55.5 -120t145.5 -44zM1616 463q88 58 88 149q0 63 -40 102.5t-112 39.5q-71 0 -111 -34.5
t-40 -82.5q0 -45 31.5 -77t128.5 -73z" />
    <glyph glyph-name="threeeighths" unicode="&#x215c;" horiz-adv-x="2007" 
d="M334 528q-126 0 -193 42.5t-67 101.5q0 38 26.5 62t71.5 30l100 -139q51 -15 111 -15q81 0 136.5 39.5t55.5 114.5q0 81 -78 127t-227 39v67l35 11q119 35 168 79.5t49 100.5q0 41 -33.5 65.5t-87.5 24.5q-81 0 -135.5 -29.5t-120.5 -89.5l-47 47q82 92 167 136t192 44
t174 -44t67 -117q0 -62 -62.5 -116.5t-150.5 -86.5v-6q132 -14 197.5 -72t65.5 -133q0 -77 -58 -142.5t-153.5 -103t-202.5 -37.5zM494 -176l-91 63l1104 1602l90 -59zM1563 -37q-145 0 -239.5 57.5t-94.5 149.5q0 74 50.5 121.5t156.5 93.5v4q-82 38 -122 84.5t-40 112.5
q0 104 88.5 169.5t234.5 65.5q134 0 209.5 -55.5t75.5 -134.5q0 -113 -180 -191v-4q118 -47 164.5 -93t46.5 -124q0 -109 -99.5 -182.5t-250.5 -73.5zM1591 33q82 0 128 37.5t46 91.5q0 51 -37.5 83.5t-148.5 80.5l-82 34q-106 -61 -106 -163q0 -77 55 -120.5t145 -43.5z
M1640 463q89 59 89 149q0 63 -40 102.5t-112 39.5q-71 0 -111.5 -34.5t-40.5 -82.5q0 -45 31.5 -77t128.5 -73z" />
    <glyph glyph-name="fiveeighths" unicode="&#x215d;" horiz-adv-x="1996" 
d="M322 528q-110 0 -176 38.5t-66 103.5q0 38 31 62.5t73 27.5l103 -133q30 -17 78 -17q103 0 158 45t55 119q0 85 -65 129.5t-161 44.5q-121 0 -200 -51h-23v465h547v-133h-461v-180q80 34 191 34q138 0 227.5 -64.5t89.5 -193.5q0 -90 -63 -160t-153 -103.5t-185 -33.5z
M473 -176l-90 63l1104 1602l90 -59zM1552 -37q-144 0 -238.5 57t-94.5 150q0 74 50.5 121.5t155.5 93.5v4q-82 38 -121.5 84.5t-39.5 112.5q0 104 88.5 169.5t234.5 65.5q134 0 209.5 -55.5t75.5 -134.5q0 -113 -180 -191v-4q118 -47 164.5 -93t46.5 -124
q0 -109 -99.5 -182.5t-251.5 -73.5zM1581 33q82 0 128 37.5t46 91.5q0 51 -37.5 83.5t-148.5 80.5l-82 34q-107 -61 -107 -163q0 -76 55.5 -120t145.5 -44zM1630 463q88 58 88 149q0 63 -39.5 102.5t-111.5 39.5q-71 0 -111.5 -34.5t-40.5 -82.5q0 -45 31.5 -77t128.5 -73z
" />
    <glyph glyph-name="seveneighths" unicode="&#x215e;" horiz-adv-x="1884" 
d="M109 565l442 656h-494v141h648v-25l-445 -772h-151zM299 -176l-90 63l1104 1602l90 -59zM1440 -37q-145 0 -239.5 57.5t-94.5 149.5q0 74 50.5 121.5t156.5 93.5v4q-82 38 -122 84.5t-40 112.5q0 104 89 169.5t235 65.5q134 0 209 -55.5t75 -134.5q0 -113 -180 -191v-4
q118 -47 164.5 -93t46.5 -124q0 -109 -99.5 -182.5t-250.5 -73.5zM1468 33q82 0 128 37.5t46 91.5q0 51 -37.5 83.5t-148.5 80.5l-82 34q-106 -61 -106 -163q0 -77 55 -120.5t145 -43.5zM1518 463q88 58 88 149q0 63 -40 102.5t-112 39.5q-71 0 -111 -34.5t-40 -82.5
q0 -46 31.5 -77.5t127.5 -72.5z" />
    <glyph glyph-name="minus" unicode="&#x2212;" horiz-adv-x="1142" 
d="M1057 426h-971v119h971v-119z" />
    <glyph glyph-name="approxequal" unicode="&#x2248;" horiz-adv-x="1142" 
d="M184 567l-92 37q47 101 106 152t146 51q54 0 156 -23l135 -32q9 -2 44.5 -10.5t51 -12t40.5 -7t44 -3.5q49 0 80.5 29t65.5 92l92 -37q-46 -101 -105.5 -150t-148.5 -49q-73 0 -201 31l-133 35q-94 24 -135 24q-48 0 -80 -31.5t-66 -95.5zM184 240l-92 36q47 101 106 152
t146 51q59 0 156 -22l135 -33q9 -2 44.5 -10.5t51 -12t40.5 -7t44 -3.5q49 0 80.5 29t65.5 92l92 -37q-46 -101 -105.5 -150t-148.5 -49q-73 0 -201 31l-133 35q-98 25 -135 25q-48 0 -80 -31.5t-66 -95.5z" />
    <glyph glyph-name="notequal" unicode="&#x2260;" horiz-adv-x="1142" 
d="M86 600v113h606l203 225h125l-205 -225h242v-113h-342l-168 -186h510v-113h-613l-202 -225h-119l201 225h-238v113h340l166 186h-506z" />
    <glyph glyph-name="lessequal" unicode="&#x2264;" horiz-adv-x="1142" 
d="M1053 938l-787 -293l787 -291v-137l-967 369v121l967 368v-137zM1053 0h-967v119h967v-119z" />
    <glyph glyph-name="greaterequal" unicode="&#x2265;" horiz-adv-x="1142" 
d="M872 645l-786 293v137l967 -368v-121l-967 -369v137zM1053 0h-967v119h967v-119z" />
    <glyph glyph-name="Pcircle" unicode="&#x24c5;" horiz-adv-x="1660" 
d="M123 670q0 194 94.5 357t256.5 257t355 94q144 0 275 -55.5t226.5 -150t151.5 -226t56 -276.5t-56 -276.5t-151.5 -225.5t-226.5 -149.5t-275 -55.5q-193 0 -355 93.5t-256.5 256.5t-94.5 357zM190 670q0 -132 50.5 -251.5t136.5 -205.5t204 -137t248 -51t248 51t204 137
t136.5 205.5t50.5 251.5t-50.5 251.5t-136.5 205.5t-204 137t-248 51t-248 -51t-204 -137t-136.5 -205.5t-50.5 -251.5zM844 635q231 15 231 184q0 84 -76 134.5t-225 50.5v-635l160 -29v-55h-410v55l109 29v606l-109 31v55h299q192 1 299 -60t107 -167q0 -84 -60 -144.5
t-145.5 -85t-179.5 -20.5v51z" />
    <glyph glyph-name="space_uni0326" horiz-adv-x="819" 
d="M248 -547l-17 55q189 59 189 150q0 42 -37.5 66.5t-93.5 29.5v4q7 54 44.5 83.5t94.5 29.5q67 0 104 -40.5t37 -104.5q0 -192 -321 -273z" />
    <glyph glyph-name="caron.alt" horiz-adv-x="819" 
d="M381 1098h-59l30 430h183v-17z" />
    <glyph glyph-name="space_uni0326.alt" horiz-adv-x="819" 
d="M586 1624l16 -55q-188 -59 -188 -150q0 -42 37.5 -66.5t93.5 -29.5v-4q-7 -54 -44.5 -83.5t-94.5 -29.5q-67 0 -104.5 41t-37.5 105q0 190 322 272z" />
    <glyph glyph-name="grave.uc" horiz-adv-x="819" 
d="M188 1792h191l162 -285h-107l-246 244v41z" />
    <glyph glyph-name="dieresis.uc" horiz-adv-x="819" 
d="M182 1559q-47 0 -80.5 33.5t-33.5 80.5q0 48 33.5 82.5t80.5 34.5t82 -35t35 -82t-34.5 -80.5t-82.5 -33.5zM635 1559q-48 0 -82.5 33.5t-34.5 80.5t35 82t82 35t82 -35t35 -82t-34.5 -80.5t-82.5 -33.5z" />
    <glyph glyph-name="macron.uc" horiz-adv-x="819" 
d="M113 1602v122h594v-122h-594z" />
    <glyph glyph-name="acute.uc" horiz-adv-x="819" 
d="M440 1792h191v-41l-246 -244h-106z" />
    <glyph glyph-name="circumflex.uc" horiz-adv-x="819" 
d="M174 1507h-92l227 265h199l227 -265h-96l-233 160z" />
    <glyph glyph-name="caron.uc" horiz-adv-x="819" 
d="M643 1772h92l-227 -265h-199l-227 265h96l234 -160z" />
    <glyph glyph-name="breve.uc" horiz-adv-x="819" 
d="M399 1499q-76 0 -133 23.5t-88 63.5t-44.5 87t-10.5 99h59q15 -67 73 -104.5t155 -37.5q98 0 154.5 37.5t72.5 104.5h59q8 -109 -69.5 -191t-227.5 -82z" />
    <glyph glyph-name="dotaccent.uc" horiz-adv-x="819" 
d="M410 1546q-52 0 -89.5 37t-37.5 90t37.5 90t89.5 37t89.5 -37t37.5 -90t-37.5 -90t-89.5 -37z" />
    <glyph glyph-name="ring.uc" horiz-adv-x="819" 
d="M170 1673q0 99 70 166.5t170 67.5q102 0 170.5 -66.5t68.5 -167.5q0 -99 -69.5 -166t-169.5 -67q-102 0 -171 66t-69 167zM264 1673q0 -65 42.5 -107t103.5 -42t103 42t42 107t-42 107.5t-103 42.5t-103.5 -42.5t-42.5 -107.5z" />
    <glyph glyph-name="tilde.uc" horiz-adv-x="819" 
d="M449 1544l-87 37q-27 12 -39 16.5t-33.5 13t-30 10t-24.5 4.5t-23.5 0t-19.5 -6.5t-19 -12t-16.5 -20t-17 -27.5t-16.5 -37l-62 26l11 27q39 98 84 144t98 47.5t121 -25.5l106 -43q35 -14 57.5 -20t46 -5t40.5 14t34 39t35 68l62 -27l-11 -26q-60 -157 -128 -200t-168 3z
" />
    <glyph glyph-name="hungarumlaut.uc" horiz-adv-x="819" 
d="M293 1792h164v-39l-213 -246h-107zM582 1792h163v-39l-213 -246h-106z" />
    <glyph glyph-name="cedilla.uc" horiz-adv-x="819" 
d="M250 -526l-10 59q33 10 51 16.5t48 20.5t46 28t28.5 36.5t12.5 48.5q0 78 -109 118l129 207h78l-82 -137q69 -5 111.5 -42.5t42.5 -96.5q0 -49 -25 -90.5t-61 -68t-86 -48t-90 -32.5t-84 -19z" />
    <glyph glyph-name="idotaccent" horiz-adv-x="571" 
d="M63 0v70l138 45v700l-121 43v72l291 59v-876l153 -43v-70h-461zM272 1278q-51 0 -89 37t-38 88t38 88t89 37q50 0 87.5 -37t37.5 -88t-37.5 -88t-87.5 -37z" />
    <glyph glyph-name="dollar.lin" horiz-adv-x="1067" 
d="M492 -256v246h-3q-101 0 -216.5 29.5t-186.5 74.5l-27 346h78l113 -282q103 -76 242 -78v528l-111 29q-301 76 -301 336q0 153 116 258t296 129v246h83v-240h3q90 0 186 -25.5t149 -56.5l13 -323h-70l-104 266q-78 47 -177 53v-496l132 -34q148 -42 222.5 -127.5
t74.5 -204.5q0 -82 -37.5 -156t-99.5 -126.5t-137.5 -88.5t-154.5 -49v-254h-83zM600 582l-25 6v-502q101 18 163.5 85t62.5 169q0 53 -16.5 97.5t-63.5 85.5t-121 59zM268 1042q0 -82 43 -139t150 -86l31 -8v467q-100 -15 -162 -79.5t-62 -154.5z" />
    <glyph glyph-name="Euro.lin" horiz-adv-x="1308" 
d="M78 741l10 90h152q62 259 251 412.5t424 153.5q127 0 228.5 -59t101.5 -130q0 -74 -96 -143q-72 120 -146.5 176.5t-187.5 56.5q-138 0 -250.5 -130.5t-144.5 -336.5h508l-10 -90h-508v-47q0 -68 6 -127h479l-10 -90h-457q39 -193 150.5 -290t281.5 -97q182 0 309 121
l48 -47q-156 -211 -422 -211q-127 0 -229.5 40.5t-171 113.5t-110 166t-57.5 204h-182l10 90h162v51q0 68 8 123h-147z" />
    <glyph glyph-name="sterling.lin" horiz-adv-x="1294" 
d="M254 532v91h244l75 340q25 114 68 207t91.5 151.5t104.5 98.5t107 56.5t100 16.5q85 0 155.5 -59t70.5 -148q0 -33 -46.5 -65.5t-109.5 -38.5q-38 223 -145 223q-32 0 -57.5 -23.5t-57 -100t-61.5 -210.5l-103 -448h395v-91h-415l-2 -14q-67 -299 -295 -452
q138 -55 227 -105l70 -37q178 -95 241.5 -123t98.5 -28q46 0 70.5 50.5t23 112t-9.5 113.5q157 10 157 -94q0 -37 -22 -83.5t-61 -92t-104.5 -76.5t-141.5 -31q-40 0 -79 6t-82 22t-74 28t-81 40.5t-73 41.5t-80.5 49t-75.5 47l-146 88q-90 -33 -161 -33q-50 0 -75.5 22.5
t-25.5 63.5q0 36 34 63t85 27q79 0 197 -41q117 98 157 275l35 161h-223z" />
    <glyph glyph-name="yen.lin" horiz-adv-x="1249" 
d="M164 528v90h366l-358 623l-131 53v66h514v-66l-154 -53l269 -528h8l278 510l-192 67v70h444v-66l-135 -61l-354 -610v-5h364v-90h-364v-153h364v-90h-364v-170l194 -47v-68h-577v68l196 47v170h-368v90h368v153h-368z" />
    <glyph glyph-name="florin.lin" horiz-adv-x="933" 
d="M76 559l12 90h182l17 78q37 182 121 334t198.5 241t233.5 89q68 0 102.5 -33t34.5 -78q0 -24 -13 -52.5t-22.5 -41.5t-28.5 -37q-43 46 -64.5 67t-57.5 42.5t-70 21.5q-25 0 -44.5 -9.5t-47.5 -46.5t-54.5 -102.5t-60 -185.5t-68.5 -287h269l-21 -90h-266l-109 -528
q-29 -140 -78 -247.5t-98.5 -165t-106.5 -93.5t-96 -46.5t-73 -10.5q-46 0 -90.5 31.5t-44.5 84.5q0 28 15.5 58.5t35.5 44.5q40 -37 61.5 -55.5t59 -41t63.5 -22.5q53 0 85.5 73t64.5 234l135 684h-176z" />
    <glyph glyph-name="zero.lin" horiz-adv-x="1349" 
d="M674 1395q110 0 201.5 -39.5t154.5 -106.5t106 -157.5t63 -190t20 -205.5q0 -167 -41.5 -306t-114.5 -232t-173 -144t-216 -51q-236 0 -389.5 193t-153.5 503q0 335 152.5 535.5t390.5 200.5zM666 1305q-84 0 -150 -54t-104 -141.5t-57 -186t-19 -200.5
q0 -115 22.5 -230.5t64.5 -216.5t112 -164t157 -63q81 0 145 54t102 142.5t57.5 191t19.5 208.5q0 168 -45 319t-126.5 246t-178.5 95z" />
    <glyph glyph-name="one.lin" horiz-adv-x="884" 
d="M557 1397v-1280l231 -41v-76h-655v76l238 39v1063l-242 -64l-25 84l433 199h20z" />
    <glyph glyph-name="two.lin" horiz-adv-x="1034" 
d="M465 348l-195 -180h705v-168h-895v100l90 93q56 58 133 133.5t124.5 122t104.5 106t90 104.5t63.5 97.5t43.5 103.5t12 105q-1 83 -40.5 145.5t-98 92.5t-125.5 30q-85 0 -157 -50t-152 -151l-66 45q178 318 441 318q179 0 284.5 -101t108.5 -254q2 -73 -21 -144
t-57.5 -128.5t-98 -129t-117 -123.5t-140.5 -133q-25 -22 -37 -34z" />
    <glyph glyph-name="three.lin" horiz-adv-x="1015" 
d="M463 57q117 0 198.5 74t81.5 195q0 102 -64 176t-166.5 109.5t-229.5 35.5v94q381 136 381 330q0 77 -53 126.5t-142 49.5q-135 0 -305 -160l-53 60q97 118 196 183t225 65q147 0 234.5 -78t87.5 -201q0 -59 -21.5 -108t-74.5 -94.5t-86 -67.5t-112 -68l-30 -18v-6
q72 -10 140 -38.5t125.5 -72t93 -108t35.5 -138.5q0 -118 -78.5 -218.5t-199 -156t-247.5 -55.5q-132 0 -216.5 51.5t-84.5 131.5q0 52 34.5 79.5t86.5 30.5l146 -188q50 -15 98 -15z" />
    <glyph glyph-name="four.lin" horiz-adv-x="1185" 
d="M846 1354v-848h280v-135h-280v-256l174 -49v-66h-535v68l174 47v256h-571v78l692 921zM233 506h426v573z" />
    <glyph glyph-name="five.lin" horiz-adv-x="1024" 
d="M864 1180h-622v-361q112 53 233 53q206 0 333.5 -113.5t127.5 -303.5q0 -106 -49.5 -200t-127.5 -155.5t-174 -97t-190 -35.5q-126 0 -213.5 52t-87.5 131q0 52 34.5 79.5t86.5 30.5l147 -190q50 -11 87 -11q139 0 222 87.5t83 236.5q0 138 -89.5 233t-246.5 95
q-133 0 -250 -68h-14v717h710v-180z" />
    <glyph glyph-name="six.lin" horiz-adv-x="1200" 
d="M1016 1366q-70 -24 -139.5 -58.5t-151 -90t-149 -122t-126 -159t-88.5 -195.5q152 121 324 121q108 0 200.5 -50t151 -150t58.5 -230q0 -111 -43.5 -203.5t-112.5 -149.5t-151 -88.5t-164 -31.5q-227 0 -361.5 143t-134.5 371q0 127 30.5 242.5t81.5 204.5t122 167
t148.5 134t164 100.5t165.5 72t156 44.5zM598 737q-136 0 -256 -86q-12 -73 -12 -151q0 -129 34 -229t108.5 -161t180.5 -61q112 0 181 87.5t69 217.5q0 168 -85 275.5t-220 107.5z" />
    <glyph glyph-name="seven.lin" horiz-adv-x="950" 
d="M315 0h-170l605 1180h-709v180h879v-27z" />
    <glyph glyph-name="eight.lin" horiz-adv-x="1099" 
d="M98 315q0 31 5.5 60t18.5 54.5t25 46t35.5 42.5t38.5 36.5t46 35t46 30.5t50 31t47 29l-25 16q-117 73 -175 153t-58 189q0 150 126 253.5t318 103.5q160 0 263.5 -81.5t103.5 -213.5q0 -51 -17 -100.5t-43 -88.5t-64.5 -77.5t-73.5 -66t-79 -56.5h2q107 -66 170 -118.5
t100 -117t37 -139.5q0 -170 -131.5 -273.5t-326.5 -103.5q-190 0 -314.5 99.5t-124.5 256.5zM553 592l-82 49q-99 -79 -138.5 -146t-39.5 -163q0 -38 10.5 -77.5t33 -78.5t54.5 -69.5t80 -49t104 -18.5q63 0 111.5 21.5t76 56t41 72.5t13.5 77q0 53 -19 99t-58 86t-81 71
t-106 70zM326 1081q0 -83 39 -139.5t118 -103.5l131 -82q166 150 166 325q0 111 -61.5 170.5t-161.5 59.5t-165.5 -64.5t-65.5 -165.5z" />
    <glyph glyph-name="nine.lin" horiz-adv-x="1198" 
d="M186 10q67 25 128.5 54.5t145 83t149.5 115t127 153.5t93 196q-63 -55 -130 -86.5t-158 -31.5q-190 0 -316.5 116.5t-126.5 313.5q0 111 43.5 203.5t112.5 149.5t151 88.5t164 31.5q149 0 264 -70.5t174.5 -189t59.5 -263.5q0 -124 -29.5 -235t-79 -197t-119 -160.5
t-145.5 -128t-163 -97t-166 -71t-160 -46.5zM618 618q119 0 232 84q14 86 14 154q0 137 -33 237t-105 158t-179 58q-113 0 -184.5 -92.5t-71.5 -235.5q0 -156 89 -259.5t238 -103.5z" />
    <glyph glyph-name="percent.lin" horiz-adv-x="1835" 
d="M498 1395q65 0 120 -20.5t93.5 -55.5t66 -81.5t40.5 -98.5t13 -107q0 -166 -101 -275.5t-245 -109.5q-146 0 -238.5 99t-92.5 260q0 167 101 278t243 111zM317 -102l1088 1566h127l-1088 -1566h-127zM483 1311q-57 0 -97 -43t-56.5 -102t-16.5 -124q0 -81 19.5 -149.5
t64.5 -115t107 -46.5q55 0 94.5 42t56.5 101.5t17 126.5q0 131 -53.5 220.5t-135.5 89.5zM1352 709q81 0 146 -31t105 -83t61.5 -116t21.5 -133q0 -166 -101.5 -275.5t-245.5 -109.5q-146 0 -238.5 98.5t-92.5 259.5q0 167 101 278.5t243 111.5zM1337 625q-57 0 -97 -43
t-56.5 -102t-16.5 -124q0 -81 19.5 -149.5t64.5 -115t107 -46.5q55 0 94.5 42t56.5 101.5t17 126.5q0 131 -53.5 220.5t-135.5 89.5z" />
    <glyph glyph-name="perthousand.lin" horiz-adv-x="2660" 
d="M498 1395q65 0 120 -20.5t93.5 -55.5t66 -81.5t40.5 -98.5t13 -107q0 -166 -101 -275.5t-245 -109.5q-146 0 -238.5 99t-92.5 260q0 167 101 278t243 111zM317 -102l1088 1566h127l-1088 -1566h-127zM483 1311q-57 0 -97 -43t-56.5 -102t-16.5 -124q0 -81 19.5 -149.5
t64.5 -115t107 -46.5q55 0 94.5 42t56.5 101.5t17 126.5q0 131 -53.5 220.5t-135.5 89.5zM1352 709q81 0 146 -31t105 -83t61.5 -116t21.5 -133q0 -166 -101.5 -275.5t-245.5 -109.5q-146 0 -238.5 98.5t-92.5 259.5q0 167 101 278.5t243 111.5zM1337 625q-57 0 -97 -43
t-56.5 -102t-16.5 -124q0 -81 19.5 -149.5t64.5 -115t107 -46.5q55 0 94.5 42t56.5 101.5t17 126.5q0 131 -53.5 220.5t-135.5 89.5zM2177 709q81 0 146 -31t105 -83t61.5 -116t21.5 -133q0 -166 -101 -275.5t-245 -109.5q-146 0 -239 98.5t-93 259.5q0 167 101 278.5
t243 111.5zM2163 625q-57 0 -97 -43t-56.5 -102t-16.5 -124q0 -81 19.5 -149.5t64 -115t106.5 -46.5q55 0 94.5 42t56.5 101.5t17 126.5q0 131 -53 220.5t-135 89.5z" />
    <glyph glyph-name="plus.lin" horiz-adv-x="1142" 
d="M1057 549h-422v-426h-127v426h-422v119h422v426h127v-426h422v-119z" />
    <glyph glyph-name="minus.lin" horiz-adv-x="1142" 
d="M1057 549h-971v119h971v-119z" />
    <glyph glyph-name="multiply.lin" horiz-adv-x="1142" 
d="M938 147l-375 377l-368 -377l-84 84l374 377l-374 375l88 88l372 -375l375 385l82 -84l-375 -383l375 -378z" />
    <glyph glyph-name="divide.lin" horiz-adv-x="1142" 
d="M1057 549h-971v119h971v-119zM569 115q-57 0 -99 42.5t-42 100.5q0 57 42 99t99 42q58 0 101 -42t43 -99q0 -58 -42.5 -100.5t-101.5 -42.5zM571 815q-57 0 -99 42.5t-42 100.5q0 57 42 99.5t99 42.5q58 0 101 -42.5t43 -99.5q0 -58 -42.5 -100.5t-101.5 -42.5z" />
    <glyph glyph-name="equal.lin" horiz-adv-x="1142" 
d="M86 723v113h971v-113h-971zM86 424v113h971v-113h-971z" />
    <glyph glyph-name="less.lin" horiz-adv-x="1142" 
d="M1053 979l-820 -375l820 -368v-142l-967 451v121l967 450v-137z" />
    <glyph glyph-name="greater.lin" horiz-adv-x="1142" 
d="M88 231l819 375l-819 369v141l967 -450v-121l-967 -451v137z" />
    <glyph glyph-name="plusminus.lin" horiz-adv-x="1140" 
d="M1057 817h-422v-426h-127v426h-422v119h422v426h127v-426h422v-119zM1057 0h-971v119h971v-119z" />
    <glyph glyph-name="notequal.lin" horiz-adv-x="1142" 
d="M86 723v113h606l203 225h125l-205 -225h242v-113h-342l-168 -186h510v-113h-613l-202 -225h-119l201 225h-238v113h340l166 186h-506z" />
    <glyph glyph-name="approxequal.lin" horiz-adv-x="1142" 
d="M184 690l-92 37q47 101 106 152t146 51q54 0 156 -23l135 -33q139 -32 180 -32q49 0 80.5 29t65.5 92l92 -37q-46 -101 -105.5 -150t-148.5 -49q-73 0 -201 31l-133 35q-94 24 -135 24q-48 0 -80 -31.5t-66 -95.5zM184 362l-92 37q47 101 106 152t146 51q59 0 156 -22
l135 -33q9 -2 44.5 -10.5t51 -12t40.5 -7t44 -3.5q49 0 80.5 29t65.5 92l92 -37q-46 -101 -105.5 -150t-148.5 -49q-73 0 -201 31l-133 35q-94 24 -135 24q-48 0 -80 -31.5t-66 -95.5z" />
    <glyph glyph-name="lessequal.lin" horiz-adv-x="1142" 
d="M1053 1061l-787 -293l787 -291v-137l-967 369v120l967 369v-137zM1053 0h-967v119h967v-119z" />
    <glyph glyph-name="greaterequal.lin" horiz-adv-x="1142" 
d="M872 768l-786 293v137l967 -369v-120l-967 -369v137zM1053 0h-967v119h967v-119z" />
    <glyph glyph-name="numbersign.lin" horiz-adv-x="1214" 
d="M168 866v119h225l56 313h118l-55 -313h301l55 313h119l-55 -313h217v-119h-240l-61 -356h211v-119h-234l-53 -309h-119l54 309h-301l-54 -309h-119l54 309h-209v119h231l62 356h-203zM489 866l-61 -356h301l62 356h-302z" />
    <glyph glyph-name="ordfeminine.lin" horiz-adv-x="874" 
d="M287 590q-77 0 -141 52t-64 142q0 95 65.5 146t204.5 86l176 45v76q-1 88 -44.5 139t-112.5 51q-63 0 -103 -27l-6 -161q-3 -3 -28 -7t-46 -4q-82 0 -82 76q0 64 101.5 130.5t228.5 66.5q130 0 189 -60t59 -188v-416q0 -29 11.5 -39t45.5 -10h82v-49q-100 -45 -166 -45
q-121 0 -125 129h-12q-6 -6 -26 -25.5t-25.5 -24t-22.5 -20t-24 -19.5t-22 -14.5t-25.5 -13.5t-25.5 -8t-30 -6.5t-32 -1.5zM375 709q93 0 153 75v220l-153 -48q-65 -22 -97 -49.5t-32 -72.5q0 -58 38 -91.5t91 -33.5z" />
    <glyph glyph-name="ordmasculine.lin" horiz-adv-x="929" 
d="M236 1020q1 -95 26.5 -175t83 -134t139.5 -52q97 1 154 88t55 218q-1 167 -70.5 263.5t-179.5 94.5q-99 -1 -154.5 -86.5t-53.5 -216.5zM465 580q-125 0 -216 55.5t-135 144t-44 197.5q0 175 115 299.5t280 124.5q182 0 288.5 -105.5t106.5 -289.5q0 -178 -114 -302
t-281 -124z" />
    <glyph glyph-name="dollar.tab" 
d="M588 -256v233h-2q-100 0 -216 29.5t-188 73.5l-26 340h77l113 -279q106 -73 242 -75v516l-105 26q-297 80 -297 334q0 136 109.5 246.5t292.5 134.5v283h84v-277h2q90 0 186 -25t150 -55l12 -317h-70l-104 260q-78 47 -176 53v-485l125 -33q293 -80 293 -324
q0 -78 -37 -151t-97.5 -125.5t-134 -89.5t-149.5 -51v-242h-84zM698 555l-26 6v-489q101 18 164 82.5t63 164.5q0 91 -45 151t-156 85zM360 1008q0 -79 44.5 -133t152.5 -82l31 -9v457q-101 -17 -164.5 -81t-63.5 -152z" />
    <glyph glyph-name="Euro.tab" 
d="M78 670l10 90h143q61 223 238 350t397 127q69 0 138 -20.5t117 -61t48 -88.5q0 -72 -96 -141q-68 114 -140 163.5t-173 49.5q-129 0 -226 -104.5t-128 -274.5h512l-11 -90h-512v-45q0 -57 6 -109h484l-11 -90h-458q39 -166 145 -254t258 -88q80 0 158.5 28.5t140.5 82.5
l41 -45q-153 -197 -403 -197q-117 0 -213.5 36.5t-162 101.5t-106.5 149.5t-57 185.5h-172l10 90h152v41q0 57 6 113h-135z" />
    <glyph glyph-name="sterling.tab" 
d="M225 522v90h269l61 230q32 119 94.5 218t131.5 156.5t133 89t110 31.5q80 0 142.5 -53.5t62.5 -142.5q0 -34 -36.5 -61t-98.5 -33q-35 202 -133 202q-49 0 -96.5 -76t-100.5 -258l-82 -303h344v-90h-369l-6 -28q-81 -297 -297 -445q152 -56 240 -102l104 -53
q44 -22 95 -49t74 -39.5t50 -25t43.5 -16.5t32.5 -4q94 0 66 273q69 0 106 -20.5t37 -73.5q0 -39 -20 -83.5t-56.5 -86.5t-97.5 -69.5t-133 -27.5q-227 0 -543 238l-106 80q-74 -29 -133 -29q-99 0 -99 78q0 35 30 55.5t73 20.5q47 0 166 -39q82 63 133 246l53 200h-244z
" />
    <glyph glyph-name="yen.tab" 
d="M174 508v90h350l-346 586l-131 53v66h514v-66l-153 -53l258 -469h8l268 450l-192 68v70h444v-66l-135 -61l-346 -576v-2h352v-90h-352v-154h352v-90h-352v-149l198 -47v-68h-581v68l200 47v149h-356v90h356v154h-356z" />
    <glyph glyph-name="florin.tab" 
d="M217 559l12 90h269q44 165 126 298.5t189.5 211.5t218.5 78q68 0 102.5 -33t34.5 -78q0 -52 -63 -131q-42 45 -64 66.5t-58.5 43t-70.5 21.5q-28 0 -51 -15t-54 -60t-65.5 -146.5t-70.5 -255.5h307l-21 -90h-307l-12 -63l-96 -465q-21 -102 -52.5 -186.5t-65.5 -141.5
t-74 -101t-76 -68.5t-73 -40t-63 -20.5t-49 -5q-46 0 -90.5 31.5t-44.5 84.5q0 28 15.5 58.5t35.5 44.5q40 -37 61.5 -55.5t59 -41t63.5 -22.5q53 0 85.5 73t64.5 234l135 684h-258z" />
    <glyph glyph-name="zero.tab" 
d="M313 541q0 -94 19 -178t57.5 -156.5t106.5 -115t157 -42.5q113 0 187.5 114t74.5 312q0 219 -95.5 352.5t-237.5 133.5q-116 0 -192.5 -121t-76.5 -299zM623 -39q-229 0 -370.5 148.5t-141.5 396.5q0 141 68 267.5t184 203t249 76.5q233 0 369.5 -153t136.5 -394
q0 -143 -65.5 -268.5t-180 -201t-249.5 -75.5z" />
    <glyph glyph-name="one.tab" 
d="M752 1040v-921l288 -33v-86h-790v86l323 31v751h-307v86l477 86h9z" />
    <glyph glyph-name="two.tab" 
d="M565 262l-135 -115h580v-147h-822v51l86 74q101 87 151.5 131t116 105t95 96t60 79t41 80.5t10.5 75.5q0 93 -58.5 154t-152.5 61q-141 0 -269 -145l-57 41q84 126 178.5 188t214.5 62q150 0 236 -82t86 -203q0 -63 -25 -124.5t-77 -126t-111 -122t-148 -133.5z" />
    <glyph glyph-name="three.tab" 
d="M403 -418q-87 0 -145.5 33t-58.5 92q0 33 23.5 56t64.5 34l151 -127q153 0 249.5 86.5t96.5 214.5q0 137 -123 225t-303 76v86l88 45q279 140 279 332q0 79 -55.5 126.5t-147.5 47.5q-67 0 -134 -34.5t-114 -100.5l-57 41q65 105 167 171.5t220 66.5q77 0 138 -22
t96.5 -58.5t54 -79t18.5 -88.5q0 -102 -55.5 -180t-179.5 -170l-64 -47v-7q69 -10 131 -37.5t112.5 -71t80 -108.5t29.5 -143q0 -93 -53.5 -180t-136 -147t-182 -96t-190.5 -36z" />
    <glyph glyph-name="four.tab" 
d="M686 -399v430h-639v61l766 959h47v-901h285v-119h-285v-430h-174zM203 150h483v620z" />
    <glyph glyph-name="five.tab" 
d="M340 -418q-43 0 -83.5 13.5t-70.5 45t-30 74.5q0 36 23.5 61t64.5 36l155 -142q157 17 256 112t99 232q0 50 -10 93t-41 97t-84 107t-142.5 119t-212.5 137l193 459h534v-170h-520l-63 -160q524 -239 524 -585q0 -141 -89.5 -265t-226 -194t-276.5 -70z" />
    <glyph glyph-name="six.tab" 
d="M1128 1350q-240 -95 -436 -263t-284 -368q130 115 303 115q62 0 123 -24.5t114 -70.5t86 -124t33 -175q0 -139 -65 -250.5t-169.5 -171t-224.5 -59.5q-96 0 -179.5 31t-147.5 90.5t-101 153.5t-37 212q0 167 78 324.5t211.5 281.5t306.5 219t369 150zM582 715
q-112 0 -205 -78q-29 -101 -29 -191q0 -183 81.5 -293t184.5 -110q117 0 183.5 82t66.5 223q0 175 -79.5 271t-202.5 96z" />
    <glyph glyph-name="seven.tab" 
d="M334 -420l-144 60l768 1206h-757v180h938v-18l-647 -1131z" />
    <glyph glyph-name="eight.tab" 
d="M172 309q0 105 75 187.5t242 179.5l-75 57q-189 140 -189 309q0 146 123.5 249.5t304.5 103.5q157 0 264 -86t107 -215q0 -199 -274 -383l38 -27q62 -44 104.5 -80.5t82.5 -81.5t60 -94t20 -102q0 -111 -63.5 -196.5t-161.5 -128t-212 -42.5q-194 0 -320 97t-126 253z
M610 586l-61 45q-104 -81 -147.5 -150.5t-43.5 -167.5q0 -45 16 -90.5t46.5 -87.5t83.5 -68t119 -26q123 0 189.5 64t66.5 151q0 24 -4.5 47t-19 47t-24 40.5t-36 42t-38 37.5t-48 40.5t-47 36t-52.5 39.5zM401 1106q0 -81 48 -146.5t145 -132.5l98 -71q66 63 110 144
t44 163q0 116 -64 183t-159 67q-90 0 -156 -59t-66 -148z" />
    <glyph glyph-name="nine.tab" 
d="M133 -350q104 44 200 100.5t192.5 133t173.5 177t120 211.5q-124 -108 -266 -108q-179 0 -290 117.5t-111 291.5q0 90 30.5 174.5t86.5 152t144 108.5t195 41q128 0 234 -56.5t170.5 -167t64.5 -254.5q0 -180 -74 -343t-202.5 -287.5t-294.5 -216.5t-356 -144zM639 287
q51 0 108 19.5t99 55.5q22 86 22 181q0 205 -80.5 313.5t-203.5 108.5q-105 0 -170.5 -82t-65.5 -238q0 -161 82.5 -259.5t208.5 -98.5z" />
    <glyph glyph-name="cent.tab" 
d="M557 -256l18 229q-165 25 -268.5 145.5t-103.5 327.5q0 109 39.5 205.5t105 164t147.5 111t169 56.5l24 270h84l-24 -264q120 -4 199 -63t79 -142q0 -96 -104 -96l-64 6l-20 174q-61 31 -97 35l-69 -790q44 -7 76 -7q38 0 77.5 14t68 33.5t51.5 39t35 33.5l11 14l41 -27
q-4 -10 -11.5 -26.5t-38.5 -58.5t-69.5 -74.5t-106.5 -59t-147 -27.5l-18 -223h-84zM383 526q0 -130 54.5 -233t152.5 -152l67 762q-117 -18 -195.5 -123t-78.5 -254z" />
    <glyph glyph-name="percent.tab" horiz-adv-x="1843" 
d="M463 1239q76 0 137.5 -31t99 -83t57 -115.5t19.5 -132.5q0 -167 -94 -276t-231 -109q-138 0 -225 98.5t-87 259.5q0 168 94.5 278.5t229.5 110.5zM377 -102l962 1392h121l-962 -1392h-121zM449 1155q-42 0 -75 -24.5t-52 -64.5t-29 -86t-10 -93q0 -127 48.5 -219.5
t137.5 -92.5q54 0 92.5 42t55 102t16.5 127q0 130 -52.5 219.5t-131.5 89.5zM1391 709q61 0 113 -20.5t88.5 -55.5t62 -81.5t37.5 -98.5t12 -107q0 -166 -95 -275.5t-231 -109.5q-138 0 -224.5 98.5t-86.5 259.5q0 168 94.5 279t229.5 111zM1376 625q-55 0 -94 -43
t-55.5 -102t-16.5 -124q0 -80 19.5 -149t63 -115.5t104.5 -46.5q53 0 91.5 42t54.5 101.5t16 126.5q0 130 -52 220t-131 90z" />
    <glyph glyph-name="perthousand.tab" horiz-adv-x="2457" 
d="M373 1239q76 0 137.5 -31t99 -83t57 -115.5t19.5 -132.5q0 -166 -95 -275.5t-231 -109.5q-138 0 -224.5 98.5t-86.5 259.5q0 168 94.5 278.5t229.5 110.5zM287 -102l962 1392h121l-962 -1392h-121zM358 1155q-55 0 -94 -43t-55 -101.5t-16 -123.5q0 -127 48.5 -219.5
t137.5 -92.5q53 0 91.5 42.5t54.5 102t16 126.5q0 130 -52 219.5t-131 89.5zM1300 709q101 0 174 -54t106.5 -134.5t33.5 -174.5q0 -166 -95 -275.5t-231 -109.5q-138 0 -224.5 98.5t-86.5 259.5q0 168 94 279t229 111zM1286 625q-55 0 -94 -43t-55.5 -102t-16.5 -124
q0 -80 19.5 -149t63 -115.5t104.5 -46.5q53 0 91 42t54 101t16 127q0 131 -51.5 220.5t-130.5 89.5zM2056 709q102 0 175 -54t106 -134.5t33 -174.5q0 -166 -94 -275.5t-230 -109.5q-139 0 -225 98t-86 260q0 168 93.5 279t227.5 111zM2044 625q-55 0 -94 -43t-55.5 -102
t-16.5 -124q0 -127 47.5 -219t136.5 -92q54 0 92.5 42t55 101.5t16.5 126.5q0 131 -51.5 220.5t-130.5 89.5z" />
    <glyph glyph-name="plus.tab" 
d="M1100 426h-422v-426h-127v426h-422v119h422v426h127v-426h422v-119z" />
    <glyph glyph-name="minus.tab" 
d="M1100 426h-971v119h971v-119z" />
    <glyph glyph-name="multiply.tab" 
d="M985 25l-375 376l-368 -376l-84 84l374 376l-374 375l88 88l372 -375l375 385l82 -84l-375 -382l375 -379z" />
    <glyph glyph-name="divide.tab" 
d="M1100 426h-971v119h971v-119zM612 -8q-57 0 -99 42.5t-42 100.5q0 57 42 99t99 42q58 0 101 -42t43 -99q0 -58 -42.5 -100.5t-101.5 -42.5zM614 692q-57 0 -99 43t-42 101q0 57 42 99t99 42q58 0 101 -42t43 -99q0 -58 -43 -101t-101 -43z" />
    <glyph glyph-name="equal.tab" 
d="M129 600v113h971v-113h-971zM129 301v113h971v-113h-971z" />
    <glyph glyph-name="less.tab" 
d="M1096 856l-820 -375l820 -368v-142l-967 451v121l967 450v-137z" />
    <glyph glyph-name="greater.tab" 
d="M131 109l819 374l-819 369v141l967 -450v-121l-967 -451v138z" />
    <glyph glyph-name="plusminus.tab" 
d="M1100 692h-422v-426h-127v426h-422v119h422v426h127v-426h422v-119zM1100 0h-971v119h971v-119z" />
    <glyph glyph-name="notequal.tab" 
d="M129 600v113h606l203 225h125l-205 -225h242v-113h-342l-168 -186h510v-113h-613l-202 -225h-119l201 225h-238v113h340l166 186h-506z" />
    <glyph glyph-name="approxequal.tab" 
d="M227 567l-92 37q47 101 106 152t146 51q54 0 156 -23l135 -32q9 -2 44.5 -10.5t51 -12t40.5 -7t44 -3.5q49 0 80.5 29t65.5 92l92 -37q-46 -101 -105.5 -150t-148.5 -49q-73 0 -201 31l-133 35q-94 24 -135 24q-48 0 -80 -31.5t-66 -95.5zM227 240l-92 36q47 101 106 152
t146 51q59 0 156 -22l135 -33q9 -2 44.5 -10.5t51 -12t40.5 -7t44 -3.5q49 0 80.5 29t65.5 92l92 -37q-46 -101 -105.5 -150t-148.5 -49q-73 0 -201 31l-133 35q-98 25 -135 25q-48 0 -80 -31.5t-66 -95.5z" />
    <glyph glyph-name="lessequal.tab" 
d="M1096 938l-787 -293l787 -291v-137l-967 369v121l967 368v-137zM1096 0h-967v119h967v-119z" />
    <glyph glyph-name="greaterequal.tab" 
d="M915 645l-786 293v137l967 -368v-121l-967 -369v137zM1096 0h-967v119h967v-119z" />
    <glyph glyph-name="parenleft.tab" horiz-adv-x="614" 
d="M698 -369h-112q-186 197 -288.5 432t-102.5 496q0 266 105.5 503.5t295.5 436.5h111q-176 -226 -257 -441.5t-81 -498.5q0 -274 78.5 -490t250.5 -438z" />
    <glyph glyph-name="parenright.tab" horiz-adv-x="614" 
d="M-84 1499h113q186 -197 288.5 -432t102.5 -496q0 -265 -106 -503t-296 -437h-110q176 226 257 441.5t81 498.5q0 273 -79 489t-251 439z" />
    <glyph glyph-name="bracketleft.tab" horiz-adv-x="614" 
d="M588 -371h-373v1872h373v-80h-205v-1712h205v-80z" />
    <glyph glyph-name="bracketright.tab" horiz-adv-x="614" 
d="M27 1501h372v-1872h-372v80h204v1712h-204v80z" />
    <glyph glyph-name="braceleft.tab" horiz-adv-x="614" 
d="M262 567v-4q89 -35 128.5 -86t45.5 -149l21 -361q6 -118 26 -174.5t59.5 -77t119.5 -20.5v-66h-31q-107 0 -177.5 23t-109.5 71t-54 110.5t-14 154.5l3 356q0 79 -39 124.5t-105 47.5l-78 2v94l78 2q66 2 105 47.5t39 124.5l-3 357q-1 92 14 154.5t54 110.5t109.5 70.5
t177.5 22.5h31v-65q-80 0 -119.5 -20.5t-59.5 -77.5t-26 -175l-21 -360q-6 -98 -45.5 -149.5t-128.5 -86.5z" />
    <glyph glyph-name="braceright.tab" horiz-adv-x="614" 
d="M362 563v4q-89 35 -128.5 86.5t-45.5 149.5l-20 360q-6 118 -26 175t-59.5 77.5t-119.5 20.5v65h31q107 0 177.5 -22.5t109 -70.5t53.5 -110.5t14 -154.5l-2 -357q0 -79 38.5 -124.5t104.5 -47.5l78 -2v-94l-78 -2q-66 -2 -104.5 -47.5t-38.5 -124.5l2 -356
q1 -92 -14 -154.5t-53.5 -110.5t-109 -71t-177.5 -23h-31v66q80 0 119.5 20.5t59.5 77t26 174.5l20 361q6 98 45.5 149t128.5 86z" />
    <glyph glyph-name="numbersign.tab" 
d="M176 784v119h225l56 314h118l-55 -314h301l56 314h118l-55 -314h217v-119h-239l-62 -356h211v-119h-233l-54 -309h-118l53 309h-301l-54 -309h-118l53 309h-209v119h231l62 356h-203zM498 784l-62 -356h301l62 356h-301z" />
    <glyph glyph-name="period.tab" horiz-adv-x="614" 
d="M305 -8q-57 0 -99 42.5t-42 100.5q0 57 42 99t99 42q58 0 101 -42t43 -99q0 -58 -42.5 -100.5t-101.5 -42.5z" />
    <glyph glyph-name="comma.tab" horiz-adv-x="614" 
d="M119 -367q90 61 136 141t46 154q0 159 -154 197q-7 44 -1.5 86t37 72t81.5 30q79 0 135 -64.5t56 -191.5q0 -137 -83.5 -271t-213.5 -204q-35 43 -39 51z" />
    <glyph glyph-name="colon.tab" horiz-adv-x="614" 
d="M303 -8q-57 0 -99 42.5t-42 100.5q0 57 42 99t99 42q58 0 100.5 -42t42.5 -99q0 -59 -42 -101t-101 -42zM309 690q-58 0 -100.5 42.5t-42.5 101.5q0 57 42.5 99t100.5 42q57 0 99.5 -42t42.5 -99q0 -58 -42.5 -101t-99.5 -43z" />
    <glyph glyph-name="semicolon.tab" horiz-adv-x="614" 
d="M328 690q-58 0 -101 43t-43 101q0 57 43 99t101 42q57 0 99 -42t42 -99q0 -58 -42 -101t-99 -43zM143 -367q90 61 136.5 141t46.5 154q0 159 -154 197q-7 44 -1.5 86t37 72t81.5 30q78 0 134 -64.5t56 -191.5q0 -137 -83.5 -271t-213.5 -204q-35 43 -39 51z" />
    <glyph glyph-name="space.tab" horiz-adv-x="614" 
 />
    <glyph glyph-name="dollar.lintab" 
d="M575 -256v246h-2q-101 0 -216.5 29.5t-186.5 74.5l-27 346h78l113 -282q103 -76 241 -78v528l-110 29q-301 76 -301 336q0 153 116 258t295 129v246h84v-240h3q90 0 186 -25.5t149 -56.5l13 -323h-70l-104 266q-78 47 -177 53v-496l132 -34q148 -42 222 -127.5t74 -204.5
q0 -82 -37.5 -156t-99 -126.5t-137 -88.5t-154.5 -49v-254h-84zM684 582l-25 6v-502q101 18 163.5 85t62.5 169q0 53 -16.5 97.5t-63.5 85.5t-121 59zM352 1042q0 -82 43 -139t150 -86l30 -8v467q-100 -15 -161.5 -79.5t-61.5 -154.5z" />
    <glyph glyph-name="Euro.lintab" 
d="M104 741l11 90h112q61 251 242.5 408.5t400.5 157.5q69 0 137.5 -23t116 -68t47.5 -100q0 -43 -22.5 -76.5t-81.5 -70.5q-126 227 -293 227q-120 0 -228.5 -128t-139.5 -327h468l-12 -90h-467v-47q0 -68 6 -127h441l-13 -90h-415q20 -105 60 -182.5t93.5 -121t111 -63.5
t122.5 -20q186 0 317 125l43 -51q-156 -211 -407 -211q-225 0 -367.5 139.5t-175.5 384.5h-139l10 90h121v51q0 68 8 123h-107z" />
    <glyph glyph-name="sterling.lintab" 
d="M190 532v91h250l58 340q18 110 54.5 201t81.5 150.5t97.5 101t102 59.5t96.5 18q83 0 155 -57t72 -138q0 -45 -34.5 -73t-108.5 -43q-48 223 -154 223q-31 0 -54.5 -23.5t-50 -100t-48.5 -210.5l-76 -448h360v-91h-375l-2 -14q-27 -158 -105 -272t-183 -187
q113 -45 233 -106l55 -29q182 -97 246 -126t96 -29q35 0 55 30t23.5 75t-0.5 91t-14 84q158 10 158 -94q0 -39 -19 -86t-55 -92t-97.5 -75t-136.5 -30q-125 0 -252 62t-290 176l-123 86q-74 -35 -127 -35q-47 0 -72.5 22.5t-25.5 61.5q0 36 30.5 59t73.5 23q61 0 168 -39
q115 97 147 283l27 161h-236z" />
    <glyph glyph-name="yen.lintab" 
d="M154 528v90h366l-358 623l-131 53v66h514v-66l-154 -53l268 -528h9l278 510l-192 67v70h444v-66l-135 -61l-354 -610v-5h364v-90h-364v-153h364v-90h-364v-170l194 -47v-68h-577v68l196 47v170h-368v90h368v153h-368z" />
    <glyph glyph-name="florin.lintab" 
d="M150 559l12 90h284l17 78q37 182 121 334t198.5 241t233.5 89q68 0 102.5 -33t34.5 -78q0 -52 -63 -131q-42 45 -64 66.5t-58.5 43t-70.5 21.5q-24 0 -44 -9.5t-48 -46.5t-54 -102.5t-59.5 -185.5t-68.5 -287h319l-20 -90h-318l-108 -528q-21 -102 -52.5 -186.5
t-65.5 -141.5t-74 -101t-76 -68.5t-73 -40t-63 -20.5t-49 -5q-46 0 -90.5 31.5t-44.5 84.5q0 28 15.5 58.5t35.5 44.5q40 -37 61.5 -55.5t59 -41t63.5 -22.5q53 0 85.5 73t64.5 234l135 684h-278z" />
    <glyph glyph-name="zero.lintab" 
d="M934 635q0 297 -98 485.5t-240 188.5q-131 0 -216 -162t-85 -420q0 -301 94 -487.5t242 -186.5q136 0 219.5 162t83.5 420zM612 1395q123 0 224.5 -58t166 -156t99.5 -223t35 -262q0 -335 -147.5 -534t-377.5 -199q-228 0 -375 192.5t-147 503.5q0 336 146 536t376 200z
" />
    <glyph glyph-name="one.lintab" 
d="M748 1397v-1272l333 -37v-88h-860v88l340 35v1067l-338 -27l-14 82l518 152h21z" />
    <glyph glyph-name="two.lintab" 
d="M526 348l-194 -180h704v-168h-895v100l90 93q56 58 133 133.5t124.5 122t104.5 106t90.5 104.5t64 97.5t43.5 103.5t12 105q-1 83 -40.5 145.5t-98 92.5t-125.5 30q-85 0 -157.5 -50.5t-152.5 -150.5l-65 45q178 318 440 318q179 0 284.5 -101t108.5 -254q2 -73 -21 -144
t-57.5 -128.5t-98 -129t-117 -123.5t-140.5 -133q-25 -22 -37 -34z" />
    <glyph glyph-name="three.lintab" 
d="M557 57q117 0 199 74t82 195q0 102 -64.5 176t-167 109.5t-229.5 35.5v94q381 136 381 330q0 77 -53 126.5t-142 49.5q-135 0 -305 -160l-53 60q97 118 196.5 183t225.5 65q147 0 234 -78t87 -201q0 -35 -9.5 -67.5t-22.5 -57.5t-38.5 -52t-45.5 -44.5t-56.5 -42t-58 -38
t-63.5 -37.5q-19 -11 -29 -17v-6q71 -10 139 -38.5t126 -72t93 -108t35 -138.5q0 -89 -46.5 -170t-120.5 -137t-168 -89.5t-189 -33.5q-132 0 -216.5 51.5t-84.5 131.5q0 52 34 79.5t86 30.5l146 -188q50 -15 98 -15z" />
    <glyph glyph-name="four.lintab" 
d="M840 1354v-848h280v-135h-280v-256l174 -49v-66h-531v68l174 47v256h-575v78l692 921zM229 506h428v577z" />
    <glyph glyph-name="five.lintab" 
d="M952 1180h-602v-361q50 24 112 38.5t101 14.5q206 0 333.5 -113.5t127.5 -303.5q0 -107 -46 -200t-120.5 -155t-167 -97.5t-186.5 -35.5q-126 0 -213.5 52t-87.5 131q0 52 34.5 79.5t86.5 30.5l147 -190q49 -11 86 -11q136 0 210.5 86.5t74.5 237.5q0 138 -89.5 233
t-246.5 95q-112 0 -230 -68h-14v717h690v-180z" />
    <glyph glyph-name="six.lintab" 
d="M1020 1358q-69 -24 -137.5 -58t-147.5 -88.5t-144 -120t-121 -157.5t-85 -195q66 57 137 90t176 33q104 0 194.5 -50t149 -150t58.5 -230q0 -89 -28.5 -167t-75.5 -133t-107.5 -95t-125.5 -59t-128 -19q-222 0 -351.5 144.5t-129.5 369.5q0 127 29 242t78.5 203.5
t118.5 165.5t144 132t160 99t162.5 71t154.5 44zM608 737q-57 0 -106 -14.5t-75 -30t-60 -41.5q-13 -76 -13 -151q0 -128 35 -229t105.5 -161.5t167.5 -60.5q108 0 176.5 87.5t68.5 217.5q0 167 -84 275t-215 108z" />
    <glyph glyph-name="seven.lintab" 
d="M481 0h-170l604 1180h-708v180h878v-27z" />
    <glyph glyph-name="eight.lintab" 
d="M168 315q0 28 5.5 55t13 48.5t22.5 44t27.5 38.5t34.5 36t37 32t42 30t42 27.5t44.5 27.5t42.5 26l-24 16q-117 73 -175.5 153t-58.5 189q0 150 126 253.5t319 103.5q160 0 263 -81.5t103 -213.5q0 -64 -24 -122.5t-67 -107.5t-86.5 -85.5t-98.5 -73.5h2
q107 -66 170 -118.5t100 -117t37 -139.5q0 -170 -132 -273.5t-327 -103.5q-190 0 -314 99.5t-124 256.5zM623 592l-82 49q-100 -79 -139.5 -146.5t-39.5 -162.5q0 -48 17.5 -98t50.5 -94.5t89 -72.5t126 -28q63 0 111.5 21.5t76 56t41 72.5t13.5 77q0 53 -19 99t-58 86
t-81 71t-106 70zM395 1081q0 -83 39.5 -139t118.5 -104l131 -82q166 150 166 325q0 111 -61.5 170.5t-161.5 59.5t-166 -64.5t-66 -165.5z" />
    <glyph glyph-name="nine.lintab" 
d="M225 18q67 25 128 54t142 81.5t145 114t122 153t88 195.5q-74 -67 -137.5 -94.5t-147.5 -27.5q-87 0 -164.5 29.5t-136 83.5t-93 136t-34.5 181q0 89 28.5 167t76 133t108 95t125.5 59t129 19q107 0 197.5 -41t152.5 -112t96.5 -166.5t34.5 -203.5q0 -124 -28 -234.5
t-76 -195.5t-115.5 -159t-141 -127t-158.5 -95.5t-163 -69.5t-159 -46zM643 618q102 0 227 87q13 76 13 151q0 201 -79.5 327t-223.5 126q-109 0 -179.5 -92.5t-70.5 -235.5q0 -155 87 -259t226 -104z" />
    <glyph glyph-name="percent.lintab" horiz-adv-x="1843" 
d="M514 1395q101 0 175 -54t108 -135t34 -174q0 -166 -96 -275.5t-233 -109.5q-138 0 -227 99t-89 260q0 168 96 278.5t232 110.5zM322 -102l1087 1566h125l-1088 -1566h-124zM500 1311q-55 0 -94 -43t-55.5 -102t-16.5 -124q0 -127 48.5 -219t137.5 -92q54 0 92.5 42
t55 101.5t16.5 126.5q0 130 -52.5 220t-131.5 90zM1339 709q101 0 175 -54t108.5 -135t34.5 -174q0 -166 -97 -275.5t-233 -109.5q-138 0 -226.5 98.5t-88.5 259.5q0 168 95.5 279t231.5 111zM1325 625q-55 0 -94 -43t-55.5 -102t-16.5 -124q0 -80 19.5 -149t63 -115.5
t104.5 -46.5q53 0 91 42t54 101t16 127q0 131 -51.5 220.5t-130.5 89.5z" />
    <glyph glyph-name="perthousand.lintab" horiz-adv-x="2457" 
d="M434 1395q101 0 174.5 -54t107.5 -135t34 -174q0 -166 -95.5 -275.5t-232.5 -109.5q-138 0 -225.5 99t-87.5 260q0 168 94.5 278.5t230.5 110.5zM240 -102l1087 1566h125l-1087 -1566h-125zM420 1311q-55 0 -93.5 -43t-54.5 -102t-16 -124q0 -127 47.5 -219t136.5 -92
q53 0 91.5 42t54.5 101.5t16 126.5q0 131 -51.5 220.5t-130.5 89.5zM1255 709q101 0 174.5 -54t107.5 -135t34 -174q0 -166 -96 -275.5t-232 -109.5q-138 0 -225.5 98.5t-87.5 259.5q0 168 95 279t230 111zM1241 625q-55 0 -93.5 -43t-54.5 -102t-16 -124q0 -127 48 -219
t137 -92q53 0 90.5 42t53 101t15.5 127q0 131 -51 220.5t-129 89.5zM2034 709q76 0 137.5 -31t99.5 -83t58 -116t20 -133q0 -166 -96 -275.5t-232 -109.5q-138 0 -225.5 98.5t-87.5 259.5q0 168 95 279t231 111zM2019 625q-55 0 -93.5 -43t-54.5 -102t-16 -124
q0 -127 48 -219t137 -92q53 0 91 42t53.5 101t15.5 127q0 131 -51 220.5t-130 89.5z" />
    <glyph glyph-name="numbersign.lintab" 
d="M154 866v119h225l55 313h119l-55 -313h301l55 313h119l-55 -313h217v-119h-240l-61 -356h210v-119h-233l-53 -309h-119l53 309h-301l-53 -309h-119l53 309h-209v119h232l61 356h-202zM475 866l-61 -356h301l61 356h-301z" />
    <glyph glyph-name="plus.lintab" 
d="M1100 569h-422v-426h-127v426h-422v119h422v426h127v-426h422v-119z" />
    <glyph glyph-name="minus.lintab" 
d="M1100 569h-971v119h971v-119z" />
    <glyph glyph-name="multiply.lintab" 
d="M985 168l-375 377l-368 -377l-84 84l374 377l-374 375l88 88l372 -375l375 385l82 -84l-375 -383l375 -379z" />
    <glyph glyph-name="divide.lintab" 
d="M1100 569h-971v119h971v-119zM612 135q-57 0 -99 43t-42 101q0 57 42 99t99 42q58 0 101 -42t43 -99q0 -59 -43 -101.5t-101 -42.5zM614 836q-57 0 -99 42.5t-42 100.5q0 57 42 99t99 42q58 0 101 -42t43 -99q0 -58 -42.5 -100.5t-101.5 -42.5z" />
    <glyph glyph-name="equal.lintab" 
d="M129 743v113h971v-113h-971zM129 444v113h971v-113h-971z" />
    <glyph glyph-name="less.lintab" 
d="M1096 999l-820 -374l820 -369v-141l-967 450v121l967 451v-138z" />
    <glyph glyph-name="greater.lintab" 
d="M131 252l819 375l-819 368v142l967 -451v-121l-967 -450v137z" />
    <glyph glyph-name="plusminus.lintab" 
d="M1100 817h-422v-426h-127v426h-422v119h422v426h127v-426h422v-119zM1100 0h-971v119h971v-119z" />
    <glyph glyph-name="notequal.lintab" 
d="M129 743v113h606l203 225h125l-205 -225h242v-113h-342l-168 -186h510v-113h-613l-202 -225h-119l201 225h-238v113h340l166 186h-506z" />
    <glyph glyph-name="approxequal.lintab" 
d="M227 711l-92 37q47 101 106 151.5t146 50.5q59 0 156 -22l135 -33q9 -2 44.5 -10.5t51 -12t40.5 -7t44 -3.5q49 0 80.5 29t65.5 92l92 -37q-46 -101 -105.5 -149.5t-148.5 -48.5q-77 0 -201 30l-133 35q-98 25 -135 25q-48 0 -80 -31.5t-66 -95.5zM227 383l-92 37
q47 101 106 152t146 51q54 0 156 -23l135 -33q139 -32 180 -32q49 0 80.5 28.5t65.5 91.5l92 -37q-46 -101 -105.5 -149.5t-148.5 -48.5q-73 0 -201 31l-133 34q-98 25 -135 25q-48 0 -80 -31.5t-66 -95.5z" />
    <glyph glyph-name="lessequal.lintab" 
d="M1096 1061l-787 -293l787 -291v-137l-967 369v120l967 369v-137zM1096 0h-967v119h967v-119z" />
    <glyph glyph-name="greaterequal.lintab" 
d="M915 768l-786 293v137l967 -369v-120l-967 -369v137zM1096 0h-967v119h967v-119z" />
    <glyph glyph-name="parenleft.uctab" horiz-adv-x="614" 
d="M688 -287h-113q-186 197 -288.5 432t-102.5 496q0 265 106 503t296 437h110q-176 -226 -257 -441.5t-81 -498.5q0 -273 79 -489t251 -439z" />
    <glyph glyph-name="parenright.uctab" horiz-adv-x="614" 
d="M-74 1581h113q186 -197 288.5 -432t102.5 -496q0 -266 -105.5 -503.5t-295.5 -436.5h-111q176 226 257 441.5t81 498.5q0 273 -79 489t-251 439z" />
    <glyph glyph-name="bracketleft.uctab" horiz-adv-x="614" 
d="M573 -289h-372v1872h372v-80h-204v-1712h204v-80z" />
    <glyph glyph-name="bracketright.uctab" horiz-adv-x="614" 
d="M31 1583h372v-1872h-372v80h205v1712h-205v80z" />
    <glyph glyph-name="braceleft.uctab" horiz-adv-x="614" 
d="M246 649v-4q89 -35 128.5 -86t45.5 -149l20 -361q6 -118 26 -174.5t59.5 -77t119.5 -20.5v-66h-31q-107 0 -177.5 23t-109 71t-53.5 110.5t-14 154.5l2 356q0 79 -38.5 124.5t-104.5 47.5l-78 2v94l78 2q66 2 104.5 47.5t38.5 124.5l-2 357q-1 92 14 154.5t53.5 110.5
t109 70.5t177.5 22.5h31v-65q-80 0 -119.5 -20.5t-59.5 -77.5t-26 -175l-20 -360q-6 -98 -45.5 -149.5t-128.5 -86.5z" />
    <glyph glyph-name="braceright.uctab" horiz-adv-x="614" 
d="M369 645v4q-89 35 -128.5 86.5t-45.5 149.5l-21 360q-6 118 -26 175t-59.5 77.5t-119.5 20.5v65h31q107 0 177.5 -22.5t109 -70.5t53.5 -110.5t14 -154.5l-2 -357q0 -79 39 -124.5t105 -47.5l77 -2v-94l-77 -2q-66 -2 -105 -47.5t-39 -124.5l2 -356q1 -92 -14 -154.5
t-53.5 -110.5t-109 -71t-177.5 -23h-31v66q80 0 119.5 20.5t59.5 77t26 174.5l21 361q6 98 45.5 149t128.5 86z" />
    <glyph glyph-name="zero.num" horiz-adv-x="1044" 
d="M543 610q106 -1 160.5 84t54.5 211q3 171 -68.5 286.5t-181.5 115.5q-57 0 -101 -28t-69 -73.5t-37.5 -95.5t-13.5 -102q-1 -101 26.5 -189.5t88 -148t141.5 -60.5zM522 528q-183 0 -302.5 122.5t-119.5 297.5q0 187 120.5 312.5t299.5 125.5q102 0 185 -37t134 -98
t78 -135t27 -153q0 -184 -121.5 -309.5t-300.5 -125.5z" />
    <glyph glyph-name="one.num" horiz-adv-x="722" 
d="M469 1366v-711l205 -20v-70h-590v70l213 22v555h-225v62l385 92h12z" />
    <glyph glyph-name="two.num" horiz-adv-x="784" 
d="M59 565v66l93 78q197 165 241 209q91 88 104 157q3 16 3 33q0 61 -46 105t-114 44t-118.5 -29.5t-106.5 -90.5l-52 49q46 62 88.5 102.5t107 69t140.5 28.5q116 0 190 -61t75 -168q0 -25 -3.5 -47t-14.5 -45t-20.5 -40.5t-32 -42t-36.5 -39t-48 -43t-51.5 -43t-61.5 -49
t-66 -52.5l-74 -60h459v-131h-656z" />
    <glyph glyph-name="three.num" horiz-adv-x="811" 
d="M334 528q-126 0 -193 42.5t-67 101.5q0 38 26.5 62t71.5 30l100 -139q51 -15 111 -15q81 0 136.5 39.5t55.5 114.5q0 81 -78 127t-227 39v67l35 11q119 35 168 79.5t49 100.5q0 41 -33.5 65.5t-87.5 24.5q-81 0 -135.5 -29.5t-120.5 -89.5l-47 47q82 92 167 136t192 44
t174 -44t67 -117q0 -62 -62.5 -116.5t-150.5 -86.5v-6q132 -14 197.5 -72t65.5 -133q0 -77 -58 -142.5t-153.5 -103t-202.5 -37.5z" />
    <glyph glyph-name="four.num" horiz-adv-x="843" 
d="M31 754v47l510 571l61 -4v-510h203v-104h-203v-189h-160v189h-411zM170 858h272v305z" />
    <glyph glyph-name="five.num" horiz-adv-x="817" 
d="M322 528q-110 0 -176 38.5t-66 103.5q0 38 31 62.5t73 27.5l103 -133q30 -17 78 -17q103 0 158 45t55 119q0 85 -65 129.5t-161 44.5q-121 0 -200 -51h-23v465h547v-133h-461v-180q80 34 191 34q138 0 227.5 -64.5t89.5 -193.5q0 -90 -63 -160t-153 -103.5t-185 -33.5z
" />
    <glyph glyph-name="six.num" horiz-adv-x="905" 
d="M457 528q-168 0 -262.5 98.5t-94.5 264.5q0 71 20.5 134t56 111.5t85 89.5t105 70t119.5 52t124 37t123 22l21 -68q-67 -17 -118 -34t-109.5 -44.5t-100 -60t-76.5 -80.5t-53 -106q97 73 225 73q125 0 209 -70.5t84 -182.5q0 -89 -53 -160.5t-134.5 -108.5t-170.5 -37z
M477 606q80 0 122 52t42 139q0 92 -49.5 150.5t-136.5 58.5t-174 -60q-5 -62 -5 -76q0 -115 52.5 -189.5t148.5 -74.5z" />
    <glyph glyph-name="seven.num" horiz-adv-x="749" 
d="M133 565l442 656h-493v141h647v-25l-444 -772h-152z" />
    <glyph glyph-name="eight.num" horiz-adv-x="868" 
d="M424 528q-145 0 -239.5 57.5t-94.5 149.5q0 74 50.5 121.5t156.5 93.5v4q-82 38 -122 84.5t-40 112.5q0 104 89 169.5t235 65.5q134 0 209 -55.5t75 -134.5q0 -112 -180 -190v-5q118 -47 164.5 -93t46.5 -124q0 -109 -99.5 -182.5t-250.5 -73.5zM453 598q82 0 128 37.5
t46 91.5q0 51 -38 83.5t-149 80.5l-82 35q-106 -61 -106 -164q0 -76 55.5 -120t145.5 -44zM502 1028q88 58 88 150q0 63 -40 102t-112 39q-71 0 -111 -34.5t-40 -82.5q0 -45 31 -76.5t128 -72.5z" />
    <glyph glyph-name="nine.num" horiz-adv-x="905" 
d="M449 1386q168 0 262 -100.5t94 -267.5q0 -101 -39.5 -183.5t-102 -137t-150.5 -94.5t-175 -61.5t-186 -33.5l-21 67q75 18 128.5 33.5t115.5 43t104.5 59.5t78 80.5t52.5 109.5q-98 -74 -227 -74q-125 0 -209 71t-84 183q0 89 53.5 160.5t135 108t170.5 36.5zM428 1309
q-80 0 -122 -52t-42 -139q0 -91 46.5 -147t127.5 -56q114 0 187 54q4 46 4 69q0 124 -52 197.5t-149 73.5z" />
    <glyph glyph-name="zero.den" horiz-adv-x="1044" 
d="M543 45q106 -1 160.5 84t54.5 211q3 171 -68.5 286t-181.5 115q-57 0 -101 -28t-69 -73.5t-37.5 -95.5t-13.5 -102q-1 -101 26.5 -189t88 -147.5t141.5 -60.5zM522 -37q-183 0 -302.5 122.5t-119.5 297.5q0 187 120.5 312.5t299.5 125.5q102 0 185 -37t134 -98.5
t78 -135.5t27 -153q0 -184 -121.5 -309t-300.5 -125z" />
    <glyph glyph-name="one.den" horiz-adv-x="722" 
d="M469 801v-711l205 -20v-70h-590v70l213 22v555h-225v62l385 92h12z" />
    <glyph glyph-name="two.den" horiz-adv-x="784" 
d="M59 0v66l93 77q197 166 244 212q90 88 101 158q3 15 3 30q0 61 -46 105t-114 44t-118.5 -30t-106.5 -91l-52 50q46 62 88.5 102.5t107 69t140.5 28.5q116 0 190 -61t75 -168q0 -25 -3.5 -47t-15 -45.5t-20 -40.5t-32 -42t-36.5 -39t-48 -43t-51.5 -43t-62 -50t-65.5 -52
l-74 -59h459v-131h-656z" />
    <glyph glyph-name="three.den" horiz-adv-x="811" 
d="M334 -37q-126 0 -193 42t-67 101q0 38 26.5 62.5t71.5 30.5l100 -140q47 -14 111 -14q81 0 136.5 39.5t55.5 114.5q0 81 -78 127t-227 39v67l35 10q217 63 217 181q0 41 -33.5 65.5t-87.5 24.5q-81 0 -135.5 -29.5t-120.5 -89.5l-47 47q82 92 167 136t192 44t174 -44.5
t67 -117.5q0 -62 -62.5 -115.5t-150.5 -86.5v-6q132 -14 197.5 -72t65.5 -133q0 -77 -58 -142.5t-153.5 -103t-202.5 -37.5z" />
    <glyph glyph-name="four.den" horiz-adv-x="843" 
d="M31 188v48l510 571l61 -4v-510h203v-105h-203v-188h-160v188h-411zM170 293h272v305z" />
    <glyph glyph-name="five.den" horiz-adv-x="817" 
d="M322 -37q-110 0 -176 38t-66 103q0 38 31 63t73 28l103 -134q28 -16 78 -16q103 0 158 45t55 119q0 85 -65 129.5t-161 44.5q-121 0 -200 -51h-23v465h547v-133h-461v-181q82 35 191 35q138 0 227.5 -64.5t89.5 -193.5q0 -90 -63 -160t-153 -103.5t-185 -33.5z" />
    <glyph glyph-name="six.den" horiz-adv-x="905" 
d="M457 -37q-168 0 -262.5 98.5t-94.5 264.5q0 71 20.5 134t56 111.5t85 89.5t105 70t119.5 52t124 37t123 22l21 -68q-67 -17 -118 -34t-109.5 -44.5t-100 -60t-76.5 -80.5t-53 -106q97 73 225 73q125 0 209 -71t84 -183q0 -89 -53 -160.5t-134.5 -108t-170.5 -36.5z
M477 41q80 0 122 51.5t42 138.5q0 92 -49.5 150.5t-136.5 58.5q-89 0 -174 -59q-5 -63 -5 -76q0 -115 52.5 -189.5t148.5 -74.5z" />
    <glyph glyph-name="seven.den" horiz-adv-x="811" 
d="M195 0l442 655h-494v142h648v-25l-445 -772h-151z" />
    <glyph glyph-name="eight.den" horiz-adv-x="868" 
d="M424 -37q-145 0 -239.5 57.5t-94.5 149.5q0 74 50.5 121.5t156.5 93.5v4q-82 38 -122 84.5t-40 112.5q0 104 89 169.5t235 65.5q134 0 209 -55.5t75 -134.5q0 -113 -180 -191v-4q118 -47 164.5 -93t46.5 -124q0 -109 -99.5 -182.5t-250.5 -73.5zM453 33q82 0 128 37.5
t46 91.5q0 51 -38 83.5t-149 80.5l-82 34q-106 -61 -106 -163q0 -76 55.5 -120t145.5 -44zM502 463q88 58 88 149q0 63 -40 102.5t-112 39.5q-71 0 -111 -34.5t-40 -82.5q0 -46 31.5 -77.5t127.5 -72.5z" />
    <glyph glyph-name="nine.den" horiz-adv-x="905" 
d="M449 821q168 0 262 -100.5t94 -267.5q0 -101 -39.5 -183.5t-102 -137t-150.5 -94.5t-175 -61.5t-186 -33.5l-21 67q75 18 128.5 33.5t115.5 43t104.5 59.5t78 80.5t52.5 109.5q-98 -74 -227 -74q-125 0 -209 71t-84 183q0 89 53.5 160.5t135 108t170.5 36.5zM428 743
q-80 0 -122 -51.5t-42 -138.5q0 -91 46.5 -147t127.5 -56q116 0 187 53q4 46 4 70q0 123 -52 196.5t-149 73.5z" />
    <glyph glyph-name="zero.sub" horiz-adv-x="1044" 
d="M543 -221q106 -1 160.5 84t54.5 211q3 171 -68.5 286t-181.5 115q-57 0 -101 -28t-69 -73.5t-37.5 -95.5t-13.5 -102q-1 -101 26.5 -189t88 -147.5t141.5 -60.5zM522 -303q-183 0 -302.5 122.5t-119.5 297.5q0 187 120.5 312.5t299.5 125.5q102 0 185 -37t134 -98.5
t78 -135.5t27 -153q0 -184 -121.5 -309t-300.5 -125z" />
    <glyph glyph-name="one.sub" horiz-adv-x="722" 
d="M469 535v-711l205 -21v-69h-590v69l213 23v555h-225v61l385 93h12z" />
    <glyph glyph-name="two.sub" horiz-adv-x="784" 
d="M59 -266v65l93 78q16 14 47 39q176 148 225 201q75 85 76 159q0 61 -46 105.5t-114 44.5t-118.5 -30t-106.5 -91l-52 49q46 63 88.5 103t107 69t140.5 29q116 0 190 -61t75 -168q0 -25 -3.5 -47t-15 -45.5t-20 -40.5t-32 -42t-36.5 -39t-48 -43t-51.5 -43t-62 -50
t-65.5 -52l-74 -59h459v-131h-656z" />
    <glyph glyph-name="three.sub" horiz-adv-x="811" 
d="M334 -303q-126 0 -193 42t-67 101q0 38 26.5 62t71.5 30l100 -139q47 -14 111 -14q81 0 136.5 39t55.5 114q0 81 -78 127t-227 39v68l35 10q119 35 168 79.5t49 100.5q0 41 -33.5 65.5t-87.5 24.5q-81 0 -136 -29t-120 -89l-47 47q82 92 167 136t192 44t174 -44.5
t67 -117.5q0 -62 -62.5 -116.5t-150.5 -86.5v-6q132 -14 197.5 -72t65.5 -132q0 -77 -58 -142.5t-153.5 -103t-202.5 -37.5z" />
    <glyph glyph-name="four.sub" horiz-adv-x="843" 
d="M31 -78v47l510 572l61 -4v-510h203v-105h-203v-188h-160v188h-411zM170 27h272v305z" />
    <glyph glyph-name="five.sub" horiz-adv-x="817" 
d="M322 -303q-110 0 -176 38t-66 103q0 38 31 62.5t73 27.5l103 -133q28 -16 78 -16q103 0 158 45t55 119q0 85 -65 129.5t-161 44.5q-121 0 -200 -51h-23v464h547v-133h-461v-180q82 35 191 35q138 0 227.5 -64.5t89.5 -193.5q0 -90 -63 -160t-153 -103.5t-185 -33.5z" />
    <glyph glyph-name="six.sub" horiz-adv-x="905" 
d="M457 -303q-168 0 -262.5 98t-94.5 264q0 71 20.5 134t56 111.5t85 89.5t105 70t119.5 52t124 37t123 22l21 -67q-67 -17 -118 -34t-109.5 -45t-100 -60.5t-76.5 -80.5t-53 -106q98 74 225 74q125 0 209 -71t84 -183q0 -89 -53 -160.5t-134.5 -108t-170.5 -36.5zM477 -225
q80 0 122 51.5t42 138.5q0 92 -49.5 150.5t-136.5 58.5q-89 0 -174 -59q-5 -63 -5 -76q0 -115 52.5 -189.5t148.5 -74.5z" />
    <glyph glyph-name="seven.sub" horiz-adv-x="811" 
d="M195 -266l442 655h-494v141h648v-24l-445 -772h-151z" />
    <glyph glyph-name="eight.sub" horiz-adv-x="868" 
d="M424 -303q-145 0 -239.5 57.5t-94.5 149.5q0 74 50.5 121.5t156.5 93.5v4q-82 38 -122 84t-40 112q0 104 89 170t235 66q134 0 209 -55.5t75 -134.5q0 -113 -180 -191v-4q118 -47 164.5 -93t46.5 -124q0 -109 -99.5 -182.5t-250.5 -73.5zM453 -233q82 0 128 37.5t46 91.5
q0 50 -37.5 82.5t-149.5 80.5l-82 35q-106 -61 -106 -164q0 -76 55.5 -119.5t145.5 -43.5zM502 197q88 58 88 149q0 63 -40 102t-112 39q-71 0 -111 -34t-40 -82q0 -46 31.5 -77.5t127.5 -72.5z" />
    <glyph glyph-name="nine.sub" horiz-adv-x="905" 
d="M449 555q167 0 261.5 -101t94.5 -268q0 -101 -39.5 -183.5t-102 -137t-150.5 -94.5t-175 -61.5t-186 -33.5l-21 68q74 18 128.5 34t116 43t104 59.5t78 81t52.5 108.5q-98 -74 -227 -74q-125 0 -209 71t-84 183q0 89 53.5 160.5t135 108t170.5 36.5zM428 477
q-80 0 -122 -51.5t-42 -138.5q0 -91 46.5 -147t127.5 -56q116 0 187 53q4 46 4 70q0 123 -52 196.5t-149 73.5z" />
    <glyph glyph-name="plus.sub" horiz-adv-x="905" 
d="M393 -219v313h-309v111h309v313h119v-313h309v-111h-309v-313h-119z" />
    <glyph glyph-name="minus.sub" horiz-adv-x="905" 
d="M821 94h-737v111h737v-111z" />
    <glyph glyph-name="zero.sup" horiz-adv-x="1044" 
d="M543 680q106 -1 160.5 84t54.5 211q3 171 -68.5 286t-181.5 115q-57 0 -101 -28t-69 -73.5t-37.5 -95.5t-13.5 -102q-1 -101 26.5 -189t88 -147.5t141.5 -60.5zM522 598q-183 0 -302.5 122.5t-119.5 297.5q0 187 120.5 312.5t299.5 125.5q102 0 185 -37t134 -98.5
t78 -135.5t27 -153q0 -184 -121.5 -309t-300.5 -125z" />
    <glyph glyph-name="one.sup" horiz-adv-x="722" 
d="M469 1436v-711l205 -20v-70h-590v70l213 22v555h-225v61l385 93h12z" />
    <glyph glyph-name="two.sup" horiz-adv-x="784" 
d="M59 635v65l93 78q197 166 244 212q90 88 101 158q3 15 3 30q0 61 -46 105t-114 44t-118.5 -30t-106.5 -91l-52 49q46 63 88.5 103t107 69t140.5 29q116 0 190 -61t75 -168q0 -25 -3.5 -47t-15 -45.5t-20 -40.5t-32 -42t-36.5 -39t-48 -43t-51.5 -43t-62 -50t-65.5 -52
l-74 -59h459v-131h-656z" />
    <glyph glyph-name="three.sup" horiz-adv-x="811" 
d="M334 598q-126 0 -193 42t-67 101q0 38 26.5 62.5t71.5 30.5l100 -140q47 -14 111 -14q81 0 136.5 39.5t55.5 114.5q0 81 -78 126.5t-227 38.5v68l35 10q119 35 168 79.5t49 100.5q0 41 -33.5 66t-87.5 25q-81 0 -135.5 -29.5t-120.5 -89.5l-47 47q82 92 167 136t192 44
t174 -44.5t67 -117.5q0 -62 -62.5 -115.5t-150.5 -86.5v-7q132 -14 197.5 -72t65.5 -132q0 -77 -58 -142.5t-153.5 -103t-202.5 -37.5z" />
    <glyph glyph-name="four.sup" horiz-adv-x="843" 
d="M31 823v47l510 572l61 -4v-510h203v-105h-203v-188h-160v188h-411zM170 928h272v305z" />
    <glyph glyph-name="five.sup" horiz-adv-x="817" 
d="M322 598q-110 0 -176 38t-66 103q0 38 31 62.5t73 27.5l103 -133q28 -16 78 -16q103 0 158 45t55 119q0 85 -65 129.5t-161 44.5q-121 0 -200 -51h-23v465h547v-134h-461v-180q82 35 191 35q138 0 227.5 -64.5t89.5 -193.5q0 -90 -63 -160t-153 -103.5t-185 -33.5z" />
    <glyph glyph-name="six.sup" horiz-adv-x="905" 
d="M457 598q-168 0 -262.5 98.5t-94.5 264.5q0 71 20.5 134t56 111.5t85 89.5t105 70t119.5 52t124 37t123 22l21 -68q-67 -17 -118 -34t-109.5 -45t-100 -60.5t-76.5 -80.5t-53 -106q98 74 225 74q125 0 209 -71t84 -183q0 -89 -53 -160.5t-134.5 -108t-170.5 -36.5z
M477 676q80 0 122 51.5t42 138.5q0 92 -49.5 150.5t-136.5 58.5q-89 0 -174 -59q-5 -62 -5 -76q0 -115 52.5 -189.5t148.5 -74.5z" />
    <glyph glyph-name="seven.sup" horiz-adv-x="749" 
d="M133 635l442 655h-493v142h647v-25l-444 -772h-152z" />
    <glyph glyph-name="eight.sup" horiz-adv-x="868" 
d="M424 598q-145 0 -239.5 57.5t-94.5 149.5q0 74 50.5 121.5t156.5 93.5v4q-82 38 -122 84.5t-40 112.5q0 104 89 169.5t235 65.5q134 0 209 -55.5t75 -134.5q0 -113 -180 -191v-4q118 -47 164.5 -93t46.5 -124q0 -109 -99.5 -182.5t-250.5 -73.5zM453 668q82 0 128 37.5
t46 91.5q0 51 -38 83.5t-149 80.5l-82 34q-106 -61 -106 -164q0 -76 55.5 -119.5t145.5 -43.5zM502 1098q88 58 88 149q0 63 -40 102.5t-112 39.5q-71 0 -111 -34.5t-40 -82.5q0 -46 31.5 -77.5t127.5 -72.5z" />
    <glyph glyph-name="nine.sup" horiz-adv-x="905" 
d="M449 1456q167 0 261.5 -101t94.5 -268q0 -101 -39.5 -183.5t-102 -136.5t-150.5 -94.5t-175 -61.5t-186 -33l-21 67q75 18 128.5 33.5t115.5 43t104.5 59.5t78 80.5t52.5 109.5q-98 -74 -227 -74q-125 0 -209 71t-84 183q0 89 53.5 160.5t135 108t170.5 36.5zM428 1378
q-80 0 -122 -51.5t-42 -138.5q0 -91 46.5 -147t127.5 -56q116 0 187 53q4 46 4 70q0 123 -52 196.5t-149 73.5z" />
    <glyph glyph-name="plus.sup" horiz-adv-x="905" 
d="M393 682v313h-309v111h309v313h119v-313h309v-111h-309v-313h-119z" />
    <glyph glyph-name="minus.sup" horiz-adv-x="905" 
d="M821 995h-737v111h737v-111z" />
    <glyph glyph-name="a.ord" horiz-adv-x="874" 
d="M299 500q-76 0 -138.5 51t-62.5 139q0 92 64.5 142t199.5 83l173 46v73q-1 86 -44 136.5t-110 50.5q-59 0 -100 -27l-7 -158q-3 -3 -26.5 -6.5t-44.5 -3.5q-80 0 -80 74q0 63 98.5 127.5t222.5 64.5q128 0 186 -58.5t58 -182.5v-408q0 -28 11 -37.5t44 -9.5h80v-49
q-98 -43 -161 -43q-119 0 -123 127h-11q-10 -9 -33 -31t-31.5 -29.5t-27.5 -23t-30.5 -21t-29.5 -13.5t-36.5 -10.5t-40.5 -2.5zM385 616q91 0 150 74v213l-150 -45q-64 -22 -95.5 -49.5t-31.5 -71.5q0 -57 38 -89t89 -32z" />
    <glyph glyph-name="b.ord" horiz-adv-x="946" 
d="M424 498q-126 0 -203 34l-59 23v983l-105 29v57l256 53v-503q32 44 93.5 81t148.5 37q60 0 114 -20.5t99.5 -62t72.5 -112.5t27 -163q0 -121 -63.5 -222.5t-165.5 -157.5t-215 -56zM477 1180q-87 0 -164 -66v-483q8 -7 22 -17t57 -26.5t85 -16.5q96 0 167 83t71 229
q0 135 -66.5 216t-171.5 81z" />
    <glyph glyph-name="c.ord" horiz-adv-x="815" 
d="M432 498q-149 0 -251.5 100t-102.5 272q0 94 36.5 175.5t95.5 134.5t133 83.5t151 30.5q101 0 170 -49t69 -117q0 -41 -23.5 -67.5t-66.5 -26.5l-59 6l-25 158q-46 23 -94 23q-100 0 -167 -81t-67 -196q0 -138 80 -228.5t203 -90.5q33 0 64.5 9.5t53.5 23.5t39 28t25 24
l9 9l32 -27q-4 -12 -13.5 -31t-33.5 -49t-56 -54t-85.5 -42t-116.5 -18z" />
    <glyph glyph-name="d.ord" horiz-adv-x="985" 
d="M479 1581v55l303 41v-1054l133 -31v-57l-229 -33l-41 108q-55 -53 -109 -82.5t-126 -29.5q-108 0 -185 52t-112 132.5t-35 177.5q0 194 118 313t298 119q71 0 137 -16v276zM500 616q67 0 131 35v467q-15 30 -62.5 65.5t-113.5 35.5q-97 0 -161.5 -73t-64.5 -202
q0 -67 14.5 -123.5t44.5 -103.5t84.5 -74t127.5 -27z" />
    <glyph glyph-name="e.ord" horiz-adv-x="870" 
d="M442 498q-79 0 -143 24.5t-104 63t-67.5 89t-38.5 98.5t-11 95q0 186 111 306t282 120q140 0 216.5 -92.5t78.5 -255.5h-545q1 -148 80 -231.5t209 -83.5q38 0 75.5 11.5t64 27.5t47 32t30.5 28l10 11l33 -24q-3 -11 -12.5 -31t-36 -54.5t-61 -62.5t-92.5 -49.5
t-126 -21.5zM434 1217q-76 0 -133 -56t-74 -145h365q-2 85 -42.5 143t-115.5 58z" />
    <glyph glyph-name="f.ord" horiz-adv-x="612" 
d="M72 522v60l104 30v576h-117v69l115 31v6q0 162 106.5 278t249.5 116q95 0 154 -46.5t59 -105.5q0 -37 -23.5 -62.5t-64.5 -25.5q-10 0 -20.5 2t-15.5 4l-5 2l-41 139q-2 2 -10 5.5t-26 7.5t-37 4q-76 0 -124 -56t-48 -176v-108h221v-88h-221v-572l147 -32v-58h-403z" />
    <glyph glyph-name="g.ord" horiz-adv-x="897" 
d="M848 1174l-189 10l-2 -4q84 -68 84 -170q0 -80 -47.5 -144.5t-122.5 -98.5t-161 -34q-58 0 -117 19q-60 -41 -60 -76q0 -20 17 -33t47 -14l307 -15q120 -7 179 -56t59 -128q0 -49 -36.5 -100t-98.5 -92.5t-155 -68t-196 -26.5q-126 0 -213.5 50t-87.5 133q0 42 33.5 84
t91.5 69l37 17v8l-117 98q42 100 133 174q-135 76 -135 232q0 124 93 204t229 80q84 0 196 -41l232 27v-104zM432 807q66 2 108.5 55t41.5 139q-1 110 -50 168.5t-124 55.5q-72 0 -112 -51t-38 -138q2 -107 49 -169.5t125 -59.5zM592 469l-318 18q-61 -56 -61 -112
q0 -55 55 -96t172 -41q136 0 207.5 46t71.5 103q0 76 -127 82z" />
    <glyph glyph-name="h.ord" horiz-adv-x="980" 
d="M567 522v62l95 28v392q-5 87 -39 129.5t-113 42.5q-60 0 -114.5 -27t-76.5 -49v-488l107 -30v-60h-365v60l105 32v932l-111 39v51l264 41v-524q16 19 38 39t57 45.5t80 41t92 15.5q119 0 173 -60t54 -204v-418l107 -30v-60h-353z" />
    <glyph glyph-name="i.ord" horiz-adv-x="514" 
d="M76 522v62l108 30v535l-96 31v61l246 53v-682l121 -28v-62h-379zM250 1481q-43 0 -75 31.5t-32 74.5q0 41 32 73t75 32q42 0 74 -32t32 -73q0 -43 -31.5 -74.5t-74.5 -31.5z" />
    <glyph glyph-name="j.ord" horiz-adv-x="448" 
d="M18 160l-10 53q80 28 117 120.5t37 270.5v537l-99 39v61l248 53v-684q0 -182 -55 -286q-37 -75 -101.5 -115.5t-136.5 -48.5zM225 1481q-43 0 -73.5 31.5t-30.5 74.5q0 41 31.5 73t72.5 32q44 0 76.5 -31.5t32.5 -73.5q0 -43 -32.5 -74.5t-76.5 -31.5z" />
    <glyph glyph-name="k.ord" horiz-adv-x="913" 
d="M170 614v924l-109 39v49l263 51v-1065l106 -30v-60h-362v60zM782 496q-42 -2 -83 24t-91 88l-276 353v6l71 22l215 195l-104 33v55h344v-51l-113 -29l-256 -211l385 -444q-3 -4 -8.5 -10.5t-29.5 -18t-54 -12.5z" />
    <glyph glyph-name="l.ord" horiz-adv-x="507" 
d="M68 522v60l102 30v908l-104 28v58l258 53v-1047l110 -30v-60h-366z" />
    <glyph glyph-name="m.ord" horiz-adv-x="1482" 
d="M1071 522v62l94 28v394q-5 87 -38 128.5t-111 41.5q-103 0 -193 -78v-486l105 -30v-60h-350v62l92 28v394q-3 86 -36.5 128t-113.5 42q-42 0 -88 -18t-69.5 -34.5t-34.5 -27.5v-484l106 -30v-60h-362v62l104 28v529l-110 24v52l215 77h8l30 -149h7q123 149 270 149
q101 0 150 -37t61 -114h10q16 20 37.5 41t57.5 48.5t83.5 44.5t96.5 17q115 0 170 -57t55 -203v-422l106 -30v-60h-352z" />
    <glyph glyph-name="n.ord" horiz-adv-x="989" 
d="M72 522v60l104 30v529l-110 24v52l215 77h8l30 -149h7q15 19 36 39.5t56.5 48t83 44.5t96.5 17q117 0 171 -60t54 -204v-418l107 -30v-60h-352v62l92 28v392q-3 87 -37 129.5t-113 42.5q-62 0 -117 -30t-75 -52v-482l106 -30v-60h-362z" />
    <glyph glyph-name="o.ord" horiz-adv-x="929" 
d="M242 926q1 -93 25.5 -171t81 -131t136.5 -51q63 1 110 40.5t70.5 106.5t22.5 150q-1 164 -68 258.5t-176 92.5q-96 -1 -150 -84t-52 -211zM465 496q-181 0 -284 111.5t-103 275.5q0 172 112.5 292.5t274.5 120.5q178 0 282.5 -103t104.5 -282q0 -174 -111.5 -294.5
t-275.5 -120.5z" />
    <glyph glyph-name="p.ord" horiz-adv-x="929" 
d="M47 174v62l105 30v875l-111 24v52l213 77h8l29 -139h2q109 137 248 137q64 0 118.5 -20.5t98.5 -62t69 -112t25 -163.5q0 -121 -63.5 -222.5t-165 -157.5t-213.5 -56q-49 0 -107 14v-244l154 -37v-57h-410zM461 1178q-80 0 -158 -58v-491q17 -20 58 -38t100 -18
q95 0 166 82t71 226q0 134 -65.5 215.5t-171.5 81.5z" />
    </font>
</defs>
</svg>
