<?xml version="1.0" standalone="no"?>
<!DOCTYPE svg PUBLIC "-//W3C//DTD SVG 1.1//EN" "http://www.w3.org/Graphics/SVG/1.1/DTD/svg11.dtd" >
<svg xmlns="http://www.w3.org/2000/svg" xmlns:xlink="http://www.w3.org/1999/xlink" version="1.1">
<metadata>
Created by FontForge 20170731 at Wed Oct 24 00:36:51 2018
 By Aleksey,,,
(C) 2010 Kai Bernau and Commercial Type.
</metadata>
<defs>
<font id="." horiz-adv-x="580" >
  <font-face 
    font-family="."
    font-weight="300"
    font-stretch="normal"
    units-per-em="1000"
    panose-1="2 0 3 3 8 0 0 2 0 4"
    ascent="800"
    descent="-200"
    x-height="463"
    cap-height="664"
    bbox="-161 -266 1157 1056"
    underline-thickness="50"
    underline-position="-150"
    unicode-range="U+000D-FB04"
  />
<missing-glyph horiz-adv-x="180" 
 />
    <glyph glyph-name="f_f" unicode="ff" horiz-adv-x="553" 
d="M346 429h-189v-398l81 -14v-17h-225v17l70 14v394h-77v19l79 20q4 46 20 91t43.5 80.5t65 57t84.5 21.5q37 0 64.5 -15t41.5 -34q29 38 67.5 58.5t80.5 20.5q24 0 46.5 -6.5t40 -17.5t27.5 -25.5t10 -30.5q0 -27 -19.5 -35.5t-43.5 -8.5l-24 73q-24 24 -65 24
q-17 0 -35.5 -8.5t-34 -27t-25.5 -48.5t-10 -73l1 -97h133v-34h-133v-398l81 -14v-17h-215v17l60 14v398zM271 686q-22 0 -42.5 -10.5t-36.5 -33.5t-26 -60t-10 -90v-29h190v20q0 67 23 122q-4 13 -11.5 27.5t-19.5 26.5t-28.5 19.5t-38.5 7.5z" />
    <glyph glyph-name="f_i" unicode="fi" horiz-adv-x="500" 
d="M286 17l60 14v398h-189v-398l81 -14v-17h-225v17l70 14v394h-77v19l78 20q0 67 16 119.5t45 88t68 54t85 18.5q26 0 48.5 -7.5t39.5 -19.5t26.5 -27.5t9.5 -31.5q0 -24 -16 -36t-41 -12q-8 0 -11 1q-3 0 -5 1l-17 78q-8 8 -22.5 18t-43.5 10q-21 0 -41 -9t-35.5 -30
t-25 -56.5t-8.5 -87.5l1 -72h223l40 14v-446l70 -14v-17h-204v17z" />
    <glyph glyph-name="f_l" unicode="fl" horiz-adv-x="493" 
d="M283 17l63 14v398h-189v-398l81 -14v-17h-225v17l70 14v394h-77v19l78 20q0 63 16 114.5t44.5 88t68 57t85.5 20.5q22 0 41.5 -6.5t35.5 -16.5l45 24v-714l63 -14v-17h-200v17zM265 715q-17 0 -36.5 -8t-36 -27.5t-27 -52.5t-9.5 -82l1 -82h189v204q-16 21 -35.5 34.5
t-45.5 13.5z" />
    <glyph glyph-name="f_f_i" unicode="ffi" horiz-adv-x="763" 
d="M286 17l60 14v398h-189v-398l81 -14v-17h-225v17l70 14v394h-77v19l79 20q4 46 20 91t43.5 80.5t65 57t84.5 21.5q36 0 63 -14.5t42 -32.5q29 37 69.5 57t88.5 20q26 0 48.5 -7.5t39.5 -19.5t26.5 -27.5t9.5 -31.5q0 -24 -16 -36t-41 -12q-8 0 -11 1q-3 0 -5 1l-17 78
q-8 8 -22.5 18t-43.5 10q-21 0 -41 -9t-35.5 -30t-25 -56.5t-8.5 -87.5l1 -72h223l40 14v-446l70 -14v-17h-212v17l68 14v398h-189v-398l81 -14v-17h-215v17zM271 686q-22 0 -42.5 -10.5t-36.5 -33.5t-26 -60t-10 -90v-29h190v23q0 66 23 121q-5 13 -12.5 27t-19.5 25.5
t-28 19t-38 7.5z" />
    <glyph glyph-name="f_f_l" unicode="ffl" horiz-adv-x="756" 
d="M286 17l60 14v398h-189v-398l81 -14v-17h-225v17l70 14v394h-77v19l79 20q4 46 20 91t43.5 80.5t65 57t84.5 21.5q36 0 63 -14.5t42 -32.5q28 36 67 56.5t84 20.5q25 0 45.5 -6t37.5 -17l46 24v-714l63 -14v-17h-197v17l60 14v398h-189v-398l81 -14v-17h-215v17zM528 715
q-17 0 -36.5 -8t-36 -27.5t-27 -52.5t-9.5 -82l1 -82h189v204q-16 21 -35.5 34.5t-45.5 13.5zM271 686q-22 0 -42.5 -10.5t-36.5 -33.5t-26 -60t-10 -90v-29h190v20q0 68 23 123q-5 13 -12.5 27.5t-19.5 26t-28 19t-38 7.5z" />
    <glyph glyph-name="f_b" unicode="fb" horiz-adv-x="792" 
d="M485 -14q-34 0 -61.5 8t-56.5 22l-21 11v640q-16 21 -35.5 34.5t-45.5 13.5q-17 0 -36.5 -8t-36 -27.5t-27 -52.5t-9.5 -82l1 -82h125v-38h-125v-394l81 -14v-17h-225v17l70 14v394h-77v19l78 20q0 63 16 114.5t44.5 88.5t68 57t85.5 20q22 0 41.5 -6.5t35.5 -16.5l45 24
v-348q11 12 26.5 26t35 26t42.5 20t50 8q34 0 66.5 -12t58 -38.5t41 -69t15.5 -103.5q0 -54 -22.5 -102.5t-60 -85t-86.5 -58.5t-101 -22zM535 428q-21 0 -39 -6.5t-32.5 -16t-25.5 -19.5t-18 -17v-311q17 -15 42.5 -25.5t59.5 -10.5q31 0 59.5 12.5t50.5 39.5t35 68.5
t13 99.5q0 40 -12 74t-32 59t-46 39t-55 14z" />
    <glyph glyph-name="f_f_b" unicode="ffb" horiz-adv-x="1055" 
d="M286 17l60 14v398h-189v-398l81 -14v-17h-225v17l70 14v394h-77v19l79 20q4 46 20 91t43.5 80.5t65 57t84.5 21.5q36 0 63 -14.5t42 -32.5q28 36 67 56.5t84 20.5q25 0 45.5 -6t37.5 -17l46 24v-348q11 12 26.5 26t35 26t42.5 20t50 8q34 0 66.5 -12t58 -38.5t41 -69
t15.5 -103.5q0 -54 -22.5 -102.5t-60 -85t-86.5 -58.5t-101 -22q-34 0 -61.5 8t-56.5 22l-21 11v640q-16 21 -35.5 34.5t-45.5 13.5q-17 0 -36.5 -8t-36 -27.5t-27 -52.5t-9.5 -82l1 -82h125v-34h-125v-398l81 -14v-17h-215v17zM798 428q-21 0 -39 -6.5t-32.5 -16
t-25.5 -19.5t-18 -17v-311q17 -15 42.5 -25.5t59.5 -10.5q31 0 59.5 12.5t50.5 39.5t35 68.5t13 99.5q0 40 -12 74t-32 59t-46 39t-55 14zM271 686q-22 0 -42.5 -10.5t-36.5 -33.5t-26 -60t-10 -90v-29h190v20q0 68 23 123q-5 13 -12.5 27.5t-19.5 26t-28 19t-38 7.5z" />
    <glyph glyph-name="f_f_h" unicode="ffh" horiz-adv-x="1059" 
d="M286 17l60 14v398h-189v-398l81 -14v-17h-225v17l70 14v394h-77v19l79 20q4 46 20 91t43.5 80.5t65 57t84.5 21.5q36 0 63 -14.5t42 -32.5q28 36 67 56.5t84 20.5q25 0 45.5 -6t37.5 -17l46 24v-361q4 4 19.5 19t39.5 31.5t53.5 29t62.5 12.5q31 0 55 -8.5t40 -27.5
t24.5 -50t8.5 -76v-283l63 -14v-17h-198v17l61 14v283q-1 45 -23.5 78t-69.5 33q-22 0 -42 -6.5t-37.5 -16t-31.5 -20t-25 -18.5v-333l76 -14v-17h-213v17l63 14v636q-16 21 -35.5 34.5t-45.5 13.5q-17 0 -36.5 -8t-36 -27.5t-27 -52.5t-9.5 -82l1 -82h125v-34h-125v-398
l81 -14v-17h-215v17zM271 686q-22 0 -42.5 -10.5t-36.5 -33.5t-26 -60t-10 -90v-29h190v20q0 68 23 123q-5 13 -12.5 27.5t-19.5 26t-28 19t-38 7.5z" />
    <glyph glyph-name="f_f_j" unicode="ffj" horiz-adv-x="755" 
d="M286 17l60 14v398h-189v-398l81 -14v-17h-225v17l70 14v394h-77v19l79 20q4 46 20 91t43.5 80.5t65 57t84.5 21.5q36 0 63 -14.5t42 -32.5q29 37 69.5 57t88.5 20q26 0 48.5 -7.5t39.5 -19.5t26.5 -27.5t9.5 -31.5q0 -24 -16 -36t-41 -12q-8 0 -11 1q-3 0 -5 1l-17 78
q-8 8 -22.5 18t-43.5 10q-21 0 -41 -9t-35.5 -30t-25 -56.5t-8.5 -87.5l1 -72h223l40 14v-452q0 -53 -4.5 -95.5t-26.5 -75.5q-20 -31 -53 -50t-86 -43l-7 14q30 21 48.5 40t30 43.5t16.5 59t8 87.5v424h-189v-398l81 -14v-17h-215v17zM271 686q-22 0 -42.5 -10.5
t-36.5 -33.5t-26 -60t-10 -90v-29h190v23q0 66 23 121q-5 13 -12.5 27t-19.5 25.5t-28 19t-38 7.5z" />
    <glyph glyph-name="f_f_k" unicode="ffk" horiz-adv-x="1002" 
d="M286 17l60 14v398h-189v-398l81 -14v-17h-225v17l70 14v394h-77v19l79 20q4 46 20 91t43.5 80.5t65 57t84.5 21.5q36 0 63 -14.5t42 -32.5q28 36 67 56.5t84 20.5q25 0 45.5 -6t37.5 -17l46 24v-714l76 -15v-16h-210v16l60 15v636q-16 21 -35.5 34.5t-45.5 13.5
q-17 0 -36.5 -8t-36 -27.5t-27 -52.5t-9.5 -82l1 -82h125v-34h-125v-398l81 -14v-17h-215v17zM271 686q-22 0 -42.5 -10.5t-36.5 -33.5t-26 -60t-10 -90v-29h190v20q0 68 23 123q-5 13 -12.5 27.5t-19.5 26t-28 19t-38 7.5zM954 -14q-27 0 -45.5 13t-41.5 40l-178 210
l209 178l-75 17v19h175v-19l-59 -17l-182 -152l242 -271q-3 -5 -9 -9q-5 -4 -14 -6.5t-22 -2.5z" />
    <glyph glyph-name="f_h" unicode="fh" horiz-adv-x="796" 
d="M286 17l60 14v636q-16 21 -35.5 34.5t-45.5 13.5q-17 0 -36.5 -8t-36 -27.5t-27 -52.5t-9.5 -82l1 -82h132v-38h-132v-394l81 -14v-17h-225v17l70 14v394h-77v19l78 20q0 63 16 114.5t44.5 88t68 57t85.5 20.5q22 0 41.5 -6.5t35.5 -16.5l45 24v-361q4 4 19.5 19
t39.5 31.5t53.5 29t62.5 12.5q31 0 55 -8.5t40 -27.5t24.5 -50t8.5 -76v-283l63 -14v-17h-198v17l61 14v283q-1 45 -23.5 78t-69.5 33q-22 0 -42 -6.5t-37.5 -16t-31.5 -20t-25 -18.5v-333l76 -14v-17h-210v17z" />
    <glyph glyph-name="f_j" unicode="fj" horiz-adv-x="492" 
d="M243 -225q30 21 48.5 40t30 43.5t16.5 59t8 87.5v424h-189v-398l81 -14v-17h-225v17l70 14v394h-77v19l78 20q0 67 16 119.5t45 88t68 54t85 18.5q26 0 48.5 -7.5t39.5 -19.5t26.5 -27.5t9.5 -31.5q0 -24 -16 -36t-41 -12q-8 0 -11 1q-3 0 -5 1l-17 78q-8 8 -22.5 18
t-43.5 10q-21 0 -41 -9t-35.5 -30t-25 -56t-8.5 -88l1 -72h223l40 14v-452q0 -53 -4.5 -95.5t-26.5 -75.5q-20 -31 -53 -50t-86 -43z" />
    <glyph glyph-name="f_k" unicode="fk" horiz-adv-x="739" 
d="M283 17l63 14v636q-16 21 -35.5 34.5t-45.5 13.5q-17 0 -36.5 -8t-36 -27.5t-27 -52.5t-9.5 -82l1 -82h132v-38h-132v-394l81 -14v-17h-225v17l70 14v394h-77v19l78 20q0 63 16 114.5t44.5 88t68 57t85.5 20.5q22 0 41.5 -6.5t35.5 -16.5l45 24v-714l76 -14v-17h-213v17z
M691 -14q-27 0 -45.5 13t-41.5 40l-178 210l209 178l-75 17v19h175v-19l-59 -17l-182 -152l242 -271q-3 -5 -9 -9q-5 -4 -14 -6.5t-22 -2.5z" />
    <glyph glyph-name=".notdef" horiz-adv-x="180" 
 />
    <glyph glyph-name=".null" horiz-adv-x="0" 
 />
    <glyph glyph-name="nonmarkingreturn" unicode="&#xd;" horiz-adv-x="180" 
 />
    <glyph glyph-name="NULL" horiz-adv-x="0" 
 />
    <glyph glyph-name="NULL" horiz-adv-x="0" 
 />
    <glyph glyph-name="space" unicode=" " horiz-adv-x="180" 
 />
    <glyph glyph-name="exclam" unicode="!" horiz-adv-x="252" 
d="M168 690l-28 -517h-27l-28 517h83zM125 -13q-25 0 -42 17t-17 42t17 42t42 17t42 -17t17 -42t-17 -42t-42 -17z" />
    <glyph glyph-name="quotedbl" unicode="&#x22;" horiz-adv-x="355" 
d="M50 727h88l-42 -234h-19zM217 727h88l-42 -234h-19z" />
    <glyph glyph-name="numbersign" unicode="#" 
d="M68 439h130l28 155h32l-28 -155h158l28 155h32l-28 -155h125v-32h-130l-35 -197h124v-32h-130l-31 -178h-32l31 178h-158l-31 -178h-32l31 178h-124v32h130l35 197h-125v32zM190 210h158l35 197h-158z" />
    <glyph glyph-name="dollar" unicode="$" horiz-adv-x="496" 
d="M37 198h17l39 -139q29 -19 61 -32.5t81 -15.5v272l-44 14q-44 13 -71.5 31t-43 39.5t-21 46.5t-5.5 53q0 32 12 61.5t35.5 52.5t58 38t79.5 19v122h27v-120h3q27 0 52 -5t46.5 -12t39 -14.5t28.5 -12.5v-152h-16l-42 127q-16 11 -44 26t-67 17v-249l50 -15
q83 -26 117 -65t34 -100q0 -42 -18 -76.5t-46.5 -60.5t-64.5 -42t-72 -20v-105h-27v103q-60 0 -108.5 16t-89.5 38v160zM262 275v-264q25 2 47.5 11.5t40 26.5t28 41.5t10.5 56.5q0 49 -28 78t-83 46zM120 491q0 -43 22 -69t77 -43l16 -5v239q-51 -5 -83 -38t-32 -84z" />
    <glyph glyph-name="percent" unicode="%" horiz-adv-x="736" 
d="M568 630h36l-440 -680h-36zM183 582q-20 0 -35 -11t-25 -29.5t-15 -42t-5 -48.5q0 -33 6 -60.5t17 -48t28 -32t38 -11.5q19 0 34 10.5t24.5 28.5t14.5 42t5 50q0 75 -25 113.5t-62 38.5zM183 276q-30 0 -57 11.5t-47 32.5t-32 50t-12 64q0 37 13 68t34.5 54t49.5 36
t57 13q35 0 63 -13.5t47 -35.5t29 -50.5t10 -58.5q0 -36 -12.5 -67t-33.5 -54t-49 -36.5t-60 -13.5zM546 287q-20 0 -35 -11t-25 -29.5t-15 -42t-5 -48.5q0 -33 6 -60.5t17 -48t28 -32t38 -11.5q19 0 34 10.5t24.5 28.5t14.5 42t5 50q0 75 -25 113.5t-62 38.5zM546 -19
q-30 0 -57 11.5t-47 32.5t-32 50t-12 64q0 37 13 68t34.5 54t49.5 36t57 13q35 0 63 -13.5t47 -35.5t29 -50.5t10 -58.5q0 -36 -12.5 -67t-33.5 -54t-49 -36.5t-60 -13.5z" />
    <glyph glyph-name="ampersand" unicode="&#x26;" horiz-adv-x="729" 
d="M630 425l-109 -203q-9 -17 -18 -33t-20 -33q43 -55 77 -87t65 -32q29 0 52 14.5t46 31.5l11 -12q-14 -14 -31 -29t-35.5 -27.5t-39 -20t-41.5 -6.5q-23 1 -41 7t-35.5 18.5t-35 31.5t-39.5 46q-40 -48 -91.5 -79.5t-117.5 -31.5q-51 0 -88 16.5t-61 42.5t-36 57.5
t-12 61.5q0 34 15 63.5t39.5 55.5t55.5 48.5t63 43.5q-25 25 -44 45.5t-31.5 40t-18.5 39.5t-6 43q1 35 17.5 62.5t42 46t57.5 28.5t64 10q33 0 61.5 -8t49 -22.5t32 -34.5t11.5 -44q0 -26 -9.5 -46t-28 -39.5t-47.5 -41t-68 -49.5q21 -23 45.5 -51t52.5 -63l83 -108
q11 18 22.5 39t24.5 45l86 166l-96 19v17h213v-17zM337 219q-35 44 -64 76.5t-55 58.5q-28 -21 -48 -39.5t-33.5 -37t-20 -40t-6.5 -48.5q0 -29 10 -57t29.5 -49.5t48 -35t66.5 -13.5q48 0 84.5 18t71.5 59q-17 23 -37.5 50t-45.5 58zM176 567q0 -19 6.5 -36t18.5 -35
t29.5 -38t40.5 -44q27 23 45.5 42t30.5 37t17 35.5t5 38.5q0 17 -6.5 34.5t-19 31t-30.5 22t-40 8.5q-41 0 -69 -24t-28 -72z" />
    <glyph glyph-name="quotesingle" unicode="'" horiz-adv-x="188" 
d="M50 727h88l-42 -234h-19z" />
    <glyph glyph-name="parenleft" unicode="(" horiz-adv-x="309" 
d="M272 -180q-86 96 -136.5 208.5t-50.5 244.5q0 134 53 249t140 210h26q-38 -54 -67 -105.5t-48.5 -106.5t-29.5 -115t-10 -132q0 -68 9.5 -127t28.5 -113.5t47 -106.5t66 -106h-28z" />
    <glyph glyph-name="parenright" unicode=")" horiz-adv-x="309" 
d="M37 732q87 -96 137 -208.5t50 -244.5q0 -134 -52.5 -249t-139.5 -210h-27q38 54 67.5 105.5t49 106.5t29.5 115t10 132q0 68 -9.5 127t-28.5 113.5t-47.5 106.5t-66.5 106h28z" />
    <glyph glyph-name="asterisk" unicode="*" horiz-adv-x="383" 
d="M234 511l11 -134l-11 -2l-51 126l-124 -55l-6 10l100 85l-84 102l8 9l113 -71l69 115l11 -4l-31 -130l129 -29l-1 -12z" />
    <glyph glyph-name="plus" unicode="+" 
d="M310 216v-216h-40v216h-217v35h217v216h40v-216h217v-35h-217z" />
    <glyph glyph-name="comma" unicode="," horiz-adv-x="229" 
d="M31 -132q41 20 64 47t23 60q0 27 -18 44t-51 26q-2 11 0 22.5t8.5 21t18.5 15.5t29 6q31 0 53 -25.5t22 -67.5q0 -49 -32 -91.5t-109 -73.5z" />
    <glyph glyph-name="hyphen" unicode="-" horiz-adv-x="353" 
d="M50 293h253v-55h-253v55z" />
    <glyph glyph-name="period" unicode="." horiz-adv-x="234" 
d="M120 -13q-25 0 -42 17t-17 42t17 42t42 17t42 -17t17 -42t-17 -42t-42 -17z" />
    <glyph glyph-name="slash" unicode="/" horiz-adv-x="415" 
d="M-42 -192l416 937l27 -12l-416 -937z" />
    <glyph glyph-name="zero" unicode="0" horiz-adv-x="586" 
d="M281 483q-35 0 -63.5 -17t-49 -47t-32 -70t-11.5 -86q0 -54 14 -101.5t38 -82t56.5 -54.5t70.5 -20q35 0 64 17.5t49.5 47.5t32 70t11.5 85q0 57 -14.5 104.5t-39.5 81.5t-57.5 53t-68.5 19zM293 -20q-56 0 -103 18t-81.5 52t-54 82.5t-19.5 109.5q0 54 21 102t56.5 84.5
t82 58t97.5 21.5q60 0 107.5 -20t81.5 -55t52 -82.5t18 -102.5t-21 -103.5t-56.5 -85t-82 -58t-98.5 -21.5z" />
    <glyph glyph-name="one" unicode="1" horiz-adv-x="330" 
d="M218 35l102 -16v-19h-285v19l105 14v416h-113v18l189 37h2v-469z" />
    <glyph glyph-name="two" unicode="2" horiz-adv-x="412" 
d="M123 72h271v-72h-362v9l78 81q73 76 111 136t38 113q0 48 -28 77t-70 29q-38 0 -64 -22.5t-46 -52.5l-15 7q8 24 22 47t33.5 42t45 30.5t56.5 11.5t57.5 -10.5t45.5 -28.5t29.5 -42.5t10.5 -52.5q0 -26 -6.5 -50t-23.5 -51t-46 -60.5t-74 -78.5z" />
    <glyph glyph-name="three" unicode="3" horiz-adv-x="389" 
d="M98 -200q-40 0 -61.5 20t-21.5 41q0 17 11.5 29t26.5 14q29 -39 68 -77q35 3 64.5 16.5t51 34.5t33.5 49t12 62q0 36 -14 64t-39 46.5t-60 28.5t-76 10v41l23 6q61 35 99 76t38 91q0 40 -28 66.5t-69 26.5q-38 0 -63.5 -22.5t-45.5 -52.5l-15 7q8 24 22.5 47t35 42
t46 30.5t56.5 11.5q33 0 59 -10.5t44 -28.5t27.5 -41.5t9.5 -48.5q0 -28 -10 -50.5t-26 -41.5t-36.5 -34.5t-42.5 -29.5l-39 -25v-3q33 -3 65 -15.5t57.5 -33.5t41 -51t15.5 -69q0 -45 -24.5 -85.5t-62.5 -72t-83.5 -50t-88.5 -18.5z" />
    <glyph glyph-name="four" unicode="4" horiz-adv-x="533" 
d="M326 12h-317v18l380 477h10v-434h140v-61h-140v-208h-73v208zM326 73v319l-254 -319h254z" />
    <glyph glyph-name="five" unicode="5" horiz-adv-x="342" 
d="M195 76q0 30 -7.5 59.5t-25.5 61.5t-47.5 67t-72.5 76l69 156h181v-67h-186l-13 -28q48 -48 82 -87.5t55.5 -75.5t32 -70.5t10.5 -72.5q0 -66 -26 -116.5t-66 -88t-87.5 -65t-90.5 -47.5l-8 16q20 12 53.5 34t66 56t56.5 81.5t24 110.5z" />
    <glyph glyph-name="six" unicode="6" horiz-adv-x="522" 
d="M515 666q-65 -28 -124.5 -65.5t-108.5 -81.5t-85 -94t-54 -103q31 35 71.5 57t88.5 22q43 0 77 -16t58 -43t36.5 -62t12.5 -73q0 -40 -15.5 -80.5t-44.5 -73t-71 -53t-96 -20.5q-44 0 -83.5 15.5t-70 45.5t-48.5 74t-18 101q0 88 40.5 162.5t107 134t150.5 103.5t171 70z
M262 356q-33 0 -68 -18t-60 -50q-7 -28 -7 -62q0 -55 12 -96.5t32.5 -69t47.5 -41t58 -13.5q54 0 89.5 42t35.5 121q0 46 -11 81t-29.5 58.5t-44 35.5t-55.5 12z" />
    <glyph glyph-name="seven" unicode="7" horiz-adv-x="435" 
d="M45 -155l320 574h-340v77h400v-5l-287 -554l-57 -110z" />
    <glyph glyph-name="eight" unicode="8" horiz-adv-x="465" 
d="M20 139q0 31 9.5 56t29 46.5t48.5 43t69 45.5l-35 26q-48 35 -70.5 72t-22.5 83q0 36 16.5 66.5t44 53.5t64 36t77.5 13q40 0 72.5 -11t55.5 -29.5t35.5 -44t12.5 -54.5q0 -28 -10.5 -51.5t-29.5 -45t-46 -43.5t-61 -48l50 -35q50 -37 80.5 -75.5t30.5 -86.5
q0 -41 -18.5 -74t-48 -55.5t-67 -34.5t-75.5 -12q-48 0 -87 12.5t-66.5 34t-42.5 50.5t-15 62zM195 317q-50 -38 -72 -77.5t-22 -84.5q0 -35 12 -63t31.5 -47.5t44.5 -29.5t51 -10q34 0 57.5 11t38.5 28t21.5 38t6.5 41q0 45 -33.5 82.5t-94.5 81.5zM122 543q0 -45 24 -78
t70 -66l43 -32q45 42 67 78.5t22 84.5q0 30 -10 53t-26.5 39t-38 24.5t-43.5 8.5q-19 0 -38 -7t-34.5 -21t-25.5 -35t-10 -49z" />
    <glyph glyph-name="nine" unicode="9" horiz-adv-x="518" 
d="M20 -183q63 28 121.5 64t106 79t82.5 93.5t52 107.5q-29 -32 -66.5 -54t-88.5 -22q-43 0 -78 15.5t-59.5 42t-37.5 61.5t-13 73q0 40 15.5 80.5t45 73t72 53t96.5 20.5q43 0 82.5 -15.5t68.5 -45t46.5 -73t17.5 -98.5q0 -90 -36 -166t-98 -136.5t-145 -104.5t-177 -69z
M270 132q29 0 62 17.5t58 47.5q6 30 6 61q0 55 -11 96.5t-30.5 69t-46 41t-57.5 13.5q-54 0 -90.5 -44.5t-36.5 -123.5q0 -44 11 -77t30.5 -55.5t46.5 -34t58 -11.5z" />
    <glyph glyph-name="colon" unicode=":" horiz-adv-x="234" 
d="M120 -13q-25 0 -42 17t-17 42t17 42t42 17t42 -17t17 -42t-17 -42t-42 -17zM120 345q-25 0 -42 17t-17 42t17 42t42 17t42 -17t17 -42t-17 -42t-42 -17z" />
    <glyph glyph-name="semicolon" unicode=";" horiz-adv-x="249" 
d="M51 -132q41 20 64 47t23 60q0 27 -18 44t-51 26q-2 11 0 22.5t8.5 21t18.5 15.5t29 6q31 0 53 -25.5t22 -67.5q0 -49 -32 -91.5t-109 -73.5zM127 345q-25 0 -42 17t-17 42t17 42t42 17t42 -17t17 -42t-17 -42t-42 -17z" />
    <glyph glyph-name="less" unicode="&#x3c;" 
d="M95 231l429 -198v-38l-472 219v35l472 218v-37z" />
    <glyph glyph-name="equal" unicode="=" 
d="M53 285v35h474v-35h-474zM53 144v35h474v-35h-474z" />
    <glyph glyph-name="greater" unicode="&#x3e;" 
d="M485 230l-429 198v39l472 -219v-35l-472 -218v36z" />
    <glyph glyph-name="question" unicode="?" horiz-adv-x="330" 
d="M64 687l15 -3q47 -9 89.5 -34t74 -58t50 -71.5t18.5 -75.5q0 -80 -80 -112l-103 -42l9 -118h-24l-39 175l130 49q33 13 52.5 32t19.5 53q0 18 -8 34.5t-27.5 31t-54 27t-86.5 21.5l-36 6v85zM123 -13q-25 0 -42 17t-17 42t17 42t42 17t42 -17t17 -42t-17 -42t-42 -17z
" />
    <glyph glyph-name="at" unicode="@" horiz-adv-x="921" 
d="M526 205h-4q-8 -12 -18.5 -28t-27.5 -39q-14 -20 -33.5 -41t-40.5 -39t-43 -29.5t-41 -11.5q-39 0 -57.5 25.5t-18.5 62.5q0 45 15.5 90t41 85.5t58.5 75t67.5 60t68 40t60.5 14.5q21 0 38.5 -9t31.5 -20h1l15 41h44l-100 -334q-10 -33 -10.5 -53.5t6 -32.5t18 -16
t25.5 -4q24 0 58.5 15.5t67 50t55 89t22.5 133.5q0 62 -23.5 117t-65.5 96t-100 65t-126 24q-73 0 -144 -30t-126.5 -85t-90 -132.5t-34.5 -171.5q0 -85 26.5 -151t73 -111.5t109.5 -69t137 -23.5q27 0 52 3.5t46 8t37.5 10t26.5 9.5v-15q-10 -4 -28 -11t-42.5 -13.5
t-54 -11.5t-62.5 -5q-75 0 -145 20t-123 63t-85 110t-32 160q0 66 19.5 126.5t53.5 113t80 95.5t99 73.5t110 47t113 16.5q85 0 151.5 -26.5t112 -71t69 -103t23.5 -122.5q0 -71 -28 -129.5t-70.5 -100.5t-92.5 -65t-93 -23q-63 0 -85.5 34.5t-2.5 100.5zM361 69
q15 0 34.5 13.5t40.5 35.5t42 50.5t39.5 59.5t33 61t22.5 56l16 51q-14 20 -29.5 33t-35.5 13q-32 0 -67.5 -29t-65 -74.5t-49 -102t-19.5 -111.5q0 -56 38 -56z" />
    <glyph glyph-name="A" unicode="A" horiz-adv-x="632" 
d="M-24 19l77 17l228 633l29 6l36 8l234 -651l76 -15v-17h-247v19l80 13l-72 206h-254l-68 -200l118 -19v-19h-237v19zM176 276h227l-114 327h-2z" />
    <glyph glyph-name="B" unicode="B" horiz-adv-x="577" 
d="M25 19l87 14v598l-87 16v17l211 1q75 0 125.5 -10.5t81 -29.5t43.5 -45.5t13 -56.5q0 -35 -15 -61.5t-40 -45t-57.5 -31t-67.5 -19.5v-2q42 -4 83 -15t73.5 -31.5t53 -53t20.5 -78.5q0 -41 -18.5 -76t-53.5 -60t-87.5 -38.5t-119.5 -13.5l-245 2v19zM198 346v-296
q17 -9 45 -18.5t62 -9.5q72 0 110.5 40t38.5 111q0 40 -13 71t-34 52.5t-48 34t-54 15.5h-107zM198 370q50 0 89.5 7.5t67.5 24t42.5 43.5t14.5 67q0 63 -53 99t-161 33v-274z" />
    <glyph glyph-name="C" unicode="C" horiz-adv-x="702" 
d="M377 -22q-89 0 -152.5 30t-104.5 78t-60.5 106.5t-19.5 115.5q0 81 30 150.5t81.5 120t120 79t146.5 28.5q29 0 58.5 -4.5t57.5 -12t52.5 -17.5t43.5 -21l9 -164h-19l-57 135q-35 25 -76 41t-90 16q-56 0 -104.5 -25.5t-84 -69t-55.5 -102t-20 -125.5q0 -85 23 -146.5
t61 -102t87 -60t101 -19.5q50 0 92 19t71 39l78 155h19l-28 -178q-60 -24 -123 -45t-137 -21z" />
    <glyph glyph-name="D" unicode="D" horiz-adv-x="737" 
d="M198 43q31 -12 62 -15.5t60 -2.5q67 1 119.5 26.5t88.5 67.5t55 95.5t19 112.5q0 88 -32.5 150.5t-88 100.5t-129 53.5t-154.5 10.5v-599zM25 19l87 14v598l-87 15v18l283 2q93 -4 165 -30t122 -68.5t76 -99t26 -121.5q0 -79 -29 -144t-85.5 -111.5t-139.5 -71.5
t-190 -23l-228 3v19z" />
    <glyph glyph-name="E" unicode="E" horiz-adv-x="588" 
d="M198 331v-282q8 -9 18 -14.5t27 -7.5h197l91 166h19l-43 -193h-482v19l87 14v598l-87 16v17h424l66 5v-189h-18l-47 157h-252v-275h146l31 107h17v-239h-17l-31 101h-146z" />
    <glyph glyph-name="F" unicode="F" horiz-adv-x="537" 
d="M198 326v-294l105 -14v-18h-278v19l87 14v598l-87 16v17h435l51 8l7 -197h-17l-52 162h-251v-280h146l34 113h17v-251h-17l-34 107h-146z" />
    <glyph glyph-name="G" unicode="G" horiz-adv-x="724" 
d="M398 -20q-95 0 -162.5 29.5t-111 77t-64 107.5t-20.5 122q0 76 31 143t83.5 117.5t122 80t147.5 29.5q66 0 121 -17t97 -40v-166h-17l-56 139q-30 23 -74 39t-91 16q-57 0 -106.5 -22.5t-86 -63.5t-57 -99.5t-20.5 -130.5q0 -84 23.5 -146.5t63.5 -103t92.5 -60.5
t110.5 -20q45 0 80.5 10t54.5 19v209l-103 16v18h238v-19l-48 -12v-214l-49 -19q-32 -11 -84.5 -25t-114.5 -14z" />
    <glyph glyph-name="H" unicode="H" horiz-adv-x="735" 
d="M450 19l87 14v299h-339v-299l88 -14v-19h-261v19l87 14v598l-87 16v17h261v-17l-88 -16v-270h339v270l-87 16v17h260v-17l-87 -16v-598l87 -14v-19h-260v19z" />
    <glyph glyph-name="I" unicode="I" horiz-adv-x="310" 
d="M25 20l87 14v596l-87 16v18h260v-18l-87 -16v-596l87 -14v-20h-260v20z" />
    <glyph glyph-name="J" unicode="J" horiz-adv-x="303" 
d="M198 43q0 -53 -9 -95t-33 -74.5t-66 -57t-109 -40.5l-6 21q37 16 63 36t42.5 46t24 60t7.5 78v614l-87 16v17h260v-17l-87 -16v-588z" />
    <glyph glyph-name="K" unicode="K" horiz-adv-x="635" 
d="M25 19l87 14v598l-87 16v17h261v-17l-88 -16v-598l88 -14v-19h-261v19zM210 344v3l279 280l-92 20v17h209v-17l-71 -18l-250 -250l287 -346l74 -14v-19h-154z" />
    <glyph glyph-name="L" unicode="L" horiz-adv-x="571" 
d="M198 50q8 -9 18 -14.5t27 -7.5h208l93 188h17l-45 -216h-491v19l87 14v598l-87 15v18h277v-18l-104 -13v-583z" />
    <glyph glyph-name="M" unicode="M" horiz-adv-x="854" 
d="M20 17l84 21l22 589l-83 20v17h193l199 -509l205 505l1 4h170v-17l-83 -19l22 -590l84 -21v-17h-269v19l102 19l-19 561l-206 -506l-27 -73h-14l-28 73l-215 525l-18 -577l110 -23v-18h-230v17z" />
    <glyph glyph-name="N" unicode="N" horiz-adv-x="710" 
d="M595 -6l-450 583v-537l112 -19v-21h-232v20l87 22v560q-14 14 -31.5 24.5t-40.5 15.5l-15 4v18h157l393 -509v469l-104 19v21h224v-20l-87 -22v-493l4 -135h-17z" />
    <glyph glyph-name="O" unicode="O" horiz-adv-x="779" 
d="M399 4q66 0 112.5 27.5t75.5 72t42.5 101t13.5 114.5q0 69 -20 130.5t-55.5 108t-84.5 74t-108 27.5q-64 0 -109.5 -28t-74 -73t-42 -101.5t-13.5 -112.5q0 -66 19.5 -127.5t54 -108.5t83 -75.5t106.5 -28.5zM388 685q75 0 139 -26.5t111.5 -73t74 -110t26.5 -137.5
q0 -83 -30 -149.5t-79.5 -113.5t-112 -72t-127.5 -25q-69 0 -132 25t-111.5 70.5t-77.5 110t-29 142.5q0 82 30.5 148.5t79.5 113.5t111.5 72t126.5 25z" />
    <glyph glyph-name="P" unicode="P" horiz-adv-x="524" 
d="M244 292q39 4 72 17t57 35t37 51.5t13 66.5q0 34 -11.5 65t-38 56t-69.5 41t-106 21v-612l95 -16v-17h-268v19l87 14v598l-87 15v18h221q129 -3 198.5 -52t69.5 -136q0 -43 -22 -80t-59 -64.5t-86 -43t-103 -15.5v19z" />
    <glyph glyph-name="Q" unicode="Q" horiz-adv-x="779" 
d="M388 685q75 0 139 -26t111.5 -72.5t74 -109.5t26.5 -137q0 -73 -24 -133t-63.5 -105t-91.5 -74.5t-109 -39.5q46 -32 89 -62t85.5 -53.5t84.5 -38t86 -14.5q28 0 50.5 4t43.5 12.5t42.5 22t45.5 32.5l11 -12q-20 -19 -40.5 -38.5t-47 -36t-62 -27t-83.5 -10.5
q-56 0 -107 17t-103 47t-107.5 70.5t-119.5 87.5q-57 11 -108 40t-89 73t-60 101.5t-22 125.5q0 82 30.5 148t79.5 112t111.5 71t126.5 25zM406 8q63 0 108 27.5t73.5 72t42 100.5t13.5 114q0 69 -20 130t-56 107t-86 73t-110 27q-63 0 -107.5 -28t-73 -72.5t-41.5 -100.5
t-13 -112q0 -67 19.5 -128t55 -107.5t85 -74.5t110.5 -28z" />
    <glyph glyph-name="R" unicode="R" horiz-adv-x="627" 
d="M25 19l87 14v598l-87 16v17l209 3q147 2 218.5 -41.5t71.5 -120.5q0 -32 -11.5 -57t-32.5 -44.5t-50 -34t-63 -26.5v-3l194 -302l76 -19v-19h-157l-157 252q-11 17 -18 28.5t-11 18.5q-4 8 -7 12h-89v-278l84 -16v-17h-257v19zM198 340h85q33 4 60 17t46 32.5t29.5 43.5
t10.5 50q0 83 -63 123.5t-168 39.5v-306z" />
    <glyph glyph-name="S" unicode="S" horiz-adv-x="502" 
d="M40 203h17l59 -162q20 -14 49.5 -23.5t68.5 -9.5q69 0 112 37.5t43 102.5q0 21 -5.5 40t-19.5 37t-39.5 35.5t-64.5 34.5l-50 22q-81 35 -118.5 76t-37.5 107q0 41 18 75t48.5 58t71.5 37.5t87 13.5t85 -13.5t68 -25.5l9 -165h-14l-58 145q-23 14 -46 24.5t-57 10.5
q-29 0 -52.5 -10.5t-40.5 -27.5t-26.5 -40t-9.5 -47q0 -48 24 -78t86 -58l75 -34q79 -35 115.5 -75t36.5 -104q0 -47 -21.5 -85t-56 -64.5t-79 -41t-89.5 -14.5q-61 0 -104.5 14t-76.5 28z" />
    <glyph glyph-name="T" unicode="T" horiz-adv-x="578" 
d="M503 664l50 8l7 -197h-18l-50 161h-160v-604l87 -14v-18h-260v18l87 14v604h-160l-50 -161h-18l7 196l47 -7h431z" />
    <glyph glyph-name="U" unicode="U" horiz-adv-x="708" 
d="M351 -24q-71 0 -119.5 20.5t-78.5 57.5t-43 88.5t-13 112.5v375l-82 17v17h255v-17l-86 -17v-353q0 -53 8.5 -100.5t29.5 -83t56.5 -56t89.5 -20.5q53 0 90.5 16t62.5 45.5t38 70.5t17 92v384l-98 21v18h215v-18l-81 -21v-368q0 -72 -20.5 -124.5t-56 -87.5t-83 -52
t-101.5 -17z" />
    <glyph glyph-name="V" unicode="V" horiz-adv-x="581" 
d="M39 630l-66 16v18h231v-18l-74 -16l187 -527h1l181 524l-74 19v18h183v-18l-67 -19l-235 -639h-31z" />
    <glyph glyph-name="W" unicode="W" horiz-adv-x="874" 
d="M440 467l-164 -473h-35l-201 636l-65 16v18h231v-18l-77 -16l157 -514l139 396l-39 118l-69 16v18h229v-18l-75 -16l170 -513l150 510l-75 19v18h183v-18l-66 -19l-200 -633h-36z" />
    <glyph glyph-name="X" unicode="X" horiz-adv-x="607" 
d="M65 34l201 301l-180 297l-70 15v17h241v-17l-75 -15l140 -237h2l152 236l-79 16v17h192v-17l-70 -16l-179 -266l202 -332l80 -15v-18h-259v18l80 15l-158 269h-3l-175 -268l86 -16v-18h-208v18z" />
    <glyph glyph-name="Y" unicode="Y" horiz-adv-x="573" 
d="M330 314v-280l92 -14v-20h-270v20l92 14v268l-196 328l-65 16v18h237v-18l-74 -16l167 -291h1l172 287l-79 20v18h183v-18l-65 -19z" />
    <glyph glyph-name="Z" unicode="Z" horiz-adv-x="621" 
d="M26 12l419 624h-329l-53 -167h-16v202l64 -7h449v-4l-425 -632h357l93 188h18l-45 -216h-532v12z" />
    <glyph glyph-name="bracketleft" unicode="[" horiz-adv-x="288" 
d="M104 -181v914h172v-23h-106v-868h106v-23h-172z" />
    <glyph glyph-name="backslash" unicode="\" horiz-adv-x="415" 
d="M430 -204l-416 937l27 12l416 -937z" />
    <glyph glyph-name="bracketright" unicode="]" horiz-adv-x="288" 
d="M184 733v-914h-172v23h106v868h-106v23h172z" />
    <glyph glyph-name="asciicircum" unicode="^" horiz-adv-x="406" 
d="M40 485l150 271h26l151 -271h-32l-136 219l-129 -219h-30z" />
    <glyph glyph-name="underscore" unicode="_" horiz-adv-x="408" 
d="M4 -165h400v-34h-400v34z" />
    <glyph glyph-name="grave" unicode="`" horiz-adv-x="225" 
d="M113 752l53 -208h-21l-101 201v7h69z" />
    <glyph glyph-name="a" unicode="a" horiz-adv-x="450" 
d="M151 -14q-19 0 -39.5 5.5t-37.5 19t-28 35t-11 53.5q0 29 11 50.5t31 38t49.5 28.5t66.5 22l105 29v47q0 66 -28 100t-71 34q-23 0 -40 -7t-28 -17l-5 -94q-14 -8 -35 -8q-20 0 -32 10.5t-12 28.5q0 17 14.5 37.5t39.5 38t59 29t73 11.5q76 0 107.5 -35.5t31.5 -101.5
v-281q0 -14 5.5 -22.5t25.5 -8.5h50v-13q-15 -8 -31 -14q-14 -5 -29.5 -9t-29.5 -4q-36 0 -51.5 18t-14.5 61h-2q-35 -37 -68 -59t-76 -22zM197 38q32 0 58 19.5t43 42.5v147l-114 -40q-42 -14 -56 -36.5t-14 -49.5q0 -15 4.5 -30t14.5 -27t26 -19t38 -7z" />
    <glyph glyph-name="b" unicode="b" horiz-adv-x="512" 
d="M205 -14q-34 0 -62 7.5t-56 22.5l-21 11v634l-65 32v7l139 46v-348q11 11 26.5 25t35 26t42.5 20t50 8q34 0 66.5 -12t58 -39t41 -69.5t15.5 -102.5q0 -54 -22.5 -102.5t-60 -85t-86.5 -58.5t-101 -22zM255 428q-21 0 -39 -6.5t-32.5 -16t-25.5 -19.5t-18 -17v-311
q17 -15 42.5 -25.5t59.5 -10.5q31 0 59.5 12.5t50.5 39.5t35 68.5t13 99.5q0 40 -12 74t-32 59t-46 39t-55 14z" />
    <glyph glyph-name="c" unicode="c" horiz-adv-x="453" 
d="M244 -14q-40 0 -78 14.5t-67.5 44t-47.5 74.5t-18 106q0 57 21 103.5t55 79.5t76.5 51t85.5 18q31 0 60 -8.5t51 -22t35.5 -32t13.5 -37.5q0 -23 -17 -36t-40 -13q-11 0 -14 1q-3 0 -4 1l-23 85q-17 14 -37 24t-44 10q-28 0 -54.5 -12t-46.5 -35.5t-32.5 -58.5t-12.5 -81
q0 -53 14.5 -92.5t38.5 -66.5t54.5 -40.5t63.5 -13.5q51 0 86 24.5t62 54.5l14 -10q-7 -11 -21.5 -33t-38 -44t-57 -38.5t-78.5 -16.5z" />
    <glyph glyph-name="d" unicode="d" horiz-adv-x="531" 
d="M304 701l150 45v-703l69 -20v-13l-134 -19l-7 68q-27 -27 -65 -50t-87 -23t-86 18.5t-61.5 49.5t-37 71.5t-12.5 85.5q0 63 23 112t60 83.5t84 52.5t95 18q27 0 48 -5.5t37 -13.5v206l-76 30v7zM274 35q33 0 59.5 14t46.5 32v310q-23 26 -52.5 40.5t-69.5 14.5
q-31 0 -58 -13t-47.5 -38t-32 -63t-11.5 -87q0 -31 8.5 -67.5t28 -68t51 -53t77.5 -21.5z" />
    <glyph glyph-name="e" unicode="e" horiz-adv-x="460" 
d="M237 -14q-52 0 -90 20.5t-63.5 53.5t-38 74.5t-12.5 83.5q0 53 18 100t48.5 82.5t70.5 56t84 20.5q74 0 120.5 -48t54.5 -141h-323q-1 -7 -1 -14v-14q0 -100 43 -155t120 -55q28 0 51.5 8t43 20t34 26t25.5 26l14 -10q-14 -21 -30.5 -44.5t-40 -43.5t-54.5 -33t-74 -13z
M229 445q-46 0 -77.5 -36t-42.5 -96h232q-7 31 -16 55.5t-22 41.5t-31 26t-43 9z" />
    <glyph glyph-name="f" unicode="f" horiz-adv-x="290" 
d="M13 17l70 14v394h-77v19l78 21v36q0 50 17 94.5t45 77.5t65 52t78 19q24 0 46.5 -6.5t40 -17.5t27.5 -25.5t10 -30.5q0 -27 -19.5 -35.5t-43.5 -8.5l-24 73q-12 12 -28 18t-32 6q-19 0 -38.5 -8.5t-35.5 -29.5t-26 -55.5t-10 -85.5l1 -75h132v-38h-132v-394l81 -14v-17
h-225v17z" />
    <glyph glyph-name="g" unicode="g" horiz-adv-x="470" 
d="M346 418v-2q16 -17 32 -44t16 -65q0 -39 -16.5 -70t-42.5 -53t-59 -33.5t-67 -11.5q-21 0 -41.5 4t-39.5 13q-25 -22 -25 -47q0 -15 12.5 -26t35.5 -13l194 -14q57 -5 87.5 -32t30.5 -68q0 -38 -22.5 -73.5t-60.5 -63t-88 -44.5t-105 -17q-77 0 -124 29.5t-47 89.5
q0 32 25 62.5t60 48.5l25 13v3q-15 1 -29.5 5t-26.5 12.5t-19 21.5t-7 31q0 27 21 48t44 42v2q-31 20 -50.5 53t-19.5 83q0 39 13.5 70.5t37.5 54t56 35t69 12.5q32 0 57.5 -7.5t52.5 -18.5l141 15v-45h-120zM146 -2q-20 -16 -38.5 -40t-18.5 -58q0 -50 36.5 -78.5
t109.5 -28.5q43 0 73.5 12.5t50 31.5t28.5 41.5t9 41.5q0 27 -17 43.5t-41 21.5zM118 335q0 -84 27.5 -128t76.5 -44q38 0 65 33.5t27 92.5q0 45 -8.5 76t-23 51t-34 29.5t-40.5 9.5q-44 0 -67 -33.5t-23 -86.5z" />
    <glyph glyph-name="h" unicode="h" horiz-adv-x="525" 
d="M317 17l61 14v283q-1 45 -23.5 78t-69.5 33q-22 0 -42 -6.5t-37.5 -16t-31.5 -20t-25 -18.5v-333l67 -14v-17h-201v17l60 14v631l-65 32v7l139 45v-362q4 4 19.5 19t39.5 31.5t53.5 29t62.5 12.5q31 0 55 -8.5t40 -27.5t24.5 -50t8.5 -76v-283l63 -14v-17h-198v17z" />
    <glyph glyph-name="i" unicode="i" horiz-adv-x="239" 
d="M15 17l70 14v359l-67 30v7l141 50v-446l70 -14v-17h-214v17zM118 592q-22 0 -37.5 15.5t-15.5 37.5t15.5 37.5t37.5 15.5t37.5 -15.5t15.5 -37.5t-15.5 -37.5t-37.5 -15.5z" />
    <glyph glyph-name="j" unicode="j" horiz-adv-x="232" 
d="M-18 -225q30 21 48.5 40t30 43.5t16.5 59t8 87.5v385l-67 30v7l141 50v-453q0 -52 -5 -94.5t-26 -75.5q-20 -31 -53 -50t-86 -43zM118 592q-22 0 -37.5 15.5t-15.5 37.5t15.5 37.5t37.5 15.5t37.5 -15.5t15.5 -37.5t-15.5 -37.5t-37.5 -15.5z" />
    <glyph glyph-name="k" unicode="k" horiz-adv-x="468" 
d="M75 662l-65 32v7l139 45v-715l76 -14v-17h-210v17l60 14v631zM420 -14q-27 0 -45.5 13t-41.5 40l-178 210l209 178l-75 17v19h175v-19l-59 -17l-182 -152l242 -271q-3 -5 -9 -9q-5 -4 -14 -6.5t-22 -2.5z" />
    <glyph glyph-name="l" unicode="l" horiz-adv-x="222" 
d="M15 17l60 14v631l-63 32v7l137 45v-715l63 -14v-17h-197v17z" />
    <glyph glyph-name="m" unicode="m" horiz-adv-x="838" 
d="M632 17l59 14v283q0 22 -6 42.5t-17 36t-28.5 25t-41.5 9.5q-22 0 -42 -7t-37 -16.5t-31.5 -20.5t-25.5 -19v-333l67 -14v-17h-202v17l61 14v283q-1 45 -24 78t-69 33q-22 0 -42 -6.5t-37 -16t-31.5 -20t-25.5 -18.5v-333l67 -14v-17h-211v17l70 14v359l-67 30v7l133 47
h3l3 -90h1q4 4 19.5 18.5t39.5 31t54 29.5t63 13q49 0 79.5 -20.5t43.5 -74.5h2q25 26 54 47q25 18 57 33t67 15q31 0 54.5 -8.5t40 -27.5t25 -50t8.5 -76v-283l63 -14v-17h-196v17z" />
    <glyph glyph-name="n" unicode="n" horiz-adv-x="535" 
d="M15 17l70 14v359l-67 30v7l133 47h3l3 -90h1q4 4 19.5 19t39.5 31.5t54 29.5t63 13q63 0 95.5 -36t32.5 -127v-283l63 -14v-17h-198v17l61 14v283q-1 45 -23.5 78t-69.5 33q-22 0 -42 -6.5t-37.5 -16t-31.5 -20t-25 -18.5v-333l67 -14v-17h-211v17z" />
    <glyph glyph-name="o" unicode="o" horiz-adv-x="537" 
d="M255 451q-33 0 -59 -15.5t-44 -42.5t-27.5 -63.5t-9.5 -78.5q0 -51 12.5 -94.5t35 -75.5t52.5 -50.5t65 -18.5q33 0 59 15.5t44 42.5t28 64t10 79q0 51 -12.5 94.5t-35 75.5t-52.5 50t-66 18zM267 -14q-48 0 -90 16.5t-73.5 48t-50 76.5t-18.5 101q0 59 20.5 105t54 78
t75.5 49t85 17q51 0 93.5 -18t73 -50t48 -76t17.5 -97q0 -59 -20.5 -105.5t-54 -78.5t-75.5 -49t-85 -17z" />
    <glyph glyph-name="p" unicode="p" horiz-adv-x="523" 
d="M16 -221l61 14v592l-67 30v7l133 47h3l3 -87h1q12 18 27.5 34.5t35 30t42.5 21.5t50 8q33 0 65.5 -12t58 -39t41.5 -69.5t16 -102.5q0 -59 -24.5 -108t-63 -84t-86 -54.5t-93.5 -19.5q-20 0 -37 3.5t-31 8.5v-208l100 -13v-18h-235v19zM265 423q-23 0 -41 -7t-32 -17.5
t-24.5 -22.5t-16.5 -22v-301q16 -11 41.5 -21t60.5 -10q32 0 61 13t50.5 40t34 68t12.5 97q0 39 -11 72t-30.5 58t-46.5 39t-58 14z" />
    <glyph glyph-name="q" unicode="q" horiz-adv-x="526" 
d="M289 -222l91 13v271q-12 -12 -27.5 -25.5t-34.5 -25t-41 -19t-47 -7.5q-49 0 -86 19t-61.5 50.5t-37 72.5t-12.5 85q0 60 22 109t58.5 83.5t83 53.5t94.5 19q42 0 70.5 -11.5t42.5 -20.5l47 32h3v-684l57 -14v-19h-222v18zM275 35q33 0 59.5 16t45.5 35v304
q-17 20 -47.5 38t-74.5 18q-30 0 -57.5 -12.5t-47.5 -38t-32 -63t-12 -88.5q0 -29 8 -65.5t27 -68.5t51 -53.5t80 -21.5z" />
    <glyph glyph-name="r" unicode="r" horiz-adv-x="336" 
d="M15 17l70 14v359l-67 30v7l133 47h3l2 -135h3l11 22q17 34 31.5 56t28.5 35t27.5 18t27.5 5q19 0 32 -11.5t13 -30.5q0 -15 -6.5 -26t-17.5 -22l-67 21q-23 -13 -45 -43.5t-35 -67.5v-264l79 -14v-17h-223v17z" />
    <glyph glyph-name="s" unicode="s" horiz-adv-x="393" 
d="M176 -14q-41 0 -75 11t-52 22l-7 146h17l48 -126q28 -28 81 -28q46 0 73 27t27 65q0 35 -20.5 55.5t-65.5 37.5l-47 17q-51 18 -76.5 48t-25.5 81q0 31 13.5 56t37 42.5t54 27t65.5 9.5q30 0 59.5 -9t54.5 -23v-125h-17l-40 105q-12 11 -29 19.5t-40 8.5q-21 0 -37.5 -7
t-28 -19t-17.5 -27.5t-6 -31.5q0 -35 20.5 -54.5t63.5 -36.5l42 -16q63 -24 89 -54t26 -69q0 -35 -16 -63t-42.5 -48t-60 -30.5t-68.5 -10.5z" />
    <glyph glyph-name="t" unicode="t" horiz-adv-x="308" 
d="M178 -9q-52 0 -77.5 23t-25.5 80l2 331h-78v19l80 21l51 125h20v-127h144v-38h-144v-326q2 -33 21.5 -49t52.5 -16q25 0 48 7t31 10l4 -11q-8 -7 -20.5 -15.5t-28.5 -16t-36 -12.5t-44 -5z" />
    <glyph glyph-name="u" unicode="u" horiz-adv-x="527" 
d="M371 76q-9 -11 -24 -26t-35.5 -29.5t-47 -24.5t-57.5 -10q-38 0 -64 12.5t-42 34t-23.5 50t-7.5 59.5v271l-65 19v13l139 26v-306q0 -68 29.5 -96t75.5 -28q21 0 39 5.5t33.5 13.5t27.5 17t21 17v319l-77 19v13l151 26v-428l69 -20v-13l-134 -19z" />
    <glyph glyph-name="v" unicode="v" horiz-adv-x="453" 
d="M206 -14l-159 444l-56 18v15h204v-15l-66 -19l113 -332l7 -27h3l7 27l112 331l-76 20v15h167v-16l-57 -19l-160 -442h-39z" />
    <glyph glyph-name="w" unicode="w" horiz-adv-x="698" 
d="M502 119q4 -11 6 -19t4 -13q2 -6 3 -10h2q0 3 2 7q1 4 3 10.5t5 17.5l91 316l-76 20v15h165v-16l-59 -20l-137 -443h-43l-112 342q-3 8 -4.5 14.5t-3.5 12.5t-3 13h-2q-1 -6 -3 -13q-3 -12 -8 -27l-108 -342h-41l-135 446l-57 18v15h202v-15l-67 -20l94 -311
q2 -8 3.5 -14.5t3.5 -11.5l2 -10h2q0 5 2 10t3.5 11.5t4.5 14.5l113 356h33z" />
    <glyph glyph-name="x" unicode="x" horiz-adv-x="450" 
d="M401 29l54 -12v-17h-192v17l51 12l-103 170h-1l-109 -167l61 -15v-17h-163v17l65 15l132 191l-133 211l-54 14v15h194v-15l-53 -14l94 -156h2l96 154l-59 16v15h143v-15l-49 -16l-119 -177z" />
    <glyph glyph-name="y" unicode="y" horiz-adv-x="453" 
d="M296 448v15h166v-16l-57 -19l-219 -611q-11 -29 -27.5 -50t-48.5 -21q-23 0 -37.5 14t-14.5 35t13.5 34.5t34.5 13.5q17 0 28 -10t19 -25h2l61 163l-169 459l-56 18v15h206v-15l-66 -19l121 -350h2l118 349z" />
    <glyph glyph-name="z" unicode="z" horiz-adv-x="436" 
d="M30 0v16l272 420h-189l-52 -121h-14v153l73 -5h280v-5l-279 -431h202l67 136h15l-21 -169l-57 6h-297z" />
    <glyph glyph-name="braceleft" unicode="{" horiz-adv-x="322" 
d="M84 275q30 -3 52.5 -10t37.5 -19.5t23 -32.5t8 -49v-192q0 -39 5.5 -65.5t17.5 -42.5t31.5 -23t47.5 -7v-15h-15q-52 1 -84.5 12t-49.5 33t-21.5 54t-0.5 74l15 173q4 39 -14.5 66.5t-64.5 29.5l-27 1v28l27 1q46 2 64.5 29.5t14.5 66.5l-15 173q-4 42 0.5 74t21.5 54
t49.5 33t84.5 12h15v-15q-28 0 -47.5 -7t-31.5 -23.5t-17.5 -43t-5.5 -65.5v-190q0 -30 -8 -50t-23 -32.5t-37.5 -19.5t-52.5 -10v-2z" />
    <glyph glyph-name="bar" unicode="|" horiz-adv-x="200" 
d="M85 -200v929h30v-929h-30z" />
    <glyph glyph-name="braceright" unicode="}" horiz-adv-x="322" 
d="M238 277q-30 3 -52.5 10t-37.5 19.5t-23 32.5t-8 49v192q0 78 -23.5 108t-78.5 30v15h15q52 -1 84.5 -12t49.5 -33t21.5 -54t0.5 -74l-15 -173q-4 -39 14.5 -66.5t64.5 -29.5l27 -1v-28l-27 -1q-46 -2 -64.5 -29.5t-14.5 -66.5l15 -173q4 -42 -0.5 -74t-21.5 -54
t-49.5 -33t-84.5 -12h-15v15q55 0 78.5 30.5t23.5 108.5v190q0 30 8 49.5t23 32.5t37.5 20t52.5 10v2z" />
    <glyph glyph-name="asciitilde" unicode="~" horiz-adv-x="461" 
d="M18 198l4 10q17 42 38 66.5t44.5 35.5t50 9t53.5 -12l77 -29q31 -12 53 -13t38 6.5t27.5 23t22.5 36.5l17 -6l-4 -10q-29 -72 -74 -98.5t-112 -0.5l-65 25q-62 25 -96 12t-57 -61z" />
    <glyph glyph-name="uni00A0" unicode="&#xa0;" horiz-adv-x="180" 
 />
    <glyph glyph-name="exclamdown" unicode="&#xa1;" horiz-adv-x="252" 
d="M82 -134l28 517h27l28 -517h-83zM184 510q0 -25 -17 -42t-42 -17t-42 17t-17 42t17 42t42 17t42 -17t17 -42z" />
    <glyph glyph-name="cent" unicode="&#xa2;" horiz-adv-x="468" 
d="M243 -13q-36 1 -73 14.5t-67 41.5t-49 71.5t-19 103.5q0 55 17.5 100t46.5 78t66.5 53t77.5 26v116h27v-114q32 0 61 -8.5t51.5 -23t35.5 -32.5t13 -36t-14.5 -32t-37.5 -14q-8 0 -10 1q-2 0 -4 1l-24 84q-26 28 -71 32v-402q24 0 43.5 4.5t37 13t33.5 21.5t34 31l15 -12
q-29 -44 -66.5 -77t-96.5 -39v-108h-27v106zM108 263q0 -91 39 -145.5t96 -67.5v399q-32 -3 -57 -19t-42 -41.5t-26.5 -58t-9.5 -67.5z" />
    <glyph glyph-name="sterling" unicode="&#xa3;" horiz-adv-x="573" 
d="M115 292h122l27 107q17 68 46.5 116.5t63 79t66.5 44.5t57 14q17 0 33.5 -5.5t29 -15t20.5 -22t8 -27.5q0 -35 -56 -52q-6 31 -15 49t-18.5 27.5t-19 12.5t-16.5 3q-26 0 -49.5 -28.5t-41.5 -100.5l-50 -202h167l-1 -26h-173l-4 -18q-22 -86 -63 -140.5t-86 -84.5
q35 -17 68.5 -38t62.5 -41l34 -23q38 -27 63 -44t41.5 -27t27.5 -14t20 -4q15 0 24.5 11t13.5 29.5t2.5 42t-8.5 47.5q29 5 49 -2.5t20 -36.5q0 -14 -9.5 -34t-28.5 -39.5t-46.5 -33t-64.5 -13.5q-29 0 -60.5 14t-63.5 36t-63.5 48.5t-60.5 51.5l-57 49q-23 -11 -42.5 -15.5
t-33.5 -4.5q-21 0 -33 9.5t-12 24.5q0 17 14.5 27.5t36.5 10.5q17 0 37.5 -5.5t42.5 -13.5q23 20 42 58t34 96l19 77h-116v26z" />
    <glyph glyph-name="yen" unicode="&#xa5;" horiz-adv-x="512" 
d="M53 291h156l-174 311l-65 16v18h237v-18l-74 -16l149 -285h3l153 281l-79 20v18h183v-18l-65 -19l-178 -307v-1h162v-29h-162v-74h163v-29h-163v-124l94 -18v-17h-272v17l94 17v125h-162v29h162v74h-162v29z" />
    <glyph glyph-name="brokenbar" unicode="&#xa6;" horiz-adv-x="200" 
d="M85 313v416h30v-416h-30zM85 -200v417h30v-417h-30z" />
    <glyph glyph-name="section" unicode="&#xa7;" horiz-adv-x="419" 
d="M249 -96q0 12 -3 24t-12.5 31t-26 49t-43.5 78l-71 126q-17 31 -28 54t-17 42t-8 34t-2 30q0 40 14.5 77.5t39 70t55 59.5t63 46.5t63.5 30t55 10.5q40 0 55.5 -14t15.5 -29q0 -16 -9 -26t-23 -18q-19 13 -35.5 21t-42.5 10q-21 0 -49 -6.5t-55 -22.5q-10 -14 -10 -35
q0 -12 3.5 -24t12.5 -31t25.5 -48.5t43.5 -77.5l71 -127q17 -31 28 -54t17 -42t8 -34t2 -30q0 -40 -14.5 -77.5t-39 -70t-55 -59.5t-63 -46.5t-63.5 -30t-55 -10.5q-40 0 -55.5 14t-15.5 29q0 16 9 26t23 18q19 -13 35.5 -21t42.5 -10q20 0 48 6.5t56 22.5q10 17 10 35z
M97 418q0 -23 3.5 -44.5t12 -44.5t22 -50t33.5 -61l54 -95q21 -37 34 -63.5t20.5 -45.5t10 -33.5t2.5 -27.5q0 -17 -4 -30.5t-8 -19.5h5q20 23 32.5 54t12.5 75q0 23 -3.5 44.5t-12 44.5t-22 50t-33.5 61l-54 95q-21 37 -34 63.5t-20.5 45.5t-10 33.5t-2.5 27.5q0 17 4 30.5
t8 19.5h-5q-20 -23 -32.5 -54t-12.5 -75z" />
    <glyph glyph-name="dieresis" unicode="&#xa8;" horiz-adv-x="390" 
d="M130 598q-20 0 -33 13.5t-13 33.5t13 34t33 14t34 -14t14 -34t-14 -33.5t-34 -13.5zM282 598q-20 0 -33.5 13.5t-13.5 33.5t13.5 34t33.5 14t33.5 -14t13.5 -34t-13.5 -33.5t-33.5 -13.5z" />
    <glyph glyph-name="copyright" unicode="&#xa9;" horiz-adv-x="769" 
d="M40 324q0 72 27 135t73.5 109.5t109 73.5t134.5 27q71 0 134 -27t110 -73.5t74 -109.5t27 -135t-27 -134.5t-74 -109t-110 -73t-134 -26.5t-134 26.5t-109.5 73t-73.5 109t-27 134.5zM65 324q0 -67 25 -126t68.5 -102.5t101.5 -69t124 -25.5t124 25.5t101.5 69
t68.5 102.5t25 126t-25 126.5t-68.5 103t-101.5 69t-124 25.5t-124 -25.5t-101.5 -69t-68.5 -103t-25 -126.5zM389 133q-47 0 -82.5 14.5t-60.5 39.5t-37.5 58t-12.5 70q0 45 15.5 83t43 65t65.5 42t82 15q40 0 70 -11t52 -21l4 -104h-13l-34 84q-18 15 -38 24t-47 9
q-53 0 -87.5 -45t-34.5 -132q0 -77 35 -122.5t95 -45.5q24 0 46.5 8.5t37.5 22.5l33 93h14l-6 -106q-32 -17 -64 -29t-76 -12z" />
    <glyph glyph-name="ordfeminine" unicode="&#xaa;" horiz-adv-x="408" 
d="M132 237q-15 0 -31.5 5.5t-30 16t-22.5 27t-9 38.5q0 48 34 72.5t97 40.5l84 21v38q0 54 -22.5 81t-57.5 27q-20 0 -32.5 -6.5t-17.5 -11.5l-10 -78q-4 -2 -10 -4.5t-17 -2.5q-39 0 -39 36q0 12 12 28t32.5 30.5t49 24t61.5 9.5q62 0 90 -28t28 -81v-226q0 -12 5.5 -16.5
t22.5 -4.5h41v-15q-15 -6 -29 -10q-12 -4 -25.5 -6.5t-24.5 -2.5q-33 0 -43.5 18.5t-11.5 44.5h-2q-30 -29 -57 -47t-65 -18zM170 283q32 0 52.5 14.5t31.5 26.5v117l-80 -25q-32 -11 -50 -27.5t-18 -42.5q0 -30 19 -46.5t45 -16.5z" />
    <glyph glyph-name="guillemotleft" unicode="&#xab;" horiz-adv-x="415" 
d="M208 369l-115 -170l114 -155l-14 -15l-163 168v9l163 177zM360 369l-115 -170l114 -155l-14 -15l-163 168v9l163 177z" />
    <glyph glyph-name="logicalnot" unicode="&#xac;" 
d="M527 251v-194h-37v159h-437v35h474z" />
    <glyph glyph-name="registered" unicode="&#xae;" horiz-adv-x="399" 
d="M5 566q0 39 15.5 73.5t42.5 59.5t62.5 39.5t75.5 14.5t75 -14.5t61.5 -39.5t41.5 -59.5t15 -73.5q0 -40 -15.5 -74t-42.5 -59t-62.5 -39t-75.5 -14t-75 14t-61.5 39t-41.5 59t-15 74zM29 566q0 -36 13 -66.5t36 -53t54 -35.5t67 -13t67.5 12.5t54.5 35t36 53.5t13 67
t-13 66.5t-36 53t-54.5 35t-67.5 12.5t-67.5 -12.5t-54 -35t-35.5 -53t-13 -66.5zM104 482l28 5v168l-28 5v9h89q39 0 64 -11.5t25 -38.5q0 -12 -5 -21t-12.5 -15t-17 -9.5t-17.5 -6.5v-2l51 -77l30 -7v-8h-66l-29 43q-5 8 -9 15t-7 13q-4 7 -7 13h-21v-70l26 -6v-8h-94v9z
M172 569h26q41 8 41 45q0 21 -17.5 33t-49.5 12v-90z" />
    <glyph glyph-name="macron" unicode="&#xaf;" horiz-adv-x="390" 
d="M57 665h276v-48h-276v48z" />
    <glyph glyph-name="degree" unicode="&#xb0;" horiz-adv-x="286" 
d="M11 603q0 27 10.5 51t29 42t43 28.5t52.5 10.5t52 -10.5t41 -28.5t27 -42t10 -51q0 -28 -10.5 -52t-29 -42t-43 -28.5t-51.5 -10.5q-29 0 -53 10.5t-41 28.5t-27 42t-10 52zM42 603q0 -46 28.5 -77t73.5 -31t73 31t28 77t-28 77t-73 31t-73.5 -31t-28.5 -77z" />
    <glyph glyph-name="plusminus" unicode="&#xb1;" horiz-adv-x="579" 
d="M310 329v-216h-40v216h-217v35h217v216h40v-216h217v-35h-217zM53 35h474v-35h-474v35z" />
    <glyph glyph-name="acute" unicode="&#xb4;" horiz-adv-x="225" 
d="M180 752v-7l-101 -201h-21l53 208h69z" />
    <glyph glyph-name="paragraph" unicode="&#xb6;" horiz-adv-x="523" 
d="M498 647l-87 -16v-624q0 -55 -15 -95.5t-40.5 -66.5t-60 -39t-74.5 -13q-36 0 -66.5 11t-52.5 31.5t-34.5 49t-12.5 63.5q0 33 11 59.5t29.5 45.5t43.5 29t53 10q22 0 41 -8t32.5 -20.5t21 -29t7.5 -34.5q0 -38 -21.5 -58.5t-46.5 -20.5q-24 0 -41.5 16t-15.5 51
q26 5 47.5 10.5t36.5 18.5v7q-8 20 -25.5 31.5t-45.5 11.5q-17 0 -34 -7t-31 -21t-23 -35t-9 -49t9.5 -52.5t27.5 -42.5t44 -28.5t59 -10.5q66 0 103 47.5t37 129.5v638h-54v-382h-50q-43 0 -80.5 16t-65.5 44t-44 65.5t-16 79.5t16 79.5t44 65.5t65.5 44t80.5 16h237v-17z
" />
    <glyph glyph-name="periodcentered" unicode="&#xb7;" horiz-adv-x="294" 
d="M147 211q-25 0 -42 17t-17 42t17 42t42 17t42 -17t17 -42t-17 -42t-42 -17z" />
    <glyph glyph-name="cedilla" unicode="&#xb8;" horiz-adv-x="237" 
d="M43 -241q46 17 67 37t21 46t-15.5 41t-39.5 22l59 99h28l-34 -58q38 -10 54.5 -30.5t16.5 -47.5q0 -30 -15.5 -51.5t-38.5 -36t-49.5 -23.5t-48.5 -13z" />
    <glyph glyph-name="ordmasculine" unicode="&#xba;" horiz-adv-x="440" 
d="M211 608q-26 0 -46.5 -12t-34.5 -33.5t-21.5 -50.5t-7.5 -63q0 -41 10 -75.5t27 -60t41 -40t51 -14.5q26 0 46.5 12t34.5 33.5t21.5 51t7.5 63.5q0 40 -10 75t-27 60t-41 39.5t-51 14.5zM218 237q-39 0 -73 13.5t-59.5 38.5t-40.5 61t-15 81q0 47 17 84t44 62.5t61.5 39
t69.5 13.5q41 0 75.5 -14t59.5 -39.5t39 -61t14 -78.5q0 -48 -17 -85t-44 -62.5t-61.5 -39t-69.5 -13.5z" />
    <glyph glyph-name="guillemotright" unicode="&#xbb;" horiz-adv-x="415" 
d="M206 43l115 170l-114 155l14 15l164 -168v-9l-164 -177zM55 43l115 170l-114 155l14 15l164 -168v-9l-164 -177z" />
    <glyph glyph-name="onequarter" unicode="&#xbc;" horiz-adv-x="679" 
d="M149 326l64 -9v-18h-190v17l66 9v299l-76 -3v17l132 35h4v-347zM70 -62l539 783l22 -16l-539 -785zM594 136h78v-39h-78v-69l57 -10v-17h-169v17l57 9v70h-157l-1 -1v1h-13v19l211 256l15 -8v-228zM539 136v155l-126 -155h126z" />
    <glyph glyph-name="onehalf" unicode="&#xbd;" horiz-adv-x="704" 
d="M70 -62l539 783l22 -16l-539 -785zM149 326l64 -9v-18h-190v17l66 9v299l-76 -3v17l132 35h4v-347zM480 48h211v-47h-264v22l78 74q14 13 32 30t34.5 37t27.5 43t11 47q0 36 -22.5 55.5t-48.5 19.5q-32 0 -53 -12.5t-44 -43.5l-12 8q7 19 19.5 36t29.5 30.5t38 21.5t45 8
q22 0 41.5 -8t34 -22t22.5 -32t8 -38q0 -25 -9 -46.5t-25.5 -42.5t-41 -43.5t-55.5 -48.5z" />
    <glyph glyph-name="threequarters" unicode="&#xbe;" horiz-adv-x="683" 
d="M126 309q41 0 66 20t25 59q0 40 -36.5 62.5t-105.5 22.5v19q34 6 57 16t37 22t20 25t6 25q0 23 -15 38t-42 15q-26 0 -49 -12.5t-48 -40.5l-17 11q10 16 22.5 31.5t28.5 26.5t36 18t46 7q28 0 47.5 -7t30.5 -18t16 -24.5t5 -25.5q0 -20 -8 -34.5t-21 -25.5t-30 -19.5
t-35 -16.5v-4q51 -3 83 -27t32 -65q0 -28 -14 -49.5t-36 -36.5t-49 -23t-52 -8q-56 0 -84 16t-28 37q0 16 11 24t28 10l31 -55q3 -4 15 -8.5t27 -4.5zM74 -62l539 783l22 -16l-539 -785zM598 136h78v-39h-78v-69l57 -10v-17h-169v17l57 9v70h-157l-1 -1v1h-13v19l211 256
l15 -8v-228zM543 136v155l-126 -155h126z" />
    <glyph glyph-name="questiondown" unicode="&#xbf;" horiz-adv-x="330" 
d="M283 -131l-15 3q-47 9 -89.5 34t-74 58t-50 71.5t-18.5 75.5q0 80 80 112l103 42l-9 118h24l39 -175l-130 -49q-33 -13 -52.5 -32t-19.5 -53q0 -18 8 -34.5t27.5 -31t53.5 -27t87 -21.5l36 -6v-85zM224 569q25 0 42 -17t17 -42t-17 -42t-42 -17t-42 17t-17 42t17 42
t42 17z" />
    <glyph glyph-name="Agrave" unicode="&#xc0;" horiz-adv-x="632" 
d="M-24 19l77 17l228 633l29 6l36 8l234 -651l76 -15v-17h-247v19l80 13l-72 206h-254l-68 -200l118 -19v-19h-237v19zM176 276h227l-114 327h-2zM261 865l80 -137h-27l-131 131v6h78z" />
    <glyph glyph-name="Aacute" unicode="&#xc1;" horiz-adv-x="632" 
d="M-24 19l77 17l228 633l29 6l36 8l234 -651l76 -15v-17h-247v19l80 13l-72 206h-254l-68 -200l118 -19v-19h-237v19zM176 276h227l-114 327h-2zM455 865v-6l-131 -131h-27l80 137h78z" />
    <glyph glyph-name="Acircumflex" unicode="&#xc2;" horiz-adv-x="632" 
d="M-24 19l77 17l228 633l29 6l36 8l234 -651l76 -15v-17h-247v19l80 13l-72 206h-254l-68 -200l118 -19v-19h-237v19zM176 276h227l-114 327h-2zM180 728l114 125h54l104 -125h-32l-102 79l-109 -79h-29z" />
    <glyph glyph-name="Atilde" unicode="&#xc3;" horiz-adv-x="632" 
d="M-24 19l77 17l228 633l29 6l36 8l234 -651l76 -15v-17h-247v19l80 13l-72 206h-254l-68 -200l118 -19v-19h-237v19zM176 276h227l-114 327h-2zM308 758q-26 9 -43 14t-29.5 3t-22 -12t-21.5 -31l-18 9l5 11q16 33 31.5 51t33 24.5t37.5 3.5t46 -12l33 -11q19 -6 34 -9
t28 0t24 13.5t22 30.5l18 -8l-5 -10q-17 -37 -34 -56t-34.5 -26t-36.5 -4.5t-39 9.5z" />
    <glyph glyph-name="Adieresis" unicode="&#xc4;" horiz-adv-x="632" 
d="M-24 19l77 17l228 633l29 6l36 8l234 -651l76 -15v-17h-247v19l80 13l-72 206h-254l-68 -200l118 -19v-19h-237v19zM176 276h227l-114 327h-2zM227 758q-20 0 -33 13.5t-13 33.5t13 34t33 14t34 -14t14 -34t-14 -33.5t-34 -13.5zM420 758q-20 0 -33.5 13.5t-13.5 33.5
t13.5 34t33.5 14t33.5 -14t13.5 -34t-13.5 -33.5t-33.5 -13.5z" />
    <glyph glyph-name="Aring" unicode="&#xc5;" horiz-adv-x="632" 
d="M-24 19l77 17l228 633l29 6l36 8l234 -651l76 -15v-17h-247v19l80 13l-72 206h-254l-68 -200l118 -19v-19h-237v19zM176 276h227l-114 327h-2zM222 832q0 43 28.5 70t70.5 27q43 0 71.5 -26.5t28.5 -70.5q0 -43 -28.5 -70.5t-70.5 -27.5q-43 0 -71.5 27t-28.5 71z
M253 832q0 -31 20 -51.5t48 -20.5q29 0 49.5 20.5t20.5 51.5t-20.5 51.5t-48.5 20.5q-29 0 -49 -20.5t-20 -51.5z" />
    <glyph glyph-name="AE" unicode="&#xc6;" horiz-adv-x="908" 
d="M518 320v-270q14 -19 45 -23h197l91 166h19l-43 -193h-482v17l87 16v287h-192l-154 -283l112 -20v-17h-223v17l66 20l343 593l-92 17v17h478l65 5v-189h-18l-47 157h-252v-287h146l31 107h17v-238h-17l-31 101h-146zM421 637l-164 -287h175v287h-11z" />
    <glyph glyph-name="Ccedilla" unicode="&#xc7;" horiz-adv-x="702" 
d="M290 -241q46 17 67 37t21 46t-15.5 41t-39.5 22l43 74q-86 2 -147.5 32.5t-101.5 77.5t-58.5 105t-18.5 114q0 81 30 150.5t81.5 120t120 79t146.5 28.5q29 0 58.5 -4.5t57.5 -12t52.5 -17.5t43.5 -21l9 -164h-19l-57 135q-35 25 -76 41t-90 16q-56 0 -104.5 -25.5
t-84 -69t-55.5 -102t-20 -125.5q0 -85 23 -146.5t61 -102t87 -60t101 -19.5q50 0 92 19t71 39l78 155h19l-28 -178q-57 -23 -115 -42.5t-127 -22.5l-19 -33q38 -10 54.5 -30.5t16.5 -47.5q0 -30 -15.5 -51.5t-38.5 -36t-49.5 -23.5t-48.5 -13z" />
    <glyph glyph-name="Egrave" unicode="&#xc8;" horiz-adv-x="588" 
d="M258 865l80 -137h-27l-131 131v6h78zM198 331v-282q8 -9 18 -14.5t27 -7.5h197l91 166h19l-43 -193h-482v19l87 14v598l-87 16v17h424l66 5v-189h-18l-47 157h-252v-275h146l31 107h17v-239h-17l-31 101h-146z" />
    <glyph glyph-name="Eacute" unicode="&#xc9;" horiz-adv-x="588" 
d="M452 865v-6l-131 -131h-27l80 137h78zM198 331v-282q8 -9 18 -14.5t27 -7.5h197l91 166h19l-43 -193h-482v19l87 14v598l-87 16v17h424l66 5v-189h-18l-47 157h-252v-275h146l31 107h17v-239h-17l-31 101h-146z" />
    <glyph glyph-name="Ecircumflex" unicode="&#xca;" horiz-adv-x="588" 
d="M174 728l114 125h54l104 -125h-32l-102 79l-109 -79h-29zM198 331v-282q8 -9 18 -14.5t27 -7.5h197l91 166h19l-43 -193h-482v19l87 14v598l-87 16v17h424l66 5v-189h-18l-47 157h-252v-275h146l31 107h17v-239h-17l-31 101h-146z" />
    <glyph glyph-name="Edieresis" unicode="&#xcb;" horiz-adv-x="588" 
d="M198 331v-282q8 -9 18 -14.5t27 -7.5h197l91 166h19l-43 -193h-482v19l87 14v598l-87 16v17h424l66 5v-189h-18l-47 157h-252v-275h146l31 107h17v-239h-17l-31 101h-146zM217 758q-20 0 -33 13.5t-13 33.5t13 34t33 14t34 -14t14 -34t-14 -33.5t-34 -13.5zM410 758
q-20 0 -33.5 13.5t-13.5 33.5t13.5 34t33.5 14t33.5 -14t13.5 -34t-13.5 -33.5t-33.5 -13.5z" />
    <glyph glyph-name="Igrave" unicode="&#xcc;" horiz-adv-x="310" 
d="M25 20l87 14v596l-87 16v18h260v-18l-87 -16v-596l87 -14v-20h-260v20zM93 865l80 -137h-27l-131 131v6h78z" />
    <glyph glyph-name="Iacute" unicode="&#xcd;" horiz-adv-x="310" 
d="M25 20l87 14v596l-87 16v18h260v-18l-87 -16v-596l87 -14v-20h-260v20zM295 865v-6l-131 -131h-27l80 137h78z" />
    <glyph glyph-name="Icircumflex" unicode="&#xce;" horiz-adv-x="310" 
d="M25 20l87 14v596l-87 16v18h260v-18l-87 -16v-596l87 -14v-20h-260v20zM28 728l98 125h64l87 -125h-31l-91 91l-95 -91h-32z" />
    <glyph glyph-name="Idieresis" unicode="&#xcf;" horiz-adv-x="310" 
d="M79 757q-20 0 -33 13.5t-13 33.5t13 34t33 14t34 -14t14 -34t-14 -33.5t-34 -13.5zM230 757q-20 0 -33.5 13.5t-13.5 33.5t13.5 34t33.5 14t33.5 -14t13.5 -34t-13.5 -33.5t-33.5 -13.5zM25 20l87 14v596l-87 16v18h260v-18l-87 -16v-596l87 -14v-20h-260v20z" />
    <glyph glyph-name="Eth" unicode="&#xd0;" horiz-adv-x="737" 
d="M25 19l87 14v286h-85v24h85v288l-87 15v18l283 2q93 -4 165 -30t122 -68.5t76 -99t26 -121.5q0 -79 -29 -144t-85.5 -111.5t-139.5 -71.5t-190 -23l-228 3v19zM198 319v-276q31 -12 62 -15.5t60 -2.5q67 1 119.5 26.5t88.5 67.5t55 95.5t19 112.5q0 88 -32.5 150.5
t-88 100.5t-129 53.5t-154.5 10.5v-299h181v-24h-181z" />
    <glyph glyph-name="Ntilde" unicode="&#xd1;" horiz-adv-x="710" 
d="M354 758q-26 9 -43 14t-29.5 3t-22 -12t-21.5 -31l-18 9l5 11q16 33 31.5 51t33 24.5t37.5 3.5t46 -12l33 -11q19 -6 34 -9t28 0t24 13.5t22 30.5l18 -8l-5 -10q-17 -37 -34 -56t-34.5 -26t-36.5 -4.5t-39 9.5zM595 -6l-450 583v-537l112 -19v-21h-232v20l87 22v560
q-14 14 -31.5 24.5t-40.5 15.5l-15 4v18h157l393 -509v469l-104 19v21h224v-20l-87 -22v-493l4 -135h-17z" />
    <glyph glyph-name="Ograve" unicode="&#xd2;" horiz-adv-x="779" 
d="M335 865l80 -137h-27l-131 131v6h78zM399 4q66 0 112.5 27.5t75.5 72t42.5 101t13.5 114.5q0 69 -20 130.5t-55.5 108t-84.5 74t-108 27.5q-64 0 -109.5 -28t-74 -73t-42 -101.5t-13.5 -112.5q0 -66 19.5 -127.5t54 -108.5t83 -75.5t106.5 -28.5zM388 685q75 0 139 -26.5
t111.5 -73t74 -110t26.5 -137.5q0 -83 -30 -149.5t-79.5 -113.5t-112 -72t-127.5 -25q-69 0 -132 25t-111.5 70.5t-77.5 110t-29 142.5q0 82 30.5 148.5t79.5 113.5t111.5 72t126.5 25z" />
    <glyph glyph-name="Oacute" unicode="&#xd3;" horiz-adv-x="779" 
d="M531 865v-6l-131 -131h-27l80 137h78zM399 4q66 0 112.5 27.5t75.5 72t42.5 101t13.5 114.5q0 69 -20 130.5t-55.5 108t-84.5 74t-108 27.5q-64 0 -109.5 -28t-74 -73t-42 -101.5t-13.5 -112.5q0 -66 19.5 -127.5t54 -108.5t83 -75.5t106.5 -28.5zM388 685
q75 0 139 -26.5t111.5 -73t74 -110t26.5 -137.5q0 -83 -30 -149.5t-79.5 -113.5t-112 -72t-127.5 -25q-69 0 -132 25t-111.5 70.5t-77.5 110t-29 142.5q0 82 30.5 148.5t79.5 113.5t111.5 72t126.5 25z" />
    <glyph glyph-name="Ocircumflex" unicode="&#xd4;" horiz-adv-x="779" 
d="M259 728l114 125h54l104 -125h-32l-102 79l-109 -79h-29zM399 4q66 0 112.5 27.5t75.5 72t42.5 101t13.5 114.5q0 69 -20 130.5t-55.5 108t-84.5 74t-108 27.5q-64 0 -109.5 -28t-74 -73t-42 -101.5t-13.5 -112.5q0 -66 19.5 -127.5t54 -108.5t83 -75.5t106.5 -28.5z
M388 685q75 0 139 -26.5t111.5 -73t74 -110t26.5 -137.5q0 -83 -30 -149.5t-79.5 -113.5t-112 -72t-127.5 -25q-69 0 -132 25t-111.5 70.5t-77.5 110t-29 142.5q0 82 30.5 148.5t79.5 113.5t111.5 72t126.5 25z" />
    <glyph glyph-name="Otilde" unicode="&#xd5;" horiz-adv-x="779" 
d="M388 758q-26 9 -43 14t-29.5 3t-22 -12t-21.5 -31l-18 9l5 11q16 33 31.5 51t33 24.5t37.5 3.5t46 -12l33 -11q19 -6 34 -9t28 0t24 13.5t22 30.5l18 -8l-5 -10q-17 -37 -34 -56t-34.5 -26t-36.5 -4.5t-39 9.5zM399 4q66 0 112.5 27.5t75.5 72t42.5 101t13.5 114.5
q0 69 -20 130.5t-55.5 108t-84.5 74t-108 27.5q-64 0 -109.5 -28t-74 -73t-42 -101.5t-13.5 -112.5q0 -66 19.5 -127.5t54 -108.5t83 -75.5t106.5 -28.5zM388 685q75 0 139 -26.5t111.5 -73t74 -110t26.5 -137.5q0 -83 -30 -149.5t-79.5 -113.5t-112 -72t-127.5 -25
q-69 0 -132 25t-111.5 70.5t-77.5 110t-29 142.5q0 82 30.5 148.5t79.5 113.5t111.5 72t126.5 25z" />
    <glyph glyph-name="Odieresis" unicode="&#xd6;" horiz-adv-x="779" 
d="M302 758q-20 0 -33 13.5t-13 33.5t13 34t33 14t34 -14t14 -34t-14 -33.5t-34 -13.5zM495 758q-20 0 -33.5 13.5t-13.5 33.5t13.5 34t33.5 14t33.5 -14t13.5 -34t-13.5 -33.5t-33.5 -13.5zM399 4q66 0 112.5 27.5t75.5 72t42.5 101t13.5 114.5q0 69 -20 130.5t-55.5 108
t-84.5 74t-108 27.5q-64 0 -109.5 -28t-74 -73t-42 -101.5t-13.5 -112.5q0 -66 19.5 -127.5t54 -108.5t83 -75.5t106.5 -28.5zM388 685q75 0 139 -26.5t111.5 -73t74 -110t26.5 -137.5q0 -83 -30 -149.5t-79.5 -113.5t-112 -72t-127.5 -25q-69 0 -132 25t-111.5 70.5
t-77.5 110t-29 142.5q0 82 30.5 148.5t79.5 113.5t111.5 72t126.5 25z" />
    <glyph glyph-name="multiply" unicode="&#xd7;" 
d="M288 211l-188 -193l-27 26l189 191l-188 192l27 25l189 -190l191 197l26 -26l-191 -196l190 -193l-28 -25z" />
    <glyph glyph-name="Oslash" unicode="&#xd8;" horiz-adv-x="779" 
d="M155 68q-52 46 -83.5 111.5t-31.5 146.5q0 82 30.5 148.5t79.5 113.5t111.5 72t126.5 25q57 0 108 -16.5t94 -45.5l67 86h35l-80 -102q58 -48 92.5 -117t34.5 -152t-30 -149.5t-79.5 -113.5t-112 -72t-127.5 -25q-57 0 -112 18.5t-102 53.5l-67 -86h-36zM399 4
q66 0 112.5 27.5t75.5 72t42.5 101t13.5 114.5q0 68 -19 128t-54 107l-355 -454q35 -45 81.5 -70.5t102.5 -25.5zM136 344q0 -61 16.5 -117.5t45.5 -102.5l354 452q-35 38 -79.5 60.5t-97.5 22.5q-64 0 -109.5 -28t-74 -73t-42 -101.5t-13.5 -112.5z" />
    <glyph glyph-name="Ugrave" unicode="&#xd9;" horiz-adv-x="708" 
d="M324 865l80 -137h-27l-131 131v6h78zM351 -24q-71 0 -119.5 20.5t-78.5 57.5t-43 88.5t-13 112.5v375l-82 17v17h255v-17l-86 -17v-353q0 -53 8.5 -100.5t29.5 -83t56.5 -56t89.5 -20.5q53 0 90.5 16t62.5 45.5t38 70.5t17 92v384l-98 21v18h215v-18l-81 -21v-368
q0 -72 -20.5 -124.5t-56 -87.5t-83 -52t-101.5 -17z" />
    <glyph glyph-name="Uacute" unicode="&#xda;" horiz-adv-x="708" 
d="M506 865v-6l-131 -131h-27l80 137h78zM351 -24q-71 0 -119.5 20.5t-78.5 57.5t-43 88.5t-13 112.5v375l-82 17v17h255v-17l-86 -17v-353q0 -53 8.5 -100.5t29.5 -83t56.5 -56t89.5 -20.5q53 0 90.5 16t62.5 45.5t38 70.5t17 92v384l-98 21v18h215v-18l-81 -21v-368
q0 -72 -20.5 -124.5t-56 -87.5t-83 -52t-101.5 -17z" />
    <glyph glyph-name="Ucircumflex" unicode="&#xdb;" horiz-adv-x="708" 
d="M241 728l114 125h54l104 -125h-32l-102 79l-109 -79h-29zM351 -24q-71 0 -119.5 20.5t-78.5 57.5t-43 88.5t-13 112.5v375l-82 17v17h255v-17l-86 -17v-353q0 -53 8.5 -100.5t29.5 -83t56.5 -56t89.5 -20.5q53 0 90.5 16t62.5 45.5t38 70.5t17 92v384l-98 21v18h215v-18
l-81 -21v-368q0 -72 -20.5 -124.5t-56 -87.5t-83 -52t-101.5 -17z" />
    <glyph glyph-name="Udieresis" unicode="&#xdc;" horiz-adv-x="708" 
d="M351 -24q-71 0 -119.5 20.5t-78.5 57.5t-43 88.5t-13 112.5v375l-82 17v17h255v-17l-86 -17v-353q0 -53 8.5 -100.5t29.5 -83t56.5 -56t89.5 -20.5q53 0 90.5 16t62.5 45.5t38 70.5t17 92v384l-98 21v18h215v-18l-81 -21v-368q0 -72 -20.5 -124.5t-56 -87.5t-83 -52
t-101.5 -17zM278 758q-20 0 -33 13.5t-13 33.5t13 34t33 14t34 -14t14 -34t-14 -33.5t-34 -13.5zM471 758q-20 0 -33.5 13.5t-13.5 33.5t13.5 34t33.5 14t33.5 -14t13.5 -34t-13.5 -33.5t-33.5 -13.5z" />
    <glyph glyph-name="Yacute" unicode="&#xdd;" horiz-adv-x="573" 
d="M330 314v-280l92 -14v-20h-270v20l92 14v268l-196 328l-65 16v18h237v-18l-74 -16l167 -291h1l172 287l-79 20v18h183v-18l-65 -19zM453 865v-6l-131 -131h-27l80 137h78z" />
    <glyph glyph-name="Thorn" unicode="&#xde;" horiz-adv-x="560" 
d="M25 19l87 14v598l-87 15v18h260v-17l-87 -16v-117h46q141 -3 213 -45.5t72 -117.5q0 -39 -21 -72t-58.5 -57t-90 -37.5t-115.5 -13.5v19q42 3 78 14t63 30t42 45t15 61q0 31 -13 58.5t-42 48t-75.5 32.5t-113.5 12v-458l95 -16v-17h-268v19z" />
    <glyph glyph-name="germandbls" unicode="&#xdf;" horiz-adv-x="563" 
d="M15 19l68 14v392h-77v19l78 21q0 57 13.5 107.5t40.5 89t68 60.5t96 22q75 0 121.5 -33.5t46.5 -88.5q0 -23 -7.5 -42.5t-22 -38.5t-34.5 -38t-45 -41q-23 -21 -36 -40t-13 -42t14 -39.5t49 -36.5l67 -39q57 -32 79 -61.5t22 -69.5q0 -33 -16 -60.5t-42 -47t-59.5 -30
t-68.5 -10.5q-25 0 -59.5 7.5t-66.5 30.5l-2 137h13l44 -121q14 -13 33.5 -21t47.5 -8q43 0 71.5 25.5t28.5 68.5q0 33 -20 56.5t-69 50.5l-63 35q-64 36 -64 91q0 19 8 37t20.5 34t27 31.5t27.5 30.5q16 19 28 33.5t20 29.5t12 32t4 40q0 19 -7 39.5t-20.5 37t-33.5 27
t-46 10.5q-28 0 -52.5 -8.5t-42.5 -29.5t-28.5 -56t-10.5 -88v-538h-142v19z" />
    <glyph glyph-name="agrave" unicode="&#xe0;" horiz-adv-x="450" 
d="M151 -14q-19 0 -39.5 5.5t-37.5 19t-28 35t-11 53.5q0 29 11 50.5t31 38t49.5 28.5t66.5 22l105 29v47q0 66 -28 100t-71 34q-23 0 -40 -7t-28 -17l-5 -94q-14 -8 -35 -8q-20 0 -32 10.5t-12 28.5q0 17 14.5 37.5t39.5 38t59 29t73 11.5q76 0 107.5 -35.5t31.5 -101.5
v-281q0 -14 5.5 -22.5t25.5 -8.5h50v-13q-15 -8 -31 -14q-14 -5 -29.5 -9t-29.5 -4q-36 0 -51.5 18t-14.5 61h-2q-35 -37 -68 -59t-76 -22zM197 38q32 0 58 19.5t43 42.5v147l-114 -40q-42 -14 -56 -36.5t-14 -49.5q0 -15 4.5 -30t14.5 -27t26 -19t38 -7zM180 752l53 -208
h-21l-101 201v7h69z" />
    <glyph glyph-name="aacute" unicode="&#xe1;" horiz-adv-x="450" 
d="M151 -14q-19 0 -39.5 5.5t-37.5 19t-28 35t-11 53.5q0 29 11 50.5t31 38t49.5 28.5t66.5 22l105 29v47q0 66 -28 100t-71 34q-23 0 -40 -7t-28 -17l-5 -94q-14 -8 -35 -8q-20 0 -32 10.5t-12 28.5q0 17 14.5 37.5t39.5 38t59 29t73 11.5q76 0 107.5 -35.5t31.5 -101.5
v-281q0 -14 5.5 -22.5t25.5 -8.5h50v-13q-15 -8 -31 -14q-14 -5 -29.5 -9t-29.5 -4q-36 0 -51.5 18t-14.5 61h-2q-35 -37 -68 -59t-76 -22zM197 38q32 0 58 19.5t43 42.5v147l-114 -40q-42 -14 -56 -36.5t-14 -49.5q0 -15 4.5 -30t14.5 -27t26 -19t38 -7zM327 752v-7
l-101 -201h-21l53 208h69z" />
    <glyph glyph-name="acircumflex" unicode="&#xe2;" horiz-adv-x="450" 
d="M151 -14q-19 0 -39.5 5.5t-37.5 19t-28 35t-11 53.5q0 29 11 50.5t31 38t49.5 28.5t66.5 22l105 29v47q0 66 -28 100t-71 34q-23 0 -40 -7t-28 -17l-5 -94q-14 -8 -35 -8q-20 0 -32 10.5t-12 28.5q0 17 14.5 37.5t39.5 38t59 29t73 11.5q76 0 107.5 -35.5t31.5 -101.5
v-281q0 -14 5.5 -22.5t25.5 -8.5h50v-13q-15 -8 -31 -14q-14 -5 -29.5 -9t-29.5 -4q-36 0 -51.5 18t-14.5 61h-2q-35 -37 -68 -59t-76 -22zM197 38q32 0 58 19.5t43 42.5v147l-114 -40q-42 -14 -56 -36.5t-14 -49.5q0 -15 4.5 -30t14.5 -27t26 -19t38 -7zM99 544l101 208h40
l102 -208h-26l-98 149l-96 -149h-23z" />
    <glyph glyph-name="atilde" unicode="&#xe3;" horiz-adv-x="450" 
d="M151 -14q-19 0 -39.5 5.5t-37.5 19t-28 35t-11 53.5q0 29 11 50.5t31 38t49.5 28.5t66.5 22l105 29v47q0 66 -28 100t-71 34q-23 0 -40 -7t-28 -17l-5 -94q-14 -8 -35 -8q-20 0 -32 10.5t-12 28.5q0 17 14.5 37.5t39.5 38t59 29t73 11.5q76 0 107.5 -35.5t31.5 -101.5
v-281q0 -14 5.5 -22.5t25.5 -8.5h50v-13q-15 -8 -31 -14q-14 -5 -29.5 -9t-29.5 -4q-36 0 -51.5 18t-14.5 61h-2q-35 -37 -68 -59t-76 -22zM197 38q32 0 58 19.5t43 42.5v147l-114 -40q-42 -14 -56 -36.5t-14 -49.5q0 -15 4.5 -30t14.5 -27t26 -19t38 -7zM204 613
q-26 9 -43 14t-29.5 3t-22 -12t-21.5 -31l-18 9l5 11q16 33 31.5 51t33 24.5t37.5 3.5t46 -12l33 -11q19 -6 34 -9t28 0t24 13.5t22 30.5l18 -8l-5 -10q-17 -37 -34 -56t-34.5 -26t-36.5 -4.5t-39 9.5z" />
    <glyph glyph-name="adieresis" unicode="&#xe4;" horiz-adv-x="450" 
d="M151 -14q-19 0 -39.5 5.5t-37.5 19t-28 35t-11 53.5q0 29 11 50.5t31 38t49.5 28.5t66.5 22l105 29v47q0 66 -28 100t-71 34q-23 0 -40 -7t-28 -17l-5 -94q-14 -8 -35 -8q-20 0 -32 10.5t-12 28.5q0 17 14.5 37.5t39.5 38t59 29t73 11.5q76 0 107.5 -35.5t31.5 -101.5
v-281q0 -14 5.5 -22.5t25.5 -8.5h50v-13q-15 -8 -31 -14q-14 -5 -29.5 -9t-29.5 -4q-36 0 -51.5 18t-14.5 61h-2q-35 -37 -68 -59t-76 -22zM197 38q32 0 58 19.5t43 42.5v147l-114 -40q-42 -14 -56 -36.5t-14 -49.5q0 -15 4.5 -30t14.5 -27t26 -19t38 -7zM139 598
q-20 0 -33 13.5t-13 33.5t13 34t33 14t34 -14t14 -34t-14 -33.5t-34 -13.5zM291 598q-20 0 -33.5 13.5t-13.5 33.5t13.5 34t33.5 14t33.5 -14t13.5 -34t-13.5 -33.5t-33.5 -13.5z" />
    <glyph glyph-name="aring" unicode="&#xe5;" horiz-adv-x="450" 
d="M151 -14q-19 0 -39.5 5.5t-37.5 19t-28 35t-11 53.5q0 29 11 50.5t31 38t49.5 28.5t66.5 22l105 29v47q0 66 -28 100t-71 34q-23 0 -40 -7t-28 -17l-5 -94q-14 -8 -35 -8q-20 0 -32 10.5t-12 28.5q0 17 14.5 37.5t39.5 38t59 29t73 11.5q76 0 107.5 -35.5t31.5 -101.5
v-281q0 -14 5.5 -22.5t25.5 -8.5h50v-13q-15 -8 -31 -14q-14 -5 -29.5 -9t-29.5 -4q-36 0 -51.5 18t-14.5 61h-2q-35 -37 -68 -59t-76 -22zM197 38q32 0 58 19.5t43 42.5v147l-114 -40q-42 -14 -56 -36.5t-14 -49.5q0 -15 4.5 -30t14.5 -27t26 -19t38 -7zM123 656
q0 43 28.5 70t70.5 27q43 0 71.5 -26.5t28.5 -70.5q0 -43 -28.5 -70.5t-70.5 -27.5q-43 0 -71.5 27t-28.5 71zM154 656q0 -31 20 -51.5t48 -20.5q29 0 49.5 20.5t20.5 51.5t-20.5 51.5t-48.5 20.5q-29 0 -49 -20.5t-20 -51.5z" />
    <glyph glyph-name="ae" unicode="&#xe6;" horiz-adv-x="709" 
d="M151 -14q-19 0 -39.5 6t-37.5 19t-28 34.5t-11 53.5t15 53.5t41.5 36.5t62 26t76.5 22l69 18v95q-4 19 -12 37t-20.5 31.5t-29.5 21.5t-38 8q-23 0 -40 -7t-28 -17l-5 -95q-16 -7 -35 -7q-20 0 -32 11t-12 28t14.5 37.5t39.5 38t59 29t73 11.5q51 0 80.5 -19.5
t45.5 -58.5q18 34 54.5 56t86.5 22q39 0 68.5 -12.5t50.5 -33.5t33.5 -49.5t18.5 -60.5l-299 -73v-69q3 -57 42 -93t100 -36q28 0 51.5 8t43 20t34 26t25.5 26l14 -10q-14 -21 -30.5 -44.5t-40 -43.5t-54.5 -33t-74 -13q-58 0 -102.5 26.5t-65.5 74.5l-44 -44t-37.5 -31.5
t-38 -19t-44.5 -6.5zM299 233l-78 -22q-34 -10 -55 -20t-32.5 -21t-15.5 -23.5t-4 -25.5q0 -15 4.5 -30t14.5 -27t26 -19t38 -7q33 0 62 24.5t43 62.5q-3 19 -3 40v68zM372 271l213 54q-13 54 -37 87t-72 33q-23 0 -41 -9t-31 -24t-21 -35t-11 -42v-64z" />
    <glyph glyph-name="ccedilla" unicode="&#xe7;" horiz-adv-x="453" 
d="M131 -235q46 17 67 37t21 46t-15.5 41t-39.5 22l46 78q-35 5 -67 22.5t-56.5 46.5t-39 71t-14.5 96q0 57 21 103.5t55 79.5t76.5 51t85.5 18q31 0 60 -8.5t51 -22t35.5 -32t13.5 -37.5q0 -23 -17 -36t-40 -13q-11 0 -14 1q-3 0 -4 1l-23 85q-17 14 -37 24t-44 10
q-28 0 -54.5 -12t-46.5 -35.5t-32.5 -58.5t-12.5 -81q0 -53 14.5 -92.5t38.5 -66.5t54.5 -40.5t63.5 -13.5q51 0 86 24.5t62 54.5l14 -10q-7 -11 -21.5 -33t-38 -44t-57 -38.5t-78.5 -16.5h-7l-20 -34q38 -10 54.5 -30.5t16.5 -47.5q0 -30 -15.5 -51.5t-38.5 -36
t-49.5 -23.5t-48.5 -13z" />
    <glyph glyph-name="egrave" unicode="&#xe8;" horiz-adv-x="460" 
d="M237 -14q-52 0 -90 20.5t-63.5 53.5t-38 74.5t-12.5 83.5q0 53 18 100t48.5 82.5t70.5 56t84 20.5q74 0 120.5 -48t54.5 -141h-323q-1 -7 -1 -14v-14q0 -100 43 -155t120 -55q28 0 51.5 8t43 20t34 26t25.5 26l14 -10q-14 -21 -30.5 -44.5t-40 -43.5t-54.5 -33t-74 -13z
M229 445q-46 0 -77.5 -36t-42.5 -96h232q-7 31 -16 55.5t-22 41.5t-31 26t-43 9zM214 752l53 -208h-21l-101 201v7h69z" />
    <glyph glyph-name="eacute" unicode="&#xe9;" horiz-adv-x="460" 
d="M356 752v-7l-101 -201h-21l53 208h69zM237 -14q-52 0 -90 20.5t-63.5 53.5t-38 74.5t-12.5 83.5q0 53 18 100t48.5 82.5t70.5 56t84 20.5q74 0 120.5 -48t54.5 -141h-323q-1 -7 -1 -14v-14q0 -100 43 -155t120 -55q28 0 51.5 8t43 20t34 26t25.5 26l14 -10
q-14 -21 -30.5 -44.5t-40 -43.5t-54.5 -33t-74 -13zM229 445q-46 0 -77.5 -36t-42.5 -96h232q-7 31 -16 55.5t-22 41.5t-31 26t-43 9z" />
    <glyph glyph-name="ecircumflex" unicode="&#xea;" horiz-adv-x="460" 
d="M129 544l101 208h40l102 -208h-26l-98 149l-96 -149h-23zM237 -14q-52 0 -90 20.5t-63.5 53.5t-38 74.5t-12.5 83.5q0 53 18 100t48.5 82.5t70.5 56t84 20.5q74 0 120.5 -48t54.5 -141h-323q-1 -7 -1 -14v-14q0 -100 43 -155t120 -55q28 0 51.5 8t43 20t34 26t25.5 26
l14 -10q-14 -21 -30.5 -44.5t-40 -43.5t-54.5 -33t-74 -13zM229 445q-46 0 -77.5 -36t-42.5 -96h232q-7 31 -16 55.5t-22 41.5t-31 26t-43 9z" />
    <glyph glyph-name="edieresis" unicode="&#xeb;" horiz-adv-x="460" 
d="M168 598q-20 0 -33 13.5t-13 33.5t13 34t33 14t34 -14t14 -34t-14 -33.5t-34 -13.5zM320 598q-20 0 -33.5 13.5t-13.5 33.5t13.5 34t33.5 14t33.5 -14t13.5 -34t-13.5 -33.5t-33.5 -13.5zM237 -14q-52 0 -90 20.5t-63.5 53.5t-38 74.5t-12.5 83.5q0 53 18 100t48.5 82.5
t70.5 56t84 20.5q74 0 120.5 -48t54.5 -141h-323q-1 -7 -1 -14v-14q0 -100 43 -155t120 -55q28 0 51.5 8t43 20t34 26t25.5 26l14 -10q-14 -21 -30.5 -44.5t-40 -43.5t-54.5 -33t-74 -13zM229 445q-46 0 -77.5 -36t-42.5 -96h232q-7 31 -16 55.5t-22 41.5t-31 26t-43 9z" />
    <glyph glyph-name="igrave" unicode="&#xec;" horiz-adv-x="239" 
d="M15 17l70 14v359l-67 30v7l141 50v-446l70 -14v-17h-214v17zM93 752l53 -208h-21l-101 201v7h69z" />
    <glyph glyph-name="iacute" unicode="&#xed;" horiz-adv-x="239" 
d="M239 752v-7l-101 -201h-21l53 208h69zM15 17l70 14v359l-67 30v7l141 50v-446l70 -14v-17h-214v17z" />
    <glyph glyph-name="icircumflex" unicode="&#xee;" horiz-adv-x="239" 
d="M15 17l70 14v359l-67 30v7l141 50v-446l70 -14v-17h-214v17zM13 544l91 208h40l92 -208h-26l-88 147l-86 -147h-23z" />
    <glyph glyph-name="idieresis" unicode="&#xef;" horiz-adv-x="239" 
d="M55 598q-20 0 -33 13.5t-13 33.5t13 34t33 14t34 -14t14 -34t-14 -33.5t-34 -13.5zM198 598q-20 0 -33.5 13.5t-13.5 33.5t13.5 34t33.5 14t33.5 -14t13.5 -34t-13.5 -33.5t-33.5 -13.5zM15 17l70 14v359l-67 30v7l141 50v-446l70 -14v-17h-214v17z" />
    <glyph glyph-name="eth" unicode="&#xf0;" horiz-adv-x="532" 
d="M89 563l125 74q-31 30 -65.5 55t-71.5 45l10 20q93 -40 168 -95l113 67l15 -21l-106 -63q52 -42 92.5 -89.5t68.5 -97t42 -99.5t14 -97q0 -63 -18.5 -114t-50 -87t-74 -55.5t-90.5 -19.5q-47 0 -89 16.5t-73 48t-49 76.5t-18 101q0 59 20.5 105t53.5 78t74 49t82 17
q26 0 50 -8t43 -22q-46 95 -122 171l-129 -77zM413 218q0 42 -8 83t-23 82q-29 41 -65 54.5t-68 13.5q-31 0 -56.5 -15t-43.5 -41.5t-27.5 -63t-9.5 -79.5q0 -51 12.5 -95t34.5 -76t52 -50.5t65 -18.5q30 0 55.5 15.5t43.5 43t28 65t10 82.5z" />
    <glyph glyph-name="ntilde" unicode="&#xf1;" horiz-adv-x="535" 
d="M15 17l70 14v359l-67 30v7l133 47h3l3 -90h1q4 4 19.5 19t39.5 31.5t54 29.5t63 13q63 0 95.5 -36t32.5 -127v-283l63 -14v-17h-198v17l61 14v283q-1 45 -23.5 78t-69.5 33q-22 0 -42 -6.5t-37.5 -16t-31.5 -20t-25 -18.5v-333l67 -14v-17h-211v17zM259 613q-26 9 -43 14
t-29.5 3t-22 -12t-21.5 -31l-18 9l5 11q16 33 31.5 51t33 24.5t37.5 3.5t46 -12l33 -11q19 -6 34 -9t28 0t24 13.5t22 30.5l18 -8l-5 -10q-17 -37 -34 -56t-34.5 -26t-36.5 -4.5t-39 9.5z" />
    <glyph glyph-name="ograve" unicode="&#xf2;" horiz-adv-x="537" 
d="M255 451q-33 0 -59 -15.5t-44 -42.5t-27.5 -63.5t-9.5 -78.5q0 -51 12.5 -94.5t35 -75.5t52.5 -50.5t65 -18.5q33 0 59 15.5t44 42.5t28 64t10 79q0 51 -12.5 94.5t-35 75.5t-52.5 50t-66 18zM267 -14q-48 0 -90 16.5t-73.5 48t-50 76.5t-18.5 101q0 59 20.5 105t54 78
t75.5 49t85 17q51 0 93.5 -18t73 -50t48 -76t17.5 -97q0 -59 -20.5 -105.5t-54 -78.5t-75.5 -49t-85 -17zM224 752l53 -208h-21l-101 201v7h69z" />
    <glyph glyph-name="oacute" unicode="&#xf3;" horiz-adv-x="537" 
d="M370 752v-7l-101 -201h-21l53 208h69zM255 451q-33 0 -59 -15.5t-44 -42.5t-27.5 -63.5t-9.5 -78.5q0 -51 12.5 -94.5t35 -75.5t52.5 -50.5t65 -18.5q33 0 59 15.5t44 42.5t28 64t10 79q0 51 -12.5 94.5t-35 75.5t-52.5 50t-66 18zM267 -14q-48 0 -90 16.5t-73.5 48
t-50 76.5t-18.5 101q0 59 20.5 105t54 78t75.5 49t85 17q51 0 93.5 -18t73 -50t48 -76t17.5 -97q0 -59 -20.5 -105.5t-54 -78.5t-75.5 -49t-85 -17z" />
    <glyph glyph-name="ocircumflex" unicode="&#xf4;" horiz-adv-x="537" 
d="M143 544l101 208h40l102 -208h-26l-98 149l-96 -149h-23zM255 451q-33 0 -59 -15.5t-44 -42.5t-27.5 -63.5t-9.5 -78.5q0 -51 12.5 -94.5t35 -75.5t52.5 -50.5t65 -18.5q33 0 59 15.5t44 42.5t28 64t10 79q0 51 -12.5 94.5t-35 75.5t-52.5 50t-66 18zM267 -14
q-48 0 -90 16.5t-73.5 48t-50 76.5t-18.5 101q0 59 20.5 105t54 78t75.5 49t85 17q51 0 93.5 -18t73 -50t48 -76t17.5 -97q0 -59 -20.5 -105.5t-54 -78.5t-75.5 -49t-85 -17z" />
    <glyph glyph-name="otilde" unicode="&#xf5;" horiz-adv-x="537" 
d="M255 451q-33 0 -59 -15.5t-44 -42.5t-27.5 -63.5t-9.5 -78.5q0 -51 12.5 -94.5t35 -75.5t52.5 -50.5t65 -18.5q33 0 59 15.5t44 42.5t28 64t10 79q0 51 -12.5 94.5t-35 75.5t-52.5 50t-66 18zM267 -14q-48 0 -90 16.5t-73.5 48t-50 76.5t-18.5 101q0 59 20.5 105t54 78
t75.5 49t85 17q51 0 93.5 -18t73 -50t48 -76t17.5 -97q0 -59 -20.5 -105.5t-54 -78.5t-75.5 -49t-85 -17zM248 613q-26 9 -43 14t-29.5 3t-22 -12t-21.5 -31l-18 9l5 11q16 33 31.5 51t33 24.5t37.5 3.5t46 -12l33 -11q19 -6 34 -9t28 0t24 13.5t22 30.5l18 -8l-5 -10
q-17 -37 -34 -56t-34.5 -26t-36.5 -4.5t-39 9.5z" />
    <glyph glyph-name="odieresis" unicode="&#xf6;" horiz-adv-x="537" 
d="M182 598q-20 0 -33 13.5t-13 33.5t13 34t33 14t34 -14t14 -34t-14 -33.5t-34 -13.5zM334 598q-20 0 -33.5 13.5t-13.5 33.5t13.5 34t33.5 14t33.5 -14t13.5 -34t-13.5 -33.5t-33.5 -13.5zM255 451q-33 0 -59 -15.5t-44 -42.5t-27.5 -63.5t-9.5 -78.5q0 -51 12.5 -94.5
t35 -75.5t52.5 -50.5t65 -18.5q33 0 59 15.5t44 42.5t28 64t10 79q0 51 -12.5 94.5t-35 75.5t-52.5 50t-66 18zM267 -14q-48 0 -90 16.5t-73.5 48t-50 76.5t-18.5 101q0 59 20.5 105t54 78t75.5 49t85 17q51 0 93.5 -18t73 -50t48 -76t17.5 -97q0 -59 -20.5 -105.5
t-54 -78.5t-75.5 -49t-85 -17z" />
    <glyph glyph-name="divide" unicode="&#xf7;" 
d="M53 216v35h474v-35h-474zM290 343q-20 0 -33.5 13.5t-13.5 33.5t13.5 33.5t33.5 13.5t33.5 -13.5t13.5 -33.5t-13.5 -33.5t-33.5 -13.5zM290 30q-20 0 -33.5 13.5t-13.5 33.5t13.5 33.5t33.5 13.5t33.5 -13.5t13.5 -33.5t-13.5 -33.5t-33.5 -13.5z" />
    <glyph glyph-name="oslash" unicode="&#xf8;" horiz-adv-x="537" 
d="M41 -50l71 96q-35 32 -56 78t-21 104q0 59 20.5 105t54 78t75.5 49t85 17q37 0 70 -10.5t60 -29.5l64 86h35l-77 -103q38 -33 59 -80.5t21 -103.5q0 -59 -20.5 -105.5t-54 -78.5t-75.5 -49t-85 -17q-75 0 -134 42l-58 -78h-34zM421 218q0 44 -9.5 82.5t-26.5 68.5
l-220 -297q22 -29 51 -44.5t64 -15.5q33 0 59 15.5t44 43t28 65.5t10 82zM255 451q-33 0 -59 -15.5t-44 -42.5t-27.5 -64.5t-9.5 -81.5q0 -89 34 -151l219 297q-22 27 -50.5 42.5t-62.5 15.5z" />
    <glyph glyph-name="ugrave" unicode="&#xf9;" horiz-adv-x="527" 
d="M371 76q-9 -11 -24 -26t-35.5 -29.5t-47 -24.5t-57.5 -10q-38 0 -64 12.5t-42 34t-23.5 50t-7.5 59.5v271l-65 19v13l139 26v-306q0 -68 29.5 -96t75.5 -28q21 0 39 5.5t33.5 13.5t27.5 17t21 17v319l-77 19v13l151 26v-428l69 -20v-13l-134 -19zM222 752l53 -208h-21
l-101 201v7h69z" />
    <glyph glyph-name="uacute" unicode="&#xfa;" horiz-adv-x="527" 
d="M369 752v-7l-101 -201h-21l53 208h69zM371 76q-9 -11 -24 -26t-35.5 -29.5t-47 -24.5t-57.5 -10q-38 0 -64 12.5t-42 34t-23.5 50t-7.5 59.5v271l-65 19v13l139 26v-306q0 -68 29.5 -96t75.5 -28q21 0 39 5.5t33.5 13.5t27.5 17t21 17v319l-77 19v13l151 26v-428l69 -20
v-13l-134 -19z" />
    <glyph glyph-name="ucircumflex" unicode="&#xfb;" horiz-adv-x="527" 
d="M142 544l101 208h40l102 -208h-26l-98 149l-96 -149h-23zM371 76q-9 -11 -24 -26t-35.5 -29.5t-47 -24.5t-57.5 -10q-38 0 -64 12.5t-42 34t-23.5 50t-7.5 59.5v271l-65 19v13l139 26v-306q0 -68 29.5 -96t75.5 -28q21 0 39 5.5t33.5 13.5t27.5 17t21 17v319l-77 19v13
l151 26v-428l69 -20v-13l-134 -19z" />
    <glyph glyph-name="udieresis" unicode="&#xfc;" horiz-adv-x="527" 
d="M181 598q-20 0 -33 13.5t-13 33.5t13 34t33 14t34 -14t14 -34t-14 -33.5t-34 -13.5zM333 598q-20 0 -33.5 13.5t-13.5 33.5t13.5 34t33.5 14t33.5 -14t13.5 -34t-13.5 -33.5t-33.5 -13.5zM371 76q-9 -11 -24 -26t-35.5 -29.5t-47 -24.5t-57.5 -10q-38 0 -64 12.5t-42 34
t-23.5 50t-7.5 59.5v271l-65 19v13l139 26v-306q0 -68 29.5 -96t75.5 -28q21 0 39 5.5t33.5 13.5t27.5 17t21 17v319l-77 19v13l151 26v-428l69 -20v-13l-134 -19z" />
    <glyph glyph-name="yacute" unicode="&#xfd;" horiz-adv-x="453" 
d="M296 448v15h166v-16l-57 -19l-219 -611q-11 -29 -27.5 -50t-48.5 -21q-23 0 -37.5 14t-14.5 35t13.5 34.5t34.5 13.5q17 0 28 -10t19 -25h2l61 163l-169 459l-56 18v15h206v-15l-66 -19l121 -350h2l118 349zM366 752v-7l-101 -201h-21l53 208h69z" />
    <glyph glyph-name="thorn" unicode="&#xfe;" horiz-adv-x="512" 
d="M207 -11q-19 0 -36 2.5t-31 6.5v-207l100 -13v-18h-235v19l61 14v868l-65 32v7l139 46v-361q12 18 27.5 34t34.5 29t42 20.5t50 7.5q33 0 65.5 -12t58 -39t41.5 -69.5t16 -102.5q0 -59 -24.5 -108t-63 -83.5t-86.5 -53.5t-94 -19zM254 423q-23 0 -41 -7t-32 -17.5
t-24.5 -22.5t-16.5 -22v-303q16 -12 40.5 -21t54.5 -9q35 0 65.5 13t53 40t35 68t12.5 97q0 38 -11.5 71.5t-31 58.5t-46.5 39.5t-58 14.5z" />
    <glyph glyph-name="ydieresis" unicode="&#xff;" horiz-adv-x="453" 
d="M296 448v15h166v-16l-57 -19l-219 -611q-11 -29 -27.5 -50t-48.5 -21q-23 0 -37.5 14t-14.5 35t13.5 34.5t34.5 13.5q17 0 28 -10t19 -25h2l61 163l-169 459l-56 18v15h206v-15l-66 -19l121 -350h2l118 349zM177 598q-20 0 -33 13.5t-13 33.5t13 34t33 14t34 -14t14 -34
t-14 -33.5t-34 -13.5zM329 598q-20 0 -33.5 13.5t-13.5 33.5t13.5 34t33.5 14t33.5 -14t13.5 -34t-13.5 -33.5t-33.5 -13.5z" />
    <glyph glyph-name="Amacron" unicode="&#x100;" horiz-adv-x="632" 
d="M-24 19l77 17l228 633l29 6l36 8l234 -651l76 -15v-17h-247v19l80 13l-72 206h-254l-68 -200l118 -19v-19h-237v19zM176 276h227l-114 327h-2zM181 808h276v-48h-276v48z" />
    <glyph glyph-name="amacron" unicode="&#x101;" horiz-adv-x="450" 
d="M151 -14q-19 0 -39.5 5.5t-37.5 19t-28 35t-11 53.5q0 29 11 50.5t31 38t49.5 28.5t66.5 22l105 29v47q0 66 -28 100t-71 34q-23 0 -40 -7t-28 -17l-5 -94q-14 -8 -35 -8q-20 0 -32 10.5t-12 28.5q0 17 14.5 37.5t39.5 38t59 29t73 11.5q76 0 107.5 -35.5t31.5 -101.5
v-281q0 -14 5.5 -22.5t25.5 -8.5h50v-13q-15 -8 -31 -14q-14 -5 -29.5 -9t-29.5 -4q-36 0 -51.5 18t-14.5 61h-2q-35 -37 -68 -59t-76 -22zM197 38q32 0 58 19.5t43 42.5v147l-114 -40q-42 -14 -56 -36.5t-14 -49.5q0 -15 4.5 -30t14.5 -27t26 -19t38 -7zM80 665h276v-48
h-276v48z" />
    <glyph glyph-name="Abreve" unicode="&#x102;" horiz-adv-x="632" 
d="M-24 19l77 17l228 633l29 6l36 8l234 -651l76 -15v-17h-247v19l80 13l-72 206h-254l-68 -200l118 -19v-19h-237v19zM176 276h227l-114 327h-2zM313 730q-32 0 -53 11.5t-33.5 29.5t-18 41t-6.5 46h17q9 -32 33 -54.5t65 -22.5q47 0 69.5 22.5t31.5 54.5h17
q-1 -22 -7 -44.5t-19.5 -41t-36.5 -30.5t-59 -12z" />
    <glyph glyph-name="abreve" unicode="&#x103;" horiz-adv-x="450" 
d="M151 -14q-19 0 -39.5 5.5t-37.5 19t-28 35t-11 53.5q0 29 11 50.5t31 38t49.5 28.5t66.5 22l105 29v47q0 66 -28 100t-71 34q-23 0 -40 -7t-28 -17l-5 -94q-14 -8 -35 -8q-20 0 -32 10.5t-12 28.5q0 17 14.5 37.5t39.5 38t59 29t73 11.5q76 0 107.5 -35.5t31.5 -101.5
v-281q0 -14 5.5 -22.5t25.5 -8.5h50v-13q-15 -8 -31 -14q-14 -5 -29.5 -9t-29.5 -4q-36 0 -51.5 18t-14.5 61h-2q-35 -37 -68 -59t-76 -22zM197 38q32 0 58 19.5t43 42.5v147l-114 -40q-42 -14 -56 -36.5t-14 -49.5q0 -15 4.5 -30t14.5 -27t26 -19t38 -7zM217 560
q-52 0 -82.5 40t-33.5 118h19q15 -57 40 -78.5t58 -21.5q32 0 57.5 22t40.5 78h19q-4 -74 -33 -116t-85 -42z" />
    <glyph glyph-name="Aogonek" unicode="&#x104;" horiz-adv-x="632" 
d="M-24 19l77 17l228 633l29 6l36 8l234 -651l76 -15v-17h-141q-26 -26 -44.5 -45.5t-30.5 -35.5t-17.5 -31t-5.5 -32q0 -23 14 -38.5t38 -15.5q22 0 41.5 11.5t45.5 41.5l13 -9q-10 -15 -23 -32t-29.5 -31.5t-37.5 -24.5t-46 -10q-38 0 -61 23.5t-23 58.5q0 23 10 42.5
t28.5 39t46 42.5t63.5 53l-80 231h-254l-68 -200l118 -19v-19h-237v19zM176 276h227l-114 327h-2z" />
    <glyph glyph-name="aogonek" unicode="&#x105;" horiz-adv-x="450" 
d="M369 -12q-38 0 -55.5 21t-16.5 58h-2q-35 -37 -68 -59t-76 -22q-19 0 -39.5 5.5t-37.5 19t-28 35t-11 53.5q0 29 11 50.5t31 38t49.5 28.5t66.5 22l105 29v47q0 66 -28 100t-71 34q-23 0 -40 -7t-28 -17l-5 -94q-14 -8 -35 -8q-20 0 -32 10.5t-12 28.5q0 17 14.5 37.5
t39.5 38t59 29t73 11.5q76 0 107.5 -35.5t31.5 -101.5v-281q0 -14 5.5 -22.5t25.5 -8.5h50v-12q-53 -32 -84.5 -56t-48 -43.5t-21.5 -34.5t-5 -27q0 -21 13 -37t39 -16q22 0 41.5 11.5t45.5 41.5l13 -9q-10 -15 -23 -32t-29.5 -31.5t-37.5 -24.5t-46 -10q-42 0 -63.5 24.5
t-21.5 56.5q0 25 11.5 45t31.5 38t46 35t55 37v4zM197 38q32 0 58 19.5t43 42.5v147l-114 -40q-42 -14 -56 -36.5t-14 -49.5q0 -15 4.5 -30t14.5 -27t26 -19t38 -7z" />
    <glyph glyph-name="Cacute" unicode="&#x106;" horiz-adv-x="702" 
d="M377 -22q-89 0 -152.5 30t-104.5 78t-60.5 106.5t-19.5 115.5q0 81 30 150.5t81.5 120t120 79t146.5 28.5q29 0 58.5 -4.5t57.5 -12t52.5 -17.5t43.5 -21l9 -164h-19l-57 135q-35 25 -76 41t-90 16q-56 0 -104.5 -25.5t-84 -69t-55.5 -102t-20 -125.5q0 -85 23 -146.5
t61 -102t87 -60t101 -19.5q50 0 92 19t71 39l78 155h19l-28 -178q-60 -24 -123 -45t-137 -21zM542 865v-6l-131 -131h-27l80 137h78z" />
    <glyph glyph-name="cacute" unicode="&#x107;" horiz-adv-x="453" 
d="M369 752v-7l-101 -201h-21l53 208h69zM244 -14q-40 0 -78 14.5t-67.5 44t-47.5 74.5t-18 106q0 57 21 103.5t55 79.5t76.5 51t85.5 18q31 0 60 -8.5t51 -22t35.5 -32t13.5 -37.5q0 -23 -17 -36t-40 -13q-11 0 -14 1q-3 0 -4 1l-23 85q-17 14 -37 24t-44 10
q-28 0 -54.5 -12t-46.5 -35.5t-32.5 -58.5t-12.5 -81q0 -53 14.5 -92.5t38.5 -66.5t54.5 -40.5t63.5 -13.5q51 0 86 24.5t62 54.5l14 -10q-7 -11 -21.5 -33t-38 -44t-57 -38.5t-78.5 -16.5z" />
    <glyph glyph-name="Ccircumflex" unicode="&#x108;" horiz-adv-x="702" 
d="M265 728l114 125h54l104 -125h-32l-102 79l-109 -79h-29zM377 -22q-89 0 -152.5 30t-104.5 78t-60.5 106.5t-19.5 115.5q0 81 30 150.5t81.5 120t120 79t146.5 28.5q29 0 58.5 -4.5t57.5 -12t52.5 -17.5t43.5 -21l9 -164h-19l-57 135q-35 25 -76 41t-90 16
q-56 0 -104.5 -25.5t-84 -69t-55.5 -102t-20 -125.5q0 -85 23 -146.5t61 -102t87 -60t101 -19.5q50 0 92 19t71 39l78 155h19l-28 -178q-60 -24 -123 -45t-137 -21z" />
    <glyph glyph-name="ccircumflex" unicode="&#x109;" horiz-adv-x="453" 
d="M144 544l101 208h40l102 -208h-26l-98 149l-96 -149h-23zM244 -14q-40 0 -78 14.5t-67.5 44t-47.5 74.5t-18 106q0 57 21 103.5t55 79.5t76.5 51t85.5 18q31 0 60 -8.5t51 -22t35.5 -32t13.5 -37.5q0 -23 -17 -36t-40 -13q-11 0 -14 1q-3 0 -4 1l-23 85q-17 14 -37 24
t-44 10q-28 0 -54.5 -12t-46.5 -35.5t-32.5 -58.5t-12.5 -81q0 -53 14.5 -92.5t38.5 -66.5t54.5 -40.5t63.5 -13.5q51 0 86 24.5t62 54.5l14 -10q-7 -11 -21.5 -33t-38 -44t-57 -38.5t-78.5 -16.5z" />
    <glyph glyph-name="Cdotaccent" unicode="&#x10a;" horiz-adv-x="702" 
d="M377 -22q-89 0 -152.5 30t-104.5 78t-60.5 106.5t-19.5 115.5q0 81 30 150.5t81.5 120t120 79t146.5 28.5q29 0 58.5 -4.5t57.5 -12t52.5 -17.5t43.5 -21l9 -164h-19l-57 135q-35 25 -76 41t-90 16q-56 0 -104.5 -25.5t-84 -69t-55.5 -102t-20 -125.5q0 -85 23 -146.5
t61 -102t87 -60t101 -19.5q50 0 92 19t71 39l78 155h19l-28 -178q-60 -24 -123 -45t-137 -21zM410 752q-22 0 -37.5 15.5t-15.5 37.5t15.5 37.5t37.5 15.5t37.5 -15.5t15.5 -37.5t-15.5 -37.5t-37.5 -15.5z" />
    <glyph glyph-name="cdotaccent" unicode="&#x10b;" horiz-adv-x="453" 
d="M244 -14q-40 0 -78 14.5t-67.5 44t-47.5 74.5t-18 106q0 57 21 103.5t55 79.5t76.5 51t85.5 18q31 0 60 -8.5t51 -22t35.5 -32t13.5 -37.5q0 -23 -17 -36t-40 -13q-11 0 -14 1q-3 0 -4 1l-23 85q-17 14 -37 24t-44 10q-28 0 -54.5 -12t-46.5 -35.5t-32.5 -58.5t-12.5 -81
q0 -53 14.5 -92.5t38.5 -66.5t54.5 -40.5t63.5 -13.5q51 0 86 24.5t62 54.5l14 -10q-7 -11 -21.5 -33t-38 -44t-57 -38.5t-78.5 -16.5zM265 592q-22 0 -37.5 15.5t-15.5 37.5t15.5 37.5t37.5 15.5t37.5 -15.5t15.5 -37.5t-15.5 -37.5t-37.5 -15.5z" />
    <glyph glyph-name="Ccaron" unicode="&#x10c;" horiz-adv-x="702" 
d="M547 853l-114 -125h-54l-104 125h32l101 -79l110 79h29zM377 -22q-89 0 -152.5 30t-104.5 78t-60.5 106.5t-19.5 115.5q0 81 30 150.5t81.5 120t120 79t146.5 28.5q29 0 58.5 -4.5t57.5 -12t52.5 -17.5t43.5 -21l9 -164h-19l-57 135q-35 25 -76 41t-90 16
q-56 0 -104.5 -25.5t-84 -69t-55.5 -102t-20 -125.5q0 -85 23 -146.5t61 -102t87 -60t101 -19.5q50 0 92 19t71 39l78 155h19l-28 -178q-60 -24 -123 -45t-137 -21z" />
    <glyph glyph-name="ccaron" unicode="&#x10d;" horiz-adv-x="453" 
d="M385 752l-101 -208h-40l-102 208h26l97 -144l97 144h23zM244 -14q-40 0 -78 14.5t-67.5 44t-47.5 74.5t-18 106q0 57 21 103.5t55 79.5t76.5 51t85.5 18q31 0 60 -8.5t51 -22t35.5 -32t13.5 -37.5q0 -23 -17 -36t-40 -13q-11 0 -14 1q-3 0 -4 1l-23 85q-17 14 -37 24
t-44 10q-28 0 -54.5 -12t-46.5 -35.5t-32.5 -58.5t-12.5 -81q0 -53 14.5 -92.5t38.5 -66.5t54.5 -40.5t63.5 -13.5q51 0 86 24.5t62 54.5l14 -10q-7 -11 -21.5 -33t-38 -44t-57 -38.5t-78.5 -16.5z" />
    <glyph glyph-name="Dcaron" unicode="&#x10e;" horiz-adv-x="737" 
d="M481 853l-114 -125h-54l-104 125h32l101 -79l110 79h29zM198 43q31 -12 62 -15.5t60 -2.5q67 1 119.5 26.5t88.5 67.5t55 95.5t19 112.5q0 88 -32.5 150.5t-88 100.5t-129 53.5t-154.5 10.5v-599zM25 19l87 14v598l-87 15v18l283 2q93 -4 165 -30t122 -68.5t76 -99
t26 -121.5q0 -79 -29 -144t-85.5 -111.5t-139.5 -71.5t-190 -23l-228 3v19z" />
    <glyph glyph-name="dcaron" unicode="&#x10f;" horiz-adv-x="531" 
d="M506 532l16 201h72v-7l-72 -194h-16zM304 701l150 45v-703l69 -20v-13l-134 -19l-7 68q-27 -27 -65 -50t-87 -23t-86 18.5t-61.5 49.5t-37 71.5t-12.5 85.5q0 63 23 112t60 83.5t84 52.5t95 18q27 0 48 -5.5t37 -13.5v206l-76 30v7zM274 35q33 0 59.5 14t46.5 32v310
q-23 26 -52.5 40.5t-69.5 14.5q-31 0 -58 -13t-47.5 -38t-32 -63t-11.5 -87q0 -31 8.5 -67.5t28 -68t51 -53t77.5 -21.5z" />
    <glyph glyph-name="Dcroat" unicode="&#x110;" horiz-adv-x="737" 
d="M25 19l87 14v286h-85v24h85v288l-87 15v18l283 2q93 -4 165 -30t122 -68.5t76 -99t26 -121.5q0 -79 -29 -144t-85.5 -111.5t-139.5 -71.5t-190 -23l-228 3v19zM198 319v-276q31 -12 62 -15.5t60 -2.5q67 1 119.5 26.5t88.5 67.5t55 95.5t19 112.5q0 88 -32.5 150.5
t-88 100.5t-129 53.5t-154.5 10.5v-299h181v-24h-181z" />
    <glyph glyph-name="dcroat" unicode="&#x111;" horiz-adv-x="531" 
d="M304 700l150 45v-166h72v-24h-72v-512l69 -20v-13l-134 -19l-7 68q-27 -27 -65 -50t-87 -23t-86 18.5t-61.5 49.5t-37 71.5t-12.5 85.5q0 63 23 112t60 83.5t84 52.5t95 18q27 0 48 -5.5t37 -13.5v97h-198v24h198v84l-76 30v7zM274 35q33 0 59.5 14t46.5 32v310
q-23 26 -52.5 40.5t-69.5 14.5q-31 0 -58 -13t-47.5 -38t-32 -63t-11.5 -87q0 -31 8.5 -67.5t28 -68t51 -53t77.5 -21.5z" />
    <glyph glyph-name="Emacron" unicode="&#x112;" horiz-adv-x="588" 
d="M198 331v-282q8 -9 18 -14.5t27 -7.5h197l91 166h19l-43 -193h-482v19l87 14v598l-87 16v17h424l66 5v-189h-18l-47 157h-252v-275h146l31 107h17v-239h-17l-31 101h-146zM176 808h276v-48h-276v48z" />
    <glyph glyph-name="emacron" unicode="&#x113;" horiz-adv-x="460" 
d="M237 -14q-52 0 -90 20.5t-63.5 53.5t-38 74.5t-12.5 83.5q0 53 18 100t48.5 82.5t70.5 56t84 20.5q74 0 120.5 -48t54.5 -141h-323q-1 -7 -1 -14v-14q0 -100 43 -155t120 -55q28 0 51.5 8t43 20t34 26t25.5 26l14 -10q-14 -21 -30.5 -44.5t-40 -43.5t-54.5 -33t-74 -13z
M229 445q-46 0 -77.5 -36t-42.5 -96h232q-7 31 -16 55.5t-22 41.5t-31 26t-43 9zM114 665h276v-48h-276v48z" />
    <glyph glyph-name="Ebreve" unicode="&#x114;" horiz-adv-x="588" 
d="M198 331v-282q8 -9 18 -14.5t27 -7.5h197l91 166h19l-43 -193h-482v19l87 14v598l-87 16v17h424l66 5v-189h-18l-47 157h-252v-275h146l31 107h17v-239h-17l-31 101h-146zM313 730q-32 0 -53 11.5t-33.5 29.5t-18 41t-6.5 46h17q9 -32 33 -54.5t65 -22.5q47 0 69.5 22.5
t31.5 54.5h17q-1 -22 -7 -44.5t-19.5 -41t-36.5 -30.5t-59 -12z" />
    <glyph glyph-name="ebreve" unicode="&#x115;" horiz-adv-x="460" 
d="M237 -14q-52 0 -90 20.5t-63.5 53.5t-38 74.5t-12.5 83.5q0 53 18 100t48.5 82.5t70.5 56t84 20.5q74 0 120.5 -48t54.5 -141h-323q-1 -7 -1 -14v-14q0 -100 43 -155t120 -55q28 0 51.5 8t43 20t34 26t25.5 26l14 -10q-14 -21 -30.5 -44.5t-40 -43.5t-54.5 -33t-74 -13z
M229 445q-46 0 -77.5 -36t-42.5 -96h232q-7 31 -16 55.5t-22 41.5t-31 26t-43 9zM247 560q-52 0 -82.5 40t-33.5 118h19q15 -57 40 -78.5t58 -21.5q32 0 57.5 22t40.5 78h19q-4 -74 -33 -116t-85 -42z" />
    <glyph glyph-name="Edotaccent" unicode="&#x116;" horiz-adv-x="588" 
d="M315 752q-22 0 -37.5 15.5t-15.5 37.5t15.5 37.5t37.5 15.5t37.5 -15.5t15.5 -37.5t-15.5 -37.5t-37.5 -15.5zM198 331v-282q8 -9 18 -14.5t27 -7.5h197l91 166h19l-43 -193h-482v19l87 14v598l-87 16v17h424l66 5v-189h-18l-47 157h-252v-275h146l31 107h17v-239h-17
l-31 101h-146z" />
    <glyph glyph-name="edotaccent" unicode="&#x117;" horiz-adv-x="460" 
d="M237 -14q-52 0 -90 20.5t-63.5 53.5t-38 74.5t-12.5 83.5q0 53 18 100t48.5 82.5t70.5 56t84 20.5q74 0 120.5 -48t54.5 -141h-323q-1 -7 -1 -14v-14q0 -100 43 -155t120 -55q28 0 51.5 8t43 20t34 26t25.5 26l14 -10q-14 -21 -30.5 -44.5t-40 -43.5t-54.5 -33t-74 -13z
M229 445q-46 0 -77.5 -36t-42.5 -96h232q-7 31 -16 55.5t-22 41.5t-31 26t-43 9zM254 592q-22 0 -37.5 15.5t-15.5 37.5t15.5 37.5t37.5 15.5t37.5 -15.5t15.5 -37.5t-15.5 -37.5t-37.5 -15.5z" />
    <glyph glyph-name="Eogonek" unicode="&#x118;" horiz-adv-x="588" 
d="M198 331v-282q8 -9 18 -14.5t27 -7.5h197l91 166h19l-43 -193h-62q-51 -51 -75.5 -83.5t-24.5 -62.5q0 -20 13 -36t39 -16q22 0 41.5 11.5t45.5 41.5l13 -9q-10 -15 -23 -32t-29.5 -31.5t-37.5 -24.5t-46 -10q-38 0 -61 23.5t-23 58.5q0 24 10 43.5t29 38.5t46.5 40
t62.5 48h-400v19l87 14v598l-87 16v17h424l66 5v-189h-18l-47 157h-252v-275h146l31 107h17v-239h-17l-31 101h-146z" />
    <glyph glyph-name="eogonek" unicode="&#x119;" horiz-adv-x="460" 
d="M237 -14q-52 0 -90 20.5t-63.5 53.5t-38 74.5t-12.5 83.5q0 53 18 100t48.5 82.5t70.5 56t84 20.5q71 0 119 -47t56 -142h-323q-1 -7 -1 -14v-14q0 -100 43 -155t120 -55q28 0 51.5 8t43 20t34 26t25.5 26l14 -10q-15 -24 -31 -43.5t-39 -42.5q-21 -21 -45 -44.5t-44 -47
t-33 -46.5t-13 -42q0 -20 13.5 -36t40.5 -16q20 0 39.5 11.5t45.5 41.5l13 -9q-10 -15 -23 -32t-29.5 -31.5t-37 -24.5t-46.5 -10q-38 0 -61 23.5t-23 58.5q0 24 9.5 43t27.5 37t44 38t59 46v4q-17 -6 -34 -9t-32 -3zM229 445q-47 0 -78 -36.5t-42 -95.5h232
q-14 65 -39 98.5t-73 33.5z" />
    <glyph glyph-name="Ecaron" unicode="&#x11a;" horiz-adv-x="588" 
d="M457 853l-114 -125h-54l-104 125h32l101 -79l110 79h29zM198 331v-282q8 -9 18 -14.5t27 -7.5h197l91 166h19l-43 -193h-482v19l87 14v598l-87 16v17h424l66 5v-189h-18l-47 157h-252v-275h146l31 107h17v-239h-17l-31 101h-146z" />
    <glyph glyph-name="ecaron" unicode="&#x11b;" horiz-adv-x="460" 
d="M370 752l-101 -208h-40l-102 208h26l97 -144l97 144h23zM237 -14q-52 0 -90 20.5t-63.5 53.5t-38 74.5t-12.5 83.5q0 53 18 100t48.5 82.5t70.5 56t84 20.5q74 0 120.5 -48t54.5 -141h-323q-1 -7 -1 -14v-14q0 -100 43 -155t120 -55q28 0 51.5 8t43 20t34 26t25.5 26
l14 -10q-14 -21 -30.5 -44.5t-40 -43.5t-54.5 -33t-74 -13zM229 445q-46 0 -77.5 -36t-42.5 -96h232q-7 31 -16 55.5t-22 41.5t-31 26t-43 9z" />
    <glyph glyph-name="Gcircumflex" unicode="&#x11c;" horiz-adv-x="724" 
d="M275 728l114 125h54l104 -125h-32l-102 79l-109 -79h-29zM398 -20q-95 0 -162.5 29.5t-111 77t-64 107.5t-20.5 122q0 76 31 143t83.5 117.5t122 80t147.5 29.5q66 0 121 -17t97 -40v-166h-17l-56 139q-30 23 -74 39t-91 16q-57 0 -106.5 -22.5t-86 -63.5t-57 -99.5
t-20.5 -130.5q0 -84 23.5 -146.5t63.5 -103t92.5 -60.5t110.5 -20q45 0 80.5 10t54.5 19v209l-103 16v18h238v-19l-48 -12v-214l-49 -19q-32 -11 -84.5 -25t-114.5 -14z" />
    <glyph glyph-name="gcircumflex" unicode="&#x11d;" horiz-adv-x="470" 
d="M96 544l101 208h40l102 -208h-26l-98 149l-96 -149h-23zM346 418v-2q16 -17 32 -44t16 -65q0 -39 -16.5 -70t-42.5 -53t-59 -33.5t-67 -11.5q-21 0 -41.5 4t-39.5 13q-25 -22 -25 -47q0 -15 12.5 -26t35.5 -13l194 -14q57 -5 87.5 -32t30.5 -68q0 -38 -22.5 -73.5
t-60.5 -63t-88 -44.5t-105 -17q-77 0 -124 29.5t-47 89.5q0 32 25 62.5t60 48.5l25 13v3q-15 1 -29.5 5t-26.5 12.5t-19 21.5t-7 31q0 27 21 48t44 42v2q-31 20 -50.5 53t-19.5 83q0 39 13.5 70.5t37.5 54t56 35t69 12.5q32 0 57.5 -7.5t52.5 -18.5l141 15v-45h-120zM146 -2
q-20 -16 -38.5 -40t-18.5 -58q0 -50 36.5 -78.5t109.5 -28.5q43 0 73.5 12.5t50 31.5t28.5 41.5t9 41.5q0 27 -17 43.5t-41 21.5zM118 335q0 -84 27.5 -128t76.5 -44q38 0 65 33.5t27 92.5q0 45 -8.5 76t-23 51t-34 29.5t-40.5 9.5q-44 0 -67 -33.5t-23 -86.5z" />
    <glyph glyph-name="Gbreve" unicode="&#x11e;" horiz-adv-x="724" 
d="M405 730q-32 0 -53 11.5t-33.5 29.5t-18 41t-6.5 46h17q9 -32 33 -54.5t65 -22.5q47 0 69.5 22.5t31.5 54.5h17q-1 -22 -7 -44.5t-19.5 -41t-36.5 -30.5t-59 -12zM398 -20q-95 0 -162.5 29.5t-111 77t-64 107.5t-20.5 122q0 76 31 143t83.5 117.5t122 80t147.5 29.5
q66 0 121 -17t97 -40v-166h-17l-56 139q-30 23 -74 39t-91 16q-57 0 -106.5 -22.5t-86 -63.5t-57 -99.5t-20.5 -130.5q0 -84 23.5 -146.5t63.5 -103t92.5 -60.5t110.5 -20q45 0 80.5 10t54.5 19v209l-103 16v18h238v-19l-48 -12v-214l-49 -19q-32 -11 -84.5 -25t-114.5 -14z
" />
    <glyph glyph-name="gbreve" unicode="&#x11f;" horiz-adv-x="470" 
d="M346 418v-2q16 -17 32 -44t16 -65q0 -39 -16.5 -70t-42.5 -53t-59 -33.5t-67 -11.5q-21 0 -41.5 4t-39.5 13q-25 -22 -25 -47q0 -15 12.5 -26t35.5 -13l194 -14q57 -5 87.5 -32t30.5 -68q0 -38 -22.5 -73.5t-60.5 -63t-88 -44.5t-105 -17q-77 0 -124 29.5t-47 89.5
q0 32 25 62.5t60 48.5l25 13v3q-15 1 -29.5 5t-26.5 12.5t-19 21.5t-7 31q0 27 21 48t44 42v2q-31 20 -50.5 53t-19.5 83q0 39 13.5 70.5t37.5 54t56 35t69 12.5q32 0 57.5 -7.5t52.5 -18.5l141 15v-45h-120zM146 -2q-20 -16 -38.5 -40t-18.5 -58q0 -50 36.5 -78.5
t109.5 -28.5q43 0 73.5 12.5t50 31.5t28.5 41.5t9 41.5q0 27 -17 43.5t-41 21.5zM118 335q0 -84 27.5 -128t76.5 -44q38 0 65 33.5t27 92.5q0 45 -8.5 76t-23 51t-34 29.5t-40.5 9.5q-44 0 -67 -33.5t-23 -86.5zM214 560q-52 0 -82.5 40t-33.5 118h19q15 -57 40 -78.5
t58 -21.5q32 0 57.5 22t40.5 78h19q-4 -74 -33 -116t-85 -42z" />
    <glyph glyph-name="Gdotaccent" unicode="&#x120;" horiz-adv-x="724" 
d="M415 752q-22 0 -37.5 15.5t-15.5 37.5t15.5 37.5t37.5 15.5t37.5 -15.5t15.5 -37.5t-15.5 -37.5t-37.5 -15.5zM398 -20q-95 0 -162.5 29.5t-111 77t-64 107.5t-20.5 122q0 76 31 143t83.5 117.5t122 80t147.5 29.5q66 0 121 -17t97 -40v-166h-17l-56 139q-30 23 -74 39
t-91 16q-57 0 -106.5 -22.5t-86 -63.5t-57 -99.5t-20.5 -130.5q0 -84 23.5 -146.5t63.5 -103t92.5 -60.5t110.5 -20q45 0 80.5 10t54.5 19v209l-103 16v18h238v-19l-48 -12v-214l-49 -19q-32 -11 -84.5 -25t-114.5 -14z" />
    <glyph glyph-name="gdotaccent" unicode="&#x121;" horiz-adv-x="470" 
d="M346 418v-2q16 -17 32 -44t16 -65q0 -39 -16.5 -70t-42.5 -53t-59 -33.5t-67 -11.5q-21 0 -41.5 4t-39.5 13q-25 -22 -25 -47q0 -15 12.5 -26t35.5 -13l194 -14q57 -5 87.5 -32t30.5 -68q0 -38 -22.5 -73.5t-60.5 -63t-88 -44.5t-105 -17q-77 0 -124 29.5t-47 89.5
q0 32 25 62.5t60 48.5l25 13v3q-15 1 -29.5 5t-26.5 12.5t-19 21.5t-7 31q0 27 21 48t44 42v2q-31 20 -50.5 53t-19.5 83q0 39 13.5 70.5t37.5 54t56 35t69 12.5q32 0 57.5 -7.5t52.5 -18.5l141 15v-45h-120zM146 -2q-20 -16 -38.5 -40t-18.5 -58q0 -50 36.5 -78.5
t109.5 -28.5q43 0 73.5 12.5t50 31.5t28.5 41.5t9 41.5q0 27 -17 43.5t-41 21.5zM118 335q0 -84 27.5 -128t76.5 -44q38 0 65 33.5t27 92.5q0 45 -8.5 76t-23 51t-34 29.5t-40.5 9.5q-44 0 -67 -33.5t-23 -86.5zM215 592q-22 0 -37.5 15.5t-15.5 37.5t15.5 37.5t37.5 15.5
t37.5 -15.5t15.5 -37.5t-15.5 -37.5t-37.5 -15.5z" />
    <glyph glyph-name="Gcommaaccent" unicode="&#x122;" horiz-adv-x="724" 
d="M315 -238q53 12 72.5 31t19.5 41t-17 33.5t-44 13.5v4q3 22 16.5 36.5t39.5 14.5q28 0 48.5 -20t20.5 -51q0 -45 -35.5 -77t-117.5 -43zM398 -20q-95 0 -162.5 29.5t-111 77t-64 107.5t-20.5 122q0 76 31 143t83.5 117.5t122 80t147.5 29.5q66 0 121 -17t97 -40v-166h-17
l-56 139q-30 23 -74 39t-91 16q-57 0 -106.5 -22.5t-86 -63.5t-57 -99.5t-20.5 -130.5q0 -84 23.5 -146.5t63.5 -103t92.5 -60.5t110.5 -20q45 0 80.5 10t54.5 19v209l-103 16v18h238v-19l-48 -12v-214l-49 -19q-32 -11 -84.5 -25t-114.5 -14z" />
    <glyph glyph-name="gcommaaccent" unicode="&#x123;" horiz-adv-x="470" 
d="M303 761q-53 -12 -72.5 -31t-19.5 -41t17 -33.5t44 -13.5v-4q-3 -22 -16.5 -36.5t-39.5 -14.5q-28 0 -48.5 19.5t-20.5 54.5q0 42 40 74t113 43zM346 418v-2q16 -17 32 -44t16 -65q0 -39 -16.5 -70t-42.5 -53t-59 -33.5t-67 -11.5q-21 0 -41.5 4t-39.5 13
q-25 -22 -25 -47q0 -15 12.5 -26t35.5 -13l194 -14q57 -5 87.5 -32t30.5 -68q0 -38 -22.5 -73.5t-60.5 -63t-88 -44.5t-105 -17q-77 0 -124 29.5t-47 89.5q0 32 25 62.5t60 48.5l25 13v3q-15 1 -29.5 5t-26.5 12.5t-19 21.5t-7 31q0 27 21 48t44 42v2q-31 20 -50.5 53
t-19.5 83q0 39 13.5 70.5t37.5 54t56 35t69 12.5q32 0 57.5 -7.5t52.5 -18.5l141 15v-45h-120zM146 -2q-20 -16 -38.5 -40t-18.5 -58q0 -50 36.5 -78.5t109.5 -28.5q43 0 73.5 12.5t50 31.5t28.5 41.5t9 41.5q0 27 -17 43.5t-41 21.5zM118 335q0 -84 27.5 -128t76.5 -44
q38 0 65 33.5t27 92.5q0 45 -8.5 76t-23 51t-34 29.5t-40.5 9.5q-44 0 -67 -33.5t-23 -86.5z" />
    <glyph glyph-name="Hcircumflex" unicode="&#x124;" horiz-adv-x="735" 
d="M450 19l87 14v299h-339v-299l88 -14v-19h-261v19l87 14v598l-87 16v17h261v-17l-88 -16v-270h339v270l-87 16v17h260v-17l-87 -16v-598l87 -14v-19h-260v19zM228 728l114 125h54l104 -125h-32l-102 79l-109 -79h-29z" />
    <glyph glyph-name="hcircumflex" unicode="&#x125;" horiz-adv-x="525" 
d="M317 17l61 14v283q-1 45 -23.5 78t-69.5 33q-22 0 -42 -6.5t-37.5 -16t-31.5 -20t-25 -18.5v-333l67 -14v-17h-201v17l60 14v631l-65 32v7l139 45v-362q4 4 19.5 19t39.5 31.5t53.5 29t62.5 12.5q31 0 55 -8.5t40 -27.5t24.5 -50t8.5 -76v-283l63 -14v-17h-198v17z
M134 766l114 125h54l104 -125h-32l-102 79l-109 -79h-29z" />
    <glyph glyph-name="Hbar" unicode="&#x126;" horiz-adv-x="735" 
d="M450 19l87 14v299h-339v-299l88 -14v-19h-261v19l87 14v464h-98v25h98v109l-87 16v17h261v-17l-88 -16v-109h339v109l-87 16v17h260v-17l-87 -16v-109h98v-25h-98v-464l87 -14v-19h-260v19zM198 361h339v136h-339v-136z" />
    <glyph glyph-name="hbar" unicode="&#x127;" horiz-adv-x="525" 
d="M317 17l61 14v283q-1 45 -23.5 78t-69.5 33q-22 0 -42 -6.5t-37.5 -16t-31.5 -20t-25 -18.5v-333l67 -14v-17h-211v17l70 14v524h-72v24h72v83l-65 32v7l139 45v-167h198v-24h-198v-171q4 4 19.5 19t39.5 31.5t53.5 29t62.5 12.5q31 0 55 -8.5t40 -27.5t24.5 -50t8.5 -76
v-283l63 -15v-16h-198v17z" />
    <glyph glyph-name="Itilde" unicode="&#x128;" horiz-adv-x="310" 
d="M25 20l87 14v596l-87 16v18h260v-18l-87 -16v-596l87 -14v-20h-260v20zM145 758q-26 9 -43 14t-29.5 3t-22 -12t-21.5 -31l-18 9l5 11q16 33 31.5 51t33 24.5t37.5 3.5t46 -12l33 -11q19 -6 34 -9t28 0t24 13.5t22 30.5l18 -8l-5 -10q-17 -37 -34 -56t-34.5 -26
t-36.5 -4.5t-39 9.5z" />
    <glyph glyph-name="itilde" unicode="&#x129;" horiz-adv-x="239" 
d="M84 622q-32 16 -50 8.5t-38 -43.5l-17 8l5 11q16 33 31 52t30 26.5t31 5.5t34 -11l26 -12q16 -8 28.5 -13t24 -3.5t23 12.5t24.5 35l17 -7l-5 -10q-19 -42 -36.5 -61.5t-35 -24.5t-36 1.5t-40.5 17.5zM15 17l70 14v359l-67 30v7l141 50v-446l70 -14v-17h-214v17z" />
    <glyph glyph-name="Imacron" unicode="&#x12a;" horiz-adv-x="310" 
d="M35 808h245v-48h-245v48zM25 20l87 14v596l-87 16v18h260v-18l-87 -16v-596l87 -14v-20h-260v20z" />
    <glyph glyph-name="imacron" unicode="&#x12b;" horiz-adv-x="239" 
d="M18 665h216v-48h-216v48zM15 17l70 14v359l-67 30v7l141 50v-446l70 -14v-17h-214v17z" />
    <glyph glyph-name="Ibreve" unicode="&#x12c;" horiz-adv-x="310" 
d="M25 20l87 14v596l-87 16v18h260v-18l-87 -16v-596l87 -14v-20h-260v20zM153 730q-32 0 -53 11.5t-33.5 29.5t-18 41t-6.5 46h17q9 -32 33 -54.5t65 -22.5q47 0 69.5 22.5t31.5 54.5h17q-1 -22 -7 -44.5t-19.5 -41t-36.5 -30.5t-59 -12z" />
    <glyph glyph-name="ibreve" unicode="&#x12d;" horiz-adv-x="239" 
d="M15 17l70 14v359l-67 30v7l141 50v-446l70 -14v-17h-214v17zM130 560q-52 0 -82.5 40t-33.5 118h19q15 -57 40 -78.5t58 -21.5q32 0 57.5 22t40.5 78h19q-4 -74 -33 -116t-85 -42z" />
    <glyph glyph-name="Iogonek" unicode="&#x12e;" horiz-adv-x="310" 
d="M25 20l87 14v596l-87 16v18h260v-18l-87 -16v-596l87 -14v-20h-124q-16 -31 -25.5 -52t-15 -36t-7 -27t-1.5 -24q0 -26 13 -42.5t39 -16.5q22 0 41.5 11.5t45.5 41.5l13 -9q-10 -15 -23 -32t-29 -31.5t-35 -24.5t-42 -10q-43 0 -66.5 24t-23.5 59q0 38 25.5 77.5
t64.5 91.5h-110v20z" />
    <glyph glyph-name="iogonek" unicode="&#x12f;" horiz-adv-x="239" 
d="M15 17l70 14v359l-67 30v7l141 50v-446l70 -14v-17h-96q-16 -31 -25.5 -52t-15 -36t-7 -27t-1.5 -24q0 -26 13 -42.5t39 -16.5q22 0 41.5 11.5t45.5 41.5l13 -9q-10 -15 -23 -32t-29 -31.5t-35 -24.5t-42 -10q-43 0 -66.5 24t-23.5 59q0 38 25.5 77.5t64.5 91.5h-92v17z
M118 592q-22 0 -37.5 15.5t-15.5 37.5t15.5 37.5t37.5 15.5t37.5 -15.5t15.5 -37.5t-15.5 -37.5t-37.5 -15.5z" />
    <glyph glyph-name="Idotaccent" unicode="&#x130;" horiz-adv-x="310" 
d="M25 20l87 14v596l-87 16v18h260v-18l-87 -16v-596l87 -14v-20h-260v20zM158 752q-22 0 -37.5 15.5t-15.5 37.5t15.5 37.5t37.5 15.5t37.5 -15.5t15.5 -37.5t-15.5 -37.5t-37.5 -15.5z" />
    <glyph glyph-name="dotlessi" unicode="&#x131;" horiz-adv-x="239" 
d="M15 17l70 14v359l-67 30v7l141 50v-446l70 -14v-17h-214v17z" />
    <glyph glyph-name="IJ" unicode="&#x132;" horiz-adv-x="602" 
d="M25 20l87 14v596l-87 16v18h260v-18l-87 -16v-596l87 -14v-20h-260v20zM497 43q0 -53 -9 -95t-33 -74.5t-66 -57t-109 -40.5l-6 21q37 16 63 36t42.5 46t24 60t7.5 78v614l-87 16v17h260v-17l-87 -16v-588z" />
    <glyph glyph-name="ij" unicode="&#x133;" horiz-adv-x="468" 
d="M15 17l70 14v359l-67 30v7l141 50v-446l70 -14v-17h-214v17zM118 592q-22 0 -37.5 15.5t-15.5 37.5t15.5 37.5t37.5 15.5t37.5 -15.5t15.5 -37.5t-15.5 -37.5t-37.5 -15.5zM219 -225q30 21 48.5 40t30 43.5t16.5 59t8 87.5v385l-67 30v7l141 50v-453q0 -52 -5 -94.5
t-26 -75.5q-20 -31 -53 -50t-86 -43zM355 592q-22 0 -37.5 15.5t-15.5 37.5t15.5 37.5t37.5 15.5t37.5 -15.5t15.5 -37.5t-15.5 -37.5t-37.5 -15.5z" />
    <glyph glyph-name="Jcircumflex" unicode="&#x134;" horiz-adv-x="303" 
d="M19 728l114 125h54l104 -125h-32l-102 79l-109 -79h-29zM198 43q0 -53 -9 -95t-33 -74.5t-66 -57t-109 -40.5l-6 21q37 16 63 36t42.5 46t24 60t7.5 78v614l-87 16v17h260v-17l-87 -16v-588z" />
    <glyph glyph-name="jcircumflex" unicode="&#x135;" horiz-adv-x="232" 
d="M-18 -225q30 21 48.5 40t30 43.5t16.5 59t8 87.5v385l-67 30v7l141 50v-453q0 -52 -5 -94.5t-26 -75.5q-20 -31 -53 -50t-86 -43zM12 544l91 208h40l92 -208h-26l-88 147l-86 -147h-23z" />
    <glyph glyph-name="Kcommaaccent" unicode="&#x136;" horiz-adv-x="635" 
d="M268 -238q53 12 72.5 31t19.5 41t-17 33.5t-44 13.5v4q3 22 16.5 36.5t39.5 14.5q28 0 48.5 -20t20.5 -51q0 -45 -35.5 -77t-117.5 -43zM25 19l87 14v598l-87 16v17h261v-17l-88 -16v-598l88 -14v-19h-261v19zM210 344v3l279 280l-92 20v17h209v-17l-71 -18l-250 -250
l287 -346l74 -14v-19h-154z" />
    <glyph glyph-name="kcommaaccent" unicode="&#x137;" horiz-adv-x="468" 
d="M171 -238q53 12 72.5 31t19.5 41t-17 33.5t-44 13.5v4q3 22 16.5 36.5t39.5 14.5q28 0 48.5 -20t20.5 -51q0 -45 -35.5 -77t-117.5 -43zM75 662l-65 32v7l139 45v-715l76 -14v-17h-210v17l60 14v631zM420 -14q-27 0 -45.5 13t-41.5 40l-178 210l209 178l-75 17v19h175
v-19l-59 -17l-182 -152l242 -271q-3 -5 -9 -9q-5 -4 -14 -6.5t-22 -2.5z" />
    <glyph glyph-name="kgreenlandic" unicode="&#x138;" horiz-adv-x="478" 
d="M15 17l70 14v359l-67 30v7l141 47v-443l67 -14v-17h-211v17zM430 -14q-27 0 -45.5 13t-41.5 40l-178 210l209 178l-75 17v19h175v-19l-59 -17l-182 -152l242 -271q-3 -5 -9 -9q-5 -4 -14 -6.5t-22 -2.5z" />
    <glyph glyph-name="Lacute" unicode="&#x139;" horiz-adv-x="571" 
d="M303 865v-6l-131 -131h-27l80 137h78zM198 50q8 -9 18 -14.5t27 -7.5h208l93 188h17l-45 -216h-491v19l87 14v598l-87 15v18h277v-18l-104 -13v-583z" />
    <glyph glyph-name="lacute" unicode="&#x13a;" horiz-adv-x="222" 
d="M262 905v-6l-131 -131h-27l80 137h78zM15 17l60 14v631l-63 32v7l137 45v-715l63 -14v-17h-197v17z" />
    <glyph glyph-name="Lcommaaccent" unicode="&#x13b;" horiz-adv-x="571" 
d="M207 -238q53 12 72.5 31t19.5 41t-17 33.5t-44 13.5v4q3 22 16.5 36.5t39.5 14.5q28 0 48.5 -20t20.5 -51q0 -45 -35.5 -77t-117.5 -43zM198 50q8 -9 18 -14.5t27 -7.5h208l93 188h17l-45 -216h-491v19l87 14v598l-87 15v18h277v-18l-104 -13v-583z" />
    <glyph glyph-name="lcommaaccent" unicode="&#x13c;" horiz-adv-x="222" 
d="M40 -238q53 12 72.5 31t19.5 41t-17 33.5t-44 13.5v4q3 22 16.5 36.5t39.5 14.5q28 0 48.5 -20t20.5 -51q0 -45 -35.5 -77t-117.5 -43zM15 17l60 14v631l-63 32v7l137 45v-715l63 -14v-17h-197v17z" />
    <glyph glyph-name="Lcaron" unicode="&#x13d;" horiz-adv-x="571" 
d="M394 532l16 201h72v-7l-72 -194h-16zM198 50q8 -9 18 -14.5t27 -7.5h208l93 188h17l-45 -216h-491v19l87 14v598l-87 15v18h277v-18l-104 -13v-583z" />
    <glyph glyph-name="lcaron" unicode="&#x13e;" horiz-adv-x="222" 
d="M201 532l16 201h72v-7l-72 -194h-16zM15 17l60 14v631l-63 32v7l137 45v-715l63 -14v-17h-197v17z" />
    <glyph glyph-name="Ldot" unicode="&#x13f;" horiz-adv-x="571" 
d="M483 313q-23 0 -39 16t-16 39t16 39t39 16t39 -16t16 -39t-16 -39t-39 -16zM198 51q8 -9 18 -15t27 -8h211l85 172h19l-42 -200h-491v19l87 14v598l-87 15v18h277v-18l-104 -13v-582z" />
    <glyph glyph-name="ldot" unicode="&#x140;" horiz-adv-x="284" 
d="M254 318q-21 0 -35.5 14.5t-14.5 35.5t14.5 35.5t35.5 14.5t35.5 -14.5t14.5 -35.5t-14.5 -35.5t-35.5 -14.5zM15 17l60 14v631l-63 32v7l137 45v-715l63 -14v-17h-197v17z" />
    <glyph glyph-name="Lslash" unicode="&#x141;" horiz-adv-x="571" 
d="M26 297l86 23v311l-87 15v18h277v-18l-104 -13v-290l224 60v-26l-224 -61v-266q8 -9 18 -14.5t27 -7.5h208l93 188h17l-45 -216h-491v17l87 16v260l-86 -23v27z" />
    <glyph glyph-name="lslash" unicode="&#x142;" horiz-adv-x="222" 
d="M-5 318l80 48v296l-65 32v7l139 45v-336l87 53v-30l-87 -53v-349l63 -14v-17h-197v17l60 14v305l-80 -48v30z" />
    <glyph glyph-name="Nacute" unicode="&#x143;" horiz-adv-x="710" 
d="M507 865v-6l-131 -131h-27l80 137h78zM595 -6l-450 583v-537l112 -19v-21h-232v20l87 22v560q-14 14 -31.5 24.5t-40.5 15.5l-15 4v18h157l393 -509v469l-104 19v21h224v-20l-87 -22v-493l4 -135h-17z" />
    <glyph glyph-name="nacute" unicode="&#x144;" horiz-adv-x="535" 
d="M377 752v-7l-101 -201h-21l53 208h69zM15 17l70 14v359l-67 30v7l133 47h3l3 -90h1q4 4 19.5 19t39.5 31.5t54 29.5t63 13q63 0 95.5 -36t32.5 -127v-283l63 -14v-17h-198v17l61 14v283q-1 45 -23.5 78t-69.5 33q-22 0 -42 -6.5t-37.5 -16t-31.5 -20t-25 -18.5v-333
l67 -14v-17h-211v17z" />
    <glyph glyph-name="Ncommaaccent" unicode="&#x145;" horiz-adv-x="710" 
d="M284 -238q53 12 72.5 31t19.5 41t-17 33.5t-44 13.5v4q3 22 16.5 36.5t39.5 14.5q28 0 48.5 -20t20.5 -51q0 -45 -35.5 -77t-117.5 -43zM595 -6l-450 583v-537l112 -19v-21h-232v20l87 22v560q-14 14 -31.5 24.5t-40.5 15.5l-15 4v18h157l393 -509v469l-104 19v21h224
v-20l-87 -22v-493l4 -135h-17z" />
    <glyph glyph-name="ncommaaccent" unicode="&#x146;" horiz-adv-x="535" 
d="M178 -238q53 12 72.5 31t19.5 41t-17 33.5t-44 13.5v4q3 22 16.5 36.5t39.5 14.5q28 0 48.5 -20t20.5 -51q0 -45 -35.5 -77t-117.5 -43zM15 17l70 14v359l-67 30v7l133 47h3l3 -90h1q4 4 19.5 19t39.5 31.5t54 29.5t63 13q63 0 95.5 -36t32.5 -127v-283l63 -14v-17h-198
v17l61 14v283q-1 45 -23.5 78t-69.5 33q-22 0 -42 -6.5t-37.5 -16t-31.5 -20t-25 -18.5v-333l67 -14v-17h-211v17z" />
    <glyph glyph-name="Ncaron" unicode="&#x147;" horiz-adv-x="710" 
d="M512 853l-114 -125h-54l-104 125h32l101 -79l110 79h29zM595 -6l-450 583v-537l112 -19v-21h-232v20l87 22v560q-14 14 -31.5 24.5t-40.5 15.5l-15 4v18h157l393 -509v469l-104 19v21h224v-20l-87 -22v-493l4 -135h-17z" />
    <glyph glyph-name="ncaron" unicode="&#x148;" horiz-adv-x="535" 
d="M391 752l-101 -208h-40l-102 208h26l97 -144l97 144h23zM15 17l70 14v359l-67 30v7l133 47h3l3 -90h1q4 4 19.5 19t39.5 31.5t54 29.5t63 13q63 0 95.5 -36t32.5 -127v-283l63 -14v-17h-198v17l61 14v283q-1 45 -23.5 78t-69.5 33q-22 0 -42 -6.5t-37.5 -16t-31.5 -20
t-25 -18.5v-333l67 -14v-17h-211v17z" />
    <glyph glyph-name="napostrophe" unicode="&#x149;" horiz-adv-x="535" 
d="M-41 566q53 12 72.5 31t19.5 41t-17 33.5t-44 13.5v4q3 22 16.5 36.5t39.5 14.5q28 0 48.5 -20t20.5 -51q0 -45 -35.5 -77t-117.5 -43zM15 17l70 14v359l-67 30v7l133 47h3l3 -90h1q4 4 19.5 19t39.5 31.5t54 29.5t63 13q63 0 95.5 -36t32.5 -127v-283l63 -14v-17h-198
v17l61 14v283q-1 45 -23.5 78t-69.5 33q-22 0 -42 -6.5t-37.5 -16t-31.5 -20t-25 -18.5v-333l67 -14v-17h-211v17z" />
    <glyph glyph-name="Eng" unicode="&#x14a;" horiz-adv-x="713" 
d="M608 622v-579q0 -57 -9.5 -100t-34 -74.5t-66.5 -54t-107 -38.5l-5 21q100 33 141 88t41 132v12l-423 548v-537l112 -19v-21h-232v20l87 22v560q-17 18 -36 27t-35 13l-16 4v18h157l393 -509v469l-104 19v21h224v-20z" />
    <glyph glyph-name="eng" unicode="&#x14b;" horiz-adv-x="534" 
d="M388 314q-1 45 -23.5 78t-69.5 33q-22 0 -42 -6.5t-37.5 -16t-31.5 -20t-25 -18.5v-333l67 -14v-17h-211v17l70 14v359l-67 30v7l133 47h3l3 -90h1q4 4 19.5 19t39.5 31.5t54 29.5t63 13q63 0 95.5 -36t32.5 -127v-290q0 -52 -8 -95.5t-28 -73.5q-20 -32 -51 -52t-83 -42
l-7 14q30 20 49.5 40t31.5 46.5t17 61t5 82.5v309z" />
    <glyph glyph-name="Omacron" unicode="&#x14c;" horiz-adv-x="779" 
d="M258 808h276v-48h-276v48zM399 4q66 0 112.5 27.5t75.5 72t42.5 101t13.5 114.5q0 69 -20 130.5t-55.5 108t-84.5 74t-108 27.5q-64 0 -109.5 -28t-74 -73t-42 -101.5t-13.5 -112.5q0 -66 19.5 -127.5t54 -108.5t83 -75.5t106.5 -28.5zM388 685q75 0 139 -26.5t111.5 -73
t74 -110t26.5 -137.5q0 -83 -30 -149.5t-79.5 -113.5t-112 -72t-127.5 -25q-69 0 -132 25t-111.5 70.5t-77.5 110t-29 142.5q0 82 30.5 148.5t79.5 113.5t111.5 72t126.5 25z" />
    <glyph glyph-name="omacron" unicode="&#x14d;" horiz-adv-x="537" 
d="M124 665h276v-48h-276v48zM255 451q-33 0 -59 -15.5t-44 -42.5t-27.5 -63.5t-9.5 -78.5q0 -51 12.5 -94.5t35 -75.5t52.5 -50.5t65 -18.5q33 0 59 15.5t44 42.5t28 64t10 79q0 51 -12.5 94.5t-35 75.5t-52.5 50t-66 18zM267 -14q-48 0 -90 16.5t-73.5 48t-50 76.5
t-18.5 101q0 59 20.5 105t54 78t75.5 49t85 17q51 0 93.5 -18t73 -50t48 -76t17.5 -97q0 -59 -20.5 -105.5t-54 -78.5t-75.5 -49t-85 -17z" />
    <glyph glyph-name="Obreve" unicode="&#x14e;" horiz-adv-x="779" 
d="M395 730q-32 0 -53 11.5t-33.5 29.5t-18 41t-6.5 46h17q9 -32 33 -54.5t65 -22.5q47 0 69.5 22.5t31.5 54.5h17q-1 -22 -7 -44.5t-19.5 -41t-36.5 -30.5t-59 -12zM399 4q66 0 112.5 27.5t75.5 72t42.5 101t13.5 114.5q0 69 -20 130.5t-55.5 108t-84.5 74t-108 27.5
q-64 0 -109.5 -28t-74 -73t-42 -101.5t-13.5 -112.5q0 -66 19.5 -127.5t54 -108.5t83 -75.5t106.5 -28.5zM388 685q75 0 139 -26.5t111.5 -73t74 -110t26.5 -137.5q0 -83 -30 -149.5t-79.5 -113.5t-112 -72t-127.5 -25q-69 0 -132 25t-111.5 70.5t-77.5 110t-29 142.5
q0 82 30.5 148.5t79.5 113.5t111.5 72t126.5 25z" />
    <glyph glyph-name="obreve" unicode="&#x14f;" horiz-adv-x="537" 
d="M255 451q-33 0 -59 -15.5t-44 -42.5t-27.5 -63.5t-9.5 -78.5q0 -51 12.5 -94.5t35 -75.5t52.5 -50.5t65 -18.5q33 0 59 15.5t44 42.5t28 64t10 79q0 51 -12.5 94.5t-35 75.5t-52.5 50t-66 18zM267 -14q-48 0 -90 16.5t-73.5 48t-50 76.5t-18.5 101q0 59 20.5 105t54 78
t75.5 49t85 17q51 0 93.5 -18t73 -50t48 -76t17.5 -97q0 -59 -20.5 -105.5t-54 -78.5t-75.5 -49t-85 -17zM261 560q-52 0 -82.5 40t-33.5 118h19q15 -57 40 -78.5t58 -21.5q32 0 57.5 22t40.5 78h19q-4 -74 -33 -116t-85 -42z" />
    <glyph glyph-name="Ohungarumlaut" unicode="&#x150;" horiz-adv-x="779" 
d="M446 865v-7l-105 -130h-27l66 137h66zM585 865v-7l-105 -130h-28l66 137h67zM399 4q66 0 112.5 27.5t75.5 72t42.5 101t13.5 114.5q0 69 -20 130.5t-55.5 108t-84.5 74t-108 27.5q-64 0 -109.5 -28t-74 -73t-42 -101.5t-13.5 -112.5q0 -66 19.5 -127.5t54 -108.5
t83 -75.5t106.5 -28.5zM388 685q75 0 139 -26.5t111.5 -73t74 -110t26.5 -137.5q0 -83 -30 -149.5t-79.5 -113.5t-112 -72t-127.5 -25q-69 0 -132 25t-111.5 70.5t-77.5 110t-29 142.5q0 82 30.5 148.5t79.5 113.5t111.5 72t126.5 25z" />
    <glyph glyph-name="ohungarumlaut" unicode="&#x151;" horiz-adv-x="537" 
d="M300 752v-7l-94 -201h-21l51 208h64zM428 752v-7l-94 -201h-21l51 208h64zM255 451q-33 0 -59 -15.5t-44 -42.5t-27.5 -63.5t-9.5 -78.5q0 -51 12.5 -94.5t35 -75.5t52.5 -50.5t65 -18.5q33 0 59 15.5t44 42.5t28 64t10 79q0 51 -12.5 94.5t-35 75.5t-52.5 50t-66 18z
M267 -14q-48 0 -90 16.5t-73.5 48t-50 76.5t-18.5 101q0 59 20.5 105t54 78t75.5 49t85 17q51 0 93.5 -18t73 -50t48 -76t17.5 -97q0 -59 -20.5 -105.5t-54 -78.5t-75.5 -49t-85 -17z" />
    <glyph glyph-name="OE" unicode="&#x152;" horiz-adv-x="995" 
d="M856 664l66 5v-189h-18l-47 157h-252v-275h146l31 107h17v-239h-17l-31 101h-146v-282q14 -19 45 -22h197l91 166h19l-43 -193h-304q-34 0 -57.5 -1t-46 -2.5t-48.5 -2.5t-65 -1q-84 0 -149.5 25t-111 69.5t-69 105.5t-23.5 134q0 81 28 144.5t77.5 107.5t118.5 67.5
t152 23.5q30 0 53 -1t52 -2t69.5 -2t104.5 -1h161zM393 18q35 0 59.5 5t39.5 18.5t22 36t7 58.5v492q-21 5 -47.5 10t-70.5 5q-58 0 -106.5 -20.5t-84 -58.5t-55.5 -93.5t-20 -125.5q0 -55 14 -113t45 -105.5t79.5 -78t117.5 -30.5z" />
    <glyph glyph-name="oe" unicode="&#x153;" horiz-adv-x="854" 
d="M628 -14q-66 0 -108 32.5t-63 80.5q-32 -55 -84.5 -84t-105.5 -29q-48 0 -90 16.5t-73.5 48t-50 76.5t-18.5 101q0 59 20.5 105t54 78t75.5 49t85 17q66 0 117.5 -32.5t78.5 -88.5q29 54 75.5 87.5t103.5 33.5q74 0 120.5 -47.5t54.5 -141.5h-323q-1 -7 -1 -14v-14
q0 -100 43 -155t120 -55q28 0 51.5 8t43 20t34 26t25.5 26l14 -10q-14 -21 -30.5 -44.5t-40 -43.5t-54.5 -33t-74 -13zM255 451q-33 0 -59 -15.5t-44 -42.5t-27.5 -63.5t-9.5 -78.5q0 -51 12.5 -94.5t35 -75.5t52.5 -50.5t65 -18.5q33 0 59 15.5t44 42.5t28 64t10 79
q0 51 -12.5 94.5t-35 75.5t-52.5 50t-66 18zM618 445q-45 0 -76 -36.5t-42 -95.5h232q-7 31 -15.5 55.5t-22 41.5t-32 26t-44.5 9z" />
    <glyph glyph-name="Racute" unicode="&#x154;" horiz-adv-x="627" 
d="M435 865v-6l-131 -131h-27l80 137h78zM25 19l87 14v598l-87 16v17l209 3q147 2 218.5 -41.5t71.5 -120.5q0 -32 -11.5 -57t-32.5 -44.5t-50 -34t-63 -26.5v-3l194 -302l76 -19v-19h-157l-157 252q-11 17 -18 28.5t-11 18.5q-4 8 -7 12h-89v-278l84 -16v-17h-257v19z
M198 340h85q33 4 60 17t46 32.5t29.5 43.5t10.5 50q0 83 -63 123.5t-168 39.5v-306z" />
    <glyph glyph-name="racute" unicode="&#x155;" horiz-adv-x="336" 
d="M289 752v-7l-101 -201h-21l53 208h69zM15 17l70 14v359l-67 30v7l133 47h3l2 -135h3l11 22q17 34 31.5 56t28.5 35t27.5 18t27.5 5q19 0 32 -11.5t13 -30.5q0 -15 -6.5 -26t-17.5 -22l-67 21q-23 -13 -45 -43.5t-35 -67.5v-264l79 -14v-17h-223v17z" />
    <glyph glyph-name="Rcommaaccent" unicode="&#x156;" horiz-adv-x="627" 
d="M248 -238q53 12 72.5 31t19.5 41t-17 33.5t-44 13.5v4q3 22 16.5 36.5t39.5 14.5q28 0 48.5 -20t20.5 -51q0 -45 -35.5 -77t-117.5 -43zM25 19l87 14v598l-87 16v17l209 3q147 2 218.5 -41.5t71.5 -120.5q0 -32 -11.5 -57t-32.5 -44.5t-50 -34t-63 -26.5v-3l194 -302
l76 -19v-19h-157l-157 252q-11 17 -18 28.5t-11 18.5q-4 8 -7 12h-89v-278l84 -16v-17h-257v19zM198 340h85q33 4 60 17t46 32.5t29.5 43.5t10.5 50q0 83 -63 123.5t-168 39.5v-306z" />
    <glyph glyph-name="rcommaaccent" unicode="&#x157;" horiz-adv-x="336" 
d="M34 -238q53 12 72.5 31t19.5 41t-17 33.5t-44 13.5v4q3 22 16.5 36.5t39.5 14.5q28 0 48.5 -20t20.5 -51q0 -45 -35.5 -77t-117.5 -43zM15 17l70 14v359l-67 30v7l133 47h3l2 -135h3l11 22q17 34 31.5 56t28.5 35t27.5 18t27.5 5q19 0 32 -11.5t13 -30.5q0 -15 -6.5 -26
t-17.5 -22l-67 21q-23 -13 -45 -43.5t-35 -67.5v-264l79 -14v-17h-223v17z" />
    <glyph glyph-name="Rcaron" unicode="&#x158;" horiz-adv-x="627" 
d="M440 853l-114 -125h-54l-104 125h32l101 -79l110 79h29zM25 19l87 14v598l-87 16v17l209 3q147 2 218.5 -41.5t71.5 -120.5q0 -32 -11.5 -57t-32.5 -44.5t-50 -34t-63 -26.5v-3l194 -302l76 -19v-19h-157l-157 252q-11 17 -18 28.5t-11 18.5q-4 8 -7 12h-89v-278l84 -16
v-17h-257v19zM198 340h85q33 4 60 17t46 32.5t29.5 43.5t10.5 50q0 83 -63 123.5t-168 39.5v-306z" />
    <glyph glyph-name="rcaron" unicode="&#x159;" horiz-adv-x="336" 
d="M310 752l-101 -208h-40l-102 208h26l97 -144l97 144h23zM15 17l70 14v359l-67 30v7l133 47h3l2 -135h3l11 22q17 34 31.5 56t28.5 35t27.5 18t27.5 5q19 0 32 -11.5t13 -30.5q0 -15 -6.5 -26t-17.5 -22l-67 21q-23 -13 -45 -43.5t-35 -67.5v-264l79 -14v-17h-223v17z" />
    <glyph glyph-name="Sacute" unicode="&#x15a;" horiz-adv-x="502" 
d="M40 203h17l59 -162q20 -14 49.5 -23.5t68.5 -9.5q69 0 112 37.5t43 102.5q0 21 -5.5 40t-19.5 37t-39.5 35.5t-64.5 34.5l-50 22q-81 35 -118.5 76t-37.5 107q0 41 18 75t48.5 58t71.5 37.5t87 13.5t85 -13.5t68 -25.5l9 -165h-14l-58 145q-23 14 -46 24.5t-57 10.5
q-29 0 -52.5 -10.5t-40.5 -27.5t-26.5 -40t-9.5 -47q0 -48 24 -78t86 -58l75 -34q79 -35 115.5 -75t36.5 -104q0 -47 -21.5 -85t-56 -64.5t-79 -41t-89.5 -14.5q-61 0 -104.5 14t-76.5 28zM390 865v-6l-131 -131h-27l80 137h78z" />
    <glyph glyph-name="sacute" unicode="&#x15b;" horiz-adv-x="393" 
d="M320 752v-7l-101 -201h-21l53 208h69zM176 -14q-41 0 -75 11t-52 22l-7 146h17l48 -126q28 -28 81 -28q46 0 73 27t27 65q0 35 -20.5 55.5t-65.5 37.5l-47 17q-51 18 -76.5 48t-25.5 81q0 31 13.5 56t37 42.5t54 27t65.5 9.5q30 0 59.5 -9t54.5 -23v-125h-17l-40 105
q-12 11 -29 19.5t-40 8.5q-21 0 -37.5 -7t-28 -19t-17.5 -27.5t-6 -31.5q0 -35 20.5 -54.5t63.5 -36.5l42 -16q63 -24 89 -54t26 -69q0 -35 -16 -63t-42.5 -48t-60 -30.5t-68.5 -10.5z" />
    <glyph glyph-name="Scircumflex" unicode="&#x15c;" horiz-adv-x="502" 
d="M135 728l114 125h54l104 -125h-32l-102 79l-109 -79h-29zM40 203h17l59 -162q20 -14 49.5 -23.5t68.5 -9.5q69 0 112 37.5t43 102.5q0 21 -5.5 40t-19.5 37t-39.5 35.5t-64.5 34.5l-50 22q-81 35 -118.5 76t-37.5 107q0 41 18 75t48.5 58t71.5 37.5t87 13.5t85 -13.5
t68 -25.5l9 -165h-14l-58 145q-23 14 -46 24.5t-57 10.5q-29 0 -52.5 -10.5t-40.5 -27.5t-26.5 -40t-9.5 -47q0 -48 24 -78t86 -58l75 -34q79 -35 115.5 -75t36.5 -104q0 -47 -21.5 -85t-56 -64.5t-79 -41t-89.5 -14.5q-61 0 -104.5 14t-76.5 28z" />
    <glyph glyph-name="scircumflex" unicode="&#x15d;" horiz-adv-x="393" 
d="M87 544l101 208h40l102 -208h-26l-98 149l-96 -149h-23zM176 -14q-41 0 -75 11t-52 22l-7 146h17l48 -126q28 -28 81 -28q46 0 73 27t27 65q0 35 -20.5 55.5t-65.5 37.5l-47 17q-51 18 -76.5 48t-25.5 81q0 31 13.5 56t37 42.5t54 27t65.5 9.5q30 0 59.5 -9t54.5 -23
v-125h-17l-40 105q-12 11 -29 19.5t-40 8.5q-21 0 -37.5 -7t-28 -19t-17.5 -27.5t-6 -31.5q0 -35 20.5 -54.5t63.5 -36.5l42 -16q63 -24 89 -54t26 -69q0 -35 -16 -63t-42.5 -48t-60 -30.5t-68.5 -10.5z" />
    <glyph glyph-name="Scedilla" unicode="&#x15e;" horiz-adv-x="502" 
d="M145 -241q46 17 67 37t21 46t-15.5 41t-39.5 22l45 76q-59 1 -101.5 14.5t-74.5 27.5l-7 180h17l59 -162q20 -14 49.5 -23.5t68.5 -9.5q69 0 112 37.5t43 102.5q0 21 -5.5 40t-19.5 37t-39.5 35.5t-64.5 34.5l-50 22q-81 35 -118.5 76t-37.5 107q0 41 18 75t48.5 58
t71.5 37.5t87 13.5t85 -13.5t68 -25.5l9 -165h-14l-58 145q-23 14 -46 24.5t-57 10.5q-29 0 -52.5 -10.5t-40.5 -27.5t-26.5 -40t-9.5 -47q0 -48 24 -78t86 -58l75 -34q79 -35 115.5 -75t36.5 -104q0 -44 -19 -80t-50 -62.5t-71 -42t-82 -19.5l-21 -36q38 -10 54.5 -30.5
t16.5 -47.5q0 -30 -15.5 -51.5t-38.5 -36t-49.5 -23.5t-48.5 -13z" />
    <glyph glyph-name="scedilla" unicode="&#x15f;" horiz-adv-x="393" 
d="M96 -235q46 17 67 37t21 46t-15.5 41t-39.5 22l44 75q-40 1 -73.5 11.5t-50.5 21.5l-7 146h17l48 -126q28 -28 81 -28q46 0 73 27t27 65q0 35 -20.5 55.5t-65.5 37.5l-47 17q-51 18 -76.5 48t-25.5 81q0 31 13.5 56t37 42.5t54 27t65.5 9.5q30 0 59.5 -9t54.5 -23v-125
h-17l-40 105q-12 11 -29 19.5t-40 8.5q-21 0 -37.5 -7t-28 -19t-17.5 -27.5t-6 -31.5q0 -35 20.5 -54.5t63.5 -36.5l42 -16q63 -24 89 -54t26 -69q0 -32 -13.5 -57.5t-35.5 -45t-51 -31.5t-60 -16l-21 -36q38 -10 54.5 -30.5t16.5 -47.5q0 -30 -15.5 -51.5t-38.5 -36
t-49.5 -23.5t-48.5 -13z" />
    <glyph glyph-name="Scaron" unicode="&#x160;" horiz-adv-x="502" 
d="M414 853l-114 -125h-54l-104 125h32l101 -79l110 79h29zM40 203h17l59 -162q20 -14 49.5 -23.5t68.5 -9.5q69 0 112 37.5t43 102.5q0 21 -5.5 40t-19.5 37t-39.5 35.5t-64.5 34.5l-50 22q-81 35 -118.5 76t-37.5 107q0 41 18 75t48.5 58t71.5 37.5t87 13.5t85 -13.5
t68 -25.5l9 -165h-14l-58 145q-23 14 -46 24.5t-57 10.5q-29 0 -52.5 -10.5t-40.5 -27.5t-26.5 -40t-9.5 -47q0 -48 24 -78t86 -58l75 -34q79 -35 115.5 -75t36.5 -104q0 -47 -21.5 -85t-56 -64.5t-79 -41t-89.5 -14.5q-61 0 -104.5 14t-76.5 28z" />
    <glyph glyph-name="scaron" unicode="&#x161;" horiz-adv-x="393" 
d="M333 752l-101 -208h-40l-102 208h26l97 -144l97 144h23zM176 -14q-41 0 -75 11t-52 22l-7 146h17l48 -126q28 -28 81 -28q46 0 73 27t27 65q0 35 -20.5 55.5t-65.5 37.5l-47 17q-51 18 -76.5 48t-25.5 81q0 31 13.5 56t37 42.5t54 27t65.5 9.5q30 0 59.5 -9t54.5 -23
v-125h-17l-40 105q-12 11 -29 19.5t-40 8.5q-21 0 -37.5 -7t-28 -19t-17.5 -27.5t-6 -31.5q0 -35 20.5 -54.5t63.5 -36.5l42 -16q63 -24 89 -54t26 -69q0 -35 -16 -63t-42.5 -48t-60 -30.5t-68.5 -10.5z" />
    <glyph glyph-name="Tcommaaccent" unicode="&#x162;" horiz-adv-x="578" 
d="M201 -238q53 12 72.5 31t19.5 41t-17 33.5t-44 13.5v4q3 22 16.5 36.5t39.5 14.5q28 0 48.5 -20t20.5 -51q0 -45 -35.5 -77t-117.5 -43zM503 664l50 8l7 -197h-18l-50 161h-160v-604l87 -14v-18h-260v18l87 14v604h-160l-50 -161h-18l7 196l47 -7h431z" />
    <glyph glyph-name="tcommaaccent" unicode="&#x163;" horiz-adv-x="308" 
d="M85 -238q53 12 72.5 31t19.5 41t-17 33.5t-44 13.5v4q3 22 16.5 36.5t39.5 14.5q28 0 48.5 -20t20.5 -51q0 -45 -35.5 -77t-117.5 -43zM178 -9q-52 0 -77.5 23t-25.5 80l2 331h-78v19l80 21l51 125h20v-127h144v-38h-144v-326q2 -33 21.5 -49t52.5 -16q25 0 48 7t31 10
l4 -11q-8 -7 -20.5 -15.5t-28.5 -16t-36 -12.5t-44 -5z" />
    <glyph glyph-name="Tcaron" unicode="&#x164;" horiz-adv-x="578" 
d="M433 853l-114 -125h-54l-104 125h32l101 -79l110 79h29zM503 664l50 8l7 -197h-18l-50 161h-160v-604l87 -14v-18h-260v18l87 14v604h-160l-50 -161h-18l7 196l47 -7h431z" />
    <glyph glyph-name="tcaron" unicode="&#x165;" horiz-adv-x="308" 
d="M227 532l16 201h72v-7l-72 -194h-16zM178 -9q-52 0 -77.5 23t-25.5 80l2 331h-78v19l80 21l51 125h20v-127h144v-38h-144v-326q2 -33 21.5 -49t52.5 -16q25 0 48 7t31 10l4 -11q-8 -7 -20.5 -15.5t-28.5 -16t-36 -12.5t-44 -5z" />
    <glyph glyph-name="Tbar" unicode="&#x166;" horiz-adv-x="578" 
d="M68 372h178v264h-160l-50 -161h-18l7 196l47 -7h431l50 8l7 -197h-18l-50 161h-160v-264h178v-24h-178v-316l87 -14v-18h-260v18l87 14v316h-178v24z" />
    <glyph glyph-name="tbar" unicode="&#x167;" horiz-adv-x="308" 
d="M7 311h69l1 114h-78v19l80 21l51 125h20v-127h144v-38h-144v-114h144v-35h-144v-177q2 -33 21.5 -49t52.5 -16q25 0 48 7t31 10l4 -11q-8 -7 -20.5 -15.5t-28.5 -16t-36 -12.5t-44 -5q-52 0 -77.5 23t-25.5 80l1 182h-69v35z" />
    <glyph glyph-name="Utilde" unicode="&#x168;" horiz-adv-x="708" 
d="M351 -24q-71 0 -119.5 20.5t-78.5 57.5t-43 88.5t-13 112.5v375l-82 17v17h255v-17l-86 -17v-353q0 -53 8.5 -100.5t29.5 -83t56.5 -56t89.5 -20.5q53 0 90.5 16t62.5 45.5t38 70.5t17 92v384l-98 21v18h215v-18l-81 -21v-368q0 -72 -20.5 -124.5t-56 -87.5t-83 -52
t-101.5 -17zM361 758q-26 9 -43 14t-29.5 3t-22 -12t-21.5 -31l-18 9l5 11q16 33 31.5 51t33 24.5t37.5 3.5t46 -12l33 -11q19 -6 34 -9t28 0t24 13.5t22 30.5l18 -8l-5 -10q-17 -37 -34 -56t-34.5 -26t-36.5 -4.5t-39 9.5z" />
    <glyph glyph-name="utilde" unicode="&#x169;" horiz-adv-x="527" 
d="M371 76q-9 -11 -24 -26t-35.5 -29.5t-47 -24.5t-57.5 -10q-38 0 -64 12.5t-42 34t-23.5 50t-7.5 59.5v271l-65 19v13l139 26v-306q0 -68 29.5 -96t75.5 -28q21 0 39 5.5t33.5 13.5t27.5 17t21 17v319l-77 19v13l151 26v-428l69 -20v-13l-134 -19zM247 613q-26 9 -43 14
t-29.5 3t-22 -12t-21.5 -31l-18 9l5 11q16 33 31.5 51t33 24.5t37.5 3.5t46 -12l33 -11q19 -6 34 -9t28 0t24 13.5t22 30.5l18 -8l-5 -10q-17 -37 -34 -56t-34.5 -26t-36.5 -4.5t-39 9.5z" />
    <glyph glyph-name="Umacron" unicode="&#x16a;" horiz-adv-x="708" 
d="M351 -24q-71 0 -119.5 20.5t-78.5 57.5t-43 88.5t-13 112.5v375l-82 17v17h255v-17l-86 -17v-353q0 -53 8.5 -100.5t29.5 -83t56.5 -56t89.5 -20.5q53 0 90.5 16t62.5 45.5t38 70.5t17 92v384l-98 21v18h215v-18l-81 -21v-368q0 -72 -20.5 -124.5t-56 -87.5t-83 -52
t-101.5 -17zM228 808h276v-48h-276v48z" />
    <glyph glyph-name="umacron" unicode="&#x16b;" horiz-adv-x="527" 
d="M371 76q-9 -11 -24 -26t-35.5 -29.5t-47 -24.5t-57.5 -10q-38 0 -64 12.5t-42 34t-23.5 50t-7.5 59.5v271l-65 19v13l139 26v-306q0 -68 29.5 -96t75.5 -28q21 0 39 5.5t33.5 13.5t27.5 17t21 17v319l-77 19v13l151 26v-428l69 -20v-13l-134 -19zM123 665h276v-48h-276
v48z" />
    <glyph glyph-name="Ubreve" unicode="&#x16c;" horiz-adv-x="708" 
d="M351 -24q-71 0 -119.5 20.5t-78.5 57.5t-43 88.5t-13 112.5v375l-82 17v17h255v-17l-86 -17v-353q0 -53 8.5 -100.5t29.5 -83t56.5 -56t89.5 -20.5q53 0 90.5 16t62.5 45.5t38 70.5t17 92v384l-98 21v18h215v-18l-81 -21v-368q0 -72 -20.5 -124.5t-56 -87.5t-83 -52
t-101.5 -17zM367 730q-32 0 -53 11.5t-33.5 29.5t-18 41t-6.5 46h17q9 -32 33 -54.5t65 -22.5q47 0 69.5 22.5t31.5 54.5h17q-1 -22 -7 -44.5t-19.5 -41t-36.5 -30.5t-59 -12z" />
    <glyph glyph-name="ubreve" unicode="&#x16d;" horiz-adv-x="527" 
d="M371 76q-9 -11 -24 -26t-35.5 -29.5t-47 -24.5t-57.5 -10q-38 0 -64 12.5t-42 34t-23.5 50t-7.5 59.5v271l-65 19v13l139 26v-306q0 -68 29.5 -96t75.5 -28q21 0 39 5.5t33.5 13.5t27.5 17t21 17v319l-77 19v13l151 26v-428l69 -20v-13l-134 -19zM260 560q-52 0 -82.5 40
t-33.5 118h19q15 -57 40 -78.5t58 -21.5q32 0 57.5 22t40.5 78h19q-4 -74 -33 -116t-85 -42z" />
    <glyph glyph-name="Uring" unicode="&#x16e;" horiz-adv-x="708" 
d="M351 -24q-71 0 -119.5 20.5t-78.5 57.5t-43 88.5t-13 112.5v375l-82 17v17h255v-17l-86 -17v-353q0 -53 8.5 -100.5t29.5 -83t56.5 -56t89.5 -20.5q53 0 90.5 16t62.5 45.5t38 70.5t17 92v384l-98 21v18h215v-18l-81 -21v-368q0 -72 -20.5 -124.5t-56 -87.5t-83 -52
t-101.5 -17zM274 813q0 43 28.5 70t70.5 27q43 0 71.5 -26.5t28.5 -70.5q0 -43 -28.5 -70.5t-70.5 -27.5q-43 0 -71.5 27t-28.5 71zM305 813q0 -31 20 -51.5t48 -20.5q29 0 49.5 20.5t20.5 51.5t-20.5 51.5t-48.5 20.5q-29 0 -49 -20.5t-20 -51.5z" />
    <glyph glyph-name="uring" unicode="&#x16f;" horiz-adv-x="527" 
d="M160 656q0 43 28.5 70t70.5 27q43 0 71.5 -26.5t28.5 -70.5q0 -43 -28.5 -70.5t-70.5 -27.5q-43 0 -71.5 27t-28.5 71zM191 656q0 -31 20 -51.5t48 -20.5q29 0 49.5 20.5t20.5 51.5t-20.5 51.5t-48.5 20.5q-29 0 -49 -20.5t-20 -51.5zM371 76q-9 -11 -24 -26t-35.5 -29.5
t-47 -24.5t-57.5 -10q-38 0 -64 12.5t-42 34t-23.5 50t-7.5 59.5v271l-65 19v13l139 26v-306q0 -68 29.5 -96t75.5 -28q21 0 39 5.5t33.5 13.5t27.5 17t21 17v319l-77 19v13l151 26v-428l69 -20v-13l-134 -19z" />
    <glyph glyph-name="Uhungarumlaut" unicode="&#x170;" horiz-adv-x="708" 
d="M411 865v-7l-105 -130h-27l66 137h66zM550 865v-7l-105 -130h-28l66 137h67zM351 -24q-71 0 -119.5 20.5t-78.5 57.5t-43 88.5t-13 112.5v375l-82 17v17h255v-17l-86 -17v-353q0 -53 8.5 -100.5t29.5 -83t56.5 -56t89.5 -20.5q53 0 90.5 16t62.5 45.5t38 70.5t17 92v384
l-98 21v18h215v-18l-81 -21v-368q0 -72 -20.5 -124.5t-56 -87.5t-83 -52t-101.5 -17z" />
    <glyph glyph-name="uhungarumlaut" unicode="&#x171;" horiz-adv-x="527" 
d="M371 76q-9 -11 -24 -26t-35.5 -29.5t-47 -24.5t-57.5 -10q-38 0 -64 12.5t-42 34t-23.5 50t-7.5 59.5v271l-65 19v13l139 26v-306q0 -68 29.5 -96t75.5 -28q21 0 39 5.5t33.5 13.5t27.5 17t21 17v319l-77 19v13l151 26v-428l69 -20v-13l-134 -19zM296 752v-7l-94 -201
h-21l51 208h64zM424 752v-7l-94 -201h-21l51 208h64z" />
    <glyph glyph-name="Uogonek" unicode="&#x172;" horiz-adv-x="708" 
d="M351 -24q-71 0 -119.5 20.5t-78.5 57.5t-43 88.5t-13 112.5v375l-82 17v17h255v-17l-86 -17v-353q0 -53 8.5 -100.5t29.5 -83t56.5 -56t89.5 -20.5q53 0 90.5 16t62.5 45.5t38 70.5t17 92v384l-98 21v18h215v-18l-81 -21v-368q0 -63 -16 -111.5t-44.5 -83t-67 -55
t-83.5 -27.5q-41 -42 -60.5 -70.5t-19.5 -55.5q0 -20 13 -36t39 -16q22 0 41.5 11.5t45.5 41.5l13 -9q-10 -15 -23 -32t-29.5 -31.5t-37.5 -24.5t-46 -10q-38 0 -61 23.5t-23 58.5q0 21 7.5 38.5t22.5 34.5t37 34.5t50 39.5q-5 -1 -9.5 -1h-9.5z" />
    <glyph glyph-name="uogonek" unicode="&#x173;" horiz-adv-x="527" 
d="M207 -14q-38 0 -64 12.5t-42 34t-23.5 50t-7.5 59.5v271l-65 19v13l139 26v-306q0 -68 29.5 -96t75.5 -28q21 0 39 5.5t33.5 13.5t27.5 17t21 17v319l-77 19v13l151 26v-428l69 -20v-13l-105 -15q-48 -49 -71.5 -80.5t-23.5 -60.5q0 -20 13 -36t39 -16q22 0 41.5 11.5
t45.5 41.5l13 -9q-10 -15 -23 -32t-29.5 -31.5t-37.5 -24.5t-46 -10q-38 0 -61 23.5t-23 58.5q0 23 9 42t26.5 37t43 38t58.5 45l-3 -1l-8 85q-9 -11 -24 -26t-35.5 -29.5t-47 -24.5t-57.5 -10z" />
    <glyph glyph-name="Wcircumflex" unicode="&#x174;" horiz-adv-x="874" 
d="M302 728l114 125h54l104 -125h-32l-102 79l-109 -79h-29zM440 467l-164 -473h-35l-201 636l-65 16v18h231v-18l-77 -16l157 -514l139 396l-39 118l-69 16v18h229v-18l-75 -16l170 -513l150 510l-75 19v18h183v-18l-66 -19l-200 -633h-36z" />
    <glyph glyph-name="wcircumflex" unicode="&#x175;" horiz-adv-x="698" 
d="M250 544l101 208h40l102 -208h-26l-98 149l-96 -149h-23zM502 119q4 -11 6 -19t4 -13q2 -6 3 -10h2q0 3 2 7q1 4 3 10.5t5 17.5l91 316l-76 20v15h165v-16l-59 -20l-137 -443h-43l-112 342q-3 8 -4.5 14.5t-3.5 12.5t-3 13h-2q-1 -6 -3 -13q-3 -12 -8 -27l-108 -342h-41
l-135 446l-57 18v15h202v-15l-67 -20l94 -311q2 -8 3.5 -14.5t3.5 -11.5l2 -10h2q0 5 2 10t3.5 11.5t4.5 14.5l113 356h33z" />
    <glyph glyph-name="Ycircumflex" unicode="&#x176;" horiz-adv-x="573" 
d="M330 314v-280l92 -14v-20h-270v20l92 14v268l-196 328l-65 16v18h237v-18l-74 -16l167 -291h1l172 287l-79 20v18h183v-18l-65 -19zM169 728l114 125h54l104 -125h-32l-102 79l-109 -79h-29z" />
    <glyph glyph-name="ycircumflex" unicode="&#x177;" horiz-adv-x="453" 
d="M296 448v15h166v-16l-57 -19l-219 -611q-11 -29 -27.5 -50t-48.5 -21q-23 0 -37.5 14t-14.5 35t13.5 34.5t34.5 13.5q17 0 28 -10t19 -25h2l61 163l-169 459l-56 18v15h206v-15l-66 -19l121 -350h2l118 349zM133 544l101 208h40l102 -208h-26l-98 149l-96 -149h-23z" />
    <glyph glyph-name="Ydieresis" unicode="&#x178;" horiz-adv-x="573" 
d="M330 314v-280l92 -14v-20h-270v20l92 14v268l-196 328l-65 16v18h237v-18l-74 -16l167 -291h1l172 287l-79 20v18h183v-18l-65 -19zM210 758q-20 0 -33 13.5t-13 33.5t13 34t33 14t34 -14t14 -34t-14 -33.5t-34 -13.5zM403 758q-20 0 -33.5 13.5t-13.5 33.5t13.5 34
t33.5 14t33.5 -14t13.5 -34t-13.5 -33.5t-33.5 -13.5z" />
    <glyph glyph-name="Zacute" unicode="&#x179;" horiz-adv-x="621" 
d="M434 865v-6l-131 -131h-27l80 137h78zM26 12l419 624h-329l-53 -167h-16v202l64 -7h449v-4l-425 -632h357l93 188h18l-45 -216h-532v12z" />
    <glyph glyph-name="zacute" unicode="&#x17a;" horiz-adv-x="436" 
d="M334 752v-7l-101 -201h-21l53 208h69zM30 0v16l272 420h-189l-52 -121h-14v153l73 -5h280v-5l-279 -431h202l67 136h15l-21 -169l-57 6h-297z" />
    <glyph glyph-name="Zdotaccent" unicode="&#x17b;" horiz-adv-x="621" 
d="M26 12l419 624h-329l-53 -167h-16v202l64 -7h449v-4l-425 -632h357l93 188h18l-45 -216h-532v12zM312 752q-22 0 -37.5 15.5t-15.5 37.5t15.5 37.5t37.5 15.5t37.5 -15.5t15.5 -37.5t-15.5 -37.5t-37.5 -15.5z" />
    <glyph glyph-name="zdotaccent" unicode="&#x17c;" horiz-adv-x="436" 
d="M30 0v16l272 420h-189l-52 -121h-14v153l73 -5h280v-5l-279 -431h202l67 136h15l-21 -169l-57 6h-297zM225 592q-22 0 -37.5 15.5t-15.5 37.5t15.5 37.5t37.5 15.5t37.5 -15.5t15.5 -37.5t-15.5 -37.5t-37.5 -15.5z" />
    <glyph glyph-name="Zcaron" unicode="&#x17d;" horiz-adv-x="621" 
d="M448 853l-114 -125h-54l-104 125h32l101 -79l110 79h29zM26 12l419 624h-329l-53 -167h-16v202l64 -7h449v-4l-425 -632h357l93 188h18l-45 -216h-532v12z" />
    <glyph glyph-name="zcaron" unicode="&#x17e;" horiz-adv-x="436" 
d="M352 752l-101 -208h-40l-102 208h26l97 -144l97 144h23zM30 0v16l272 420h-189l-52 -121h-14v153l73 -5h280v-5l-279 -431h202l67 136h15l-21 -169l-57 6h-297z" />
    <glyph glyph-name="florin" unicode="&#x192;" horiz-adv-x="433" 
d="M48 308h91q16 62 42.5 115.5t60.5 93t74.5 62t83.5 22.5q32 0 48 -17.5t16 -32.5q0 -14 -8.5 -30t-21.5 -28q-23 29 -44.5 48t-43.5 19q-16 0 -31.5 -7.5t-31 -31.5t-31 -70t-31.5 -123l-4 -20h134l-7 -30h-134l-55 -270q-11 -51 -29.5 -100t-45.5 -88t-61 -62.5
t-74 -23.5q-10 0 -22.5 3.5t-23.5 10t-18.5 17t-7.5 25.5q0 18 11.5 31.5t18.5 19.5q20 -33 40.5 -53t40.5 -20q27 0 44.5 42.5t34.5 125.5l70 342h-91z" />
    <glyph glyph-name="Aringacute" unicode="&#x1fa;" horiz-adv-x="632" 
d="M-24 19l77 17l228 633l29 6l36 8l234 -651l76 -15v-17h-247v19l80 13l-72 206h-254l-68 -200l118 -19v-19h-237v19zM176 276h227l-114 327h-2zM468 1056v-6l-131 -131h-27l80 137h78zM220 799q0 43 28.5 70t70.5 27q43 0 71.5 -26.5t28.5 -70.5q0 -43 -28.5 -70.5
t-70.5 -27.5q-43 0 -71.5 27t-28.5 71zM251 799q0 -31 20 -51.5t48 -20.5q29 0 49.5 20.5t20.5 51.5t-20.5 51.5t-48.5 20.5q-29 0 -49 -20.5t-20 -51.5z" />
    <glyph glyph-name="aringacute" unicode="&#x1fb;" horiz-adv-x="450" 
d="M151 -14q-19 0 -39.5 5.5t-37.5 19t-28 35t-11 53.5q0 29 11 50.5t31 38t49.5 28.5t66.5 22l105 29v47q0 66 -28 100t-71 34q-23 0 -40 -7t-28 -17l-5 -94q-14 -8 -35 -8q-20 0 -32 10.5t-12 28.5q0 17 14.5 37.5t39.5 38t59 29t73 11.5q76 0 107.5 -35.5t31.5 -101.5
v-281q0 -14 5.5 -22.5t25.5 -8.5h50v-13q-15 -8 -31 -14q-14 -5 -29.5 -9t-29.5 -4q-36 0 -51.5 18t-14.5 61h-2q-35 -37 -68 -59t-76 -22zM197 38q32 0 58 19.5t43 42.5v147l-114 -40q-42 -14 -56 -36.5t-14 -49.5q0 -15 4.5 -30t14.5 -27t26 -19t38 -7zM123 642
q0 43 28.5 70t70.5 27q43 0 71.5 -26.5t28.5 -70.5q0 -43 -28.5 -70.5t-70.5 -27.5q-43 0 -71.5 27t-28.5 71zM154 642q0 -31 20 -51.5t48 -20.5q29 0 49.5 20.5t20.5 51.5t-20.5 51.5t-48.5 20.5q-29 0 -49 -20.5t-20 -51.5zM371 931v-6l-131 -131h-27l80 137h78z" />
    <glyph glyph-name="AEacute" unicode="&#x1fc;" horiz-adv-x="908" 
d="M663 865v-6l-131 -131h-27l80 137h78zM518 320v-270q14 -19 45 -23h197l91 166h19l-43 -193h-482v17l87 16v287h-192l-154 -283l112 -20v-17h-223v17l66 20l343 593l-92 17v17h478l65 5v-189h-18l-47 157h-252v-287h146l31 107h17v-238h-17l-31 101h-146zM421 637
l-164 -287h175v287h-11z" />
    <glyph glyph-name="aeacute" unicode="&#x1fd;" horiz-adv-x="709" 
d="M477 752v-7l-101 -201h-21l53 208h69zM151 -14q-19 0 -39.5 6t-37.5 19t-28 34.5t-11 53.5t15 53.5t41.5 36.5t62 26t76.5 22l69 18v95q-4 19 -12 37t-20.5 31.5t-29.5 21.5t-38 8q-23 0 -40 -7t-28 -17l-5 -95q-16 -7 -35 -7q-20 0 -32 11t-12 28t14.5 37.5t39.5 38
t59 29t73 11.5q51 0 80.5 -19.5t45.5 -58.5q18 34 54.5 56t86.5 22q39 0 68.5 -12.5t50.5 -33.5t33.5 -49.5t18.5 -60.5l-299 -73v-69q3 -57 42 -93t100 -36q28 0 51.5 8t43 20t34 26t25.5 26l14 -10q-14 -21 -30.5 -44.5t-40 -43.5t-54.5 -33t-74 -13q-58 0 -102.5 26.5
t-65.5 74.5l-44 -44t-37.5 -31.5t-38 -19t-44.5 -6.5zM299 233l-78 -22q-34 -10 -55 -20t-32.5 -21t-15.5 -23.5t-4 -25.5q0 -15 4.5 -30t14.5 -27t26 -19t38 -7q33 0 62 24.5t43 62.5q-3 19 -3 40v68zM372 271l213 54q-13 54 -37 87t-72 33q-23 0 -41 -9t-31 -24t-21 -35
t-11 -42v-64z" />
    <glyph glyph-name="Oslashacute" unicode="&#x1fe;" horiz-adv-x="779" 
d="M155 68q-52 46 -83.5 111.5t-31.5 146.5q0 82 30.5 148.5t79.5 113.5t111.5 72t126.5 25q57 0 108 -16.5t94 -45.5l67 86h35l-80 -102q58 -48 92.5 -117t34.5 -152t-30 -149.5t-79.5 -113.5t-112 -72t-127.5 -25q-57 0 -112 18.5t-102 53.5l-67 -86h-36zM399 4
q66 0 112.5 27.5t75.5 72t42.5 101t13.5 114.5q0 68 -19 128t-54 107l-355 -454q35 -45 81.5 -70.5t102.5 -25.5zM136 344q0 -61 16.5 -117.5t45.5 -102.5l354 452q-35 38 -79.5 60.5t-97.5 22.5q-64 0 -109.5 -28t-74 -73t-42 -101.5t-13.5 -112.5zM531 865v-6l-131 -131
h-27l80 137h78z" />
    <glyph glyph-name="oslashacute" unicode="&#x1ff;" horiz-adv-x="537" 
d="M41 -50l71 96q-35 32 -56 78t-21 104q0 59 20.5 105t54 78t75.5 49t85 17q37 0 70 -10.5t60 -29.5l64 86h35l-77 -103q38 -33 59 -80.5t21 -103.5q0 -59 -20.5 -105.5t-54 -78.5t-75.5 -49t-85 -17q-75 0 -134 42l-58 -78h-34zM421 218q0 44 -9.5 82.5t-26.5 68.5
l-220 -297q22 -29 51 -44.5t64 -15.5q33 0 59 15.5t44 43t28 65.5t10 82zM255 451q-33 0 -59 -15.5t-44 -42.5t-27.5 -64.5t-9.5 -81.5q0 -89 34 -151l219 297q-22 27 -50.5 42.5t-62.5 15.5zM370 752v-7l-101 -201h-21l53 208h69z" />
    <glyph glyph-name="Scommaaccent" unicode="&#x218;" horiz-adv-x="502" 
d="M149 -238q53 12 72.5 31t19.5 41t-17 33.5t-44 13.5v4q3 22 16.5 36.5t39.5 14.5q28 0 48.5 -20t20.5 -51q0 -45 -35.5 -77t-117.5 -43zM40 203h17l59 -162q20 -14 49.5 -23.5t68.5 -9.5q69 0 112 37.5t43 102.5q0 21 -5.5 40t-19.5 37t-39.5 35.5t-64.5 34.5l-50 22
q-81 35 -118.5 76t-37.5 107q0 41 18 75t48.5 58t71.5 37.5t87 13.5t85 -13.5t68 -25.5l9 -165h-14l-58 145q-23 14 -46 24.5t-57 10.5q-29 0 -52.5 -10.5t-40.5 -27.5t-26.5 -40t-9.5 -47q0 -48 24 -78t86 -58l75 -34q79 -35 115.5 -75t36.5 -104q0 -47 -21.5 -85
t-56 -64.5t-79 -41t-89.5 -14.5q-61 0 -104.5 14t-76.5 28z" />
    <glyph glyph-name="scommaaccent" unicode="&#x219;" horiz-adv-x="393" 
d="M102 -238q53 12 72.5 31t19.5 41t-17 33.5t-44 13.5v4q3 22 16.5 36.5t39.5 14.5q28 0 48.5 -20t20.5 -51q0 -45 -35.5 -77t-117.5 -43zM176 -14q-41 0 -75 11t-52 22l-7 146h17l48 -126q28 -28 81 -28q46 0 73 27t27 65q0 35 -20.5 55.5t-65.5 37.5l-47 17
q-51 18 -76.5 48t-25.5 81q0 31 13.5 56t37 42.5t54 27t65.5 9.5q30 0 59.5 -9t54.5 -23v-125h-17l-40 105q-12 11 -29 19.5t-40 8.5q-21 0 -37.5 -7t-28 -19t-17.5 -27.5t-6 -31.5q0 -35 20.5 -54.5t63.5 -36.5l42 -16q63 -24 89 -54t26 -69q0 -35 -16 -63t-42.5 -48
t-60 -30.5t-68.5 -10.5z" />
    <glyph glyph-name="uni021A" unicode="&#x21a;" horiz-adv-x="578" 
d="M201 -238q53 12 72.5 31t19.5 41t-17 33.5t-44 13.5v4q3 22 16.5 36.5t39.5 14.5q28 0 48.5 -20t20.5 -51q0 -45 -35.5 -77t-117.5 -43zM503 664l50 8l7 -197h-18l-50 161h-160v-604l87 -14v-18h-260v18l87 14v604h-160l-50 -161h-18l7 196l47 -7h431z" />
    <glyph glyph-name="uni021B" unicode="&#x21b;" horiz-adv-x="308" 
d="M85 -238q53 12 72.5 31t19.5 41t-17 33.5t-44 13.5v4q3 22 16.5 36.5t39.5 14.5q28 0 48.5 -20t20.5 -51q0 -45 -35.5 -77t-117.5 -43zM178 -9q-52 0 -77.5 23t-25.5 80l2 331h-78v19l80 21l51 125h20v-127h144v-38h-144v-326q2 -33 21.5 -49t52.5 -16q25 0 48 7t31 10
l4 -11q-8 -7 -20.5 -15.5t-28.5 -16t-36 -12.5t-44 -5z" />
    <glyph glyph-name="uni0237" unicode="&#x237;" horiz-adv-x="232" 
d="M-18 -225q30 21 48.5 40t30 43.5t16.5 59t8 87.5v385l-67 30v7l141 50v-453q0 -52 -5 -94.5t-26 -75.5q-20 -31 -53 -50t-86 -43z" />
    <glyph glyph-name="circumflex" unicode="&#x2c6;" horiz-adv-x="225" 
d="M-8 544l101 208h40l102 -208h-26l-98 149l-96 -149h-23z" />
    <glyph glyph-name="caron" unicode="&#x2c7;" horiz-adv-x="225" 
d="M235 752l-101 -208h-40l-102 208h26l97 -144l97 144h23z" />
    <glyph glyph-name="breve" unicode="&#x2d8;" horiz-adv-x="390" 
d="M193 560q-52 0 -82.5 40t-33.5 118h19q15 -57 40 -78.5t58 -21.5q32 0 57.5 22t40.5 78h19q-4 -74 -33 -116t-85 -42z" />
    <glyph glyph-name="dotaccent" unicode="&#x2d9;" horiz-adv-x="225" 
d="M114 592q-22 0 -37.5 15.5t-15.5 37.5t15.5 37.5t37.5 15.5t37.5 -15.5t15.5 -37.5t-15.5 -37.5t-37.5 -15.5z" />
    <glyph glyph-name="ring" unicode="&#x2da;" horiz-adv-x="225" 
d="M12 656q0 43 28.5 70t70.5 27q43 0 71.5 -26.5t28.5 -70.5q0 -43 -28.5 -70.5t-70.5 -27.5q-43 0 -71.5 27t-28.5 71zM43 656q0 -31 20 -51.5t48 -20.5q29 0 49.5 20.5t20.5 51.5t-20.5 51.5t-48.5 20.5q-29 0 -49 -20.5t-20 -51.5z" />
    <glyph glyph-name="ogonek" unicode="&#x2db;" horiz-adv-x="390" 
d="M254 0q-51 -51 -75.5 -83.5t-24.5 -62.5q0 -20 13 -36t39 -16q22 0 41.5 11.5t45.5 41.5l13 -9q-10 -15 -23 -32t-29.5 -31.5t-37.5 -24.5t-46 -10q-38 0 -61 23.5t-23 58.5q0 24 10 43.5t29 38.5t46.5 40t62.5 48h20z" />
    <glyph glyph-name="tilde" unicode="&#x2dc;" horiz-adv-x="225" 
d="M91 613q-26 9 -43 14t-29.5 3t-22 -12t-21.5 -31l-18 9l5 11q16 33 31.5 51t33 24.5t37.5 3.5t46 -12l33 -11q19 -6 34 -9t28 0t24 13.5t22 30.5l18 -8l-5 -10q-17 -37 -34 -56t-34.5 -26t-36.5 -4.5t-39 9.5z" />
    <glyph glyph-name="hungarumlaut" unicode="&#x2dd;" horiz-adv-x="390" 
d="M187 752v-7l-94 -201h-21l51 208h64zM315 752v-7l-94 -201h-21l51 208h64z" />
    <glyph glyph-name="Wgrave" unicode="&#x1e80;" horiz-adv-x="874" 
d="M376 865l80 -137h-27l-131 131v6h78zM440 467l-164 -473h-35l-201 636l-65 16v18h231v-18l-77 -16l157 -514l139 396l-39 118l-69 16v18h229v-18l-75 -16l170 -513l150 510l-75 19v18h183v-18l-66 -19l-200 -633h-36z" />
    <glyph glyph-name="wgrave" unicode="&#x1e81;" horiz-adv-x="698" 
d="M502 119q4 -11 6 -19t4 -13q2 -6 3 -10h2q0 3 2 7q1 4 3 10.5t5 17.5l91 316l-76 20v15h165v-16l-59 -20l-137 -443h-43l-112 342q-3 8 -4.5 14.5t-3.5 12.5t-3 13h-2q-1 -6 -3 -13q-3 -12 -8 -27l-108 -342h-41l-135 446l-57 18v15h202v-15l-67 -20l94 -311
q2 -8 3.5 -14.5t3.5 -11.5l2 -10h2q0 5 2 10t3.5 11.5t4.5 14.5l113 356h33zM327 752l53 -208h-21l-101 201v7h69z" />
    <glyph glyph-name="Wacute" unicode="&#x1e82;" horiz-adv-x="874" 
d="M580 865v-6l-131 -131h-27l80 137h78zM440 467l-164 -473h-35l-201 636l-65 16v18h231v-18l-77 -16l157 -514l139 396l-39 118l-69 16v18h229v-18l-75 -16l170 -513l150 510l-75 19v18h183v-18l-66 -19l-200 -633h-36z" />
    <glyph glyph-name="wacute" unicode="&#x1e83;" horiz-adv-x="698" 
d="M487 752v-7l-101 -201h-21l53 208h69zM502 119q4 -11 6 -19t4 -13q2 -6 3 -10h2q0 3 2 7q1 4 3 10.5t5 17.5l91 316l-76 20v15h165v-16l-59 -20l-137 -443h-43l-112 342q-3 8 -4.5 14.5t-3.5 12.5t-3 13h-2q-1 -6 -3 -13q-3 -12 -8 -27l-108 -342h-41l-135 446l-57 18v15
h202v-15l-67 -20l94 -311q2 -8 3.5 -14.5t3.5 -11.5l2 -10h2q0 5 2 10t3.5 11.5t4.5 14.5l113 356h33z" />
    <glyph glyph-name="Wdieresis" unicode="&#x1e84;" horiz-adv-x="874" 
d="M341 758q-20 0 -33 13.5t-13 33.5t13 34t33 14t34 -14t14 -34t-14 -33.5t-34 -13.5zM534 758q-20 0 -33.5 13.5t-13.5 33.5t13.5 34t33.5 14t33.5 -14t13.5 -34t-13.5 -33.5t-33.5 -13.5zM440 467l-164 -473h-35l-201 636l-65 16v18h231v-18l-77 -16l157 -514l139 396
l-39 118l-69 16v18h229v-18l-75 -16l170 -513l150 510l-75 19v18h183v-18l-66 -19l-200 -633h-36z" />
    <glyph glyph-name="wdieresis" unicode="&#x1e85;" horiz-adv-x="698" 
d="M292 598q-20 0 -33 13.5t-13 33.5t13 34t33 14t34 -14t14 -34t-14 -33.5t-34 -13.5zM444 598q-20 0 -33.5 13.5t-13.5 33.5t13.5 34t33.5 14t33.5 -14t13.5 -34t-13.5 -33.5t-33.5 -13.5zM502 119q4 -11 6 -19t4 -13q2 -6 3 -10h2q0 3 2 7q1 4 3 10.5t5 17.5l91 316
l-76 20v15h165v-16l-59 -20l-137 -443h-43l-112 342q-3 8 -4.5 14.5t-3.5 12.5t-3 13h-2q-1 -6 -3 -13q-3 -12 -8 -27l-108 -342h-41l-135 446l-57 18v15h202v-15l-67 -20l94 -311q2 -8 3.5 -14.5t3.5 -11.5l2 -10h2q0 5 2 10t3.5 11.5t4.5 14.5l113 356h33z" />
    <glyph glyph-name="Ygrave" unicode="&#x1ef2;" horiz-adv-x="573" 
d="M330 314v-280l92 -14v-20h-270v20l92 14v268l-196 328l-65 16v18h237v-18l-74 -16l167 -291h1l172 287l-79 20v18h183v-18l-65 -19zM259 865l80 -137h-27l-131 131v6h78z" />
    <glyph glyph-name="ygrave" unicode="&#x1ef3;" horiz-adv-x="453" 
d="M296 448v15h166v-16l-57 -19l-219 -611q-11 -29 -27.5 -50t-48.5 -21q-23 0 -37.5 14t-14.5 35t13.5 34.5t34.5 13.5q17 0 28 -10t19 -25h2l61 163l-169 459l-56 18v15h206v-15l-66 -19l121 -350h2l118 349zM217 752l53 -208h-21l-101 201v7h69z" />
    <glyph glyph-name="uni2009" unicode="&#x2009;" horiz-adv-x="50" 
 />
    <glyph glyph-name="endash" unicode="&#x2013;" horiz-adv-x="470" 
d="M35 282h400v-34h-400v34z" />
    <glyph glyph-name="emdash" unicode="&#x2014;" horiz-adv-x="870" 
d="M35 282h800v-34h-800v34z" />
    <glyph glyph-name="quoteleft" unicode="&#x2018;" horiz-adv-x="216" 
d="M182 720q-47 -23 -63 -48t-16 -51q0 -29 18.5 -47t47.5 -24q2 -27 -12 -41t-36 -14q-31 0 -53 24.5t-22 63.5q0 53 35 93.5t95 58.5z" />
    <glyph glyph-name="quoteright" unicode="&#x2019;" horiz-adv-x="216" 
d="M35 507q47 23 63 48t16 51q0 29 -18.5 47t-47.5 24q-2 27 12 41t36 14q31 0 53 -24.5t22 -63.5q0 -53 -35 -93.5t-95 -58.5z" />
    <glyph glyph-name="quotesinglbase" unicode="&#x201a;" horiz-adv-x="216" 
d="M35 -88q47 23 63 48t16 51q0 29 -18.5 47t-47.5 24q-2 27 12 41t36 14q31 0 53 -24.5t22 -63.5q0 -53 -35 -93.5t-95 -58.5z" />
    <glyph glyph-name="quotedblleft" unicode="&#x201c;" horiz-adv-x="385" 
d="M182 720q-47 -23 -63 -48t-16 -51q0 -29 18.5 -47t47.5 -24q2 -27 -12 -41t-36 -14q-31 0 -53 24.5t-22 63.5q0 53 35 93.5t95 58.5zM351 720q-47 -23 -63 -48t-16 -51q0 -29 18.5 -47t47.5 -24q2 -27 -12 -41t-36 -14q-31 0 -53 24.5t-22 63.5q0 53 35 93.5t95 58.5z
" />
    <glyph glyph-name="quotedblright" unicode="&#x201d;" horiz-adv-x="386" 
d="M35 507q47 23 63 48t16 51q0 29 -18.5 47t-47.5 24q-2 27 12 41t36 14q31 0 53 -24.5t22 -63.5q0 -53 -35 -93.5t-95 -58.5zM204 507q47 23 63 48t16 51q0 29 -18.5 47t-47.5 24q-2 27 12 41t36 14q31 0 53 -24.5t22 -63.5q0 -53 -35 -93.5t-95 -58.5z" />
    <glyph glyph-name="quotedblbase" unicode="&#x201e;" horiz-adv-x="388" 
d="M35 -88q47 23 63 48t16 51q0 29 -18.5 47t-47.5 24q-2 27 12 41t36 14q31 0 53 -24.5t22 -63.5q0 -53 -35 -93.5t-95 -58.5zM206 -88q47 23 63 48t16 51q0 29 -18.5 47t-47.5 24q-2 27 12 41t36 14q31 0 53 -24.5t22 -63.5q0 -53 -35 -93.5t-95 -58.5z" />
    <glyph glyph-name="dagger" unicode="&#x2020;" horiz-adv-x="296" 
d="M30 634l104 -7l-8 105h44l-8 -105l104 7v-39l-105 6l9 -258h-44l8 258l-104 -6v39z" />
    <glyph glyph-name="daggerdbl" unicode="&#x2021;" horiz-adv-x="296" 
d="M30 634l102 -7l-5 105h42l-6 -105l103 7v-39l-104 6v-116l104 8v-40l-103 8l6 -113h-42l5 113l-102 -8v40l103 -8v116l-103 -6v39z" />
    <glyph glyph-name="bullet" unicode="&#x2022;" horiz-adv-x="294" 
d="M147 206q-26 0 -45 19t-19 45t19 45t45 19t45 -19t19 -45t-19 -45t-45 -19z" />
    <glyph glyph-name="ellipsis" unicode="&#x2026;" horiz-adv-x="722" 
d="M120 -13q-25 0 -42 17t-17 42t17 42t42 17t42 -17t17 -42t-17 -42t-42 -17zM364 -13q-25 0 -42 17t-17 42t17 42t42 17t42 -17t17 -42t-17 -42t-42 -17zM608 -13q-25 0 -42 17t-17 42t17 42t42 17t42 -17t17 -42t-17 -42t-42 -17z" />
    <glyph glyph-name="perthousand" unicode="&#x2030;" horiz-adv-x="1088" 
d="M568 630h36l-440 -680h-36zM183 582q-20 0 -35 -11t-25 -29.5t-15 -42t-5 -48.5q0 -33 6 -60.5t17 -48t28 -32t38 -11.5q19 0 34 10.5t24.5 28.5t14.5 42t5 50q0 75 -25 113.5t-62 38.5zM183 276q-30 0 -57 11.5t-47 32.5t-32 50t-12 64q0 37 13 68t34.5 54t49.5 36
t57 13q35 0 63 -13.5t47 -35.5t29 -50.5t10 -58.5q0 -36 -12.5 -67t-33.5 -54t-49 -36.5t-60 -13.5zM546 287q-20 0 -35 -11t-25 -29.5t-15 -42t-5 -48.5q0 -33 6 -60.5t17 -48t28 -32t38 -11.5q19 0 34 10.5t24.5 28.5t14.5 42t5 50q0 75 -25 113.5t-62 38.5zM546 -19
q-30 0 -57 11.5t-47 32.5t-32 50t-12 64q0 37 13 68t34.5 54t49.5 36t57 13q35 0 63 -13.5t47 -35.5t29 -50.5t10 -58.5q0 -36 -12.5 -67t-33.5 -54t-49 -36.5t-60 -13.5zM898 287q-20 0 -35 -11t-25 -29.5t-15 -42t-5 -48.5q0 -33 6 -60.5t17 -48t28 -32t38 -11.5
q19 0 34 10.5t24.5 28.5t14.5 42t5 50q0 75 -25 113.5t-62 38.5zM898 -19q-30 0 -57 11.5t-47 32.5t-32 50t-12 64q0 37 13 68t34.5 54t49.5 36t57 13q35 0 63 -13.5t47 -35.5t29 -50.5t10 -58.5q0 -36 -12.5 -67t-33.5 -54t-49 -36.5t-60 -13.5z" />
    <glyph glyph-name="uni2032" unicode="&#x2032;" horiz-adv-x="161" 
d="M67 745h79v-7l-93 -218h-23z" />
    <glyph glyph-name="uni2033" unicode="&#x2033;" horiz-adv-x="320" 
d="M67 745h79v-7l-93 -218h-23zM226 745h79v-7l-93 -218h-23z" />
    <glyph glyph-name="guilsinglleft" unicode="&#x2039;" horiz-adv-x="263" 
d="M208 369l-115 -170l114 -155l-14 -15l-163 168v9l163 177z" />
    <glyph glyph-name="guilsinglright" unicode="&#x203a;" horiz-adv-x="264" 
d="M55 43l115 170l-114 155l14 15l164 -168v-9l-164 -177z" />
    <glyph glyph-name="fraction" unicode="&#x2044;" horiz-adv-x="240" 
d="M-161 -62l539 783l22 -16l-539 -785z" />
    <glyph glyph-name="Euro" unicode="&#x20ac;" horiz-adv-x="576" 
d="M35 365h81q15 52 44.5 94.5t68.5 71.5t85 45t95 16q26 0 51.5 -7.5t45.5 -20t32.5 -29t12.5 -35.5q0 -14 -9.5 -26t-36.5 -22q-27 55 -60.5 83.5t-80.5 28.5q-32 0 -61 -14t-52 -40t-40 -63t-24 -82h255l-4 -29h-254q-1 -10 -1.5 -20t-0.5 -20q0 -26 3 -50h241l-4 -29
h-233q8 -42 25 -77t42.5 -60t58.5 -39t74 -14q47 0 79 17.5t62 46.5l12 -12q-17 -21 -35.5 -39.5t-41 -33t-49.5 -22.5t-61 -8q-60 0 -105 20t-75.5 53.5t-47.5 77t-23 90.5h-89l4 29h83v19q0 36 6 71h-77z" />
    <glyph glyph-name="trademark" unicode="&#x2122;" horiz-adv-x="659" 
d="M290 408l34 7v229l-34 8v12h108l66 -178h3l68 178h102v-12l-34 -8v-229l36 -7v-13h-127v14l38 7v224h-3l-79 -201l-10 -33h-18l-10 29l-82 205h-3v-224l46 -9v-12h-101v13zM260 664l4 -87h-11l-22 70h-62v-231l40 -8v-13h-134v13l40 8v231h-62l-22 -70h-11l4 87h236z" />
    <glyph glyph-name="onethird" unicode="&#x2153;" horiz-adv-x="731" 
d="M149 326l64 -9v-18h-190v17l66 9v299l-76 -3v17l132 35h4v-347zM70 -62l539 783l22 -16l-539 -785zM560 11q41 0 66 20t25 59q0 40 -36.5 62.5t-105.5 22.5v19q34 6 57 16t37 22t20 25t6 25q0 23 -15 38t-42 15q-26 0 -49 -12.5t-48 -40.5l-17 11q10 16 22.5 31.5
t28.5 26.5t36 18t46 7q28 0 47.5 -7t30.5 -18t16 -24.5t5 -25.5q0 -20 -8 -34.5t-21 -25.5t-30 -19.5t-35 -16.5v-4q51 -3 83 -27t32 -65q0 -28 -14 -49.5t-36 -36.5t-49 -23t-52 -8q-56 0 -84 16t-28 37q0 16 11 24t28 10l31 -55q3 -4 15 -8.5t27 -4.5z" />
    <glyph glyph-name="twothirds" unicode="&#x2154;" horiz-adv-x="786" 
d="M74 346h211v-47h-264v22l78 74q14 13 32 30t34.5 37t27.5 43t11 47q0 36 -22.5 55.5t-48.5 19.5q-32 0 -53 -12.5t-44 -43.5l-12 8q7 19 19.5 36t29.5 30.5t38 21.5t45 8q22 0 41.5 -8t34 -22t22.5 -32t8 -38q0 -25 -9 -46.5t-25.5 -42.5t-41 -43.5t-55.5 -48.5zM125 -62
l539 783l22 -16l-539 -785zM615 11q41 0 66 20t25 59q0 40 -36.5 62.5t-105.5 22.5v19q34 6 57 16t37 22t20 25t6 25q0 23 -15 38t-42 15q-26 0 -49 -12.5t-48 -40.5l-17 11q10 16 22.5 31.5t28.5 26.5t36 18t46 7q28 0 47.5 -7t30.5 -18t16 -24.5t5 -25.5q0 -20 -8 -34.5
t-21 -25.5t-30 -19.5t-35 -16.5v-4q51 -3 83 -27t32 -65q0 -28 -14 -49.5t-36 -36.5t-49 -23t-52 -8q-56 0 -84 16t-28 37q0 16 11 24t28 10l31 -55q3 -4 15 -8.5t27 -4.5z" />
    <glyph glyph-name="oneeighth" unicode="&#x215b;" horiz-adv-x="726" 
d="M149 326l64 -9v-18h-190v17l66 9v299l-76 -3v17l132 35h4v-347zM70 -62l539 783l22 -16l-539 -785zM437 86q0 38 27 59.5t63 34.5l-11 6q-32 17 -46 38t-14 50q0 19 9.5 37t26 32t39 22.5t48.5 8.5q23 0 44 -6t36.5 -17t25 -25.5t9.5 -32.5q0 -19 -7 -33.5t-19 -25.5
t-27 -19.5t-30 -14.5l22 -11q68 -34 68 -90q0 -26 -12 -46t-30.5 -34t-41 -21t-44.5 -7q-29 0 -53.5 6.5t-43 19t-29 30t-10.5 39.5zM540 173q-29 -23 -37.5 -41.5t-8.5 -40.5q0 -12 5 -26t15 -26.5t25.5 -20.5t37.5 -8q36 0 54 17.5t18 43.5t-14 42.5t-40 30.5zM508 295
q0 -44 52 -70l35 -18q24 19 33 39t9 40q0 35 -20 52.5t-45 17.5q-26 0 -45 -15.5t-19 -45.5z" />
    <glyph glyph-name="threeeighths" unicode="&#x215c;" horiz-adv-x="725" 
d="M69 -62l539 783l22 -16l-539 -785zM126 309q41 0 66 20t25 59q0 40 -36.5 62.5t-105.5 22.5v19q34 6 57 16t37 22t20 25t6 25q0 23 -15 38t-42 15q-26 0 -49 -12.5t-48 -40.5l-17 11q10 16 22.5 31.5t28.5 26.5t36 18t46 7q28 0 47.5 -7t30.5 -18t16 -24.5t5 -25.5
q0 -20 -8 -34.5t-21 -25.5t-30 -19.5t-35 -16.5v-4q51 -3 83 -27t32 -65q0 -28 -14 -49.5t-36 -36.5t-49 -23t-52 -8q-56 0 -84 16t-28 37q0 16 11 24t28 10l31 -55q3 -4 15 -8.5t27 -4.5zM437 86q0 38 27 59.5t63 34.5l-11 6q-32 17 -46 38t-14 50q0 19 9.5 37t26 32
t39 22.5t48.5 8.5q23 0 44 -6t36.5 -17t25 -25.5t9.5 -32.5q0 -19 -7 -33.5t-19 -25.5t-27 -19.5t-30 -14.5l22 -11q68 -34 68 -90q0 -26 -12 -46t-30.5 -34t-41 -21t-44.5 -7q-29 0 -53.5 6.5t-43 19t-29 30t-10.5 39.5zM540 173q-29 -23 -37.5 -41.5t-8.5 -40.5
q0 -12 5 -26t15 -26.5t25.5 -20.5t37.5 -8q36 0 54 17.5t18 43.5t-14 42.5t-40 30.5zM508 295q0 -44 52 -70l35 -18q24 19 33 39t9 40q0 35 -20 52.5t-45 17.5q-26 0 -45 -15.5t-19 -45.5z" />
    <glyph glyph-name="fiveeighths" unicode="&#x215d;" horiz-adv-x="730" 
d="M69 610l-3 -95q15 8 37 13t44 5q61 0 98 -29.5t37 -77.5q0 -34 -15 -59.5t-38.5 -42.5t-52 -25.5t-54.5 -8.5q-48 0 -78.5 18t-30.5 43q0 13 9.5 22t29.5 9l33 -61q6 -5 17 -8.5t28 -3.5q40 0 67 25t27 63q0 35 -24.5 61t-73.5 26q-17 0 -35 -5t-41 -19h-9l9 204h211v-54
h-192zM74 -62l539 783l22 -16l-539 -785zM441 86q0 38 27 59.5t63 34.5l-11 6q-32 17 -46 38t-14 50q0 19 9.5 37t26 32t39 22.5t48.5 8.5q23 0 44 -6t36.5 -17t25 -25.5t9.5 -32.5q0 -19 -7 -33.5t-19 -25.5t-27 -19.5t-30 -14.5l22 -11q68 -34 68 -90q0 -26 -12 -46
t-30.5 -34t-41 -21t-44.5 -7q-29 0 -53.5 6.5t-43 19t-29 30t-10.5 39.5zM544 173q-29 -23 -37.5 -41.5t-8.5 -40.5q0 -12 5 -26t15 -26.5t25.5 -20.5t37.5 -8q36 0 54 17.5t18 43.5t-14 42.5t-40 30.5zM512 295q0 -44 52 -70l35 -18q24 19 33 39t9 40q0 35 -20 52.5
t-45 17.5q-26 0 -45 -15.5t-19 -45.5z" />
    <glyph glyph-name="seveneighths" unicode="&#x215e;" horiz-adv-x="671" 
d="M72 299l174 311h-206v54h246v-10l-166 -355h-48zM15 -62l539 783l22 -16l-539 -785zM382 86q0 38 27 59.5t63 34.5l-11 6q-32 17 -46 38t-14 50q0 19 9.5 37t26 32t39 22.5t48.5 8.5q23 0 44 -6t36.5 -17t25 -25.5t9.5 -32.5q0 -19 -7 -33.5t-19 -25.5t-27 -19.5
t-30 -14.5l22 -11q68 -34 68 -90q0 -26 -12 -46t-30.5 -34t-41 -21t-44.5 -7q-29 0 -53.5 6.5t-43 19t-29 30t-10.5 39.5zM485 173q-29 -23 -37.5 -41.5t-8.5 -40.5q0 -12 5 -26t15 -26.5t25.5 -20.5t37.5 -8q36 0 54 17.5t18 43.5t-14 42.5t-40 30.5zM453 295q0 -44 52 -70
l35 -18q24 19 33 39t9 40q0 35 -20 52.5t-45 17.5q-26 0 -45 -15.5t-19 -45.5z" />
    <glyph glyph-name="minus" unicode="&#x2212;" 
d="M53 216v35h474v-35h-474z" />
    <glyph glyph-name="approxequal" unicode="&#x2248;" 
d="M57 281q22 40 50.5 63t72.5 23q23 0 46 -5t52 -14l49 -15q33 -10 53 -13.5t36 -3.5q31 0 51.5 18t34.5 44l29 -15q-21 -37 -49 -60.5t-73 -23.5q-24 0 -48 5t-50 13l-50 15q-24 8 -46.5 13t-41.5 5q-30 0 -50.5 -19t-35.5 -44zM57 132q22 40 50.5 63t72.5 23q23 0 46 -5
t52 -14l49 -15q33 -10 53 -13.5t36 -3.5q31 0 51.5 18t34.5 44l29 -15q-21 -37 -49 -60.5t-73 -23.5q-24 0 -48 5t-50 13l-50 15q-24 8 -46.5 13t-41.5 5q-30 0 -50.5 -19t-35.5 -44z" />
    <glyph glyph-name="notequal" unicode="&#x2260;" 
d="M138 21l78 123h-163v35h186l67 106h-253v35h275l78 122h36l-78 -122h163v-35h-185l-68 -106h253v-35h-275l-78 -123h-36z" />
    <glyph glyph-name="lessequal" unicode="&#x2264;" horiz-adv-x="578" 
d="M54 0v35h472v-35h-472zM112 312l414 -155v-35l-473 175v32l473 175v-37z" />
    <glyph glyph-name="greaterequal" unicode="&#x2265;" horiz-adv-x="578" 
d="M54 0v35h472v-35h-472zM468 314l-414 155v35l473 -175v-32l-473 -175v37z" />
    <glyph glyph-name="uni24C5" unicode="&#x24c5;" horiz-adv-x="769" 
d="M374 305q33 1 55.5 9.5t36.5 21.5t20 30.5t6 36.5q0 45 -34 70.5t-104 25.5v-336l77 -9v-17h-201v17l61 9v330l-61 8v16h146q50 0 85.5 -8.5t58 -24t32.5 -35.5t10 -42q0 -29 -14 -51.5t-39 -38t-59.5 -23t-75.5 -6.5v17zM40 324q0 72 27 135t73.5 109.5t109 73.5
t134.5 27q71 0 134 -27t110 -73.5t74 -109.5t27 -135t-27 -134.5t-74 -109t-110 -73t-134 -26.5t-134 26.5t-109.5 73t-73.5 109t-27 134.5zM65 324q0 -67 25 -126t68.5 -102.5t101.5 -69t124 -25.5t124 25.5t101.5 69t68.5 102.5t25 126t-25 126.5t-68.5 103t-101.5 69
t-124 25.5t-124 -25.5t-101.5 -69t-68.5 -103t-25 -126.5z" />
    <glyph glyph-name="space_uni0326" horiz-adv-x="390" 
d="M117 -238q53 12 72.5 31t19.5 41t-17 33.5t-44 13.5v4q3 22 16.5 36.5t39.5 14.5q28 0 48.5 -20t20.5 -51q0 -45 -35.5 -77t-117.5 -43z" />
    <glyph glyph-name="caron.alt" horiz-adv-x="390" 
d="M156 532l16 201h72v-7l-72 -194h-16z" />
    <glyph glyph-name="space_uni0326.alt" horiz-adv-x="390" 
d="M285 761q-53 -12 -72.5 -31t-19.5 -41t17 -33.5t44 -13.5v-4q-3 -22 -16.5 -36.5t-39.5 -14.5q-28 0 -48.5 19.5t-20.5 54.5q0 42 40 74t113 43z" />
    <glyph glyph-name="grave.uc" horiz-adv-x="390" 
d="M164 865l80 -137h-27l-131 131v6h78z" />
    <glyph glyph-name="dieresis.uc" horiz-adv-x="390" 
d="M98 758q-20 0 -33 13.5t-13 33.5t13 34t33 14t34 -14t14 -34t-14 -33.5t-34 -13.5zM291 758q-20 0 -33.5 13.5t-13.5 33.5t13.5 34t33.5 14t33.5 -14t13.5 -34t-13.5 -33.5t-33.5 -13.5z" />
    <glyph glyph-name="macron.uc" horiz-adv-x="390" 
d="M57 808h276v-48h-276v48z" />
    <glyph glyph-name="acute.uc" horiz-adv-x="390" 
d="M300 865v-6l-131 -131h-27l80 137h78z" />
    <glyph glyph-name="circumflex.uc" horiz-adv-x="390" 
d="M55 728l114 125h54l104 -125h-32l-102 79l-109 -79h-29z" />
    <glyph glyph-name="caron.uc" horiz-adv-x="390" 
d="M331 853l-114 -125h-54l-104 125h32l101 -79l110 79h29z" />
    <glyph glyph-name="breve.uc" horiz-adv-x="390" 
d="M189 730q-32 0 -53 11.5t-33.5 29.5t-18 41t-6.5 46h17q9 -32 33 -54.5t65 -22.5q47 0 69.5 22.5t31.5 54.5h17q-1 -22 -7 -44.5t-19.5 -41t-36.5 -30.5t-59 -12z" />
    <glyph glyph-name="dotaccent.uc" horiz-adv-x="390" 
d="M195 752q-22 0 -37.5 15.5t-15.5 37.5t15.5 37.5t37.5 15.5t37.5 -15.5t15.5 -37.5t-15.5 -37.5t-37.5 -15.5z" />
    <glyph glyph-name="ring.uc" horiz-adv-x="390" 
d="M96 832q0 43 28.5 70t70.5 27q43 0 71.5 -26.5t28.5 -70.5q0 -43 -28.5 -70.5t-70.5 -27.5q-43 0 -71.5 27t-28.5 71zM127 832q0 -31 20 -51.5t48 -20.5q29 0 49.5 20.5t20.5 51.5t-20.5 51.5t-48.5 20.5q-29 0 -49 -20.5t-20 -51.5z" />
    <glyph glyph-name="tilde.uc" horiz-adv-x="390" 
d="M180 758q-26 9 -43 14t-29.5 3t-22 -12t-21.5 -31l-18 9l5 11q16 33 31.5 51t33 24.5t37.5 3.5t46 -12l33 -11q19 -6 34 -9t28 0t24 13.5t22 30.5l18 -8l-5 -10q-17 -37 -34 -56t-34.5 -26t-36.5 -4.5t-39 9.5z" />
    <glyph glyph-name="hungarumlaut.uc" horiz-adv-x="390" 
d="M216 865v-7l-105 -130h-27l66 137h66zM355 865v-7l-105 -130h-28l66 137h67z" />
    <glyph glyph-name="cedilla.uc" horiz-adv-x="237" 
d="M43 -241q46 17 67 37t21 46t-15.5 41t-39.5 22l59 99h28l-34 -58q38 -10 54.5 -30.5t16.5 -47.5q0 -30 -15.5 -51.5t-38.5 -36t-49.5 -23.5t-48.5 -13z" />
    <glyph glyph-name="idotaccent" horiz-adv-x="239" 
d="M15 17l70 14v359l-67 30v7l141 50v-446l70 -14v-17h-214v17zM118 592q-22 0 -37.5 15.5t-15.5 37.5t15.5 37.5t37.5 15.5t37.5 -15.5t15.5 -37.5t-15.5 -37.5t-37.5 -15.5z" />
    <glyph glyph-name="dollar.lin" horiz-adv-x="498" 
d="M25 211h16l56 -155q22 -16 53 -29.5t79 -13.5v290l-29 8q-47 12 -78 30.5t-49.5 42t-26.5 50t-8 54.5q0 39 16 73t42.5 59.5t61 41.5t71.5 21v104h29v-102q52 -1 91 -12.5t72 -30.5l5 -163h-15l-57 146q-38 30 -96 33v-271l44 -12q161 -44 161 -172q0 -50 -19.5 -88
t-50 -65.5t-66.5 -43.5t-69 -20v-105h-29v103q-71 1 -116.5 17t-80.5 33zM258 15q25 4 47 16t39 31t27 43.5t10 53.5q0 54 -32.5 88.5t-90.5 48.5v-281zM115 525q0 -45 22.5 -78.5t79.5 -48.5l12 -3v261q-24 -3 -44.5 -13t-36 -27t-24.5 -40t-9 -51z" />
    <glyph glyph-name="Euro.lin" horiz-adv-x="601" 
d="M37 411h70q13 64 42.5 114.5t70 86t89 54.5t100.5 19q31 0 58 -7.5t47 -20.5t32 -30t12 -36q0 -15 -11 -28t-38 -22q-25 53 -60.5 81.5t-78.5 28.5q-36 0 -66.5 -17.5t-53.5 -49t-38 -75.5t-21 -98h253l-3 -29h-253q-1 -11 -1 -21v-21q0 -33 3 -63h237l-4 -29h-229
q17 -103 72 -157t134 -54q46 0 79.5 16.5t62.5 46.5l12 -11q-35 -49 -83 -78.5t-109 -29.5q-51 0 -95 18.5t-78 53t-56.5 84t-30.5 111.5h-86l4 29h79q-1 9 -1 18.5v19.5q0 17 1 33.5t3 33.5h-68z" />
    <glyph glyph-name="sterling.lin" horiz-adv-x="613" 
d="M135 304h116l39 169q16 67 44.5 114.5t61 77.5t65 44t56.5 14q15 0 31.5 -5t29.5 -14t21.5 -22t8.5 -29q0 -19 -14.5 -31.5t-41.5 -21.5q-6 31 -15 49.5t-18.5 28t-18.5 12.5t-16 3q-14 0 -26 -6t-24 -22.5t-23 -45.5t-21 -74l-56 -241h198v-25h-204l-5 -23
q-19 -82 -60.5 -138.5t-88.5 -89.5q38 -14 72 -29.5t58 -28.5l51 -27q34 -18 56.5 -30.5t38.5 -20t27 -10.5t22 -3q15 0 25 11.5t14 30t3 42.5t-8 49q27 1 48.5 -6t21.5 -36q0 -13 -9.5 -34t-28.5 -40.5t-47 -34t-65 -14.5q-34 0 -67.5 10.5t-66.5 27.5t-65 37t-63 40
l-61 39q-44 -21 -74 -21q-15 0 -24.5 4t-14 9.5t-6 11t-1.5 9.5q0 16 13 27t39 11q19 0 40 -4t44 -11q26 23 47 63.5t36 107.5l16 71h-110v25z" />
    <glyph glyph-name="yen.lin" horiz-adv-x="515" 
d="M61 300h154l-175 330l-55 17v17h227v-17l-74 -17l145 -297h5l150 293l-79 21v17h171v-17l-55 -20l-176 -327h155v-29h-155v-71h155v-28h-155v-134l79 -20v-18h-244v18l82 20v134h-155v28h155v71h-155v29z" />
    <glyph glyph-name="florin.lin" horiz-adv-x="433" 
d="M23 308h90l11 51q14 66 40.5 124t61.5 101t77 68t87 25q32 0 48 -17.5t16 -32.5q0 -14 -8.5 -30t-21.5 -28q-23 29 -44.5 48t-43.5 19q-16 0 -31.5 -7.5t-31 -31.5t-31 -70t-31.5 -123l-20 -96h135l-7 -30h-134l-55 -270q-11 -51 -29.5 -100t-45.5 -88t-61 -62.5
t-74 -23.5q-10 0 -22.5 3.5t-23.5 10t-18.5 17t-7.5 25.5q0 18 11.5 31.5t18.5 19.5q20 -33 40.5 -53t40.5 -20q27 0 44.5 42.5t34.5 125.5l69 342h-90z" />
    <glyph glyph-name="zero.lin" horiz-adv-x="609" 
d="M303 685q69 0 119.5 -32.5t83 -82.5t48 -110.5t15.5 -116.5q0 -84 -20.5 -151t-56 -114.5t-84 -72.5t-105.5 -25t-105 26t-83 72.5t-55 111.5t-20 143q0 75 20 139.5t55 112t83.5 74t104.5 26.5zM298 662q-44 0 -75.5 -27t-51 -71.5t-28.5 -102t-9 -118.5
q0 -66 10.5 -127t32.5 -108.5t56 -75.5t81 -28q43 0 74 27t50 73t28 105t9 124q0 74 -13 135t-36 104t-55.5 66.5t-72.5 23.5z" />
    <glyph glyph-name="one.lin" horiz-adv-x="345" 
d="M228 33l102 -16v-17h-288v19l105 14v563l-125 -33l-9 22l211 99h4v-651z" />
    <glyph glyph-name="two.lin" horiz-adv-x="467" 
d="M98 75h359v-75h-435v24l138 159q33 38 63.5 72.5t54 69.5t38 72t14.5 80q0 31 -11.5 56t-30 42t-42 26t-48.5 9q-49 0 -83.5 -27t-69.5 -80l-16 9q10 30 28 60t42.5 53.5t57 38.5t71.5 15t73 -12.5t60 -35t41 -54t15 -69.5q0 -42 -20.5 -83.5t-54 -84t-77.5 -88
t-91 -96.5z" />
    <glyph glyph-name="three.lin" horiz-adv-x="450" 
d="M194 14q30 0 57 8.5t47.5 25.5t32 42.5t11.5 59.5q0 38 -18 68t-49 51.5t-72.5 33.5t-87.5 14v28q49 22 84.5 41.5t58.5 40.5t34 44t11 52q0 39 -26 67t-75 28q-44 0 -76 -23t-66 -66l-16 11q14 26 32 51.5t40.5 45t51 31.5t63.5 12t63 -10t47.5 -28t30 -42.5t10.5 -52.5
q0 -53 -40.5 -92.5t-123.5 -82.5v-3q48 -5 85.5 -20.5t63.5 -38.5t40 -53t14 -63q0 -49 -23 -87.5t-59.5 -65.5t-83 -41t-92.5 -14q-32 0 -58 7t-44.5 19t-29 27.5t-10.5 32.5q0 18 14.5 31t40.5 18q11 -27 20 -46t24 -42q7 -5 25 -12t49 -7z" />
    <glyph glyph-name="four.lin" horiz-adv-x="505" 
d="M364 248h131v-61h-131v-154l90 -16v-17h-261v19l89 14v154h-277v6l353 487h6v-432zM282 248v291l-210 -291h210z" />
    <glyph glyph-name="five.lin" horiz-adv-x="473" 
d="M106 583l-14 -182q27 11 57.5 18t64.5 7q48 0 88.5 -15t69.5 -42t45 -63t16 -78q0 -56 -23.5 -100.5t-61.5 -76.5t-85 -49t-95 -17q-29 0 -55 7t-45.5 19t-31 28.5t-11.5 36.5q0 15 12 29.5t42 18.5q10 -28 18.5 -48t21.5 -46q14 -8 30 -13t40 -5q39 0 70 12.5t52.5 35.5
t33 54.5t11.5 70.5q0 37 -13.5 68.5t-36.5 54.5t-54.5 36t-68.5 13q-36 0 -63.5 -7.5t-56.5 -21.5l-3 2l27 334h316v-81h-297z" />
    <glyph glyph-name="six.lin" horiz-adv-x="527" 
d="M450 666q-63 -26 -116 -61t-94.5 -79.5t-69 -98.5t-37.5 -118q41 51 85.5 71.5t84.5 20.5q41 0 75 -14.5t58 -40.5t37.5 -61.5t13.5 -77.5q0 -35 -15 -75t-43.5 -74t-71 -56t-97.5 -22q-42 0 -82 15t-70.5 46.5t-49 80t-18.5 114.5q0 84 31.5 157t86 131t128 99t158.5 62
zM262 356q-35 0 -71 -20t-62 -54q-2 -12 -2 -24v-24q0 -58 12.5 -101t33 -71t48 -42t57.5 -14q53 0 88.5 42.5t35.5 120.5q0 47 -11.5 82t-30.5 58.5t-44.5 35t-53.5 11.5z" />
    <glyph glyph-name="seven.lin" horiz-adv-x="447" 
d="M57 0l325 583h-359v81h423v-2l-338 -662h-51z" />
    <glyph glyph-name="eight.lin" horiz-adv-x="484" 
d="M30 140q0 32 9.5 57t29 46.5t49 43t69.5 45.5l-35 26q-48 35 -71 72.5t-23 84.5q0 36 16.5 67t44.5 54t65 36t78 13q40 0 72.5 -11t56 -30t36 -44.5t12.5 -54.5t-10.5 -52t-29.5 -45t-46 -44t-61 -48l50 -36q51 -36 81.5 -75t30.5 -87q0 -42 -18.5 -75t-48.5 -56
t-67.5 -35t-76.5 -12q-49 0 -88.5 12.5t-67 34t-42.5 51t-15 62.5zM206 319q-50 -38 -72.5 -77.5t-22.5 -84.5q0 -36 12 -64.5t32 -48.5t45 -30.5t52 -10.5q34 0 58 11t39 28.5t22 39t7 41.5q0 46 -34 83.5t-96 82.5zM132 548q0 -47 24.5 -80t71.5 -66l44 -32
q45 42 67.5 78.5t22.5 85.5q0 30 -10.5 53.5t-27 40t-38.5 25.5t-44 9q-19 0 -38.5 -7.5t-35.5 -21.5t-26 -35.5t-10 -49.5z" />
    <glyph glyph-name="nine.lin" horiz-adv-x="522" 
d="M75 -2q61 25 113.5 60.5t93.5 78.5t69 92.5t39 103.5q-40 -49 -80.5 -64t-79.5 -15q-41 0 -76 16.5t-60.5 45t-39.5 67t-14 82.5q0 34 14.5 72.5t42.5 71.5t70 54.5t97 21.5q42 0 81.5 -18.5t70 -53t48.5 -83t18 -107.5q0 -164 -103 -277t-298 -167zM271 299
q35 0 66.5 15t57.5 48q3 21 3 43q0 63 -13 111t-34 79.5t-49 47.5t-58 16q-53 0 -87 -43.5t-34 -129.5q0 -47 12.5 -82t33.5 -58t47.5 -35t54.5 -12z" />
    <glyph glyph-name="percent.lin" horiz-adv-x="703" 
d="M582 721h36l-484 -771h-36zM191 658q-20 0 -35 -11t-25 -29.5t-15 -42t-5 -48.5q0 -33 6 -60.5t17 -48t28 -32t38 -11.5q19 0 34 10.5t24.5 28.5t14.5 42t5 50q0 75 -25 113.5t-62 38.5zM191 352q-30 0 -57 11.5t-47 32.5t-32 50t-12 64q0 37 13 68t34.5 54t49.5 36
t57 13q35 0 63 -13.5t47 -35.5t29 -50.5t10 -58.5q0 -36 -12.5 -67t-33.5 -54t-49 -36.5t-60 -13.5zM505 286q-20 0 -35 -11t-25 -29.5t-15 -42t-5 -48.5q0 -33 6 -60.5t17 -48t28 -32t38 -11.5q19 0 34 10.5t24.5 28.5t14.5 42t5 50q0 75 -25 113.5t-62 38.5zM505 -20
q-30 0 -57 11.5t-47 32.5t-32 50t-12 64q0 37 13 68t34.5 54t49.5 36t57 13q35 0 63 -13.5t47 -35.5t29 -50.5t10 -58.5q0 -36 -12.5 -67t-33.5 -54t-49 -36.5t-60 -13.5z" />
    <glyph glyph-name="perthousand.lin" horiz-adv-x="1059" 
d="M582 721h36l-484 -771h-36zM191 658q-20 0 -35 -11t-25 -29.5t-15 -42t-5 -48.5q0 -33 6 -60.5t17 -48t28 -32t38 -11.5q19 0 34 10.5t24.5 28.5t14.5 42t5 50q0 75 -25 113.5t-62 38.5zM191 352q-30 0 -57 11.5t-47 32.5t-32 50t-12 64q0 37 13 68t34.5 54t49.5 36
t57 13q35 0 63 -13.5t47 -35.5t29 -50.5t10 -58.5q0 -36 -12.5 -67t-33.5 -54t-49 -36.5t-60 -13.5zM505 286q-20 0 -35 -11t-25 -29.5t-15 -42t-5 -48.5q0 -33 6 -60.5t17 -48t28 -32t38 -11.5q19 0 34 10.5t24.5 28.5t14.5 42t5 50q0 75 -25 113.5t-62 38.5zM505 -20
q-30 0 -57 11.5t-47 32.5t-32 50t-12 64q0 37 13 68t34.5 54t49.5 36t57 13q35 0 63 -13.5t47 -35.5t29 -50.5t10 -58.5q0 -36 -12.5 -67t-33.5 -54t-49 -36.5t-60 -13.5zM861 286q-20 0 -35 -11t-25 -29.5t-15 -42t-5 -48.5q0 -33 6 -60.5t17 -48t28 -32t38 -11.5
q19 0 34 10.5t24.5 28.5t14.5 42t5 50q0 75 -25 113.5t-62 38.5zM861 -20q-30 0 -57 11.5t-47 32.5t-32 50t-12 64q0 37 13 68t34.5 54t49.5 36t57 13q35 0 63 -13.5t47 -35.5t29 -50.5t10 -58.5q0 -36 -12.5 -67t-33.5 -54t-49 -36.5t-60 -13.5z" />
    <glyph glyph-name="plus.lin" 
d="M310 286v-216h-40v216h-217v35h217v216h40v-216h217v-35h-217z" />
    <glyph glyph-name="minus.lin" 
d="M53 286v35h474v-35h-474z" />
    <glyph glyph-name="multiply.lin" 
d="M288 281l-188 -193l-27 26l189 191l-188 192l27 25l189 -190l191 197l26 -26l-191 -196l190 -193l-28 -25z" />
    <glyph glyph-name="divide.lin" 
d="M53 286v35h474v-35h-474zM290 413q-20 0 -33.5 13.5t-13.5 33.5t13.5 33.5t33.5 13.5t33.5 -13.5t13.5 -33.5t-13.5 -33.5t-33.5 -13.5zM290 100q-20 0 -33.5 13.5t-13.5 33.5t13.5 33.5t33.5 13.5t33.5 -13.5t13.5 -33.5t-13.5 -33.5t-33.5 -13.5z" />
    <glyph glyph-name="equal.lin" 
d="M53 355v35h474v-35h-474zM53 214v35h474v-35h-474z" />
    <glyph glyph-name="less.lin" 
d="M95 301l429 -198v-38l-472 219v35l472 218v-37z" />
    <glyph glyph-name="greater.lin" 
d="M485 300l-429 198v39l472 -219v-35l-472 -218v36z" />
    <glyph glyph-name="plusminus.lin" horiz-adv-x="579" 
d="M310 399v-216h-40v216h-217v35h217v216h40v-216h217v-35h-217zM53 35h474v-35h-474v35z" />
    <glyph glyph-name="notequal.lin" 
d="M138 91l78 123h-163v35h186l67 106h-253v35h275l78 122h36l-78 -122h163v-35h-185l-68 -106h253v-35h-275l-78 -123h-36z" />
    <glyph glyph-name="approxequal.lin" 
d="M57 351q22 40 50.5 63t72.5 23q23 0 46 -5t52 -14l49 -15q33 -10 53 -13.5t36 -3.5q31 0 51.5 18t34.5 44l29 -15q-21 -37 -49 -60.5t-73 -23.5q-24 0 -48 5t-50 13l-50 15q-24 8 -46.5 13t-41.5 5q-30 0 -50.5 -19t-35.5 -44zM57 202q22 40 50.5 63t72.5 23q23 0 46 -5
t52 -14l49 -15q33 -10 53 -13.5t36 -3.5q31 0 51.5 18t34.5 44l29 -15q-21 -37 -49 -60.5t-73 -23.5q-24 0 -48 5t-50 13l-50 15q-24 8 -46.5 13t-41.5 5q-30 0 -50.5 -19t-35.5 -44z" />
    <glyph glyph-name="lessequal.lin" horiz-adv-x="578" 
d="M54 0v35h472v-35h-472zM112 382l414 -155v-35l-473 175v32l473 175v-37z" />
    <glyph glyph-name="greaterequal.lin" horiz-adv-x="578" 
d="M54 0v35h472v-35h-472zM468 384l-414 155v35l473 -175v-32l-473 -175v37z" />
    <glyph glyph-name="numbersign.lin" 
d="M68 509h130l28 155h32l-28 -155h158l28 155h32l-28 -155h125v-32h-130l-35 -197h124v-32h-130l-31 -178h-32l31 178h-158l-31 -178h-32l31 178h-124v32h130l35 197h-125v32zM190 280h158l35 197h-158z" />
    <glyph glyph-name="ordfeminine.lin" horiz-adv-x="408" 
d="M132 294q-15 0 -31.5 5.5t-30 16t-22.5 27t-9 38.5q0 48 34 72.5t97 40.5l84 21v38q0 54 -22.5 81t-57.5 27q-20 0 -32.5 -6.5t-17.5 -11.5l-10 -78q-4 -2 -10 -4.5t-17 -2.5q-39 0 -39 36q0 12 12 28t32.5 30.5t49 24t61.5 9.5q62 0 90 -28t28 -81v-226q0 -12 5.5 -16.5
t22.5 -4.5h41v-15q-15 -6 -29 -10q-12 -4 -25.5 -6.5t-24.5 -2.5q-33 0 -43.5 18.5t-11.5 44.5h-2q-30 -29 -57 -47t-65 -18zM170 340q32 0 52.5 14.5t31.5 26.5v117l-80 -25q-32 -11 -50 -27.5t-18 -42.5q0 -30 19 -46.5t45 -16.5z" />
    <glyph glyph-name="ordmasculine.lin" horiz-adv-x="440" 
d="M211 666q-26 0 -46.5 -12t-34.5 -33.5t-21.5 -50.5t-7.5 -63q0 -41 10 -75.5t27 -60t41 -40t51 -14.5q26 0 46.5 12t34.5 33.5t21.5 51t7.5 63.5q0 40 -10 75t-27 60t-41 39.5t-51 14.5zM218 295q-39 0 -73 13.5t-59.5 38.5t-40.5 61t-15 81q0 47 17 84t44 62.5t61.5 39
t69.5 13.5q41 0 75.5 -14t59.5 -39.5t39 -61t14 -78.5q0 -48 -17 -85t-44 -62.5t-61.5 -39t-69.5 -13.5z" />
    <glyph glyph-name="zero.num" horiz-adv-x="376" 
d="M186 671q42 0 72.5 -17.5t50.5 -44.5t29.5 -60t9.5 -63q0 -45 -12.5 -81.5t-34.5 -62t-51.5 -39t-63.5 -13.5t-63 14t-50 39.5t-33 60.5t-12 77q0 40 12 75t33 60.5t50 40t63 14.5zM181 652q-24 0 -40.5 -14t-26.5 -37t-14 -53t-4 -62q1 -35 7 -66.5t18 -56t30.5 -39
t44.5 -14.5q23 0 39 14t26 37.5t14 54.5t3 65q-2 78 -28 124.5t-69 46.5z" />
    <glyph glyph-name="one.num" horiz-adv-x="222" 
d="M149 326l64 -9v-18h-190v17l66 9v299l-76 -3v17l132 35h4v-347z" />
    <glyph glyph-name="two.num" horiz-adv-x="298" 
d="M74 346h211v-47h-264v22l78 74q14 13 32 30t34.5 37t27.5 43t11 47q0 36 -22.5 55.5t-48.5 19.5q-32 0 -53 -12.5t-44 -43.5l-12 8q7 19 19.5 36t29.5 30.5t38 21.5t45 8q22 0 41.5 -8t34 -22t22.5 -32t8 -38q0 -25 -9 -46.5t-25.5 -42.5t-41 -43.5t-55.5 -48.5z" />
    <glyph glyph-name="three.num" horiz-adv-x="297" 
d="M126 309q41 0 66 20t25 59q0 40 -36.5 62.5t-105.5 22.5v19q34 6 57 16t37 22t20 25t6 25q0 23 -15 38t-42 15q-26 0 -49 -12.5t-48 -40.5l-17 11q10 16 22.5 31.5t28.5 26.5t36 18t46 7q28 0 47.5 -7t30.5 -18t16 -24.5t5 -25.5q0 -20 -8 -34.5t-21 -25.5t-30 -19.5
t-35 -16.5v-4q51 -3 83 -27t32 -65q0 -28 -14 -49.5t-36 -36.5t-49 -23t-52 -8q-56 0 -84 16t-28 37q0 16 11 24t28 10l31 -55q3 -4 15 -8.5t27 -4.5z" />
    <glyph glyph-name="four.num" horiz-adv-x="318" 
d="M233 434h78v-39h-78v-69l57 -10v-17h-169v17l57 9v70h-157l-1 -1v1h-13v19l211 256l15 -8v-228zM178 434v155l-126 -155h126z" />
    <glyph glyph-name="five.num" horiz-adv-x="301" 
d="M69 610l-3 -95q15 8 37 13t44 5q61 0 98 -29.5t37 -77.5q0 -34 -15 -59.5t-38.5 -42.5t-52 -25.5t-54.5 -8.5q-48 0 -78.5 18t-30.5 43q0 13 9.5 22t29.5 9l33 -61q6 -5 17 -8.5t28 -3.5q40 0 67 25t27 63q0 35 -24.5 61t-73.5 26q-17 0 -35 -5t-41 -19h-9l9 204h211v-54
h-192z" />
    <glyph glyph-name="six.num" horiz-adv-x="321" 
d="M277 663q-78 -26 -122.5 -69t-56.5 -100q16 16 39 26.5t49 10.5q57 0 87 -32.5t30 -78.5q0 -27 -10 -51t-27.5 -41.5t-42 -28t-53.5 -10.5q-30 0 -56.5 10.5t-45.5 30t-30 47t-11 61.5q0 49 19 90t52 71.5t78 51t97 28.5zM160 502q-18 0 -34 -7t-32 -24q-1 -6 -1 -12v-11
q0 -67 23.5 -103.5t58.5 -36.5q29 0 46.5 23.5t17.5 64.5q0 51 -22 78.5t-57 27.5z" />
    <glyph glyph-name="seven.num" horiz-adv-x="270" 
d="M47 299l174 311h-206v54h246v-10l-166 -355h-48z" />
    <glyph glyph-name="eight.num" horiz-adv-x="311" 
d="M22 384q0 38 27 59.5t63 34.5l-11 6q-32 17 -46 38t-14 50q0 19 9.5 37t26 32t39 22.5t48.5 8.5q23 0 44 -6t36.5 -17t25 -25.5t9.5 -32.5q0 -19 -7 -33.5t-19 -25.5t-27 -19.5t-30 -14.5l22 -11q68 -34 68 -90q0 -26 -12 -46t-30.5 -34t-41 -21t-44.5 -7
q-29 0 -53.5 6.5t-43 19t-29 30t-10.5 39.5zM125 471q-29 -23 -37.5 -41.5t-8.5 -40.5q0 -12 5 -26t15 -26.5t25.5 -20.5t37.5 -8q36 0 54 17.5t18 43.5t-14 42.5t-40 30.5zM93 593q0 -44 52 -70l35 -18q24 19 33 39t9 40q0 35 -20 52.5t-45 17.5q-26 0 -45 -15.5t-19 -45.5
z" />
    <glyph glyph-name="nine.num" horiz-adv-x="318" 
d="M33 299q77 20 126 64t63 105q-16 -15 -38 -24t-46 -9q-57 0 -86.5 33t-29.5 79q0 27 10.5 50t28.5 39.5t42 26t52 9.5t53.5 -10.5t44 -30t29.5 -47t11 -61.5q0 -49 -19 -90.5t-53 -72.5t-81 -51t-103 -26zM164 464q17 0 32 6t30 21q0 5 0.5 10.5t0.5 11.5q0 71 -23.5 106
t-56.5 35q-28 0 -46 -23t-18 -64q0 -51 23 -77t58 -26z" />
    <glyph glyph-name="zero.den" horiz-adv-x="376" 
d="M186 373q42 0 72.5 -17.5t50.5 -44.5t29.5 -60t9.5 -63q0 -45 -12.5 -81.5t-34.5 -62t-51.5 -39t-63.5 -13.5t-63 14t-50 39.5t-33 60.5t-12 77q0 40 12 75t33 60.5t50 40t63 14.5zM181 354q-24 0 -40.5 -14t-26.5 -37t-14 -53t-4 -62q1 -35 7 -66.5t18 -56t30.5 -39
t44.5 -14.5q23 0 39 14t26 37.5t14 54.5t3 65q-2 78 -28 124.5t-69 46.5z" />
    <glyph glyph-name="one.den" horiz-adv-x="222" 
d="M149 28l64 -9v-18h-190v17l66 9v299l-76 -3v17l132 35h4v-347z" />
    <glyph glyph-name="two.den" horiz-adv-x="298" 
d="M74 48h211v-47h-264v22l78 74q14 13 32 30t34.5 37t27.5 43t11 47q0 36 -22.5 55.5t-48.5 19.5q-32 0 -53 -12.5t-44 -43.5l-12 8q7 19 19.5 36t29.5 30.5t38 21.5t45 8q22 0 41.5 -8t34 -22t22.5 -32t8 -38q0 -25 -9 -46.5t-25.5 -42.5t-41 -43.5t-55.5 -48.5z" />
    <glyph glyph-name="three.den" horiz-adv-x="297" 
d="M126 11q41 0 66 20t25 59q0 40 -36.5 62.5t-105.5 22.5v19q34 6 57 16t37 22t20 25t6 25q0 23 -15 38t-42 15q-26 0 -49 -12.5t-48 -40.5l-17 11q10 16 22.5 31.5t28.5 26.5t36 18t46 7q28 0 47.5 -7t30.5 -18t16 -24.5t5 -25.5q0 -20 -8 -34.5t-21 -25.5t-30 -19.5
t-35 -16.5v-4q51 -3 83 -27t32 -65q0 -28 -14 -49.5t-36 -36.5t-49 -23t-52 -8q-56 0 -84 16t-28 37q0 16 11 24t28 10l31 -55q3 -4 15 -8.5t27 -4.5z" />
    <glyph glyph-name="four.den" horiz-adv-x="318" 
d="M233 136h78v-39h-78v-69l57 -10v-17h-169v17l57 9v70h-157l-1 -1v1h-13v19l211 256l15 -8v-228zM178 136v155l-126 -155h126z" />
    <glyph glyph-name="five.den" horiz-adv-x="301" 
d="M69 312l-3 -95q15 8 37 13t44 5q61 0 98 -29.5t37 -77.5q0 -34 -15 -59.5t-38.5 -42.5t-52 -25.5t-54.5 -8.5q-48 0 -78.5 18t-30.5 43q0 13 9.5 22t29.5 9l33 -61q6 -5 17 -8.5t28 -3.5q40 0 67 25t27 63q0 35 -24.5 61t-73.5 26q-17 0 -35 -5t-41 -19h-9l9 204h211v-54
h-192z" />
    <glyph glyph-name="six.den" horiz-adv-x="321" 
d="M277 365q-78 -26 -122.5 -69t-56.5 -100q16 16 39 26.5t49 10.5q57 0 87 -32.5t30 -78.5q0 -27 -10 -51t-27.5 -41.5t-42 -28t-53.5 -10.5q-30 0 -56.5 10.5t-45.5 30t-30 47t-11 61.5q0 49 19 90t52 71.5t78 51t97 28.5zM160 204q-18 0 -34 -7t-32 -24q-1 -6 -1 -12v-11
q0 -67 23.5 -103.5t58.5 -36.5q29 0 46.5 23.5t17.5 64.5q0 51 -22 78.5t-57 27.5z" />
    <glyph glyph-name="seven.den" horiz-adv-x="270" 
d="M47 1l174 311h-206v54h246v-10l-166 -355h-48z" />
    <glyph glyph-name="eight.den" horiz-adv-x="311" 
d="M22 86q0 38 27 59.5t63 34.5l-11 6q-32 17 -46 38t-14 50q0 19 9.5 37t26 32t39 22.5t48.5 8.5q23 0 44 -6t36.5 -17t25 -25.5t9.5 -32.5q0 -19 -7 -33.5t-19 -25.5t-27 -19.5t-30 -14.5l22 -11q68 -34 68 -90q0 -26 -12 -46t-30.5 -34t-41 -21t-44.5 -7q-29 0 -53.5 6.5
t-43 19t-29 30t-10.5 39.5zM125 173q-29 -23 -37.5 -41.5t-8.5 -40.5q0 -12 5 -26t15 -26.5t25.5 -20.5t37.5 -8q36 0 54 17.5t18 43.5t-14 42.5t-40 30.5zM93 295q0 -44 52 -70l35 -18q24 19 33 39t9 40q0 35 -20 52.5t-45 17.5q-26 0 -45 -15.5t-19 -45.5z" />
    <glyph glyph-name="nine.den" horiz-adv-x="318" 
d="M33 1q77 20 126 64t63 105q-16 -15 -38 -24t-46 -9q-57 0 -86.5 33t-29.5 79q0 27 10.5 50t28.5 39.5t42 26t52 9.5t53.5 -10.5t44 -30t29.5 -47t11 -61.5q0 -49 -19 -90.5t-53 -72.5t-81 -51t-103 -26zM164 166q17 0 32 6t30 21q0 5 0.5 10.5t0.5 11.5q0 71 -23.5 106
t-56.5 35q-28 0 -46 -23t-18 -64q0 -51 23 -77t58 -26z" />
    <glyph glyph-name="zero.sub" horiz-adv-x="376" 
d="M186 323q42 0 72.5 -17.5t50.5 -44.5t29.5 -60t9.5 -63q0 -45 -12.5 -81.5t-34.5 -62t-51.5 -39t-63.5 -13.5t-63 14t-50 39.5t-33 60.5t-12 77q0 40 12 75t33 60.5t50 40t63 14.5zM181 304q-24 0 -40.5 -14t-26.5 -37t-14 -53t-4 -62q1 -35 7 -66.5t18 -56t30.5 -39
t44.5 -14.5q23 0 39 14t26 37.5t14 54.5t3 65q-2 78 -28 124.5t-69 46.5z" />
    <glyph glyph-name="one.sub" horiz-adv-x="222" 
d="M149 -22l64 -9v-18h-190v17l66 9v299l-76 -3v17l132 35h4v-347z" />
    <glyph glyph-name="two.sub" horiz-adv-x="298" 
d="M74 -2h211v-47h-264v22l78 74q14 13 32 30t34.5 37t27.5 43t11 47q0 36 -22.5 55.5t-48.5 19.5q-32 0 -53 -12.5t-44 -43.5l-12 8q7 19 19.5 36t29.5 30.5t38 21.5t45 8q22 0 41.5 -8t34 -22t22.5 -32t8 -38q0 -25 -9 -46.5t-25.5 -42.5t-41 -43.5t-55.5 -48.5z" />
    <glyph glyph-name="three.sub" horiz-adv-x="297" 
d="M126 -39q41 0 66 20t25 59q0 40 -36.5 62.5t-105.5 22.5v19q34 6 57 16t37 22t20 25t6 25q0 23 -15 38t-42 15q-26 0 -49 -12.5t-48 -40.5l-17 11q10 16 22.5 31.5t28.5 26.5t36 18t46 7q28 0 47.5 -7t30.5 -18t16 -24.5t5 -25.5q0 -20 -8 -34.5t-21 -25.5t-30 -19.5
t-35 -16.5v-4q51 -3 83 -27t32 -65q0 -28 -14 -49.5t-36 -36.5t-49 -23t-52 -8q-56 0 -84 16t-28 37q0 16 11 24t28 10l31 -55q3 -4 15 -8.5t27 -4.5z" />
    <glyph glyph-name="four.sub" horiz-adv-x="318" 
d="M233 86h78v-39h-78v-69l57 -10v-17h-169v17l57 9v70h-157l-1 -1v1h-13v19l211 256l15 -8v-228zM178 86v155l-126 -155h126z" />
    <glyph glyph-name="five.sub" horiz-adv-x="301" 
d="M69 262l-3 -95q15 8 37 13t44 5q61 0 98 -29.5t37 -77.5q0 -34 -15 -59.5t-38.5 -42.5t-52 -25.5t-54.5 -8.5q-48 0 -78.5 18t-30.5 43q0 13 9.5 22t29.5 9l33 -61q6 -5 17 -8.5t28 -3.5q40 0 67 25t27 63q0 35 -24.5 61t-73.5 26q-17 0 -35 -5t-41 -19h-9l9 204h211v-54
h-192z" />
    <glyph glyph-name="six.sub" horiz-adv-x="321" 
d="M277 315q-78 -26 -122.5 -69t-56.5 -100q16 16 39 26.5t49 10.5q57 0 87 -32.5t30 -78.5q0 -27 -10 -51t-27.5 -41.5t-42 -28t-53.5 -10.5q-30 0 -56.5 10.5t-45.5 30t-30 47t-11 61.5q0 49 19 90t52 71.5t78 51t97 28.5zM160 154q-18 0 -34 -7t-32 -24q-1 -6 -1 -12v-11
q0 -67 23.5 -103.5t58.5 -36.5q29 0 46.5 23.5t17.5 64.5q0 51 -22 78.5t-57 27.5z" />
    <glyph glyph-name="seven.sub" horiz-adv-x="270" 
d="M47 -49l174 311h-206v54h246v-10l-166 -355h-48z" />
    <glyph glyph-name="eight.sub" horiz-adv-x="311" 
d="M22 36q0 38 27 59.5t63 34.5l-11 6q-32 17 -46 38t-14 50q0 19 9.5 37t26 32t39 22.5t48.5 8.5q23 0 44 -6t36.5 -17t25 -25.5t9.5 -32.5q0 -19 -7 -33.5t-19 -25.5t-27 -19.5t-30 -14.5l22 -11q68 -34 68 -90q0 -26 -12 -46t-30.5 -34t-41 -21t-44.5 -7q-29 0 -53.5 6.5
t-43 19t-29 30t-10.5 39.5zM125 123q-29 -23 -37.5 -41.5t-8.5 -40.5q0 -12 5 -26t15 -26.5t25.5 -20.5t37.5 -8q36 0 54 17.5t18 43.5t-14 42.5t-40 30.5zM93 245q0 -44 52 -70l35 -18q24 19 33 39t9 40q0 35 -20 52.5t-45 17.5q-26 0 -45 -15.5t-19 -45.5z" />
    <glyph glyph-name="nine.sub" horiz-adv-x="318" 
d="M33 -49q77 20 126 64t63 105q-16 -15 -38 -24t-46 -9q-57 0 -86.5 33t-29.5 79q0 27 10.5 50t28.5 39.5t42 26t52 9.5t53.5 -10.5t44 -30t29.5 -47t11 -61.5q0 -49 -19 -90.5t-53 -72.5t-81 -51t-103 -26zM164 116q17 0 32 6t30 21q0 5 0.5 10.5t0.5 11.5q0 71 -23.5 106
t-56.5 35q-28 0 -46 -23t-18 -64q0 -51 23 -77t58 -26z" />
    <glyph glyph-name="plus.sub" horiz-adv-x="338" 
d="M184 108v-119h-30v119h-127v26h127v119h30v-119h127v-26h-127z" />
    <glyph glyph-name="minus.sub" horiz-adv-x="338" 
d="M27 108v26h284v-26h-284z" />
    <glyph glyph-name="zero.sup" horiz-adv-x="376" 
d="M186 753q42 0 72.5 -17.5t50.5 -44.5t29.5 -60t9.5 -63q0 -45 -12.5 -81.5t-34.5 -62t-51.5 -39t-63.5 -13.5t-63 14t-50 39.5t-33 60.5t-12 77q0 40 12 75t33 60.5t50 40t63 14.5zM181 734q-24 0 -40.5 -14t-26.5 -37t-14 -53t-4 -62q1 -35 7 -66.5t18 -56t30.5 -39
t44.5 -14.5q23 0 39 14t26 37.5t14 54.5t3 65q-2 78 -28 124.5t-69 46.5z" />
    <glyph glyph-name="one.sup" horiz-adv-x="222" 
d="M149 408l64 -9v-18h-190v17l66 9v299l-76 -3v17l132 35h4v-347z" />
    <glyph glyph-name="two.sup" horiz-adv-x="298" 
d="M74 428h211v-47h-264v22l78 74q14 13 32 30t34.5 37t27.5 43t11 47q0 36 -22.5 55.5t-48.5 19.5q-32 0 -53 -12.5t-44 -43.5l-12 8q7 19 19.5 36t29.5 30.5t38 21.5t45 8q22 0 41.5 -8t34 -22t22.5 -32t8 -38q0 -25 -9 -46.5t-25.5 -42.5t-41 -43.5t-55.5 -48.5z" />
    <glyph glyph-name="three.sup" horiz-adv-x="297" 
d="M126 391q41 0 66 20t25 59q0 40 -36.5 62.5t-105.5 22.5v19q34 6 57 16t37 22t20 25t6 25q0 23 -15 38t-42 15q-26 0 -49 -12.5t-48 -40.5l-17 11q10 16 22.5 31.5t28.5 26.5t36 18t46 7q28 0 47.5 -7t30.5 -18t16 -24.5t5 -25.5q0 -20 -8 -34.5t-21 -25.5t-30 -19.5
t-35 -16.5v-4q51 -3 83 -27t32 -65q0 -28 -14 -49.5t-36 -36.5t-49 -23t-52 -8q-56 0 -84 16t-28 37q0 16 11 24t28 10l31 -55q3 -4 15 -8.5t27 -4.5z" />
    <glyph glyph-name="four.sup" horiz-adv-x="318" 
d="M233 516h78v-39h-78v-69l57 -10v-17h-169v17l57 9v70h-157l-1 -1v1h-13v19l211 256l15 -8v-228zM178 516v155l-126 -155h126z" />
    <glyph glyph-name="five.sup" horiz-adv-x="301" 
d="M69 692l-3 -95q15 8 37 13t44 5q61 0 98 -29.5t37 -77.5q0 -34 -15 -59.5t-38.5 -42.5t-52 -25.5t-54.5 -8.5q-48 0 -78.5 18t-30.5 43q0 13 9.5 22t29.5 9l33 -61q6 -5 17 -8.5t28 -3.5q40 0 67 25t27 63q0 35 -24.5 61t-73.5 26q-17 0 -35 -5t-41 -19h-9l9 204h211v-54
h-192z" />
    <glyph glyph-name="six.sup" horiz-adv-x="321" 
d="M277 745q-78 -26 -122.5 -69t-56.5 -100q16 16 39 26.5t49 10.5q57 0 87 -32.5t30 -78.5q0 -27 -10 -51t-27.5 -41.5t-42 -28t-53.5 -10.5q-30 0 -56.5 10.5t-45.5 30t-30 47t-11 61.5q0 49 19 90t52 71.5t78 51t97 28.5zM160 584q-18 0 -34 -7t-32 -24q-1 -6 -1 -12v-11
q0 -67 23.5 -103.5t58.5 -36.5q29 0 46.5 23.5t17.5 64.5q0 51 -22 78.5t-57 27.5z" />
    <glyph glyph-name="seven.sup" horiz-adv-x="270" 
d="M47 381l174 311h-206v54h246v-10l-166 -355h-48z" />
    <glyph glyph-name="eight.sup" horiz-adv-x="311" 
d="M22 466q0 38 27 59.5t63 34.5l-11 6q-32 17 -46 38t-14 50q0 19 9.5 37t26 32t39 22.5t48.5 8.5q23 0 44 -6t36.5 -17t25 -25.5t9.5 -32.5q0 -19 -7 -33.5t-19 -25.5t-27 -19.5t-30 -14.5l22 -11q68 -34 68 -90q0 -26 -12 -46t-30.5 -34t-41 -21t-44.5 -7
q-29 0 -53.5 6.5t-43 19t-29 30t-10.5 39.5zM125 553q-29 -23 -37.5 -41.5t-8.5 -40.5q0 -12 5 -26t15 -26.5t25.5 -20.5t37.5 -8q36 0 54 17.5t18 43.5t-14 42.5t-40 30.5zM93 675q0 -44 52 -70l35 -18q24 19 33 39t9 40q0 35 -20 52.5t-45 17.5q-26 0 -45 -15.5t-19 -45.5
z" />
    <glyph glyph-name="nine.sup" horiz-adv-x="318" 
d="M33 381q77 20 126 64t63 105q-16 -15 -38 -24t-46 -9q-57 0 -86.5 33t-29.5 79q0 27 10.5 50t28.5 39.5t42 26t52 9.5t53.5 -10.5t44 -30t29.5 -47t11 -61.5q0 -49 -19 -90.5t-53 -72.5t-81 -51t-103 -26zM164 546q17 0 32 6t30 21q0 5 0.5 10.5t0.5 11.5q0 71 -23.5 106
t-56.5 35q-28 0 -46 -23t-18 -64q0 -51 23 -77t58 -26z" />
    <glyph glyph-name="plus.sup" horiz-adv-x="338" 
d="M184 539v-119h-30v119h-127v26h127v119h30v-119h127v-26h-127z" />
    <glyph glyph-name="minus.sup" horiz-adv-x="338" 
d="M27 539v26h284v-26h-284z" />
    <glyph glyph-name="bullet.alt" horiz-adv-x="314" 
d="M13 582q0 27 17 39t36 12q17 0 30.5 -5.5t24 -15.5t20 -22.5t19.5 -25.5h8l27 27t21 17.5t20 9.5t23 3q22 0 37 -16.5t15 -39.5q0 -26 -17 -42t-42 -16q-23 0 -44 13.5t-42 31.5h-3q-8 -8 -14 -20.5t-6 -24.5q0 -25 19.5 -40t47.5 -34q26 -17 46 -34t20 -45
q0 -12 -4 -23.5t-12.5 -19.5t-22 -11t-31.5 0q1 -12 -7.5 -22t-28.5 -10q-17 0 -29.5 10t-29.5 35q-5 7 -10 16.5t-11.5 17.5t-14.5 13.5t-20 5.5q-20 0 -29.5 -14t-9.5 -31h-10q-9 36 9.5 59t47.5 23q20 0 33.5 -10.5t24 -23.5t21 -23.5t24.5 -10.5q16 0 23 9t7 20
q0 20 -13 33t-28.5 25t-28.5 26.5t-13 37.5q0 18 10 35.5t28 32.5l-3 3q-23 -11 -45 -17t-37 -6q-25 0 -39 12.5t-14 35.5zM170 733q23 0 37.5 -13.5t14.5 -33.5q0 -12 -7 -27t-16.5 -28.5t-18.5 -23.5t-12 -14h-6q-2 4 -9 14t-14.5 23t-13.5 27t-6 25q0 23 14 37t37 14z
" />
    <glyph glyph-name="f.short" horiz-adv-x="290" 
d="M13 17l70 14v394h-77v19l78 21v29q0 53 12.5 98.5t35 79t53 52.5t66.5 19q35 0 58.5 -19.5t23.5 -44.5q0 -27 -19.5 -35.5t-43.5 -8.5l-24 73q-6 8 -22 8q-67 0 -67 -161v-92h132v-38h-132v-394l81 -14v-17h-225v17z" />
    <glyph glyph-name="f_f.short" horiz-adv-x="553" 
d="M346 429h-189v-398l81 -14v-17h-225v17l70 14v394h-77v19l79 20q4 46 20 91t43.5 80.5t65 57t84.5 21.5q32 0 57.5 -11.5t40.5 -28.5q23 32 53 50.5t65 18.5q39 0 60.5 -21t21.5 -43q0 -27 -19.5 -35.5t-43.5 -8.5l-24 73q-3 3 -7.5 5.5t-15.5 2.5q-32 0 -49 -40.5
t-17 -120.5v-92h133v-34h-133v-398l81 -14v-17h-215v17l60 14v398zM271 686q-22 0 -42.5 -10.5t-36.5 -33.5t-26 -59.5t-10 -87.5v-32h190v31q0 66 20 120q-5 13 -13 25.5t-19.5 23t-27 17t-35.5 6.5z" />
    <glyph glyph-name="i.ger" horiz-adv-x="239" 
d="M15 17l70 14v359l-67 30v7l141 50v-446l70 -14v-17h-214v17zM118 577q-22 0 -37.5 15.5t-15.5 37.5t15.5 37.5t37.5 15.5t37.5 -15.5t15.5 -37.5t-15.5 -37.5t-37.5 -15.5z" />
    <glyph glyph-name="j.ger" horiz-adv-x="232" 
d="M-18 -225q30 21 48.5 40t30 43.5t16.5 59t8 87.5v385l-67 30v7l141 50v-453q0 -52 -5 -94.5t-26 -75.5q-20 -31 -53 -50t-86 -43zM118 577q-22 0 -37.5 15.5t-15.5 37.5t15.5 37.5t37.5 15.5t37.5 -15.5t15.5 -37.5t-15.5 -37.5t-37.5 -15.5z" />
    <glyph glyph-name="adieresis.ger" horiz-adv-x="450" 
d="M151 -14q-19 0 -39.5 5.5t-37.5 19t-28 35t-11 53.5q0 29 11 50.5t31 38t49.5 28.5t66.5 22l105 29v47q0 66 -28 100t-71 34q-23 0 -40 -7t-28 -17l-5 -94q-14 -8 -35 -8q-20 0 -32 10.5t-12 28.5q0 17 14.5 37.5t39.5 38t59 29t73 11.5q76 0 107.5 -35.5t31.5 -101.5
v-281q0 -14 5.5 -22.5t25.5 -8.5h50v-13q-15 -8 -31 -14q-14 -5 -29.5 -9t-29.5 -4q-36 0 -51.5 18t-14.5 61h-2q-35 -37 -68 -59t-76 -22zM197 38q32 0 58 19.5t43 42.5v147l-114 -40q-42 -14 -56 -36.5t-14 -49.5q0 -15 4.5 -30t14.5 -27t26 -19t38 -7zM146 584
q-20 0 -33 13.5t-13 33.5t13 34t33 14t34 -14t14 -34t-14 -33.5t-34 -13.5zM298 584q-20 0 -33.5 13.5t-13.5 33.5t13.5 34t33.5 14t33.5 -14t13.5 -34t-13.5 -33.5t-33.5 -13.5z" />
    <glyph glyph-name="odieresis.ger" horiz-adv-x="537" 
d="M190 584q-20 0 -33 13.5t-13 33.5t13 34t33 14t34 -14t14 -34t-14 -33.5t-34 -13.5zM342 584q-20 0 -33.5 13.5t-13.5 33.5t13.5 34t33.5 14t33.5 -14t13.5 -34t-13.5 -33.5t-33.5 -13.5zM255 451q-33 0 -59 -15.5t-44 -42.5t-27.5 -63.5t-9.5 -78.5q0 -51 12.5 -94.5
t35 -75.5t52.5 -50.5t65 -18.5q33 0 59 15.5t44 42.5t28 64t10 79q0 51 -12.5 94.5t-35 75.5t-52.5 50t-66 18zM267 -14q-48 0 -90 16.5t-73.5 48t-50 76.5t-18.5 101q0 59 20.5 105t54 78t75.5 49t85 17q51 0 93.5 -18t73 -50t48 -76t17.5 -97q0 -59 -20.5 -105.5
t-54 -78.5t-75.5 -49t-85 -17z" />
    <glyph glyph-name="udieresis.ger" horiz-adv-x="527" 
d="M185 584q-20 0 -33 13.5t-13 33.5t13 34t33 14t34 -14t14 -34t-14 -33.5t-34 -13.5zM337 584q-20 0 -33.5 13.5t-13.5 33.5t13.5 34t33.5 14t33.5 -14t13.5 -34t-13.5 -33.5t-33.5 -13.5zM371 76q-9 -11 -24 -26t-35.5 -29.5t-47 -24.5t-57.5 -10q-38 0 -64 12.5t-42 34
t-23.5 50t-7.5 59.5v271l-65 19v13l139 26v-306q0 -68 29.5 -96t75.5 -28q21 0 39 5.5t33.5 13.5t27.5 17t21 17v319l-77 19v13l151 26v-428l69 -20v-13l-134 -19z" />
    <glyph glyph-name="questiondown.uc" horiz-adv-x="330" 
d="M263 -15l-15 3q-47 9 -89.5 34t-74 58t-50 71.5t-18.5 75.5q0 80 80 112l103 42l-9 118h24l39 -175l-130 -49q-33 -13 -52.5 -32t-19.5 -53q0 -18 8 -34.5t27.5 -31t53.5 -27t87 -21.5l36 -6v-85zM204 685q25 0 42 -17t17 -42t-17 -42t-42 -17t-42 17t-17 42t17 42t42 17
z" />
    <glyph glyph-name="exclamdown.uc" horiz-adv-x="252" 
d="M83 -18l28 517h27l28 -517h-83zM185 626q0 -25 -17 -42t-42 -17t-42 17t-17 42t17 42t42 17t42 -17t17 -42z" />
    <glyph glyph-name="hyphen.uc" horiz-adv-x="353" 
d="M50 348h253v-55h-253v55z" />
    <glyph glyph-name="endash.uc" horiz-adv-x="470" 
d="M35 337h400v-34h-400v34z" />
    <glyph glyph-name="emdash.uc" horiz-adv-x="870" 
d="M35 337h800v-34h-800v34z" />
    <glyph glyph-name="guilsinglleft.uc" horiz-adv-x="263" 
d="M208 424l-115 -170l114 -155l-14 -15l-163 168v9l163 177z" />
    <glyph glyph-name="guilsinglright.uc" horiz-adv-x="264" 
d="M55 98l115 170l-114 155l14 15l164 -168v-9l-164 -177z" />
    <glyph glyph-name="guillemotleft.uc" horiz-adv-x="415" 
d="M208 424l-115 -170l114 -155l-14 -15l-163 168v9l163 177zM360 424l-115 -170l114 -155l-14 -15l-163 168v9l163 177z" />
    <glyph glyph-name="guillemotright.uc" horiz-adv-x="415" 
d="M55 98l115 170l-114 155l14 15l164 -168v-9l-164 -177zM206 98l115 170l-114 155l14 15l164 -168v-9l-164 -177z" />
    <glyph glyph-name="parenleft.uc" horiz-adv-x="309" 
d="M272 -140q-86 96 -136.5 208.5t-50.5 244.5q0 134 53 249t140 210h26q-38 -54 -67 -105.5t-48.5 -106.5t-29.5 -115t-10 -132q0 -68 9.5 -127t28.5 -113.5t47 -106.5t66 -106h-28z" />
    <glyph glyph-name="parenright.uc" horiz-adv-x="309" 
d="M37 772q87 -96 137 -208.5t50 -244.5q0 -134 -52.5 -249t-139.5 -210h-27q38 54 67.5 105.5t49 106.5t29.5 115t10 132q0 68 -9.5 127t-28.5 113.5t-47.5 106.5t-66.5 106h28z" />
    <glyph glyph-name="bracketleft.uc" horiz-adv-x="288" 
d="M104 -141v914h172v-23h-106v-868h106v-23h-172z" />
    <glyph glyph-name="bracketright.uc" horiz-adv-x="288" 
d="M184 773v-914h-172v23h106v868h-106v23h172z" />
    <glyph glyph-name="braceleft.uc" horiz-adv-x="322" 
d="M84 315q30 -3 52.5 -10t37.5 -19.5t23 -32.5t8 -49v-192q0 -39 5.5 -65.5t17.5 -42.5t31.5 -23t47.5 -7v-15h-15q-52 1 -84.5 12t-49.5 33t-21.5 54t-0.5 74l15 173q4 39 -14.5 66.5t-64.5 29.5l-27 1v28l27 1q46 2 64.5 29.5t14.5 66.5l-15 173q-4 42 0.5 74t21.5 54
t49.5 33t84.5 12h15v-15q-28 0 -47.5 -7t-31.5 -23.5t-17.5 -43t-5.5 -65.5v-190q0 -30 -8 -50t-23 -32.5t-37.5 -19.5t-52.5 -10v-2z" />
    <glyph glyph-name="braceright.uc" horiz-adv-x="322" 
d="M238 317q-30 3 -52.5 10t-37.5 19.5t-23 32.5t-8 49v192q0 78 -23.5 108t-78.5 30v15h15q52 -1 84.5 -12t49.5 -33t21.5 -54t0.5 -74l-15 -173q-4 -39 14.5 -66.5t64.5 -29.5l27 -1v-28l-27 -1q-46 -2 -64.5 -29.5t-14.5 -66.5l15 -173q4 -42 -0.5 -74t-21.5 -54
t-49.5 -33t-84.5 -12h-15v15q55 0 78.5 30.5t23.5 108.5v190q0 30 8 49.5t23 32.5t37.5 20t52.5 10v2z" />
    <glyph glyph-name="slash.uc" horiz-adv-x="415" 
d="M-27 -152l416 937l27 -12l-416 -937z" />
    <glyph glyph-name="backslash.uc" horiz-adv-x="415" 
d="M415 -164l-416 937l27 12l416 -937z" />
    <glyph glyph-name="bar.uc" horiz-adv-x="200" 
d="M85 -160v929h30v-929h-30z" />
    <glyph glyph-name="at.uc" horiz-adv-x="921" 
d="M526 265h-4q-8 -12 -18.5 -28t-27.5 -39q-14 -20 -33.5 -41t-40.5 -39t-43 -29.5t-41 -11.5q-39 0 -57.5 25.5t-18.5 62.5q0 45 15.5 90t41 85.5t58.5 75t67.5 60t68 40t60.5 14.5q21 0 38.5 -9t31.5 -20h1l15 41h44l-100 -334q-10 -33 -10.5 -53.5t6 -32.5t18 -16
t25.5 -4q24 0 58.5 15.5t67 50t55 89t22.5 133.5q0 62 -23.5 117t-65.5 96t-100 65t-126 24q-73 0 -144 -30t-126.5 -85t-90 -132.5t-34.5 -171.5q0 -85 26.5 -151t73 -111.5t109.5 -69t137 -23.5q27 0 52 3.5t46 8t37.5 10t26.5 9.5v-15q-10 -4 -28 -11t-42.5 -13.5
t-54 -11.5t-62.5 -5q-75 0 -145 20t-123 63t-85 110t-32 160q0 66 19.5 126.5t53.5 113t80 95.5t99 73.5t110 47t113 16.5q85 0 151.5 -26.5t112 -71t69 -103t23.5 -122.5q0 -71 -28 -129.5t-70.5 -100.5t-92.5 -65t-93 -23q-63 0 -85.5 34.5t-2.5 100.5zM361 129
q15 0 34.5 13.5t40.5 35.5t42 50.5t39.5 59.5t33 61t22.5 56l16 51q-14 20 -29.5 33t-35.5 13q-32 0 -67.5 -29t-65 -74.5t-49 -102t-19.5 -111.5q0 -56 38 -56z" />
    <glyph glyph-name="Q.cap" horiz-adv-x="779" 
d="M388 685q75 0 139 -26t111.5 -72.5t74 -109.5t26.5 -137q0 -72 -23.5 -132t-63 -105t-91 -74t-107.5 -40q69 -51 125.5 -86t106.5 -56t96.5 -30.5t94.5 -9.5q84 0 148.5 19.5t120.5 58.5l11 -13q-24 -21 -53 -41.5t-65.5 -37t-81.5 -27t-101 -10.5q-67 0 -121 8
t-112.5 32.5t-130 70.5t-172.5 122q-58 11 -109 40t-89 73t-60 101.5t-22 125.5q0 82 30.5 148t79.5 112t111.5 71t126.5 25zM406 8q63 0 108 27.5t73.5 72t42 100.5t13.5 114q0 69 -20 130t-56 107t-86 73t-110 27q-63 0 -107.5 -28t-73 -72.5t-41.5 -100.5t-13 -112
q0 -67 19.5 -128t55 -107.5t85 -74.5t110.5 -28z" />
    <glyph glyph-name="Q.short" horiz-adv-x="779" 
d="M388 685q75 0 139 -26t111.5 -72.5t74 -109.5t26.5 -137t-25 -135.5t-66 -107t-94.5 -74t-111.5 -37.5q40 -36 71.5 -62.5t59.5 -44t55 -26t58 -8.5q26 0 49.5 7t43.5 17l8 -12q-29 -24 -65.5 -39.5t-76.5 -15.5q-49 0 -88.5 13.5t-76.5 38.5t-74.5 59t-82.5 76
q-58 10 -109.5 39t-90 73t-61 101.5t-22.5 126.5q0 82 30.5 148t79.5 112t111.5 71t126.5 25zM406 8q63 0 108 27.5t73.5 72t42 100.5t13.5 114q0 69 -20 130t-56 107t-86 73t-110 27q-63 0 -107.5 -28t-73 -72.5t-41.5 -100.5t-13 -112q0 -67 19.5 -128t55 -107.5t85 -74.5
t110.5 -28z" />
    <glyph glyph-name="space.uc" horiz-adv-x="220" 
 />
    </font>
</defs>
</svg>
