<?xml version="1.0" standalone="no"?>
<!DOCTYPE svg PUBLIC "-//W3C//DTD SVG 1.1//EN" "http://www.w3.org/Graphics/SVG/1.1/DTD/svg11.dtd" >
<svg xmlns="http://www.w3.org/2000/svg" xmlns:xlink="http://www.w3.org/1999/xlink" version="1.1">
<metadata>
Created by FontForge 20170731 at Thu Mar 28 17:07:21 2019
 By Aleksey,,,
A^(c)2010 Kai Bernau and Commercial Type.
</metadata>
<defs>
<font id="." horiz-adv-x="388" >
  <font-face 
    font-family="."
    font-weight="300"
    font-style="italic"
    font-stretch="normal"
    units-per-em="1000"
    panose-1="2 0 3 3 8 0 0 9 0 4"
    ascent="760"
    descent="-240"
    x-height="477"
    cap-height="664"
    bbox="-189 -270 1284 1056"
    underline-thickness="50"
    underline-position="-150"
    slope="-12"
    unicode-range="U+000D-FB04"
  />
<missing-glyph horiz-adv-x="170" 
 />
    <glyph glyph-name="f_f" unicode="ff" horiz-adv-x="506" 
d="M43 463h83q15 39 43.5 82t64.5 78.5t75.5 58.5t76.5 23q30 0 52 -13t37 -33q37 38 77 61t77 23q32 0 57.5 -14.5t25.5 -36.5q0 -14 -8.5 -28.5t-16.5 -22.5q-27 23 -53.5 37.5t-58.5 14.5q-14 0 -31.5 -7.5t-37 -32t-39 -70t-35.5 -120.5h130l-9 -38h-129l-64 -317
q-35 -173 -93.5 -257t-123.5 -84q-12 0 -24 3.5t-22 10.5t-16.5 17t-6.5 22q0 17 9.5 28t18.5 20q25 -38 41.5 -52t33.5 -14q13 0 24 10.5t22 38.5t23.5 77.5t28.5 127.5l74 369h-160l-67 -337q-37 -185 -96.5 -269.5t-129.5 -84.5q-12 0 -25 4t-23.5 11t-17 17.5t-6.5 23.5
q0 17 10 29t20 22q26 -39 44 -55.5t35 -16.5q15 0 27 11.5t25 47t28 100t36 169.5l65 328h-78zM357 463q11 40 32.5 79t48.5 74q-17 19 -38.5 30.5t-47.5 11.5q-25 0 -47.5 -10t-42 -33t-36 -60t-29.5 -92h160z" />
    <glyph glyph-name="f_i" unicode="fi" horiz-adv-x="465" 
d="M43 463h81q15 51 45 101t67.5 90t79 64.5t78.5 24.5t60.5 -15.5t23.5 -35.5q0 -14 -8 -28.5t-17 -22.5q-29 25 -55.5 38.5t-56.5 13.5q-14 0 -32 -7.5t-37.5 -32t-38.5 -70t-35 -120.5h210l30 13h7l-117 -418h3q11 7 25 20t28.5 28t27.5 31t21 29l14 -8
q-18 -30 -39.5 -60.5t-44 -54.5t-44 -39t-37.5 -15q-22 0 -29.5 17.5t0.5 45.5l107 373h-170l-68 -338q-18 -92 -42.5 -158.5t-53.5 -110t-62 -64t-68 -20.5q-12 0 -25 4t-23.5 11t-17 17.5t-6.5 23.5q0 17 10 29t20 22q26 -39 44 -55.5t35 -16.5q15 0 27 11.5t24.5 46.5
t28 99t36.5 170l66 329h-79z" />
    <glyph glyph-name="f_l" unicode="fl" horiz-adv-x="480" 
d="M454 158q-15 -27 -36.5 -57t-44.5 -55t-45 -41t-39 -16q-22 0 -29.5 17t0.5 46l100 373h-170l-68 -337q-37 -184 -96.5 -269t-129.5 -85q-12 0 -25 4t-23.5 11t-17 17.5t-6.5 23.5q0 17 10 29t20 22q26 -38 44 -55t35 -17q15 0 27 11.5t24.5 46.5t28 99.5t36.5 170.5
l66 328h-79l7 38h81q15 51 45 101t67.5 90t79 64.5t78.5 24.5q17 0 33 -4.5t28 -12.5l63 20l-183 -688h3q26 19 53 48t49 60zM354 695q-19 0 -40 -8t-42 -32.5t-40 -70.5t-35 -121h173l55 207q-15 11 -32.5 18t-38.5 7z" />
    <glyph glyph-name="f_f_i" unicode="ffi" horiz-adv-x="699" 
d="M43 463h83q15 39 43.5 82t64.5 78.5t75.5 58.5t76.5 23q30 0 52 -13t37 -33q37 38 77 61t77 23q32 0 57.5 -14.5t25.5 -36.5q0 -14 -8.5 -28.5t-16.5 -22.5q-27 23 -53.5 37.5t-58.5 14.5q-14 0 -31.5 -7.5t-37 -32t-39 -70t-35.5 -120.5h210l30 13h7l-117 -418h3
q11 7 25 20t28.5 28t27.5 31t21 29l14 -8q-18 -30 -39.5 -60.5t-44 -54.5t-44 -39t-37.5 -15q-22 0 -29.5 17.5t0.5 45.5l107 373h-170l-64 -316q-18 -89 -42 -153.5t-52 -106.5t-59 -62t-64 -20q-12 0 -24 3.5t-22 10.5t-16.5 17t-6.5 22q0 17 9.5 28t18.5 20
q25 -38 41.5 -52t33.5 -14q13 0 24 10.5t22 39t23.5 78.5t28.5 128l74 367h-160l-67 -337q-37 -185 -96.5 -269.5t-129.5 -84.5q-12 0 -25 4t-23.5 11t-17 17.5t-6.5 23.5q0 17 10 29t20 22q26 -39 44 -55.5t35 -16.5q15 0 27 11.5t25 47t28 100t36 169.5l65 328h-78z
M357 463q11 40 32.5 79t48.5 74q-17 19 -38.5 30.5t-47.5 11.5q-25 0 -47.5 -10t-42 -33t-36 -60t-29.5 -92h160z" />
    <glyph glyph-name="f_f_l" unicode="ffl" horiz-adv-x="714" 
d="M43 463h83q15 39 43.5 82t64.5 78.5t75.5 58.5t76.5 23q30 0 51.5 -13t37.5 -33q37 38 77 61t77 23q14 0 30.5 -4.5t29.5 -12.5l63 20l-183 -688h3q26 19 53 48t49 60l14 -8q-15 -27 -36.5 -57t-44.5 -55t-45 -41t-39 -16q-22 0 -29.5 17t0.5 46l100 373h-170l-64 -317
q-35 -172 -93.5 -256.5t-123.5 -84.5q-12 0 -24 3.5t-22 10.5t-16.5 17t-6.5 22q0 17 9.5 28t18.5 20q25 -38 41.5 -52t33.5 -14q13 0 24.5 12t23 41t23.5 78t27 123l74 369h-160l-67 -337q-37 -185 -96.5 -269.5t-129.5 -84.5q-12 0 -25 4t-23.5 11t-17 17.5t-6.5 23.5
q0 17 10 29t20 22q26 -39 44 -55.5t35 -16.5q15 0 27 11.5t25 47t28 100t36 169.5l65 328h-78zM588 695q-19 0 -40 -8t-41 -32.5t-39.5 -70.5t-35.5 -121h172l55 207q-15 11 -32.5 18t-38.5 7zM357 463q11 40 32 79t48 74q-17 19 -38 30.5t-47 11.5q-25 0 -47.5 -10t-42 -33
t-36 -60t-29.5 -92h160z" />
    <glyph glyph-name="f_b" unicode="fb" horiz-adv-x="700" 
d="M390 -14q-29 0 -62.5 16t-59.5 53l-5 7l161 609q-15 11 -32.5 17.5t-37.5 6.5t-40.5 -8t-41 -32.5t-39.5 -70.5t-35 -121h119l-10 -38h-117l-68 -337q-37 -184 -96.5 -269t-129.5 -85q-12 0 -25 4t-23.5 11t-17 17.5t-6.5 23.5q0 17 10 28.5t20 19.5q26 -36 44 -52.5
t35 -16.5q15 0 27 11.5t24.5 46.5t28 99.5t36.5 170.5l66 328h-79l7 38h81q15 51 45 101t67.5 90t79 64.5t78.5 24.5q17 0 32.5 -4.5t27.5 -12.5l63 20l-124 -470h6q24 41 50 77.5t54 64t57.5 43.5t60.5 16q38 0 57 -32t17 -86q-1 -36 -13 -78t-33 -83.5t-49 -79.5
t-62 -67.5t-71.5 -47t-76.5 -17.5zM338 67q8 -19 26 -37.5t50 -18.5q34 0 68 30.5t61.5 77.5t45.5 104.5t21 111.5q2 40 -7.5 62.5t-30.5 22.5q-19 0 -39.5 -13.5t-41.5 -36t-41 -51t-37 -58t-30 -57.5t-19 -49z" />
    <glyph glyph-name="f_f_b" unicode="ffb" horiz-adv-x="934" 
d="M624 -14q-29 0 -62.5 16t-59.5 53l-5 7l161 609q-32 24 -70 24q-19 0 -40 -8t-41 -32.5t-39.5 -70.5t-35.5 -121h119l-10 -38h-117l-64 -316q-36 -176 -94 -259t-123 -83q-12 0 -24 3.5t-22 10.5t-16.5 17t-6.5 22q0 17 9.5 28t18.5 20q25 -38 41.5 -52t33.5 -14
q13 0 24 10.5t22 38.5t23.5 77.5t28.5 128.5l74 368h-160l-67 -337q-37 -185 -96.5 -269.5t-129.5 -84.5q-12 0 -25 4t-23.5 11t-17 17.5t-6.5 23.5q0 17 10 29t20 22q26 -39 44 -55.5t35 -16.5q15 0 27 11.5t25 47t28 100t36 169.5l65 328h-78l7 38h83q15 39 43.5 82
t64.5 78.5t75.5 58.5t76.5 23q30 0 52 -13t37 -33q37 38 77 61t77 23q14 0 30 -4.5t29 -12.5l63 20l-124 -470h6q24 41 50 77.5t54 64t57.5 43.5t60.5 16q38 0 57 -32t17 -86q-1 -36 -13 -78t-33 -83.5t-49 -79.5t-62 -67.5t-71.5 -47t-76.5 -17.5zM572 67q8 -19 26 -37.5
t50 -18.5q34 0 68 30.5t61.5 77.5t45.5 104.5t21 111.5q2 40 -7.5 62.5t-30.5 22.5q-18 0 -39 -13.5t-42 -36t-41 -51t-37 -58t-30 -57.5t-19 -49zM357 463q11 40 32.5 79t48.5 74q-17 19 -38.5 30.5t-47.5 11.5q-25 0 -47.5 -10t-42 -33t-36 -60t-29.5 -92h160z" />
    <glyph glyph-name="f_f_h" unicode="ffh" horiz-adv-x="951" 
d="M623 266h6q22 39 49 77t56 68t60 48t62 18q37 0 49.5 -25t2.5 -60l-93 -334h3q26 20 53.5 49.5t48.5 58.5l14 -8q-19 -32 -41 -62.5t-44.5 -54t-43 -38t-36.5 -14.5q-8 0 -15.5 3.5t-12 11t-5.5 19t4 28.5l97 339q3 14 -2 22.5t-18 8.5q-24 0 -57 -25.5t-67 -70.5
t-65 -107t-52 -135l-22 -78l-60 -17l-14 12l178 671q-32 24 -70 24q-19 0 -40 -8t-41 -32.5t-39.5 -70.5t-35.5 -121h119l-10 -38h-117l-64 -317q-35 -176 -93.5 -258.5t-123.5 -82.5q-12 0 -24 3.5t-22 10.5t-16.5 17t-6.5 22q0 17 9.5 28t18.5 20q25 -38 41.5 -52
t33.5 -14q13 0 24 11.5t22.5 40t24 78t27.5 126.5l74 367h-160l-67 -337q-37 -185 -96.5 -269.5t-129.5 -84.5q-12 0 -25 4t-23.5 11t-17 17.5t-6.5 23.5q0 17 10 29t20 22q26 -39 44 -55.5t35 -16.5q15 0 27 11.5t25 47t28 100t36 169.5l65 328h-78l7 38h83q15 39 43.5 82
t64.5 78.5t75.5 58.5t76.5 23q30 0 52 -13t37 -33q37 38 77 61t77 23q14 0 30 -4.5t29 -12.5l62 20zM357 463q11 40 32.5 79t48.5 74q-17 19 -38.5 30.5t-47.5 11.5q-25 0 -47.5 -10t-42 -33t-36 -60t-29.5 -92h160z" />
    <glyph glyph-name="f_f_j" unicode="ffj" horiz-adv-x="695" 
d="M43 463h83q15 39 43.5 82t64.5 78.5t75.5 58.5t76.5 23q30 0 51.5 -13t37.5 -33q37 38 77 61t77 23q32 0 57.5 -14.5t25.5 -36.5q0 -14 -8.5 -28.5t-16.5 -22.5q-27 23 -53.5 37.5t-58.5 14.5q-14 0 -31.5 -7.5t-37 -32t-39 -70t-35.5 -120.5h215l29 13h8l-85 -363
q-16 -68 -38 -125.5t-49.5 -99.5t-59.5 -65.5t-68 -23.5q-24 0 -46.5 14t-22.5 39q0 17 9.5 28.5t18.5 19.5q26 -39 42.5 -52t32.5 -13q11 0 21 7.5t20.5 29t22.5 59.5t26 99l92 395h-176l-64 -317q-17 -87 -41 -151t-52 -106.5t-59.5 -63t-64.5 -20.5q-12 0 -24 3.5
t-22 10.5t-16.5 17t-6.5 22q0 17 9.5 28t18.5 20q25 -38 41.5 -52t33.5 -14q13 0 24 11t22.5 39.5t24 77.5t27.5 126l74 369h-160l-67 -337q-37 -185 -96.5 -269.5t-129.5 -84.5q-12 0 -25 4t-23.5 11t-17 17.5t-6.5 23.5q0 17 10 29t20 22q26 -39 44 -55.5t35 -16.5
q15 0 27 11.5t25 47t28 100t36 169.5l65 328h-78zM357 463q11 40 32 79t48 74q-17 19 -38 30.5t-47 11.5q-25 0 -47.5 -10t-42 -33t-36 -60t-29.5 -92h160z" />
    <glyph glyph-name="f_f_k" unicode="ffk" horiz-adv-x="907" 
d="M816 -33q-25 0 -42.5 11.5t-32.5 30.5l-136 165q-8 -20 -14.5 -39t-11.5 -38l-25 -92l-60 -17l-14 12l178 671q-32 24 -70 24q-19 0 -40 -8t-41 -32.5t-39.5 -70.5t-35.5 -121h119l-10 -38h-117l-64 -317q-17 -87 -41 -151t-52 -106.5t-59.5 -63t-64.5 -20.5
q-12 0 -24 3.5t-22 10.5t-16.5 17t-6.5 22q0 17 9.5 28t18.5 20q25 -38 41.5 -52t33.5 -14q13 0 24 11.5t22.5 40t24 78t27.5 124.5l74 369h-160l-67 -337q-37 -185 -96.5 -269.5t-129.5 -84.5q-12 0 -25 4t-23.5 11t-17 17.5t-6.5 23.5q0 17 10 29t20 22q26 -39 44 -55.5
t35 -16.5q15 0 27 11.5t25 47t28 100t36 169.5l65 328h-78l7 38h83q15 39 43.5 82t64.5 78.5t75.5 58.5t76.5 23q30 0 51.5 -13t37.5 -33q37 38 77 61t77 23q14 0 30 -4.5t29 -12.5l62 20l-127 -480h5q21 42 45.5 80.5t52 67.5t58 46t64.5 17q27 0 47 -17.5t20 -48.5
q0 -61 -62 -110.5t-180 -107.5l186 -211v-3q-4 -3 -15 -7.5t-28 -4.5zM357 463q11 40 32 79t48 74q-17 19 -38 30.5t-47 11.5q-25 0 -47.5 -10t-42 -33t-36 -60t-29.5 -92h160zM810 420q-24 0 -51.5 -19.5t-54.5 -52.5t-51.5 -76t-43.5 -89q108 52 171 100.5t63 98.5
q0 17 -8 27.5t-25 10.5z" />
    <glyph glyph-name="f_f_t" unicode="fft" horiz-adv-x="771" 
d="M591 425h-167l-64 -317q-18 -92 -43 -156.5t-53.5 -105.5t-59.5 -60t-61 -19q-12 0 -24 3.5t-22 10.5t-16.5 17t-6.5 22q0 17 9.5 28t18.5 20q25 -38 41.5 -52t33.5 -14q13 0 24.5 12t23 41t23.5 78t27 123l74 369h-160l-67 -337q-37 -185 -96.5 -269.5t-129.5 -84.5
q-12 0 -25 4t-23.5 11t-17 17.5t-6.5 23.5q0 17 10 29t20 22q26 -39 44 -55.5t35 -16.5q15 0 27 11.5t25 47t28 100t36 169.5l65 328h-78l7 38h83q15 39 43.5 82t64.5 78.5t75.5 58.5t76.5 23q30 0 51.5 -13t37.5 -33q37 38 77.5 60.5t79.5 22.5q22 0 39 -12t17 -28
q0 -14 -9.5 -29t-18.5 -23q-26 26 -43 35t-35 9q-16 0 -35.5 -8t-39.5 -32.5t-39.5 -70t-35.5 -120.5h173l59 137h37l-30 -137h141l-8 -38h-142l-97 -367h2q13 5 30.5 17t36.5 29t39.5 38.5t39.5 45.5l15 -11q-19 -30 -44.5 -63.5t-53.5 -61t-56.5 -45.5t-53.5 -18
q-19 0 -28.5 15t-4.5 34zM358 463q11 40 31.5 79t47.5 74q-17 19 -38 30.5t-47 11.5q-25 0 -47.5 -10t-42 -33t-36 -60t-29.5 -92h161z" />
    <glyph glyph-name="f_h" unicode="fh" horiz-adv-x="717" 
d="M389 266h6q22 39 49 77t56 68t60 48t62 18q37 0 49.5 -25t2.5 -60l-93 -334h3q26 20 53.5 49.5t48.5 58.5l14 -8q-19 -32 -41 -62.5t-44.5 -54t-43 -38t-36.5 -14.5q-8 0 -15.5 3.5t-12 11t-5.5 19t4 28.5l97 339q3 14 -2 22.5t-18 8.5q-24 0 -57 -25.5t-67 -70.5
t-65 -107t-52 -135l-22 -78l-60 -17l-14 12l178 671q-15 11 -32.5 17.5t-37.5 6.5t-40.5 -8t-41 -32.5t-39.5 -70.5t-35 -121h119l-10 -38h-117l-68 -337q-37 -184 -96.5 -269t-129.5 -85q-12 0 -25 4t-23.5 11t-17 17.5t-6.5 23.5q0 17 10 29t20 21q26 -38 44 -54.5
t35 -16.5q15 0 27 11.5t24.5 46.5t28 99.5t36.5 170.5l66 328h-79l7 38h81q15 51 45 101t67.5 90t79 64.5t78.5 24.5q17 0 32.5 -4.5t27.5 -12.5l62 20z" />
    <glyph glyph-name="f_j" unicode="fj" horiz-adv-x="460" 
d="M366 425h-176l-68 -338q-18 -92 -42.5 -158.5t-53.5 -110t-62 -64t-68 -20.5q-12 0 -25 4t-23.5 11t-17 17.5t-6.5 23.5q0 17 10 29t20 22q26 -39 44 -55.5t35 -16.5q15 0 27 11.5t24.5 47t28 100t36.5 170.5l66 327h-79l7 38h81q15 51 45 101t67.5 90t79 64.5t78.5 24.5
t60.5 -15.5t23.5 -35.5q0 -14 -8 -28.5t-17 -22.5q-29 25 -55.5 38.5t-56.5 13.5q-14 0 -32 -7.5t-37.5 -32t-38.5 -70t-35 -120.5h215l29 13h8l-102 -426q-14 -57 -34 -108t-46 -90t-57.5 -62t-67.5 -23q-24 0 -46.5 14t-22.5 39q0 17 9.5 28.5t18.5 19.5
q26 -39 42.5 -52.5t32.5 -13.5q22 0 39.5 28t34.5 99z" />
    <glyph glyph-name="f_k" unicode="fk" horiz-adv-x="673" 
d="M582 -33q-25 0 -42.5 11.5t-32.5 30.5l-136 165q-8 -20 -14.5 -39t-11.5 -38l-25 -92l-60 -17l-14 12l178 671q-15 11 -32.5 17.5t-37.5 6.5t-40.5 -8t-41 -32.5t-39.5 -70.5t-35 -121h119l-10 -38h-117l-68 -337q-37 -184 -96.5 -269t-129.5 -85q-12 0 -25 4t-23.5 11
t-17 17.5t-6.5 23.5q0 17 10 28.5t20 19.5q26 -36 44 -52.5t35 -16.5q15 0 27 11.5t24.5 46.5t28 99.5t36.5 170.5l66 328h-79l7 38h81q15 51 45 101t67.5 90t79 64.5t78.5 24.5q17 0 32.5 -4.5t27.5 -12.5l62 20l-127 -480h5q21 42 45.5 80.5t52.5 67.5t58.5 46t63.5 17
q27 0 47 -17.5t20 -48.5q0 -61 -62 -110.5t-180 -107.5l186 -211v-3q-4 -3 -15 -7.5t-28 -4.5zM575 420q-24 0 -51 -19.5t-54 -52.5t-51.5 -76t-43.5 -89q108 52 171 100.5t63 98.5q0 38 -34 38z" />
    <glyph glyph-name="f_t" unicode="ft" horiz-adv-x="537" 
d="M357 425h-167l-68 -338q-18 -92 -42.5 -158.5t-53.5 -110t-62 -64t-68 -20.5q-12 0 -25 4t-23.5 11t-17 17.5t-6.5 23.5q0 17 10 29t20 22q26 -39 44 -55.5t35 -16.5q15 0 27.5 11.5t25 47t28 100t36.5 170.5l65 327h-79l7 38h81q14 51 43.5 101t67.5 89.5t80.5 64
t82.5 24.5q22 0 39 -12t17 -28q0 -14 -9.5 -29t-18.5 -23q-26 26 -43 35t-35 9q-16 0 -35.5 -8t-39.5 -32.5t-39.5 -70t-35.5 -120.5h173l59 137h37l-30 -137h141l-8 -38h-142l-97 -367h2q13 5 30.5 17t36.5 29t39.5 38.5t39.5 45.5l15 -11q-19 -30 -44.5 -63.5t-53.5 -61
t-56.5 -45.5t-53.5 -18q-19 0 -28.5 15t-4.5 34z" />
    <glyph glyph-name=".notdef" horiz-adv-x="170" 
 />
    <glyph glyph-name=".null" horiz-adv-x="0" 
 />
    <glyph glyph-name="nonmarkingreturn" unicode="&#xd;" horiz-adv-x="170" 
 />
    <glyph glyph-name="NULL" horiz-adv-x="0" 
 />
    <glyph glyph-name="NULL" horiz-adv-x="0" 
 />
    <glyph glyph-name="space" unicode=" " horiz-adv-x="170" 
 />
    <glyph glyph-name="exclam" unicode="!" horiz-adv-x="226" 
d="M244 690l-134 -505h-20l68 505h86zM76 -13q-25 0 -42 17t-17 42t17 42t42 17t42 -17t17 -42t-17 -42t-42 -17z" />
    <glyph glyph-name="quotedbl" unicode="&#x22;" horiz-adv-x="338" 
d="M136 727h93l-94 -234h-16zM292 727h93l-94 -234h-16z" />
    <glyph glyph-name="numbersign" unicode="#" horiz-adv-x="581" 
d="M115 439h123l58 155h33l-58 -155h160l58 155h33l-58 -155h122l-8 -32h-126l-74 -197h118l-7 -32h-123l-66 -178h-33l66 178h-160l-66 -178h-33l66 178h-121l7 32h126l74 197h-118zM185 210h160l74 197h-160z" />
    <glyph glyph-name="dollar" unicode="$" horiz-adv-x="506" 
d="M70 200l5 -147q20 -14 54.5 -26.5t79.5 -13.5l56 285l-30 17q-26 14 -45 28t-32.5 31t-20 38t-6.5 49q0 34 15 65.5t41.5 56.5t63.5 40.5t81 18.5l23 119h31l-24 -118q49 -2 85.5 -14t56.5 -18l-32 -158h-16l-7 121q-18 17 -43 28t-49 14l-50 -253l3 -1q40 -23 67 -43.5
t43.5 -41t23.5 -43t7 -49.5q0 -41 -17.5 -75.5t-47.5 -60t-69.5 -42t-84.5 -20.5l-23 -117h-28l22 115h-3q-27 0 -54.5 4t-51.5 9t-43.5 11t-31.5 11l36 180h15zM373 160q0 31 -17 61t-65 62l-54 -269q27 3 52 13.5t43.5 28.5t29.5 44t11 60zM200 496q-1 -34 14 -61t66 -56
l47 237q-60 -3 -92.5 -34.5t-34.5 -85.5z" />
    <glyph glyph-name="percent" unicode="%" horiz-adv-x="736" 
d="M224 581q-22 0 -42 -12.5t-35.5 -35.5t-24.5 -54.5t-9 -70.5q0 -45 15 -74t49 -29q19 0 38 11t35 32.5t26 53.5t10 74q0 46 -15 75.5t-47 29.5zM79 -50h-41l607 680h41zM171 283q-27 0 -50 10.5t-39.5 29t-25.5 42.5t-9 51q0 39 15.5 73.5t41 59.5t58 39.5t67.5 14.5
q27 0 50 -11t39 -29t25 -42.5t9 -51.5q0 -38 -15 -71.5t-40.5 -59t-58 -40.5t-67.5 -15zM556 283q-22 0 -42 -12.5t-35.5 -35.5t-24.5 -54.5t-9 -70.5q0 -45 15 -74t49 -29q19 0 38 11t35 32.5t26 53.5t10 74q0 46 -15 75.5t-47 29.5zM503 -15q-27 0 -50 10.5t-39.5 29
t-25.5 42.5t-9 51q0 39 15.5 73.5t41 59.5t58 39.5t67.5 14.5q27 0 50 -11t39 -29t25 -42.5t9 -51.5q0 -38 -15 -71.5t-40.5 -59t-58 -40.5t-67.5 -15z" />
    <glyph glyph-name="ampersand" unicode="&#x26;" horiz-adv-x="871" 
d="M638 451q-23 14 -44 25t-49 11q-34 0 -53 -21.5t-19 -47.5q0 -19 6 -32t15 -23t19.5 -16.5t18.5 -12.5q-14 -21 -29 -30t-29 -9q-4 0 -11.5 1.5t-14.5 7.5t-12 18t-5 34q0 32 11 65t31.5 60t49.5 44t66 17q35 0 60.5 -12.5t54.5 -30.5q30 -19 49.5 -31t33 -19.5
t22.5 -10.5t18 -3q17 0 27 13t10 36q0 29 -8 55.5t-14 38.5q18 9 36 9q25 -2 34 -14t9 -28q0 -20 -11 -47.5t-30.5 -52t-47 -42t-61.5 -17.5q-29 0 -53.5 13.5t-52.5 33.5q-6 -86 -28 -169.5t-64.5 -148.5t-108 -105t-156.5 -40q-55 0 -103.5 16t-84.5 48t-57 81.5
t-21 115.5q0 67 21 124t54.5 99t74.5 66t81 24q27 0 46 -14t24 -37l172 222l29 -25l-434 -515q23 -59 78 -95.5t137 -36.5q61 0 114.5 25.5t95.5 76t69.5 126.5t37.5 177zM93 267q0 -17 1.5 -33t5.5 -31l170 206q7 15 7 30.5t-6 28t-17.5 20.5t-28.5 8q-21 0 -44.5 -14.5
t-43 -43.5t-32 -71.5t-12.5 -99.5z" />
    <glyph glyph-name="quotesingle" unicode="'" horiz-adv-x="182" 
d="M136 727h93l-94 -234h-16z" />
    <glyph glyph-name="parenleft" unicode="(" horiz-adv-x="311" 
d="M188 -180q-24 35 -45 76t-36.5 87.5t-25 99t-9.5 111.5q0 79 22 151.5t60.5 139t91.5 128t116 119.5h29q-73 -77 -123.5 -149.5t-81.5 -144.5t-44.5 -144t-13.5 -147q0 -50 6 -93t16.5 -82.5t26 -76.5t34.5 -75h-23z" />
    <glyph glyph-name="parenright" unicode=")" horiz-adv-x="311" 
d="M118 732q24 -35 45 -76t36.5 -87.5t25 -99t9.5 -111.5q0 -80 -22 -152t-60.5 -138.5t-91.5 -128t-116 -119.5h-29q73 76 123.5 149t81.5 145t44.5 144t13.5 147q0 49 -6 92.5t-16.5 83t-26 76.5t-34.5 75h23z" />
    <glyph glyph-name="asterisk" unicode="*" horiz-adv-x="364" 
d="M272 511l14 -137l-11 -2l-50 130l-125 -59l-6 10l104 85l-88 102l8 9l114 -75l68 119l11 -4l-35 -132l133 -27l-1 -12z" />
    <glyph glyph-name="plus" unicode="+" horiz-adv-x="580" 
d="M310 216v-216h-40v216h-217v35h217v216h40v-216h217v-35h-217z" />
    <glyph glyph-name="comma" unicode="," horiz-adv-x="223" 
d="M-69 -141q28 14 51.5 28t40.5 29t26.5 31.5t9.5 36.5q0 49 -56 61q-5 22 8 42.5t44 20.5q27 0 50 -22.5t23 -61.5q0 -57 -49 -102.5t-140 -79.5z" />
    <glyph glyph-name="hyphen" unicode="-" horiz-adv-x="351" 
d="M63 293h252l-12 -55h-253z" />
    <glyph glyph-name="period" unicode="." horiz-adv-x="197" 
d="M56 -13q-25 0 -42 17t-17 42t17 42t42 17t42 -17t17 -42t-17 -42t-42 -17z" />
    <glyph glyph-name="slash" unicode="/" horiz-adv-x="400" 
d="M-102 -190l536 936l25 -13l-536 -937z" />
    <glyph glyph-name="zero" unicode="0" horiz-adv-x="580" 
d="M330 481q-38 0 -75 -21.5t-66.5 -60t-48 -91t-20.5 -115.5q-1 -35 5.5 -68.5t21.5 -59.5t40.5 -42t62.5 -16t73.5 20t66 57.5t48.5 90.5t21 120q1 30 -5.5 63t-21.5 60t-40 45t-62 18zM248 -15q-44 0 -82.5 15t-67.5 44t-45.5 71t-16.5 97q0 56 22 108.5t61.5 93
t94.5 64.5t120 24q50 0 89 -18.5t66 -49.5t41 -72t14 -86q0 -58 -22 -110.5t-61.5 -92.5t-94 -64t-118.5 -24z" />
    <glyph glyph-name="one" unicode="1" horiz-adv-x="350" 
d="M181 35l99 -17l-2 -18h-288l3 18l113 17l78 402l-131 -9l2 19l212 53h4z" />
    <glyph glyph-name="two" unicode="2" horiz-adv-x="422" 
d="M100 69h258l-15 -69h-347l7 21l53 47q70 62 115.5 106.5t71.5 78t36.5 60t10.5 53.5q0 18 -6.5 33t-18 26t-26.5 17.5t-32 6.5q-38 0 -66 -16t-64 -50l-12 10q30 49 71 81.5t96 32.5q33 0 58 -10.5t42.5 -28.5t26.5 -41.5t9 -48.5q0 -32 -10.5 -58.5t-30 -51t-47.5 -50
t-63 -53.5z" />
    <glyph glyph-name="three" unicode="3" horiz-adv-x="370" 
d="M-47 -209q51 21 98.5 46t84 56t58.5 68.5t22 82.5q0 28 -10.5 49t-28.5 34.5t-42 20.5t-51 7h-17l2 28l30 18q35 21 63 39.5t48 38t31 42t11 51.5q0 34 -22.5 57.5t-57.5 23.5q-27 0 -53.5 -14.5t-58.5 -41.5l-11 9q22 28 41 47.5t38 31.5t39 17t43 5q24 0 45 -7.5
t37.5 -22.5t26 -36.5t9.5 -48.5q0 -48 -32.5 -85t-81.5 -65l-71 -41q31 -2 58.5 -14t48.5 -30.5t33 -43t12 -52.5q0 -47 -18.5 -87t-58.5 -75t-103.5 -65.5t-154.5 -59.5z" />
    <glyph glyph-name="four" unicode="4" horiz-adv-x="543" 
d="M286 24h-285l4 18l437 456h9l-80 -416h127l-10 -58h-128l-36 -186h-74zM297 82l57 291l-280 -291h223z" />
    <glyph glyph-name="five" unicode="5" horiz-adv-x="365" 
d="M195 65q0 25 -5.5 52t-20.5 58.5t-43 70t-73 86.5l86 157l222 7l-15 -70l-219 -6l-18 -34q46 -48 77.5 -87t51.5 -74t29 -69t9 -74q0 -67 -27 -116.5t-72 -86t-102.5 -62.5t-117.5 -47l-7 19q41 18 84.5 40.5t79 54.5t58.5 76t23 105z" />
    <glyph glyph-name="six" unicode="6" horiz-adv-x="513" 
d="M564 671q-50 -24 -110 -57t-117.5 -75.5t-107.5 -95t-80 -115.5h3q40 48 78 65.5t75 17.5q34 0 64 -12.5t52.5 -35.5t35.5 -56t13 -75q0 -40 -15.5 -83.5t-47 -80t-78 -60t-109.5 -23.5q-35 0 -68 12t-59 36.5t-41.5 60.5t-15.5 84q0 96 44 175t117 142t167.5 110.5
t194.5 82.5zM281 378q-48 0 -89 -33t-68 -86q-11 -42 -11 -85q0 -82 27.5 -126t82.5 -44q33 0 63 16.5t53.5 46.5t37 72.5t13.5 95.5q0 30 -7 56t-21 45.5t-34.5 30.5t-46.5 11z" />
    <glyph glyph-name="seven" unicode="7" horiz-adv-x="434" 
d="M-4 -180l377 607h-332l14 69h382v-6l-320 -545l-84 -148z" />
    <glyph glyph-name="eight" unicode="8" horiz-adv-x="473" 
d="M25 126q0 39 17.5 69.5t45 55t61.5 44.5t68 38l-30 31q-35 35 -49 66t-14 72q0 33 15 65.5t41.5 58t63 41t78.5 15.5q32 0 61.5 -8.5t52 -25t36 -40.5t13.5 -55q0 -35 -17 -63.5t-43.5 -51.5t-58.5 -43t-63 -39l27 -26q19 -19 36 -37.5t29.5 -38t20 -41.5t7.5 -47
q0 -39 -19.5 -72t-50.5 -57.5t-70 -38.5t-78 -14t-72 10.5t-57 29.5t-37.5 45t-13.5 57zM229 322q-32 -23 -56 -44.5t-40 -45t-24 -49.5t-8 -57q0 -20 6.5 -41.5t20.5 -38.5t37 -28t55 -11q25 0 48 8.5t40.5 25.5t28 41.5t10.5 57.5q0 36 -20 70t-61 75zM193 523
q0 -39 20.5 -68.5t61.5 -70.5l17 -17q24 18 45 39t37.5 43.5t26 48t9.5 52.5q0 45 -25 76.5t-72 31.5q-23 0 -45 -8.5t-38.5 -25t-26.5 -42t-10 -59.5z" />
    <glyph glyph-name="nine" unicode="9" horiz-adv-x="520" 
d="M-44 -184q55 23 117 55.5t119 75.5t105 97.5t76 122.5h-3q-37 -48 -77 -66.5t-79 -18.5q-33 0 -63 11.5t-52.5 33.5t-35.5 54t-13 74q0 40 15.5 83.5t47 80t79.5 60t112 23.5q40 0 73 -13.5t57 -39t37 -61.5t13 -82q0 -98 -44 -179.5t-117 -145t-167.5 -109.5t-194.5 -73
zM237 115q52 0 94 35t66 95q4 20 6 40t2 41q0 71 -26.5 114t-80.5 43q-33 0 -63.5 -16.5t-54 -46.5t-37 -73t-13.5 -95q0 -60 28.5 -98.5t78.5 -38.5z" />
    <glyph glyph-name="colon" unicode=":" horiz-adv-x="197" 
d="M56 -13q-25 0 -42 17t-17 42t17 42t42 17t42 -17t17 -42t-17 -42t-42 -17zM124 345q-25 0 -42 17t-17 42t17 42t42 17t42 -17t17 -42t-17 -42t-42 -17z" />
    <glyph glyph-name="semicolon" unicode=";" horiz-adv-x="223" 
d="M-64 -141q28 14 51.5 28t40.5 29t26.5 31.5t9.5 36.5q0 49 -56 61q-5 22 8 42.5t44 20.5q27 0 50 -22.5t23 -61.5q0 -57 -49 -102.5t-140 -79.5zM125 345q-25 0 -42 17t-17 42t17 42t42 17t42 -17t17 -42t-17 -42t-42 -17z" />
    <glyph glyph-name="less" unicode="&#x3c;" horiz-adv-x="580" 
d="M95 231l429 -198v-38l-472 219v35l472 218v-37z" />
    <glyph glyph-name="equal" unicode="=" horiz-adv-x="580" 
d="M53 285v35h474v-35h-474zM53 144v35h474v-35h-474z" />
    <glyph glyph-name="greater" unicode="&#x3e;" horiz-adv-x="580" 
d="M485 230l-429 198v39l472 -219v-35l-472 -218v36z" />
    <glyph glyph-name="question" unicode="?" horiz-adv-x="357" 
d="M146 684l29 -14q39 -19 72 -45t56.5 -56.5t36.5 -65t13 -70.5q0 -56 -28 -90.5t-103 -45.5l-88 -12l-31 -100h-20l23 166l133 18q48 7 68 23.5t20 48.5q0 29 -15.5 52t-40 40.5t-54 30.5t-57.5 22l-29 10zM13 46q0 25 17 42t42 17t42 -17t17 -42t-17 -42t-42 -17t-42 17
t-17 42z" />
    <glyph glyph-name="at" unicode="@" horiz-adv-x="907" 
d="M517 205h-5l-31 -48q-13 -20 -32.5 -45t-43 -47t-48.5 -36.5t-49 -14.5q-20 0 -34 7t-23.5 18.5t-14 26t-4.5 29.5q0 50 15.5 98t41 90t58.5 77t68.5 60.5t69.5 39.5t63 14q23 0 43 -8.5t34 -17.5l24 36h27l-105 -348q-15 -45 -7.5 -71.5t42.5 -26.5q24 0 59 15t68 49
t56.5 89t23.5 135q0 61 -22 115.5t-62 95t-94.5 64t-119.5 23.5q-87 0 -162 -31t-129.5 -87t-86 -133t-31.5 -168q0 -82 24.5 -146t68.5 -108.5t105 -67.5t135 -23q56 0 92.5 10t54.5 16v-13q-6 -4 -22.5 -10.5t-40.5 -13t-53.5 -11.5t-59.5 -5q-88 0 -157.5 25t-117.5 71
t-73.5 110.5t-25.5 143.5q0 64 19.5 124.5t54.5 113t82.5 96t103.5 75t118.5 48.5t127.5 17q80 0 141 -25.5t102.5 -68.5t62.5 -100.5t21 -121.5q0 -84 -29.5 -145.5t-73 -101t-93.5 -59t-92 -19.5q-51 0 -74.5 35.5t-6.5 95.5zM348 68q16 0 36.5 14.5t42.5 38t43.5 53.5
t40 61t32.5 60t21 51l22 67q-12 14 -28 24t-31 10q-42 0 -80.5 -32.5t-68 -82t-46.5 -107t-17 -108.5q0 -49 33 -49z" />
    <glyph glyph-name="A" unicode="A" horiz-adv-x="623" 
d="M-46 19l62 17l340 626l31 6l34 5l93 -638l59 -18l-3 -17h-232l4 18l91 17l-29 203h-238l-103 -200l93 -19l-4 -19h-202zM186 276h213l-45 321h-2z" />
    <glyph glyph-name="B" unicode="B" horiz-adv-x="554" 
d="M-36 0l4 18l85 17l117 594l-79 18l3 17h183q66 0 113 -11.5t77.5 -31t44.5 -44.5t14 -52q0 -41 -18.5 -71t-48 -51t-67 -33.5t-76.5 -18.5v-3q37 -2 72.5 -13.5t63 -31t44 -47.5t16.5 -62q0 -44 -19.5 -80t-57 -62t-91 -40.5t-121.5 -13.5zM423 185q0 45 -18.5 75
t-50 47.5t-73.5 24t-88 3.5l-57 -294q23 -8 53.5 -14.5t64.5 -6.5t64.5 9.5t53.5 30t37 51.5t14 74zM199 363l62 2q40 1 73.5 12t57.5 30t37.5 45.5t13.5 59.5q0 31 -13.5 56.5t-38 43t-59.5 26t-78 6.5z" />
    <glyph glyph-name="C" unicode="C" horiz-adv-x="668" 
d="M330 -16q-63 0 -115.5 19.5t-90 57t-58.5 91.5t-21 122q0 66 27 137t80 130.5t131.5 98t181.5 38.5q35 0 64.5 -5.5t54 -13.5t46 -18.5t40.5 -20.5l-27 -176h-16l-24 149q-26 25 -60.5 42.5t-81.5 17.5q-56 0 -114.5 -26t-106 -76.5t-77.5 -123.5t-30 -167
q0 -62 16.5 -109t45 -78t66 -46.5t80.5 -15.5q48 0 86.5 15t68.5 36l91 160h17l-51 -189q-18 -7 -40.5 -15.5t-50 -16t-60.5 -12.5t-72 -5z" />
    <glyph glyph-name="D" unicode="D" horiz-adv-x="686" 
d="M138 48q17 -10 45 -17t57 -7q89 0 153.5 32.5t106 83.5t61.5 114t20 125q0 61 -18 110.5t-57.5 84t-101.5 52.5t-150 16zM-32 18l85 17l117 594l-79 18l3 17h215q82 0 149 -18t114 -53t73 -86.5t26 -118.5q0 -72 -26 -141.5t-82.5 -125t-144 -89t-210.5 -33.5l-244 1z
" />
    <glyph glyph-name="E" unicode="E" horiz-adv-x="551" 
d="M193 331l-56 -286q8 -9 21.5 -13.5t42.5 -4.5h179l110 166h19l-66 -193h-477l4 18l85 17l115 594l-79 18l3 17h396l60 5l-25 -189h-16l-28 157h-228l-54 -275h147l52 107h17l-47 -239h-17l-11 101h-147z" />
    <glyph glyph-name="F" unicode="F" horiz-adv-x="516" 
d="M191 321l-56 -286l87 -17l-3 -18h-253l4 18l85 17l115 594l-79 18l3 17h396l60 5l-30 -197h-17l-22 165h-228l-57 -285h148l52 107h17l-47 -239h-17l-11 101h-147z" />
    <glyph glyph-name="G" unicode="G" horiz-adv-x="678" 
d="M128 260q0 -59 16.5 -105.5t45 -79t66.5 -50t80 -17.5q59 0 99.5 24t50.5 72l29 144l-103 18l3 17h250l-2 -17l-66 -18l-39 -198q-16 -10 -38 -22t-51 -22t-64.5 -17t-78.5 -7q-58 0 -109 21t-89.5 59t-60.5 90t-22 114q0 78 30 152t85 132t132.5 93t173.5 35
q34 0 62.5 -5t53 -13t46 -18t41.5 -21l-35 -171h-19l-15 150q-21 20 -55 36.5t-87 16.5q-59 0 -117.5 -29t-106 -81t-77 -124t-29.5 -159z" />
    <glyph glyph-name="H" unicode="H" horiz-adv-x="678" 
d="M371 18l86 17l59 301h-322l-59 -301l78 -17l-3 -18h-246l4 18l85 17l117 594l-79 18l3 17h247l-3 -17l-86 -18l-52 -263h322l52 263l-79 18l3 17h246l-3 -17l-85 -18l-117 -594l77 -17l-3 -18h-246z" />
    <glyph glyph-name="I" unicode="I" horiz-adv-x="274" 
d="M-32 18l85 17l117 594l-79 18l3 17h246l-3 -17l-85 -18l-117 -594l77 -17l-3 -18h-245z" />
    <glyph glyph-name="J" unicode="J" horiz-adv-x="283" 
d="M144 34q-11 -53 -25 -95t-41 -73.5t-70.5 -52.5t-111.5 -33l-5 19q40 15 68 33.5t47 44.5t31.5 60t21.5 81l120 611l-79 18l3 17h246l-3 -17l-85 -18z" />
    <glyph glyph-name="K" unicode="K" horiz-adv-x="614" 
d="M-32 18l85 17l117 594l-79 18l3 17h247l-3 -17l-86 -18l-117 -594l78 -17l-3 -18h-246zM579 0q-39 -4 -67 -4.5t-52 9t-47.5 31.5t-52.5 62t-67.5 101.5t-92.5 150.5v2l336 274l-78 21l3 17h214l-3 -17l-86 -21l-314 -248q54 -84 91.5 -142.5t64.5 -97t46 -60.5t35.5 -34
t33.5 -17.5t39 -9.5z" />
    <glyph glyph-name="L" unicode="L" horiz-adv-x="534" 
d="M135 45q8 -8 20.5 -13t41.5 -5h168l121 179h19l-72 -206h-469l4 18l85 17l117 594l-79 18l3 17h247l-3 -17l-86 -18z" />
    <glyph glyph-name="M" unicode="M" horiz-adv-x="822" 
d="M-39 18l85 17l146 594l-79 18l3 17h174l102 -522l297 502l8 20h165l-3 -17l-85 -18l-89 -594l77 -17l-3 -18h-245l4 18l86 17l83 548l-303 -511l-25 -47h-23l-6 47l-112 539l-130 -576l78 -17l-3 -18h-206z" />
    <glyph glyph-name="N" unicode="N" horiz-adv-x="672" 
d="M508 -14l-317 591l-102 -541l78 -18l-3 -18h-199l4 18l85 18l113 574q-9 12 -22 19t-27 11l-29 7l3 17h143l279 -521l91 484l-79 20l3 17h200l-3 -17l-85 -20l-99 -506l-20 -135h-14z" />
    <glyph glyph-name="O" unicode="O" horiz-adv-x="728" 
d="M435 678q63 0 114 -22.5t87.5 -61.5t56.5 -90.5t20 -109.5q0 -81 -30 -156t-82.5 -132t-124 -91.5t-153.5 -34.5q-59 0 -110 22t-88.5 60t-58.5 90.5t-21 113.5q0 81 30 155.5t82.5 131.5t123.5 91t154 34zM627 418q0 49 -12.5 91.5t-37 74t-60.5 50t-84 18.5
q-60 0 -115 -34.5t-96.5 -91.5t-66 -131.5t-24.5 -154.5q0 -49 12.5 -91.5t37 -74t60.5 -50t84 -18.5q61 0 116 35.5t96.5 93.5t65.5 132t24 151z" />
    <glyph glyph-name="P" unicode="P" horiz-adv-x="531" 
d="M230 336q47 0 89.5 9.5t74.5 29t51 50.5t19 75q0 31 -13 57.5t-39 46t-64.5 30.5t-89.5 11l-120 -610l98 -17l-3 -18h-266l4 18l85 17l117 594l-79 18l3 17h222q44 -1 85.5 -10.5t73.5 -29t51.5 -49t19.5 -68.5q0 -50 -26 -88t-70 -63t-102.5 -35.5t-124.5 -5.5z" />
    <glyph glyph-name="Q" unicode="Q" horiz-adv-x="728" 
d="M435 678q63 0 114 -22.5t87.5 -61.5t56.5 -90.5t20 -109.5q0 -77 -28.5 -148.5t-77 -127.5t-114 -92t-140.5 -42q44 -34 82.5 -64t75 -52t72 -34.5t74.5 -12.5q47 0 92.5 17t93.5 49l8 -10q-16 -14 -38 -32.5t-50 -35t-61.5 -28.5t-71.5 -12q-53 0 -100.5 16.5t-95 46.5
t-96.5 72t-106 94q-40 14 -74.5 39.5t-59.5 60t-39 77.5t-14 91q0 81 30 155.5t82.5 131.5t123.5 91t154 34zM627 420q0 48 -12.5 90.5t-37 74t-60.5 49.5t-84 18q-60 0 -115 -34.5t-96.5 -91.5t-66 -130.5t-24.5 -152.5q0 -50 12.5 -93.5t37 -75.5t60.5 -50.5t84 -18.5
q61 0 116 35.5t96.5 94t65.5 133t24 152.5z" />
    <glyph glyph-name="R" unicode="R" horiz-adv-x="593" 
d="M-32 18l85 17l117 594l-79 18l3 17h227q46 0 85 -10t67.5 -28.5t44 -45.5t15.5 -61q0 -43 -17.5 -74.5t-44.5 -53t-60 -35t-64 -21.5q29 -71 50 -120.5t37.5 -83t30.5 -53.5t29 -31.5t32.5 -18t42.5 -12.5l-3 -16q-41 -4 -69.5 -5t-50.5 7t-39.5 27.5t-36.5 56t-42.5 93
t-56.5 138.5h-81l-55 -282l92 -19l-3 -16h-260zM195 343q62 -3 109.5 7.5t79.5 32.5t48.5 54t16.5 70q0 29 -11 55t-34.5 44.5t-60.5 29t-89 8.5z" />
    <glyph glyph-name="S" unicode="S" horiz-adv-x="480" 
d="M60 224l11 -158q24 -22 53.5 -37.5t74.5 -15.5q31 0 60 9t51.5 27t36 44t13.5 60q0 45 -26 78.5t-78 68.5l-35 23q-32 21 -54 39.5t-36 37t-20 39t-6 47.5q0 38 19.5 73t52.5 61.5t77 42t94 15.5q38 0 77 -10.5t69 -21.5l-36 -176h-16l-6 141q-23 17 -49.5 27.5
t-63.5 10.5q-33 0 -59.5 -10t-45.5 -27.5t-29 -40.5t-10 -49q0 -24 5.5 -41.5t16.5 -32t28 -28t41 -29.5l25 -16q36 -24 63 -45.5t45 -42.5t27 -43.5t9 -49.5q0 -43 -20.5 -81t-55.5 -66.5t-81 -45t-96 -16.5q-25 0 -50.5 4.5t-48.5 11.5t-43 15.5t-33 15.5l34 192h15z" />
    <glyph glyph-name="T" unicode="T" horiz-adv-x="602" 
d="M595 664l59 6l-48 -190h-17l-1 157h-172l-119 -602l88 -17l-3 -18h-266l4 18l95 17l119 602h-164l-73 -157h-17l31 190l60 -6h424z" />
    <glyph glyph-name="U" unicode="U" horiz-adv-x="639" 
d="M285 -14q-55 0 -100.5 16.5t-74.5 53t-38 95.5t8 143l69 335l-66 18l3 17h234l-3 -17l-86 -18l-74 -359q-12 -61 -5.5 -105.5t28 -73.5t54.5 -43t74 -14q42 0 78.5 12.5t65.5 41t50 75.5t34 115l67 349l-78 20l3 17h187l-3 -17l-73 -21l-74 -370q-12 -60 -34.5 -109.5
t-57 -85.5t-81.5 -55.5t-107 -19.5z" />
    <glyph glyph-name="V" unicode="V" horiz-adv-x="562" 
d="M102 631l-56 16l3 17h224l-3 -17l-86 -18l81 -525h4l295 525l-80 18l3 17h182l-4 -17l-62 -19l-369 -639h-26z" />
    <glyph glyph-name="W" unicode="W" horiz-adv-x="822" 
d="M449 477l-252 -483h-34l-61 637l-56 16l3 17h223l-3 -17l-86 -18l45 -518l214 415l-13 105l-69 16l3 17h235l-3 -17l-87 -18l64 -526l240 526l-80 18l3 17h187l-4 -17l-62 -19l-308 -634h-36z" />
    <glyph glyph-name="X" unicode="X" horiz-adv-x="639" 
d="M36 34l267 298l-126 297l-67 18l3 17h239l-3 -17l-86 -18l101 -244h2l206 244l-77 18l4 17h198l-3 -17l-76 -19l-240 -274l136 -319l64 -17l-4 -18h-237l4 18l88 17l-112 266h-2l-229 -266l77 -17l-3 -18h-196l4 18z" />
    <glyph glyph-name="Y" unicode="Y" horiz-adv-x="592" 
d="M354 296l-52 -261l77 -17l-3 -18h-245l4 18l85 17l51 255l-133 341l-56 16l3 17h227l-3 -17l-86 -18l113 -306h3l220 306l-80 18l3 17h185l-4 -17l-62 -19z" />
    <glyph glyph-name="Z" unicode="Z" horiz-adv-x="594" 
d="M-6 13l510 623h-310l-85 -177h-17l36 211l70 -6h415v-7l-516 -629h339l108 178h19l-65 -212l-64 6h-442z" />
    <glyph glyph-name="bracketleft" unicode="[" horiz-adv-x="291" 
d="M25 -181l181 914h164l-5 -25h-98l-169 -864h98l-6 -25h-165z" />
    <glyph glyph-name="backslash" unicode="\" horiz-adv-x="411" 
d="M324 -205l-202 944l27 7l203 -945z" />
    <glyph glyph-name="bracketright" unicode="]" horiz-adv-x="291" 
d="M273 733l-181 -914h-164l5 25h98l170 864h-98l5 25h165z" />
    <glyph glyph-name="asciicircum" unicode="^" horiz-adv-x="401" 
d="M104 485l189 271h18l91 -271h-26l-86 206l-155 -206h-31z" />
    <glyph glyph-name="underscore" unicode="_" horiz-adv-x="396" 
d="M-69 -165h383l-7 -34h-384z" />
    <glyph glyph-name="grave" unicode="`" horiz-adv-x="235" 
d="M183 752l28 -208h-22l-74 197v11h68z" />
    <glyph glyph-name="a" unicode="a" horiz-adv-x="472" 
d="M455 504l-124 -446h3q26 20 54 50t48 58l14 -8q-19 -32 -41 -62.5t-44 -54t-43 -38t-37 -14.5q-8 0 -15.5 3.5t-12 12t-4.5 22.5t6 35l46 149h-4q-23 -36 -49.5 -75.5t-55 -72.5t-59 -54.5t-62.5 -21.5q-33 0 -54.5 23t-18.5 74q3 55 21 105t45 92.5t60 77t67 58.5t66 37
t57 13q23 0 41 -5.5t32 -13.5l34 56h30zM114 41q16 0 37.5 16t44 42t45.5 58t42 64t33.5 60t20.5 47l24 73q-27 38 -61 38q-36 0 -72.5 -30t-67 -79t-51.5 -110t-24 -123q-2 -32 7 -44t22 -12z" />
    <glyph glyph-name="b" unicode="b" horiz-adv-x="443" 
d="M133 -14q-29 0 -62.5 16t-59.5 53l-5 7l161 606l-61 41l2 7l152 30l-124 -470h6q24 41 50 77.5t54 64t57.5 43.5t60.5 16q38 0 57 -32t17 -86q-1 -36 -13 -78t-33 -83.5t-49 -79.5t-62 -67.5t-71.5 -47t-76.5 -17.5zM81 67q8 -19 26 -37.5t50 -18.5q34 0 68 30.5
t61.5 77.5t45.5 104.5t21 111.5q2 40 -7.5 62.5t-30.5 22.5q-19 0 -39.5 -13.5t-41.5 -36t-41 -51t-37 -58t-30 -57.5t-19 -49z" />
    <glyph glyph-name="c" unicode="c" horiz-adv-x="366" 
d="M249 435q-26 0 -54 -28.5t-51.5 -73t-38.5 -97.5t-15 -101q0 -44 18.5 -67.5t47.5 -23.5q23 0 43.5 10t39.5 27t37.5 40t37.5 49l17 -10q-18 -31 -39 -62t-47 -56t-57 -40.5t-69 -15.5q-51 0 -80 37t-29 91q0 40 11.5 82.5t33.5 84t53.5 79.5t71.5 69q29 23 63 36t70 13
q32 0 54 -15.5t22 -35.5q0 -11 -8.5 -26.5t-16.5 -23.5q-23 24 -54 41t-61 17z" />
    <glyph glyph-name="d" unicode="d" horiz-adv-x="485" 
d="M302 478q26 0 45.5 -5.5t33.5 -13.5l54 209l-74 41l2 7l165 30l-181 -688h3q26 20 54 50t48 58l14 -8q-19 -32 -41 -62.5t-44.5 -54t-43 -38t-35.5 -14.5q-8 0 -16 3.5t-12.5 12t-4.5 22.5t6 35l44 147h-4q-15 -24 -40 -61.5t-55.5 -73t-65.5 -61.5t-69 -26
q-15 0 -30.5 6t-27.5 19.5t-19 35.5t-5 54q4 66 29 133t65.5 121t93 88t111.5 34zM364 394q-11 24 -31.5 40t-45.5 16q-36 0 -70.5 -28.5t-62 -75t-45.5 -106.5t-21 -123q-3 -44 9.5 -61t27.5 -17q21 0 54 29t67 73.5t63 97t41 99.5z" />
    <glyph glyph-name="e" unicode="e" horiz-adv-x="361" 
d="M121 -14q-57 0 -85 37.5t-28 96.5q0 39 13 79.5t34.5 79.5t50 73.5t58.5 60.5q41 35 76.5 49.5t67.5 14.5q35 0 52 -16t17 -44q0 -31 -25.5 -60t-65.5 -53.5t-89.5 -42.5t-96.5 -26q-6 -24 -9.5 -49t-3.5 -51q0 -38 18 -65.5t56 -27.5q30 0 65.5 26t66.5 78l18 -7
q-14 -30 -33 -57.5t-42.5 -49t-52.5 -34t-62 -12.5zM268 443q-19 0 -41.5 -13.5t-44.5 -38t-42 -58.5t-33 -75q30 6 64 20.5t62.5 35t47.5 45t19 51.5q0 17 -9 25t-23 8z" />
    <glyph glyph-name="f" unicode="f" horiz-adv-x="272" 
d="M43 463h81q15 51 45 101t67.5 89.5t79 64.5t78.5 25q33 0 58.5 -14t25.5 -37q0 -14 -8.5 -28.5t-16.5 -22.5q-27 23 -53.5 37.5t-58.5 14.5q-14 0 -31.5 -7.5t-37 -32t-39 -70t-35.5 -120.5h130l-9 -38h-129l-68 -338q-18 -92 -42.5 -158.5t-53.5 -110t-62 -64t-68 -20.5
q-12 0 -25 4t-23.5 11t-17 17.5t-6.5 23.5q0 17 10 29t20 22q26 -39 44 -55.5t35 -16.5q15 0 27 11.5t24.5 46.5t28 99.5t36.5 169.5l66 329h-79z" />
    <glyph glyph-name="g" unicode="g" horiz-adv-x="394" 
d="M256 477q17 0 33 -5t22 -10l140 13l-13 -55l-97 10l1 -4q6 -11 12.5 -33t6.5 -51q0 -41 -16 -81t-44 -72t-66.5 -51.5t-83.5 -20.5q-17 -9 -27 -21.5t-10 -26.5q0 -15 10 -23l150 -82q25 -14 40 -26t23 -22.5t10 -20t2 -18.5q0 -25 -19 -49.5t-53 -44t-79.5 -31.5
t-97.5 -12q-87 0 -139 20.5t-52 65.5q0 24 16.5 44.5t44.5 38t65 31.5t79 25v1l-25 13q-20 11 -29.5 24.5t-9.5 34.5q0 27 19 46.5t47 34.5v3q-20 7 -34 21.5t-23 32.5t-13 38t-4 37q0 40 15.5 80.5t43.5 72.5t67.5 52.5t87.5 20.5zM250 453q-26 0 -50.5 -21t-44 -54
t-32 -73.5t-14.5 -79.5q-2 -36 7 -60t36 -24q26 0 51 21.5t44.5 55t32 73.5t14.5 77q2 40 -7 62.5t-37 22.5zM135 -46q-77 -26 -111 -49t-34 -56q0 -32 37 -55.5t123 -23.5q61 0 96.5 23.5t37.5 50.5q0 8 -3 15.5t-11.5 15.5t-24.5 18t-41 24z" />
    <glyph glyph-name="h" unicode="h" horiz-adv-x="466" 
d="M138 266h6q22 39 49 77t56 68t60 48t62 18q37 0 49.5 -25t2.5 -60l-93 -334h3q26 20 53.5 49.5t48.5 58.5l14 -8q-19 -32 -41 -62.5t-44.5 -54t-43 -38t-36.5 -14.5q-8 0 -15.5 3.5t-12 11t-5.5 19t4 28.5l97 339q3 14 -2 22.5t-18 8.5q-24 0 -57 -25.5t-67 -70.5
t-65 -107t-52 -135l-22 -78l-60 -17l-14 12l177 668l-61 41l2 7l152 30z" />
    <glyph glyph-name="i" unicode="i" horiz-adv-x="231" 
d="M124 416q-11 5 -33 6t-48 -7v11q19 17 46 34t55 17q30 0 43 -21t2 -59l-95 -339h3q11 7 25 20t28.5 28t27.5 31t21 29l14 -8q-18 -30 -39.5 -60.5t-44 -54.5t-44 -39t-37.5 -15q-22 0 -29.5 17.5t0.5 45.5zM135 645q0 20 14 34t34 14t34 -14t14 -34t-14 -34t-34 -14
t-34 14t-14 34z" />
    <glyph glyph-name="j" unicode="j" horiz-adv-x="220" 
d="M125 416q-11 5 -33 6t-48 -7v11q19 17 46 34t55 17q30 0 42 -21t3 -59l-103 -436q-8 -34 -26.5 -73t-45 -72t-60.5 -55t-72 -22q-12 0 -25 4t-23.5 11t-17 17.5t-6.5 23.5q0 18 10 29.5t20 21.5q26 -39 44 -55.5t36 -16.5q23 0 43 28t37 99zM135 645q0 20 14 34t34 14
t34 -14t14 -34t-14 -34t-34 -14t-34 14t-14 34z" />
    <glyph glyph-name="k" unicode="k" horiz-adv-x="422" 
d="M331 -33q-25 0 -42.5 11.5t-32.5 30.5l-136 167q-8 -20 -14.5 -39.5t-11.5 -39.5l-25 -92l-60 -17l-14 12l177 668l-61 41l2 7l152 30l-127 -480h5q21 42 45.5 80.5t52 67.5t58 46t64.5 17q27 0 47 -17.5t20 -48.5q0 -61 -62 -110.5t-180 -107.5l186 -211v-3
q-4 -3 -15 -7.5t-28 -4.5zM324 420q-24 0 -51 -20t-54 -53t-52 -76t-44 -89q109 53 172 101.5t63 98.5q0 17 -8 27.5t-26 10.5z" />
    <glyph glyph-name="l" unicode="l" horiz-adv-x="237" 
d="M212 158q-15 -27 -36.5 -57t-44.5 -55t-45 -41t-39 -16q-22 0 -29.5 17t0.5 45l164 617l-61 41l2 7l152 30l-182 -688h3q26 19 53 48t49 60z" />
    <glyph glyph-name="m" unicode="m" horiz-adv-x="721" 
d="M125 416q-13 5 -37.5 5t-43.5 -6v10q21 21 50 36.5t57 15.5q27 0 40 -20.5t4 -50.5l-41 -137h4q23 42 49.5 79.5t55 66t59 45.5t60.5 17q33 0 49 -24t-2 -80l-33 -104h4q24 41 51 79t56 66.5t59 45.5t60 17q38 0 50 -25t2 -60l-93 -334h3q26 20 54 50t48 58l14 -8
q-19 -32 -41 -62.5t-44 -54t-43 -38t-37 -14.5q-8 0 -15.5 3.5t-12 11t-5.5 19t4 28.5l97 339q3 14 -2 22.5t-18 8.5q-23 0 -55 -23.5t-65 -66t-64.5 -102.5t-52.5 -133l-26 -91l-61 -18l-13 12l113 391q2 14 -2.5 22.5t-17.5 8.5q-23 0 -55 -23.5t-65.5 -66t-64.5 -103
t-52 -133.5l-26 -90l-62 -17l-14 12z" />
    <glyph glyph-name="n" unicode="n" horiz-adv-x="477" 
d="M125 416q-13 5 -37.5 5t-43.5 -6v10q21 21 50 36.5t57 15.5q27 0 40 -20.5t4 -50.5l-41 -137h4q23 42 50 79.5t55.5 66t58.5 45.5t60 17q37 0 49.5 -25t2.5 -60l-93 -334h3q26 20 54 50t48 58l14 -8q-19 -32 -41 -62.5t-44 -54t-43 -38t-37 -14.5q-8 0 -15.5 3.5t-12 11
t-5.5 19t4 28.5l97 339q3 14 -2 22.5t-18 8.5q-23 0 -55 -23.5t-65 -66t-64.5 -103t-52.5 -133.5l-26 -90l-62 -17l-14 12z" />
    <glyph glyph-name="o" unicode="o" horiz-adv-x="430" 
d="M274 457q-38 0 -71.5 -34.5t-58.5 -87t-39.5 -114t-14.5 -115.5q0 -45 12.5 -72.5t44.5 -27.5q26 0 50.5 16.5t45.5 44t38.5 63.5t30 74.5t19.5 77t7 72.5q0 42 -16 72.5t-48 30.5zM279 477q36 0 61.5 -12t41 -33.5t23 -51t7.5 -63.5q0 -51 -18.5 -109t-53 -107.5
t-83.5 -82t-111 -32.5q-34 0 -58.5 13t-40.5 35.5t-23.5 53.5t-7.5 67q0 47 17.5 103t51 105t82.5 81.5t112 32.5z" />
    <glyph glyph-name="p" unicode="p" horiz-adv-x="444" 
d="M111 381q-19 -11 -40.5 -25t-47.5 -31l-6 12q23 20 48.5 39.5t53.5 36.5l23 89h57l-13 -53q29 12 57 19.5t55 7.5q60 0 96.5 -33.5t36.5 -93.5q0 -65 -25 -130t-65.5 -116.5t-91.5 -83.5t-103 -32q-18 0 -33 4t-27 11l-54 -215l127 -12l-5 -22h-268l4 13l71 25zM163 11
q33 0 66.5 29t60 74.5t43.5 101.5t17 109q0 57 -28 83t-69 26q-28 0 -61 -12l-93 -369q8 -16 24 -29t40 -13z" />
    <glyph glyph-name="q" unicode="q" horiz-adv-x="451" 
d="M282 101q6 25 11.5 45t10.5 34q5 17 11 29h-6q-9 -15 -22 -37.5t-30.5 -47t-37.5 -49t-41.5 -44t-44.5 -32t-45 -12.5q-15 0 -30 5.5t-27.5 18t-20 32t-7.5 46.5q0 42 12 87.5t32.5 88.5t49 82t61 68t68 46t71.5 17q32 0 55 -9.5t37 -19.5l11 43h56l-179 -705l89 -7
l-5 -27h-245l3 15l88 21zM128 38q20 0 51.5 29.5t64.5 74t61 97t40 99.5l14 56q-15 27 -34 42t-43 15q-34 0 -69 -31.5t-63.5 -82t-46.5 -112.5t-18 -122q0 -35 12.5 -50t30.5 -15z" />
    <glyph glyph-name="r" unicode="r" horiz-adv-x="350" 
d="M39 117q22 76 37.5 131.5t26.5 93.5q12 43 20 74q-13 5 -37.5 5t-43.5 -6v10q21 21 50 36.5t57 15.5q32 0 42 -22.5t-1 -57.5l-54 -171h8q37 79 66.5 128t53.5 76.5t44 37t38 9.5q20 0 32 -11.5t12 -30.5q0 -23 -15.5 -47.5t-35.5 -41.5h-17q22 68 -15 68q-12 0 -28 -14
t-33.5 -37.5t-36.5 -54.5t-36.5 -65.5t-33 -70.5t-26.5 -69l-32 -98l-62 -17l-14 12z" />
    <glyph glyph-name="s" unicode="s" horiz-adv-x="294" 
d="M244 126q0 -22 -14 -46.5t-37.5 -45.5t-53.5 -34.5t-62 -13.5q-25 0 -43.5 6.5t-31 17t-18 22.5t-5.5 24q0 16 7.5 30.5t14.5 19.5h1q22 -32 54 -55.5t66 -23.5q26 0 41.5 17t15.5 40q0 20 -10.5 38.5t-22.5 38.5l-42 71q-14 23 -22.5 37.5t-13.5 25.5t-7 20t-2 20
q0 29 18.5 55t45 45.5t56 30.5t52.5 11q42 0 57 -17t15 -38q0 -24 -19 -48h-2q-25 27 -48.5 44t-52.5 17q-23 0 -40.5 -16t-17.5 -42q0 -8 1 -14.5t4 -14t8.5 -17.5t14.5 -25l52 -85q22 -35 31.5 -54t9.5 -41z" />
    <glyph glyph-name="t" unicode="t" horiz-adv-x="295" 
d="M39 447l87 16l60 137h39l-30 -137h141l-8 -38h-142l-97 -367h2q13 5 30.5 17t36.5 29t39.5 38.5t39.5 45.5l15 -11q-19 -30 -44.5 -63.5t-53.5 -61t-56.5 -45.5t-53.5 -18q-19 0 -28.5 15t-4.5 34l103 387h-79z" />
    <glyph glyph-name="u" unicode="u" horiz-adv-x="484" 
d="M122 416q-13 5 -37.5 5t-43.5 -6v10q21 21 50 36.5t57 15.5q30 0 39 -23t1 -55l-87 -328q-2 -11 3.5 -19.5t19.5 -8.5q16 0 38 16t45.5 42t47 60t44.5 70t36.5 72t23.5 67l24 93l66 6l7 -8l-107 -403h3q11 8 24.5 20.5t27.5 27t27 30t23 30.5l14 -8q-18 -30 -39.5 -60.5
t-44 -54.5t-43.5 -39t-38 -15q-15 0 -27 13t-3 46l51 182h-4q-23 -42 -48.5 -85.5t-54.5 -78.5t-61.5 -57t-68.5 -22q-14 0 -26.5 5t-21.5 14.5t-13 24t1 32.5z" />
    <glyph glyph-name="v" unicode="v" horiz-adv-x="397" 
d="M167 70h3q58 74 92.5 123.5t53.5 83t25 55t6 39.5q0 26 -16 40.5t-41 14.5q-17 0 -31 -3.5t-22 -6.5v11q28 26 52.5 38t45.5 12q29 0 47.5 -18.5t18.5 -47.5q0 -23 -6 -46.5t-24 -56t-51 -78t-86 -111.5l-108 -133h-9l-18 11l-6 418q-15 6 -36 6q-23 0 -41 -5v11
q28 26 54.5 38t47.5 12q26 0 37.5 -17.5t12.5 -52.5z" />
    <glyph glyph-name="w" unicode="w" horiz-adv-x="616" 
d="M389 74h3q52 66 85.5 114t53 82.5t27.5 58.5t8 42q0 26 -16 40.5t-41 14.5q-17 0 -31 -3.5t-22 -6.5v11q28 26 52 38t46 12q29 0 47.5 -18.5t18.5 -47.5q0 -23 -7 -46.5t-25.5 -55.5t-51 -77.5t-83.5 -112.5l-102 -133h-8l-26 11l3 243h-3q-31 -44 -66.5 -90.5
t-75.5 -103.5l-41 -60h-9l-28 11l-1 417q-6 2 -15.5 4.5t-24.5 2.5q-10 0 -20 -1t-20 -4v11q24 22 50 36t52 14q28 0 41 -17t12 -64l-4 -323h3q16 22 36.5 50t41 57t39 56.5t31.5 47.5l-2 126q-5 5 -15 9t-24 4q-9 0 -19.5 -2t-21.5 -5v11q54 50 102 50q25 0 36 -18.5
t12 -64.5z" />
    <glyph glyph-name="x" unicode="x" horiz-adv-x="434" 
d="M252 -11q-17 0 -25.5 11t-11.5 28l-30 154l-40 -61q-27 -41 -47 -67t-35.5 -41t-29.5 -20.5t-30 -5.5q-17 0 -33 11.5t-16 35.5q0 11 5.5 22t13.5 22l13 -12q18 -17 33.5 -21t32.5 7.5t39.5 39.5t55.5 76l32 46l-29 153q-5 23 -11 36t-21 13q-6 0 -14 -4t-16.5 -16
t-17.5 -33.5t-17 -57.5h-18q5 38 16 69.5t27 54.5t35 35.5t40 12.5q31 0 45.5 -20.5t22.5 -65.5l17 -100l67 111q25 41 45.5 58t47.5 17q24 0 36.5 -11.5t12.5 -29.5q0 -29 -18 -49.5t-34 -34.5h-19q9 12 12.5 24.5t2.5 23t-6 17t-13 6.5q-5 0 -11 -3t-14 -12t-19.5 -24.5
t-27.5 -40.5l-56 -84l37 -210h2q13 4 29.5 18t33 31t32 35.5t25.5 32.5l14 -8q-19 -32 -41 -62.5t-44 -54t-43 -38t-37 -14.5z" />
    <glyph glyph-name="y" unicode="y" horiz-adv-x="435" 
d="M12 305q4 37 14.5 69t25.5 55t34.5 35.5t41.5 12.5q48 -1 75.5 -62t27.5 -167q0 -87 -13.5 -157t-31.5 -124h5q38 43 70.5 89.5t56 94.5t36.5 96t13 93t-14.5 75t-28.5 48q24 15 52 15q17 0 32 -15.5t14 -57.5q-1 -80 -31.5 -160.5t-78 -154.5t-106 -138t-115 -111
t-105.5 -74t-78 -27q-22 0 -36 12.5t-14 34.5q0 21 13 35t33 14q21 0 35 -12.5t20 -41.5h2q55 21 92.5 70.5t60.5 113t33 133t10 129.5q0 52 -5.5 88t-14 58t-19 31.5t-21.5 9.5q-23 0 -37.5 -25.5t-29.5 -84.5h-18z" />
    <glyph glyph-name="z" unicode="z" horiz-adv-x="398" 
d="M423 458l-334 -352l138 -52q21 -8 37 -6.5t30.5 12t30 28.5t36.5 44l16 -9q-21 -33 -39 -60t-35 -45.5t-35 -28.5t-40 -10q-11 0 -21.5 2.5t-34.5 12.5l-136 54l-53 -68l-29 22l344 363l-136 52q-31 12 -46 10.5t-21 -9.5q-20 -25 37 -76q-14 -16 -26 -24t-29 -8
q-15 0 -27 11t-12 33q0 21 13.5 43.5t34.5 41t45.5 30t47.5 11.5q20 0 34.5 -3t34.5 -11l104 -43l45 57z" />
    <glyph glyph-name="braceleft" unicode="{" horiz-adv-x="326" 
d="M125 286q17 -7 31 -17t22.5 -26.5t10 -42t-5.5 -62.5l-31 -166q-9 -45 -8 -72.5t10.5 -42t27.5 -19t44 -4.5l-2 -15h-16q-50 0 -80 10.5t-43.5 33t-12 58.5t16.5 87l51 178q7 23 4 40t-13 27.5t-25.5 16t-33.5 5.5l-36 1l6 29l35 1q46 1 69 19t28 54l25 202q4 34 15.5 62
t33.5 48t56 31t84 11h13l-3 -15q-26 0 -45.5 -4.5t-34.5 -19t-26.5 -41.5t-20.5 -73l-31 -156q-12 -61 -42 -94t-72 -40z" />
    <glyph glyph-name="bar" unicode="|" horiz-adv-x="238" 
d="M14 -200l187 933h33l-185 -933h-35z" />
    <glyph glyph-name="braceright" unicode="}" horiz-adv-x="321" 
d="M207 266q-17 7 -31 17t-22.5 26.5t-10 41.5t5.5 63l31 166q9 45 8 72.5t-10.5 42t-27.5 19t-44 4.5l2 15h16q49 0 79.5 -10.5t44 -33t11.5 -58t-16 -86.5l-51 -179q-7 -23 -4 -40t13 -27.5t25.5 -16t33.5 -5.5l36 -1l-6 -29l-35 -1q-46 -1 -69 -19t-28 -54l-25 -202
q-4 -34 -15.5 -62t-33.5 -48t-56.5 -31t-83.5 -11h-13l3 15q26 0 45.5 4.5t34.5 19t26.5 41.5t20.5 73l31 156q12 61 42 94t72 40z" />
    <glyph glyph-name="asciitilde" unicode="~" horiz-adv-x="461" 
d="M31 198l4 10q17 42 38 66.5t44.5 35.5t50 9t53.5 -12l77 -29q31 -12 53 -13t38 6.5t27.5 23t22.5 36.5l17 -6l-4 -10q-29 -72 -74 -98.5t-112 -0.5l-65 25q-62 25 -96 12t-57 -61z" />
    <glyph glyph-name="uni00A0" unicode="&#xa0;" horiz-adv-x="170" 
 />
    <glyph glyph-name="exclamdown" unicode="&#xa1;" horiz-adv-x="226" 
d="M-3 -134l134 505h20l-68 -505h-86zM165 569q25 0 42 -17t17 -42t-17 -42t-42 -17t-42 17t-17 42t17 42t42 17z" />
    <glyph glyph-name="cent" unicode="&#xa2;" horiz-adv-x="381" 
d="M148 -11q-14 -3 -29 -3q-27 0 -47 10.5t-33.5 28t-20.5 41t-7 49.5q0 40 11 82t33 83.5t54 79.5t73 70q28 22 67 36l27 125h28l-25 -118q16 4 38 4q29 0 51.5 -13.5t22.5 -36.5q0 -8 -3.5 -17t-8.5 -17q-5 -9 -12 -17q-18 23 -45.5 41.5t-49.5 21.5l-84 -394
q36 11 65.5 46t62.5 78l16 -9q-15 -25 -31 -50t-34.5 -47t-40.5 -39.5t-49 -27.5l-24 -115h-27zM90 138q0 -27 5.5 -45.5t15 -30.5t22 -17t24.5 -5h2l84 396q-29 -9 -56 -40t-48.5 -73t-34.5 -91t-14 -94z" />
    <glyph glyph-name="sterling" unicode="&#xa3;" horiz-adv-x="543" 
d="M78 292h119l27 107q17 68 46.5 116.5t62.5 79t65.5 44.5t56.5 14q17 0 33.5 -5.5t29 -15t20.5 -22t8 -27.5q0 -35 -56 -52q-6 31 -15 49t-18.5 27.5t-19 12.5t-16.5 3q-26 0 -51 -28.5t-43 -100.5l-50 -202h175l-6 -26h-176l-4 -18q-11 -43 -27 -77.5t-35.5 -62
t-41 -48.5t-43.5 -36q35 -17 69.5 -38.5t62.5 -41.5l34 -23q38 -27 63 -44t41.5 -27t27.5 -14t20 -4q15 0 24.5 11t13.5 29.5t2.5 42t-8.5 47.5q29 5 49 -2.5t20 -36.5q0 -14 -9.5 -34t-28.5 -39.5t-46.5 -33t-64.5 -13.5q-29 0 -60.5 14.5t-63.5 36.5t-63.5 48.5
t-61.5 50.5l-56 49q-23 -11 -42.5 -15.5t-33.5 -4.5q-21 0 -33 9.5t-12 24.5q0 17 14.5 27.5t36.5 10.5q17 0 37.5 -5.5t42.5 -14.5q23 21 43 58.5t35 96.5l19 77h-118z" />
    <glyph glyph-name="yen" unicode="&#xa5;" horiz-adv-x="497" 
d="M44 291h168l-115 312l-46 16l3 17h217l-3 -17l-86 -18l92 -288h4l201 288l-80 18l3 17h173l-4 -17l-52 -19l-224 -309h163l-5 -27h-164l-15 -76h164l-5 -27h-164l-25 -126l77 -18l-3 -17h-245l4 19l85 16l25 126h-168l5 27h168l15 76h-168z" />
    <glyph glyph-name="brokenbar" unicode="&#xa6;" horiz-adv-x="238" 
d="M117 313l85 420h31l-84 -420h-32zM15 -200l83 417h32l-82 -417h-33z" />
    <glyph glyph-name="section" unicode="&#xa7;" horiz-adv-x="453" 
d="M190 -73q0 9 -2.5 20.5t-8 29t-14.5 43t-22 62.5l-46 130q-11 29 -15.5 60t-4.5 45q0 47 19.5 91.5t51.5 83t71.5 70.5t79.5 55.5t76.5 36t62.5 12.5q32 0 45.5 -12t13.5 -29q0 -15 -13 -27.5t-30 -14.5q-11 13 -30 21t-40 8q-17 0 -45 -7.5t-60 -24.5q-11 -12 -15.5 -25
t-4.5 -33q0 -9 2.5 -20.5t8 -29t14.5 -43t22 -62.5l46 -130q11 -29 15.5 -60t4.5 -45q0 -47 -19.5 -91.5t-51.5 -83t-72 -70.5t-80.5 -55.5t-78 -36t-64.5 -12.5q-28 0 -39.5 15.5t-11.5 28.5q0 15 11.5 26t28.5 13q11 -13 30 -21t40 -8q17 0 45 7.5t59 24.5q11 12 16 25
t5 33zM148 356q0 -32 10 -68.5t21 -69.5l33 -95q10 -31 16 -53t9 -37.5t4 -25t1 -15.5q0 -30 -10 -54.5t-18 -34.5h5q34 30 58 76.5t24 113.5q0 32 -10 68.5t-21 69.5l-33 95q-21 61 -25.5 90.5t-4.5 40.5q0 34 8.5 56.5t16.5 32.5h-3q-34 -30 -57.5 -76.5t-23.5 -113.5z
" />
    <glyph glyph-name="dieresis" unicode="&#xa8;" 
d="M196 600q-19 0 -31.5 13t-12.5 32t12.5 32.5t31.5 13.5q20 0 33.5 -13.5t13.5 -32.5t-13.5 -32t-33.5 -13zM347 600q-19 0 -32 13t-13 32t13 32.5t32 13.5t32.5 -13.5t13.5 -32.5t-13.5 -32t-32.5 -13z" />
    <glyph glyph-name="copyright" unicode="&#xa9;" horiz-adv-x="802" 
d="M66 324q2 72 31 135t77 109.5t111.5 73.5t135.5 27q71 0 133 -27t107.5 -73.5t70.5 -109.5t23 -135t-31.5 -134.5t-77.5 -109t-112 -73t-135 -26.5q-72 0 -134 26.5t-107 73t-70 109t-22 134.5zM91 324q-2 -67 21 -126t65 -102.5t99 -68.5t123 -25t125 25.5t104 69
t72 102t29 125.5t-21.5 126t-65.5 102.5t-99 69t-123 25.5t-125 -25.5t-103.5 -69t-71.5 -102.5t-29 -126zM409 131q-53 0 -89.5 18.5t-58.5 47.5t-30 63.5t-5 67.5q4 40 23 74.5t49.5 60t72 40.5t89.5 15q35 0 67 -10.5t51 -21.5l-17 -108h-12l-17 95q-15 11 -35 19t-43 8
q-28 0 -54 -11t-46.5 -32t-34.5 -50.5t-18 -66.5q-9 -88 22.5 -139t95.5 -51q21 0 40 7.5t35 19.5l43 102h13l-12 -109q-35 -18 -62 -28.5t-67 -10.5z" />
    <glyph glyph-name="ordfeminine" unicode="&#xaa;" horiz-adv-x="436" 
d="M426 629l-97 -351l3 -1q11 6 24 16t25.5 22.5t24 26t20.5 25.5l12 -7q-13 -24 -29.5 -46.5t-35 -40.5t-37.5 -29t-38 -11q-21 0 -27 17t1 43l29 108h-4q-12 -20 -31.5 -49.5t-43.5 -56.5t-52 -46t-58 -19q-23 0 -38.5 18t-15.5 47q0 35 11.5 73t31 74t45.5 68.5t55 57
t59.5 39t58.5 14.5q20 0 35.5 -6t25.5 -16l16 30h30zM155 286q18 0 44.5 24t52.5 58.5t47.5 71.5t29.5 64l18 55q-20 34 -56 34q-25 0 -53.5 -25.5t-52.5 -65.5t-40 -89t-16 -96q0 -14 7.5 -22.5t18.5 -8.5z" />
    <glyph glyph-name="guillemotleft" unicode="&#xab;" horiz-adv-x="407" 
d="M227 363l-157 -162l106 -154l-17 -14l-155 164v9l210 173zM379 363l-157 -162l106 -154l-17 -14l-155 164v9l210 173z" />
    <glyph glyph-name="logicalnot" unicode="&#xac;" horiz-adv-x="580" 
d="M527 251v-194h-37v159h-437v35h474z" />
    <glyph glyph-name="registered" unicode="&#xae;" horiz-adv-x="422" 
d="M88 566q0 39 15.5 73.5t42 59.5t62 39.5t76.5 14.5q40 0 75 -14.5t61.5 -39.5t41.5 -59.5t15 -73.5q0 -40 -15.5 -74t-42.5 -59t-62.5 -39t-75.5 -14q-41 0 -76 14t-61 39t-41 59t-15 74zM111 566q0 -36 13 -66.5t36.5 -53t54.5 -35.5t67 -13t67 12.5t54.5 35t36.5 53.5
t13 67q0 35 -13 66t-36.5 53.5t-54.5 35.5t-67 13t-67.5 -13t-54.5 -35.5t-36 -53.5t-13 -66zM170 481l31 7l33 166l-28 7l1 8h80q42 0 66.5 -13t24.5 -39q0 -41 -65 -56q15 -30 24 -46t17 -24t16.5 -10t20.5 -3l-2 -8q-25 -3 -40 -3.5t-26 7.5t-21.5 27t-26.5 55h-21
l-13 -69l24 -7l-2 -7h-95zM257 570h26q32 2 42 17t10 30t-13 29t-47 14z" />
    <glyph glyph-name="macron" unicode="&#xaf;" 
d="M66 665h249l-11 -47h-248z" />
    <glyph glyph-name="degree" unicode="&#xb0;" horiz-adv-x="292" 
d="M90 603q0 27 10.5 51t29 42t43 28.5t52.5 10.5t52 -10.5t41 -28.5t27 -42t10 -51q0 -28 -10.5 -52t-29 -42t-43 -28.5t-51.5 -10.5q-29 0 -53 10.5t-41 28.5t-27 42t-10 52zM121 603q0 -46 28.5 -77t73.5 -31t73 31t28 77t-28 77t-73 31t-73.5 -31t-28.5 -77z" />
    <glyph glyph-name="plusminus" unicode="&#xb1;" horiz-adv-x="579" 
d="M310 329v-216h-40v216h-217v35h217v216h40v-216h217v-35h-217zM53 35h474v-35h-474v35z" />
    <glyph glyph-name="acute" unicode="&#xb4;" horiz-adv-x="235" 
d="M271 752v-10l-136 -198h-24l92 208h68z" />
    <glyph glyph-name="paragraph" unicode="&#xb6;" horiz-adv-x="507" 
d="M129 -205q-34 0 -63.5 11.5t-51 31.5t-33.5 47.5t-12 59.5q0 35 13 63.5t34 49t48 31.5t56 11q48 0 74.5 -24.5t26.5 -56.5q0 -36 -20 -52t-43 -16q-26 0 -42.5 13.5t-16.5 34.5q12 11 25 25t21 29v3q-6 8 -17.5 10.5t-21.5 2.5q-16 0 -33.5 -8t-32.5 -23t-24.5 -37
t-9.5 -51q0 -23 8 -45.5t24.5 -40.5t41.5 -29t58 -11q63 0 111 41.5t65 119.5l127 651h-53l-75 -383h-44q-39 0 -71.5 14t-55 38t-35.5 57t-13 72q-1 52 20.5 94.5t57.5 72.5t81 46.5t90 16.5h230l-3 -17l-85 -18l-122 -625q-11 -56 -33 -96t-52.5 -65t-68.5 -36.5
t-80 -11.5z" />
    <glyph glyph-name="periodcentered" unicode="&#xb7;" horiz-adv-x="243" 
d="M121 211q-25 0 -42 17t-17 42t17 42t42 17t42 -17t17 -42t-17 -42t-42 -17z" />
    <glyph glyph-name="cedilla" unicode="&#xb8;" horiz-adv-x="235" 
d="M-51 -241q14 4 31.5 10.5t33.5 17t26.5 25t10.5 33.5q0 13 -5 21.5t-11.5 14t-14 8.5t-11.5 5l75 111h26l-47 -71q26 -9 39.5 -26.5t13.5 -37.5q0 -33 -18 -55.5t-44 -37t-55 -22t-51 -11.5z" />
    <glyph glyph-name="ordmasculine" unicode="&#xba;" horiz-adv-x="390" 
d="M131 350q0 -13 1.5 -30t6.5 -32t14.5 -25.5t24.5 -10.5q27 0 53 25t46.5 62.5t33 81t12.5 81.5v26t-4.5 34t-14.5 29.5t-29 12.5q-29 0 -54.5 -26.5t-45 -65.5t-31.5 -83t-13 -79zM279 624q29 0 50.5 -11.5t35.5 -30.5t20.5 -43t6.5 -48q0 -51 -18 -98t-48.5 -83
t-69.5 -57t-81 -21q-28 0 -49 11.5t-35 31t-21 44.5t-7 52q0 51 18 96.5t48 80.5t69 55.5t81 20.5z" />
    <glyph glyph-name="guillemotright" unicode="&#xbb;" horiz-adv-x="407" 
d="M2 49l157 162l-106 154l17 14l155 -164v-9l-210 -173zM154 49l157 162l-106 154l17 14l155 -164v-9l-210 -173z" />
    <glyph glyph-name="onequarter" unicode="&#xbc;" horiz-adv-x="684" 
d="M158 325l60 -12l-2 -14h-187l2 14l68 12l64 295l-76 -4l3 16l140 41h3zM27 -62l601 783l21 -17l-602 -784zM501 26l15 70h-171l3 20l254 253l28 -4l-50 -230h74l-7 -39h-75l-15 -70l52 -12l-3 -14h-164l3 15zM525 135l35 163l-164 -163h129z" />
    <glyph glyph-name="onehalf" unicode="&#xbd;" horiz-adv-x="714" 
d="M27 -62l601 783l21 -17l-602 -784zM158 325l60 -12l-2 -14h-187l2 14l68 12l64 295l-76 -4l3 16l140 41h3zM460 47h197l-11 -47h-254l2 15l83 74q29 26 55.5 48.5t47 44t32.5 43.5t12 47q0 16 -5.5 27.5t-14.5 18.5t-19.5 10t-20.5 3q-33 0 -54.5 -17t-43.5 -39l-13 7
q10 19 22 35.5t27.5 29t34.5 20t44 7.5q24 0 43 -8t31.5 -20.5t19.5 -29t7 -34.5q0 -21 -8 -39t-24 -37t-40.5 -40t-58.5 -48z" />
    <glyph glyph-name="threequarters" unicode="&#xbe;" horiz-adv-x="722" 
d="M189 497q21 -1 40.5 -6t34.5 -15t23.5 -24.5t8.5 -33.5q0 -30 -15.5 -54t-41 -40.5t-57.5 -25t-65 -8.5q-37 0 -61 13.5t-24 34.5q0 14 7 24.5t27 20.5q29 -70 88 -70q35 0 58.5 23.5t23.5 55.5q0 25 -13 41t-32.5 25t-41.5 12t-40 4l3 16q41 12 66 23.5t39 23.5
t18.5 24.5t4.5 25.5q-1 21 -14.5 33.5t-36.5 12.5q-48 0 -93 -56l-14 10q23 41 54.5 63.5t76.5 22.5q41 0 63.5 -19.5t22.5 -50.5q1 -37 -30.5 -61.5t-79.5 -41.5v-3zM65 -62l601 783l21 -17l-602 -784zM539 26l15 70h-171l3 20l254 253l28 -4l-50 -230h74l-7 -39h-75
l-15 -70l52 -12l-3 -14h-164l3 15zM563 135l35 163l-164 -163h129z" />
    <glyph glyph-name="questiondown" unicode="&#xbf;" horiz-adv-x="357" 
d="M232 -129l-29 14q-39 19 -72 45t-56.5 56.5t-36.5 65t-13 70.5q0 56 28 90.5t103 45.5l88 12l31 100h20l-23 -166l-133 -18q-48 -7 -68 -23.5t-20 -48.5q0 -29 15.5 -52t40 -40.5t54 -30.5t57.5 -22l29 -10zM365 509q0 -25 -17 -42t-42 -17t-42 17t-17 42t17 42t42 17
t42 -17t17 -42z" />
    <glyph glyph-name="Agrave" unicode="&#xc0;" horiz-adv-x="623" 
d="M-46 19l62 17l340 626l31 6l34 5l93 -638l59 -18l-3 -17h-232l4 18l91 17l-29 203h-238l-103 -200l93 -19l-4 -19h-202zM186 276h213l-45 321h-2zM344 865l63 -137h-24l-116 130v7h77z" />
    <glyph glyph-name="Aacute" unicode="&#xc1;" horiz-adv-x="623" 
d="M-46 19l62 17l340 626l31 6l34 5l93 -638l59 -18l-3 -17h-232l4 18l91 17l-29 203h-238l-103 -200l93 -19l-4 -19h-202zM186 276h213l-45 321h-2zM544 865v-7l-137 -130h-24l84 137h77z" />
    <glyph glyph-name="Acircumflex" unicode="&#xc2;" horiz-adv-x="623" 
d="M-46 19l62 17l340 626l31 6l34 5l93 -638l59 -18l-3 -17h-232l4 18l91 17l-29 203h-238l-103 -200l93 -19l-4 -19h-202zM186 276h213l-45 321h-2zM255 728l140 127h51l90 -127h-29l-96 83l-122 -83h-34z" />
    <glyph glyph-name="Atilde" unicode="&#xc3;" horiz-adv-x="623" 
d="M-46 19l62 17l340 626l31 6l34 5l93 -638l59 -18l-3 -17h-232l4 18l91 17l-29 203h-238l-103 -200l93 -19l-4 -19h-202zM186 276h213l-45 321h-2zM249 743l5 14q12 35 28.5 53t34.5 24.5t37 3.5t37 -11l56 -25q17 -8 30 -12t24.5 -0.5t22.5 15.5t23 38l14 -5l-6 -19
q-11 -34 -26 -53.5t-32 -28t-37 -6.5t-41 12l-54 26q-21 9 -35.5 13.5t-26 1.5t-21 -14t-20.5 -32z" />
    <glyph glyph-name="Adieresis" unicode="&#xc4;" horiz-adv-x="623" 
d="M-46 19l62 17l340 626l31 6l34 5l93 -638l59 -18l-3 -17h-232l4 18l91 17l-29 203h-238l-103 -200l93 -19l-4 -19h-202zM186 276h213l-45 321h-2zM307 760q-19 0 -31.5 13t-12.5 32t12.5 32.5t31.5 13.5q20 0 33.5 -13.5t13.5 -32.5t-13.5 -32t-33.5 -13zM507 760
q-19 0 -32 13t-13 32t13 32.5t32 13.5t32.5 -13.5t13.5 -32.5t-13.5 -32t-32.5 -13z" />
    <glyph glyph-name="Aring" unicode="&#xc5;" horiz-adv-x="623" 
d="M-46 19l62 17l340 626l31 6l34 5l93 -638l59 -18l-3 -17h-232l4 18l91 17l-29 203h-238l-103 -200l93 -19l-4 -19h-202zM186 276h213l-45 321h-2zM309 835q0 43 28.5 70t70.5 27q43 0 71.5 -26.5t28.5 -70.5q0 -43 -28.5 -70.5t-70.5 -27.5q-43 0 -71.5 27t-28.5 71z
M340 835q0 -31 20 -51.5t48 -20.5q29 0 49.5 20.5t20.5 51.5t-20.5 51.5t-48.5 20.5q-29 0 -49 -20.5t-20 -51.5z" />
    <glyph glyph-name="AE" unicode="&#xc6;" horiz-adv-x="862" 
d="M505 337l-57 -292q8 -9 20.5 -13.5t41.5 -4.5h180l111 166h19l-66 -193h-477l4 19l85 16l58 302h-168l-209 -299l93 -19l-4 -19h-207l4 19l62 17l433 588l-84 23l3 17h453l61 5l-25 -189h-16l-28 157h-228l-53 -269h147l52 107h17l-47 -239h-17l-11 101h-147zM474 638
l-195 -270h151l53 270h-9z" />
    <glyph glyph-name="Ccedilla" unicode="&#xc7;" horiz-adv-x="668" 
d="M182 -241q14 4 31.5 10.5t33.5 17t26.5 25t10.5 33.5q0 13 -5 21.5t-11.5 14t-14 8.5t-11.5 5q12 17 23 34q10 14 20.5 30t18.5 28q-56 5 -101.5 27t-78 59t-50.5 88t-18 114q0 66 27 137t80 130.5t131.5 98t181.5 38.5q35 0 64.5 -5.5t54 -13.5t46 -18.5t40.5 -20.5
l-27 -176h-16l-24 149q-26 25 -60.5 42.5t-81.5 17.5q-56 0 -114.5 -26t-106 -76.5t-77.5 -123.5t-30 -167q0 -62 16.5 -109t45 -78t66 -46.5t80.5 -15.5q48 0 86.5 15t68.5 36l91 160h17l-51 -189q-18 -7 -40.5 -15.5t-50 -16t-60.5 -12.5t-72 -5h-12l-33 -50
q26 -9 39.5 -26.5t13.5 -37.5q0 -33 -18 -55.5t-44 -37t-55 -22t-51 -11.5z" />
    <glyph glyph-name="Egrave" unicode="&#xc8;" horiz-adv-x="551" 
d="M315 865l63 -137h-24l-116 130v7h77zM193 331l-56 -286q8 -9 21.5 -13.5t42.5 -4.5h179l110 166h19l-66 -193h-477l4 18l85 17l115 594l-79 18l3 17h396l60 5l-25 -189h-16l-28 157h-228l-54 -275h147l52 107h17l-47 -239h-17l-11 101h-147z" />
    <glyph glyph-name="Eacute" unicode="&#xc9;" horiz-adv-x="551" 
d="M504 865v-7l-137 -130h-24l84 137h77zM193 331l-56 -286q8 -9 21.5 -13.5t42.5 -4.5h179l110 166h19l-66 -193h-477l4 18l85 17l115 594l-79 18l3 17h396l60 5l-25 -189h-16l-28 157h-228l-54 -275h147l52 107h17l-47 -239h-17l-11 101h-147z" />
    <glyph glyph-name="Ecircumflex" unicode="&#xca;" horiz-adv-x="551" 
d="M219 728l140 127h51l90 -127h-29l-96 83l-122 -83h-34zM193 331l-56 -286q8 -9 21.5 -13.5t42.5 -4.5h179l110 166h19l-66 -193h-477l4 18l85 17l115 594l-79 18l3 17h396l60 5l-25 -189h-16l-28 157h-228l-54 -275h147l52 107h17l-47 -239h-17l-11 101h-147z" />
    <glyph glyph-name="Edieresis" unicode="&#xcb;" horiz-adv-x="551" 
d="M193 331l-56 -286q8 -9 21.5 -13.5t42.5 -4.5h179l110 166h19l-66 -193h-477l4 18l85 17l115 594l-79 18l3 17h396l60 5l-25 -189h-16l-28 157h-228l-54 -275h147l52 107h17l-47 -239h-17l-11 101h-147zM267 760q-19 0 -31.5 13t-12.5 32t12.5 32.5t31.5 13.5
q20 0 33.5 -13.5t13.5 -32.5t-13.5 -32t-33.5 -13zM467 760q-19 0 -32 13t-13 32t13 32.5t32 13.5t32.5 -13.5t13.5 -32.5t-13.5 -32t-32.5 -13z" />
    <glyph glyph-name="Igrave" unicode="&#xcc;" horiz-adv-x="274" 
d="M-32 18l85 17l117 594l-79 18l3 17h246l-3 -17l-85 -18l-117 -594l77 -17l-3 -18h-245zM182 865l63 -137h-24l-116 130v7h77z" />
    <glyph glyph-name="Iacute" unicode="&#xcd;" horiz-adv-x="274" 
d="M-32 18l85 17l117 594l-79 18l3 17h246l-3 -17l-85 -18l-117 -594l77 -17l-3 -18h-245zM383 865v-7l-137 -130h-24l84 137h77z" />
    <glyph glyph-name="Icircumflex" unicode="&#xce;" horiz-adv-x="274" 
d="M-32 18l85 17l117 594l-79 18l3 17h246l-3 -17l-85 -18l-117 -594l77 -17l-3 -18h-245zM88 728l140 127h51l90 -127h-29l-96 83l-122 -83h-34z" />
    <glyph glyph-name="Idieresis" unicode="&#xcf;" horiz-adv-x="274" 
d="M160 760q-19 0 -31.5 13t-12.5 32t12.5 32.5t31.5 13.5q20 0 33.5 -13.5t13.5 -32.5t-13.5 -32t-33.5 -13zM319 760q-19 0 -32 13t-13 32t13 32.5t32 13.5t32.5 -13.5t13.5 -32.5t-13.5 -32t-32.5 -13zM-32 18l85 17l117 594l-79 18l3 17h246l-3 -17l-85 -18l-117 -594
l77 -17l-3 -18h-245z" />
    <glyph glyph-name="Eth" unicode="&#xd0;" horiz-adv-x="686" 
d="M-32 18l85 17l54 275h-90l7 30h89l57 289l-79 18l3 17h215q82 0 149 -18t114 -53t73 -86.5t26 -118.5q0 -72 -26 -141.5t-82.5 -125t-144 -89t-210.5 -33.5l-244 1zM189 310l-51 -262q17 -10 45 -17t57 -7q89 0 153.5 32.5t106 83.5t61.5 114t20 125q0 61 -18 110.5
t-57.5 84t-101.5 52.5t-150 16l-59 -302h179l-6 -30h-179z" />
    <glyph glyph-name="Ntilde" unicode="&#xd1;" horiz-adv-x="672" 
d="M277 743l5 14q12 35 28.5 53t34.5 24.5t37 3.5t37 -11l56 -25q17 -8 30 -12t24.5 -0.5t22.5 15.5t23 38l14 -5l-6 -19q-11 -34 -26 -53.5t-32 -28t-37 -6.5t-41 12l-54 26q-21 9 -35.5 13.5t-26 1.5t-21 -14t-20.5 -32zM508 -14l-317 591l-102 -541l78 -18l-3 -18h-199
l4 18l85 18l113 574q-9 12 -22 19t-27 11l-29 7l3 17h143l279 -521l91 484l-79 20l3 17h200l-3 -17l-85 -20l-99 -506l-20 -135h-14z" />
    <glyph glyph-name="Ograve" unicode="&#xd2;" horiz-adv-x="728" 
d="M392 865l63 -137h-24l-116 130v7h77zM435 678q63 0 114 -22.5t87.5 -61.5t56.5 -90.5t20 -109.5q0 -81 -30 -156t-82.5 -132t-124 -91.5t-153.5 -34.5q-59 0 -110 22t-88.5 60t-58.5 90.5t-21 113.5q0 81 30 155.5t82.5 131.5t123.5 91t154 34zM627 418q0 49 -12.5 91.5
t-37 74t-60.5 50t-84 18.5q-60 0 -115 -34.5t-96.5 -91.5t-66 -131.5t-24.5 -154.5q0 -49 12.5 -91.5t37 -74t60.5 -50t84 -18.5q61 0 116 35.5t96.5 93.5t65.5 132t24 151z" />
    <glyph glyph-name="Oacute" unicode="&#xd3;" horiz-adv-x="728" 
d="M591 865v-7l-137 -130h-24l84 137h77zM435 678q63 0 114 -22.5t87.5 -61.5t56.5 -90.5t20 -109.5q0 -81 -30 -156t-82.5 -132t-124 -91.5t-153.5 -34.5q-59 0 -110 22t-88.5 60t-58.5 90.5t-21 113.5q0 81 30 155.5t82.5 131.5t123.5 91t154 34zM627 418q0 49 -12.5 91.5
t-37 74t-60.5 50t-84 18.5q-60 0 -115 -34.5t-96.5 -91.5t-66 -131.5t-24.5 -154.5q0 -49 12.5 -91.5t37 -74t60.5 -50t84 -18.5q61 0 116 35.5t96.5 93.5t65.5 132t24 151z" />
    <glyph glyph-name="Ocircumflex" unicode="&#xd4;" horiz-adv-x="728" 
d="M302 728l140 127h51l90 -127h-29l-96 83l-122 -83h-34zM435 678q63 0 114 -22.5t87.5 -61.5t56.5 -90.5t20 -109.5q0 -81 -30 -156t-82.5 -132t-124 -91.5t-153.5 -34.5q-59 0 -110 22t-88.5 60t-58.5 90.5t-21 113.5q0 81 30 155.5t82.5 131.5t123.5 91t154 34zM627 418
q0 49 -12.5 91.5t-37 74t-60.5 50t-84 18.5q-60 0 -115 -34.5t-96.5 -91.5t-66 -131.5t-24.5 -154.5q0 -49 12.5 -91.5t37 -74t60.5 -50t84 -18.5q61 0 116 35.5t96.5 93.5t65.5 132t24 151z" />
    <glyph glyph-name="Otilde" unicode="&#xd5;" horiz-adv-x="728" 
d="M322 743l5 14q12 35 28.5 53t34.5 24.5t37 3.5t37 -11l56 -25q17 -8 30 -12t24.5 -0.5t22.5 15.5t23 38l14 -5l-6 -19q-11 -34 -26 -53.5t-32 -28t-37 -6.5t-41 12l-54 26q-21 9 -35.5 13.5t-26 1.5t-21 -14t-20.5 -32zM435 678q63 0 114 -22.5t87.5 -61.5t56.5 -90.5
t20 -109.5q0 -81 -30 -156t-82.5 -132t-124 -91.5t-153.5 -34.5q-59 0 -110 22t-88.5 60t-58.5 90.5t-21 113.5q0 81 30 155.5t82.5 131.5t123.5 91t154 34zM627 418q0 49 -12.5 91.5t-37 74t-60.5 50t-84 18.5q-60 0 -115 -34.5t-96.5 -91.5t-66 -131.5t-24.5 -154.5
q0 -49 12.5 -91.5t37 -74t60.5 -50t84 -18.5q61 0 116 35.5t96.5 93.5t65.5 132t24 151z" />
    <glyph glyph-name="Odieresis" unicode="&#xd6;" horiz-adv-x="728" 
d="M354 760q-19 0 -31.5 13t-12.5 32t12.5 32.5t31.5 13.5q20 0 33.5 -13.5t13.5 -32.5t-13.5 -32t-33.5 -13zM554 760q-19 0 -32 13t-13 32t13 32.5t32 13.5t32.5 -13.5t13.5 -32.5t-13.5 -32t-32.5 -13zM435 678q63 0 114 -22.5t87.5 -61.5t56.5 -90.5t20 -109.5
q0 -81 -30 -156t-82.5 -132t-124 -91.5t-153.5 -34.5q-59 0 -110 22t-88.5 60t-58.5 90.5t-21 113.5q0 81 30 155.5t82.5 131.5t123.5 91t154 34zM627 418q0 49 -12.5 91.5t-37 74t-60.5 50t-84 18.5q-60 0 -115 -34.5t-96.5 -91.5t-66 -131.5t-24.5 -154.5
q0 -49 12.5 -91.5t37 -74t60.5 -50t84 -18.5q61 0 116 35.5t96.5 93.5t65.5 132t24 151z" />
    <glyph glyph-name="multiply" unicode="&#xd7;" horiz-adv-x="580" 
d="M288 211l-188 -193l-27 26l189 191l-188 192l27 25l189 -190l191 197l26 -26l-191 -196l190 -193l-28 -25z" />
    <glyph glyph-name="Oslash" unicode="&#xd8;" horiz-adv-x="728" 
d="M69 -45l71 92q-45 39 -70 95t-25 124q0 81 30 155.5t82.5 131.5t123.5 91t154 34q45 0 84.5 -12t71.5 -34l54 71h40l-69 -90q46 -39 71.5 -96t25.5 -123q0 -81 -30 -156t-82.5 -132t-124 -91.5t-153.5 -34.5q-45 0 -85 12.5t-73 35.5l-56 -73h-40zM627 418q0 45 -11 84.5
t-31 70.5l-395 -512q24 -26 58 -40.5t77 -14.5q61 0 116 35.5t96.5 93.5t65.5 132t24 151zM131 240q0 -45 9.5 -83.5t29.5 -69.5l395 512q-24 25 -57 39t-75 14q-60 0 -115 -34.5t-96.5 -91.5t-66 -131.5t-24.5 -154.5z" />
    <glyph glyph-name="Ugrave" unicode="&#xd9;" horiz-adv-x="639" 
d="M387 865l63 -137h-24l-116 130v7h77zM285 -14q-55 0 -100.5 16.5t-74.5 53t-38 95.5t8 143l69 335l-66 18l3 17h234l-3 -17l-86 -18l-74 -359q-12 -61 -5.5 -105.5t28 -73.5t54.5 -43t74 -14q42 0 78.5 12.5t65.5 41t50 75.5t34 115l67 349l-78 20l3 17h187l-3 -17
l-73 -21l-74 -370q-12 -60 -34.5 -109.5t-57 -85.5t-81.5 -55.5t-107 -19.5z" />
    <glyph glyph-name="Uacute" unicode="&#xda;" horiz-adv-x="639" 
d="M576 865v-7l-137 -130h-24l84 137h77zM285 -14q-55 0 -100.5 16.5t-74.5 53t-38 95.5t8 143l69 335l-66 18l3 17h234l-3 -17l-86 -18l-74 -359q-12 -61 -5.5 -105.5t28 -73.5t54.5 -43t74 -14q42 0 78.5 12.5t65.5 41t50 75.5t34 115l67 349l-78 20l3 17h187l-3 -17
l-73 -21l-74 -370q-12 -60 -34.5 -109.5t-57 -85.5t-81.5 -55.5t-107 -19.5z" />
    <glyph glyph-name="Ucircumflex" unicode="&#xdb;" horiz-adv-x="639" 
d="M288 728l140 127h51l90 -127h-29l-96 83l-122 -83h-34zM285 -14q-55 0 -100.5 16.5t-74.5 53t-38 95.5t8 143l69 335l-66 18l3 17h234l-3 -17l-86 -18l-74 -359q-12 -61 -5.5 -105.5t28 -73.5t54.5 -43t74 -14q42 0 78.5 12.5t65.5 41t50 75.5t34 115l67 349l-78 20l3 17
h187l-3 -17l-73 -21l-74 -370q-12 -60 -34.5 -109.5t-57 -85.5t-81.5 -55.5t-107 -19.5z" />
    <glyph glyph-name="Udieresis" unicode="&#xdc;" horiz-adv-x="639" 
d="M285 -14q-55 0 -100.5 16.5t-74.5 53t-38 95.5t8 143l69 335l-66 18l3 17h234l-3 -17l-86 -18l-74 -359q-12 -61 -5.5 -105.5t28 -73.5t54.5 -43t74 -14q42 0 78.5 12.5t65.5 41t50 75.5t34 115l67 349l-78 20l3 17h187l-3 -17l-73 -21l-74 -370q-12 -60 -34.5 -109.5
t-57 -85.5t-81.5 -55.5t-107 -19.5zM339 760q-19 0 -31.5 13t-12.5 32t12.5 32.5t31.5 13.5q20 0 33.5 -13.5t13.5 -32.5t-13.5 -32t-33.5 -13zM539 760q-19 0 -32 13t-13 32t13 32.5t32 13.5t32.5 -13.5t13.5 -32.5t-13.5 -32t-32.5 -13z" />
    <glyph glyph-name="Yacute" unicode="&#xdd;" horiz-adv-x="592" 
d="M354 296l-52 -261l77 -17l-3 -18h-245l4 18l85 17l51 255l-133 341l-56 16l3 17h227l-3 -17l-86 -18l113 -306h3l220 306l-80 18l3 17h185l-4 -17l-62 -19zM551 865v-7l-137 -130h-24l84 137h77z" />
    <glyph glyph-name="Thorn" unicode="&#xde;" horiz-adv-x="526" 
d="M-32 18l85 17l117 594l-79 18l3 17h244l-3 -17l-83 -18l-25 -124l57 1q45 0 88.5 -9.5t77 -29t54 -49t20.5 -68.5q0 -51 -30 -86.5t-78 -56.5t-107 -28.5t-116 -1.5l4 20q124 0 182.5 38.5t58.5 106.5q0 27 -13.5 53t-40 46.5t-67 32.5t-94.5 12l-89 -451l99 -17l-3 -18
h-266z" />
    <glyph glyph-name="germandbls" unicode="&#xdf;" horiz-adv-x="460" 
d="M491 641q0 -30 -13.5 -53.5t-33.5 -43t-43 -37t-43 -34t-33.5 -34t-13.5 -38.5q0 -20 6 -35.5t19 -41.5l47 -91q15 -29 24.5 -48.5t9.5 -45.5t-14 -52.5t-36.5 -47.5t-51.5 -34.5t-59 -13.5q-35 0 -58.5 13.5t-23.5 35.5q0 8 4 20t11 23q18 -14 32.5 -24t26.5 -16
t23.5 -9t24.5 -3q27 0 44.5 18t17.5 41q0 20 -8 41t-19 42l-44 82q-12 23 -20.5 39.5t-14 29.5t-7.5 23.5t-2 22.5q0 26 14 46t35 37.5t45 34t45 36t34.5 43t12.5 55.5q0 12 -5 25.5t-15 25t-24.5 18.5t-35.5 7q-23 0 -52 -14.5t-56.5 -52t-51 -102t-36.5 -164.5l-35 -275
q-11 -83 -27 -142t-35.5 -98.5t-40.5 -62.5t-39.5 -35t-34.5 -15t-25 -3q-27 0 -49 15.5t-23 40.5q0 10 6.5 23.5t23.5 27.5q7 -9 15.5 -21.5t18 -24t20 -19t20.5 -7.5q16 0 28 12.5t23.5 48t22 99.5t23.5 166l32 254q11 90 47.5 162.5t82.5 124t93.5 79.5t82.5 28
q30 0 51 -10t33.5 -25t18 -33t5.5 -34z" />
    <glyph glyph-name="agrave" unicode="&#xe0;" horiz-adv-x="472" 
d="M455 504l-124 -446h3q26 20 54 50t48 58l14 -8q-19 -32 -41 -62.5t-44 -54t-43 -38t-37 -14.5q-8 0 -15.5 3.5t-12 12t-4.5 22.5t6 35l46 149h-4q-23 -36 -49.5 -75.5t-55 -72.5t-59 -54.5t-62.5 -21.5q-33 0 -54.5 23t-18.5 74q3 55 21 105t45 92.5t60 77t67 58.5t66 37
t57 13q23 0 41 -5.5t32 -13.5l34 56h30zM114 41q16 0 37.5 16t44 42t45.5 58t42 64t33.5 60t20.5 47l24 73q-27 38 -61 38q-36 0 -72.5 -30t-67 -79t-51.5 -110t-24 -123q-2 -32 7 -44t22 -12zM313 752l28 -208h-22l-74 197v11h68z" />
    <glyph glyph-name="aacute" unicode="&#xe1;" horiz-adv-x="472" 
d="M455 504l-124 -446h3q26 20 54 50t48 58l14 -8q-19 -32 -41 -62.5t-44 -54t-43 -38t-37 -14.5q-8 0 -15.5 3.5t-12 12t-4.5 22.5t6 35l46 149h-4q-23 -36 -49.5 -75.5t-55 -72.5t-59 -54.5t-62.5 -21.5q-33 0 -54.5 23t-18.5 74q3 55 21 105t45 92.5t60 77t67 58.5t66 37
t57 13q23 0 41 -5.5t32 -13.5l34 56h30zM114 41q16 0 37.5 16t44 42t45.5 58t42 64t33.5 60t20.5 47l24 73q-27 38 -61 38q-36 0 -72.5 -30t-67 -79t-51.5 -110t-24 -123q-2 -32 7 -44t22 -12zM470 752v-10l-136 -198h-24l92 208h68z" />
    <glyph glyph-name="acircumflex" unicode="&#xe2;" horiz-adv-x="472" 
d="M455 504l-124 -446h3q26 20 54 50t48 58l14 -8q-19 -32 -41 -62.5t-44 -54t-43 -38t-37 -14.5q-8 0 -15.5 3.5t-12 12t-4.5 22.5t6 35l46 149h-4q-23 -36 -49.5 -75.5t-55 -72.5t-59 -54.5t-62.5 -21.5q-33 0 -54.5 23t-18.5 74q3 55 21 105t45 92.5t60 77t67 58.5t66 37
t57 13q23 0 41 -5.5t32 -13.5l34 56h30zM114 41q16 0 37.5 16t44 42t45.5 58t42 64t33.5 60t20.5 47l24 73q-27 38 -61 38q-36 0 -72.5 -30t-67 -79t-51.5 -110t-24 -123q-2 -32 7 -44t22 -12zM211 544l138 208h38l48 -208h-23l-58 136l-116 -136h-27z" />
    <glyph glyph-name="atilde" unicode="&#xe3;" horiz-adv-x="472" 
d="M455 504l-124 -446h3q26 20 54 50t48 58l14 -8q-19 -32 -41 -62.5t-44 -54t-43 -38t-37 -14.5q-8 0 -15.5 3.5t-12 12t-4.5 22.5t6 35l46 149h-4q-23 -36 -49.5 -75.5t-55 -72.5t-59 -54.5t-62.5 -21.5q-33 0 -54.5 23t-18.5 74q3 55 21 105t45 92.5t60 77t67 58.5t66 37
t57 13q23 0 41 -5.5t32 -13.5l34 56h30zM114 41q16 0 37.5 16t44 42t45.5 58t42 64t33.5 60t20.5 47l24 73q-27 38 -61 38q-36 0 -72.5 -30t-67 -79t-51.5 -110t-24 -123q-2 -32 7 -44t22 -12zM186 593l5 14q12 35 28.5 53t34.5 24.5t37 3.5t37 -11l56 -25q17 -8 30 -12
t24.5 -0.5t22.5 15.5t23 38l14 -5l-6 -19q-11 -34 -26 -53.5t-32 -28t-37 -6.5t-41 12l-54 26q-21 9 -35.5 13.5t-26 1.5t-21 -14t-20.5 -32z" />
    <glyph glyph-name="adieresis" unicode="&#xe4;" horiz-adv-x="472" 
d="M455 504l-124 -446h3q26 20 54 50t48 58l14 -8q-19 -32 -41 -62.5t-44 -54t-43 -38t-37 -14.5q-8 0 -15.5 3.5t-12 12t-4.5 22.5t6 35l46 149h-4q-23 -36 -49.5 -75.5t-55 -72.5t-59 -54.5t-62.5 -21.5q-33 0 -54.5 23t-18.5 74q3 55 21 105t45 92.5t60 77t67 58.5t66 37
t57 13q23 0 41 -5.5t32 -13.5l34 56h30zM114 41q16 0 37.5 16t44 42t45.5 58t42 64t33.5 60t20.5 47l24 73q-27 38 -61 38q-36 0 -72.5 -30t-67 -79t-51.5 -110t-24 -123q-2 -32 7 -44t22 -12zM265 600q-19 0 -31.5 13t-12.5 32t12.5 32.5t31.5 13.5q20 0 33.5 -13.5
t13.5 -32.5t-13.5 -32t-33.5 -13zM416 600q-19 0 -32 13t-13 32t13 32.5t32 13.5t32.5 -13.5t13.5 -32.5t-13.5 -32t-32.5 -13z" />
    <glyph glyph-name="aring" unicode="&#xe5;" horiz-adv-x="472" 
d="M455 504l-124 -446h3q26 20 54 50t48 58l14 -8q-19 -32 -41 -62.5t-44 -54t-43 -38t-37 -14.5q-8 0 -15.5 3.5t-12 12t-4.5 22.5t6 35l46 149h-4q-23 -36 -49.5 -75.5t-55 -72.5t-59 -54.5t-62.5 -21.5q-33 0 -54.5 23t-18.5 74q3 55 21 105t45 92.5t60 77t67 58.5t66 37
t57 13q23 0 41 -5.5t32 -13.5l34 56h30zM114 41q16 0 37.5 16t44 42t45.5 58t42 64t33.5 60t20.5 47l24 73q-27 38 -61 38q-36 0 -72.5 -30t-67 -79t-51.5 -110t-24 -123q-2 -32 7 -44t22 -12zM251 656q0 43 28.5 70t70.5 27q43 0 71.5 -26.5t28.5 -70.5q0 -43 -28.5 -70.5
t-70.5 -27.5q-43 0 -71.5 27t-28.5 71zM282 656q0 -31 20 -51.5t48 -20.5q29 0 49.5 20.5t20.5 51.5t-20.5 51.5t-48.5 20.5q-29 0 -49 -20.5t-20 -51.5z" />
    <glyph glyph-name="ae" unicode="&#xe6;" horiz-adv-x="575" 
d="M343 -14q-40 0 -68 24t-39 66h-5q-30 -40 -66.5 -65t-82.5 -25q-13 0 -29 5t-30.5 16t-23.5 30t-9 46q1 44 38.5 71.5t116.5 50.5l102 30l23 82q7 54 -13 89t-60 35q-17 0 -33 -7.5t-26 -17.5l-8 -88q-14 -9 -35 -9q-19 0 -28.5 9t-9.5 23q0 17 16.5 38t42.5 40
t58.5 32.5t64.5 15.5q47 0 72.5 -29.5t22.5 -79.5h4q16 21 38 41t46.5 35t50.5 24t52 9q34 0 52.5 -16t18.5 -45q0 -30 -24 -58t-63 -51.5t-89.5 -42.5t-104.5 -32q-4 -17 -6.5 -35t-3.5 -37q-2 -52 18 -85t55 -33q23 0 43 10t36.5 25.5t30 33.5t22.5 35l18 -7
q-11 -25 -28 -52t-40 -49.5t-52 -37t-65 -14.5zM241 211l-76 -27q-50 -18 -71.5 -38.5t-21.5 -48.5q0 -26 12.5 -43t40.5 -17q17 0 33 8t30 19.5t24.5 24.5t17.5 24q-3 44 10 94zM482 442q-18 0 -41 -14t-45.5 -39t-42 -59.5t-32.5 -76.5q39 13 74 30.5t61.5 38.5t41.5 44
t15 46q0 13 -7 21.5t-24 8.5z" />
    <glyph glyph-name="ccedilla" unicode="&#xe7;" horiz-adv-x="366" 
d="M-2 -241q14 4 31.5 10.5t33.5 17t26.5 25t10.5 33.5q0 13 -5 21.5t-11.5 14t-14 8.5t-11.5 5l62 92h-1q-51 0 -80 37t-29 91q0 40 11.5 82.5t33.5 84t53.5 79.5t71.5 69q29 23 63 36t70 13q32 0 54 -15.5t22 -35.5q0 -11 -8.5 -26.5t-16.5 -23.5q-23 24 -54 41t-61 17
q-26 0 -54 -28.5t-51.5 -73t-38.5 -97.5t-15 -101q0 -44 18.5 -67.5t47.5 -23.5q23 0 43.5 10t39.5 27t37.5 40t37.5 49l17 -10q-16 -28 -35 -56t-41.5 -52t-49 -40.5t-57.5 -22.5l-36 -55q26 -9 39.5 -26.5t13.5 -37.5q0 -33 -18 -55.5t-44 -37t-55 -22t-51 -11.5z" />
    <glyph glyph-name="egrave" unicode="&#xe8;" horiz-adv-x="361" 
d="M121 -14q-57 0 -85 37.5t-28 96.5q0 39 13 79.5t34.5 79.5t50 73.5t58.5 60.5q41 35 76.5 49.5t67.5 14.5q35 0 52 -16t17 -44q0 -31 -25.5 -60t-65.5 -53.5t-89.5 -42.5t-96.5 -26q-6 -24 -9.5 -49t-3.5 -51q0 -38 18 -65.5t56 -27.5q30 0 65.5 26t66.5 78l18 -7
q-14 -30 -33 -57.5t-42.5 -49t-52.5 -34t-62 -12.5zM268 443q-19 0 -41.5 -13.5t-44.5 -38t-42 -58.5t-33 -75q30 6 64 20.5t62.5 35t47.5 45t19 51.5q0 17 -9 25t-23 8zM285 752l28 -208h-22l-74 197v11h68z" />
    <glyph glyph-name="eacute" unicode="&#xe9;" horiz-adv-x="361" 
d="M452 752v-10l-136 -198h-24l92 208h68zM121 -14q-57 0 -85 37.5t-28 96.5q0 39 13 79.5t34.5 79.5t50 73.5t58.5 60.5q41 35 76.5 49.5t67.5 14.5q35 0 52 -16t17 -44q0 -31 -25.5 -60t-65.5 -53.5t-89.5 -42.5t-96.5 -26q-6 -24 -9.5 -49t-3.5 -51q0 -38 18 -65.5
t56 -27.5q30 0 65.5 26t66.5 78l18 -7q-14 -30 -33 -57.5t-42.5 -49t-52.5 -34t-62 -12.5zM268 443q-19 0 -41.5 -13.5t-44.5 -38t-42 -58.5t-33 -75q30 6 64 20.5t62.5 35t47.5 45t19 51.5q0 17 -9 25t-23 8z" />
    <glyph glyph-name="ecircumflex" unicode="&#xea;" horiz-adv-x="361" 
d="M183 544l138 208h38l48 -208h-23l-58 136l-116 -136h-27zM121 -14q-57 0 -85 37.5t-28 96.5q0 39 13 79.5t34.5 79.5t50 73.5t58.5 60.5q41 35 76.5 49.5t67.5 14.5q35 0 52 -16t17 -44q0 -31 -25.5 -60t-65.5 -53.5t-89.5 -42.5t-96.5 -26q-6 -24 -9.5 -49t-3.5 -51
q0 -38 18 -65.5t56 -27.5q30 0 65.5 26t66.5 78l18 -7q-14 -30 -33 -57.5t-42.5 -49t-52.5 -34t-62 -12.5zM268 443q-19 0 -41.5 -13.5t-44.5 -38t-42 -58.5t-33 -75q30 6 64 20.5t62.5 35t47.5 45t19 51.5q0 17 -9 25t-23 8z" />
    <glyph glyph-name="edieresis" unicode="&#xeb;" horiz-adv-x="361" 
d="M242 600q-19 0 -31.5 13t-12.5 32t12.5 32.5t31.5 13.5q20 0 33.5 -13.5t13.5 -32.5t-13.5 -32t-33.5 -13zM393 600q-19 0 -32 13t-13 32t13 32.5t32 13.5t32.5 -13.5t13.5 -32.5t-13.5 -32t-32.5 -13zM121 -14q-57 0 -85 37.5t-28 96.5q0 39 13 79.5t34.5 79.5t50 73.5
t58.5 60.5q41 35 76.5 49.5t67.5 14.5q35 0 52 -16t17 -44q0 -31 -25.5 -60t-65.5 -53.5t-89.5 -42.5t-96.5 -26q-6 -24 -9.5 -49t-3.5 -51q0 -38 18 -65.5t56 -27.5q30 0 65.5 26t66.5 78l18 -7q-14 -30 -33 -57.5t-42.5 -49t-52.5 -34t-62 -12.5zM268 443
q-19 0 -41.5 -13.5t-44.5 -38t-42 -58.5t-33 -75q30 6 64 20.5t62.5 35t47.5 45t19 51.5q0 17 -9 25t-23 8z" />
    <glyph glyph-name="igrave" unicode="&#xec;" horiz-adv-x="231" 
d="M124 416q-11 5 -33 6t-48 -7v11q19 17 46 34t55 17q30 0 43 -21t2 -59l-95 -339h3q11 7 25 20t28.5 28t27.5 31t21 29l14 -8q-18 -30 -39.5 -60.5t-44 -54.5t-44 -39t-37.5 -15q-22 0 -29.5 17.5t0.5 45.5zM159 752l28 -208h-22l-74 197v11h68z" />
    <glyph glyph-name="iacute" unicode="&#xed;" horiz-adv-x="231" 
d="M319 752v-10l-136 -198h-24l92 208h68zM124 416q-11 5 -33 6t-48 -7v11q19 17 46 34t55 17q30 0 43 -21t2 -59l-95 -339h3q11 7 25 20t28.5 28t27.5 31t21 29l14 -8q-18 -30 -39.5 -60.5t-44 -54.5t-44 -39t-37.5 -15q-22 0 -29.5 17.5t0.5 45.5z" />
    <glyph glyph-name="icircumflex" unicode="&#xee;" horiz-adv-x="231" 
d="M50 544l138 208h38l48 -208h-23l-58 136l-116 -136h-27zM124 416q-11 5 -33 6t-48 -7v11q19 17 46 34t55 17q30 0 43 -21t2 -59l-95 -339h3q11 7 25 20t28.5 28t27.5 31t21 29l14 -8q-18 -30 -39.5 -60.5t-44 -54.5t-44 -39t-37.5 -15q-22 0 -29.5 17.5t0.5 45.5z" />
    <glyph glyph-name="idieresis" unicode="&#xef;" horiz-adv-x="231" 
d="M121 600q-19 0 -31.5 13t-12.5 32t12.5 32.5t31.5 13.5q20 0 33.5 -13.5t13.5 -32.5t-13.5 -32t-33.5 -13zM256 600q-19 0 -32 13t-13 32t13 32.5t32 13.5t32.5 -13.5t13.5 -32.5t-13.5 -32t-32.5 -13zM124 416q-11 5 -33 6t-48 -7v11q19 17 46 34t55 17q30 0 43 -21
t2 -59l-95 -339h3q11 7 25 20t28.5 28t27.5 31t21 29l14 -8q-18 -30 -39.5 -60.5t-44 -54.5t-44 -39t-37.5 -15q-22 0 -29.5 17.5t0.5 45.5z" />
    <glyph glyph-name="eth" unicode="&#xf0;" horiz-adv-x="452" 
d="M115 572l141 77q-20 23 -43.5 45.5t-51.5 45.5l10 14q35 -20 64.5 -41.5t54.5 -44.5l119 66l12 -21l-112 -62q60 -60 89 -131.5t29 -159.5q0 -69 -19 -136.5t-54.5 -120t-85.5 -85t-112 -32.5q-35 0 -60 14t-40.5 37t-22.5 54t-7 64q0 47 18.5 103.5t52.5 105t82.5 81
t109.5 32.5q15 0 28 -4t24 -10q-8 51 -25.5 91t-44.5 76l-143 -79zM349 373q-1 11 -4.5 25.5t-11 27t-19.5 21.5t-31 9q-26 0 -49.5 -16.5t-44 -44.5t-37 -64t-28 -75t-18 -78t-6.5 -72q0 -45 12.5 -72.5t44.5 -27.5q28 0 53.5 18t47 47t38.5 66t28.5 75.5t18 75.5t6.5 66
v19z" />
    <glyph glyph-name="ntilde" unicode="&#xf1;" horiz-adv-x="477" 
d="M125 416q-13 5 -37.5 5t-43.5 -6v10q21 21 50 36.5t57 15.5q27 0 40 -20.5t4 -50.5l-41 -137h4q23 42 50 79.5t55.5 66t58.5 45.5t60 17q37 0 49.5 -25t2.5 -60l-93 -334h3q26 20 54 50t48 58l14 -8q-19 -32 -41 -62.5t-44 -54t-43 -38t-37 -14.5q-8 0 -15.5 3.5t-12 11
t-5.5 19t4 28.5l97 339q3 14 -2 22.5t-18 8.5q-23 0 -55 -23.5t-65 -66t-64.5 -103t-52.5 -133.5l-26 -90l-62 -17l-14 12zM170 593l5 14q12 35 28.5 53t34.5 24.5t37 3.5t37 -11l56 -25q17 -8 30 -12t24.5 -0.5t22.5 15.5t23 38l14 -5l-6 -19q-11 -34 -26 -53.5t-32 -28
t-37 -6.5t-41 12l-54 26q-21 9 -35.5 13.5t-26 1.5t-21 -14t-20.5 -32z" />
    <glyph glyph-name="ograve" unicode="&#xf2;" horiz-adv-x="430" 
d="M274 457q-38 0 -71.5 -34.5t-58.5 -87t-39.5 -114t-14.5 -115.5q0 -45 12.5 -72.5t44.5 -27.5q26 0 50.5 16.5t45.5 44t38.5 63.5t30 74.5t19.5 77t7 72.5q0 42 -16 72.5t-48 30.5zM279 477q36 0 61.5 -12t41 -33.5t23 -51t7.5 -63.5q0 -51 -18.5 -109t-53 -107.5
t-83.5 -82t-111 -32.5q-34 0 -58.5 13t-40.5 35.5t-23.5 53.5t-7.5 67q0 47 17.5 103t51 105t82.5 81.5t112 32.5zM278 752l28 -208h-22l-74 197v11h68z" />
    <glyph glyph-name="oacute" unicode="&#xf3;" horiz-adv-x="430" 
d="M434 752v-10l-136 -198h-24l92 208h68zM274 457q-38 0 -71.5 -34.5t-58.5 -87t-39.5 -114t-14.5 -115.5q0 -45 12.5 -72.5t44.5 -27.5q26 0 50.5 16.5t45.5 44t38.5 63.5t30 74.5t19.5 77t7 72.5q0 42 -16 72.5t-48 30.5zM279 477q36 0 61.5 -12t41 -33.5t23 -51
t7.5 -63.5q0 -51 -18.5 -109t-53 -107.5t-83.5 -82t-111 -32.5q-34 0 -58.5 13t-40.5 35.5t-23.5 53.5t-7.5 67q0 47 17.5 103t51 105t82.5 81.5t112 32.5z" />
    <glyph glyph-name="ocircumflex" unicode="&#xf4;" horiz-adv-x="430" 
d="M175 544l138 208h38l48 -208h-23l-58 136l-116 -136h-27zM274 457q-38 0 -71.5 -34.5t-58.5 -87t-39.5 -114t-14.5 -115.5q0 -45 12.5 -72.5t44.5 -27.5q26 0 50.5 16.5t45.5 44t38.5 63.5t30 74.5t19.5 77t7 72.5q0 42 -16 72.5t-48 30.5zM279 477q36 0 61.5 -12
t41 -33.5t23 -51t7.5 -63.5q0 -51 -18.5 -109t-53 -107.5t-83.5 -82t-111 -32.5q-34 0 -58.5 13t-40.5 35.5t-23.5 53.5t-7.5 67q0 47 17.5 103t51 105t82.5 81.5t112 32.5z" />
    <glyph glyph-name="otilde" unicode="&#xf5;" horiz-adv-x="430" 
d="M274 457q-38 0 -71.5 -34.5t-58.5 -87t-39.5 -114t-14.5 -115.5q0 -45 12.5 -72.5t44.5 -27.5q26 0 50.5 16.5t45.5 44t38.5 63.5t30 74.5t19.5 77t7 72.5q0 42 -16 72.5t-48 30.5zM279 477q36 0 61.5 -12t41 -33.5t23 -51t7.5 -63.5q0 -51 -18.5 -109t-53 -107.5
t-83.5 -82t-111 -32.5q-34 0 -58.5 13t-40.5 35.5t-23.5 53.5t-7.5 67q0 47 17.5 103t51 105t82.5 81.5t112 32.5zM153 593l5 14q12 35 28.5 53t34.5 24.5t37 3.5t37 -11l56 -25q17 -8 30 -12t24.5 -0.5t22.5 15.5t23 38l14 -5l-6 -19q-11 -34 -26 -53.5t-32 -28t-37 -6.5
t-41 12l-54 26q-21 9 -35.5 13.5t-26 1.5t-21 -14t-20.5 -32z" />
    <glyph glyph-name="odieresis" unicode="&#xf6;" horiz-adv-x="430" 
d="M235 600q-19 0 -31.5 13t-12.5 32t12.5 32.5t31.5 13.5q20 0 33.5 -13.5t13.5 -32.5t-13.5 -32t-33.5 -13zM386 600q-19 0 -32 13t-13 32t13 32.5t32 13.5t32.5 -13.5t13.5 -32.5t-13.5 -32t-32.5 -13zM274 457q-38 0 -71.5 -34.5t-58.5 -87t-39.5 -114t-14.5 -115.5
q0 -45 12.5 -72.5t44.5 -27.5q26 0 50.5 16.5t45.5 44t38.5 63.5t30 74.5t19.5 77t7 72.5q0 42 -16 72.5t-48 30.5zM279 477q36 0 61.5 -12t41 -33.5t23 -51t7.5 -63.5q0 -51 -18.5 -109t-53 -107.5t-83.5 -82t-111 -32.5q-34 0 -58.5 13t-40.5 35.5t-23.5 53.5t-7.5 67
q0 47 17.5 103t51 105t82.5 81.5t112 32.5z" />
    <glyph glyph-name="divide" unicode="&#xf7;" horiz-adv-x="580" 
d="M53 216v35h474v-35h-474zM290 343q-20 0 -33.5 13.5t-13.5 33.5t13.5 33.5t33.5 13.5t33.5 -13.5t13.5 -33.5t-13.5 -33.5t-33.5 -13.5zM290 30q-20 0 -33.5 13.5t-13.5 33.5t13.5 33.5t33.5 13.5t33.5 -13.5t13.5 -33.5t-13.5 -33.5t-33.5 -13.5z" />
    <glyph glyph-name="oslash" unicode="&#xf8;" horiz-adv-x="430" 
d="M-23 -50l69 91q-15 23 -22.5 52.5t-7.5 61.5q0 47 17.5 103t51 105t82.5 81.5t112 32.5q23 0 42 -6.5t35 -17.5l50 66h32l-63 -84q18 -21 27.5 -51.5t9.5 -66.5q0 -51 -18.5 -109t-53 -107.5t-83.5 -82t-111 -32.5q-52 0 -85 35l-53 -71h-31zM341 360q0 8 -0.5 14.5
t-1.5 13.5l-248 -328q9 -54 56 -54q26 0 50.5 17t46.5 45t39.5 64.5t30.5 76t20 78.5t7 73zM88 97l242 321q-8 18 -22 28.5t-34 10.5q-38 0 -72 -35.5t-59.5 -88.5t-40 -115.5t-14.5 -116.5v-4z" />
    <glyph glyph-name="ugrave" unicode="&#xf9;" horiz-adv-x="484" 
d="M122 416q-13 5 -37.5 5t-43.5 -6v10q21 21 50 36.5t57 15.5q30 0 39 -23t1 -55l-87 -328q-2 -11 3.5 -19.5t19.5 -8.5q16 0 38 16t45.5 42t47 60t44.5 70t36.5 72t23.5 67l24 93l66 6l7 -8l-107 -403h3q11 8 24.5 20.5t27.5 27t27 30t23 30.5l14 -8q-18 -30 -39.5 -60.5
t-44 -54.5t-43.5 -39t-38 -15q-15 0 -27 13t-3 46l51 182h-4q-23 -42 -48.5 -85.5t-54.5 -78.5t-61.5 -57t-68.5 -22q-14 0 -26.5 5t-21.5 14.5t-13 24t1 32.5zM291 752l28 -208h-22l-74 197v11h68z" />
    <glyph glyph-name="uacute" unicode="&#xfa;" horiz-adv-x="484" 
d="M450 752v-10l-136 -198h-24l92 208h68zM122 416q-13 5 -37.5 5t-43.5 -6v10q21 21 50 36.5t57 15.5q30 0 39 -23t1 -55l-87 -328q-2 -11 3.5 -19.5t19.5 -8.5q16 0 38 16t45.5 42t47 60t44.5 70t36.5 72t23.5 67l24 93l66 6l7 -8l-107 -403h3q11 8 24.5 20.5t27.5 27
t27 30t23 30.5l14 -8q-18 -30 -39.5 -60.5t-44 -54.5t-43.5 -39t-38 -15q-15 0 -27 13t-3 46l51 182h-4q-23 -42 -48.5 -85.5t-54.5 -78.5t-61.5 -57t-68.5 -22q-14 0 -26.5 5t-21.5 14.5t-13 24t1 32.5z" />
    <glyph glyph-name="ucircumflex" unicode="&#xfb;" horiz-adv-x="484" 
d="M182 544l138 208h38l48 -208h-23l-58 136l-116 -136h-27zM122 416q-13 5 -37.5 5t-43.5 -6v10q21 21 50 36.5t57 15.5q30 0 39 -23t1 -55l-87 -328q-2 -11 3.5 -19.5t19.5 -8.5q16 0 38 16t45.5 42t47 60t44.5 70t36.5 72t23.5 67l24 93l66 6l7 -8l-107 -403h3
q11 8 24.5 20.5t27.5 27t27 30t23 30.5l14 -8q-18 -30 -39.5 -60.5t-44 -54.5t-43.5 -39t-38 -15q-15 0 -27 13t-3 46l51 182h-4q-23 -42 -48.5 -85.5t-54.5 -78.5t-61.5 -57t-68.5 -22q-14 0 -26.5 5t-21.5 14.5t-13 24t1 32.5z" />
    <glyph glyph-name="udieresis" unicode="&#xfc;" horiz-adv-x="484" 
d="M240 600q-19 0 -31.5 13t-12.5 32t12.5 32.5t31.5 13.5q20 0 33.5 -13.5t13.5 -32.5t-13.5 -32t-33.5 -13zM391 600q-19 0 -32 13t-13 32t13 32.5t32 13.5t32.5 -13.5t13.5 -32.5t-13.5 -32t-32.5 -13zM122 416q-13 5 -37.5 5t-43.5 -6v10q21 21 50 36.5t57 15.5
q30 0 39 -23t1 -55l-87 -328q-2 -11 3.5 -19.5t19.5 -8.5q16 0 38 16t45.5 42t47 60t44.5 70t36.5 72t23.5 67l24 93l66 6l7 -8l-107 -403h3q11 8 24.5 20.5t27.5 27t27 30t23 30.5l14 -8q-18 -30 -39.5 -60.5t-44 -54.5t-43.5 -39t-38 -15q-15 0 -27 13t-3 46l51 182h-4
q-23 -42 -48.5 -85.5t-54.5 -78.5t-61.5 -57t-68.5 -22q-14 0 -26.5 5t-21.5 14.5t-13 24t1 32.5z" />
    <glyph glyph-name="yacute" unicode="&#xfd;" horiz-adv-x="435" 
d="M12 305q4 37 14.5 69t25.5 55t34.5 35.5t41.5 12.5q48 -1 75.5 -62t27.5 -167q0 -87 -13.5 -157t-31.5 -124h5q38 43 70.5 89.5t56 94.5t36.5 96t13 93t-14.5 75t-28.5 48q24 15 52 15q17 0 32 -15.5t14 -57.5q-1 -80 -31.5 -160.5t-78 -154.5t-106 -138t-115 -111
t-105.5 -74t-78 -27q-22 0 -36 12.5t-14 34.5q0 21 13 35t33 14q21 0 35 -12.5t20 -41.5h2q55 21 92.5 70.5t60.5 113t33 133t10 129.5q0 52 -5.5 88t-14 58t-19 31.5t-21.5 9.5q-23 0 -37.5 -25.5t-29.5 -84.5h-18zM414 752v-10l-136 -198h-24l92 208h68z" />
    <glyph glyph-name="thorn" unicode="&#xfe;" horiz-adv-x="449" 
d="M173 668l-62 41l2 7l153 30l-124 -470h6q24 41 50 77.5t54 64t57.5 43.5t60.5 16q38 0 57 -32t17 -86q-1 -36 -13 -78t-33 -83.5t-49 -79.5t-62 -67.5t-71.5 -47t-76.5 -17.5q-21 0 -39.5 8.5t-28.5 16.5l-60 -223l127 -13l-5 -22h-268l4 13l71 25zM87 67q8 -19 26 -37.5
t50 -18.5q33 0 67 30.5t61.5 77.5t46 104.5t21.5 111.5q2 40 -7.5 62.5t-30.5 22.5q-28 0 -60.5 -29.5t-62.5 -71t-53 -87t-32 -77.5z" />
    <glyph glyph-name="ydieresis" unicode="&#xff;" horiz-adv-x="435" 
d="M12 305q4 37 14.5 69t25.5 55t34.5 35.5t41.5 12.5q48 -1 75.5 -62t27.5 -167q0 -87 -13.5 -157t-31.5 -124h5q38 43 70.5 89.5t56 94.5t36.5 96t13 93t-14.5 75t-28.5 48q24 15 52 15q17 0 32 -15.5t14 -57.5q-1 -80 -31.5 -160.5t-78 -154.5t-106 -138t-115 -111
t-105.5 -74t-78 -27q-22 0 -36 12.5t-14 34.5q0 21 13 35t33 14q21 0 35 -12.5t20 -41.5h2q55 21 92.5 70.5t60.5 113t33 133t10 129.5q0 52 -5.5 88t-14 58t-19 31.5t-21.5 9.5q-23 0 -37.5 -25.5t-29.5 -84.5h-18zM205 600q-19 0 -31.5 13t-12.5 32t12.5 32.5t31.5 13.5
q20 0 33.5 -13.5t13.5 -32.5t-13.5 -32t-33.5 -13zM356 600q-19 0 -32 13t-13 32t13 32.5t32 13.5t32.5 -13.5t13.5 -32.5t-13.5 -32t-32.5 -13z" />
    <glyph glyph-name="Amacron" unicode="&#x100;" horiz-adv-x="623" 
d="M-46 19l62 17l340 626l31 6l34 5l93 -638l59 -18l-3 -17h-232l4 18l91 17l-29 203h-238l-103 -200l93 -19l-4 -19h-202zM186 276h213l-45 321h-2zM271 808h280l-11 -48h-279z" />
    <glyph glyph-name="amacron" unicode="&#x101;" horiz-adv-x="472" 
d="M455 504l-124 -446h3q26 20 54 50t48 58l14 -8q-19 -32 -41 -62.5t-44 -54t-43 -38t-37 -14.5q-8 0 -15.5 3.5t-12 12t-4.5 22.5t6 35l46 149h-4q-23 -36 -49.5 -75.5t-55 -72.5t-59 -54.5t-62.5 -21.5q-33 0 -54.5 23t-18.5 74q3 55 21 105t45 92.5t60 77t67 58.5t66 37
t57 13q23 0 41 -5.5t32 -13.5l34 56h30zM114 41q16 0 37.5 16t44 42t45.5 58t42 64t33.5 60t20.5 47l24 73q-27 38 -61 38q-36 0 -72.5 -30t-67 -79t-51.5 -110t-24 -123q-2 -32 7 -44t22 -12zM228 665h249l-11 -47h-248z" />
    <glyph glyph-name="Abreve" unicode="&#x102;" horiz-adv-x="623" 
d="M-46 19l62 17l340 626l31 6l34 5l93 -638l59 -18l-3 -17h-232l4 18l91 17l-29 203h-238l-103 -200l93 -19l-4 -19h-202zM186 276h213l-45 321h-2zM401 730q-53 0 -80.5 30t-30.5 98h17q17 -41 39 -60t64 -19q36 0 64.5 18.5t51.5 60.5h16q-12 -59 -49 -93.5t-92 -34.5z
" />
    <glyph glyph-name="abreve" unicode="&#x103;" horiz-adv-x="472" 
d="M455 504l-124 -446h3q26 20 54 50t48 58l14 -8q-19 -32 -41 -62.5t-44 -54t-43 -38t-37 -14.5q-8 0 -15.5 3.5t-12 12t-4.5 22.5t6 35l46 149h-4q-23 -36 -49.5 -75.5t-55 -72.5t-59 -54.5t-62.5 -21.5q-33 0 -54.5 23t-18.5 74q3 55 21 105t45 92.5t60 77t67 58.5t66 37
t57 13q23 0 41 -5.5t32 -13.5l34 56h30zM114 41q16 0 37.5 16t44 42t45.5 58t42 64t33.5 60t20.5 47l24 73q-27 38 -61 38q-36 0 -72.5 -30t-67 -79t-51.5 -110t-24 -123q-2 -32 7 -44t22 -12zM333 562q-47 0 -69 39t-15 117h16q6 -52 24 -78.5t56 -26.5q21 0 38 9t30 23.5
t23 33.5t18 39h16q-6 -33 -17 -61.5t-28 -49.5t-39.5 -33t-52.5 -12z" />
    <glyph glyph-name="Aogonek" unicode="&#x104;" horiz-adv-x="623" 
d="M-36 19l62 17l340 626l31 6l34 5l93 -638l59 -18l-3 -17h-120q-66 -58 -92.5 -93t-26.5 -63q0 -16 10.5 -30t33.5 -14q20 0 38 11t44 43l15 -8q-26 -38 -58.5 -66.5t-76.5 -28.5q-36 0 -53.5 22.5t-17.5 48.5q0 21 10 40.5t30.5 41t53 48t77.5 62.5l-32 224h-239
l-103 -200l93 -19l-4 -19h-202zM196 276h213l-45 321h-2z" />
    <glyph glyph-name="aogonek" unicode="&#x105;" horiz-adv-x="472" 
d="M291 -11h-5q-26 0 -31 22.5t4 50.5l46 149h-4q-23 -36 -49.5 -75.5t-55 -72.5t-59 -54.5t-62.5 -21.5q-33 0 -54.5 23t-18.5 74q3 55 21 105t45 92.5t60 77t67 58.5t66 37t57 13q23 0 41 -5.5t32 -13.5l34 56h30l-124 -446h3q26 20 54 50.5t48 57.5l14 -8
q-17 -29 -40.5 -61.5t-44.5 -54.5q-54 -54 -85 -87.5t-46 -54.5t-19 -33.5t-4 -25.5q0 -20 13.5 -30.5t30.5 -10.5q20 0 38 11t44 43l15 -8q-28 -43 -62 -69t-73 -26q-32 0 -51.5 21t-19.5 50q0 21 9 39.5t27.5 37.5t45.5 40t63 47v3zM114 41q16 0 37.5 16t44 42t45.5 58
t42 64t33.5 60t20.5 47l24 73q-27 38 -62 38t-71.5 -30t-67 -79t-51.5 -110t-24 -123q-2 -32 7 -44t22 -12z" />
    <glyph glyph-name="Cacute" unicode="&#x106;" horiz-adv-x="668" 
d="M330 -16q-63 0 -115.5 19.5t-90 57t-58.5 91.5t-21 122q0 66 27 137t80 130.5t131.5 98t181.5 38.5q35 0 64.5 -5.5t54 -13.5t46 -18.5t40.5 -20.5l-27 -176h-16l-24 149q-26 25 -60.5 42.5t-81.5 17.5q-56 0 -114.5 -26t-106 -76.5t-77.5 -123.5t-30 -167
q0 -62 16.5 -109t45 -78t66 -46.5t80.5 -15.5q48 0 86.5 15t68.5 36l91 160h17l-51 -189q-18 -7 -40.5 -15.5t-50 -16t-60.5 -12.5t-72 -5zM619 865v-7l-137 -130h-24l84 137h77z" />
    <glyph glyph-name="cacute" unicode="&#x107;" horiz-adv-x="366" 
d="M447 752v-10l-136 -198h-24l92 208h68zM249 435q-26 0 -54 -28.5t-51.5 -73t-38.5 -97.5t-15 -101q0 -44 18.5 -67.5t47.5 -23.5q23 0 43.5 10t39.5 27t37.5 40t37.5 49l17 -10q-18 -31 -39 -62t-47 -56t-57 -40.5t-69 -15.5q-51 0 -80 37t-29 91q0 40 11.5 82.5t33.5 84
t53.5 79.5t71.5 69q29 23 63 36t70 13q32 0 54 -15.5t22 -35.5q0 -11 -8.5 -26.5t-16.5 -23.5q-23 24 -54 41t-61 17z" />
    <glyph glyph-name="Ccircumflex" unicode="&#x108;" horiz-adv-x="668" 
d="M330 728l140 127h51l90 -127h-29l-96 83l-122 -83h-34zM330 -16q-63 0 -115.5 19.5t-90 57t-58.5 91.5t-21 122q0 66 27 137t80 130.5t131.5 98t181.5 38.5q35 0 64.5 -5.5t54 -13.5t46 -18.5t40.5 -20.5l-27 -176h-16l-24 149q-26 25 -60.5 42.5t-81.5 17.5
q-56 0 -114.5 -26t-106 -76.5t-77.5 -123.5t-30 -167q0 -62 16.5 -109t45 -78t66 -46.5t80.5 -15.5q48 0 86.5 15t68.5 36l91 160h17l-51 -189q-18 -7 -40.5 -15.5t-50 -16t-60.5 -12.5t-72 -5z" />
    <glyph glyph-name="ccircumflex" unicode="&#x109;" horiz-adv-x="366" 
d="M178 544l138 208h38l48 -208h-23l-58 136l-116 -136h-27zM249 435q-26 0 -54 -28.5t-51.5 -73t-38.5 -97.5t-15 -101q0 -44 18.5 -67.5t47.5 -23.5q23 0 43.5 10t39.5 27t37.5 40t37.5 49l17 -10q-18 -31 -39 -62t-47 -56t-57 -40.5t-69 -15.5q-51 0 -80 37t-29 91
q0 40 11.5 82.5t33.5 84t53.5 79.5t71.5 69q29 23 63 36t70 13q32 0 54 -15.5t22 -35.5q0 -11 -8.5 -26.5t-16.5 -23.5q-23 24 -54 41t-61 17z" />
    <glyph glyph-name="Cdotaccent" unicode="&#x10a;" horiz-adv-x="668" 
d="M330 -16q-63 0 -115.5 19.5t-90 57t-58.5 91.5t-21 122q0 66 27 137t80 130.5t131.5 98t181.5 38.5q35 0 64.5 -5.5t54 -13.5t46 -18.5t40.5 -20.5l-27 -176h-16l-24 149q-26 25 -60.5 42.5t-81.5 17.5q-56 0 -114.5 -26t-106 -76.5t-77.5 -123.5t-30 -167
q0 -62 16.5 -109t45 -78t66 -46.5t80.5 -15.5q48 0 86.5 15t68.5 36l91 160h17l-51 -189q-18 -7 -40.5 -15.5t-50 -16t-60.5 -12.5t-72 -5zM438 806q0 20 14 34t34 14t34 -14t14 -34t-14 -34t-34 -14t-34 14t-14 34z" />
    <glyph glyph-name="cdotaccent" unicode="&#x10b;" horiz-adv-x="366" 
d="M249 435q-26 0 -54 -28.5t-51.5 -73t-38.5 -97.5t-15 -101q0 -44 18.5 -67.5t47.5 -23.5q23 0 43.5 10t39.5 27t37.5 40t37.5 49l17 -10q-18 -31 -39 -62t-47 -56t-57 -40.5t-69 -15.5q-51 0 -80 37t-29 91q0 40 11.5 82.5t33.5 84t53.5 79.5t71.5 69q29 23 63 36t70 13
q32 0 54 -15.5t22 -35.5q0 -11 -8.5 -26.5t-16.5 -23.5q-23 24 -54 41t-61 17zM262 645q0 20 14 34t34 14t34 -14t14 -34t-14 -34t-34 -14t-34 14t-14 34z" />
    <glyph glyph-name="Ccaron" unicode="&#x10c;" horiz-adv-x="668" 
d="M636 855l-140 -127h-51l-90 127h29l96 -83l122 83h34zM330 -16q-63 0 -115.5 19.5t-90 57t-58.5 91.5t-21 122q0 66 27 137t80 130.5t131.5 98t181.5 38.5q35 0 64.5 -5.5t54 -13.5t46 -18.5t40.5 -20.5l-27 -176h-16l-24 149q-26 25 -60.5 42.5t-81.5 17.5
q-56 0 -114.5 -26t-106 -76.5t-77.5 -123.5t-30 -167q0 -62 16.5 -109t45 -78t66 -46.5t80.5 -15.5q48 0 86.5 15t68.5 36l91 160h17l-51 -189q-18 -7 -40.5 -15.5t-50 -16t-60.5 -12.5t-72 -5z" />
    <glyph glyph-name="ccaron" unicode="&#x10d;" horiz-adv-x="366" 
d="M451 752l-138 -208h-38l-48 208h23l57 -136l117 136h27zM249 435q-26 0 -54 -28.5t-51.5 -73t-38.5 -97.5t-15 -101q0 -44 18.5 -67.5t47.5 -23.5q23 0 43.5 10t39.5 27t37.5 40t37.5 49l17 -10q-18 -31 -39 -62t-47 -56t-57 -40.5t-69 -15.5q-51 0 -80 37t-29 91
q0 40 11.5 82.5t33.5 84t53.5 79.5t71.5 69q29 23 63 36t70 13q32 0 54 -15.5t22 -35.5q0 -11 -8.5 -26.5t-16.5 -23.5q-23 24 -54 41t-61 17z" />
    <glyph glyph-name="Dcaron" unicode="&#x10e;" horiz-adv-x="686" 
d="M568 855l-140 -127h-51l-90 127h29l96 -83l122 83h34zM138 48q17 -10 45 -17t57 -7q89 0 153.5 32.5t106 83.5t61.5 114t20 125q0 61 -18 110.5t-57.5 84t-101.5 52.5t-150 16zM-32 18l85 17l117 594l-79 18l3 17h215q82 0 149 -18t114 -53t73 -86.5t26 -118.5
q0 -72 -26 -141.5t-82.5 -125t-144 -89t-210.5 -33.5l-244 1z" />
    <glyph glyph-name="dcaron" unicode="&#x10f;" horiz-adv-x="485" 
d="M530 532l54 201h77l-1 -6l-115 -195h-15zM302 478q26 0 45.5 -5.5t33.5 -13.5l54 209l-74 41l2 7l165 30l-181 -688h3q26 20 54 50t48 58l14 -8q-19 -32 -41 -62.5t-44.5 -54t-43 -38t-35.5 -14.5q-8 0 -16 3.5t-12.5 12t-4.5 22.5t6 35l44 147h-4q-15 -24 -40 -61.5
t-55.5 -73t-65.5 -61.5t-69 -26q-15 0 -30.5 6t-27.5 19.5t-19 35.5t-5 54q4 66 29 133t65.5 121t93 88t111.5 34zM364 394q-11 24 -31.5 40t-45.5 16q-36 0 -70.5 -28.5t-62 -75t-45.5 -106.5t-21 -123q-3 -44 9.5 -61t27.5 -17q21 0 54 29t67 73.5t63 97t41 99.5z" />
    <glyph glyph-name="Dcroat" unicode="&#x110;" horiz-adv-x="686" 
d="M-32 18l85 17l54 275h-90l7 30h89l57 289l-79 18l3 17h215q82 0 149 -18t114 -53t73 -86.5t26 -118.5q0 -72 -26 -141.5t-82.5 -125t-144 -89t-210.5 -33.5l-244 1zM189 310l-51 -262q17 -10 45 -17t57 -7q89 0 153.5 32.5t106 83.5t61.5 114t20 125q0 61 -18 110.5
t-57.5 84t-101.5 52.5t-150 16l-59 -302h179l-6 -30h-179z" />
    <glyph glyph-name="dcroat" unicode="&#x111;" horiz-adv-x="485" 
d="M232 589h183l20 79l-74 41l2 7l165 30l-42 -157h68l-7 -27h-68l-132 -504h3q26 20 54 50t48 58l14 -8q-19 -32 -41 -62.5t-44.5 -54t-43 -38t-35.5 -14.5q-8 0 -16 3.5t-12.5 12t-4.5 22.5t6 35l44 147h-4q-15 -24 -40 -61.5t-55.5 -73t-65.5 -61.5t-69 -26
q-15 0 -30.5 6t-27.5 19.5t-19 35.5t-5 54q4 66 29 133t65.5 121t93 88t111.5 34q26 0 45.5 -5.5t33.5 -13.5l27 103h-183zM364 394q-11 24 -31.5 40t-45.5 16q-36 0 -70.5 -28.5t-62 -75t-45.5 -106.5t-21 -123q-3 -44 9.5 -61t27.5 -17q21 0 54 29t67 73.5t63 97t41 99.5z
" />
    <glyph glyph-name="Emacron" unicode="&#x112;" horiz-adv-x="551" 
d="M193 331l-56 -286q8 -9 21.5 -13.5t42.5 -4.5h179l110 166h19l-66 -193h-477l4 18l85 17l115 594l-79 18l3 17h396l60 5l-25 -189h-16l-28 157h-228l-54 -275h147l52 107h17l-47 -239h-17l-11 101h-147zM235 808h280l-11 -48h-279z" />
    <glyph glyph-name="emacron" unicode="&#x113;" horiz-adv-x="361" 
d="M121 -14q-57 0 -85 37.5t-28 96.5q0 39 13 79.5t34.5 79.5t50 73.5t58.5 60.5q41 35 76.5 49.5t67.5 14.5q35 0 52 -16t17 -44q0 -31 -25.5 -60t-65.5 -53.5t-89.5 -42.5t-96.5 -26q-6 -24 -9.5 -49t-3.5 -51q0 -38 18 -65.5t56 -27.5q30 0 65.5 26t66.5 78l18 -7
q-14 -30 -33 -57.5t-42.5 -49t-52.5 -34t-62 -12.5zM268 443q-19 0 -41.5 -13.5t-44.5 -38t-42 -58.5t-33 -75q30 6 64 20.5t62.5 35t47.5 45t19 51.5q0 17 -9 25t-23 8zM199 665h249l-11 -47h-248z" />
    <glyph glyph-name="Ebreve" unicode="&#x114;" horiz-adv-x="551" 
d="M193 331l-56 -286q8 -9 21.5 -13.5t42.5 -4.5h179l110 166h19l-66 -193h-477l4 18l85 17l115 594l-79 18l3 17h396l60 5l-25 -189h-16l-28 157h-228l-54 -275h147l52 107h17l-47 -239h-17l-11 101h-147zM365 730q-53 0 -80.5 30t-30.5 98h17q17 -41 39 -60t64 -19
q36 0 64.5 18.5t51.5 60.5h16q-12 -59 -49 -93.5t-92 -34.5z" />
    <glyph glyph-name="ebreve" unicode="&#x115;" horiz-adv-x="361" 
d="M121 -14q-57 0 -85 37.5t-28 96.5q0 39 13 79.5t34.5 79.5t50 73.5t58.5 60.5q41 35 76.5 49.5t67.5 14.5q35 0 52 -16t17 -44q0 -31 -25.5 -60t-65.5 -53.5t-89.5 -42.5t-96.5 -26q-6 -24 -9.5 -49t-3.5 -51q0 -38 18 -65.5t56 -27.5q30 0 65.5 26t66.5 78l18 -7
q-14 -30 -33 -57.5t-42.5 -49t-52.5 -34t-62 -12.5zM268 443q-19 0 -41.5 -13.5t-44.5 -38t-42 -58.5t-33 -75q30 6 64 20.5t62.5 35t47.5 45t19 51.5q0 17 -9 25t-23 8zM305 562q-47 0 -69 39t-15 117h16q6 -52 24 -78.5t56 -26.5q21 0 38 9t30 23.5t23 33.5t18 39h16
q-6 -33 -17 -61.5t-28 -49.5t-39.5 -33t-52.5 -12z" />
    <glyph glyph-name="Edotaccent" unicode="&#x116;" horiz-adv-x="551" 
d="M321 806q0 20 14 34t34 14t34 -14t14 -34t-14 -34t-34 -14t-34 14t-14 34zM193 331l-56 -286q8 -9 21.5 -13.5t42.5 -4.5h179l110 166h19l-66 -193h-477l4 18l85 17l115 594l-79 18l3 17h396l60 5l-25 -189h-16l-28 157h-228l-54 -275h147l52 107h17l-47 -239h-17
l-11 101h-147z" />
    <glyph glyph-name="edotaccent" unicode="&#x117;" horiz-adv-x="361" 
d="M121 -14q-57 0 -85 37.5t-28 96.5q0 39 13 79.5t34.5 79.5t50 73.5t58.5 60.5q41 35 76.5 49.5t67.5 14.5q35 0 52 -16t17 -44q0 -31 -25.5 -60t-65.5 -53.5t-89.5 -42.5t-96.5 -26q-6 -24 -9.5 -49t-3.5 -51q0 -38 18 -65.5t56 -27.5q30 0 65.5 26t66.5 78l18 -7
q-14 -30 -33 -57.5t-42.5 -49t-52.5 -34t-62 -12.5zM268 443q-19 0 -41.5 -13.5t-44.5 -38t-42 -58.5t-33 -75q30 6 64 20.5t62.5 35t47.5 45t19 51.5q0 17 -9 25t-23 8zM267 645q0 20 14 34t34 14t34 -14t14 -34t-14 -34t-34 -14t-34 14t-14 34z" />
    <glyph glyph-name="Eogonek" unicode="&#x118;" horiz-adv-x="551" 
d="M193 331l-56 -286q8 -9 21.5 -13.5t42.5 -4.5h179l110 166h19l-66 -193h-55q-39 -37 -61.5 -62.5t-34.5 -43t-15 -30t-3 -23.5q0 -20 13.5 -30.5t30.5 -10.5q20 0 38 11t44 43l15 -8q-28 -43 -62 -69t-73 -26q-32 0 -51.5 21t-19.5 50q0 21 10 40.5t30 40t49 44t67 53.5
h-399l4 18l85 17l115 594l-79 18l3 17h396l60 5l-25 -189h-16l-28 157h-228l-54 -275h147l52 107h17l-47 -239h-17l-11 101h-147z" />
    <glyph glyph-name="eogonek" unicode="&#x119;" horiz-adv-x="361" 
d="M168 -3q-8 -3 -19.5 -6.5t-28.5 -3.5q-32 0 -53 12t-34.5 30.5t-19 42.5t-5.5 48q0 39 13 79.5t34.5 79.5t50 74t59.5 61q40 34 75.5 48.5t67.5 14.5q35 0 52 -16t17 -44q0 -31 -25.5 -60t-65.5 -53.5t-89.5 -42.5t-96.5 -26q-6 -24 -9.5 -49t-3.5 -51q0 -38 18 -65.5
t56 -27.5q30 0 65.5 26t66.5 78l18 -7q-13 -27 -26.5 -48t-29.5 -39.5t-34 -35t-40 -34.5q-35 -29 -56.5 -49.5t-33 -36t-15 -28.5t-3.5 -27q0 -20 13.5 -30.5t31.5 -10.5q20 0 37.5 11t43.5 43l15 -8q-28 -43 -62 -69t-73 -26q-32 0 -51.5 21t-19.5 50q0 42 41 80t121 91z
M268 443q-19 0 -41.5 -13.5t-44.5 -38.5t-42 -59t-33 -75q30 6 64 21t62.5 35.5t47.5 45t19 51.5q0 17 -9 25t-23 8z" />
    <glyph glyph-name="Ecaron" unicode="&#x11a;" horiz-adv-x="551" 
d="M525 855l-140 -127h-51l-90 127h29l96 -83l122 83h34zM193 331l-56 -286q8 -9 21.5 -13.5t42.5 -4.5h179l110 166h19l-66 -193h-477l4 18l85 17l115 594l-79 18l3 17h396l60 5l-25 -189h-16l-28 157h-228l-54 -275h147l52 107h17l-47 -239h-17l-11 101h-147z" />
    <glyph glyph-name="ecaron" unicode="&#x11b;" horiz-adv-x="361" 
d="M455 752l-138 -208h-38l-48 208h23l57 -136l117 136h27zM121 -14q-57 0 -85 37.5t-28 96.5q0 39 13 79.5t34.5 79.5t50 73.5t58.5 60.5q41 35 76.5 49.5t67.5 14.5q35 0 52 -16t17 -44q0 -31 -25.5 -60t-65.5 -53.5t-89.5 -42.5t-96.5 -26q-6 -24 -9.5 -49t-3.5 -51
q0 -38 18 -65.5t56 -27.5q30 0 65.5 26t66.5 78l18 -7q-14 -30 -33 -57.5t-42.5 -49t-52.5 -34t-62 -12.5zM268 443q-19 0 -41.5 -13.5t-44.5 -38t-42 -58.5t-33 -75q30 6 64 20.5t62.5 35t47.5 45t19 51.5q0 17 -9 25t-23 8z" />
    <glyph glyph-name="Gcircumflex" unicode="&#x11c;" horiz-adv-x="678" 
d="M328 728l140 127h51l90 -127h-29l-96 83l-122 -83h-34zM128 260q0 -59 16.5 -105.5t45 -79t66.5 -50t80 -17.5q59 0 99.5 24t50.5 72l29 144l-103 18l3 17h250l-2 -17l-66 -18l-39 -198q-16 -10 -38 -22t-51 -22t-64.5 -17t-78.5 -7q-58 0 -109 21t-89.5 59t-60.5 90
t-22 114q0 78 30 152t85 132t132.5 93t173.5 35q34 0 62.5 -5t53 -13t46 -18t41.5 -21l-35 -171h-19l-15 150q-21 20 -55 36.5t-87 16.5q-59 0 -117.5 -29t-106 -81t-77 -124t-29.5 -159z" />
    <glyph glyph-name="gcircumflex" unicode="&#x11d;" horiz-adv-x="394" 
d="M153 544l138 208h38l48 -208h-23l-58 136l-116 -136h-27zM256 477q17 0 33 -5t22 -10l140 13l-13 -55l-97 10l1 -4q6 -11 12.5 -33t6.5 -51q0 -41 -16 -81t-44 -72t-66.5 -51.5t-83.5 -20.5q-17 -9 -27 -21.5t-10 -26.5q0 -15 10 -23l150 -82q25 -14 40 -26t23 -22.5
t10 -20t2 -18.5q0 -25 -19 -49.5t-53 -44t-79.5 -31.5t-97.5 -12q-87 0 -139 20.5t-52 65.5q0 24 16.5 44.5t44.5 38t65 31.5t79 25v1l-25 13q-20 11 -29.5 24.5t-9.5 34.5q0 27 19 46.5t47 34.5v3q-20 7 -34 21.5t-23 32.5t-13 38t-4 37q0 40 15.5 80.5t43.5 72.5
t67.5 52.5t87.5 20.5zM250 453q-26 0 -50.5 -21t-44 -54t-32 -73.5t-14.5 -79.5q-2 -36 7 -60t36 -24q26 0 51 21.5t44.5 55t32 73.5t14.5 77q2 40 -7 62.5t-37 22.5zM135 -46q-77 -26 -111 -49t-34 -56q0 -32 37 -55.5t123 -23.5q61 0 96.5 23.5t37.5 50.5q0 8 -3 15.5
t-11.5 15.5t-24.5 18t-41 24z" />
    <glyph glyph-name="Gbreve" unicode="&#x11e;" horiz-adv-x="678" 
d="M474 730q-53 0 -80.5 30t-30.5 98h17q17 -41 39 -60t64 -19q36 0 64.5 18.5t51.5 60.5h16q-12 -59 -49 -93.5t-92 -34.5zM128 260q0 -59 16.5 -105.5t45 -79t66.5 -50t80 -17.5q59 0 99.5 24t50.5 72l29 144l-103 18l3 17h250l-2 -17l-66 -18l-39 -198q-16 -10 -38 -22
t-51 -22t-64.5 -17t-78.5 -7q-58 0 -109 21t-89.5 59t-60.5 90t-22 114q0 78 30 152t85 132t132.5 93t173.5 35q34 0 62.5 -5t53 -13t46 -18t41.5 -21l-35 -171h-19l-15 150q-21 20 -55 36.5t-87 16.5q-59 0 -117.5 -29t-106 -81t-77 -124t-29.5 -159z" />
    <glyph glyph-name="gbreve" unicode="&#x11f;" horiz-adv-x="394" 
d="M256 477q17 0 33 -5t22 -10l140 13l-13 -55l-97 10l1 -4q6 -11 12.5 -33t6.5 -51q0 -41 -16 -81t-44 -72t-66.5 -51.5t-83.5 -20.5q-17 -9 -27 -21.5t-10 -26.5q0 -15 10 -23l150 -82q25 -14 40 -26t23 -22.5t10 -20t2 -18.5q0 -25 -19 -49.5t-53 -44t-79.5 -31.5
t-97.5 -12q-87 0 -139 20.5t-52 65.5q0 24 16.5 44.5t44.5 38t65 31.5t79 25v1l-25 13q-20 11 -29.5 24.5t-9.5 34.5q0 27 19 46.5t47 34.5v3q-20 7 -34 21.5t-23 32.5t-13 38t-4 37q0 40 15.5 80.5t43.5 72.5t67.5 52.5t87.5 20.5zM250 453q-26 0 -50.5 -21t-44 -54
t-32 -73.5t-14.5 -79.5q-2 -36 7 -60t36 -24q26 0 51 21.5t44.5 55t32 73.5t14.5 77q2 40 -7 62.5t-37 22.5zM135 -46q-77 -26 -111 -49t-34 -56q0 -32 37 -55.5t123 -23.5q61 0 96.5 23.5t37.5 50.5q0 8 -3 15.5t-11.5 15.5t-24.5 18t-41 24zM275 562q-47 0 -69 39t-15 117
h16q6 -52 24 -78.5t56 -26.5q21 0 38 9t30 23.5t23 33.5t18 39h16q-6 -33 -17 -61.5t-28 -49.5t-39.5 -33t-52.5 -12z" />
    <glyph glyph-name="Gdotaccent" unicode="&#x120;" horiz-adv-x="678" 
d="M430 806q0 20 14 34t34 14t34 -14t14 -34t-14 -34t-34 -14t-34 14t-14 34zM128 260q0 -59 16.5 -105.5t45 -79t66.5 -50t80 -17.5q59 0 99.5 24t50.5 72l29 144l-103 18l3 17h250l-2 -17l-66 -18l-39 -198q-16 -10 -38 -22t-51 -22t-64.5 -17t-78.5 -7q-58 0 -109 21
t-89.5 59t-60.5 90t-22 114q0 78 30 152t85 132t132.5 93t173.5 35q34 0 62.5 -5t53 -13t46 -18t41.5 -21l-35 -171h-19l-15 150q-21 20 -55 36.5t-87 16.5q-59 0 -117.5 -29t-106 -81t-77 -124t-29.5 -159z" />
    <glyph glyph-name="gdotaccent" unicode="&#x121;" horiz-adv-x="394" 
d="M256 477q17 0 33 -5t22 -10l140 13l-13 -55l-97 10l1 -4q6 -11 12.5 -33t6.5 -51q0 -41 -16 -81t-44 -72t-66.5 -51.5t-83.5 -20.5q-17 -9 -27 -21.5t-10 -26.5q0 -15 10 -23l150 -82q25 -14 40 -26t23 -22.5t10 -20t2 -18.5q0 -25 -19 -49.5t-53 -44t-79.5 -31.5
t-97.5 -12q-87 0 -139 20.5t-52 65.5q0 24 16.5 44.5t44.5 38t65 31.5t79 25v1l-25 13q-20 11 -29.5 24.5t-9.5 34.5q0 27 19 46.5t47 34.5v3q-20 7 -34 21.5t-23 32.5t-13 38t-4 37q0 40 15.5 80.5t43.5 72.5t67.5 52.5t87.5 20.5zM250 453q-26 0 -50.5 -21t-44 -54
t-32 -73.5t-14.5 -79.5q-2 -36 7 -60t36 -24q26 0 51 21.5t44.5 55t32 73.5t14.5 77q2 40 -7 62.5t-37 22.5zM135 -46q-77 -26 -111 -49t-34 -56q0 -32 37 -55.5t123 -23.5q61 0 96.5 23.5t37.5 50.5q0 8 -3 15.5t-11.5 15.5t-24.5 18t-41 24zM237 645q0 20 14 34t34 14
t34 -14t14 -34t-14 -34t-34 -14t-34 14t-14 34z" />
    <glyph glyph-name="Gcommaaccent" unicode="&#x122;" horiz-adv-x="678" 
d="M190 -243q53 18 76.5 37t23.5 43q0 14 -11.5 25.5t-39.5 10.5v4q4 24 19 39t42 15t41.5 -16.5t14.5 -40.5q0 -51 -42.5 -83t-120.5 -49zM128 260q0 -59 16.5 -105.5t45 -79t66.5 -50t80 -17.5q59 0 99.5 24t50.5 72l29 144l-103 18l3 17h250l-2 -17l-66 -18l-39 -198
q-16 -10 -38 -22t-51 -22t-64.5 -17t-78.5 -7q-58 0 -109 21t-89.5 59t-60.5 90t-22 114q0 78 30 152t85 132t132.5 93t173.5 35q34 0 62.5 -5t53 -13t46 -18t41.5 -21l-35 -171h-19l-15 150q-21 20 -55 36.5t-87 16.5q-59 0 -117.5 -29t-106 -81t-77 -124t-29.5 -159z" />
    <glyph glyph-name="gcommaaccent" unicode="&#x123;" horiz-adv-x="394" 
d="M391 764q-53 -18 -76.5 -37t-23.5 -43q0 -14 11.5 -25.5t39.5 -10.5v-4q-4 -24 -19 -39t-42 -15t-41.5 16.5t-14.5 40.5q0 51 42.5 83t120.5 49zM256 477q17 0 33 -5t22 -10l140 13l-13 -55l-97 10l1 -4q6 -11 12.5 -33t6.5 -51q0 -41 -16 -81t-44 -72t-66.5 -51.5
t-83.5 -20.5q-17 -9 -27 -21.5t-10 -26.5q0 -15 10 -23l150 -82q25 -14 40 -26t23 -22.5t10 -20t2 -18.5q0 -25 -19 -49.5t-53 -44t-79.5 -31.5t-97.5 -12q-87 0 -139 20.5t-52 65.5q0 24 16.5 44.5t44.5 38t65 31.5t79 25v1l-25 13q-20 11 -29.5 24.5t-9.5 34.5
q0 27 19 46.5t47 34.5v3q-20 7 -34 21.5t-23 32.5t-13 38t-4 37q0 40 15.5 80.5t43.5 72.5t67.5 52.5t87.5 20.5zM250 453q-26 0 -50.5 -21t-44 -54t-32 -73.5t-14.5 -79.5q-2 -36 7 -60t36 -24q26 0 51 21.5t44.5 55t32 73.5t14.5 77q2 40 -7 62.5t-37 22.5zM135 -46
q-77 -26 -111 -49t-34 -56q0 -32 37 -55.5t123 -23.5q61 0 96.5 23.5t37.5 50.5q0 8 -3 15.5t-11.5 15.5t-24.5 18t-41 24z" />
    <glyph glyph-name="Hcircumflex" unicode="&#x124;" horiz-adv-x="678" 
d="M371 18l86 17l59 301h-322l-59 -301l78 -17l-3 -18h-246l4 18l85 17l117 594l-79 18l3 17h247l-3 -17l-86 -18l-52 -263h322l52 263l-79 18l3 17h246l-3 -17l-85 -18l-117 -594l77 -17l-3 -18h-246zM291 728l140 127h51l90 -127h-29l-96 83l-122 -83h-34z" />
    <glyph glyph-name="hcircumflex" unicode="&#x125;" horiz-adv-x="466" 
d="M138 266h6q22 39 49 77t56 68t60 48t62 18q37 0 49.5 -25t2.5 -60l-93 -334h3q26 20 53.5 49.5t48.5 58.5l14 -8q-19 -32 -41 -62.5t-44.5 -54t-43 -38t-36.5 -14.5q-8 0 -15.5 3.5t-12 11t-5.5 19t4 28.5l97 339q3 14 -2 22.5t-18 8.5q-24 0 -57 -25.5t-67 -70.5
t-65 -107t-52 -135l-22 -78l-60 -17l-14 12l177 668l-61 41l2 7l152 30zM207 768l140 127h51l90 -127h-29l-96 83l-122 -83h-34z" />
    <glyph glyph-name="Hbar" unicode="&#x126;" horiz-adv-x="678" 
d="M371 18l86 17l59 301h-322l-59 -301l78 -17l-3 -18h-246l4 18l85 17l91 462h-96l5 25h96l21 107l-79 18l3 17h247l-3 -17l-86 -18l-21 -107h322l21 107l-79 18l3 17h246l-3 -17l-85 -18l-21 -107h98l-6 -25h-97l-91 -462l77 -17l-3 -18h-246zM200 366h322l26 131h-322z
" />
    <glyph glyph-name="hbar" unicode="&#x127;" horiz-adv-x="466" 
d="M86 589h65l21 79l-61 41l2 7l152 30l-42 -157h185l-8 -27h-184l-78 -296h6q22 39 49 77t56 68t60 48t62 18q37 0 49.5 -25t2.5 -60l-93 -334h3q26 20 53.5 49.5t48.5 58.5l14 -8q-19 -32 -41 -62.5t-44.5 -54t-43 -38t-36.5 -14.5q-8 0 -15.5 3.5t-12 11t-5.5 19t4 28.5
l97 339q3 14 -2 22.5t-18 8.5q-24 0 -57 -25.5t-67 -70.5t-65 -107t-52 -135l-22 -78l-60 -17l-14 12l149 562h-66z" />
    <glyph glyph-name="Itilde" unicode="&#x128;" horiz-adv-x="274" 
d="M-32 18l85 17l117 594l-79 18l3 17h246l-3 -17l-85 -18l-117 -594l77 -17l-3 -18h-245zM89 743l5 14q12 35 28.5 53t34.5 24.5t37 3.5t37 -11l56 -25q17 -8 30 -12t24.5 -0.5t22.5 15.5t23 38l14 -5l-6 -19q-11 -34 -26 -53.5t-32 -28t-37 -6.5t-41 12l-54 26
q-21 9 -35.5 13.5t-26 1.5t-21 -14t-20.5 -32z" />
    <glyph glyph-name="itilde" unicode="&#x129;" horiz-adv-x="231" 
d="M50 591l5 14q12 34 26.5 52t30 24.5t32 3.5t32.5 -10l56 -25q15 -7 27.5 -10t23.5 0t21.5 14.5t21.5 34.5l14 -6l-6 -19q-11 -33 -25 -52t-31 -26t-37 -4t-42 14l-40 19q-20 10 -33 14.5t-23.5 1.5t-19.5 -14t-20 -32zM124 416q-11 5 -33 6t-48 -7v11q19 17 46 34t55 17
q30 0 43 -21t2 -59l-95 -339h3q11 7 25 20t28.5 28t27.5 31t21 29l14 -8q-18 -30 -39.5 -60.5t-44 -54.5t-44 -39t-37.5 -15q-22 0 -29.5 17.5t0.5 45.5z" />
    <glyph glyph-name="Imacron" unicode="&#x12a;" horiz-adv-x="274" 
d="M135 808h226l-10 -48h-226zM-29 18l85 17l117 594l-79 18l3 17h246l-3 -17l-85 -18l-117 -594l77 -17l-3 -18h-245z" />
    <glyph glyph-name="imacron" unicode="&#x12b;" horiz-adv-x="231" 
d="M96 665h196l-12 -47h-196zM124 416q-11 5 -33 6t-48 -7v11q19 17 46 34t55 17q30 0 43 -21t2 -59l-95 -339h3q11 7 25 20t28.5 28t27.5 31t21 29l14 -8q-18 -30 -39.5 -60.5t-44 -54.5t-44 -39t-37.5 -15q-22 0 -29.5 17.5t0.5 45.5z" />
    <glyph glyph-name="Ibreve" unicode="&#x12c;" horiz-adv-x="274" 
d="M-32 18l85 17l117 594l-79 18l3 17h246l-3 -17l-85 -18l-117 -594l77 -17l-3 -18h-245zM240 730q-53 0 -80.5 30t-30.5 98h17q17 -41 39 -60t64 -19q36 0 64.5 18.5t51.5 60.5h16q-12 -59 -49 -93.5t-92 -34.5z" />
    <glyph glyph-name="ibreve" unicode="&#x12d;" horiz-adv-x="231" 
d="M124 416q-11 5 -33 6t-48 -7v11q19 17 46 34t55 17q30 0 43 -21t2 -59l-95 -339h3q11 7 25 20t28.5 28t27.5 31t21 29l14 -8q-18 -30 -39.5 -60.5t-44 -54.5t-44 -39t-37.5 -15q-22 0 -29.5 17.5t0.5 45.5zM175 562q-47 0 -69 39t-15 117h16q6 -52 24 -78.5t56 -26.5
q21 0 38 9t30 23.5t23 33.5t18 39h16q-6 -33 -17 -61.5t-28 -49.5t-39.5 -33t-52.5 -12z" />
    <glyph glyph-name="Iogonek" unicode="&#x12e;" horiz-adv-x="274" 
d="M-32 18l85 17l117 594l-79 18l3 17h246l-3 -17l-85 -18l-117 -594l77 -17l-3 -18h-109q-26 -30 -43.5 -52t-28 -40t-14.5 -32.5t-4 -29.5q0 -23 14 -34.5t32 -11.5q20 0 37.5 11t44.5 43l15 -8q-13 -19 -27.5 -36.5t-31 -30.5t-35.5 -20.5t-41 -7.5q-18 0 -31.5 6.5
t-22.5 16.5t-13 22.5t-4 25.5q0 38 34 79t92 99h-109z" />
    <glyph glyph-name="iogonek" unicode="&#x12f;" horiz-adv-x="231" 
d="M124 416q-11 5 -33 6t-48 -7v11q19 17 46 34t55 17q30 0 43 -21t2 -59l-95 -339h3q11 7 25 20t28.5 28t27.5 31t21 29l14 -8q-17 -27 -45.5 -66t-60.5 -71q-38 -36 -64 -62t-41.5 -46.5t-22.5 -37t-7 -34.5q0 -13 10.5 -27t33.5 -14q20 0 38 11.5t44 42.5l15 -8
q-12 -17 -26 -34t-30.5 -30.5t-36.5 -22t-42 -8.5q-36 0 -53.5 22.5t-17.5 48.5q0 21 9 39.5t27 37.5t44.5 40.5t60.5 48.5v2h-2q-17 0 -26.5 15.5t-0.5 46.5zM135 645q0 20 14 34t34 14t34 -14t14 -34t-14 -34t-34 -14t-34 14t-14 34z" />
    <glyph glyph-name="Idotaccent" unicode="&#x130;" horiz-adv-x="274" 
d="M-32 18l85 17l117 594l-79 18l3 17h246l-3 -17l-85 -18l-117 -594l77 -17l-3 -18h-245zM193 806q0 20 14 34t34 14t34 -14t14 -34t-14 -34t-34 -14t-34 14t-14 34z" />
    <glyph glyph-name="dotlessi" unicode="&#x131;" horiz-adv-x="231" 
d="M124 416q-11 5 -33 6t-48 -7v11q19 17 46 34t55 17q30 0 43 -21t2 -59l-95 -339h3q11 7 25 20t28.5 28t27.5 31t21 29l14 -8q-18 -30 -39.5 -60.5t-44 -54.5t-44 -39t-37.5 -15q-22 0 -29.5 17.5t0.5 45.5z" />
    <glyph glyph-name="IJ" unicode="&#x132;" horiz-adv-x="557" 
d="M-32 18l85 17l117 594l-79 18l3 17h246l-3 -17l-85 -18l-117 -594l77 -17l-3 -18h-245zM418 34q-11 -53 -25 -95t-41 -73.5t-70.5 -52.5t-111.5 -33l-5 19q40 15 68 33.5t47 44.5t31.5 60t21.5 81l120 611l-79 18l3 17h246l-3 -17l-85 -18z" />
    <glyph glyph-name="ij" unicode="&#x133;" horiz-adv-x="451" 
d="M124 416q-11 5 -33 6t-48 -7v11q19 17 46 34t55 17q30 0 43 -21t2 -59l-95 -339h3q11 7 25 20t28.5 28t27.5 31t21 29l14 -8q-18 -30 -39.5 -60.5t-44 -54.5t-44 -39t-37.5 -15q-22 0 -29.5 17.5t0.5 45.5zM135 645q0 20 14 34t34 14t34 -14t14 -34t-14 -34t-34 -14
t-34 14t-14 34zM356 416q-11 5 -33 6t-48 -7v11q19 17 46 34t55 17q30 0 42 -21t3 -59l-103 -436q-8 -34 -26.5 -73t-45 -72t-60.5 -55t-72 -22q-12 0 -25 4t-23.5 11t-17 17.5t-6.5 23.5q0 18 10 29.5t20 21.5q26 -39 44 -55.5t36 -16.5q23 0 43 28t37 99zM366 645
q0 20 14 34t34 14t34 -14t14 -34t-14 -34t-34 -14t-34 14t-14 34z" />
    <glyph glyph-name="Jcircumflex" unicode="&#x134;" horiz-adv-x="283" 
d="M94 728l140 127h51l90 -127h-29l-96 83l-122 -83h-34zM144 34q-11 -53 -25 -95t-41 -73.5t-70.5 -52.5t-111.5 -33l-5 19q40 15 68 33.5t47 44.5t31.5 60t21.5 81l120 611l-79 18l3 17h246l-3 -17l-85 -18z" />
    <glyph glyph-name="jcircumflex" unicode="&#x135;" horiz-adv-x="220" 
d="M125 416q-11 5 -33 6t-48 -7v11q19 17 46 34t55 17q30 0 42 -21t3 -59l-103 -436q-8 -34 -26.5 -73t-45 -72t-60.5 -55t-72 -22q-12 0 -25 4t-23.5 11t-17 17.5t-6.5 23.5q0 18 10 29.5t20 21.5q26 -39 44 -55.5t36 -16.5q23 0 43 28t37 99zM51 544l138 208h38l48 -208
h-23l-58 136l-116 -136h-27z" />
    <glyph glyph-name="Kcommaaccent" unicode="&#x136;" horiz-adv-x="614" 
d="M183 -243q53 18 76.5 37t23.5 43q0 14 -11.5 25.5t-39.5 10.5v4q4 24 19 39t42 15t41.5 -16.5t14.5 -40.5q0 -51 -42.5 -83t-120.5 -49zM-32 18l85 17l117 594l-79 18l3 17h247l-3 -17l-86 -18l-117 -594l78 -17l-3 -18h-246zM579 0q-39 -4 -67 -4.5t-52 9t-47.5 31.5
t-52.5 62t-67.5 101.5t-92.5 150.5v2l336 274l-78 21l3 17h214l-3 -17l-86 -21l-314 -248q54 -84 91.5 -142.5t64.5 -97t46 -60.5t35.5 -34t33.5 -17.5t39 -9.5z" />
    <glyph glyph-name="kcommaaccent" unicode="&#x137;" horiz-adv-x="422" 
d="M46 -243q53 18 76.5 37t23.5 43q0 14 -11.5 25.5t-39.5 10.5v4q4 24 19 39t42 15t41.5 -16.5t14.5 -40.5q0 -51 -42.5 -83t-120.5 -49zM331 -33q-25 0 -42.5 11.5t-32.5 30.5l-136 167q-8 -20 -14.5 -39.5t-11.5 -39.5l-25 -92l-60 -17l-14 12l177 668l-61 41l2 7l152 30
l-127 -480h5q21 42 45.5 80.5t52 67.5t58 46t64.5 17q27 0 47 -17.5t20 -48.5q0 -61 -62 -110.5t-180 -107.5l186 -211v-3q-4 -3 -15 -7.5t-28 -4.5zM324 420q-24 0 -51 -20t-54 -53t-52 -76t-44 -89q109 53 172 101.5t63 98.5q0 17 -8 27.5t-26 10.5z" />
    <glyph glyph-name="kgreenlandic" unicode="&#x138;" horiz-adv-x="431" 
d="M125 416q-13 5 -37.5 5t-43.5 -6v10q21 21 50 36.5t57 15.5q27 0 41 -20.5t3 -50.5l-48 -140h4q21 42 45.5 80.5t52 67.5t58 46t64.5 17q26 0 46.5 -17.5t20.5 -48.5q0 -61 -62 -110.5t-179 -106.5l186 -212v-3q-4 -3 -15 -7.5t-28 -4.5q-25 0 -44.5 11.5t-34.5 30.5
l-134 163q-15 -38 -24 -75l-23 -92l-62 -17l-14 12zM332 420q-24 0 -51 -20t-54 -53t-52 -76t-44 -89q109 53 172 101.5t63 98.5q0 17 -8 27.5t-26 10.5z" />
    <glyph glyph-name="Lacute" unicode="&#x139;" horiz-adv-x="534" 
d="M369 865v-7l-137 -130h-24l84 137h77zM135 45q8 -8 20.5 -13t41.5 -5h168l121 179h19l-72 -206h-469l4 18l85 17l117 594l-79 18l3 17h247l-3 -17l-86 -18z" />
    <glyph glyph-name="lacute" unicode="&#x13a;" horiz-adv-x="237" 
d="M389 905v-7l-137 -130h-24l84 137h77zM212 158q-15 -27 -36.5 -57t-44.5 -55t-45 -41t-39 -16q-22 0 -29.5 17t0.5 45l164 617l-61 41l2 7l152 30l-182 -688h3q26 19 53 48t49 60z" />
    <glyph glyph-name="Lcommaaccent" unicode="&#x13b;" horiz-adv-x="534" 
d="M116 -243q53 18 76.5 37t23.5 43q0 14 -11.5 25.5t-39.5 10.5v4q4 24 19 39t42 15t41.5 -16.5t14.5 -40.5q0 -51 -42.5 -83t-120.5 -49zM135 45q8 -8 20.5 -13t41.5 -5h168l121 179h19l-72 -206h-469l4 18l85 17l117 594l-79 18l3 17h247l-3 -17l-86 -18z" />
    <glyph glyph-name="lcommaaccent" unicode="&#x13c;" horiz-adv-x="237" 
d="M-74 -243q53 18 76.5 37t23.5 43q0 14 -11.5 25.5t-39.5 10.5v4q4 24 19 39t42 15t41.5 -16.5t14.5 -40.5q0 -51 -42.5 -83t-120.5 -49zM212 158q-15 -27 -36.5 -57t-44.5 -55t-45 -41t-39 -16q-22 0 -29.5 17t0.5 45l164 617l-61 41l2 7l152 30l-182 -688h3q26 19 53 48
t49 60z" />
    <glyph glyph-name="Lcaron" unicode="&#x13d;" horiz-adv-x="534" 
d="M401 532l54 201h77l-1 -6l-115 -195h-15zM135 45q8 -8 20.5 -13t41.5 -5h168l121 179h19l-72 -206h-469l4 18l85 17l117 594l-79 18l3 17h247l-3 -17l-86 -18z" />
    <glyph glyph-name="lcaron" unicode="&#x13e;" horiz-adv-x="237" 
d="M277 532l54 201h77l-1 -6l-115 -195h-15zM212 158q-15 -27 -36.5 -57t-44.5 -55t-45 -41t-39 -16q-22 0 -29.5 17t0.5 45l164 617l-61 41l2 7l152 30l-182 -688h3q26 19 53 48t49 60z" />
    <glyph glyph-name="Ldot" unicode="&#x13f;" horiz-adv-x="534" 
d="M135 45q8 -8 20.5 -13t41.5 -5h168l121 179h19l-72 -206h-469l4 18l85 17l117 594l-79 18l3 17h247l-3 -17l-86 -18zM405 368q0 22 15 37t37 15t37 -15t15 -37t-15 -37t-37 -15t-37 15t-15 37z" />
    <glyph glyph-name="ldot" unicode="&#x140;" horiz-adv-x="267" 
d="M272 318q-21 0 -35.5 14.5t-14.5 35.5t14.5 35.5t35.5 14.5t35.5 -14.5t14.5 -35.5t-14.5 -35.5t-35.5 -14.5zM212 158q-15 -27 -36.5 -57t-44.5 -55t-45 -41t-39 -16q-22 0 -29.5 17t0.5 45l164 617l-61 41l2 7l152 30l-182 -688h3q26 19 53 48t49 60z" />
    <glyph glyph-name="Lslash" unicode="&#x141;" horiz-adv-x="534" 
d="M16 291l92 24l62 314l-79 18l3 17h247l-3 -17l-86 -18l-59 -292l245 63l-7 -29l-244 -63l-52 -263q8 -8 20.5 -13t41.5 -5h168l121 179h19l-72 -206h-469l4 18l85 17l49 251l-92 -24z" />
    <glyph glyph-name="lslash" unicode="&#x142;" horiz-adv-x="237" 
d="M19 323l82 42l81 303l-61 41l2 7l152 30l-90 -339l90 46l-8 -30l-90 -46l-84 -319h3q26 19 53 48t49 60l14 -8q-15 -27 -36.5 -57t-44.5 -55t-45 -41t-39 -16q-22 0 -29.5 17t0.5 45l75 284l-82 -42z" />
    <glyph glyph-name="Nacute" unicode="&#x143;" horiz-adv-x="672" 
d="M571 865v-7l-137 -130h-24l84 137h77zM508 -14l-317 591l-102 -541l78 -18l-3 -18h-199l4 18l85 18l113 574q-9 12 -22 19t-27 11l-29 7l3 17h143l279 -521l91 484l-79 20l3 17h200l-3 -17l-85 -20l-99 -506l-20 -135h-14z" />
    <glyph glyph-name="nacute" unicode="&#x144;" horiz-adv-x="477" 
d="M449 752v-10l-136 -198h-24l92 208h68zM125 416q-13 5 -37.5 5t-43.5 -6v10q21 21 50 36.5t57 15.5q27 0 40 -20.5t4 -50.5l-41 -137h4q23 42 50 79.5t55.5 66t58.5 45.5t60 17q37 0 49.5 -25t2.5 -60l-93 -334h3q26 20 54 50t48 58l14 -8q-19 -32 -41 -62.5t-44 -54
t-43 -38t-37 -14.5q-8 0 -15.5 3.5t-12 11t-5.5 19t4 28.5l97 339q3 14 -2 22.5t-18 8.5q-23 0 -55 -23.5t-65 -66t-64.5 -103t-52.5 -133.5l-26 -90l-62 -17l-14 12z" />
    <glyph glyph-name="Ncommaaccent" unicode="&#x145;" horiz-adv-x="672" 
d="M187 -243q53 18 76.5 37t23.5 43q0 14 -11.5 25.5t-39.5 10.5v4q4 24 19 39t42 15t41.5 -16.5t14.5 -40.5q0 -51 -42.5 -83t-120.5 -49zM508 -14l-317 591l-102 -541l78 -18l-3 -18h-199l4 18l85 18l113 574q-9 12 -22 19t-27 11l-29 7l3 17h143l279 -521l91 484l-79 20
l3 17h200l-3 -17l-85 -20l-99 -506l-20 -135h-14z" />
    <glyph glyph-name="ncommaaccent" unicode="&#x146;" horiz-adv-x="477" 
d="M56 -243q53 18 76.5 37t23.5 43q0 14 -11.5 25.5t-39.5 10.5v4q4 24 19 39t42 15t41.5 -16.5t14.5 -40.5q0 -51 -42.5 -83t-120.5 -49zM125 416q-13 5 -37.5 5t-43.5 -6v10q21 21 50 36.5t57 15.5q27 0 40 -20.5t4 -50.5l-41 -137h4q23 42 50 79.5t55.5 66t58.5 45.5
t60 17q37 0 49.5 -25t2.5 -60l-93 -334h3q26 20 54 50t48 58l14 -8q-19 -32 -41 -62.5t-44 -54t-43 -38t-37 -14.5q-8 0 -15.5 3.5t-12 11t-5.5 19t4 28.5l97 339q3 14 -2 22.5t-18 8.5q-23 0 -55 -23.5t-65 -66t-64.5 -103t-52.5 -133.5l-26 -90l-62 -17l-14 12z" />
    <glyph glyph-name="Ncaron" unicode="&#x147;" horiz-adv-x="672" 
d="M588 855l-140 -127h-51l-90 127h29l96 -83l122 83h34zM508 -14l-317 591l-102 -541l78 -18l-3 -18h-199l4 18l85 18l113 574q-9 12 -22 19t-27 11l-29 7l3 17h143l279 -521l91 484l-79 20l3 17h200l-3 -17l-85 -20l-99 -506l-20 -135h-14z" />
    <glyph glyph-name="ncaron" unicode="&#x148;" horiz-adv-x="477" 
d="M464 752l-138 -208h-38l-48 208h23l57 -136l117 136h27zM125 416q-13 5 -37.5 5t-43.5 -6v10q21 21 50 36.5t57 15.5q27 0 40 -20.5t4 -50.5l-41 -137h4q23 42 50 79.5t55.5 66t58.5 45.5t60 17q37 0 49.5 -25t2.5 -60l-93 -334h3q26 20 54 50t48 58l14 -8
q-19 -32 -41 -62.5t-44 -54t-43 -38t-37 -14.5q-8 0 -15.5 3.5t-12 11t-5.5 19t4 28.5l97 339q3 14 -2 22.5t-18 8.5q-23 0 -55 -23.5t-65 -66t-64.5 -103t-52.5 -133.5l-26 -90l-62 -17l-14 12z" />
    <glyph glyph-name="napostrophe" unicode="&#x149;" horiz-adv-x="477" 
d="M51 562q53 18 76.5 37t23.5 43q0 14 -11.5 25.5t-39.5 10.5v4q4 24 19 39t42 15t41.5 -16.5t14.5 -40.5q0 -51 -42.5 -83t-120.5 -49zM125 416q-13 5 -37.5 5t-43.5 -6v10q21 21 50 36.5t57 15.5q27 0 40 -20.5t4 -50.5l-41 -137h4q23 42 50 79.5t55.5 66t58.5 45.5
t60 17q37 0 49.5 -25t2.5 -60l-93 -334h3q26 20 54 50t48 58l14 -8q-19 -32 -41 -62.5t-44 -54t-43 -38t-37 -14.5q-8 0 -15.5 3.5t-12 11t-5.5 19t4 28.5l97 339q3 14 -2 22.5t-18 8.5q-23 0 -55 -23.5t-65 -66t-64.5 -103t-52.5 -133.5l-26 -90l-62 -17l-14 12z" />
    <glyph glyph-name="Eng" unicode="&#x14a;" horiz-adv-x="672" 
d="M524 34q-12 -60 -29 -103t-45 -73t-70 -48.5t-104 -29.5l-5 17q45 14 78.5 34t57 46t39 60t26.5 77l6 27l-287 536l-102 -541l78 -18l-3 -18h-199l4 18l85 18l113 574q-18 23 -49 30l-29 7l3 17h143l279 -520l91 483l-79 20l3 17h200l-3 -17l-85 -20z" />
    <glyph glyph-name="eng" unicode="&#x14b;" horiz-adv-x="463" 
d="M360 378q7 23 1.5 33t-18.5 10q-23 0 -55 -23.5t-65 -66t-64.5 -103t-52.5 -133.5l-26 -90l-62 -17l-14 12l121 416q-13 5 -38 5t-43 -6v10q21 21 50 36.5t57 15.5q27 0 40 -20.5t4 -50.5l-41 -137h4q23 42 50 79.5t55.5 66t58.5 45.5t60 17q36 0 48.5 -22.5t-1.5 -79.5
l-101 -414q-8 -34 -26 -73t-44 -72t-59 -55t-72 -22q-12 0 -24.5 4t-23 11t-17.5 17.5t-7 23.5q0 19 10 29.5t20 21.5q26 -39 44 -55.5t36 -16.5q23 0 43 28t37 99z" />
    <glyph glyph-name="Omacron" unicode="&#x14c;" horiz-adv-x="728" 
d="M318 808h280l-11 -48h-279zM435 678q63 0 114 -22.5t87.5 -61.5t56.5 -90.5t20 -109.5q0 -81 -30 -156t-82.5 -132t-124 -91.5t-153.5 -34.5q-59 0 -110 22t-88.5 60t-58.5 90.5t-21 113.5q0 81 30 155.5t82.5 131.5t123.5 91t154 34zM627 418q0 49 -12.5 91.5t-37 74
t-60.5 50t-84 18.5q-60 0 -115 -34.5t-96.5 -91.5t-66 -131.5t-24.5 -154.5q0 -49 12.5 -91.5t37 -74t60.5 -50t84 -18.5q61 0 116 35.5t96.5 93.5t65.5 132t24 151z" />
    <glyph glyph-name="omacron" unicode="&#x14d;" horiz-adv-x="430" 
d="M187 665h249l-11 -47h-248zM274 457q-38 0 -71.5 -34.5t-58.5 -87t-39.5 -114t-14.5 -115.5q0 -45 12.5 -72.5t44.5 -27.5q26 0 50.5 16.5t45.5 44t38.5 63.5t30 74.5t19.5 77t7 72.5q0 42 -16 72.5t-48 30.5zM279 477q36 0 61.5 -12t41 -33.5t23 -51t7.5 -63.5
q0 -51 -18.5 -109t-53 -107.5t-83.5 -82t-111 -32.5q-34 0 -58.5 13t-40.5 35.5t-23.5 53.5t-7.5 67q0 47 17.5 103t51 105t82.5 81.5t112 32.5z" />
    <glyph glyph-name="Obreve" unicode="&#x14e;" horiz-adv-x="728" 
d="M448 730q-53 0 -80.5 30t-30.5 98h17q17 -41 39 -60t64 -19q36 0 64.5 18.5t51.5 60.5h16q-12 -59 -49 -93.5t-92 -34.5zM435 678q63 0 114 -22.5t87.5 -61.5t56.5 -90.5t20 -109.5q0 -81 -30 -156t-82.5 -132t-124 -91.5t-153.5 -34.5q-59 0 -110 22t-88.5 60
t-58.5 90.5t-21 113.5q0 81 30 155.5t82.5 131.5t123.5 91t154 34zM627 418q0 49 -12.5 91.5t-37 74t-60.5 50t-84 18.5q-60 0 -115 -34.5t-96.5 -91.5t-66 -131.5t-24.5 -154.5q0 -49 12.5 -91.5t37 -74t60.5 -50t84 -18.5q61 0 116 35.5t96.5 93.5t65.5 132t24 151z" />
    <glyph glyph-name="obreve" unicode="&#x14f;" horiz-adv-x="430" 
d="M274 457q-38 0 -71.5 -34.5t-58.5 -87t-39.5 -114t-14.5 -115.5q0 -45 12.5 -72.5t44.5 -27.5q26 0 50.5 16.5t45.5 44t38.5 63.5t30 74.5t19.5 77t7 72.5q0 42 -16 72.5t-48 30.5zM279 477q36 0 61.5 -12t41 -33.5t23 -51t7.5 -63.5q0 -51 -18.5 -109t-53 -107.5
t-83.5 -82t-111 -32.5q-34 0 -58.5 13t-40.5 35.5t-23.5 53.5t-7.5 67q0 47 17.5 103t51 105t82.5 81.5t112 32.5zM298 562q-47 0 -69 39t-15 117h16q6 -52 24 -78.5t56 -26.5q21 0 38 9t30 23.5t23 33.5t18 39h16q-6 -33 -17 -61.5t-28 -49.5t-39.5 -33t-52.5 -12z" />
    <glyph glyph-name="Ohungarumlaut" unicode="&#x150;" horiz-adv-x="728" 
d="M638 857l-115 -129h-28l76 137h67v-8zM481 857l-115 -129h-27l76 137h66v-8zM435 678q63 0 114 -22.5t87.5 -61.5t56.5 -90.5t20 -109.5q0 -81 -30 -156t-82.5 -132t-124 -91.5t-153.5 -34.5q-59 0 -110 22t-88.5 60t-58.5 90.5t-21 113.5q0 81 30 155.5t82.5 131.5
t123.5 91t154 34zM627 418q0 49 -12.5 91.5t-37 74t-60.5 50t-84 18.5q-60 0 -115 -34.5t-96.5 -91.5t-66 -131.5t-24.5 -154.5q0 -49 12.5 -91.5t37 -74t60.5 -50t84 -18.5q61 0 116 35.5t96.5 93.5t65.5 132t24 151z" />
    <glyph glyph-name="ohungarumlaut" unicode="&#x151;" horiz-adv-x="430" 
d="M354 752v-9l-125 -199h-24l85 208h64zM494 752v-9l-125 -199h-24l86 208h63zM274 457q-38 0 -71.5 -34.5t-58.5 -87t-39.5 -114t-14.5 -115.5q0 -45 12.5 -72.5t44.5 -27.5q26 0 50.5 16.5t45.5 44t38.5 63.5t30 74.5t19.5 77t7 72.5q0 42 -16 72.5t-48 30.5zM279 477
q36 0 61.5 -12t41 -33.5t23 -51t7.5 -63.5q0 -51 -18.5 -109t-53 -107.5t-83.5 -82t-111 -32.5q-34 0 -58.5 13t-40.5 35.5t-23.5 53.5t-7.5 67q0 47 17.5 103t51 105t82.5 81.5t112 32.5z" />
    <glyph glyph-name="OE" unicode="&#x152;" horiz-adv-x="945" 
d="M565 0q-40 0 -67 -0.5t-51 -1.5t-51.5 -2t-67.5 -2q-57 -2 -108.5 15t-90 52t-61.5 89t-23 126q0 85 33.5 157t90.5 124.5t133 82.5t162 30q37 0 61.5 -1t51.5 -2t63.5 -2t98.5 -1h145l60 5l-25 -189h-16l-28 157h-228l-54 -275h147l52 107h17l-47 -239h-17l-11 101h-147
l-56 -286q8 -9 21 -13.5t42 -4.5h180l110 166h19l-66 -193h-272zM565 623q-18 8 -52 16.5t-76 8.5q-65 0 -120.5 -34t-96.5 -88.5t-64.5 -122.5t-23.5 -135q0 -49 9.5 -95t32 -81t60.5 -56.5t94 -21.5q64 0 97 27t42 75z" />
    <glyph glyph-name="oe" unicode="&#x153;" horiz-adv-x="659" 
d="M425 -14q-43 0 -70 25t-38 68q-32 -42 -75 -67.5t-95 -25.5q-34 0 -58.5 13t-40.5 35.5t-23.5 53.5t-7.5 67q0 47 17.5 103t51 105t82.5 81.5t112 32.5q32 0 54 -10.5t36.5 -28.5t22 -41t10.5 -47q42 54 95 90.5t108 36.5q35 0 53 -16.5t18 -44.5q0 -31 -26.5 -60.5
t-67.5 -53.5t-91 -42t-98 -26q-11 -41 -11 -82q0 -51 19 -80.5t57 -29.5q70 0 132 104l18 -7q-14 -30 -33 -57.5t-42 -49t-50.5 -34t-58.5 -12.5zM275 457q-38 0 -71.5 -34.5t-58.5 -87t-39.5 -114t-14.5 -115.5q0 -45 12.5 -72.5t44.5 -27.5q26 0 50.5 16.5t45.5 44
t38.5 63.5t30 74.5t19.5 77t7 72.5q0 42 -16 72.5t-48 30.5zM563 443q-18 0 -40.5 -14t-45 -39t-43 -59t-33.5 -74q30 6 64 21t62.5 36.5t47.5 47t19 51.5q0 15 -9 22.5t-22 7.5z" />
    <glyph glyph-name="Racute" unicode="&#x154;" horiz-adv-x="593" 
d="M489 865v-7l-137 -130h-24l84 137h77zM-32 18l85 17l117 594l-79 18l3 17h227q46 0 85 -10t67.5 -28.5t44 -45.5t15.5 -61q0 -43 -17.5 -74.5t-44.5 -53t-60 -35t-64 -21.5q29 -71 50 -120.5t37.5 -83t30.5 -53.5t29 -31.5t32.5 -18t42.5 -12.5l-3 -16q-41 -4 -69.5 -5
t-50.5 7t-39.5 27.5t-36.5 56t-42.5 93t-56.5 138.5h-81l-55 -282l92 -19l-3 -16h-260zM195 343q62 -3 109.5 7.5t79.5 32.5t48.5 54t16.5 70q0 29 -11 55t-34.5 44.5t-60.5 29t-89 8.5z" />
    <glyph glyph-name="racute" unicode="&#x155;" horiz-adv-x="350" 
d="M407 752v-10l-136 -198h-24l92 208h68zM39 117q22 76 37.5 131.5t26.5 93.5q12 43 20 74q-13 5 -37.5 5t-43.5 -6v10q21 21 50 36.5t57 15.5q32 0 42 -22.5t-1 -57.5l-54 -171h8q37 79 66.5 128t53.5 76.5t44 37t38 9.5q20 0 32 -11.5t12 -30.5q0 -23 -15.5 -47.5
t-35.5 -41.5h-17q22 68 -15 68q-12 0 -28 -14t-33.5 -37.5t-36.5 -54.5t-36.5 -65.5t-33 -70.5t-26.5 -69l-32 -98l-62 -17l-14 12z" />
    <glyph glyph-name="Rcommaaccent" unicode="&#x156;" horiz-adv-x="625" 
d="M184 -243q53 18 76.5 37t23.5 43q0 14 -11.5 25.5t-39.5 10.5v4q4 24 19 39t42 15t41.5 -16.5t14.5 -40.5q0 -51 -42.5 -83t-120.5 -49zM-32 18l85 17l117 594l-79 18l3 17h227q46 0 85 -10t67.5 -28.5t44 -45.5t15.5 -61q0 -43 -17.5 -74.5t-44.5 -53t-60 -35t-64 -21.5
q29 -71 50 -120.5t37.5 -83t30.5 -53.5t29 -31.5t32.5 -18t42.5 -12.5l-3 -16q-41 -4 -69.5 -5t-50.5 7t-39.5 27.5t-36.5 56t-42.5 93t-56.5 138.5h-81l-55 -282l92 -19l-3 -16h-260zM195 343q62 -3 109.5 7.5t79.5 32.5t48.5 54t16.5 70q0 29 -11 55t-34.5 44.5t-60.5 29
t-89 8.5z" />
    <glyph glyph-name="rcommaaccent" unicode="&#x157;" horiz-adv-x="340" 
d="M-88 -243q53 18 76.5 37t23.5 43q0 14 -11.5 25.5t-39.5 10.5v4q4 24 19 39t42 15t41.5 -16.5t14.5 -40.5q0 -51 -42.5 -83t-120.5 -49zM39 117q22 76 37.5 131.5t26.5 93.5q12 43 20 74q-13 5 -37.5 5t-43.5 -6v10q21 21 50 36.5t57 15.5q32 0 42 -22.5t-1 -57.5
l-54 -171h8q37 79 66.5 128t53.5 76.5t44 37t38 9.5q20 0 32 -11.5t12 -30.5q0 -23 -15.5 -47.5t-35.5 -41.5h-17q22 68 -15 68q-12 0 -28 -14t-33.5 -37.5t-36.5 -54.5t-36.5 -65.5t-33 -70.5t-26.5 -69l-32 -98l-62 -17l-14 12z" />
    <glyph glyph-name="Rcaron" unicode="&#x158;" horiz-adv-x="593" 
d="M511 855l-140 -127h-51l-90 127h29l96 -83l122 83h34zM-32 18l85 17l117 594l-79 18l3 17h227q46 0 85 -10t67.5 -28.5t44 -45.5t15.5 -61q0 -43 -17.5 -74.5t-44.5 -53t-60 -35t-64 -21.5q29 -71 50 -120.5t37.5 -83t30.5 -53.5t29 -31.5t32.5 -18t42.5 -12.5l-3 -16
q-41 -4 -69.5 -5t-50.5 7t-39.5 27.5t-36.5 56t-42.5 93t-56.5 138.5h-81l-55 -282l92 -19l-3 -16h-260zM195 343q62 -3 109.5 7.5t79.5 32.5t48.5 54t16.5 70q0 29 -11 55t-34.5 44.5t-60.5 29t-89 8.5z" />
    <glyph glyph-name="rcaron" unicode="&#x159;" horiz-adv-x="350" 
d="M421 752l-138 -208h-38l-48 208h23l57 -136l117 136h27zM39 117q22 76 37.5 131.5t26.5 93.5q12 43 20 74q-13 5 -37.5 5t-43.5 -6v10q21 21 50 36.5t57 15.5q32 0 42 -22.5t-1 -57.5l-54 -171h8q37 79 66.5 128t53.5 76.5t44 37t38 9.5q20 0 32 -11.5t12 -30.5
q0 -23 -15.5 -47.5t-35.5 -41.5h-17q22 68 -15 68q-12 0 -28 -14t-33.5 -37.5t-36.5 -54.5t-36.5 -65.5t-33 -70.5t-26.5 -69l-32 -98l-62 -17l-14 12z" />
    <glyph glyph-name="Sacute" unicode="&#x15a;" horiz-adv-x="480" 
d="M60 224l11 -158q24 -22 53.5 -37.5t74.5 -15.5q31 0 60 9t51.5 27t36 44t13.5 60q0 45 -26 78.5t-78 68.5l-35 23q-32 21 -54 39.5t-36 37t-20 39t-6 47.5q0 38 19.5 73t52.5 61.5t77 42t94 15.5q38 0 77 -10.5t69 -21.5l-36 -176h-16l-6 141q-23 17 -49.5 27.5
t-63.5 10.5q-33 0 -59.5 -10t-45.5 -27.5t-29 -40.5t-10 -49q0 -24 5.5 -41.5t16.5 -32t28 -28t41 -29.5l25 -16q36 -24 63 -45.5t45 -42.5t27 -43.5t9 -49.5q0 -43 -20.5 -81t-55.5 -66.5t-81 -45t-96 -16.5q-25 0 -50.5 4.5t-48.5 11.5t-43 15.5t-33 15.5l34 192h15z
M486 865v-7l-137 -130h-24l84 137h77z" />
    <glyph glyph-name="sacute" unicode="&#x15b;" horiz-adv-x="294" 
d="M376 752v-10l-136 -198h-24l92 208h68zM244 126q0 -22 -14 -46.5t-37.5 -45.5t-53.5 -34.5t-62 -13.5q-25 0 -43.5 6.5t-31 17t-18 22.5t-5.5 24q0 16 7.5 30.5t14.5 19.5h1q22 -32 54 -55.5t66 -23.5q26 0 41.5 17t15.5 40q0 20 -10.5 38.5t-22.5 38.5l-42 71
q-14 23 -22.5 37.5t-13.5 25.5t-7 20t-2 20q0 29 18.5 55t45 45.5t56 30.5t52.5 11q42 0 57 -17t15 -38q0 -24 -19 -48h-2q-25 27 -48.5 44t-52.5 17q-23 0 -40.5 -16t-17.5 -42q0 -8 1 -14.5t4 -14t8.5 -17.5t14.5 -25l52 -85q22 -35 31.5 -54t9.5 -41z" />
    <glyph glyph-name="Scircumflex" unicode="&#x15c;" horiz-adv-x="480" 
d="M197 728l140 127h51l90 -127h-29l-96 83l-122 -83h-34zM60 224l11 -158q24 -22 53.5 -37.5t74.5 -15.5q31 0 60 9t51.5 27t36 44t13.5 60q0 45 -26 78.5t-78 68.5l-35 23q-32 21 -54 39.5t-36 37t-20 39t-6 47.5q0 38 19.5 73t52.5 61.5t77 42t94 15.5q38 0 77 -10.5
t69 -21.5l-36 -176h-16l-6 141q-23 17 -49.5 27.5t-63.5 10.5q-33 0 -59.5 -10t-45.5 -27.5t-29 -40.5t-10 -49q0 -24 5.5 -41.5t16.5 -32t28 -28t41 -29.5l25 -16q36 -24 63 -45.5t45 -42.5t27 -43.5t9 -49.5q0 -43 -20.5 -81t-55.5 -66.5t-81 -45t-96 -16.5
q-25 0 -50.5 4.5t-48.5 11.5t-43 15.5t-33 15.5l34 192h15z" />
    <glyph glyph-name="scircumflex" unicode="&#x15d;" horiz-adv-x="294" 
d="M112 544l138 208h38l48 -208h-23l-58 136l-116 -136h-27zM244 126q0 -22 -14 -46.5t-37.5 -45.5t-53.5 -34.5t-62 -13.5q-25 0 -43.5 6.5t-31 17t-18 22.5t-5.5 24q0 16 7.5 30.5t14.5 19.5h1q22 -32 54 -55.5t66 -23.5q26 0 41.5 17t15.5 40q0 20 -10.5 38.5t-22.5 38.5
l-42 71q-14 23 -22.5 37.5t-13.5 25.5t-7 20t-2 20q0 29 18.5 55t45 45.5t56 30.5t52.5 11q42 0 57 -17t15 -38q0 -24 -19 -48h-2q-25 27 -48.5 44t-52.5 17q-23 0 -40.5 -16t-17.5 -42q0 -8 1 -14.5t4 -14t8.5 -17.5t14.5 -25l52 -85q22 -35 31.5 -54t9.5 -41z" />
    <glyph glyph-name="Scedilla" unicode="&#x15e;" horiz-adv-x="480" 
d="M66 -241q14 4 31.5 10.5t33.5 17t26.5 25t10.5 33.5q0 13 -5 21.5t-11.5 14t-14 8.5t-11.5 5q12 16 23 33q10 14 20.5 30t18.5 28h-2q-25 0 -50.5 4.5t-48.5 11.5t-43 15.5t-33 15.5l34 192h15l11 -158q24 -22 53.5 -37.5t74.5 -15.5q31 0 60 9t51.5 27t36 44t13.5 60
q0 45 -26 78.5t-78 68.5l-35 23q-32 21 -54.5 39t-36 37t-19.5 40t-6 47q0 38 19.5 73t52.5 61.5t77 42t94 15.5q38 0 77 -10.5t69 -21.5l-36 -176h-16l-6 141q-23 17 -49.5 27.5t-63.5 10.5q-33 0 -59.5 -10t-45.5 -27.5t-29 -40.5t-10 -49q0 -23 5 -41t16.5 -33
t28.5 -28.5t41 -28.5l25 -16q73 -47 108 -88t36 -93q0 -40 -18 -76t-49 -63.5t-71.5 -46t-86.5 -22.5l-34 -52q26 -9 39.5 -26.5t13.5 -37.5q0 -33 -18 -55.5t-44 -37t-55 -22t-51 -11.5z" />
    <glyph glyph-name="scedilla" unicode="&#x15f;" horiz-adv-x="294" 
d="M-62 -241q14 4 31.5 10.5t33.5 17t26.5 25t10.5 33.5q0 13 -5 21.5t-11.5 14t-14 8.5t-11.5 5l63 93q-42 4 -62.5 25.5t-19.5 43.5q0 16 7.5 30.5t14.5 19.5h1q22 -32 54 -55.5t66 -23.5q26 0 41.5 17t15.5 40q0 20 -10.5 38.5t-22.5 38.5l-42 71q-14 23 -22.5 37.5
t-13.5 25.5t-7 20t-2 20q0 29 18.5 55t45 45.5t56 30.5t52.5 11q42 0 57 -17t15 -38q0 -24 -19 -48h-2q-25 27 -48.5 44t-52.5 17q-23 0 -40.5 -16t-17.5 -42q0 -8 1 -14.5t4 -14t8.5 -17.5t14.5 -25l52 -85q22 -35 31.5 -54t9.5 -41q0 -21 -13 -44.5t-35 -44t-50.5 -35
t-59.5 -16.5l-34 -52q26 -9 39.5 -26.5t13.5 -37.5q0 -33 -18 -55.5t-44 -37t-55 -22t-51 -11.5z" />
    <glyph glyph-name="Scaron" unicode="&#x160;" horiz-adv-x="480" 
d="M503 855l-140 -127h-51l-90 127h29l96 -83l122 83h34zM60 224l11 -158q24 -22 53.5 -37.5t74.5 -15.5q31 0 60 9t51.5 27t36 44t13.5 60q0 45 -26 78.5t-78 68.5l-35 23q-32 21 -54 39.5t-36 37t-20 39t-6 47.5q0 38 19.5 73t52.5 61.5t77 42t94 15.5q38 0 77 -10.5
t69 -21.5l-36 -176h-16l-6 141q-23 17 -49.5 27.5t-63.5 10.5q-33 0 -59.5 -10t-45.5 -27.5t-29 -40.5t-10 -49q0 -24 5.5 -41.5t16.5 -32t28 -28t41 -29.5l25 -16q36 -24 63 -45.5t45 -42.5t27 -43.5t9 -49.5q0 -43 -20.5 -81t-55.5 -66.5t-81 -45t-96 -16.5
q-25 0 -50.5 4.5t-48.5 11.5t-43 15.5t-33 15.5l34 192h15z" />
    <glyph glyph-name="scaron" unicode="&#x161;" horiz-adv-x="294" 
d="M380 752l-138 -208h-38l-48 208h23l57 -136l117 136h27zM244 126q0 -22 -14 -46.5t-37.5 -45.5t-53.5 -34.5t-62 -13.5q-25 0 -43.5 6.5t-31 17t-18 22.5t-5.5 24q0 16 7.5 30.5t14.5 19.5h1q22 -32 54 -55.5t66 -23.5q26 0 41.5 17t15.5 40q0 20 -10.5 38.5t-22.5 38.5
l-42 71q-14 23 -22.5 37.5t-13.5 25.5t-7 20t-2 20q0 29 18.5 55t45 45.5t56 30.5t52.5 11q42 0 57 -17t15 -38q0 -24 -19 -48h-2q-25 27 -48.5 44t-52.5 17q-23 0 -40.5 -16t-17.5 -42q0 -8 1 -14.5t4 -14t8.5 -17.5t14.5 -25l52 -85q22 -35 31.5 -54t9.5 -41z" />
    <glyph glyph-name="Tcommaaccent" unicode="&#x162;" horiz-adv-x="602" 
d="M124 -243q53 18 76.5 37t23.5 43q0 14 -11.5 25.5t-39.5 10.5v4q4 24 19 39t42 15t41.5 -16.5t14.5 -40.5q0 -51 -42.5 -83t-120.5 -49zM595 664l59 6l-48 -190h-17l-1 157h-172l-119 -602l88 -17l-3 -18h-266l4 18l95 17l119 602h-164l-73 -157h-17l31 190l60 -6h424z
" />
    <glyph glyph-name="tcommaaccent" unicode="&#x163;" horiz-adv-x="295" 
d="M-83 -243q53 18 76.5 37t23.5 43q0 14 -11.5 25.5t-39.5 10.5v4q4 24 19 39t42 15t41.5 -16.5t14.5 -40.5q0 -51 -42.5 -83t-120.5 -49zM39 447l87 16l60 137h39l-30 -137h141l-8 -38h-142l-97 -367h2q13 5 30.5 17t36.5 29t39.5 38.5t39.5 45.5l15 -11
q-19 -30 -44.5 -63.5t-53.5 -61t-56.5 -45.5t-53.5 -18q-19 0 -28.5 15t-4.5 34l103 387h-79z" />
    <glyph glyph-name="Tcaron" unicode="&#x164;" horiz-adv-x="602" 
d="M563 855l-140 -127h-51l-90 127h29l96 -83l122 83h34zM595 664l59 6l-48 -190h-17l-1 157h-172l-119 -602l88 -17l-3 -18h-266l4 18l95 17l119 602h-164l-73 -157h-17l31 190l60 -6h424z" />
    <glyph glyph-name="tcaron" unicode="&#x165;" horiz-adv-x="295" 
d="M276 530l54 201h77l-1 -6l-115 -195h-15zM39 447l87 16l60 137h39l-30 -137h141l-8 -38h-142l-97 -367h2q13 5 30.5 17t36.5 29t39.5 38.5t39.5 45.5l15 -11q-19 -30 -44.5 -63.5t-53.5 -61t-56.5 -45.5t-53.5 -18q-19 0 -28.5 15t-4.5 34l103 387h-79z" />
    <glyph glyph-name="Tbar" unicode="&#x166;" horiz-adv-x="602" 
d="M133 372h149l52 265h-164l-73 -157h-17l31 190l60 -6h424l59 6l-48 -190h-17l-1 157h-172l-52 -265h164l-5 -27h-165l-61 -310l88 -17l-3 -18h-266l4 18l95 17l61 310h-149z" />
    <glyph glyph-name="tbar" unicode="&#x167;" horiz-adv-x="295" 
d="M39 447l87 16l60 137h39l-30 -137h141l-8 -38h-142l-30 -114h149l-7 -35h-152l-57 -218h2q13 5 30.5 17t36.5 29t39.5 38.5t39.5 45.5l15 -11q-19 -30 -44.5 -63.5t-53.5 -61t-56.5 -45.5t-53.5 -18q-19 0 -28.5 15t-4.5 34l63 238h-62l5 35h67l30 114h-79z" />
    <glyph glyph-name="Utilde" unicode="&#x168;" horiz-adv-x="639" 
d="M285 -14q-55 0 -100.5 16.5t-74.5 53t-38 95.5t8 143l69 335l-66 18l3 17h234l-3 -17l-86 -18l-74 -359q-12 -61 -5.5 -105.5t28 -73.5t54.5 -43t74 -14q42 0 78.5 12.5t65.5 41t50 75.5t34 115l67 349l-78 20l3 17h187l-3 -17l-73 -21l-74 -370q-12 -60 -34.5 -109.5
t-57 -85.5t-81.5 -55.5t-107 -19.5zM282 743l5 14q12 35 28.5 53t34.5 24.5t37 3.5t37 -11l56 -25q17 -8 30 -12t24.5 -0.5t22.5 15.5t23 38l14 -5l-6 -19q-11 -34 -26 -53.5t-32 -28t-37 -6.5t-41 12l-54 26q-21 9 -35.5 13.5t-26 1.5t-21 -14t-20.5 -32z" />
    <glyph glyph-name="utilde" unicode="&#x169;" horiz-adv-x="484" 
d="M122 416q-13 5 -37.5 5t-43.5 -6v10q21 21 50 36.5t57 15.5q30 0 39 -23t1 -55l-87 -328q-2 -11 3.5 -19.5t19.5 -8.5q16 0 38 16t45.5 42t47 60t44.5 70t36.5 72t23.5 67l24 93l66 6l7 -8l-107 -403h3q11 8 24.5 20.5t27.5 27t27 30t23 30.5l14 -8q-18 -30 -39.5 -60.5
t-44 -54.5t-43.5 -39t-38 -15q-15 0 -27 13t-3 46l51 182h-4q-23 -42 -48.5 -85.5t-54.5 -78.5t-61.5 -57t-68.5 -22q-14 0 -26.5 5t-21.5 14.5t-13 24t1 32.5zM164 593l5 14q12 35 28.5 53t34.5 24.5t37 3.5t37 -11l56 -25q17 -8 30 -12t24.5 -0.5t22.5 15.5t23 38l14 -5
l-6 -19q-11 -34 -26 -53.5t-32 -28t-37 -6.5t-41 12l-54 26q-21 9 -35.5 13.5t-26 1.5t-21 -14t-20.5 -32z" />
    <glyph glyph-name="Umacron" unicode="&#x16a;" horiz-adv-x="639" 
d="M285 -14q-55 0 -100.5 16.5t-74.5 53t-38 95.5t8 143l69 335l-66 18l3 17h234l-3 -17l-86 -18l-74 -359q-12 -61 -5.5 -105.5t28 -73.5t54.5 -43t74 -14q42 0 78.5 12.5t65.5 41t50 75.5t34 115l67 349l-78 20l3 17h187l-3 -17l-73 -21l-74 -370q-12 -60 -34.5 -109.5
t-57 -85.5t-81.5 -55.5t-107 -19.5zM304 808h280l-11 -48h-279z" />
    <glyph glyph-name="umacron" unicode="&#x16b;" horiz-adv-x="484" 
d="M204 665h239l-11 -47h-238zM122 416q-13 5 -37.5 5t-43.5 -6v10q21 21 50 36.5t57 15.5q30 0 39 -23t1 -55l-87 -328q-2 -11 3.5 -19.5t19.5 -8.5q16 0 38 16t45.5 42t47 60t44.5 70t36.5 72t23.5 67l24 93l66 6l7 -8l-107 -403h3q11 8 24.5 20.5t27.5 27t27 30t23 30.5
l14 -8q-18 -30 -39.5 -60.5t-44 -54.5t-43.5 -39t-38 -15q-15 0 -27 13t-3 46l51 182h-4q-23 -42 -48.5 -85.5t-54.5 -78.5t-61.5 -57t-68.5 -22q-14 0 -26.5 5t-21.5 14.5t-13 24t1 32.5z" />
    <glyph glyph-name="Ubreve" unicode="&#x16c;" horiz-adv-x="639" 
d="M285 -14q-55 0 -100.5 16.5t-74.5 53t-38 95.5t8 143l69 335l-66 18l3 17h234l-3 -17l-86 -18l-74 -359q-12 -61 -5.5 -105.5t28 -73.5t54.5 -43t74 -14q42 0 78.5 12.5t65.5 41t50 75.5t34 115l67 349l-78 20l3 17h187l-3 -17l-73 -21l-74 -370q-12 -60 -34.5 -109.5
t-57 -85.5t-81.5 -55.5t-107 -19.5zM428 730q-53 0 -80.5 30t-30.5 98h17q17 -41 39 -60t64 -19q36 0 64.5 18.5t51.5 60.5h16q-12 -59 -49 -93.5t-92 -34.5z" />
    <glyph glyph-name="ubreve" unicode="&#x16d;" horiz-adv-x="484" 
d="M122 416q-13 5 -37.5 5t-43.5 -6v10q21 21 50 36.5t57 15.5q30 0 39 -23t1 -55l-87 -328q-2 -11 3.5 -19.5t19.5 -8.5q16 0 38 16t45.5 42t47 60t44.5 70t36.5 72t23.5 67l24 93l66 6l7 -8l-107 -403h3q11 8 24.5 20.5t27.5 27t27 30t23 30.5l14 -8q-18 -30 -39.5 -60.5
t-44 -54.5t-43.5 -39t-38 -15q-15 0 -27 13t-3 46l51 182h-4q-23 -42 -48.5 -85.5t-54.5 -78.5t-61.5 -57t-68.5 -22q-14 0 -26.5 5t-21.5 14.5t-13 24t1 32.5zM306 562q-47 0 -69 39t-15 117h16q6 -52 24 -78.5t56 -26.5q21 0 38 9t30 23.5t23 33.5t18 39h16
q-6 -33 -17 -61.5t-28 -49.5t-39.5 -33t-52.5 -12z" />
    <glyph glyph-name="Uring" unicode="&#x16e;" horiz-adv-x="639" 
d="M285 -14q-55 0 -100.5 16.5t-74.5 53t-38 95.5t8 143l69 335l-66 18l3 17h234l-3 -17l-86 -18l-74 -359q-12 -61 -5.5 -105.5t28 -73.5t54.5 -43t74 -14q42 0 78.5 12.5t65.5 41t50 75.5t34 115l67 349l-78 20l3 17h187l-3 -17l-73 -21l-74 -370q-12 -60 -34.5 -109.5
t-57 -85.5t-81.5 -55.5t-107 -19.5zM337 815q0 43 28.5 70t70.5 27q43 0 71.5 -26.5t28.5 -70.5q0 -43 -28.5 -70.5t-70.5 -27.5q-43 0 -71.5 27t-28.5 71zM368 815q0 -31 20 -51.5t48 -20.5q29 0 49.5 20.5t20.5 51.5t-20.5 51.5t-48.5 20.5q-29 0 -49 -20.5t-20 -51.5z
" />
    <glyph glyph-name="uring" unicode="&#x16f;" horiz-adv-x="484" 
d="M213 656q0 43 28.5 70t70.5 27q43 0 71.5 -26.5t28.5 -70.5q0 -43 -28.5 -70.5t-70.5 -27.5q-43 0 -71.5 27t-28.5 71zM244 656q0 -31 20 -51.5t48 -20.5q29 0 49.5 20.5t20.5 51.5t-20.5 51.5t-48.5 20.5q-29 0 -49 -20.5t-20 -51.5zM122 416q-13 5 -37.5 5t-43.5 -6v10
q21 21 50 36.5t57 15.5q30 0 39 -23t1 -55l-87 -328q-2 -11 3.5 -19.5t19.5 -8.5q16 0 38 16t45.5 42t47 60t44.5 70t36.5 72t23.5 67l24 93l66 6l7 -8l-107 -403h3q11 8 24.5 20.5t27.5 27t27 30t23 30.5l14 -8q-18 -30 -39.5 -60.5t-44 -54.5t-43.5 -39t-38 -15
q-15 0 -27 13t-3 46l51 182h-4q-23 -42 -48.5 -85.5t-54.5 -78.5t-61.5 -57t-68.5 -22q-14 0 -26.5 5t-21.5 14.5t-13 24t1 32.5z" />
    <glyph glyph-name="Uhungarumlaut" unicode="&#x170;" horiz-adv-x="639" 
d="M624 857l-115 -129h-28l76 137h67v-8zM467 857l-115 -129h-27l76 137h66v-8zM285 -14q-55 0 -100.5 16.5t-74.5 53t-38 95.5t8 143l69 335l-66 18l3 17h234l-3 -17l-86 -18l-74 -359q-12 -61 -5.5 -105.5t28 -73.5t54.5 -43t74 -14q42 0 78.5 12.5t65.5 41t50 75.5
t34 115l67 349l-78 20l3 17h187l-3 -17l-73 -21l-74 -370q-12 -60 -34.5 -109.5t-57 -85.5t-81.5 -55.5t-107 -19.5z" />
    <glyph glyph-name="uhungarumlaut" unicode="&#x171;" horiz-adv-x="484" 
d="M122 416q-13 5 -37.5 5t-43.5 -6v10q21 21 50 36.5t57 15.5q30 0 39 -23t1 -55l-87 -328q-2 -11 3.5 -19.5t19.5 -8.5q16 0 38 16t45.5 42t47 60t44.5 70t36.5 72t23.5 67l24 93l66 6l7 -8l-107 -403h3q11 8 24.5 20.5t27.5 27t27 30t23 30.5l14 -8q-18 -30 -39.5 -60.5
t-44 -54.5t-43.5 -39t-38 -15q-15 0 -27 13t-3 46l51 182h-4q-23 -42 -48.5 -85.5t-54.5 -78.5t-61.5 -57t-68.5 -22q-14 0 -26.5 5t-21.5 14.5t-13 24t1 32.5zM367 752v-9l-125 -199h-24l85 208h64zM507 752v-9l-125 -199h-24l86 208h63z" />
    <glyph glyph-name="Uogonek" unicode="&#x172;" horiz-adv-x="639" 
d="M285 -14q-55 0 -100.5 16.5t-74.5 53t-38 95.5t8 143l69 335l-66 18l3 17h234l-3 -17l-86 -18l-74 -359q-12 -61 -5.5 -105.5t28 -73.5t54.5 -43t74 -14q42 0 78.5 12.5t65.5 41t50 75.5t34 115l67 349l-78 20l3 17h187l-3 -17l-73 -21l-74 -370q-11 -56 -31.5 -103.5
t-51 -82.5t-72.5 -56.5t-95 -25.5q-35 -33 -55 -56.5t-30 -40t-13 -28t-3 -22.5q0 -20 13.5 -30.5t30.5 -10.5q20 0 38 11t44 43l15 -8q-28 -43 -62 -69t-73 -26q-32 0 -51.5 21t-19.5 50q0 20 9 38t26.5 37.5t43 41t59.5 47.5h-2z" />
    <glyph glyph-name="uogonek" unicode="&#x173;" horiz-adv-x="484" 
d="M301 -10q-17 0 -26.5 16t-1.5 43l51 181h-4q-23 -42 -48.5 -85.5t-54.5 -78.5t-61.5 -57t-68.5 -22q-13 0 -26 5t-22 14.5t-13 24t1 33.5l95 352q-13 5 -37.5 5t-43.5 -6v10q21 21 50 36.5t57 15.5q30 0 39 -23t1 -55l-87 -328q-2 -11 3.5 -19.5t19.5 -8.5q25 0 60 34
t70 84t64 106.5t41 102.5l24 93l66 6l7 -8l-107 -403h3q11 7 25 20t28.5 28t27.5 31t21 29l14 -8q-17 -27 -45 -66t-61 -71q-38 -36 -64 -62t-41.5 -46.5t-22.5 -37t-7 -34.5q0 -13 10.5 -27t33.5 -14q20 0 38 11.5t44 42.5l15 -8q-12 -17 -26 -34t-30.5 -30.5t-36.5 -22
t-42 -8.5q-36 0 -53.5 22.5t-17.5 48.5q0 21 9 39.5t27 37.5t44.5 40.5t60.5 48.5v2h-2z" />
    <glyph glyph-name="Wcircumflex" unicode="&#x174;" horiz-adv-x="822" 
d="M345 728l140 127h51l90 -127h-29l-96 83l-122 -83h-34zM449 477l-252 -483h-34l-61 637l-56 16l3 17h223l-3 -17l-86 -18l45 -518l214 415l-13 105l-69 16l3 17h235l-3 -17l-87 -18l64 -526l240 526l-80 18l3 17h187l-4 -17l-62 -19l-308 -634h-36z" />
    <glyph glyph-name="wcircumflex" unicode="&#x175;" horiz-adv-x="616" 
d="M241 544l138 208h38l48 -208h-23l-58 136l-116 -136h-27zM389 74h3q52 66 85.5 114t53 82.5t27.5 58.5t8 42q0 26 -16 40.5t-41 14.5q-17 0 -31 -3.5t-22 -6.5v11q28 26 52 38t46 12q29 0 47.5 -18.5t18.5 -47.5q0 -23 -7 -46.5t-25.5 -55.5t-51 -77.5t-83.5 -112.5
l-102 -133h-8l-26 11l3 243h-3q-31 -44 -66.5 -90.5t-75.5 -103.5l-41 -60h-9l-28 11l-1 417q-6 2 -15.5 4.5t-24.5 2.5q-10 0 -20 -1t-20 -4v11q24 22 50 36t52 14q28 0 41 -17t12 -64l-4 -323h3q16 22 36.5 50t41 57t39 56.5t31.5 47.5l-2 126q-5 5 -15 9t-24 4
q-9 0 -19.5 -2t-21.5 -5v11q54 50 102 50q25 0 36 -18.5t12 -64.5z" />
    <glyph glyph-name="Ycircumflex" unicode="&#x176;" horiz-adv-x="592" 
d="M354 296l-52 -261l77 -17l-3 -18h-245l4 18l85 17l51 255l-133 341l-56 16l3 17h227l-3 -17l-86 -18l113 -306h3l220 306l-80 18l3 17h185l-4 -17l-62 -19zM262 728l140 127h51l90 -127h-29l-96 83l-122 -83h-34z" />
    <glyph glyph-name="ycircumflex" unicode="&#x177;" horiz-adv-x="435" 
d="M12 305q4 37 14.5 69t25.5 55t34.5 35.5t41.5 12.5q48 -1 75.5 -62t27.5 -167q0 -87 -13.5 -157t-31.5 -124h5q38 43 70.5 89.5t56 94.5t36.5 96t13 93t-14.5 75t-28.5 48q24 15 52 15q17 0 32 -15.5t14 -57.5q-1 -80 -31.5 -160.5t-78 -154.5t-106 -138t-115 -111
t-105.5 -74t-78 -27q-22 0 -36 12.5t-14 34.5q0 21 13 35t33 14q21 0 35 -12.5t20 -41.5h2q55 21 92.5 70.5t60.5 113t33 133t10 129.5q0 52 -5.5 88t-14 58t-19 31.5t-21.5 9.5q-23 0 -37.5 -25.5t-29.5 -84.5h-18zM157 544l138 208h38l48 -208h-23l-58 136l-116 -136h-27z
" />
    <glyph glyph-name="Ydieresis" unicode="&#x178;" horiz-adv-x="592" 
d="M354 296l-52 -261l77 -17l-3 -18h-245l4 18l85 17l51 255l-133 341l-56 16l3 17h227l-3 -17l-86 -18l113 -306h3l220 306l-80 18l3 17h185l-4 -17l-62 -19zM314 760q-19 0 -31.5 13t-12.5 32t12.5 32.5t31.5 13.5q20 0 33.5 -13.5t13.5 -32.5t-13.5 -32t-33.5 -13z
M514 760q-19 0 -32 13t-13 32t13 32.5t32 13.5t32.5 -13.5t13.5 -32.5t-13.5 -32t-32.5 -13z" />
    <glyph glyph-name="Zacute" unicode="&#x179;" horiz-adv-x="594" 
d="M519 865v-7l-137 -130h-24l84 137h77zM-6 13l510 623h-310l-85 -177h-17l36 211l70 -6h415v-7l-516 -629h339l108 178h19l-65 -212l-64 6h-442z" />
    <glyph glyph-name="zacute" unicode="&#x17a;" horiz-adv-x="398" 
d="M423 752v-10l-136 -198h-24l92 208h68zM423 458l-334 -352l138 -52q21 -8 37 -6.5t30.5 12t30 28.5t36.5 44l16 -9q-21 -33 -39 -60t-35 -45.5t-35 -28.5t-40 -10q-11 0 -21.5 2.5t-34.5 12.5l-136 54l-53 -68l-29 22l344 363l-136 52q-31 12 -46 10.5t-21 -9.5
q-20 -25 37 -76q-14 -16 -26 -24t-29 -8q-15 0 -27 11t-12 33q0 21 13.5 43.5t34.5 41t45.5 30t47.5 11.5q20 0 34.5 -3t34.5 -11l104 -43l45 57z" />
    <glyph glyph-name="Zdotaccent" unicode="&#x17b;" horiz-adv-x="594" 
d="M-6 13l510 623h-310l-85 -177h-17l36 211l70 -6h415v-7l-516 -629h339l108 178h19l-65 -212l-64 6h-442zM338 806q0 20 14 34t34 14t34 -14t14 -34t-14 -34t-34 -14t-34 14t-14 34z" />
    <glyph glyph-name="zdotaccent" unicode="&#x17c;" horiz-adv-x="398" 
d="M423 458l-334 -352l138 -52q21 -8 37 -6.5t30.5 12t30 28.5t36.5 44l16 -9q-21 -33 -39 -60t-35 -45.5t-35 -28.5t-40 -10q-11 0 -21.5 2.5t-34.5 12.5l-136 54l-53 -68l-29 22l344 363l-136 52q-31 12 -46 10.5t-21 -9.5q-20 -25 37 -76q-14 -16 -26 -24t-29 -8
q-15 0 -27 11t-12 33q0 21 13.5 43.5t34.5 41t45.5 30t47.5 11.5q20 0 34.5 -3t34.5 -11l104 -43l45 57zM240 645q0 20 14 34t34 14t34 -14t14 -34t-14 -34t-34 -14t-34 14t-14 34z" />
    <glyph glyph-name="Zcaron" unicode="&#x17d;" horiz-adv-x="594" 
d="M537 855l-140 -127h-51l-90 127h29l96 -83l122 83h34zM-6 13l510 623h-310l-85 -177h-17l36 211l70 -6h415v-7l-516 -629h339l108 178h19l-65 -212l-64 6h-442z" />
    <glyph glyph-name="zcaron" unicode="&#x17e;" horiz-adv-x="398" 
d="M424 752l-138 -208h-38l-48 208h23l57 -136l117 136h27zM423 458l-334 -352l138 -52q21 -8 37 -6.5t30.5 12t30 28.5t36.5 44l16 -9q-21 -33 -39 -60t-35 -45.5t-35 -28.5t-40 -10q-11 0 -21.5 2.5t-34.5 12.5l-136 54l-53 -68l-29 22l344 363l-136 52q-31 12 -46 10.5
t-21 -9.5q-20 -25 37 -76q-14 -16 -26 -24t-29 -8q-15 0 -27 11t-12 33q0 21 13.5 43.5t34.5 41t45.5 30t47.5 11.5q20 0 34.5 -3t34.5 -11l104 -43l45 57z" />
    <glyph glyph-name="florin" unicode="&#x192;" horiz-adv-x="434" 
d="M67 308h91q16 62 42.5 115.5t60.5 93t74.5 62t83.5 22.5q32 0 48 -17.5t16 -32.5q0 -14 -8.5 -30t-21.5 -28q-23 29 -44.5 48t-43.5 19q-16 0 -31.5 -7.5t-31 -31.5t-31 -70t-31.5 -123l-4 -20h134l-7 -30h-134l-55 -270q-11 -51 -29.5 -100t-45.5 -88t-61 -62.5
t-74 -23.5q-10 0 -22.5 3.5t-23.5 10t-18.5 17t-7.5 25.5q0 18 11.5 31.5t18.5 19.5q20 -33 40.5 -53t40.5 -20q27 0 44.5 42.5t34.5 125.5l70 342h-91z" />
    <glyph glyph-name="Aringacute" unicode="&#x1fa;" horiz-adv-x="623" 
d="M-46 19l62 17l340 626l31 6l34 5l93 -638l59 -18l-3 -17h-232l4 18l91 17l-29 203h-238l-103 -200l93 -19l-4 -19h-202zM186 276h213l-45 321h-2zM573 1056v-7l-137 -130h-24l84 137h77zM303 798q0 43 28.5 70t70.5 27q43 0 71.5 -26.5t28.5 -70.5q0 -43 -28.5 -70.5
t-70.5 -27.5q-43 0 -71.5 27t-28.5 71zM334 798q0 -31 20 -51.5t48 -20.5q29 0 49.5 20.5t20.5 51.5t-20.5 51.5t-48.5 20.5q-29 0 -49 -20.5t-20 -51.5z" />
    <glyph glyph-name="aringacute" unicode="&#x1fb;" horiz-adv-x="472" 
d="M455 504l-124 -446h3q26 20 54 50t48 58l14 -8q-19 -32 -41 -62.5t-44 -54t-43 -38t-37 -14.5q-8 0 -15.5 3.5t-12 12t-4.5 22.5t6 35l46 149h-4q-23 -36 -49.5 -75.5t-55 -72.5t-59 -54.5t-62.5 -21.5q-33 0 -54.5 23t-18.5 74q3 55 21 105t45 92.5t60 77t67 58.5t66 37
t57 13q23 0 41 -5.5t32 -13.5l34 56h30zM114 41q16 0 37.5 16t44 42t45.5 58t42 64t33.5 60t20.5 47l24 73q-27 38 -61 38q-36 0 -72.5 -30t-67 -79t-51.5 -110t-24 -123q-2 -32 7 -44t22 -12zM266 617q0 43 28.5 70t70.5 27q43 0 71.5 -26.5t28.5 -70.5q0 -43 -28.5 -70.5
t-70.5 -27.5q-43 0 -71.5 27t-28.5 71zM297 617q0 -31 20 -51.5t48 -20.5q29 0 49.5 20.5t20.5 51.5t-20.5 51.5t-48.5 20.5q-29 0 -49 -20.5t-20 -51.5zM547 888v-7l-137 -130h-24l84 137h77z" />
    <glyph glyph-name="AEacute" unicode="&#x1fc;" horiz-adv-x="862" 
d="M726 865v-7l-137 -130h-24l84 137h77zM505 337l-57 -292q8 -9 20.5 -13.5t41.5 -4.5h180l111 166h19l-66 -193h-477l4 19l85 16l58 302h-168l-209 -299l93 -19l-4 -19h-207l4 19l62 17l433 588l-84 23l3 17h453l61 5l-25 -189h-16l-28 157h-228l-53 -269h147l52 107h17
l-47 -239h-17l-11 101h-147zM474 638l-195 -270h151l53 270h-9z" />
    <glyph glyph-name="aeacute" unicode="&#x1fd;" horiz-adv-x="575" 
d="M523 752v-10l-136 -198h-24l92 208h68zM343 -14q-40 0 -68 24t-39 66h-5q-30 -40 -66.5 -65t-82.5 -25q-13 0 -29 5t-30.5 16t-23.5 30t-9 46q1 44 38.5 71.5t116.5 50.5l102 30l23 82q7 54 -13 89t-60 35q-17 0 -33 -7.5t-26 -17.5l-8 -88q-14 -9 -35 -9q-19 0 -28.5 9
t-9.5 23q0 17 16.5 38t42.5 40t58.5 32.5t64.5 15.5q47 0 72.5 -29.5t22.5 -79.5h4q16 21 38 41t46.5 35t50.5 24t52 9q34 0 52.5 -16t18.5 -45q0 -30 -24 -58t-63 -51.5t-89.5 -42.5t-104.5 -32q-4 -17 -6.5 -35t-3.5 -37q-2 -52 18 -85t55 -33q23 0 43 10t36.5 25.5
t30 33.5t22.5 35l18 -7q-11 -25 -28 -52t-40 -49.5t-52 -37t-65 -14.5zM241 211l-76 -27q-50 -18 -71.5 -38.5t-21.5 -48.5q0 -26 12.5 -43t40.5 -17q17 0 33 8t30 19.5t24.5 24.5t17.5 24q-3 44 10 94zM482 442q-18 0 -41 -14t-45.5 -39t-42 -59.5t-32.5 -76.5
q39 13 74 30.5t61.5 38.5t41.5 44t15 46q0 13 -7 21.5t-24 8.5z" />
    <glyph glyph-name="Oslashacute" unicode="&#x1fe;" horiz-adv-x="728" 
d="M69 -45l71 92q-45 39 -70 95t-25 124q0 81 30 155.5t82.5 131.5t123.5 91t154 34q45 0 84.5 -12t71.5 -34l54 71h40l-69 -90q46 -39 71.5 -96t25.5 -123q0 -81 -30 -156t-82.5 -132t-124 -91.5t-153.5 -34.5q-45 0 -85 12.5t-73 35.5l-56 -73h-40zM627 418q0 45 -11 84.5
t-31 70.5l-395 -512q24 -26 58 -40.5t77 -14.5q61 0 116 35.5t96.5 93.5t65.5 132t24 151zM131 240q0 -45 9.5 -83.5t29.5 -69.5l395 512q-24 25 -57 39t-75 14q-60 0 -115 -34.5t-96.5 -91.5t-66 -131.5t-24.5 -154.5zM591 865v-7l-137 -130h-24l84 137h77z" />
    <glyph glyph-name="oslashacute" unicode="&#x1ff;" horiz-adv-x="430" 
d="M-23 -50l69 91q-15 23 -22.5 52.5t-7.5 61.5q0 47 17.5 103t51 105t82.5 81.5t112 32.5q23 0 42 -6.5t35 -17.5l50 66h32l-63 -84q18 -21 27.5 -51.5t9.5 -66.5q0 -51 -18.5 -109t-53 -107.5t-83.5 -82t-111 -32.5q-52 0 -85 35l-53 -71h-31zM341 360q0 8 -0.5 14.5
t-1.5 13.5l-248 -328q9 -54 56 -54q26 0 50.5 17t46.5 45t39.5 64.5t30.5 76t20 78.5t7 73zM88 97l242 321q-8 18 -22 28.5t-34 10.5q-38 0 -72 -35.5t-59.5 -88.5t-40 -115.5t-14.5 -116.5v-4zM434 752v-10l-136 -198h-24l92 208h68z" />
    <glyph glyph-name="Scommaaccent" unicode="&#x218;" horiz-adv-x="510" 
d="M77 -243q53 18 76.5 37t23.5 43q0 14 -11.5 25.5t-39.5 10.5v4q4 24 19 39t42 15t41.5 -16.5t14.5 -40.5q0 -51 -42.5 -83t-120.5 -49zM60 224l11 -158q24 -22 53.5 -37.5t74.5 -15.5q31 0 60 9t51.5 27t36 44t13.5 60q0 45 -26 78.5t-78 68.5l-35 23q-32 21 -54 39.5
t-36 37t-20 39t-6 47.5q0 38 19.5 73t52.5 61.5t77 42t94 15.5q38 0 77 -10.5t69 -21.5l-36 -176h-16l-6 141q-23 17 -49.5 27.5t-63.5 10.5q-33 0 -59.5 -10t-45.5 -27.5t-29 -40.5t-10 -49q0 -24 5.5 -41.5t16.5 -32t28 -28t41 -29.5l25 -16q36 -24 63 -45.5t45 -42.5
t27 -43.5t9 -49.5q0 -43 -20.5 -81t-55.5 -66.5t-81 -45t-96 -16.5q-25 0 -50.5 4.5t-48.5 11.5t-43 15.5t-33 15.5l34 192h15z" />
    <glyph glyph-name="scommaaccent" unicode="&#x219;" horiz-adv-x="294" 
d="M-50 -243q53 18 76.5 37t23.5 43q0 14 -11.5 25.5t-39.5 10.5v4q4 24 19 39t42 15t41.5 -16.5t14.5 -40.5q0 -51 -42.5 -83t-120.5 -49zM244 126q0 -22 -14 -46.5t-37.5 -45.5t-53.5 -34.5t-62 -13.5q-25 0 -43.5 6.5t-31 17t-18 22.5t-5.5 24q0 16 7.5 30.5t14.5 19.5h1
q22 -32 54 -55.5t66 -23.5q26 0 41.5 17t15.5 40q0 20 -10.5 38.5t-22.5 38.5l-42 71q-14 23 -22.5 37.5t-13.5 25.5t-7 20t-2 20q0 29 18.5 55t45 45.5t56 30.5t52.5 11q42 0 57 -17t15 -38q0 -24 -19 -48h-2q-25 27 -48.5 44t-52.5 17q-23 0 -40.5 -16t-17.5 -42
q0 -8 1 -14.5t4 -14t8.5 -17.5t14.5 -25l52 -85q22 -35 31.5 -54t9.5 -41z" />
    <glyph glyph-name="uni021A" unicode="&#x21a;" horiz-adv-x="602" 
d="M124 -243q53 18 76.5 37t23.5 43q0 14 -11.5 25.5t-39.5 10.5v4q4 24 19 39t42 15t41.5 -16.5t14.5 -40.5q0 -51 -42.5 -83t-120.5 -49zM595 664l59 6l-48 -190h-17l-1 157h-172l-119 -602l88 -17l-3 -18h-266l4 18l95 17l119 602h-164l-73 -157h-17l31 190l60 -6h424z
" />
    <glyph glyph-name="uni021B" unicode="&#x21b;" horiz-adv-x="295" 
d="M-83 -243q53 18 76.5 37t23.5 43q0 14 -11.5 25.5t-39.5 10.5v4q4 24 19 39t42 15t41.5 -16.5t14.5 -40.5q0 -51 -42.5 -83t-120.5 -49zM39 447l87 16l60 137h39l-30 -137h141l-8 -38h-142l-97 -367h2q13 5 30.5 17t36.5 29t39.5 38.5t39.5 45.5l15 -11
q-19 -30 -44.5 -63.5t-53.5 -61t-56.5 -45.5t-53.5 -18q-19 0 -28.5 15t-4.5 34l103 387h-79z" />
    <glyph glyph-name="uni0237" unicode="&#x237;" horiz-adv-x="220" 
d="M125 416q-11 5 -33 6t-48 -7v11q19 17 46 34t55 17q30 0 42 -21t3 -59l-103 -436q-8 -34 -26.5 -73t-45 -72t-60.5 -55t-72 -22q-12 0 -25 4t-23.5 11t-17 17.5t-6.5 23.5q0 18 10 29.5t20 21.5q26 -39 44 -55.5t36 -16.5q23 0 43 28t37 99z" />
    <glyph glyph-name="circumflex" unicode="&#x2c6;" 
d="M74 544l138 208h38l48 -208h-23l-58 136l-116 -136h-27z" />
    <glyph glyph-name="caron" unicode="&#x2c7;" 
d="M293 752l-138 -208h-38l-48 208h23l57 -136l117 136h27z" />
    <glyph glyph-name="breve" unicode="&#x2d8;" 
d="M162 562q-47 0 -69 39t-15 117h16q6 -52 24 -78.5t56 -26.5q21 0 38 9t30 23.5t23 33.5t18 39h16q-6 -33 -17 -61.5t-28 -49.5t-39.5 -33t-52.5 -12z" />
    <glyph glyph-name="dotaccent" unicode="&#x2d9;" 
d="M226 645q0 20 14 34t34 14t34 -14t14 -34t-14 -34t-34 -14t-34 14t-14 34z" />
    <glyph glyph-name="ring" unicode="&#x2da;" horiz-adv-x="223" 
d="M80 656q0 43 28.5 70t70.5 27q43 0 71.5 -26.5t28.5 -70.5q0 -43 -28.5 -70.5t-70.5 -27.5q-43 0 -71.5 27t-28.5 71zM111 656q0 -31 20 -51.5t48 -20.5q29 0 49.5 20.5t20.5 51.5t-20.5 51.5t-48.5 20.5q-29 0 -49 -20.5t-20 -51.5z" />
    <glyph glyph-name="ogonek" unicode="&#x2db;" horiz-adv-x="375" 
d="M266 0q-39 -37 -61.5 -62.5t-34.5 -43t-15 -30t-3 -23.5q0 -20 13.5 -30.5t30.5 -10.5q20 0 38 11t44 43l15 -8q-28 -43 -62 -69t-73 -26q-32 0 -51.5 21t-19.5 50q0 21 10 40.5t30 40t49 44t67 53.5h23z" />
    <glyph glyph-name="tilde" unicode="&#x2dc;" 
d="M33 593l5 14q12 35 28.5 53t34.5 24.5t37 3.5t37 -11l56 -25q17 -8 30 -12t24.5 -0.5t22.5 15.5t23 38l14 -5l-6 -19q-11 -34 -26 -53.5t-32 -28t-37 -6.5t-41 12l-54 26q-21 9 -35.5 13.5t-26 1.5t-21 -14t-20.5 -32z" />
    <glyph glyph-name="hungarumlaut" unicode="&#x2dd;" 
d="M187 752v-9l-125 -199h-24l85 208h64zM327 752v-9l-125 -199h-24l86 208h63z" />
    <glyph glyph-name="Wgrave" unicode="&#x1e80;" horiz-adv-x="822" 
d="M435 865l63 -137h-24l-116 130v7h77zM449 477l-252 -483h-34l-61 637l-56 16l3 17h223l-3 -17l-86 -18l45 -518l214 415l-13 105l-69 16l3 17h235l-3 -17l-87 -18l64 -526l240 526l-80 18l3 17h187l-4 -17l-62 -19l-308 -634h-36z" />
    <glyph glyph-name="wgrave" unicode="&#x1e81;" horiz-adv-x="616" 
d="M389 74h3q52 66 85.5 114t53 82.5t27.5 58.5t8 42q0 26 -16 40.5t-41 14.5q-17 0 -31 -3.5t-22 -6.5v11q28 26 52 38t46 12q29 0 47.5 -18.5t18.5 -47.5q0 -23 -7 -46.5t-25.5 -55.5t-51 -77.5t-83.5 -112.5l-102 -133h-8l-26 11l3 243h-3q-31 -44 -66.5 -90.5
t-75.5 -103.5l-41 -60h-9l-28 11l-1 417q-6 2 -15.5 4.5t-24.5 2.5q-10 0 -20 -1t-20 -4v11q24 22 50 36t52 14q28 0 41 -17t12 -64l-4 -323h3q16 22 36.5 50t41 57t39 56.5t31.5 47.5l-2 126q-5 5 -15 9t-24 4q-9 0 -19.5 -2t-21.5 -5v11q54 50 102 50q25 0 36 -18.5
t12 -64.5zM344 752l28 -208h-22l-74 197v11h68z" />
    <glyph glyph-name="Wacute" unicode="&#x1e82;" horiz-adv-x="822" 
d="M634 865v-7l-137 -130h-24l84 137h77zM449 477l-252 -483h-34l-61 637l-56 16l3 17h223l-3 -17l-86 -18l45 -518l214 415l-13 105l-69 16l3 17h235l-3 -17l-87 -18l64 -526l240 526l-80 18l3 17h187l-4 -17l-62 -19l-308 -634h-36z" />
    <glyph glyph-name="wacute" unicode="&#x1e83;" horiz-adv-x="616" 
d="M510 752v-10l-136 -198h-24l92 208h68zM389 74h3q52 66 85.5 114t53 82.5t27.5 58.5t8 42q0 26 -16 40.5t-41 14.5q-17 0 -31 -3.5t-22 -6.5v11q28 26 52 38t46 12q29 0 47.5 -18.5t18.5 -47.5q0 -23 -7 -46.5t-25.5 -55.5t-51 -77.5t-83.5 -112.5l-102 -133h-8l-26 11
l3 243h-3q-31 -44 -66.5 -90.5t-75.5 -103.5l-41 -60h-9l-28 11l-1 417q-6 2 -15.5 4.5t-24.5 2.5q-10 0 -20 -1t-20 -4v11q24 22 50 36t52 14q28 0 41 -17t12 -64l-4 -323h3q16 22 36.5 50t41 57t39 56.5t31.5 47.5l-2 126q-5 5 -15 9t-24 4q-9 0 -19.5 -2t-21.5 -5v11
q54 50 102 50q25 0 36 -18.5t12 -64.5z" />
    <glyph glyph-name="Wdieresis" unicode="&#x1e84;" horiz-adv-x="822" 
d="M397 760q-19 0 -31.5 13t-12.5 32t12.5 32.5t31.5 13.5q20 0 33.5 -13.5t13.5 -32.5t-13.5 -32t-33.5 -13zM597 760q-19 0 -32 13t-13 32t13 32.5t32 13.5t32.5 -13.5t13.5 -32.5t-13.5 -32t-32.5 -13zM449 477l-252 -483h-34l-61 637l-56 16l3 17h223l-3 -17l-86 -18
l45 -518l214 415l-13 105l-69 16l3 17h235l-3 -17l-87 -18l64 -526l240 526l-80 18l3 17h187l-4 -17l-62 -19l-308 -634h-36z" />
    <glyph glyph-name="wdieresis" unicode="&#x1e85;" horiz-adv-x="616" 
d="M301 600q-19 0 -31.5 13t-12.5 32t12.5 32.5t31.5 13.5q20 0 33.5 -13.5t13.5 -32.5t-13.5 -32t-33.5 -13zM452 600q-19 0 -32 13t-13 32t13 32.5t32 13.5t32.5 -13.5t13.5 -32.5t-13.5 -32t-32.5 -13zM389 74h3q52 66 85.5 114t53 82.5t27.5 58.5t8 42q0 26 -16 40.5
t-41 14.5q-17 0 -31 -3.5t-22 -6.5v11q28 26 52 38t46 12q29 0 47.5 -18.5t18.5 -47.5q0 -23 -7 -46.5t-25.5 -55.5t-51 -77.5t-83.5 -112.5l-102 -133h-8l-26 11l3 243h-3q-31 -44 -66.5 -90.5t-75.5 -103.5l-41 -60h-9l-28 11l-1 417q-6 2 -15.5 4.5t-24.5 2.5
q-10 0 -20 -1t-20 -4v11q24 22 50 36t52 14q28 0 41 -17t12 -64l-4 -323h3q16 22 36.5 50t41 57t39 56.5t31.5 47.5l-2 126q-5 5 -15 9t-24 4q-9 0 -19.5 -2t-21.5 -5v11q54 50 102 50q25 0 36 -18.5t12 -64.5z" />
    <glyph glyph-name="Ygrave" unicode="&#x1ef2;" horiz-adv-x="592" 
d="M354 296l-52 -261l77 -17l-3 -18h-245l4 18l85 17l51 255l-133 341l-56 16l3 17h227l-3 -17l-86 -18l113 -306h3l220 306l-80 18l3 17h185l-4 -17l-62 -19zM367 865l63 -137h-24l-116 130v7h77z" />
    <glyph glyph-name="ygrave" unicode="&#x1ef3;" horiz-adv-x="435" 
d="M12 305q4 37 14.5 69t25.5 55t34.5 35.5t41.5 12.5q48 -1 75.5 -62t27.5 -167q0 -87 -13.5 -157t-31.5 -124h5q38 43 70.5 89.5t56 94.5t36.5 96t13 93t-14.5 75t-28.5 48q24 15 52 15q17 0 32 -15.5t14 -57.5q-1 -80 -31.5 -160.5t-78 -154.5t-106 -138t-115 -111
t-105.5 -74t-78 -27q-22 0 -36 12.5t-14 34.5q0 21 13 35t33 14q21 0 35 -12.5t20 -41.5h2q55 21 92.5 70.5t60.5 113t33 133t10 129.5q0 52 -5.5 88t-14 58t-19 31.5t-21.5 9.5q-23 0 -37.5 -25.5t-29.5 -84.5h-18zM248 752l28 -208h-22l-74 197v11h68z" />
    <glyph glyph-name="uni2009" unicode="&#x2009;" horiz-adv-x="40" 
 />
    <glyph glyph-name="endash" unicode="&#x2013;" horiz-adv-x="468" 
d="M46 282h384l-7 -34h-384z" />
    <glyph glyph-name="emdash" unicode="&#x2014;" horiz-adv-x="868" 
d="M46 282h784l-7 -34h-784z" />
    <glyph glyph-name="quoteleft" unicode="&#x2018;" horiz-adv-x="213" 
d="M270 709q-53 -25 -72.5 -51t-19.5 -50q0 -46 53 -65q-2 -24 -14.5 -36.5t-30.5 -12.5q-26 0 -46.5 21t-20.5 61q0 49 40 89t105 59z" />
    <glyph glyph-name="quoteright" unicode="&#x2019;" horiz-adv-x="213" 
d="M90 509q53 25 72.5 51t19.5 50q0 46 -53 65q2 24 14.5 36.5t30.5 12.5q26 0 46.5 -21t20.5 -61q0 -49 -40 -89t-105 -59z" />
    <glyph glyph-name="quotesinglbase" unicode="&#x201a;" horiz-adv-x="216" 
d="M-25 -81q53 25 72.5 51t19.5 50q0 46 -53 65q2 24 14.5 36.5t30.5 12.5q26 0 46.5 -21t20.5 -61q0 -49 -40 -89t-105 -59z" />
    <glyph glyph-name="quotedblleft" unicode="&#x201c;" horiz-adv-x="378" 
d="M270 709q-53 -25 -72.5 -51t-19.5 -50q0 -46 53 -65q-2 -24 -14.5 -36.5t-30.5 -12.5q-26 0 -46.5 21t-20.5 61q0 49 40 89t105 59zM434 709q-53 -25 -72.5 -51t-19.5 -50q0 -46 53 -65q-2 -24 -14.5 -36.5t-30.5 -12.5q-26 0 -46.5 21t-20.5 61q0 49 40 89t105 59z" />
    <glyph glyph-name="quotedblright" unicode="&#x201d;" horiz-adv-x="378" 
d="M90 509q53 25 72.5 51t19.5 50q0 46 -53 65q2 24 14.5 36.5t30.5 12.5q26 0 46.5 -21t20.5 -61q0 -49 -40 -89t-105 -59zM255 509q53 25 72.5 51t19.5 50q0 46 -53 65q2 24 14.5 36.5t30.5 12.5q26 0 46.5 -21t20.5 -61q0 -49 -40 -89t-105 -59z" />
    <glyph glyph-name="quotedblbase" unicode="&#x201e;" horiz-adv-x="381" 
d="M-25 -81q53 25 72.5 51t19.5 50q0 46 -53 65q2 24 14.5 36.5t30.5 12.5q26 0 46.5 -21t20.5 -61q0 -49 -40 -89t-105 -59zM140 -81q53 25 72.5 51t19.5 50q0 46 -53 65q2 24 14.5 36.5t30.5 12.5q26 0 46.5 -21t20.5 -61q0 -49 -40 -89t-105 -59z" />
    <glyph glyph-name="dagger" unicode="&#x2020;" horiz-adv-x="299" 
d="M109 636l99 -10l13 106h46l-32 -106l103 10l-8 -43l-100 9l-42 -259h-48l63 259l-101 -9z" />
    <glyph glyph-name="daggerdbl" unicode="&#x2021;" horiz-adv-x="298" 
d="M109 636l97 -10l14 106h46l-30 -106l101 10l-8 -43l-98 9l-24 -118l102 11l-9 -44l-96 10l-15 -113h-47l30 113l-100 -10l9 44l97 -11l24 117l-101 -8z" />
    <glyph glyph-name="bullet" unicode="&#x2022;" horiz-adv-x="314" 
d="M163 202q-29 0 -48.5 19.5t-19.5 48.5t19.5 48.5t48.5 19.5t48.5 -19.5t19.5 -48.5t-19.5 -48.5t-48.5 -19.5z" />
    <glyph glyph-name="ellipsis" unicode="&#x2026;" horiz-adv-x="615" 
d="M56 -13q-25 0 -42 17t-17 42t17 42t42 17t42 -17t17 -42t-17 -42t-42 -17zM265 -13q-25 0 -42 17t-17 42t17 42t42 17t42 -17t17 -42t-17 -42t-42 -17zM474 -13q-25 0 -42 17t-17 42t17 42t42 17t42 -17t17 -42t-17 -42t-42 -17z" />
    <glyph glyph-name="perthousand" unicode="&#x2030;" horiz-adv-x="1079" 
d="M224 581q-22 0 -42 -12.5t-35.5 -35.5t-24.5 -54.5t-9 -70.5q0 -45 15 -74t49 -29q19 0 38 11t35 32.5t26 53.5t10 74q0 46 -15 75.5t-47 29.5zM79 -50h-41l607 680h41zM171 283q-27 0 -50 10.5t-39.5 29t-25.5 42.5t-9 51q0 39 15.5 73.5t41 59.5t58 39.5t67.5 14.5
q27 0 50 -11t39 -29t25 -42.5t9 -51.5q0 -38 -15 -71.5t-40.5 -59t-58 -40.5t-67.5 -15zM556 283q-22 0 -42 -12.5t-35.5 -35.5t-24.5 -54.5t-9 -70.5q0 -45 15 -74t49 -29q19 0 38 11t35 32.5t26 53.5t10 74q0 46 -15 75.5t-47 29.5zM503 -15q-27 0 -50 10.5t-39.5 29
t-25.5 42.5t-9 51q0 39 15.5 73.5t41 59.5t58 39.5t67.5 14.5q27 0 50 -11t39 -29t25 -42.5t9 -51.5q0 -38 -15 -71.5t-40.5 -59t-58 -40.5t-67.5 -15zM901 283q-22 0 -42 -12.5t-35.5 -35.5t-24.5 -54.5t-9 -70.5q0 -45 15 -74t49 -29q19 0 38 11t35 32.5t26 53.5t10 74
q0 46 -15 75.5t-47 29.5zM848 -15q-27 0 -50 10.5t-39.5 29t-25.5 42.5t-9 51q0 39 15.5 73.5t41 59.5t58 39.5t67.5 14.5q27 0 50 -11t39 -29t25 -42.5t9 -51.5q0 -38 -15 -71.5t-40.5 -59t-58 -40.5t-67.5 -15z" />
    <glyph glyph-name="uni2032" unicode="&#x2032;" horiz-adv-x="184" 
d="M56 520l80 225h78v-7l-136 -218h-22z" />
    <glyph glyph-name="uni2033" unicode="&#x2033;" horiz-adv-x="344" 
d="M56 520l80 225h78v-7l-136 -218h-22zM216 520l80 225h78v-7l-136 -218h-22z" />
    <glyph glyph-name="guilsinglleft" unicode="&#x2039;" horiz-adv-x="255" 
d="M227 363l-157 -162l106 -154l-17 -14l-155 164v9l210 173z" />
    <glyph glyph-name="guilsinglright" unicode="&#x203a;" horiz-adv-x="255" 
d="M2 49l157 162l-106 154l17 14l155 -164v-9l-210 -173z" />
    <glyph glyph-name="fraction" unicode="&#x2044;" horiz-adv-x="227" 
d="M-176 -62l601 783l21 -17l-602 -784z" />
    <glyph glyph-name="Euro" unicode="&#x20ac;" horiz-adv-x="566" 
d="M65 370h86q25 54 62 97.5t78 74t82.5 46.5t76.5 16q25 0 46 -7.5t36.5 -18.5t24 -24.5t8.5 -26.5q0 -15 -11 -28t-25 -22q-22 35 -53.5 62.5t-73.5 27.5q-27 0 -53.5 -15.5t-50.5 -42.5t-44.5 -63t-35.5 -76h244l-7 -27h-245q-7 -23 -12 -46t-8 -46h238l-8 -27h-232v-18
q0 -47 11 -80t30 -53.5t45 -30t56 -9.5q45 0 83 22.5t74 61.5l13 -12q-20 -23 -40.5 -45.5t-45 -40t-54 -28.5t-66.5 -11q-45 0 -79.5 17t-58 45t-35 65t-11.5 78v19.5t1 19.5h-88l8 27h84q8 49 24 92h-82z" />
    <glyph glyph-name="trademark" unicode="&#x2122;" horiz-adv-x="679" 
d="M327 408l36 7l47 229l-32 8l2 12h105l29 -178h3l105 178h102l-2 -12l-36 -8l-47 -229l34 -7l-3 -13h-127l3 14l40 7l46 224h-3l-121 -201l-16 -33h-15l-4 29l-40 205h-3l-46 -224l44 -9l-3 -12h-101zM350 664l-14 -87h-11l-7 70h-62l-48 -231l38 -8l-3 -13h-134l3 13
l42 8l48 231h-62l-37 -70h-11l22 87h236z" />
    <glyph glyph-name="onethird" unicode="&#x2153;" horiz-adv-x="703" 
d="M158 325l60 -12l-2 -14h-187l2 14l68 12l64 295l-76 -4l3 16l140 41h3zM27 -62l601 783l21 -17l-602 -784zM556 198q21 -1 40.5 -6t34.5 -15t23.5 -24.5t8.5 -33.5q0 -30 -15.5 -54t-41 -40.5t-57.5 -25t-65 -8.5q-37 0 -61 13.5t-24 34.5q0 14 7 24.5t27 20.5
q29 -70 88 -70q35 0 58.5 23.5t23.5 55.5q0 25 -13 41t-32.5 25t-41.5 12t-40 4l3 16q41 12 66 23.5t39 23.5t18.5 24.5t4.5 25.5q-1 21 -14.5 33.5t-36.5 12.5q-48 0 -93 -56l-14 10q23 41 54.5 63.5t76.5 22.5q41 0 63.5 -19.5t22.5 -50.5q1 -37 -30.5 -61.5t-79.5 -41.5
v-3z" />
    <glyph glyph-name="twothirds" unicode="&#x2154;" horiz-adv-x="763" 
d="M94 346h197l-11 -47h-254l2 15l83 74q29 26 55.5 48.5t47 44t32.5 43.5t12 47q0 16 -5.5 27.5t-14.5 18.5t-19.5 10t-20.5 3q-33 0 -54.5 -17t-43.5 -39l-13 7q10 19 22 35.5t27.5 29t34.5 20t44 7.5q24 0 43 -8t31.5 -20.5t19.5 -29t7 -34.5q0 -21 -8 -39t-24 -37
t-40.5 -40t-58.5 -48zM87 -62l601 783l21 -17l-602 -784zM616 198q21 -1 40.5 -6t34.5 -15t23.5 -24.5t8.5 -33.5q0 -30 -15.5 -54t-41 -40.5t-57.5 -25t-65 -8.5q-37 0 -61 13.5t-24 34.5q0 14 7 24.5t27 20.5q29 -70 88 -70q35 0 58.5 23.5t23.5 55.5q0 25 -13 41
t-32.5 25t-41.5 12t-40 4l3 16q41 12 66 23.5t39 23.5t18.5 24.5t4.5 25.5q-1 21 -14.5 33.5t-36.5 12.5q-48 0 -93 -56l-14 10q23 41 54.5 63.5t76.5 22.5q41 0 63.5 -19.5t22.5 -50.5q1 -37 -30.5 -61.5t-79.5 -41.5v-3z" />
    <glyph glyph-name="oneeighth" unicode="&#x215b;" horiz-adv-x="704" 
d="M158 325l60 -12l-2 -14h-187l2 14l68 12l64 295l-76 -4l3 16l140 41h3zM27 -62l601 783l21 -17l-602 -784zM394 77q0 23 10 39.5t26 28.5t35.5 20.5t39.5 14.5l-2 2q-28 24 -39.5 43.5t-11.5 44.5q0 21 10.5 40t28 33t41.5 22.5t51 8.5q48 0 77.5 -22.5t29.5 -53.5
q0 -21 -10 -37t-26 -28.5t-35 -22t-38 -16.5l12 -10q20 -17 39 -38t19 -48q0 -23 -12 -42.5t-31 -34t-42.5 -23t-47.5 -8.5q-60 0 -92 24.5t-32 62.5zM517 169q-35 -19 -50 -40t-15 -52q0 -11 4.5 -23.5t13 -22.5t21.5 -16.5t31 -6.5q29 0 49.5 15.5t20.5 47.5q0 20 -13 39
t-41 42zM509 290q0 -18 9.5 -33.5t27.5 -31.5l23 -20q26 12 46 34t20 58q0 32 -19 46t-38 14q-12 0 -24.5 -3.5t-22 -11.5t-16 -21t-6.5 -31z" />
    <glyph glyph-name="threeeighths" unicode="&#x215c;" horiz-adv-x="742" 
d="M65 -62l601 783l21 -17l-602 -784zM189 497q21 -1 40.5 -6t34.5 -15t23.5 -24.5t8.5 -33.5q0 -30 -15.5 -54t-41 -40.5t-57.5 -25t-65 -8.5q-37 0 -61 13.5t-24 34.5q0 14 7 24.5t27 20.5q29 -70 88 -70q35 0 58.5 23.5t23.5 55.5q0 25 -13 41t-32.5 25t-41.5 12t-40 4
l3 16q41 12 66 23.5t39 23.5t18.5 24.5t4.5 25.5q-1 21 -14.5 33.5t-36.5 12.5q-48 0 -93 -56l-14 10q23 41 54.5 63.5t76.5 22.5q41 0 63.5 -19.5t22.5 -50.5q1 -37 -30.5 -61.5t-79.5 -41.5v-3zM432 77q0 23 10 39.5t26 28.5t35.5 20.5t39.5 14.5l-2 2q-28 24 -39.5 43.5
t-11.5 44.5q0 21 10.5 40t28 33t41.5 22.5t51 8.5q48 0 77.5 -22.5t29.5 -53.5q0 -21 -10 -37t-26 -28.5t-35 -22t-38 -16.5l12 -10q20 -17 39 -38t19 -48q0 -23 -12 -42.5t-31 -34t-42.5 -23t-47.5 -8.5q-60 0 -92 24.5t-32 62.5zM555 169q-35 -19 -50 -40t-15 -52
q0 -11 4.5 -23.5t13 -22.5t21.5 -16.5t31 -6.5q29 0 49.5 15.5t20.5 47.5q0 20 -13 39t-41 42zM547 290q0 -18 9.5 -33.5t27.5 -31.5l23 -20q26 12 46 34t20 58q0 32 -19 46t-38 14q-12 0 -24.5 -3.5t-22 -11.5t-16 -21t-6.5 -31z" />
    <glyph glyph-name="fiveeighths" unicode="&#x215d;" horiz-adv-x="749" 
d="M319 611h-175l-28 -108q36 21 79 21q22 0 42.5 -6t36.5 -18t26 -30t10 -42q1 -30 -14 -55t-40.5 -43.5t-57.5 -28.5t-66 -10q-15 0 -30.5 3t-28.5 9t-21.5 15t-8.5 21q-1 11 6.5 23t24.5 20q18 -35 40 -50.5t55 -15.5q15 0 30 5.5t27 16.5t19.5 27t6.5 37q-2 32 -22.5 54
t-62.5 22q-26 0 -45 -8.5t-36 -19.5l-7 3l56 211h196zM72 -62l601 783l21 -17l-602 -784zM439 77q0 23 10 39.5t26 28.5t35.5 20.5t39.5 14.5l-2 2q-28 24 -39.5 43.5t-11.5 44.5q0 21 10.5 40t28 33t41.5 22.5t51 8.5q48 0 77.5 -22.5t29.5 -53.5q0 -21 -10 -37t-26 -28.5
t-35 -22t-38 -16.5l12 -10q20 -17 39 -38t19 -48q0 -23 -12 -42.5t-31 -34t-42.5 -23t-47.5 -8.5q-60 0 -92 24.5t-32 62.5zM562 169q-35 -19 -50 -40t-15 -52q0 -11 4.5 -23.5t13 -22.5t21.5 -16.5t31 -6.5q29 0 49.5 15.5t20.5 47.5q0 20 -13 39t-41 42zM554 290
q0 -18 9.5 -33.5t27.5 -31.5l23 -20q26 12 46 34t20 58q0 32 -19 46t-38 14q-12 0 -24.5 -3.5t-22 -11.5t-16 -21t-6.5 -31z" />
    <glyph glyph-name="seveneighths" unicode="&#x215e;" horiz-adv-x="664" 
d="M59 299l222 311h-197l12 54h242l-1 -4q-51 -77 -93 -142.5t-74 -114.5q-37 -57 -67 -104h-44zM-13 -62l601 783l21 -17l-602 -784zM354 77q0 23 10 39.5t26 28.5t35.5 20.5t39.5 14.5l-2 2q-28 24 -39.5 43.5t-11.5 44.5q0 21 10.5 40t28 33t41.5 22.5t51 8.5
q48 0 77.5 -22.5t29.5 -53.5q0 -21 -10 -37t-26 -28.5t-35 -22t-38 -16.5l12 -10q20 -17 39 -38t19 -48q0 -23 -12 -42.5t-31 -34t-42.5 -23t-47.5 -8.5q-60 0 -92 24.5t-32 62.5zM477 169q-35 -19 -50 -40t-15 -52q0 -11 4.5 -23.5t13 -22.5t21.5 -16.5t31 -6.5
q29 0 49.5 15.5t20.5 47.5q0 20 -13 39t-41 42zM469 290q0 -18 9.5 -33.5t27.5 -31.5l23 -20q26 12 46 34t20 58q0 32 -19 46t-38 14q-12 0 -24.5 -3.5t-22 -11.5t-16 -21t-6.5 -31z" />
    <glyph glyph-name="minus" unicode="&#x2212;" horiz-adv-x="580" 
d="M53 216v35h474v-35h-474z" />
    <glyph glyph-name="approxequal" unicode="&#x2248;" horiz-adv-x="580" 
d="M57 281q22 40 50.5 63t72.5 23q23 0 46 -5t52 -14l49 -15q33 -10 53 -13.5t36 -3.5q31 0 51.5 18t34.5 44l29 -15q-21 -37 -49 -60.5t-73 -23.5q-24 0 -48 5t-50 13l-50 15q-24 8 -46.5 13t-41.5 5q-30 0 -50.5 -19t-35.5 -44zM57 132q22 40 50.5 63t72.5 23q23 0 46 -5
t52 -14l49 -15q33 -10 53 -13.5t36 -3.5q31 0 51.5 18t34.5 44l29 -15q-21 -37 -49 -60.5t-73 -23.5q-24 0 -48 5t-50 13l-50 15q-24 8 -46.5 13t-41.5 5q-30 0 -50.5 -19t-35.5 -44z" />
    <glyph glyph-name="notequal" unicode="&#x2260;" horiz-adv-x="580" 
d="M138 21l78 123h-163v35h186l67 106h-253v35h275l78 122h36l-78 -122h163v-35h-185l-68 -106h253v-35h-275l-78 -123h-36z" />
    <glyph glyph-name="lessequal" unicode="&#x2264;" horiz-adv-x="578" 
d="M54 0v35h472v-35h-472zM112 312l414 -155v-35l-473 175v32l473 175v-37z" />
    <glyph glyph-name="greaterequal" unicode="&#x2265;" horiz-adv-x="578" 
d="M54 0v35h472v-35h-472zM468 314l-414 155v35l473 -175v-32l-473 -175v37z" />
    <glyph glyph-name="uni24C5" unicode="&#x24c5;" horiz-adv-x="802" 
d="M66 324q2 72 31 135t77 109.5t111.5 73.5t135.5 27q71 0 133 -27t107.5 -73.5t70.5 -109.5t23 -135t-31.5 -134.5t-77.5 -109t-112 -73t-135 -26.5q-72 0 -134 26.5t-107 73t-70 109t-22 134.5zM91 324q-2 -67 21 -126t65 -102.5t99 -68.5t123 -25t125 25.5t104 69
t72 102t29 125.5t-21.5 126t-65.5 102.5t-99 69t-123 25.5t-125 -25.5t-103.5 -69t-71.5 -102.5t-29 -126zM391 304q28 0 54 6.5t46 19.5t32 33.5t12 47.5q0 26 -11 43t-29 27.5t-40.5 14.5t-45.5 3l-64 -331l75 -13l-3 -16h-195l3 16l60 13l61 319l-55 15l3 14h160
q31 -2 58.5 -9t47.5 -20t31.5 -32t11.5 -44q0 -35 -20 -60t-51.5 -40t-69.5 -20.5t-74 -2.5z" />
    <glyph glyph-name="space_uni0326" 
d="M101 -243q53 18 76.5 37t23.5 43q0 14 -11.5 25.5t-39.5 10.5v4q4 24 19 39t42 15t41.5 -16.5t14.5 -40.5q0 -51 -42.5 -83t-120.5 -49z" />
    <glyph glyph-name="caron.alt" 
d="M158 532l54 201h77l-1 -6l-115 -195h-15z" />
    <glyph glyph-name="space_uni0326.alt" 
d="M303 764q-53 -18 -76.5 -37t-23.5 -43q0 -14 11.5 -25.5t39.5 -10.5v-4q-4 -24 -19 -39t-42 -15t-41.5 16.5t-14.5 40.5q0 51 42.5 83t120.5 49z" />
    <glyph glyph-name="grave.uc" 
d="M173 865l63 -137h-24l-116 130v7h77z" />
    <glyph glyph-name="dieresis.uc" 
d="M169 760q-19 0 -31.5 13t-12.5 32t12.5 32.5t31.5 13.5q20 0 33.5 -13.5t13.5 -32.5t-13.5 -32t-33.5 -13zM369 760q-19 0 -32 13t-13 32t13 32.5t32 13.5t32.5 -13.5t13.5 -32.5t-13.5 -32t-32.5 -13z" />
    <glyph glyph-name="macron.uc" 
d="M80 808h280l-11 -48h-279z" />
    <glyph glyph-name="acute.uc" 
d="M372 865v-7l-137 -130h-24l84 137h77z" />
    <glyph glyph-name="circumflex.uc" 
d="M137 728l140 127h51l90 -127h-29l-96 83l-122 -83h-34z" />
    <glyph glyph-name="caron.uc" 
d="M418 855l-140 -127h-51l-90 127h29l96 -83l122 83h34z" />
    <glyph glyph-name="breve.uc" 
d="M248 730q-53 0 -80.5 30t-30.5 98h17q17 -41 39 -60t64 -19q36 0 64.5 18.5t51.5 60.5h16q-12 -59 -49 -93.5t-92 -34.5z" />
    <glyph glyph-name="dotaccent.uc" 
d="M217 806q0 20 14 34t34 14t34 -14t14 -34t-14 -34t-34 -14t-34 14t-14 34z" />
    <glyph glyph-name="ring.uc" 
d="M170 835q0 43 28.5 70t70.5 27q43 0 71.5 -26.5t28.5 -70.5q0 -43 -28.5 -70.5t-70.5 -27.5q-43 0 -71.5 27t-28.5 71zM201 835q0 -31 20 -51.5t48 -20.5q29 0 49.5 20.5t20.5 51.5t-20.5 51.5t-48.5 20.5q-29 0 -49 -20.5t-20 -51.5z" />
    <glyph glyph-name="tilde.uc" 
d="M102 743l5 14q12 35 28.5 53t34.5 24.5t37 3.5t37 -11l56 -25q17 -8 30 -12t24.5 -0.5t22.5 15.5t23 38l14 -5l-6 -19q-11 -34 -26 -53.5t-32 -28t-37 -6.5t-41 12l-54 26q-21 9 -35.5 13.5t-26 1.5t-21 -14t-20.5 -32z" />
    <glyph glyph-name="hungarumlaut.uc" 
d="M425 857l-115 -129h-28l76 137h67v-8zM268 857l-115 -129h-27l76 137h66v-8z" />
    <glyph glyph-name="cedilla.uc" horiz-adv-x="235" 
d="M-51 -241q14 4 31.5 10.5t33.5 17t26.5 25t10.5 33.5q0 13 -5 21.5t-11.5 14t-14 8.5t-11.5 5l75 111h26l-47 -71q26 -9 39.5 -26.5t13.5 -37.5q0 -33 -18 -55.5t-44 -37t-55 -22t-51 -11.5z" />
    <glyph glyph-name="idotaccent" horiz-adv-x="231" 
d="M124 416q-11 5 -33 6t-48 -7v11q19 17 46 34t55 17q30 0 43 -21t2 -59l-95 -339h3q11 7 25 20t28.5 28t27.5 31t21 29l14 -8q-18 -30 -39.5 -60.5t-44 -54.5t-44 -39t-37.5 -15q-22 0 -29.5 17.5t0.5 45.5zM135 645q0 20 14 34t34 14t34 -14t14 -34t-14 -34t-34 -14
t-34 14t-14 34z" />
    <glyph glyph-name="dollar.lin" horiz-adv-x="475" 
d="M50 221l14 -169q23 -18 53.5 -29.5t68.5 -12.5l55 299l-32 18q-65 36 -89.5 73t-24.5 84q0 40 17 73.5t46.5 58t68 40t82.5 20.5l20 111h28l-21 -109h6q36 0 77.5 -11.5t70.5 -24.5l-36 -166h-15l-7 140q-21 13 -45.5 23.5t-54.5 12.5l-51 -274l46 -24q24 -13 44.5 -28.5
t35.5 -34t23.5 -41t8.5 -49.5q0 -46 -20 -83.5t-52 -65.5t-74 -45t-85 -21l-19 -105h-27l19 103h-2q-28 0 -54.5 4.5t-50 11.5t-42.5 15t-32 15l35 191h15zM359 160q0 47 -22.5 77t-70.5 58l-53 -284q30 3 57 15.5t46.5 32t31 45.5t11.5 56zM170 518q0 -45 20.5 -73
t65.5 -53l48 260q-28 -2 -52.5 -13t-42.5 -29t-28.5 -41.5t-10.5 -50.5z" />
    <glyph glyph-name="Euro.lin" horiz-adv-x="552" 
d="M62 418h66q28 59 68 107t85 81.5t91 52t86 18.5q23 0 44.5 -6t38 -16.5t26.5 -25t10 -30.5q0 -17 -13 -30.5t-30 -23.5q-26 43 -54.5 68.5t-67.5 25.5q-30 0 -60.5 -17t-58 -47t-51.5 -70.5t-42 -86.5h275l-8 -29h-278q-16 -49 -22 -105h265l-9 -29h-259v-25
q0 -50 13 -86t34 -59t47 -34t52 -11q29 0 51.5 6t42 17.5t38 27t39.5 34.5l11 -11q-50 -65 -99.5 -98t-118.5 -33q-47 0 -82.5 17t-60 48t-37 72.5t-12.5 91.5v21.5t2 21.5h-74l10 29h67q9 58 28 105h-62z" />
    <glyph glyph-name="sterling.lin" horiz-adv-x="566" 
d="M77 304h111l39 169q16 67 44.5 114.5t61 77.5t65 44t56.5 14q15 0 31.5 -5t29.5 -14t21.5 -22t8.5 -29q0 -19 -14.5 -31.5t-41.5 -21.5q-6 31 -15 49.5t-18.5 28t-18.5 12.5t-16 3q-14 0 -26 -6t-24 -22.5t-23 -45.5t-21 -74l-56 -241h203l-5 -25h-204l-5 -23
q-19 -82 -60.5 -138.5t-88.5 -89.5q38 -14 72 -29.5t58 -28.5l51 -27q34 -18 56.5 -30.5t38.5 -20t27 -10.5t22 -3q15 0 25 11.5t14 30t3 42.5t-8 49q27 1 48.5 -6t21.5 -36q0 -13 -9.5 -34t-28.5 -40.5t-47 -34t-65 -14.5q-34 0 -67.5 10.5t-66.5 27.5t-65 37t-63 40
l-61 39q-44 -21 -74 -21q-15 0 -24.5 4t-14 9.5t-6 11t-1.5 9.5q0 16 13 27t39 11q19 0 40 -4t44 -11q26 23 47 63.5t36 107.5l16 71h-110z" />
    <glyph glyph-name="yen.lin" horiz-adv-x="522" 
d="M71 299h158l-111 332l-44 16l3 17h212l-3 -17l-84 -17l94 -317h3l206 316l-80 18l3 17h171l-4 -17l-50 -19l-226 -329h159l-6 -28h-163l-14 -71h164l-6 -28h-163l-27 -137l77 -17l-3 -18h-245l4 18l85 17l27 137h-163l6 28h163l14 71h-163z" />
    <glyph glyph-name="florin.lin" horiz-adv-x="431" 
d="M42 308h110l11 51q14 66 40.5 124t61.5 101t77 68t87 25q32 0 48 -17.5t16 -32.5q0 -14 -8.5 -30t-21.5 -28q-23 29 -44.5 48t-43.5 19q-16 0 -31.5 -7.5t-31 -31.5t-31 -70t-31.5 -123l-20 -96h135l-7 -30h-134l-55 -270q-11 -51 -29.5 -100t-45.5 -88t-61 -62.5
t-74 -23.5q-10 0 -22.5 3.5t-23.5 10t-18.5 17t-7.5 25.5q0 18 11.5 31.5t18.5 19.5q20 -33 40.5 -53t40.5 -20q27 0 44.5 42.5t34.5 125.5l69 342h-110z" />
    <glyph glyph-name="zero.lin" horiz-adv-x="598" 
d="M386 676q45 0 81 -18.5t60.5 -51.5t37.5 -79.5t13 -103.5q0 -77 -24.5 -155.5t-68.5 -141.5t-105.5 -103t-135.5 -40q-47 0 -82.5 18t-60.5 51.5t-37.5 80.5t-12.5 104q0 76 24.5 154.5t68.5 141.5t106 103t136 40zM246 6q35 0 66.5 20t59 54t50 79t38.5 95t24.5 102
t8.5 100q0 39 -5 74.5t-17 63t-33 43.5t-54 16q-36 0 -68.5 -21t-60 -56t-49.5 -81t-37.5 -96t-24 -101t-8.5 -96q0 -42 4.5 -77.5t17 -62t34 -41.5t54.5 -15z" />
    <glyph glyph-name="one.lin" horiz-adv-x="355" 
d="M182 39l97 -21l-2 -18h-288l3 18l112 21l109 567l-129 -13l2 19l218 72h4z" />
    <glyph glyph-name="two.lin" horiz-adv-x="469" 
d="M85 75h331l-18 -75h-424l1 12l215 203q36 34 67.5 68.5t55.5 69.5t37.5 71t13.5 72q0 53 -31 84.5t-82 31.5q-47 0 -81.5 -26.5t-71.5 -77.5l-20 12q39 75 88 116.5t121 41.5q37 0 67 -13t51 -35t32.5 -50.5t11.5 -59.5q0 -59 -38.5 -121t-110.5 -128z" />
    <glyph glyph-name="three.lin" horiz-adv-x="437" 
d="M226 379q75 -18 122.5 -59.5t47.5 -112.5q0 -44 -23 -84t-61.5 -71t-88 -49.5t-102.5 -18.5q-26 0 -49 6t-40 17t-27 26.5t-10 33.5q0 14 9.5 30t40.5 30q21 -58 55 -81t76 -23q27 0 52.5 10.5t45 29.5t31.5 46t12 60q0 27 -11.5 53.5t-34 48.5t-57.5 38t-81 22l6 27
q57 29 94.5 52.5t59.5 45t31 42t9 43.5q0 32 -22.5 53t-60.5 21q-45 0 -84 -31t-74 -76l-18 10q76 160 207 160q28 0 51.5 -9t40.5 -24.5t27 -36t10 -44.5q0 -37 -17.5 -64.5t-44.5 -49t-59.5 -38t-62.5 -30.5v-3z" />
    <glyph glyph-name="four.lin" horiz-adv-x="532" 
d="M260 39l28 145h-279l3 15l427 473l19 -3l-84 -433h130l-9 -52h-131l-28 -145l82 -21l-3 -18h-251l3 18zM298 236l59 305l-274 -305h215z" />
    <glyph glyph-name="five.lin" horiz-adv-x="464" 
d="M453 590h-268l-52 -217q21 13 47.5 20.5t64.5 7.5q34 0 65.5 -11t56.5 -32t40 -52.5t15 -71.5q0 -55 -25.5 -101t-65.5 -79t-89.5 -51.5t-97.5 -18.5q-26 0 -49.5 6t-41 16.5t-28 26t-10.5 34.5q0 15 10.5 30.5t36.5 26.5q25 -59 60 -80.5t73 -21.5q27 0 54.5 11t50 32
t36.5 52.5t14 72.5q0 67 -40 105t-102 38q-42 0 -68.5 -11.5t-49.5 -30.5l-11 3l91 370h299z" />
    <glyph glyph-name="six.lin" horiz-adv-x="507" 
d="M522 659q-61 -26 -119.5 -60.5t-109 -78.5t-89.5 -97t-60 -116h3q35 47 75 70.5t82 23.5q34 0 64 -13t52 -36.5t34.5 -56.5t12.5 -73q0 -44 -18 -87t-50.5 -76.5t-76 -54.5t-94.5 -21q-31 0 -64 11.5t-60.5 36.5t-45.5 64.5t-18 96.5q0 95 41 173.5t108.5 139.5
t152.5 104.5t174 68.5zM272 356q-41 0 -77 -24.5t-65 -75.5q-4 -20 -5.5 -40t-1.5 -40q0 -171 110 -171q31 0 59 16t48 44t32 66.5t12 83.5q0 66 -30.5 103.5t-81.5 37.5z" />
    <glyph glyph-name="seven.lin" horiz-adv-x="443" 
d="M35 0l382 590h-336l16 74h390l-2 -10q-108 -171 -180.5 -293.5t-118.5 -203.5q-54 -94 -86 -157h-65z" />
    <glyph glyph-name="eight.lin" horiz-adv-x="467" 
d="M13 123q0 40 18 70.5t46.5 54.5t64 44t69.5 38l-30 30q-32 32 -50.5 62.5t-18.5 73.5q0 32 17 64.5t45.5 58.5t66.5 42.5t79 16.5q33 0 62.5 -9t52 -26t35.5 -41.5t13 -55.5q0 -35 -18 -64.5t-46 -53.5t-60.5 -43.5t-60.5 -34.5l24 -23q19 -20 37 -38.5t31.5 -37.5
t21.5 -39.5t8 -43.5q0 -41 -20 -75.5t-52.5 -59.5t-72 -39t-78.5 -14q-42 0 -76 11t-58 30t-37 45t-13 57zM222 319q-32 -23 -56.5 -44.5t-41.5 -44.5t-26 -49t-9 -58q0 -20 7 -41.5t22 -39t38.5 -28.5t55.5 -11q25 0 48.5 9t42 25.5t29.5 41t11 55.5q0 19 -4 36t-15 35.5
t-29.5 40t-48.5 50.5zM183 529q0 -41 20.5 -74t63.5 -74l19 -19q61 48 91.5 92t30.5 100q0 19 -7.5 37.5t-21 32t-32.5 22t-42 8.5q-21 0 -42.5 -8t-39.5 -23.5t-29 -39t-11 -54.5z" />
    <glyph glyph-name="nine.lin" horiz-adv-x="501" 
d="M3 0q62 22 121 55t109.5 76.5t90.5 97t63 116.5h-4q-35 -47 -71 -67t-78 -20q-34 0 -64 12.5t-52 36.5t-34.5 58.5t-12.5 77.5q0 44 18.5 87t51.5 76.5t78 54.5t98 21q36 0 68 -13.5t57 -39.5t39.5 -64t14.5 -88q0 -99 -43 -181.5t-112.5 -146t-156.5 -106.5t-175 -62z
M266 303q41 0 76 26t61 73q12 49 12 104q0 72 -26 113t-77 41q-34 0 -63 -17t-50 -46.5t-33 -68.5t-12 -83q0 -62 30.5 -102t81.5 -40z" />
    <glyph glyph-name="percent.lin" horiz-adv-x="752" 
d="M225 357q-27 0 -50 10.5t-39.5 29t-25.5 42.5t-9 51q0 39 15.5 73.5t41 59.5t58 39.5t67.5 14.5q27 0 50 -11t39 -29t25 -42.5t9 -51.5q0 -38 -15 -71.5t-40.5 -59t-58 -40.5t-67.5 -15zM278 655q-22 0 -42 -12.5t-35.5 -35.5t-24.5 -54.5t-9 -70.5q0 -45 15 -74t49 -29
q19 0 38 11t35 32.5t26 53.5t10 74q0 46 -15 75.5t-47 29.5zM721 715h41l-686 -765h-41zM508 -16q-27 0 -50 10.5t-39.5 29t-25.5 42.5t-9 51q0 39 15.5 73.5t41 59.5t58 39.5t67.5 14.5q27 0 50 -11t39 -29t25 -42.5t9 -51.5q0 -38 -15 -71.5t-40.5 -59t-58 -40.5
t-67.5 -15zM561 282q-22 0 -42 -12.5t-35.5 -35.5t-24.5 -54.5t-9 -70.5q0 -45 15 -74t49 -29q19 0 38 11t35 32.5t26 53.5t10 74q0 46 -15 75.5t-47 29.5z" />
    <glyph glyph-name="perthousand.lin" horiz-adv-x="1097" 
d="M225 357q-27 0 -50 10.5t-39.5 29t-25.5 42.5t-9 51q0 39 15.5 73.5t41 59.5t58 39.5t67.5 14.5q27 0 50 -11t39 -29t25 -42.5t9 -51.5q0 -38 -15 -71.5t-40.5 -59t-58 -40.5t-67.5 -15zM278 655q-22 0 -42 -12.5t-35.5 -35.5t-24.5 -54.5t-9 -70.5q0 -45 15 -74t49 -29
q19 0 38 11t35 32.5t26 53.5t10 74q0 46 -15 75.5t-47 29.5zM721 715h41l-686 -765h-41zM508 -16q-27 0 -50 10.5t-39.5 29t-25.5 42.5t-9 51q0 39 15.5 73.5t41 59.5t58 39.5t67.5 14.5q27 0 50 -11t39 -29t25 -42.5t9 -51.5q0 -38 -15 -71.5t-40.5 -59t-58 -40.5
t-67.5 -15zM561 282q-22 0 -42 -12.5t-35.5 -35.5t-24.5 -54.5t-9 -70.5q0 -45 15 -74t49 -29q19 0 38 11t35 32.5t26 53.5t10 74q0 46 -15 75.5t-47 29.5zM853 -16q-27 0 -50 10.5t-39.5 29t-25.5 42.5t-9 51q0 39 15.5 73.5t41 59.5t58 39.5t67.5 14.5q27 0 50 -11t39 -29
t25 -42.5t9 -51.5q0 -38 -15 -71.5t-40.5 -59t-58 -40.5t-67.5 -15zM906 282q-22 0 -42 -12.5t-35.5 -35.5t-24.5 -54.5t-9 -70.5q0 -45 15 -74t49 -29q19 0 38 11t35 32.5t26 53.5t10 74q0 46 -15 75.5t-47 29.5z" />
    <glyph glyph-name="plus.lin" horiz-adv-x="588" 
d="M324 286v-216h-40v216h-217v35h217v216h40v-216h217v-35h-217z" />
    <glyph glyph-name="minus.lin" horiz-adv-x="588" 
d="M66 286v35h474v-35h-474z" />
    <glyph glyph-name="multiply.lin" horiz-adv-x="588" 
d="M302 281l-188 -193l-27 26l189 191l-188 192l27 25l189 -190l191 197l26 -26l-191 -196l190 -193l-28 -25z" />
    <glyph glyph-name="divide.lin" horiz-adv-x="588" 
d="M67 286v35h474v-35h-474zM304 413q-20 0 -33.5 13.5t-13.5 33.5t13.5 33.5t33.5 13.5t33.5 -13.5t13.5 -33.5t-13.5 -33.5t-33.5 -13.5zM304 100q-20 0 -33.5 13.5t-13.5 33.5t13.5 33.5t33.5 13.5t33.5 -13.5t13.5 -33.5t-13.5 -33.5t-33.5 -13.5z" />
    <glyph glyph-name="equal.lin" horiz-adv-x="588" 
d="M67 355v35h474v-35h-474zM67 214v35h474v-35h-474z" />
    <glyph glyph-name="less.lin" horiz-adv-x="588" 
d="M110 301l429 -198v-38l-472 219v35l472 218v-37z" />
    <glyph glyph-name="greater.lin" horiz-adv-x="588" 
d="M497 300l-429 198v39l472 -219v-35l-472 -218v36z" />
    <glyph glyph-name="plusminus.lin" horiz-adv-x="587" 
d="M324 399v-216h-40v216h-217v35h217v216h40v-216h217v-35h-217zM67 35h474v-35h-474v35z" />
    <glyph glyph-name="notequal.lin" horiz-adv-x="588" 
d="M152 91l78 123h-163v35h186l67 106h-253v35h275l78 122h36l-78 -122h163v-35h-185l-68 -106h253v-35h-275l-78 -123h-36z" />
    <glyph glyph-name="approxequal.lin" horiz-adv-x="588" 
d="M63 351q22 40 50.5 63t72.5 23q23 0 46 -5t52 -14l49 -15q33 -10 53 -13.5t36 -3.5q31 0 51.5 18t34.5 44l29 -15q-21 -37 -49 -60.5t-73 -23.5q-24 0 -48 5t-50 13l-50 15q-24 8 -46.5 13t-41.5 5q-30 0 -50.5 -19t-35.5 -44zM63 202q22 40 50.5 63t72.5 23q23 0 46 -5
t52 -14l49 -15q33 -10 53 -13.5t36 -3.5q31 0 51.5 18t34.5 44l29 -15q-21 -37 -49 -60.5t-73 -23.5q-24 0 -48 5t-50 13l-50 15q-24 8 -46.5 13t-41.5 5q-30 0 -50.5 -19t-35.5 -44z" />
    <glyph glyph-name="lessequal.lin" horiz-adv-x="588" 
d="M68 0v35h472v-35h-472zM126 382l414 -155v-35l-473 175v32l473 175v-37z" />
    <glyph glyph-name="greaterequal.lin" horiz-adv-x="588" 
d="M68 0v35h472v-35h-472zM482 384l-414 155v35l473 -175v-32l-473 -175v37z" />
    <glyph glyph-name="numbersign.lin" horiz-adv-x="593" 
d="M128 509h123l58 155h33l-58 -155h160l58 155h33l-58 -155h122l-8 -32h-126l-74 -197h118l-7 -32h-123l-66 -178h-33l66 178h-160l-66 -178h-33l66 178h-121l7 32h126l74 197h-118zM198 280h160l74 197h-160z" />
    <glyph glyph-name="ordfeminine.lin" horiz-adv-x="436" 
d="M436 684l-97 -351l3 -1q11 6 24 16t25.5 22.5t24 26t20.5 25.5l12 -7q-13 -24 -29.5 -46.5t-35 -40.5t-37.5 -29t-38 -11q-21 0 -27 17t1 43l29 108h-4q-12 -20 -31.5 -49.5t-43.5 -56.5t-52 -46t-58 -19q-23 0 -38.5 18t-15.5 47q0 35 11.5 73t31 74t45.5 68.5t55 57
t59.5 39t58.5 14.5q20 0 35.5 -6t25.5 -16l16 30h30zM165 341q18 0 44.5 24t52.5 58.5t47.5 71.5t29.5 64l18 55q-20 34 -56 34q-25 0 -53.5 -25.5t-52.5 -65.5t-40 -89t-16 -96q0 -14 7.5 -22.5t18.5 -8.5z" />
    <glyph glyph-name="ordmasculine.lin" horiz-adv-x="390" 
d="M152 405q0 -13 1.5 -30t6.5 -32t14.5 -25.5t24.5 -10.5q27 0 53 25t46.5 62.5t33 81t12.5 81.5v26t-4.5 34t-14.5 29.5t-29 12.5q-29 0 -54.5 -26.5t-45 -65.5t-31.5 -83t-13 -79zM300 679q29 0 50.5 -11.5t35.5 -30.5t20.5 -43t6.5 -48q0 -51 -18 -98t-48.5 -83
t-69.5 -57t-81 -21q-28 0 -49 11.5t-35 31t-21 44.5t-7 52q0 51 18 96.5t48 80.5t69 55.5t81 20.5z" />
    <glyph glyph-name="zero.num" horiz-adv-x="366" 
d="M266 673q58 0 91.5 -42t33.5 -106q0 -34 -11.5 -75t-35.5 -76.5t-62 -59.5t-91 -24q-57 0 -90 42t-33 108q0 33 11.5 73.5t35.5 76t61.5 59.5t89.5 24zM195 306q30 0 54 25t41 63.5t26 84t9 86.5q0 38 -14.5 64.5t-46.5 26.5q-30 0 -54 -24t-41.5 -61t-27 -82t-9.5 -86
q0 -16 3 -33t10.5 -31.5t19.5 -23.5t30 -9z" />
    <glyph glyph-name="one.num" horiz-adv-x="218" 
d="M158 325l60 -12l-2 -14h-187l2 14l68 12l64 295l-76 -4l3 16l140 41h3z" />
    <glyph glyph-name="two.num" horiz-adv-x="289" 
d="M94 346h197l-11 -47h-254l2 15l83 74q29 26 55.5 48.5t47 44t32.5 43.5t12 47q0 16 -5.5 27.5t-14.5 18.5t-19.5 10t-20.5 3q-33 0 -54.5 -17t-43.5 -39l-13 7q10 19 22 35.5t27.5 29t34.5 20t44 7.5q24 0 43 -8t31.5 -20.5t19.5 -29t7 -34.5q0 -21 -8 -39t-24 -37
t-40.5 -40t-58.5 -48z" />
    <glyph glyph-name="three.num" horiz-adv-x="277" 
d="M189 497q21 -1 40.5 -6t34.5 -15t23.5 -24.5t8.5 -33.5q0 -30 -15.5 -54t-41 -40.5t-57.5 -25t-65 -8.5q-37 0 -61 13.5t-24 34.5q0 14 7 24.5t27 20.5q29 -70 88 -70q35 0 58.5 23.5t23.5 55.5q0 25 -13 41t-32.5 25t-41.5 12t-40 4l3 16q41 12 66 23.5t39 23.5
t18.5 24.5t4.5 25.5q-1 21 -14.5 33.5t-36.5 12.5q-48 0 -93 -56l-14 10q23 41 54.5 63.5t76.5 22.5q41 0 63.5 -19.5t22.5 -50.5q1 -37 -30.5 -61.5t-79.5 -41.5v-3z" />
    <glyph glyph-name="four.num" horiz-adv-x="321" 
d="M197 325l15 70h-171l3 20l254 253l28 -4l-50 -230h74l-7 -39h-75l-15 -70l52 -12l-3 -14h-164l3 15zM221 434l35 163l-164 -163h129z" />
    <glyph glyph-name="five.num" horiz-adv-x="291" 
d="M319 611h-175l-28 -108q36 21 79 21q22 0 42.5 -6t36.5 -18t26 -30t10 -42q1 -30 -14 -55t-40.5 -43.5t-57.5 -28.5t-66 -10q-15 0 -30.5 3t-28.5 9t-21.5 15t-8.5 21q-1 11 6.5 23t24.5 20q18 -35 40 -50.5t55 -15.5q15 0 30 5.5t27 16.5t19.5 27t6.5 37q-2 32 -22.5 54
t-62.5 22q-26 0 -45 -8.5t-36 -19.5l-7 3l56 211h196z" />
    <glyph glyph-name="six.num" horiz-adv-x="321" 
d="M362 660q-77 -20 -132.5 -60.5t-80.5 -105.5h3q20 16 38.5 24.5t44.5 8.5q20 0 39 -6.5t33.5 -19t23 -30.5t8.5 -41q0 -29 -10 -54.5t-29 -44.5t-46.5 -30t-63.5 -11q-54 0 -86.5 33t-32.5 93q0 49 20 92.5t57.5 77.5t91 57t120.5 32zM211 499q-20 0 -37 -9.5t-35 -30.5
q-7 -28 -7 -65q0 -39 17 -64t44 -25q19 0 34.5 9.5t26 25.5t16 36.5t5.5 42.5q0 37 -16 58.5t-48 21.5z" />
    <glyph glyph-name="seven.num" horiz-adv-x="267" 
d="M59 299l222 311h-197l12 54h242l-1 -4q-51 -77 -93 -142.5t-74 -114.5q-37 -57 -67 -104h-44z" />
    <glyph glyph-name="eight.num" horiz-adv-x="299" 
d="M48 376q0 23 10 39.5t26 28.5t35.5 20.5t39.5 14.5l-2 2q-28 24 -39.5 43.5t-11.5 44.5q0 21 10.5 40t28 33t41.5 22.5t51 8.5q48 0 77.5 -22.5t29.5 -53.5q0 -21 -10 -37t-26 -28.5t-35 -22t-38 -16.5l12 -10q20 -17 39 -38t19 -48q0 -23 -12 -42.5t-31 -34t-42.5 -23
t-47.5 -8.5q-60 0 -92 24.5t-32 62.5zM171 468q-35 -19 -50 -40t-15 -52q0 -11 4.5 -23.5t13 -22.5t21.5 -16.5t31 -6.5q29 0 49.5 15.5t20.5 47.5q0 20 -13 39t-41 42zM163 589q0 -18 9.5 -33.5t27.5 -31.5l23 -20q26 12 46 34t20 58q0 32 -19 46t-38 14q-12 0 -24.5 -3.5
t-22 -11.5t-16 -21t-6.5 -31z" />
    <glyph glyph-name="nine.num" horiz-adv-x="316" 
d="M52 309q76 14 132 57t81 109h-2q-20 -16 -38.5 -24.5t-44.5 -8.5q-20 0 -39 6t-33 18.5t-22.5 31t-8.5 43.5q0 27 10.5 52t30 43.5t46 30t59.5 11.5q51 0 85.5 -33.5t34.5 -93.5q0 -49 -19.5 -94.5t-56.5 -81t-91 -58t-122 -25.5zM204 470q17 0 35 9t36 29q3 16 5 32
t2 33q0 44 -17 66t-44 22q-20 0 -35 -10t-25.5 -25.5t-16 -35.5t-5.5 -41q0 -79 65 -79z" />
    <glyph glyph-name="zero.den" horiz-adv-x="366" 
d="M207 374q58 0 91.5 -42t33.5 -106q0 -34 -11.5 -75t-35.5 -76.5t-62 -59.5t-91 -24q-57 0 -90 42t-33 108q0 33 11.5 73.5t35.5 76t61.5 59.5t89.5 24zM136 7q30 0 54 25t41 63.5t26 84t9 86.5q0 38 -14.5 64.5t-46.5 26.5q-30 0 -54 -24t-41.5 -61t-27 -82t-9.5 -86
q0 -16 3 -33t10.5 -31.5t19.5 -23.5t30 -9z" />
    <glyph glyph-name="one.den" horiz-adv-x="218" 
d="M99 26l60 -12l-2 -14h-187l2 14l68 12l64 295l-76 -4l3 16l140 41h3z" />
    <glyph glyph-name="two.den" horiz-adv-x="289" 
d="M35 47h197l-11 -47h-254l2 15l83 74q29 26 55.5 48.5t47 44t32.5 43.5t12 47q0 16 -5.5 27.5t-14.5 18.5t-19.5 10t-20.5 3q-33 0 -54.5 -17t-43.5 -39l-13 7q10 19 22 35.5t27.5 29t34.5 20t44 7.5q24 0 43 -8t31.5 -20.5t19.5 -29t7 -34.5q0 -21 -8 -39t-24 -37
t-40.5 -40t-58.5 -48z" />
    <glyph glyph-name="three.den" horiz-adv-x="277" 
d="M130 198q21 -1 40.5 -6t34.5 -15t23.5 -24.5t8.5 -33.5q0 -30 -15.5 -54t-41 -40.5t-57.5 -25t-65 -8.5q-37 0 -61 13.5t-24 34.5q0 14 7 24.5t27 20.5q29 -70 88 -70q35 0 58.5 23.5t23.5 55.5q0 25 -13 41t-32.5 25t-41.5 12t-40 4l3 16q41 12 66 23.5t39 23.5
t18.5 24.5t4.5 25.5q-1 21 -14.5 33.5t-36.5 12.5q-48 0 -93 -56l-14 10q23 41 54.5 63.5t76.5 22.5q41 0 63.5 -19.5t22.5 -50.5q1 -37 -30.5 -61.5t-79.5 -41.5v-3z" />
    <glyph glyph-name="four.den" horiz-adv-x="321" 
d="M138 26l15 70h-171l3 20l254 253l28 -4l-50 -230h74l-7 -39h-75l-15 -70l52 -12l-3 -14h-164l3 15zM162 135l35 163l-164 -163h129z" />
    <glyph glyph-name="five.den" horiz-adv-x="291" 
d="M260 312h-175l-28 -108q36 21 79 21q22 0 42.5 -6t36.5 -18t26 -30t10 -42q1 -30 -14 -55t-40.5 -43.5t-57.5 -28.5t-66 -10q-15 0 -30.5 3t-28.5 9t-21.5 15t-8.5 21q-1 11 6.5 23t24.5 20q18 -35 40 -50.5t55 -15.5q15 0 30 5.5t27 16.5t19.5 27t6.5 37q-2 32 -22.5 54
t-62.5 22q-26 0 -45 -8.5t-36 -19.5l-7 3l56 211h196z" />
    <glyph glyph-name="six.den" horiz-adv-x="321" 
d="M303 361q-77 -20 -132.5 -60.5t-80.5 -105.5h3q20 16 38.5 24.5t44.5 8.5q20 0 39 -6.5t33.5 -19t23 -30.5t8.5 -41q0 -29 -10 -54.5t-29 -44.5t-46.5 -30t-63.5 -11q-54 0 -86.5 33t-32.5 93q0 49 20 92.5t57.5 77.5t91 57t120.5 32zM152 200q-20 0 -37 -9.5t-35 -30.5
q-7 -28 -7 -65q0 -39 17 -64t44 -25q19 0 34.5 9.5t26 25.5t16 36.5t5.5 42.5q0 37 -16 58.5t-48 21.5z" />
    <glyph glyph-name="seven.den" horiz-adv-x="267" 
d="M0 0l222 311h-197l12 54h242l-1 -4q-51 -77 -93 -142.5t-74 -114.5q-37 -57 -67 -104h-44z" />
    <glyph glyph-name="eight.den" horiz-adv-x="299" 
d="M-11 77q0 23 10 39.5t26 28.5t35.5 20.5t39.5 14.5l-2 2q-28 24 -39.5 43.5t-11.5 44.5q0 21 10.5 40t28 33t41.5 22.5t51 8.5q48 0 77.5 -22.5t29.5 -53.5q0 -21 -10 -37t-26 -28.5t-35 -22t-38 -16.5l12 -10q20 -17 39 -38t19 -48q0 -23 -12 -42.5t-31 -34t-42.5 -23
t-47.5 -8.5q-60 0 -92 24.5t-32 62.5zM112 169q-35 -19 -50 -40t-15 -52q0 -11 4.5 -23.5t13 -22.5t21.5 -16.5t31 -6.5q29 0 49.5 15.5t20.5 47.5q0 20 -13 39t-41 42zM104 290q0 -18 9.5 -33.5t27.5 -31.5l23 -20q26 12 46 34t20 58q0 32 -19 46t-38 14q-12 0 -24.5 -3.5
t-22 -11.5t-16 -21t-6.5 -31z" />
    <glyph glyph-name="nine.den" horiz-adv-x="316" 
d="M-7 10q76 14 132 57t81 109h-2q-20 -16 -38.5 -24.5t-44.5 -8.5q-20 0 -39 6t-33 18.5t-22.5 31t-8.5 43.5q0 27 10.5 52t30 43.5t46 30t59.5 11.5q51 0 85.5 -33.5t34.5 -93.5q0 -49 -19.5 -94.5t-56.5 -81t-91 -58t-122 -25.5zM145 171q17 0 35 9t36 29q3 16 5 32t2 33
q0 44 -17 66t-44 22q-20 0 -35 -10t-25.5 -25.5t-16 -35.5t-5.5 -41q0 -79 65 -79z" />
    <glyph glyph-name="zero.sub" horiz-adv-x="366" 
d="M196 324q58 0 91.5 -42t33.5 -106q0 -34 -11.5 -75t-35.5 -76.5t-62 -59.5t-91 -24q-57 0 -90 42t-33 108q0 33 11.5 73.5t35.5 76t61.5 59.5t89.5 24zM125 -43q30 0 54 25t41 63.5t26 84t9 86.5q0 38 -14.5 64.5t-46.5 26.5q-30 0 -54 -24t-41.5 -61t-27 -82t-9.5 -86
q0 -16 3 -33t10.5 -31.5t19.5 -23.5t30 -9z" />
    <glyph glyph-name="one.sub" horiz-adv-x="218" 
d="M88 -24l60 -12l-2 -14h-187l2 14l68 12l64 295l-76 -4l3 16l140 41h3z" />
    <glyph glyph-name="two.sub" horiz-adv-x="289" 
d="M24 -3h197l-11 -47h-254l2 15l83 74q29 26 55.5 48.5t47 44t32.5 43.5t12 47q0 16 -5.5 27.5t-14.5 18.5t-19.5 10t-20.5 3q-33 0 -54.5 -17t-43.5 -39l-13 7q10 19 22 35.5t27.5 29t34.5 20t44 7.5q24 0 43 -8t31.5 -20.5t19.5 -29t7 -34.5q0 -21 -8 -39t-24 -37
t-40.5 -40t-58.5 -48z" />
    <glyph glyph-name="three.sub" horiz-adv-x="277" 
d="M119 148q21 -1 40.5 -6t34.5 -15t23.5 -24.5t8.5 -33.5q0 -30 -15.5 -54t-41 -40.5t-57.5 -25t-65 -8.5q-37 0 -61 13.5t-24 34.5q0 14 7 24.5t27 20.5q29 -70 88 -70q35 0 58.5 23.5t23.5 55.5q0 25 -13 41t-32.5 25t-41.5 12t-40 4l3 16q41 12 66 23.5t39 23.5
t18.5 24.5t4.5 25.5q-1 21 -14.5 33.5t-36.5 12.5q-48 0 -93 -56l-14 10q23 41 54.5 63.5t76.5 22.5q41 0 63.5 -19.5t22.5 -50.5q1 -37 -30.5 -61.5t-79.5 -41.5v-3z" />
    <glyph glyph-name="four.sub" horiz-adv-x="321" 
d="M127 -24l15 70h-171l3 20l254 253l28 -4l-50 -230h74l-7 -39h-75l-15 -70l52 -12l-3 -14h-164l3 15zM151 85l35 163l-164 -163h129z" />
    <glyph glyph-name="five.sub" horiz-adv-x="291" 
d="M249 262h-175l-28 -108q36 21 79 21q22 0 42.5 -6t36.5 -18t26 -30t10 -42q1 -30 -14 -55t-40.5 -43.5t-57.5 -28.5t-66 -10q-15 0 -30.5 3t-28.5 9t-21.5 15t-8.5 21q-1 11 6.5 23t24.5 20q18 -35 40 -50.5t55 -15.5q15 0 30 5.5t27 16.5t19.5 27t6.5 37q-2 32 -22.5 54
t-62.5 22q-26 0 -45 -8.5t-36 -19.5l-7 3l56 211h196z" />
    <glyph glyph-name="six.sub" horiz-adv-x="321" 
d="M292 311q-77 -20 -132.5 -60.5t-80.5 -105.5h3q20 16 38.5 24.5t44.5 8.5q20 0 39 -6.5t33.5 -19t23 -30.5t8.5 -41q0 -29 -10 -54.5t-29 -44.5t-46.5 -30t-63.5 -11q-54 0 -86.5 33t-32.5 93q0 49 20 92.5t57.5 77.5t91 57t120.5 32zM141 150q-20 0 -37 -9.5t-35 -30.5
q-7 -28 -7 -65q0 -39 17 -64t44 -25q19 0 34.5 9.5t26 25.5t16 36.5t5.5 42.5q0 37 -16 58.5t-48 21.5z" />
    <glyph glyph-name="seven.sub" horiz-adv-x="267" 
d="M-11 -50l222 311h-197l12 54h242l-1 -4q-51 -77 -93 -142.5t-74 -114.5q-37 -57 -67 -104h-44z" />
    <glyph glyph-name="eight.sub" horiz-adv-x="299" 
d="M-22 27q0 23 10 39.5t26 28.5t35.5 20.5t39.5 14.5l-2 2q-28 24 -39.5 43.5t-11.5 44.5q0 21 10.5 40t28 33t41.5 22.5t51 8.5q48 0 77.5 -22.5t29.5 -53.5q0 -21 -10 -37t-26 -28.5t-35 -22t-38 -16.5l12 -10q20 -17 39 -38t19 -48q0 -23 -12 -42.5t-31 -34t-42.5 -23
t-47.5 -8.5q-60 0 -92 24.5t-32 62.5zM101 119q-35 -19 -50 -40t-15 -52q0 -11 4.5 -23.5t13 -22.5t21.5 -16.5t31 -6.5q29 0 49.5 15.5t20.5 47.5q0 20 -13 39t-41 42zM93 240q0 -18 9.5 -33.5t27.5 -31.5l23 -20q26 12 46 34t20 58q0 32 -19 46t-38 14q-12 0 -24.5 -3.5
t-22 -11.5t-16 -21t-6.5 -31z" />
    <glyph glyph-name="nine.sub" horiz-adv-x="316" 
d="M-18 -40q76 14 132 57t81 109h-2q-20 -16 -38.5 -24.5t-44.5 -8.5q-20 0 -39 6t-33 18.5t-22.5 31t-8.5 43.5q0 27 10.5 52t30 43.5t46 30t59.5 11.5q51 0 85.5 -33.5t34.5 -93.5q0 -49 -19.5 -94.5t-56.5 -81t-91 -58t-122 -25.5zM134 121q17 0 35 9t36 29q3 16 5 32
t2 33q0 44 -17 66t-44 22q-20 0 -35 -10t-25.5 -25.5t-16 -35.5t-5.5 -41q0 -79 65 -79z" />
    <glyph glyph-name="plus.sub" horiz-adv-x="297" 
d="M142 106v-117h-29v117h-128v25h128v118h29v-118h127v-25h-127z" />
    <glyph glyph-name="minus.sub" horiz-adv-x="297" 
d="M-15 106v25h284v-25h-284z" />
    <glyph glyph-name="zero.sup" horiz-adv-x="366" 
d="M282 755q58 0 91.5 -42t33.5 -106q0 -34 -11.5 -75t-35.5 -76.5t-62 -59.5t-91 -24q-57 0 -90 42t-33 108q0 33 11.5 73.5t35.5 76t61.5 59.5t89.5 24zM211 388q30 0 54 25t41 63.5t26 84t9 86.5q0 38 -14.5 64.5t-46.5 26.5q-30 0 -54 -24t-41.5 -61t-27 -82t-9.5 -86
q0 -16 3 -33t10.5 -31.5t19.5 -23.5t30 -9z" />
    <glyph glyph-name="one.sup" horiz-adv-x="218" 
d="M174 407l60 -12l-2 -14h-187l2 14l68 12l64 295l-76 -4l3 16l140 41h3z" />
    <glyph glyph-name="two.sup" horiz-adv-x="289" 
d="M110 428h197l-11 -47h-254l2 15l83 74q29 26 55.5 48.5t47 44t32.5 43.5t12 47q0 16 -5.5 27.5t-14.5 18.5t-19.5 10t-20.5 3q-33 0 -54.5 -17t-43.5 -39l-13 7q10 19 22 35.5t27.5 29t34.5 20t44 7.5q24 0 43 -8t31.5 -20.5t19.5 -29t7 -34.5q0 -21 -8 -39t-24 -37
t-40.5 -40t-58.5 -48z" />
    <glyph glyph-name="three.sup" horiz-adv-x="277" 
d="M205 579q21 -1 40.5 -6t34.5 -15t23.5 -24.5t8.5 -33.5q0 -30 -15.5 -54t-41 -40.5t-57.5 -25t-65 -8.5q-37 0 -61 13.5t-24 34.5q0 14 7 24.5t27 20.5q29 -70 88 -70q35 0 58.5 23.5t23.5 55.5q0 25 -13 41t-32.5 25t-41.5 12t-40 4l3 16q41 12 66 23.5t39 23.5
t18.5 24.5t4.5 25.5q-1 21 -14.5 33.5t-36.5 12.5q-48 0 -93 -56l-14 10q23 41 54.5 63.5t76.5 22.5q41 0 63.5 -19.5t22.5 -50.5q1 -37 -30.5 -61.5t-79.5 -41.5v-3z" />
    <glyph glyph-name="four.sup" horiz-adv-x="321" 
d="M213 407l15 70h-171l3 20l254 253l28 -4l-50 -230h74l-7 -39h-75l-15 -70l52 -12l-3 -14h-164l3 15zM237 516l35 163l-164 -163h129z" />
    <glyph glyph-name="five.sup" horiz-adv-x="291" 
d="M335 693h-175l-28 -108q36 21 79 21q22 0 42.5 -6t36.5 -18t26 -30t10 -42q1 -30 -14 -55t-40.5 -43.5t-57.5 -28.5t-66 -10q-15 0 -30.5 3t-28.5 9t-21.5 15t-8.5 21q-1 11 6.5 23t24.5 20q18 -35 40 -50.5t55 -15.5q15 0 30 5.5t27 16.5t19.5 27t6.5 37q-2 32 -22.5 54
t-62.5 22q-26 0 -45 -8.5t-36 -19.5l-7 3l56 211h196z" />
    <glyph glyph-name="six.sup" horiz-adv-x="321" 
d="M378 742q-77 -20 -132.5 -60.5t-80.5 -105.5h3q20 16 38.5 24.5t44.5 8.5q20 0 39 -6.5t33.5 -19t23 -30.5t8.5 -41q0 -29 -10 -54.5t-29 -44.5t-46.5 -30t-63.5 -11q-54 0 -86.5 33t-32.5 93q0 49 20 92.5t57.5 77.5t91 57t120.5 32zM227 581q-20 0 -37 -9.5t-35 -30.5
q-7 -28 -7 -65q0 -39 17 -64t44 -25q19 0 34.5 9.5t26 25.5t16 36.5t5.5 42.5q0 37 -16 58.5t-48 21.5z" />
    <glyph glyph-name="seven.sup" horiz-adv-x="267" 
d="M75 381l222 311h-197l12 54h242l-1 -4q-51 -77 -93 -142.5t-74 -114.5q-37 -57 -67 -104h-44z" />
    <glyph glyph-name="eight.sup" horiz-adv-x="299" 
d="M64 458q0 23 10 39.5t26 28.5t35.5 20.5t39.5 14.5l-2 2q-28 24 -39.5 43.5t-11.5 44.5q0 21 10.5 40t28 33t41.5 22.5t51 8.5q48 0 77.5 -22.5t29.5 -53.5q0 -21 -10 -37t-26 -28.5t-35 -22t-38 -16.5l12 -10q20 -17 39 -38t19 -48q0 -23 -12 -42.5t-31 -34t-42.5 -23
t-47.5 -8.5q-60 0 -92 24.5t-32 62.5zM187 550q-35 -19 -50 -40t-15 -52q0 -11 4.5 -23.5t13 -22.5t21.5 -16.5t31 -6.5q29 0 49.5 15.5t20.5 47.5q0 20 -13 39t-41 42zM179 671q0 -18 9.5 -33.5t27.5 -31.5l23 -20q26 12 46 34t20 58q0 32 -19 46t-38 14q-12 0 -24.5 -3.5
t-22 -11.5t-16 -21t-6.5 -31z" />
    <glyph glyph-name="nine.sup" horiz-adv-x="316" 
d="M68 391q76 14 132 57t81 109h-2q-20 -16 -38.5 -24.5t-44.5 -8.5q-20 0 -39 6t-33 18.5t-22.5 31t-8.5 43.5q0 27 10.5 52t30 43.5t46 30t59.5 11.5q51 0 85.5 -33.5t34.5 -93.5q0 -49 -19.5 -94.5t-56.5 -81t-91 -58t-122 -25.5zM220 552q17 0 35 9t36 29q3 16 5 32
t2 33q0 44 -17 66t-44 22q-20 0 -35 -10t-25.5 -25.5t-16 -35.5t-5.5 -41q0 -79 65 -79z" />
    <glyph glyph-name="plus.sup" horiz-adv-x="297" 
d="M227 537v-117h-29v117h-128v25h128v118h29v-118h127v-25h-127z" />
    <glyph glyph-name="minus.sup" horiz-adv-x="297" 
d="M70 537v25h284v-25h-284z" />
    <glyph glyph-name="A.alt" horiz-adv-x="600" 
d="M-61 19l55 17l440 629l31 6l35 5v-640l65 -18l-3 -18h-239l4 18l91 17l2 230h-223l-149 -227l93 -19l-4 -19h-202zM222 302h198l3 301l-2 1z" />
    <glyph glyph-name="M.alt" horiz-adv-x="849" 
d="M-32 19l71 18l177 592l-79 18l3 17h177l81 -521l299 521h154l-3 -17l-85 -18l-38 -594l62 -17l-3 -18h-230l4 18l86 17l38 547l-291 -510l-25 -45h-27l-5 45l-91 538l-160 -573l77 -18l-3 -19h-193z" />
    <glyph glyph-name="V.alt" horiz-adv-x="551" 
d="M121 631l-46 16l3 17h213l-3 -17l-86 -18l-7 -518h2l372 518l-80 18l3 17h166l-4 -17l-38 -16l-470 -637h-24z" />
    <glyph glyph-name="W.alt" horiz-adv-x="792" 
d="M433 485l-307 -491h-33l28 637l-46 16l3 17h212l-3 -17l-86 -18l-29 -512l261 425l1 89l-72 16l3 17h238l-3 -17l-87 -18l-11 -514l298 514l-80 18l3 17h167l-4 -17l-39 -16l-385 -637h-33z" />
    <glyph glyph-name="h.alt" horiz-adv-x="445" 
d="M172 668l-61 41l2 7l152 30l-128 -487h4q28 47 57 87.5t58.5 70t58.5 46t58 16.5q31 0 47 -23.5t16 -61.5q0 -68 -23.5 -139.5t-59 -130t-76.5 -96t-77 -37.5q-14 0 -27 7t-13 24q0 7 4 16.5t12 18.5q21 -16 38 -20.5t33 -3.5q12 15 30.5 49t36 79t30 96.5t12.5 101.5
q0 27 -6.5 43t-26.5 16q-22 0 -53.5 -25t-64 -69.5t-62.5 -104.5t-50 -130l-24 -84l-60 -17l-14 12z" />
    <glyph glyph-name="v.alt" horiz-adv-x="490" 
d="M118 403q-29 0 -37.5 -5t-8.5 -16q0 -9 9 -18.5t39 -28.5q-13 -21 -26.5 -29.5t-27.5 -8.5q-17 0 -28.5 12t-11.5 29q0 16 11.5 37.5t30.5 41t44 33t52 13.5h134v-7l-54 -95q-20 -35 -34.5 -64t-24.5 -54t-15 -47t-5 -43q-2 -25 4.5 -41.5t17.5 -27t25 -15t28 -4.5
q38 0 70 23t55.5 59t36.5 80t13 87q0 38 -11 76.5t-29 64.5q10 7 20.5 11t23.5 4q11 0 20.5 -3.5t17 -13t12 -26t4.5 -42.5q0 -38 -11 -82.5t-30.5 -88t-46 -84t-57.5 -72t-65 -50t-68 -18.5q-42 0 -72 28t-29 82q0 28 8.5 54.5t23 55t35 60.5t45.5 71l37 58v4h-125z" />
    <glyph glyph-name="w.alt" horiz-adv-x="660" 
d="M295 455l-61 -100q-17 -27 -33 -56t-29.5 -57.5t-23 -56t-12.5 -52.5q-3 -35 15 -56t42 -21q38 0 71.5 27.5t65.5 75.5q5 48 10 86.5t11.5 72.5t14 65.5t17.5 65.5q14 21 39 21q13 0 20 -6t9 -15t0 -20t-6 -21l-89 -252q7 -47 28.5 -68.5t61.5 -21.5q27 0 52.5 15
t45.5 43.5t32.5 70.5t12.5 96q0 22 -4 45.5t-10.5 45t-14.5 40.5t-16 33q5 4 17 9.5t27 5.5q9 0 18.5 -3t18 -13t13.5 -28.5t5 -48.5q0 -29 -7 -69.5t-20 -83.5t-32 -85t-43.5 -75t-54.5 -53.5t-65 -20.5q-54 0 -73.5 36.5t-15.5 99.5h-3q-46 -66 -93 -101t-96 -35
q-21 0 -37 8.5t-27.5 22.5t-16.5 33t-3 40q2 25 17 57t36 65.5t45.5 67.5t45.5 63l40 55v1h-122q-23 0 -34.5 -4t-11.5 -17q0 -11 11 -20.5t37 -26.5q-13 -22 -26.5 -30t-27.5 -8q-17 0 -28.5 12t-11.5 29q0 16 12 37.5t31.5 41t44 33t50.5 13.5h133z" />
    <glyph glyph-name="Aacute.alt" horiz-adv-x="600" 
d="M621 865v-7l-137 -130h-24l84 137h77zM-61 19l55 17l440 629l31 6l35 5v-640l65 -18l-3 -18h-239l4 18l91 17l2 230h-223l-149 -227l93 -19l-4 -19h-202zM222 302h198l3 301l-2 1z" />
    <glyph glyph-name="Abreve.alt" horiz-adv-x="600" 
d="M-61 19l55 17l440 629l31 6l35 5v-640l65 -18l-3 -18h-239l4 18l91 17l2 230h-223l-149 -227l93 -19l-4 -19h-202zM222 302h198l3 301l-2 1zM479 730q-53 0 -80.5 30t-30.5 98h17q17 -41 39 -60t64 -19q36 0 64.5 18.5t51.5 60.5h16q-12 -59 -49 -93.5t-92 -34.5z" />
    <glyph glyph-name="Acircumflex.alt" horiz-adv-x="600" 
d="M333 728l140 127h51l90 -127h-29l-96 83l-122 -83h-34zM-61 19l55 17l440 629l31 6l35 5v-640l65 -18l-3 -18h-239l4 18l91 17l2 230h-223l-149 -227l93 -19l-4 -19h-202zM222 302h198l3 301l-2 1z" />
    <glyph glyph-name="Adieresis.alt" horiz-adv-x="600" 
d="M-61 19l55 17l440 629l31 6l35 5v-640l65 -18l-3 -18h-239l4 18l91 17l2 230h-223l-149 -227l93 -19l-4 -19h-202zM222 302h198l3 301l-2 1zM384 760q-19 0 -31.5 13t-12.5 32t12.5 32.5t31.5 13.5q20 0 33.5 -13.5t13.5 -32.5t-13.5 -32t-33.5 -13zM584 760
q-19 0 -32 13t-13 32t13 32.5t32 13.5t32.5 -13.5t13.5 -32.5t-13.5 -32t-32.5 -13z" />
    <glyph glyph-name="Agrave.alt" horiz-adv-x="600" 
d="M-61 19l55 17l440 629l31 6l35 5v-640l65 -18l-3 -18h-239l4 18l91 17l2 230h-223l-149 -227l93 -19l-4 -19h-202zM222 302h198l3 301l-2 1zM422 865l63 -137h-24l-116 130v7h77z" />
    <glyph glyph-name="Amacron.alt" horiz-adv-x="600" 
d="M-61 19l55 17l440 629l31 6l35 5v-640l65 -18l-3 -18h-239l4 18l91 17l2 230h-223l-149 -227l93 -19l-4 -19h-202zM222 302h198l3 301l-2 1zM349 808h280l-11 -48h-279z" />
    <glyph glyph-name="Aogonek.alt" horiz-adv-x="600" 
d="M-61 19l55 17l440 629l31 6l35 5v-640l65 -18l-4 -18h-126q-34 -29 -57.5 -51.5t-37.5 -41t-20.5 -33.5t-6.5 -30q0 -16 10.5 -30t33.5 -14q20 0 38 11t44 43l15 -8q-26 -38 -58.5 -66.5t-76.5 -28.5q-36 0 -53.5 22.5t-17.5 48.5q0 22 9.5 41t30.5 40.5t53 47.5t77 61v1
l2 252h-223l-149 -227l93 -19l-4 -19h-202zM222 302h198l3 301l-2 1z" />
    <glyph glyph-name="Aring.alt" horiz-adv-x="600" 
d="M-61 19l55 17l440 629l31 6l35 5v-640l65 -18l-3 -18h-239l4 18l91 17l2 230h-223l-149 -227l93 -19l-4 -19h-202zM222 302h198l3 301l-2 1zM392 835q0 43 28.5 70t70.5 27q43 0 71.5 -26.5t28.5 -70.5q0 -43 -28.5 -70.5t-70.5 -27.5q-43 0 -71.5 27t-28.5 71zM423 835
q0 -31 20 -51.5t48 -20.5q29 0 49.5 20.5t20.5 51.5t-20.5 51.5t-48.5 20.5q-29 0 -49 -20.5t-20 -51.5z" />
    <glyph glyph-name="Aringacute.alt" horiz-adv-x="600" 
d="M662 1056v-7l-137 -130h-24l84 137h77zM-61 19l55 17l440 629l31 6l35 5v-640l65 -18l-3 -18h-239l4 18l91 17l2 230h-223l-149 -227l93 -19l-4 -19h-202zM222 302h198l3 301l-2 1zM392 798q0 43 28.5 70t70.5 27q43 0 71.5 -26.5t28.5 -70.5q0 -43 -28.5 -70.5
t-70.5 -27.5q-43 0 -71.5 27t-28.5 71zM423 798q0 -31 20 -51.5t48 -20.5q29 0 49.5 20.5t20.5 51.5t-20.5 51.5t-48.5 20.5q-29 0 -49 -20.5t-20 -51.5z" />
    <glyph glyph-name="Atilde.alt" horiz-adv-x="600" 
d="M-61 19l55 17l440 629l31 6l35 5v-640l65 -18l-3 -18h-239l4 18l91 17l2 230h-223l-149 -227l93 -19l-4 -19h-202zM222 302h198l3 301l-2 1zM327 743l5 14q12 35 28.5 53t34.5 24.5t37 3.5t37 -11l56 -25q17 -8 30 -12t24.5 -0.5t22.5 15.5t23 38l14 -5l-6 -19
q-11 -34 -26 -53.5t-32 -28t-37 -6.5t-41 12l-54 26q-21 9 -35.5 13.5t-26 1.5t-21 -14t-20.5 -32z" />
    </font>
</defs>
</svg>
